<svg xmlns="http://www.w3.org/2000/svg" xmlns:xlink="http://www.w3.org/1999/xlink" width="643.75" height="459.81" viewBox="0 0 643.75 459.81"><defs><clipPath id="a"><rect width="643.75" height="459.81" fill="none"/></clipPath><clipPath id="b"><rect width="190.159" height="217.062" fill="none"/></clipPath></defs><g transform="translate(0 0.003)"><g transform="translate(0 -0.003)"><g clip-path="url(#a)"><path d="M591.074,787.414s123.444-173.3-7.613-220.695c-33.011-11.939-44.527-179.082-191.16-95.511-58.314,33.235-142.28-6.984-222.691,15C95.762,506.4,94.065,564.631,103.4,585.6c10.2,22.908-30.483,50.3-72.15,69.107-65.359,29.506-17.3,133.2,44.448,133.7s515.373-.987,515.373-.987" transform="translate(0 -328.692)" fill="#ebf3fa"/><path d="M176.342,804.386h18.67a8.956,8.956,0,0,0,8.93-8.93V780.078a8.956,8.956,0,0,0-8.93-8.93h-18.67a8.956,8.956,0,0,0-8.93,8.93v15.379a8.956,8.956,0,0,0,8.93,8.93" transform="translate(-122.855 -565.906)" fill="#a6d9f1"/><path d="M207.019,799.773H189.551a4.972,4.972,0,0,0-4.958,4.958v4.279a4.957,4.957,0,0,0,4.5,4.911l-2.114,6.144,11.042-6.1h9a4.972,4.972,0,0,0,4.958-4.958v-4.279a4.972,4.972,0,0,0-4.958-4.958" transform="translate(-135.464 -586.912)" fill="#e69d43"/><path d="M215.319,818.107H196.078a1.035,1.035,0,0,1-1.032-1.032v-.05a1.035,1.035,0,0,1,1.032-1.032h19.241a1.035,1.035,0,0,1,1.032,1.032v.05a1.035,1.035,0,0,1-1.032,1.032" transform="translate(-143.134 -598.815)" fill="#ca5f00"/><path d="M215.319,830.969H196.078a1.035,1.035,0,0,1-1.032-1.032v-.05a1.035,1.035,0,0,1,1.032-1.032h19.241a1.035,1.035,0,0,1,1.032,1.032v.05a1.035,1.035,0,0,1-1.032,1.032" transform="translate(-143.134 -608.254)" fill="#ca5f00"/><path d="M1850.36,595.428h-18.67a8.956,8.956,0,0,0-8.93,8.93v15.379a8.956,8.956,0,0,0,8.93,8.93h18.67a8.956,8.956,0,0,0,8.93-8.93V604.358a8.956,8.956,0,0,0-8.93-8.93" transform="translate(-1337.632 -436.954)" fill="#a6d9f1"/><path d="M1873.328,637.065c-1.015,2.674-9.713,9.7-9.713,9.7s-2.835-2.3-5.461-4.784c-1.965-1.836-3.8-3.77-4.236-4.913a5.156,5.156,0,0,1,3.866-7.1c3.785-.645,5.831,3.318,5.831,3.318s2.046-3.963,5.847-3.318a5.167,5.167,0,0,1,1.74.612,5.309,5.309,0,0,1,2.126,6.491" transform="translate(-1360.228 -462.244)" fill="#d6716b"/><path d="M1886.021,638.949c-1.015,2.674-9.713,9.7-9.713,9.7s-2.835-2.3-5.461-4.784c10.358-2.9,12.581-8.892,13.048-11.4a5.309,5.309,0,0,1,2.126,6.491" transform="translate(-1372.921 -464.128)" fill="#aa443e"/><path d="M167.411,608.437s20.554-2.561,33.113,9.01,35.957,1.025,45.378,0c16.379-1.783,29.22,3.576,33.028,9.467v17.671H167.411Z" transform="translate(-122.855 -446.324)" fill="#ee9849"/><rect width="0.861" height="27.594" transform="translate(60.488 133.675)" fill="#a6c7f9"/><rect width="0.861" height="27.594" transform="translate(94.288 145.516)" fill="#a6c7f9"/><rect width="0.861" height="27.594" transform="translate(129.165 139.272)" fill="#a6c7f9"/><path d="M246.453,514.2h-6.6a.718.718,0,1,1,0-1.435h6.6a.718.718,0,0,1,0,1.435" transform="translate(-175.488 -376.292)" fill="#a6c7f9"/><path d="M246.453,523.908h-6.6a.718.718,0,1,1,0-1.435h6.6a.718.718,0,0,1,0,1.435" transform="translate(-175.488 -383.416)" fill="#a6c7f9"/><path d="M371.562,567.049h-6.6a.718.718,0,1,1,0-1.435h6.6a.718.718,0,0,1,0,1.435" transform="translate(-267.299 -415.075)" fill="#a6c7f9"/><path d="M371.562,576.555h-6.6a.718.718,0,1,1,0-1.435h6.6a.718.718,0,0,1,0,1.435" transform="translate(-267.299 -422.051)" fill="#a6c7f9"/><path d="M504.76,527.951h-6.6a.718.718,0,0,1,0-1.435h6.6a.718.718,0,0,1,0,1.435" transform="translate(-365.046 -386.383)" fill="#a6c7f9"/><path d="M504.76,537.459h-6.6a.718.718,0,0,1,0-1.435h6.6a.718.718,0,0,1,0,1.435" transform="translate(-365.046 -393.36)" fill="#a6c7f9"/><path d="M1824.162,1173.189H1723.25v-59.625h1.255v58.37h99.657Z" transform="translate(-1264.607 -817.188)" fill="#a6c7f9"/><path d="M1771.494,1183.112c-12.353-9.833-25.49,0-25.49,0v16.811h92.351v-43.456c-25.1.635-54.509,36.477-66.861,26.644" transform="translate(-1281.305 -848.673)" fill="#a6c7f9"/><path d="M1747.062,1124.816h43.033a1.057,1.057,0,1,0,0-2.115h-43.033a1.057,1.057,0,0,0,0,2.115" transform="translate(-1281.305 -823.893)" fill="#a6c7f9"/><path d="M1747.062,1144.228h43.033a1.057,1.057,0,0,0,0-2.115h-43.033a1.057,1.057,0,0,0,0,2.115" transform="translate(-1281.305 -838.139)" fill="#a6c7f9"/><path d="M1746.87,1162.555h28.493a.868.868,0,0,0,.865-.865v-.384a.868.868,0,0,0-.865-.865H1746.87a.868.868,0,0,0-.865.865v.384a.868.868,0,0,0,.865.865" transform="translate(-1281.305 -851.588)" fill="#a6c7f9"/><rect width="16.156" height="100.64" transform="translate(393.6 47.298)" fill="#a6c7f9"/><rect width="16.156" height="128.693" transform="translate(420.068 19.245)" fill="#a6c7f9"/><rect width="16.156" height="76.302" transform="translate(448.948 71.635)" fill="#a6c7f9"/><rect width="16.156" height="111.511" transform="translate(477.05 36.426)" fill="#a6c7f9"/><rect width="16.156" height="61.368" transform="translate(505.299 86.57)" fill="#a6c7f9"/><path d="M1808.6,82.351h-13.682a1.415,1.415,0,0,0,0,2.831H1808.6a1.415,1.415,0,1,0,0-2.831" transform="translate(-1316.165 -60.432)" fill="#a6c7f9"/><path d="M1798.038,101.7h-3.116a1.416,1.416,0,0,0,0,2.831h3.116a1.416,1.416,0,0,0,0-2.831" transform="translate(-1316.165 -74.633)" fill="#a6c7f9"/><path d="M1596.774,0h-13.682a1.415,1.415,0,0,0,0,2.831h13.682a1.415,1.415,0,1,0,0-2.831" transform="translate(-1160.713 0.003)" fill="#a6c7f9"/><path d="M1586.208,19.349h-3.116a1.415,1.415,0,0,0,0,2.831h3.116a1.415,1.415,0,0,0,0-2.831" transform="translate(-1160.713 -14.198)" fill="#a6c7f9"/><path d="M1701.247,212.714h-13.682a1.415,1.415,0,1,0,0,2.831h13.682a1.415,1.415,0,1,0,0-2.831" transform="translate(-1237.381 -156.099)" fill="#a6c7f9"/><path d="M1690.682,232.065h-3.116a1.415,1.415,0,1,0,0,2.831h3.116a1.415,1.415,0,1,0,0-2.831" transform="translate(-1237.381 -170.3)" fill="#a6c7f9"/><path d="M1912.973,269.151h-13.682a1.415,1.415,0,0,0,0,2.831h13.682a1.415,1.415,0,1,0,0-2.831" transform="translate(-1392.756 -197.516)" fill="#a6c7f9"/><path d="M1902.407,288.5h-3.116a1.415,1.415,0,0,0,0,2.831h3.116a1.415,1.415,0,0,0,0-2.831" transform="translate(-1392.756 -211.717)" fill="#a6c7f9"/><rect width="190.159" height="286.781" transform="translate(195.056 126.964)" fill="#d2e4ff"/><rect width="153.1" height="170.648" transform="translate(213.43 143.005)" fill="#f3f9ff"/><path d="M814.142,1307.41a27.534,27.534,0,1,1,27.534,27.534,27.534,27.534,0,0,1-27.534-27.534" transform="translate(-597.458 -939.236)" fill="#f3f9ff"/><path d="M876.7,1319.153a23.274,23.274,0,1,0-9.157,18.506l-14.116-18.506,21.75,8.3a23.239,23.239,0,0,0,1.524-8.3" transform="translate(-609.203 -950.978)" fill="#a8d29f"/><path d="M1166.624,1307.41a27.534,27.534,0,1,1,27.534,27.534,27.534,27.534,0,0,1-27.534-27.534" transform="translate(-856.127 -939.236)" fill="#f3f9ff"/><path d="M1205.9,1295.877a23.275,23.275,0,0,0-16.588,39.6l16.588-16.326,21.749,8.3a23.291,23.291,0,0,0-21.749-31.577" transform="translate(-867.871 -950.978)" fill="#a8d29f"/><path d="M1228.03,1338.934h-9.907a.708.708,0,0,0,0,1.415h9.907a.708.708,0,1,0,0-1.415" transform="translate(-893.4 -982.576)" fill="#82b378"/><path d="M1228.03,1347.354h-9.907a.708.708,0,0,0,0,1.416h9.907a.708.708,0,0,0,0-1.416" transform="translate(-893.4 -988.755)" fill="#82b378"/><path d="M1222.213,1355.774h-4.091a.708.708,0,1,0,0,1.415h4.091a.708.708,0,0,0,0-1.415" transform="translate(-893.399 -994.934)" fill="#82b378"/><path d="M874.832,1338.934h-9.907a.708.708,0,1,0,0,1.415h9.907a.708.708,0,0,0,0-1.415" transform="translate(-634.205 -982.576)" fill="#82b378"/><path d="M874.832,1347.354h-9.907a.708.708,0,0,0,0,1.416h9.907a.708.708,0,0,0,0-1.416" transform="translate(-634.205 -988.755)" fill="#82b378"/><path d="M869.015,1355.774h-4.092a.708.708,0,0,0,0,1.415h4.092a.708.708,0,0,0,0-1.415" transform="translate(-634.205 -994.934)" fill="#82b378"/><path d="M571.784,1630.071l3.252,13.7,4.872-.027.179-13.671Z" transform="translate(-419.604 -1196.226)" fill="#ffb27d"/><path d="M725.754,1627.293l9.254,13.115,3.607-4.631-5.57-10.286Z" transform="translate(-532.594 -1192.865)" fill="#ffb27d"/><path d="M513.445,949.524a9.436,9.436,0,0,0-5.107-.977,2.389,2.389,0,0,1,1.077-.511,7.92,7.92,0,0,0-2.825.737c-12.16-4.685-14.071,13.219-13.816,17.379s-4.086,5.518-10.413,8.795c-12.071,6.253-13.131,14.627-13.131,14.627.094.055.192.118.3.19.6-1.015,1.832-2.92,2.872-3.207a43.04,43.04,0,0,0-1.672,4.073c3.561,2.709,10.223,8.711,14.866,12.967a6.826,6.826,0,0,1,.316-2.636l.574,3.454c2.484,2.284,4.2,3.891,4.2,3.891-.307-3.361,15.2-21.1,23.294-26.412,1.97-2.9,2.67-8.023,2.722-8.426a22.123,22.123,0,0,1-1.656,7.623c6.852-6.306,2.863-29.032-1.6-31.566" transform="translate(-344.345 -695.687)" fill="#163560"/><path d="M603.955,1043.311c.04.018-3.907,2.068-6.876,1.256-2.793-.762-4.618-4.383-4.579-4.391,1.183-.235,1.524-1.86,1.5-8.845l.535.105,8.991,1.781s-.2,2.829-.211,5.495c-.006,2.238.13,4.36.642,4.6" transform="translate(-434.805 -756.841)" fill="#ffb27d"/><path d="M597.341,958.759a7.186,7.186,0,0,1,10-.242s-3.241-.56-10,.242" transform="translate(-438.359 -701.991)" fill="#e37970"/><path d="M609.132,1033.507s-.2,2.829-.211,5.495c-5.031-.142-7.69-4.731-8.78-7.275Z" transform="translate(-440.413 -757.132)" fill="#d68d5d"/><path d="M587.425,977.114a26.439,26.439,0,0,1-3.269-7.728c-.452-2.543.844-11.97,10.316-10.612a12.868,12.868,0,0,1,5.337,2.018c2.057,1.389,5.025,4.388,1.706,12.614l-.862,2.779Z" transform="translate(-428.626 -703.498)" fill="#163560"/><path d="M627.847,1366.3l-4.766.146-5.159.158a101.824,101.824,0,0,1-18.6-34.532q-.234-.741-.494-1.5c-3.658-10.666-11.241-24.053-15.237-36.171-.636-1.93-1.207-3.747-1.719-5.466-.164-.551-.324-1.092-.476-1.624a128.542,128.542,0,0,1-4.583-24.128l28.855.231A537.888,537.888,0,0,0,627.847,1366.3" transform="translate(-423.295 -926.988)" fill="#80bdcc"/><path d="M567.531,1098.616c-.073,13.731,2.014,19.622,2.014,19.622a38.773,38.773,0,0,1-27.038,1.656c-.173-.054-12.158-2.79-12.158-2.79.246-.556,2.431-9.81,2.671-10.319,3.1-6.657,5.454-9.577,5.822-11.623a43.548,43.548,0,0,0,.357-11.5,92.315,92.315,0,0,0-3.561-18.066,94.717,94.717,0,0,0,12.016-4.029c.958,1.193,3.782,2.4,6.322,2.341,2.925-.064,3.838-1.3,3.731-2.695,3.117,1.734,5.595,3.384,5.595,3.384,2.649,4.6,8.022,9.07,8.411,16.129.1,1.736-4.179,17.509-4.181,17.893" transform="translate(-389.196 -778.768)" fill="#e7f1fd"/><path d="M550.079,1141.711c-1.261,1.785-3.68,12.636-9.7,14,3.1-7.733,5.454-11.124,5.822-13.5a58.669,58.669,0,0,0,.357-13.363c2.014-3.53,3.517-5.95,3.517-5.95.158-.571,3.2-9.978,4.176-1.569s-2.767,18.387-4.176,20.384" transform="translate(-396.56 -820.332)" fill="#5f9aa8"/><path d="M607.022,992.518s-11.9.2-11.912-7.218-1.55-12.383,6.05-12.822,9.079,2.389,9.684,4.863-.726,14.935-3.822,15.177" transform="translate(-436.624 -713.619)" fill="#ffb27d"/><path d="M599.938,968.69c-1.837-2.227-3.226-1.743-4.006-1.074-2.572-3.844-10.7,1.715-10.7,1.715A14.164,14.164,0,0,1,580.6,977.7s2.17,1.34,7.171.054c3.936-1.012,6.793-6.615,7.831-8.956a9.445,9.445,0,0,1,2.649,3.507c.593,1.888.86,5.775,1.993,5.643,0,0,2.456-5.912-.3-9.257" transform="translate(-426.071 -709.09)" fill="#163560"/><path d="M581.47,1678.662a13.2,13.2,0,0,1-.621,5.616s-.8,3.633,2.781,3.7,4.456-.27,4.051-2.5-1.176-6.08-1.176-6.08Z" transform="translate(-426.2 -1231.885)" fill="#ffb27d"/><path d="M587.156,1704.989l-.012.008h-7.4l-.012-.008a19.1,19.1,0,0,1,.257-5.48c4.052,3.874,6.588-.1,6.588-.1.658,1.656.582,5.577.582,5.577" transform="translate(-425.338 -1247.112)" fill="#c45446"/><path d="M769.174,1675.356s-6.6-7.492-8.623-11.218l-4.905,2.513,10.965,10.3,2.565-.337Z" transform="translate(-554.531 -1221.227)" fill="#ffb27d"/><path d="M769.65,1685.954H760.5a14.926,14.926,0,0,1-2.516-4.109,4.428,4.428,0,0,0-2.987-2.037v6.146H753.1l-1.754-6.535c-1.168-2.189-.291-4.2.531-5.928.956,0,3.728.688,8.6,6.288a6.339,6.339,0,0,0,5.126,2.441.458.458,0,0,0,.072.039c2.775,1.273,3.68,2.837,3.974,3.7" transform="translate(-550.961 -1228.09)" fill="#c45446"/><path d="M682.849,1069.973s-7.814,4.369-10.6,5.628c-.992.448-2.791,1.284-4.628,2.143-1.109.518-2.232,1.045-3.2,1.5a4.027,4.027,0,0,1-4.772-1.029c-4.231-4.94-15.18-15.648-26.488-16.99l-.039-.017.005.012-.014,0,.063.122c.636,1.58,6.834,17.068,7.027,20.335.2,3.443.81,56.3.81,56.3s-.405,2.43,4.253,1.418,5.873-2.025,5.873-2.025-4.456-32.608-3.241-43.95a25.226,25.226,0,0,0-.474-7.31,58.084,58.084,0,0,0,15.006,6.027,68.281,68.281,0,0,0,7.734-4.237,48.545,48.545,0,0,0,6.522-5.248,95.753,95.753,0,0,0,7.413-8.531Z" transform="translate(-464.604 -778.768)" fill="#739af0"/><path d="M635.719,1424.088l-5.159.158a101.821,101.821,0,0,1-18.6-34.532q-.234-.741-.495-1.5c-3.658-10.665-11.241-24.053-15.237-36.171-.636-1.93-1.207-3.747-1.719-5.466q-.246-.827-.476-1.624l4.249-3.224s12.758,20.659,16.707,40.1c3.431,16.887,17.171,37.208,20.728,42.261" transform="translate(-435.932 -984.625)" fill="#5f9aa8"/><path d="M550.734,1368.52c.073,9.454-.405,31.19-1.637,40.189h-4.569c-2.526,0-3.785-.036-3.785-.036-3.089-15.646-5.286-28.592-6.886-39.748-1.312-9.155-2.479-17-3.376-23.76-.9-6.8-1.531-12.492-1.756-17.3q-.052-1.136-.075-2.21t-.012-2.1l24.932-2.43c-.314,16.565-2.876,41.9-2.836,47.393" transform="translate(-387.938 -969.508)" fill="#80bdcc"/><path d="M544.776,1427.284c-2.526,0-3.786-.036-3.786-.036-3.089-15.646-5.286-28.592-6.886-39.748-1.312-9.155-2.479-17-3.376-23.76-.9-6.8-1.531-12.492-1.756-17.3l9.148,5.381s-5.839,2.06-3.611,17.655,7.166,55.6,10.266,57.81" transform="translate(-388.186 -988.082)" fill="#5f9aa8"/><path d="M530.6,1137.944s-1.756,6.345-7.832,5.535-14.716-4.456-14.716-4.456,2.6-8.2,5.825-18.983c3.909-13.049,8.748-29.872,11.028-40.483a65.542,65.542,0,0,0,1.24-7.235l5.146-9.785s7.411,16.873,7.817,21.126-8.506,54.28-8.506,54.28" transform="translate(-372.836 -779.742)" fill="#739af0"/><path d="M614.091,1159.027c-2.924.384-4.046,1.939-4.407,4.035a8.9,8.9,0,0,1-1.273,3.039c-2.913.156-9.85.534-15.679.9l-.481,7.645a87.283,87.283,0,0,0,17.443-4.129,4.561,4.561,0,0,0,1.985-1.079c4.2-3.437,6.578-9.192,6.585-10.016s-1.25-.783-4.174-.4" transform="translate(-434.624 -850.357)" fill="#ffb27d"/><path d="M546.395,1139.5c-.271,6.886-1.892,20.253-16.338,27.409-.039.018-.077.038-.116.054,3.909-13.049,8.748-29.872,11.028-40.483,2.653,3.966,5.574,9.228,5.426,13.019" transform="translate(-388.897 -826.669)" fill="#4a75cb"/><path d="M540.151,1062.538s-11.571,1.29-15.328,7.492c-7.515,12.405-4.837,29.8-.135,35.106,0,0,5.205,1.482,14.411-.239l.34-.065s2.937-7.19.3-8.608c0,0-7.764.405-6.954-2.16s7.362-31.527,7.362-31.527" transform="translate(-381.694 -779.742)" fill="#739af0"/><path d="M828.527,1074.4a7.43,7.43,0,0,0-8.327,5.193l1.241,4.153c2.049.283,3.843-.251,5.5-2.615s2.107-1.457,3.158-3.216c1.425-2.387-.8-3.276-1.567-3.515" transform="translate(-601.904 -788.383)" fill="#ffb27d"/><path d="M767.4,1099.762c-.992.448-2.791,1.284-4.628,2.143.983,1.746,2.213,4.918,2.54,10.161a42.41,42.41,0,0,0,6.716-5.41,89.062,89.062,0,0,0,7.218-8.369l-1.242-4.153s-7.814,4.369-10.6,5.628" transform="translate(-559.762 -802.929)" fill="#ffb27d"/><path d="M1444.74,1297.412s-4.728,1.214-7.733.309-8.178.582-9.011,1.678-.527,1.531.96,1.91,6.753,2.624,10.214,1.324a27.585,27.585,0,0,1,7.975-1.347Z" transform="translate(-1047.601 -952.105)" fill="#e49963"/><path d="M1523.263,1128.575s-5.311,37.747-14.105,41.128c-4.339,1.668-23.517,5.45-29.19,5.83,0,0-1.389-1.127-1.051-5.716,0,0,20.093-7.376,22.947-11.388,4.248-5.97-2.637-24.391,2.693-30s14.308-8.017,18.706.144" transform="translate(-1085.264 -824.337)" fill="#c45446"/><path d="M1570.515,1523.973v-8.23h12.957a.637.637,0,0,0,.636-.635v-1.319a.637.637,0,0,0-.636-.635h-12.957V1466.3a2.4,2.4,0,0,0-2.39-2.39h-2.564a2.4,2.4,0,0,0-2.39,2.39v46.849h-12.957a.638.638,0,0,0-.636.635v1.319a.637.637,0,0,0,.636.635h12.957v8.23c-9.375.709-16.886,4.084-18.993,8.445h45.33c-2.107-4.361-9.618-7.736-18.993-8.445" transform="translate(-1133.195 -1074.292)" fill="#2b478b"/><path d="M1491.649,1380.794a66.147,66.147,0,0,1-5.188,7.423c-5.708,7.206-11.922,13.147-13,18.764a25.409,25.409,0,0,1-1,3.594c-.452,1.287-1.01,2.639-1.656,4.038a124.447,124.447,0,0,1-9.661,16.516c-6.252,9.264-12.131,16.995-12.131,16.995l-10.782-.46c.432-1.081,5.135-13.872,11.425-29.5,2.555-6.346,5.271-13.1,7.892-19.605q.524-1.3,1.044-2.593c.8-1.992,1.59-3.953,2.36-5.863,5.907-14.678,10.612-26.367,10.612-26.367s23.608-8.943,26.06-3.148c2.021,4.778.375,9.459-5.966,20.21" transform="translate(-1055.44 -997.03)" fill="#163560"/><path d="M1417.205,1679.627s-.552,8.9-2.273,9.024c-.229.017-8.73.017-8.73.017l-10.852-.063a3.521,3.521,0,0,1,3.243-3.168c3.172-.553,8.482-2.782,10.4-6.975,2.022-4.411,8.209,1.164,8.209,1.164" transform="translate(-1023.977 -1230.493)" fill="#163560"/><path d="M1555.706,1592.021s7.5,4.819,6.772,6.384c-.1.208-4.241,7.631-4.241,7.631l-5.345,9.445a3.522,3.522,0,0,1-1.185-4.376c1.064-3.039,1.706-8.762-1.018-12.483-2.866-3.915,5.018-6.6,5.018-6.6" transform="translate(-1137.511 -1168.303)" fill="#163560"/><path d="M1441.817,1361.851s-29.633,18.458-32.941,30.863,39.419,38.867,39.419,38.867,4.686-4.135,5.513-7.167c0,0-19.313-23.138-23.5-28.325-2.573-3.185,38.043-11.027,43-18.745s3.185-14.213,3.185-14.213Z" transform="translate(-1033.77 -999.393)" fill="#1c468a"/><path d="M1569.969,1450.907h-60.647a2.211,2.211,0,0,0-2.205,2.205v12.129a2.212,2.212,0,0,0,2.205,2.206h60.647a2.212,2.212,0,0,0,2.205-2.206v-12.129a2.212,2.212,0,0,0-2.205-2.205" transform="translate(-1105.997 -1064.747)" fill="#ee9849"/><path d="M1572.185,1076.86a16.721,16.721,0,0,0-4.514,4.091c7.1,1.836,18.868-4.742,18.868-4.742a17.415,17.415,0,0,1-6.263-9.817q-.129-.511-.233-1.047a21.374,21.374,0,0,1-.384-3.694l-3.261,2.921-5.423,4.858a46.577,46.577,0,0,0,.8,5.483q.177.908.408,1.946" transform="translate(-1150.435 -779.092)" fill="#e49963"/><path d="M1566.014,1142.667c-1.017,13.677.693,34.469-.46,38.071-1,3.108-12.712,1.268-17.24.23-1.676-.384-3.706-.932-5.8-1.581-5.848-1.811-12.22-4.4-12.9-6.316a1.554,1.554,0,0,1-.063-.221,1.754,1.754,0,0,1,.011-.8c.229-.978,1.106-2.037,1.21-4.459.115-2.7.1-5.89.2-9.315.006-.386.01-.806.053-1.19v-.14c0-.074,0-.146.005-.219.1-3.82.3-7.836.53-11.819.147-2.5.317-4.978.513-7.352a98.287,98.287,0,0,1,2.107-15.019,24.121,24.121,0,0,1,7.748-11.961l2.158-1.851a12.479,12.479,0,0,0,7.83-1.043c2.787-1.324,3.75-2.272,4.235-1.914,6.437,4.966,11.067,20.183,9.866,36.9" transform="translate(-1122.427 -811.408)" fill="#e37970"/><path d="M1542.751,1292.583c-5.848-1.811-12.22-4.4-12.9-6.316a1.563,1.563,0,0,1-.063-.221c0-.268.007-.536.012-.8.228-.978,1.106-2.037,1.209-4.46.116-2.7.1-5.89.2-9.315.005-.386.01-.806.053-1.19v-.14c0-.074,0-.146.005-.219l22.089-10.018s1.272,17.8-10.6,32.684" transform="translate(-1122.632 -924.576)" fill="#c45446"/><path d="M1580.086,1077.486a46.581,46.581,0,0,0,.8,5.483c5.295-1.711,7.7-6.494,8.5-8.522.228-.573.327-.927.327-.927l-.56-.119-3.646-.772Z" transform="translate(-1159.546 -787.147)" fill="#d68d5d"/><path d="M1564.452,1037.35s11.633,1.312,12.339-5.945,2.682-11.976-4.715-13.12-9.112,1.484-9.937,3.849-.694,14.688,2.314,15.216" transform="translate(-1146.055 -747.064)" fill="#e49963"/><path d="M1575.236,1019.07a11.953,11.953,0,0,0-11.327-10.631c-7.254-.683-3.21-6.926-2.436-7.922,0,0,5.557.762,11.253,1.7,11.956,1.975,3.684,15.35,2.51,16.85" transform="translate(-1144.55 -734.228)" fill="#2b478b"/><rect width="1.071" height="28.037" transform="translate(364.692 328.433) rotate(-17.998)" fill="#4a75cb"/><rect width="29.421" height="1.76" transform="translate(373.318 353.338) rotate(-1.224)" fill="#4a75cb"/><path d="M1455.057,1319.216s-4.566,1.728-7.652,1.16-8.064,1.479-8.771,2.661-.355,1.58,1.164,1.792,7,1.864,10.3.19a27.585,27.585,0,0,1,7.778-2.218Z" transform="translate(-1055.484 -968.106)" fill="#e49963"/><path d="M1527.886,1136.806s-1.117,38.1-9.485,42.432c-4.129,2.137-22.772,8.01-28.369,9.012,0,0-1.506-.967-1.675-5.565,0,0,19.156-9.547,21.551-13.848,3.564-6.4-5.31-23.951-.63-30.112s13.337-9.546,18.608-1.919" transform="translate(-1092.23 -831.019)" fill="#e37970"/></g></g><g transform="translate(195.056 95.853)"><g clip-path="url(#b)"><path d="M864.332,949.164l-1.932,3.13c-1,1.153-1.272,1.8-2.066,2.188a9.84,9.84,0,0,0-5.73,8.457s.061,2.88,1.992,1.947,1.088-.847,3.833-2.1,3.763-5.258,4-6.622l2.24-2.94Z" transform="translate(-822.206 -792.399)" fill="#d9935c"/><path d="M1350.784,760.484s2.048-5.019,4.3-5.224,9.423-1.332,9.936-.307,0,4.712-1.536,6.043-11.062,3.483-11.062,3.483Z" transform="translate(-1186.329 -649.566)" fill="#d9935c"/><path d="M1101.983,1499.817a12.565,12.565,0,0,0-.278,3.343c.105,1.127,1.766,2.214,1.766,2.214a10.265,10.265,0,0,0,4.272.469c.506-.018,1.045-.036,1.586-.084.761-.065,1.543-.032,2.349-.139.426-.055.809-.1,1.152-.132.09-.008.18-.017.268-.023.07,0,.14-.007.205-.015a14.084,14.084,0,0,1,4.229.437h9.249c4.083-.707,5.621-2.356,5.879-3.163.278-.877-2.879-1.556-6.409-2.338-.17-.038-.341-.078-.513-.115-.471-.1-.944-.213-1.412-.32-4.209-.984-8.375-2.229-9.752-6.264-1.462-4.278-1.117-16.976-1.117-16.976h-12.769s3.353,14.027,3,18.07c-.19,2.159-1.224,2.774-1.623,4.642-.03.132-.055.262-.08.393" transform="translate(-1002.794 -1179.54)" fill="#d9935c"/><path d="M1044.637,932.947c1.078,6.05,2.615,12.3,3.951,18.8,2.146,10.456,3.765,21.563,2.107,33.523a41.79,41.79,0,0,0-.353,5.065c-.321,21.139,9.124,59.448,9.124,59.448a16.68,16.68,0,0,0,6.865.894,21.8,21.8,0,0,0,5.61-1.537s.894-23.752.948-55.694c.039-23.154,4.585-53.64,5.5-71.554a229.374,229.374,0,0,0-.651-25.284s-18.828-15.14-25.591-7.394c-6.681,7.654-11.547,21.1-7.514,43.729" transform="translate(-960.587 -746.789)" fill="#80bdcc"/><path d="M1065.634,1091.016a41.717,41.717,0,0,0-.353,5.065c14.1-20.429,17.219-64.978,17.219-64.978l-15.488,7.517s-1.7,8.354-3.486,18.874c2.145,10.456,3.765,21.563,2.107,33.523" transform="translate(-975.525 -852.53)" fill="#5f9aa8"/><path d="M951.376,1500.894a2.627,2.627,0,0,0,1.722,2.277.042.042,0,0,0,.01,0,7.241,7.241,0,0,0,2.233.5,19,19,0,0,0,2.819,0c1.011-.062,2.085-.182,3.187-.329.426-.055.809-.1,1.152-.132.09-.007.18-.017.268-.022.07-.005.14-.008.208-.015a16.41,16.41,0,0,1,4.617.5h8.473c4.371-.663,6-2.387,6.264-3.216.281-.874-2.877-1.552-6.407-2.332-.17-.037-.343-.077-.516-.115-.468-.1-.941-.212-1.412-.319-4.209-.982-8.375-2.222-9.752-6.245-1.462-4.265.626-16.727.626-16.727l-11.83-.984s.734,14.2.383,18.231c-.191,2.152-1.29,3.335-1.688,5.2-.03.132-.055.262-.078.391a12.4,12.4,0,0,0-.28,3.333" transform="translate(-893.201 -1177.359)" fill="#d9935c"/><path d="M955.51,1093.982a28.761,28.761,0,0,0,5.231,1.877c2.189.438,6.738-.417,6.738-.417a308.483,308.483,0,0,1,6.431-39.813c4.218-18.479,10.495-40.315,19.246-60.994,1.869-4.416,9.576-25.32,10.884-30.6,3.956-15.939-.016-14.222-.016-14.222l-34.571-4.057s-4.259,2.189-6.221,24.7c-.587,6.741-.659,35.845-1.543,41.362a61.738,61.738,0,0,1-2.969,12.392c-6.422,15.764-3.211,69.771-3.211,69.771" transform="translate(-895.668 -789.902)" fill="#80bdcc"/><path d="M951.376,1565.8a2.635,2.635,0,0,0,1.722,2.284l.015.005a11.165,11.165,0,0,0,3.628.482,39.674,39.674,0,0,0,4.6-.33c.426-.05.811-.088,1.159-.113.09-.007.18-.017.268-.022.07-.005.14-.008.208-.015a15.7,15.7,0,0,1,4.5.48h8.721c4.274-.68,5.874-2.382,6.137-3.206.281-.878-2.877-1.557-6.407-2.339a21.33,21.33,0,0,1-10.894,1.927c-4.855-.463-9.812-2.4-13.295-2.889-.03.132-.055.262-.078.392a12.481,12.481,0,0,0-.28,3.344" transform="translate(-893.201 -1242.177)" fill="#b84c42"/><path d="M1104.432,1565.786a2.633,2.633,0,0,0,1.722,2.284.04.04,0,0,0,.01.005,11.229,11.229,0,0,0,3.633.482,39.673,39.673,0,0,0,4.6-.33c.425-.05.809-.088,1.159-.113.09-.007.18-.017.268-.022.07,0,.14-.008.205-.015a15.726,15.726,0,0,1,4.5.479h8.718c4.276-.68,5.876-2.381,6.139-3.206.278-.877-2.88-1.557-6.41-2.339a21.318,21.318,0,0,1-10.891,1.927c-4.854-.463-9.812-2.4-13.295-2.889-.03.133-.055.262-.08.393a12.58,12.58,0,0,0-.278,3.343" transform="translate(-1005.522 -1242.166)" fill="#b84c42"/><path d="M986.57,494.459c1.168-9.536-1.811-24.8-20.844-22.358s-25.032,21.144-21.193,29.461-5.526,10.323-8.466,19.267c-2.526,7.683-3.406,17.224-7.493,21.505-13.176,13.8,12.65,35.031,28.219,30.555,28.359-8.153,32.012-9.37,31-31.652-.516-11.417-9.4-15.84-3.758-19.143,13.623-7.979-.112-6.057,2.53-27.636" transform="translate(-873.83 -442.116)" fill="#b74b42"/><path d="M1051.358,603.218l5.244,13.55,11.317.552,5.646-8.431c-3.563-2.71-5.068-6.775-5.62-10.413a29.708,29.708,0,0,1-.2-6.976c.075-.728.151-1.154.151-1.154l-14.1-4.29-.05-.025c-.176,3.739-.376,6.674-.6,8.958-.8,8.054-1.781,8.23-1.781,8.23" transform="translate(-966.595 -525.914)" fill="#d9935c"/><path d="M1041.333,647.187c-.728,0-13.088-2.515-33.963,2.825,0,0,11.432,52.377,7.549,62.249a104.3,104.3,0,0,0-5.36,18.634l42.131.522s-.589-33.884,1.353-45.877-11.71-38.353-11.71-38.353" transform="translate(-934.314 -570.359)" fill="#d9935c"/><path d="M996.934,690.66c-.61-1.923-1.31-3.839-2.052-5.8-.858-2.286-4.72-26.122-1.9-29.339,2.98-3.4,13.137-5.962,13.137-5.962,2.082,3.261,9.207,11.362,18.05,9.9,4.769-.787,5.739-9.36,5.848-10.514l-.031-.129.042.006v-.006l.1.021c1.392.206,12.48,2.009,15.769,7.672,4.858,8.359,10.147,33.444,15.344,33.074,2.385-.172,26.393-9.194,26.393-9.194s4,3.746,3.233,8.344a250.662,250.662,0,0,1-21.878,13c-1.389.7-2.743,1.349-4.025,1.91-3.614,1.586-6.658,2.505-8.321,2.112a5.594,5.594,0,0,1-1.509-.633c-2.173-1.257-4.712-4.015-7.146-7.159-1.617-2.092-3.187-4.352-4.574-6.456l-.087-.133c-.594,7.975-1.191,16.653-.573,23.454.47,5.173.812,16.379-.075,19.275-1.851,6.034-15.452,7.63-28.145,7a82.591,82.591,0,0,1-13.289-1.349c-4.464-1.024-6.5-2.82-7.973-6.364-1.4-3.375,5.077-19.218,5.692-26.151a40.462,40.462,0,0,0-2.035-16.582" transform="translate(-923.012 -571.991)" fill="#e69d43"/><path d="M924.272,651.6s-10.021.4-14.668,4.721c-5.255,4.889-13.076,34.788-15.186,49.348,0,0-10.606,20.213-13.982,28.231a6.426,6.426,0,0,0,1.9,1.922,9.185,9.185,0,0,0,2.773,1.119s19.132-21.354,20.389-24.73,20.061-32.436,18.776-60.61" transform="translate(-841.164 -574.035)" fill="#e69d43"/><path d="M996.338,831.153c1.469,3.544,3.509,5.339,7.973,6.364,5.967-1.147,9.9-12.127,11.928-17.53,2.335-6.227-9.829-38.242-13.186-37.95-2.5.216-2.975,4.3-3.057,6.384A40.462,40.462,0,0,1,1002.031,805c-.616,6.933-7.094,22.776-5.693,26.151" transform="translate(-926.074 -669.751)" fill="#e58638"/><path d="M1185.28,806.944c1.387,2.1,2.957,4.365,4.574,6.457a38.319,38.319,0,0,0,7.146,7.159,5.593,5.593,0,0,0,1.509.633c1.663.393,4.707-.526,8.321-2.112a39.973,39.973,0,0,1-6.339-.094c-3.637-.309-4.694-4.247-10.443-10.152-3.438-3.53-4.482-2.986-4.768-1.89" transform="translate(-1064.874 -687.424)" fill="#e58638"/><path d="M1060.5,586.125c2.133,3.488,7.276,10.664,14.152,12.42a29.711,29.711,0,0,1-.2-6.976c.075-.728.151-1.154.151-1.154Z" transform="translate(-973.306 -525.983)" fill="#cc7c46"/><path d="M1069.333,528.684s-16.953,3.4-18.911-7.186-5.464-17.284,5.277-19.905,13.6,1.03,15.111,4.406,2.883,21.526-1.477,22.685" transform="translate(-964.332 -463.294)" fill="#d9935c"/><path d="M1039.872,486.768c2.869-3.228,7.008-3.855,10.025-3.8-1.819-2.206,5.5-7.037,13.859,1.2,3.6,3.551,3.059,10.531,1.129,14.58,0,0-2.964-8.678-8.359-10.571a11.8,11.8,0,0,1-3.387-1.959,23.267,23.267,0,0,1-4.637,6.89c-5.576,6.1-4.489,18.421-4.489,18.421s-9.155-19.123-4.141-24.762" transform="translate(-957.065 -447.766)" fill="#b74b42"/><path d="M1107.552,582.6s.453,1.257,3.645.686c0,0,2.68-.479,2.433-1.889a8.74,8.74,0,0,0-6.078,1.2" transform="translate(-1007.833 -522.418)" fill="#fff"/></g></g><g transform="translate(0 -0.003)"><g clip-path="url(#a)"><path d="M683.722,1721.744H87.292a.582.582,0,1,1,0-1.164h596.43a.582.582,0,0,1,0,1.164" transform="translate(-63.632 -1262.646)" fill="#202f4e"/><path d="M1271.332,716.856h164.215a.621.621,0,0,0,.621-.621v-.013a.621.621,0,0,0-.621-.621H1271.332a.621.621,0,0,0-.621.621v.013a.621.621,0,0,0,.621.621" transform="translate(-932.511 -525.144)" fill="#a6d9f1"/><path d="M1563.548,630.389h-80.792a3.5,3.5,0,0,1-3.5-3.5v-.071a3.5,3.5,0,0,1,3.5-3.5h80.792a3.5,3.5,0,0,1,3.5,3.5v.071a3.5,3.5,0,0,1-3.5,3.5" transform="translate(-1085.55 -457.419)" fill="#a6d9f1"/><path d="M1563.548,675.372h-80.792a3.5,3.5,0,0,1-3.5-3.5v-.07a3.5,3.5,0,0,1,3.5-3.5h80.792a3.5,3.5,0,0,1,3.5,3.5v.07a3.5,3.5,0,0,1-3.5,3.5" transform="translate(-1085.55 -490.43)" fill="#a6d9f1"/><path d="M1322.563,964.135h180.185a.621.621,0,0,0,.621-.621V963.5a.621.621,0,0,0-.621-.621H1322.563a.621.621,0,0,0-.621.621v.013a.621.621,0,0,0,.621.621" transform="translate(-970.107 -706.609)" fill="#a6d9f1"/><path d="M1739.631,1006.665h-64.823a3.5,3.5,0,0,1-3.5-3.5v-.07a3.5,3.5,0,0,1,3.5-3.5h64.823a3.5,3.5,0,0,1,3.5,3.5v.07a3.5,3.5,0,0,1-3.5,3.5" transform="translate(-1226.488 -733.549)" fill="#a6d9f1"/><path d="M1739.631,1051.648h-64.823a3.5,3.5,0,0,1-3.5-3.5v-.071a3.5,3.5,0,0,1,3.5-3.5h64.823a3.5,3.5,0,0,1,3.5,3.5v.071a3.5,3.5,0,0,1-3.5,3.5" transform="translate(-1226.488 -766.56)" fill="#a6d9f1"/><path d="M394.133,892.577H235.692a.621.621,0,0,1-.621-.621v-.012a.621.621,0,0,1,.621-.621H394.133a.621.621,0,0,1,.621.621v.012a.62.62,0,0,1-.621.621" transform="translate(-172.507 -654.096)" fill="#a6d9f1"/><path d="M321.828,806.109h64.823a3.5,3.5,0,0,0,3.5-3.5v-.07a3.5,3.5,0,0,0-3.5-3.5H321.828a3.5,3.5,0,0,0-3.5,3.5v.07a3.5,3.5,0,0,0,3.5,3.5" transform="translate(-233.604 -586.372)" fill="#a6d9f1"/><path d="M321.828,851.092h64.823a3.5,3.5,0,0,0,3.5-3.5v-.071a3.5,3.5,0,0,0-3.5-3.5H321.828a3.5,3.5,0,0,0-3.5,3.5v.071a3.5,3.5,0,0,0,3.5,3.5" transform="translate(-233.604 -619.382)" fill="#a6d9f1"/><path d="M1992.059,996.118h-18.67a8.956,8.956,0,0,1-8.93-8.93V971.81a8.956,8.956,0,0,1,8.93-8.93h18.67a8.956,8.956,0,0,1,8.93,8.93v15.379a8.956,8.956,0,0,1-8.93,8.93" transform="translate(-1441.619 -706.608)" fill="#a6d9f1"/><path d="M2007.913,1004.663c-3.744-1.98-8.889-4.34-12.138-4.34s-8.394,2.36-12.138,4.34a2.618,2.618,0,0,0,0,4.628c3.744,1.98,8.89,4.34,12.138,4.34s8.394-2.36,12.138-4.34a2.618,2.618,0,0,0,0-4.628m-6.253-1.189a5.887,5.887,0,0,1-11.77,0,11.923,11.923,0,0,1,11.77,0m5.507,4.406c-2.75,1.454-8.277,4.154-11.391,4.154s-8.641-2.7-11.392-4.154a1.021,1.021,0,0,1,0-1.8c1.022-.541,2.428-1.253,3.951-1.935a7.485,7.485,0,0,0,14.881,0c1.523.682,2.929,1.395,3.951,1.935a1.021,1.021,0,0,1,0,1.8" transform="translate(-1454.668 -734.086)" fill="#e69d43"/><path d="M2028.331,1015.815a1.724,1.724,0,1,0-1.724-1.724,1.724,1.724,0,0,0,1.724,1.724" transform="translate(-1487.225 -742.924)" fill="#ca5f00"/></g></g></g></svg>