<svg xmlns="http://www.w3.org/2000/svg" xmlns:xlink="http://www.w3.org/1999/xlink" width="803.546" height="500.883" viewBox="0 0 803.546 500.883"><defs><clipPath id="a"><rect width="803.546" height="500.883" fill="none"/></clipPath><clipPath id="b"><rect width="803.547" height="500.882" fill="none"/></clipPath><clipPath id="c"><rect width="54.51" height="14.468" fill="none"/></clipPath><clipPath id="d"><rect width="78.923" height="18.186" fill="none"/></clipPath><clipPath id="e"><rect width="101.17" height="30.145" fill="none"/></clipPath><clipPath id="f"><rect width="62.713" height="328.051" fill="none"/></clipPath><clipPath id="g"><rect width="64.007" height="15.952" fill="none"/></clipPath><clipPath id="h"><rect width="79.684" height="21.24" fill="none"/></clipPath><clipPath id="i"><rect width="53.763" height="287.188" fill="none"/></clipPath><clipPath id="j"><rect width="63.11" height="26.485" fill="none"/></clipPath><clipPath id="k"><rect width="6.194" height="6.194" fill="none"/></clipPath><clipPath id="l"><rect width="5.185" height="5.185" fill="none"/></clipPath></defs><g clip-path="url(#a)"><g transform="translate(0 0.001)"><g clip-path="url(#b)"><path d="M272.164,1284.847c-47.594-12.5-72.7-62.641-85.389-102.51a391.108,391.108,0,0,1-16.275-84.176l-.061-1.03,1,.246c60.116,14.727,97.566,59.58,118.4,94.615,22.548,37.922,31.016,72.84,31.1,73.187l-1.483.354c-.083-.347-8.51-35.072-30.949-72.8-20.562-34.572-57.415-78.774-116.412-93.624.492,6.609,3.7,43.71,16.143,82.794,12.568,39.49,37.4,89.152,84.313,101.469Z" transform="translate(-121.858 -784.413)" fill="#bfbfbf"/><path d="M345.5,1342.711c-29.41-47.943-67.572-97.255-113.425-146.564l1.117-1.04c45.922,49.385,84.145,98.777,113.609,146.806Z" transform="translate(-165.927 -854.463)" fill="#bfbfbf"/><path d="M1007.685,577.206C981.672,682.01,875.624,745.883,770.819,719.87S602.142,587.809,628.155,483,760.217,314.328,865.021,340.341,1033.7,472.4,1007.685,577.206" transform="translate(-444.961 -239.183)" fill="#f6f5f5"/><path d="M1062.444,657.937A159.928,159.928,0,1,1,945.753,464.193a159.927,159.927,0,0,1,116.692,193.744" transform="translate(-534.267 -328.489)" fill="#fff"/><path d="M1121.344,744.774a121.641,121.641,0,1,1-88.756-147.362,121.641,121.641,0,0,1,88.756,147.362" transform="translate(-630.326 -424.549)" fill="#f6f5f5"/><path d="M1192.851,850.2a75.16,75.16,0,1,1-54.841-91.053,75.16,75.16,0,0,1,54.841,91.053" transform="translate(-746.944 -541.167)" fill="#fff"/><path d="M1270.452,964.6a24.717,24.717,0,1,1-18.035-29.944,24.717,24.717,0,0,1,18.035,29.944" transform="translate(-873.503 -667.726)" fill="#f6f5f5"/><path d="M1971.206,1146.174c-.058-.405-5.713-41.139,1.354-91.143,6.522-46.148,25.521-109.864,78.966-151.444l.071-.068.024-.006.057-.043.019.025.651-.159,1.467.4-.959.745c.08.858.584,3.42,1.2,6.571,2.987,15.242,10.922,55.725,10.757,101.091-.207,56.989-12.773,101.961-37.349,133.665l-1.206-.935c47.55-61.339,40.547-160.849,26.3-233.528-.572-2.917-.916-4.683-1.092-5.781-52.278,41.273-70.947,104.065-77.393,149.635-7.043,49.8-1.417,90.351-1.359,90.756Z" transform="translate(-1407.776 -645.855)" fill="#bfbfbf"/><path d="M2050.889,1265.214l-1.495-.3c3.222-16,6.167-31.813,9.016-47.1,10.876-58.384,20.269-108.807,39.95-147.367l1.358.694c-19.582,38.363-28.955,88.684-39.81,146.953-2.849,15.292-5.794,31.105-9.019,47.121" transform="translate(-1465.249 -765.334)" fill="#bfbfbf"/><rect width="1.524" height="48.756" transform="translate(596.573 343.201) rotate(-9.904)" fill="#bfbfbf"/><rect width="53.622" height="1.524" transform="translate(598.367 425.185) rotate(-38.575)" fill="#bfbfbf"/><path d="M1776.879,1329.145c-24.68-12.937-37.978-45.869-38.453-95.238a374.078,374.078,0,0,1,6.759-71.259l.174-.823.8.255c51.347,16.315,64.436,69.366,64.561,69.9l-1.483.351c-.124-.522-12.9-52.188-62.73-68.535-2.236,11.357-25.016,134.6,31.078,164Z" transform="translate(-1242.908 -830.667)" fill="#bfbfbf"/><path d="M1851.995,1423.259c-.11-.843-11.3-84.715-32.208-131.744l1.394-.619c20.992,47.232,32.215,131.321,32.327,132.164Z" transform="translate(-1301.087 -922.948)" fill="#bfbfbf"/><rect width="40.536" height="1.526" transform="translate(537.904 429.242) rotate(-76.914)" fill="#bfbfbf"/><rect width="1.525" height="34.842" transform="translate(516.494 431.443) rotate(-49.486)" fill="#bfbfbf"/><path d="M2291.389,1425.657l-.724-1.343c57.284-30.879,47.738-118.8,46.447-128.8a94.032,94.032,0,0,0-43.514,33.563l-1.289-.816a95.706,95.706,0,0,1,45.177-34.5l.868-.308.14.911c.15.978,14.3,98.193-47.1,131.3" transform="translate(-1637.749 -924.775)" fill="#bfbfbf"/><path d="M2241.879,1526.629l-1.406-.593c.275-.652,27.7-65.361,45.4-85.447l1.143,1.007c-17.533,19.9-44.863,84.384-45.137,85.033" transform="translate(-1601.864 -1029.974)" fill="#bfbfbf"/><rect width="32.377" height="1.524" transform="translate(654.91 456.65) rotate(-22.759)" fill="#bfbfbf"/><rect width="166.969" height="123.382" transform="translate(345.589 376.025)" fill="#fff"/><path d="M1378.27,1441.467H1209.776V1316.561H1378.27Zm-166.969-1.525h165.444V1318.086H1211.3Z" transform="translate(-864.95 -941.298)" fill="#bfbfbf"/><rect width="93.785" height="1.525" transform="translate(418.773 460.867)" fill="#bfbfbf"/><rect width="93.785" height="1.525" transform="translate(345.589 418.516)" fill="#bfbfbf"/><path d="M622.3,1359.549h-81.85a60.439,60.439,0,0,1-59.49-71.106l.108-.6a60.438,60.438,0,0,1,15.346-30.615l49.995-53.46h68.348l51.227,53.577A60.439,60.439,0,0,1,622.3,1359.549" transform="translate(-343.177 -860.654)" fill="#fff"/><path d="M620.409,1358.4H538.559a61.2,61.2,0,0,1-60.24-72l.109-.6a61.077,61.077,0,0,1,15.54-31l50.221-53.7h69l51.452,53.812a61.2,61.2,0,0,1-44.234,103.5m-75.56-155.783-49.768,53.218a59.543,59.543,0,0,0-15.153,30.228l-.109.6a59.677,59.677,0,0,0,58.74,70.209h81.851a59.676,59.676,0,0,0,43.132-100.917l-51-53.341Z" transform="translate(-341.29 -858.744)" fill="#bfbfbf"/><path d="M760.371,1426.712v-10.891c-7.687-.346-15.141-2.41-19.5-4.932l3.447-13.423a40.55,40.55,0,0,0,19.046,5.044c6.538,0,11.013-2.522,11.013-7.108,0-4.362-3.671-7.118-12.161-9.985-12.274-4.129-20.652-9.864-20.652-20.989,0-10.1,7.118-18.009,19.391-20.419v-10.9h11.237v10.1c7.687.345,12.853,1.952,16.636,3.783l-3.325,12.965a38.029,38.029,0,0,0-16.524-3.9c-7.454,0-9.864,3.213-9.864,6.426,0,3.783,4.016,6.193,13.768,9.864,13.646,4.82,19.158,11.125,19.158,21.456,0,10.209-7.229,18.924-20.419,21.222v11.695Z" transform="translate(-529.696 -953.129)" fill="#dadada"/><path d="M757.98,1059.745H707.715L694.2,1013.677c28.272,7.111,50.265-13.007,72.425-1.626Z" transform="translate(-496.332 -721.032)" fill="#fff"/><path d="M755.842,1058.6H704.368l-14.047-47.9,1.292.325c13.287,3.346,25.072.612,36.465-2.028,12.481-2.892,24.269-5.625,36.123.465l.5.258Zm-50.331-1.525h49.058L763,1010.566c-11.192-5.5-22.556-2.868-34.579-.082-11.206,2.6-22.784,5.276-35.894,2.329Z" transform="translate(-493.557 -719.122)" fill="#bfbfbf"/><path d="M745.171,1184.575h-88.1a8.312,8.312,0,0,1-8.288-8.288v-7.439a8.312,8.312,0,0,1,8.288-8.288h88.1a8.312,8.312,0,0,1,8.288,8.288v7.439a8.312,8.312,0,0,1-8.288,8.288" transform="translate(-463.858 -829.763)" fill="#fff"/><path d="M740.462,1183.425H657.953a11.86,11.86,0,0,1-11.846-11.845v-1.848a11.86,11.86,0,0,1,11.846-11.845h82.509a11.859,11.859,0,0,1,11.846,11.845v1.848a11.859,11.859,0,0,1-11.846,11.845m-82.509-24.013a10.332,10.332,0,0,0-10.321,10.32v1.848a10.332,10.332,0,0,0,10.321,10.32h82.509a10.332,10.332,0,0,0,10.321-10.32v-1.848a10.332,10.332,0,0,0-10.321-10.32Z" transform="translate(-461.945 -827.852)" fill="#bfbfbf"/><path d="M2062.562,958.283a5.718,5.718,0,1,1,5.718-5.718,5.725,5.725,0,0,1-5.718,5.718m0-9.911a4.193,4.193,0,1,0,4.193,4.193,4.2,4.2,0,0,0-4.193-4.193" transform="translate(-1470.575 -676.965)" fill="#bfbfbf"/><path d="M1474.572,1093.8a5.718,5.718,0,1,1,5.718-5.718,5.725,5.725,0,0,1-5.718,5.718m0-9.911a4.193,4.193,0,1,0,4.193,4.193,4.2,4.2,0,0,0-4.193-4.193" transform="translate(-1050.182 -773.854)" fill="#bfbfbf"/><path d="M333.369,1030.5a5.718,5.718,0,1,1,5.718-5.718,5.724,5.724,0,0,1-5.718,5.718m0-9.911a4.193,4.193,0,1,0,4.193,4.193,4.2,4.2,0,0,0-4.193-4.193" transform="translate(-234.26 -728.598)" fill="#bfbfbf"/><path d="M93.214,1349.188a3.812,3.812,0,1,1-3.812-3.812,3.812,3.812,0,0,1,3.812,3.812" transform="translate(-61.194 -961.9)" fill="#bfbfbf"/><path d="M2647.552,1234.176a3.812,3.812,0,1,1-3.812-3.812,3.812,3.812,0,0,1,3.812,3.812" transform="translate(-1887.461 -879.67)" fill="#bfbfbf"/><path d="M1765.333,141.978H1648.09l.109-.859c1.349-10.661,12.372-18.7,25.642-18.7a30.584,30.584,0,0,1,12.1,2.443c4.756-12.5,15.547-20.528,27.7-20.528,12.724,0,23.988,8.9,28.3,22.256a16.377,16.377,0,0,1,7.555-1.835c8.794,0,15.949,6.911,15.949,15.406,0,.376-.012.752-.048,1.128Zm-115.488-1.525h114.075c0-.1,0-.195,0-.292,0-7.655-6.471-13.881-14.424-13.881a14.812,14.812,0,0,0-7.615,2.089l-.844.506-.278-.945c-3.891-13.2-14.787-22.071-27.115-22.071-11.75,0-22.172,7.964-26.551,20.29l-.281.793-.761-.358a28.847,28.847,0,0,0-12.211-2.64c-12.14,0-22.271,7.039-24,16.509" transform="translate(-1178.33 -74.596)" fill="#bfbfbf"/><path d="M2291.3,31.8h-84.133l.124-.87c.983-6.878,8.943-12.066,18.517-12.066a24.462,24.462,0,0,1,8.534,1.5,21.728,21.728,0,0,1,40.186,1.078,13.1,13.1,0,0,1,5.28-1.1c6.4,0,11.6,4.5,11.6,10.029a6.928,6.928,0,0,1-.038.749Zm-82.33-1.525h80.915c-.061-4.646-4.557-8.409-10.077-8.409a11.461,11.461,0,0,0-5.356,1.3l-.8.423-.284-.855a20.2,20.2,0,0,0-37.907-1.109l-.287.718-.713-.3a22.677,22.677,0,0,0-8.654-1.658c-8.4,0-15.429,4.193-16.838,9.887" transform="translate(-1578.049 -5.303)" fill="#bfbfbf"/><path d="M583.757,158.3H480.546l-.072-.682a8.471,8.471,0,0,1-.044-.9c0-6.71,6.328-12.169,14.107-12.169a15.931,15.931,0,0,1,6.6,1.41,26.571,26.571,0,0,1,49.275-1.341,29.9,29.9,0,0,1,10.6-1.889c11.7,0,21.425,6.321,22.62,14.7Zm-101.8-1.525H581.963c-1.628-7.2-10.425-12.523-20.951-12.523a28.1,28.1,0,0,0-10.722,2.054l-.713.3-.288-.718a25.044,25.044,0,0,0-46.994,1.375l-.284.855-.8-.423a14.288,14.288,0,0,0-6.677-1.622c-6.938,0-12.582,4.775-12.582,10.644Z" transform="translate(-343.491 -91.973)" fill="#bfbfbf"/><path d="M1261.868,0s-28.565,44.953-76.61,55.082v-51s35.81,12.234,76.61-4.078" transform="translate(-847.42 -0.003)" fill="#eb5d60"/><rect width="1.525" height="92.447" transform="translate(337.076 4.077)" fill="#102048"/><rect width="32.303" height="84.315" transform="translate(321.68 90.895)" fill="#7d69ed"/><rect width="55.515" height="22.129" transform="translate(310.073 113.34)" fill="#7d69ed"/><rect width="54.51" height="25.921" transform="translate(310.576 151.332)" fill="#7d69ed"/><g transform="translate(310.575 162.785)" opacity="0.3"><g clip-path="url(#c)"><rect width="54.51" height="14.469" transform="translate(0.001 -0.001)" fill="#4737a0"/></g></g><rect width="78.925" height="164.179" transform="translate(298.369 235.591)" fill="#7d69ed"/><g transform="translate(298.37 235.591)" opacity="0.3"><g clip-path="url(#d)"><rect width="78.925" height="18.186" transform="translate(-0.001 0)" fill="#4737a0"/></g></g><path d="M1070.057,1502.784H917.368l25.768-69.864,11.116-30.145h78.937l11.115,30.145Z" transform="translate(-655.888 -1002.939)" fill="#7d69ed"/><g transform="translate(287.248 399.837)" opacity="0.3"><g clip-path="url(#e)"><path d="M1108.941,1432.92H1007.773l11.115-30.145h78.937Z" transform="translate(-1007.772 -1402.775)" fill="#4737a0"/></g></g><path d="M1101.928,602.718H991.469l15.767,63.8h78.925Z" transform="translate(-708.867 -430.924)" fill="#7d69ed"/><path d="M1105.644,817h-89.808a4.742,4.742,0,0,1-4.728-4.728v-3.19a4.742,4.742,0,0,1,4.728-4.728h89.808a4.742,4.742,0,0,1,4.728,4.728v3.19a4.742,4.742,0,0,1-4.728,4.728" transform="translate(-722.909 -575.091)" fill="#7d69ed"/><path d="M1094.345,1385.31h-92.1a8.567,8.567,0,0,1-8.542-8.542V1371a8.567,8.567,0,0,1,8.542-8.543h92.1a8.568,8.568,0,0,1,8.542,8.543v5.764a8.568,8.568,0,0,1-8.542,8.542" transform="translate(-710.463 -974.115)" fill="#7d69ed"/><path d="M1075.412,1360.275h-42.884a.762.762,0,0,1,0-1.525h42.884a.762.762,0,1,1,0,1.525" transform="translate(-737.678 -971.462)" fill="#4737a0"/><path d="M1274.242,1360.275h-24.4a.762.762,0,1,1,0-1.525h24.4a.762.762,0,1,1,0,1.525" transform="translate(-893.053 -971.462)" fill="#4737a0"/><path d="M1238.816,803.209h-38.451a.762.762,0,1,1,0-1.525h38.451a.762.762,0,1,1,0,1.525" transform="translate(-857.676 -573.178)" fill="#4737a0"/><path d="M1062.941,803.209h-24.4a.762.762,0,1,1,0-1.525h24.4a.762.762,0,1,1,0,1.525" transform="translate(-741.98 -573.178)" fill="#4737a0"/><g transform="translate(351.457 171.794)" opacity="0.15"><g clip-path="url(#f)"><path d="M1295.749,930.771h-24.32l-1.037-.488L1239.9,842.61c10.292-10.673,3.049-23.253,3.049-23.253l-9.911-146.377c5.916-5.9,0-12.2,0-12.2l20.2-58.063h21.407l-14.211,57.468h2.287a6.328,6.328,0,0,1,0,12.655h-3.842V819.266h3.705a11.418,11.418,0,0,1,.473,22.825L1270,860.907Z" transform="translate(-1233.037 -602.72)" fill="#fff"/></g></g><rect width="64.007" height="133.148" transform="translate(463.268 285.716)" fill="#86a7ff"/><g transform="translate(463.267 285.716)" opacity="0.3"><g clip-path="url(#g)"><rect width="64.007" height="15.952" transform="translate(0.001 0)" fill="#1f3c88"/></g></g><path d="M1689.317,951.2h-64.009l11.969-18.4,1.311-2.005h35.557l2.165,2.9Z" transform="translate(-1162.041 -665.491)" fill="#86a7ff"/><path d="M1644.193,1550.8H1520.352l22.078-59.862,7.837-21.24h64.009l7.837,21.24Z" transform="translate(-1087.001 -1050.784)" fill="#86a7ff"/><g transform="translate(455.429 418.911)" opacity="0.3"><g clip-path="url(#h)"><path d="M1677.5,1490.936h-79.684l7.837-21.24h64.009Z" transform="translate(-1597.811 -1469.696)" fill="#1f3c88"/></g></g><path d="M1696.832,774.058c0,18.261-12.1,33.065-27.022,33.065s-27.022-14.8-27.022-33.065,12.1-33.065,27.022-33.065,27.022,14.8,27.022,33.065" transform="translate(-1174.538 -529.786)" fill="#86a7ff"/><path d="M1725.289,716.747h-16.311v-12.4a6.1,6.1,0,0,1,6.1-6.1h4.114a6.1,6.1,0,0,1,6.1,6.1Z" transform="translate(-1221.862 -499.226)" fill="#86a7ff"/><path d="M1673.047,994.663h-72.833a3.846,3.846,0,0,1-3.834-3.834v-2.587a3.845,3.845,0,0,1,3.834-3.834h72.833a3.845,3.845,0,0,1,3.834,3.834v2.587a3.845,3.845,0,0,1-3.834,3.834" transform="translate(-1141.358 -703.82)" fill="#86a7ff"/><path d="M1663.883,1455.553h-74.694a6.948,6.948,0,0,1-6.928-6.928v-4.674a6.949,6.949,0,0,1,6.928-6.928h74.694a6.949,6.949,0,0,1,6.928,6.928v4.674a6.948,6.948,0,0,1-6.928,6.928" transform="translate(-1131.264 -1027.424)" fill="#86a7ff"/><path d="M1798.824,983.143h-14.93a.762.762,0,1,1,0-1.525h14.93a.762.762,0,1,1,0,1.525" transform="translate(-1274.879 -701.825)" fill="#3a6bea"/><path d="M1664.411,983.143h-31.639a.762.762,0,1,1,0-1.525h31.639a.762.762,0,1,1,0,1.525" transform="translate(-1166.833 -701.825)" fill="#3a6bea"/><path d="M1630.984,1435.872h-18.13a.762.762,0,1,1,0-1.525h18.13a.762.762,0,0,1,0,1.525" transform="translate(-1152.591 -1025.511)" fill="#3a6bea"/><path d="M1757.031,1435.872h-37.19a.762.762,0,0,1,0-1.525h37.19a.762.762,0,1,1,0,1.525" transform="translate(-1229.084 -1025.511)" fill="#3a6bea"/><g transform="translate(503.429 212.825)" opacity="0.15"><g clip-path="url(#i)"><path d="M1819.973,1033.86h-26.165l-14.516-71.938c7.243-5.718,1.143-17.535,1.143-17.535l-2.79-119.572c4.056-7.624-2.165-10.292-2.165-10.292l-6.1-13.586c15.248-17.916-3.172-54.266-3.172-54.266a1.018,1.018,0,0,1,.214.015c10.826,4.3,18.648,16.742,18.648,31.426a36.91,36.91,0,0,1-8.188,23.71l.168.229,9.194,12.381h6.937a5.131,5.131,0,0,1,0,10.262h-3.126V943.442h3a9.259,9.259,0,0,1,.4,18.51L1797.895,974Z" transform="translate(-1766.21 -746.672)" fill="#fff"/></g></g><path d="M664.76,1581.19s2.017,46.68,5.707,47.957,56.451-7.54,59.174-9.76-4.241-10.963-34.344-12.467l-4.181-27.223Z" transform="translate(-475.281 -1129.432)" fill="#102048"/><path d="M730.884,1643.911a3.937,3.937,0,1,1,3.812-3.934,3.879,3.879,0,0,1-3.812,3.934m0-6.726a2.794,2.794,0,1,0,2.668,2.792,2.735,2.735,0,0,0-2.668-2.792" transform="translate(-519.832 -1169.716)" fill="#fff"/><rect width="11.147" height="1.525" transform="translate(211.417 484.82) rotate(-43.1)" fill="#fff"/><path d="M193.862,1515.435s-26.325,25.216-25.14,29.958,18.195,33.527,20.706,36.038c1.581,1.581,2.924,1.9,18.1,1.9h6.718c-.158-5.374-7.468-12.922-11.855-12.8l-1.9-18.968,14.384-16.28Z" transform="translate(-120.603 -1083.486)" fill="#102048"/><rect width="1.525" height="10.539" transform="translate(69.323 468.099) rotate(-86.014)" fill="#fff"/><path d="M263.863,1602.289a3.749,3.749,0,1,1,3.748-3.749,3.754,3.754,0,0,1-3.748,3.749m0-6.354a2.605,2.605,0,1,0,2.6,2.6,2.608,2.608,0,0,0-2.6-2.6" transform="translate(-185.974 -1140.224)" fill="#fff"/><path d="M344.633,1057.9c-.381,7.029-6.618,18.572-15.537,31.669-24.137,35.527-67.928,82.6-67.928,82.6l-34.139-29.87,66.662-103.134c.686-14.043,1.54-24.213,2.424-31.563,2.729-22.948,5.84-18.465,5.84-18.465s5.7,5.52,12.96,13.814a218,218,0,0,1,16.727,21.56,104.379,104.379,0,0,1,9.469,17.093c2.409,5.764,3.8,11.329,3.522,16.3" transform="translate(-162.318 -706.942)" fill="#3a6bea"/><path d="M314.124,1282.011l-1.036-1.12c36.165-33.485,57.625-66.123,69.26-87.607,12.608-23.279,16.715-38.84,16.755-38.993l1.476.381c-.161.622-16.894,62.929-86.455,127.338" transform="translate(-223.848 -825.281)" fill="#1f3c88"/><rect width="1.525" height="35.802" transform="translate(71.088 426.436) rotate(-51.882)" fill="#1f3c88"/><path d="M517.927,1090.833c-.381,7.029-6.618,18.572-15.537,31.669-15.353-27.042-26.793-54.337-32.981-81.971l18.8-4.65,4.208-1.037,12.518,22.6,9.469,17.093c2.409,5.764,3.8,11.329,3.522,16.3" transform="translate(-335.612 -739.88)" fill="#1f3c88"/><path d="M557.745,1121.313l-10.521.884-27.491,2.318-6.785.579-9.88-92.98-1.174-11.024s-28.3-41.108-31.288-45.728a65.1,65.1,0,0,1-7.258-14.729c-4.8-14.226-1.54-24.716,1.952-30.937a3.2,3.2,0,0,1,.168-.32,27.034,27.034,0,0,1,4.8-6.282l18.221,2.242,34.49,4.239c1.433,8.417,3.1,15.751,4.879,22.246,7.2,26.134,16.483,38.912,21.469,55.044,7.471,24.183,8.416,114.448,8.416,114.448" transform="translate(-329.55 -659.983)" fill="#3a6bea"/><g transform="translate(135.2 265.353)" opacity="0.3"><g clip-path="url(#j)"><path d="M537.441,957.443,474.88,935.319l-.549-.2.717-.122,23.024-4.041,34.49,4.239c1.433,8.417,3.1,15.751,4.879,22.246" transform="translate(-474.331 -930.958)" fill="#102048"/></g></g><path d="M649.783,1117.072c-.006-.923-.763-92.68-14.79-118.788-18.135-33.75-29.438-81.537-29.55-82.016l1.484-.348c.112.478,11.37,48.071,29.408,81.643,14.207,26.439,14.947,115.712,14.972,119.5Z" transform="translate(-432.872 -654.853)" fill="#1f3c88"/><rect width="35.029" height="1.525" transform="matrix(0.996, -0.093, 0.093, 0.996, 182.519, 453.431)" fill="#1f3c88"/><path d="M593.565,485.5c.863,15.377-2.224,20.679-10.779,19.819-4.763-.479-18.809-9.773-18.809-20.074s7.184-18.49,16.043-18.651c11.893-.217,12.923,7.831,13.545,18.906" transform="translate(-403.225 -333.599)" fill="#f9b384"/><path d="M589.836,560.874l-19.758-2.213.542,13.9c5.336,1.7,14.518,4.693,20.086,6.508Z" transform="translate(-407.587 -399.425)" fill="#f9b384"/><path d="M571.311,594.72l.913,22.125L592.3,619.69l-.9-18.462c-5.568-1.815-14.75-4.8-20.086-6.508" transform="translate(-408.468 -425.206)" fill="#d3dfff"/><path d="M550.872,473.146s3.508-13.918,9.839-11.855c16,5.216,23.682-3.4,20.034-17.189,0,0-5.144,3.811-10.5,2.9s-9.347-8.435-21.43,4.332c-9.005-.456-11.285,19.378-.8,25.534Z" transform="translate(-386.84 -317.427)" fill="#102048"/><path d="M555.352,526.054c1.789,3.39,1.174,7.227-1.374,8.572s-6.063-.313-7.852-3.7-1.174-7.227,1.374-8.572,6.063.313,7.852,3.7" transform="translate(-389.73 -373.13)" fill="#f9b384"/><path d="M607.94,593.01h-.007c-8.542-.1-12.184-4.12-12.335-4.291a.572.572,0,0,1,.857-.757c.033.038,3.494,3.814,11.49,3.9a.572.572,0,0,1-.006,1.143" transform="translate(-425.731 -420.236)" fill="#e28b6d"/><path d="M560.577,540.983a.381.381,0,0,1-.381-.363,3.733,3.733,0,0,0-1.158-2.852,3.266,3.266,0,0,0-2.6-.553.381.381,0,1,1-.117-.753,3.944,3.944,0,0,1,3.2.716,4.445,4.445,0,0,1,1.436,3.407.381.381,0,0,1-.363.4h-.018" transform="translate(-397.523 -383.505)" fill="#102048"/><path d="M656.919,532.074a1.366,1.366,0,1,1-1.366-1.366,1.366,1.366,0,0,1,1.366,1.366" transform="translate(-467.722 -379.439)" fill="#102048"/><path d="M624.6,534.526a1.366,1.366,0,1,1-1.366-1.366,1.366,1.366,0,0,1,1.366,1.366" transform="translate(-444.615 -381.193)" fill="#102048"/><path d="M646.645,543.944a.381.381,0,0,1-.18-.717c.747-.4,1.123-.835,1.06-1.224-.076-.464-.748-.932-1.53-1.064l-.241-.041-.693-2.6a.381.381,0,1,1,.737-.2l.57,2.136a2.41,2.41,0,0,1,1.911,1.642c.085.52-.1,1.292-1.452,2.018a.376.376,0,0,1-.18.045" transform="translate(-461.187 -384.524)" fill="#102048"/><path d="M636,571.461a6.433,6.433,0,0,1-3.029-.818.381.381,0,0,1,.392-.654,5.042,5.042,0,0,0,4.515.246.381.381,0,1,1,.362.67,4.656,4.656,0,0,1-2.24.555" transform="translate(-452.423 -407.486)" fill="#102048"/><path d="M612.117,523.84a3.894,3.894,0,0,1,1.352-.945,4.836,4.836,0,0,1,1.626-.383,4.5,4.5,0,0,1,1.664.242,3.83,3.83,0,0,1,1.4.867.23.23,0,0,1-.2.391l-.023,0c-.507-.1-.958-.241-1.424-.286a5.723,5.723,0,0,0-1.365-.078,9.394,9.394,0,0,0-2.763.556l-.029.009a.227.227,0,0,1-.237-.369" transform="translate(-437.601 -373.577)" fill="#102048"/><path d="M653.4,520.955a9.1,9.1,0,0,0-2.126-.006,3.563,3.563,0,0,0-.959.234,10.429,10.429,0,0,0-1,.424l-.028.011a.234.234,0,0,1-.3-.129.236.236,0,0,1,.005-.188,2.483,2.483,0,0,1,.864-1,3.031,3.031,0,0,1,1.277-.474,3.213,3.213,0,0,1,2.475.731.23.23,0,0,1-.166.4Z" transform="translate(-463.989 -371.647)" fill="#102048"/><g transform="translate(171.535 155.431)" opacity="0.4"><g clip-path="url(#k)"><path d="M608,548.4a3.1,3.1,0,1,1-3.1-3.1,3.1,3.1,0,0,1,3.1,3.1" transform="translate(-601.807 -545.308)" fill="#eb5d60"/></g></g><path d="M873.361,575.8l12.179-9.941a90.892,90.892,0,0,1,7.786-5.765c2.527-1.648,7.039-5.07,13.534-11.772,0,0,6.256-7.695,5.216-1.793s-4.1,30.931-16.441,33.339l-14.292,13.714Z" transform="translate(-624.424 -389.159)" fill="#f9b384"/><path d="M702.175,632.35l-32.877,22.6-46.312-20.232,3,34.141L658.655,679.4a30.461,30.461,0,0,0,25.735-3.311l26.558-16.945Z" transform="translate(-445.414 -452.11)" fill="#102048"/><path d="M525.17,729.916l-62.271-10.7a5.486,5.486,0,0,1-4.361-6.861c7.349-26.683,8.935-90.281,41.55-82.764a26.285,26.285,0,0,1,20.584,25.143l1.357,10.78,3.644,28.833,2.455,19.364a50.143,50.143,0,0,0,2.455,9.743c1.555,4.544-2.363,6.983-5.413,6.465" transform="translate(-327.699 -449.697)" fill="#1f3c88"/><path d="M920.039,694.513l12.794-1.544s4.49-3.592,11.6-17.107c0,0,3.839-9.144,4.5-3.188s0,32.824-6.4,36.618l-25.147,3.971Z" transform="translate(-655.905 -479.5)" fill="#f9b384"/><path d="M638.764,779.144c-12.526-7.738-22.246-31.563-22.246-31.563l18.6,2.729Z" transform="translate(-440.79 -534.496)" fill="#102048"/><path d="M608.06,650.65l45.522,33.43,42.993-4.821-4.11,27.819-39.957,4.9A23.775,23.775,0,0,1,636,707.867l-41.847-29.24Z" transform="translate(-424.798 -465.194)" fill="#1f3c88"/><path d="M900.81,632.35l10.453,14.262-4.384,4.241Z" transform="translate(-644.049 -452.11)" fill="#e28b6d"/><path d="M946.624,751.021l3.522,17.518-6.26,1Z" transform="translate(-674.847 -536.956)" fill="#e28b6d"/><path d="M2148.341,1598.425l-1.9,41.017H2093.81s-1.659-10.906,28.451-19.679l3.319-25.843Z" transform="translate(-1496.993 -1139.601)" fill="#102048"/><rect width="1.524" height="7.969" transform="matrix(0.734, -0.679, 0.679, 0.734, 624.71, 480.68)" fill="#fff"/><path d="M2252.262,1655.576l-11.6-1,.228-7.021,12.2.4-.039,1.144-11.054-.363-.154,4.8,10.514.905Z" transform="translate(-1602.002 -1177.948)" fill="#fff"/><path d="M2516.89,1549.829l13.277,37.7s-40.543,20.153-45.522,20.39,17.308-31.534,17.308-31.534l-6.165-20.39Z" transform="translate(-1775.92 -1108.077)" fill="#102048"/><rect width="1.526" height="9.403" transform="matrix(0.323, -0.947, 0.947, 0.323, 725.787, 469.029)" fill="#fff"/><path d="M2580.653,1596.947l-2.076-6,9.449-4.02.447,1.051-8.466,3.6,1.355,3.915,8.991-3.058.369,1.084Z" transform="translate(-1843.597 -1134.603)" fill="#fff"/><path d="M2235.942,888.236c-.381,1.3-.747,2.592-1.113,3.919-.153.534-.3,1.083-.442,1.616-.686,2.47-1.342,4.971-2,7.517-4.208,16.437-7.9,34.52-11.115,52.863-1.281,7.3-2.486,14.653-3.614,21.941-2.638,17.032-4.879,33.8-6.739,49.189-4.956,41.047-7.212,72.228-7.212,72.228l-41.108-2.531c1.83-68.736,6.6-133.843,20.508-187.683q2.767-10.8,6.053-20.95l.4.015Z" transform="translate(-1546.188 -633.708)" fill="#3a6bea"/><path d="M2339.038,1083.462c-1.281,7.3-2.485,14.653-3.614,21.941-2.637,17.032-4.879,33.8-6.739,49.189-3.324-28.909.442-87.384.442-87.384Z" transform="translate(-1663.952 -763.019)" fill="#1f3c88"/><path d="M2352.32,912.074s11.618,13.04,2.134,43.388c0,0,25.606,80.611,42.677,142.255l-37.935,14.226s-48.367-124.711-50.738-200.107Z" transform="translate(-1650.471 -651.934)" fill="#3a6bea"/><path d="M2299.474,893.847s-4.833,3.858-15.644,7.441a121.108,121.108,0,0,1-27.385,5.444,175.134,175.134,0,0,1-21.9.564q2.767-10.8,6.053-20.95l.4.015,45.27,5.794Z" transform="translate(-1597.629 -633.708)" fill="#1f3c88"/><path d="M2308.759,1104.207l-7.849-34.7-9.853-2.737.408-1.468,10.731,2.981,8.048,35.589Z" transform="translate(-1638.03 -761.655)" fill="#1f3c88"/><path d="M2473.858,1542.255l-.316-1.492c.125-.027,12.825-2.786,37.984-13.3l.587,1.406c-25.312,10.58-38.128,13.358-38.254,13.385" transform="translate(-1768.5 -1092.087)" fill="#1f3c88"/><path d="M2199.573,1584.2c-14.659,0-35.9-3.216-36.145-3.253l.229-1.507c.274.042,27.525,4.159,41.374,3.044l.122,1.519c-1.688.137-3.574.2-5.581.2" transform="translate(-1546.78 -1129.251)" fill="#1f3c88"/><path d="M2500.547,1307.546l-.393-1.474c5.262-1.4,9.065-3.457,11.3-6.108l1.165.983c-2.445,2.895-6.507,5.115-12.076,6.6" transform="translate(-1787.527 -929.432)" fill="#1f3c88"/><path d="M2295.368,1370.3a22.489,22.489,0,0,1-8.636-1.909l.587-1.406c4.483,1.87,8.563,2.275,12.132,1.208l.438,1.459a15.673,15.673,0,0,1-4.521.648" transform="translate(-1634.937 -977.348)" fill="#1f3c88"/><path d="M2287.057,514.756a2.8,2.8,0,1,1-2.8-2.8,2.8,2.8,0,0,1,2.8,2.8" transform="translate(-1631.159 -366.029)" fill="#f9b384"/><path d="M2351.995,557.295l-18.724,8.051-5.184-18.267-3.827-13.494,3.279-1.616,14.028-6.923Z" transform="translate(-1661.768 -375.391)" fill="#f9b384"/><path d="M2336.291,549.333s-1.3,9.545-8.2,15.11l-3.827-13.494,3.278-1.616Z" transform="translate(-1661.768 -392.756)" fill="#102048"/><path d="M2386.093,416.414s12.487-17.071,27.187-4.584c6.125,5.2,9.039,10.406,10.355,14.705a42.79,42.79,0,0,0,11.959,18.318c4.531,4.275,8.425,9.954,7.243,16.292-1.739,9.326-24.184,15.174-34.3-13.593-11.452-32.567-22.445-31.138-22.445-31.138" transform="translate(-1705.977 -291.18)" fill="#e49b31"/><path d="M2293.324,463.373c-.237.711-5.69,32.008,10.669,30.111s17.308-22.761,17.308-22.761l-14.463-8.061Z" transform="translate(-1638.893 -330.789)" fill="#f9b384"/><path d="M2315.028,447.7s-3.714-14.225-19.047-13.04c0,0,4.742-19.126,26.159-9.4s9.934,33.342,3.454,39.111c0,0-7.247-3.074-10.566-16.667" transform="translate(-1641.55 -302.071)" fill="#fbc343"/><path d="M2361.723,494.9c-1.2,2.952-3.924,4.634-6.088,3.755s-2.946-3.984-1.747-6.936,3.924-4.634,6.088-3.755,2.946,3.984,1.748,6.936" transform="translate(-1682.55 -348.712)" fill="#f9b384"/><path d="M2364.712,502.538a.38.38,0,0,1-.369-.289,3.34,3.34,0,0,1,.479-2.692,2.921,2.921,0,0,1,2.582-.862.381.381,0,0,1,.356.4.365.365,0,0,1-.4.357,2.243,2.243,0,0,0-1.949.59,2.65,2.65,0,0,0-.326,2.019.381.381,0,0,1-.277.462.4.4,0,0,1-.092.011" transform="translate(-1690.357 -356.543)" fill="#102048"/><path d="M2307.7,500.057a1.334,1.334,0,1,1-1.334-1.334,1.334,1.334,0,0,1,1.334,1.334" transform="translate(-1648.022 -356.571)" fill="#102048"/><path d="M2304.939,538.814a4.914,4.914,0,0,1-1.236-.164.381.381,0,1,1,.191-.739c1.575.409,2.916-.06,4.351-1.518a.381.381,0,1,1,.542.535,5.42,5.42,0,0,1-3.847,1.886" transform="translate(-1646.866 -383.423)" fill="#102048"/><g transform="translate(661.135 144.802)" opacity="0.4"><g clip-path="url(#l)"><path d="M2324.682,510.608a2.592,2.592,0,1,1-2.593-2.592,2.592,2.592,0,0,1,2.593,2.592" transform="translate(-2319.498 -508.017)" fill="#eb5d60"/></g></g><path d="M2301.211,489.55a6.873,6.873,0,0,1,2.895-.525,9.089,9.089,0,0,1,2.9.576.764.764,0,1,1-.523,1.437.88.88,0,0,1-.106-.048,7.783,7.783,0,0,0-2.371-.846,6.063,6.063,0,0,0-2.511.071l-.043.012a.36.36,0,0,1-.238-.677" transform="translate(-1645.135 -349.637)" fill="#102048"/><path d="M2312.092,472.6a.57.57,0,0,1-.481-.264c-.07-.107-7.023-10.775-16.364-8.8a.572.572,0,0,1-.236-1.12c10.1-2.127,17.262,8.837,17.562,9.3a.569.569,0,0,1-.173.789.564.564,0,0,1-.308.091" transform="translate(-1640.532 -330.417)" fill="#e49b31"/><path d="M2161.492,558.021l-36.5,11.542h-.015a15.493,15.493,0,0,1-4.7.732,15.879,15.879,0,0,1-6.053-1.2,15.686,15.686,0,0,1-9.331-11.481l-12.168-62.9c-3.522-3.156-4.422-6.648-3.309-10.429l9.134,1.037,13.86,1.571,15.171,57.621Z" transform="translate(-1493.542 -346.248)" fill="#f9b384"/><path d="M2185.06,560.622l-36.5,11.542h-.015a10.814,10.814,0,0,1-1.342-.473,15.705,15.705,0,0,1-9.347-11.481l-12.152-62.9c-3.2-2.867-4.239-6.008-3.583-9.393l13.86,1.571,15.171,57.621Z" transform="translate(-1517.11 -348.848)" fill="#e28b6d"/><path d="M2293.44,641.512a65.379,65.379,0,0,1-3.8,15.583c-2.318,6.282-7.121,22.871-.381,38.424,0,0-38.637,14.47-69-2.363,0,0,1.494-9.408,4.8-21.941a198.634,198.634,0,0,1,10.871-31.441c7.853-17.184,18.953-31.669,33.88-30.785,22.871,1.357,25.036,19.563,23.618,32.523" transform="translate(-1587.417 -435.38)" fill="#eb5d60"/><path d="M2050.052,449.673l-1.037,7.791-85.369-7.537,2.038-15.311Z" transform="translate(-1403.941 -310.736)" fill="#1f3c88"/><path d="M2086.5,452.264a7,7,0,0,0-.2,3.842c.425,1.606,2.118,1.4,3.455.79,2.515-1.142,4.29-4.976,1.9-7.117-1.2-1.069-3.181-.125-4.014.671a4.4,4.4,0,0,0-1.133,1.815" transform="translate(-1491.499 -321.236)" fill="#f9b384"/><path d="M2099.607,452.252c-.412,1.161.9,4.066,1.955,4.848a2.042,2.042,0,0,0,3.21-.771c1.5-3.4,3.373-4.232.606-6.444-1.383-1.105-3.608-.206-4.533.572a4.1,4.1,0,0,0-1.237,1.795" transform="translate(-1501.094 -321.285)" fill="#f9b384"/><path d="M2117.76,453.089a7.413,7.413,0,0,0,.781,3.763c.788,1.441,2.268.8,3.325-.129,1.989-1.752,2.631-5.912-.073-7.362-1.351-.724-2.91.7-3.464,1.684a4.569,4.569,0,0,0-.568,2.045" transform="translate(-1514.122 -321.137)" fill="#f9b384"/><path d="M2133.32,453.583a8.687,8.687,0,0,0-.31,3.822c.278,1.578,1.64,1.306,2.732.652,2.054-1.229,3.619-5.1,1.788-7.137-.915-1.016-2.538,0-3.235.819a5.136,5.136,0,0,0-.975,1.844" transform="translate(-1524.964 -322.089)" fill="#f9b384"/><path d="M2287.328,717.592s-27.644,25.341-50.21,30.937a198.614,198.614,0,0,1,10.872-31.441Z" transform="translate(-1599.465 -512.696)" fill="#ab4446"/><path d="M2189.762,517.9l-9.483-34.616s1.364-19.647-1.423-22.287c-1.689-1.6-10.758-4.179-16.321-3.034a4.882,4.882,0,0,0-3.753,5.057c.03.729.035,1.593-.013,2.556a51.244,51.244,0,0,0,1.214,14.539l1.328,5.54,6.979,47.306a18.673,18.673,0,0,0,5.828,11.231,18.206,18.206,0,0,0,19.04,3.371l12.755-5.169-7.849-30.672c-4.871,3.352-8.3,6.177-8.3,6.177" transform="translate(-1543.392 -327.223)" fill="#f9b384"/><path d="M2321.955,609.007c-7.13-.428-17.774,5.834-25.128,10.894l7.849,30.672,25.34-10.269Z" transform="translate(-1642.155 -435.406)" fill="#eb5d60"/><rect width="803.547" height="1.525" transform="translate(0 499.358)" fill="#102048"/></g></g></g></svg>