<svg xmlns="http://www.w3.org/2000/svg" xmlns:xlink="http://www.w3.org/1999/xlink" width="684.08" height="441.341" viewBox="0 0 684.08 441.341"><defs><clipPath id="a"><rect width="684.08" height="441.341" fill="none"/></clipPath><clipPath id="c"><rect width="75.685" height="288.466" fill="none"/></clipPath><clipPath id="d"><rect width="245.411" height="428.749" fill="none"/></clipPath></defs><g clip-path="url(#a)"><g clip-path="url(#a)"><path d="M308.758,60.935s33.26,143.093-66.284,263.38l-206.05,5.168A35.534,35.534,0,0,1,0,293.961V96.47A35.534,35.534,0,0,1,35.535,60.935Z" transform="translate(0 34.001)" fill="#003db5"/><path d="M67.76,186.571c-28.349,116.363-2.6,222.564,57.507,237.209S257.085,355.964,285.434,239.6s2.6-222.564-57.507-237.209S96.109,70.208,67.76,186.571Z" transform="translate(31.378 0.395)" fill="none" stroke="#003db5" stroke-miterlimit="10" stroke-width="0.901"/><g transform="translate(225.63 26.666)" opacity="0.22"><g clip-path="url(#c)"><path d="M182.777,222.242c29.309-95.8,12.952-185.734-36.535-200.874-.026-.008-.055-.016-.081-.025a1.847,1.847,0,0,1,.215-3.6,51.878,51.878,0,0,1,23.044,1.552c49.486,15.139,65.844,105.074,36.533,200.873-9.395,30.713-22.343,58.3-37.231,81.1-6.621,10.142-21.883.561-15.793-9.907a329.994,329.994,0,0,0,29.848-69.122" transform="translate(-144.822 -17.116)" fill="#003db5"/></g></g><path d="M108.263,423.8c60.109,14.643,131.818-67.816,160.167-184.179s2.6-222.564-57.507-237.208A59.922,59.922,0,0,0,194.054.8S298.007-6.066,328.866,80.726c0,0,52.831,134.256-49.206,285.063,0,0-50.024,75.726-108.78,75.176,0,0-48.215.332-84.173-27.279A61.138,61.138,0,0,0,108.263,423.8" transform="translate(48.381 0.373)" fill="#003db5"/><path d="M219.509,204.672c9.363,3.1,21.477-8.02,27.054-24.847s2.507-32.983-6.858-36.086-21.477,8.021-27.054,24.847-2.507,32.983,6.858,36.086" transform="translate(117.103 79.914)" fill="#0d2a6e"/><path d="M221.56,162.361A19.894,19.894,0,0,1,245.3,149.316l.217.058,186.991,51.5q.444.122.876.262a2.983,2.983,0,0,1,1.965,3.682l-13.2,44.624a2.935,2.935,0,0,1-3.546,2.041l-.028-.008-186.992-51.5-.248-.07c-11.236-3.211-17.286-15.432-13.526-26.5Z" transform="translate(120.91 82.956)" fill="#003397"/><path d="M351.185,234.231c7.84,2.6,17.981-6.715,22.65-20.8s2.1-27.615-5.741-30.214-17.981,6.715-22.65,20.8-2.1,27.614,5.741,30.212" transform="translate(191.452 101.988)" fill="#c732fc"/><g transform="translate(85.486)" opacity="0.07"><g clip-path="url(#d)"><path d="M68.146,186.958C39.9,302.883,65.554,408.685,125.436,423.274S256.759,355.713,285,239.79,287.593,18.062,227.71,3.473,96.388,71.033,68.146,186.958" transform="translate(-53.868 1.002)" fill="#fff"/><path d="M68.146,186.958C39.9,302.883,65.554,408.685,125.436,423.274S256.759,355.713,285,239.79,287.593,18.062,227.71,3.473,96.388,71.033,68.146,186.958Z" transform="translate(-53.868 1.002)" fill="none" stroke="#fff" stroke-miterlimit="10" stroke-width="3.59"/></g></g><line x1="124.991" transform="translate(32.057 153.26)" fill="none" stroke="#fff" stroke-linecap="round" stroke-linejoin="round" stroke-width="1.595"/><line x1="124.991" transform="translate(32.057 170.341)" fill="none" stroke="#fff" stroke-linecap="round" stroke-linejoin="round" stroke-width="1.595"/><line x1="124.991" transform="translate(32.057 187.422)" fill="none" stroke="#fff" stroke-linecap="round" stroke-linejoin="round" stroke-width="1.595"/><line x1="124.991" transform="translate(32.057 204.502)" fill="none" stroke="#fff" stroke-linecap="round" stroke-linejoin="round" stroke-width="1.595"/><line x1="124.991" transform="translate(31.454 221.583)" fill="none" stroke="#fff" stroke-linecap="round" stroke-linejoin="round" stroke-width="1.595"/><path d="M305.565,121.557h61.852a8.181,8.181,0,0,0,8.181-8.181v-1.111a8.18,8.18,0,0,0-8.181-8.179H305.565a8.18,8.18,0,0,0-8.181,8.179v1.111a8.181,8.181,0,0,0,8.181,8.181" transform="translate(165.936 58.078)" fill="#5dccfe"/><path d="M273.788,79.4h61.85a8.182,8.182,0,0,0,8.183-8.181V70.107a8.182,8.182,0,0,0-8.183-8.181h-61.85a8.18,8.18,0,0,0-8.181,8.181v1.111a8.18,8.18,0,0,0,8.181,8.181" transform="translate(148.205 34.554)" fill="#003db5"/><path d="M287.2,141.073h233.02a8.181,8.181,0,0,0,8.179-8.181v-1.111a8.179,8.179,0,0,0-8.179-8.179H287.2a8.18,8.18,0,0,0-8.181,8.179v1.111a8.181,8.181,0,0,0,8.181,8.181" transform="translate(155.686 68.968)" fill="#c732fc"/><path d="M267.059,103.281H435.984a7.006,7.006,0,0,0,7.006-7.006V92.816a7.006,7.006,0,0,0-7.006-7.006H267.059a7.006,7.006,0,0,0-7.006,7.006v3.459a7.006,7.006,0,0,0,7.006,7.006" transform="translate(145.106 47.881)" fill="#216bfe"/><line x1="75.497" transform="translate(500.777 142.425)" fill="none" stroke="#fff" stroke-linecap="round" stroke-linejoin="round" stroke-width="0.964"/><line x1="59.599" transform="translate(421.997 142.425)" fill="none" stroke="#fff" stroke-linecap="round" stroke-linejoin="round" stroke-width="0.964"/><line x1="59.599" transform="translate(423.118 105.216)" fill="none" stroke="#fff" stroke-linecap="round" stroke-linejoin="round" stroke-width="0.964"/><line x1="59.599" transform="translate(616.319 201.305)" fill="none" stroke="#fff" stroke-linecap="round" stroke-linejoin="round" stroke-width="0.964"/><line x1="59.599" transform="translate(472.626 170.899)" fill="none" stroke="#fff" stroke-linecap="round" stroke-linejoin="round" stroke-width="0.964"/><line x1="43.077" transform="translate(562.469 201.305)" fill="none" stroke="#fff" stroke-linecap="round" stroke-linejoin="round" stroke-width="0.964"/><line x1="70.011" transform="translate(443.611 201.305)" fill="none" stroke="#fff" stroke-linecap="round" stroke-linejoin="round" stroke-width="0.964"/><line x1="28.386" transform="translate(527.371 201.305)" fill="none" stroke="#fff" stroke-linecap="round" stroke-linejoin="round" stroke-width="0.964"/><path d="M129.843,179.563h53.225a18,18,0,0,0,18-18V108.34a18,18,0,0,0-18-18H129.843a18,18,0,0,0-18,18v53.225a18,18,0,0,0,18,18" transform="translate(62.408 50.409)" fill="#5dccfe"/><path d="M28.319,192.367H243.781a7.743,7.743,0,0,0,7.743-7.743V170.851a7.743,7.743,0,0,0-7.743-7.743H28.319a7.743,7.743,0,0,0-7.743,7.743v13.773a7.743,7.743,0,0,0,7.743,7.743" transform="translate(11.481 91.012)" fill="#c732fc"/><path d="M152.049,118.266a14.085,14.085,0,0,0-10.605-4.112V102.341a25.929,25.929,0,1,1,0,51.844V142.37a14.122,14.122,0,0,0,10.605-24.1" transform="translate(78.924 57.1)" fill="#fff"/><path d="M137.017,118.554a14.081,14.081,0,0,0,13.5,14.765v11.814A25.913,25.913,0,0,1,125.2,118.554Z" transform="translate(69.856 66.151)" fill="#fdaf33"/><path d="M132.779,109.92a25.845,25.845,0,0,1,17.731-7.583v11.816a14.077,14.077,0,0,0-13.5,13.45H125.2a25.844,25.844,0,0,1,7.581-17.683" transform="translate(69.859 57.103)" fill="#c732fc"/></g></g></svg>