<svg xmlns="http://www.w3.org/2000/svg" xmlns:xlink="http://www.w3.org/1999/xlink" width="602.612" height="487.699" viewBox="0 0 602.612 487.699"><defs><clipPath id="a"><rect width="602.612" height="487.699" fill="none"/></clipPath><clipPath id="b"><rect width="602.612" height="487.7" fill="none"/></clipPath><clipPath id="c"><rect width="151.558" height="151.557" fill="none"/></clipPath><clipPath id="d"><path d="M895.842,425.768H778a16.858,16.858,0,0,1-16.858-16.857V291.068A16.858,16.858,0,0,1,778,274.211H895.842A16.858,16.858,0,0,1,912.7,291.068V408.911a16.857,16.857,0,0,1-16.857,16.857" transform="translate(-761.142 -274.211)" fill="none"/></clipPath><linearGradient id="e" x1="-1.344" y1="2.586" x2="-1.342" y2="2.586" gradientUnits="objectBoundingBox"><stop offset="0" stop-color="#d1d7e0"/><stop offset="1" stop-color="#ebebff"/></linearGradient><clipPath id="g"><rect width="207.422" height="243.467" fill="none"/></clipPath><clipPath id="h"><path d="M1562.943,700.617h-167.7a19.859,19.859,0,0,1-19.859-19.859V477.008a19.859,19.859,0,0,1,19.859-19.859h167.7a19.859,19.859,0,0,1,19.859,19.859V680.757a19.859,19.859,0,0,1-19.859,19.859" transform="translate(-1375.379 -457.149)" fill="none"/></clipPath><linearGradient id="i" x1="-1.905" y1="1.464" x2="-1.904" y2="1.464" xlink:href="#e"/><clipPath id="k"><path d="M0,1617.926c0,7.359,127.45,13.323,284.668,13.323s284.668-5.965,284.668-13.323S441.886,1604.6,284.668,1604.6,0,1610.568,0,1617.926" transform="translate(0 -1604.603)" fill="none"/></clipPath><linearGradient id="l" y1="1" x2="0.001" y2="1" gradientUnits="objectBoundingBox"><stop offset="0" stop-color="#1a2257"/><stop offset="0.005" stop-color="#1a2257"/><stop offset="1" stop-color="#5e60f2"/></linearGradient><clipPath id="n"><rect width="102.155" height="87.648" fill="none"/></clipPath><linearGradient id="p" x1="-2.383" y1="4.601" x2="-2.38" y2="4.601" xlink:href="#e"/><clipPath id="q"><path d="M351.954,1062.033c1.49,8.279-.966,11.741-4.076,16.125-3.263,4.6-7.325,10.323-7.639,23.471-.637,26.645-10.814,66-18.456,71.375l.809,1.15c8.505-5.981,18.459-47.664,19.053-72.491.3-12.718,4.063-18.016,7.38-22.691,3.17-4.469,5.908-8.327,4.313-17.188-3.048-16.934,4.966-24.243,5.047-24.315l-.927-1.057c-.357.312-8.7,7.851-5.5,25.622" transform="translate(-321.783 -1036.411)" fill="none"/></clipPath><linearGradient id="r" x1="-2.526" y1="1.379" x2="-2.518" y2="1.379" xlink:href="#l"/><clipPath id="s"><path d="M161.255,1303.642c-.807-1.828-1.641-3.719-2.59-5.722-5.1-10.76-9.853-12.626-17.05-15.45-1.728-.678-3.686-1.447-5.822-2.407-9.1-4.088-7.456-9.7-5.718-15.645.249-.85.5-1.7.711-2.537,1.095-4.278-1.064-6.481-3.8-9.27a28.2,28.2,0,0,1-5.957-7.964c-.923-1.931-1.686-4.555-.07-6.085,2.126-2.015,7.528-1.46,12.565,1.29a19.243,19.243,0,0,1,4.379,3.8c3.78,3.958,8.485,8.884,20.4,8.94,5.934.028,9.258.8,10.776,2.507,1.66,1.866,1.3,5.1.8,9.576-.189,1.689-.4,3.6-.535,5.687a33.6,33.6,0,0,0,6.844,22.122c4.268,5.082,9.1,15.2,7.082,20.975-.786,2.247-2.582,3.669-5.339,4.226a16.8,16.8,0,0,1-3.325.364c-6.992,0-9.506-5.7-13.35-14.411m-41.262-66.1c-1.231,1.167-2.27,3.452-.231,7.714a29.806,29.806,0,0,0,6.221,8.342c2.612,2.666,4.338,4.427,3.44,7.937-.211.824-.454,1.656-.7,2.491-1.745,5.968-3.722,12.733,6.492,17.323,2.168.974,4.142,1.749,5.885,2.433,7.131,2.8,11.434,4.487,16.293,14.743.94,1.985,1.771,3.868,2.574,5.688,3.831,8.682,6.728,15.247,14.645,15.247a18.191,18.191,0,0,0,3.6-.39c3.278-.663,5.427-2.392,6.388-5.141,2.293-6.556-3.019-17.208-7.331-22.343a32.777,32.777,0,0,1-6.518-21.13c.129-2.049.342-3.946.529-5.619.542-4.838.934-8.333-1.144-10.668-1.831-2.058-5.366-2.949-11.82-2.979-11.319-.053-15.795-4.74-19.391-8.505a20.544,20.544,0,0,0-4.723-4.067,20.1,20.1,0,0,0-9.266-2.653,7.092,7.092,0,0,0-4.941,1.577" transform="translate(-118.607 -1235.963)" fill="none"/></clipPath><linearGradient id="t" x1="-0.48" y1="1.588" x2="-0.476" y2="1.588" xlink:href="#l"/><clipPath id="u"><path d="M156.576,1276.441c.12.022,12,2.211,14.181,9.852,2.114,7.4,6.551,18.433,20.6,28.676,11.954,8.714,13.738,40.152,13.755,40.468l1.4-.074c-.069-1.319-1.841-32.427-14.331-41.531-13.7-9.988-18.023-20.722-20.08-27.927-2.424-8.489-14.765-10.758-15.289-10.851Z" transform="translate(-156.576 -1275.056)" fill="none"/></clipPath><linearGradient id="v" x1="-0.901" y1="1.509" x2="-0.895" y2="1.509" xlink:href="#l"/><clipPath id="w"><path d="M335.256,915.025l.074-.1.036-.117c.045-.146,4.608-14.573,9.577-16.737a2.412,2.412,0,0,1,2.108,0c3.311,1.583,5.212,3.391,5.812,5.524,1.073,3.816-2.01,8.563-5.58,14.061-5.818,8.958-13.059,20.108-5.7,33.11,8.69,15.352,4.348,20.434-2.224,28.127-3.923,4.592-8.369,9.8-11.367,18.36-2.565,7.326,1.8,14.295,5.651,20.443,4.9,7.817,9.127,14.568-.274,20.753-17.383,11.436-33.881,46.716-35.275,49.747-3.48,2.707-5.879,3.762-7.134,3.137-2.144-1.067-2.033-7.2-1.892-14.971.206-11.38.488-26.964-5.517-41.414-5.85-14.077-.923-17.963,4.294-22.077,6.237-4.918,12.685-10,1.163-31.371-4.826-8.95-6.4-14.895-4.952-18.708,1.355-3.572,5.316-5.021,9.9-6.7,8.161-2.987,18.318-6.7,17.056-24.947-.33-4.766.174-7.744,1.539-9.1,1.386-1.38,3.687-1.212,6.6-1,1.134.083,2.331.171,3.568.171a14.448,14.448,0,0,0,12.535-6.19m9.126-18.241c-5.356,2.333-9.833,15.961-10.32,17.488-4.683,6.11-10.059,5.717-14.805,5.37-3.141-.23-5.854-.429-7.7,1.4-1.695,1.688-2.314,4.929-1.95,10.2,1.189,17.188-8.015,20.557-16.136,23.529-4.705,1.722-9.149,3.349-10.733,7.521-1.6,4.222,0,10.538,5.03,19.874,10.961,20.328,5.25,24.832-.8,29.6-5.4,4.257-10.98,8.659-4.721,23.721,5.892,14.179,5.613,29.593,5.409,40.849-.161,8.907-.268,14.792,2.671,16.255a3.2,3.2,0,0,0,1.448.327c1.762,0,4.1-1.2,7.314-3.721l.135-.106.071-.156c.172-.377,17.4-37.837,34.841-49.313,10.55-6.941,5.539-14.94.693-22.675-3.863-6.167-7.857-12.544-5.516-19.231,2.911-8.315,7.267-13.414,11.109-17.912,6.707-7.851,11.554-13.524,2.379-29.734-6.94-12.26-.249-22.562,5.654-31.651,3.757-5.784,7-10.779,5.754-15.208-.716-2.546-2.862-4.644-6.559-6.412a3.745,3.745,0,0,0-1.63-.381,4.1,4.1,0,0,0-1.647.363" transform="translate(-279.488 -896.421)" fill="none"/></clipPath><linearGradient id="x" x1="-0.967" y1="1.171" x2="-0.963" y2="1.171" xlink:href="#l"/><clipPath id="y"><path d="M196.2,1010.035c-10.257,3.517,2.344,17.349-8.44,40.071S220.671,1084,208.6,1095.254s-10.081,16.081,2.11,20.22,7.055,38.976,18.776,46.5,1.876-22.061,12.66-49.725-25.319-6.564-9.378-38.265-22.037-24.564-25.788-37.224c-3.453-11.655-2.164-27.083-8.865-27.082a5.952,5.952,0,0,0-1.919.356" transform="translate(-186.029 -1009.679)" fill="none"/></clipPath><linearGradient id="z" x1="-0.172" y1="1.17" x2="-0.17" y2="1.17" xlink:href="#l"/><clipPath id="ab"><path d="M252.823,1481.742l12.674,48.086h28.325l12.675-48.086Z" transform="translate(-252.823 -1481.742)" fill="none"/></clipPath><linearGradient id="ac" x1="-1.187" y1="1.1" x2="-1.182" y2="1.1" gradientUnits="objectBoundingBox"><stop offset="0" stop-color="#c9c4c1"/><stop offset="1" stop-color="#fff6de"/></linearGradient><clipPath id="ad"><path d="M252.823,1481.742l12.674,48.086h13.1c0-42.847,27.9-48.086,27.9-48.086Z" transform="translate(-252.823 -1481.742)" fill="none"/></clipPath><linearGradient id="ae" x1="-1.353" y1="1.288" x2="-1.348" y2="1.288" xlink:href="#ac"/><clipPath id="ag"><rect width="111.35" height="100.284" fill="none"/></clipPath><clipPath id="ah"><path d="M1437.908,179.166h-83.631a13.859,13.859,0,0,1-13.859-13.859V92.741a13.859,13.859,0,0,1,13.859-13.859h83.631a13.859,13.859,0,0,1,13.859,13.859v72.566a13.859,13.859,0,0,1-13.859,13.859" transform="translate(-1340.418 -78.882)" fill="none"/></clipPath><linearGradient id="ai" x1="-3.459" y1="4.637" x2="-3.456" y2="4.637" xlink:href="#e"/><clipPath id="aj"><rect width="43.801" height="9.298" fill="none"/></clipPath><clipPath id="ak"><path d="M1984.243,329.831h8.661l-2.651-5.5h-8.661Z" transform="translate(-1981.592 -324.333)" fill="none"/></clipPath><linearGradient id="al" x1="-50.334" y1="71.754" x2="-50.308" y2="71.754" xlink:href="#e"/><clipPath id="am"><path d="M1970.139,329.831h2.063l-2.651-5.5h-2.064Z" transform="translate(-1967.488 -324.333)" fill="none"/></clipPath><linearGradient id="an" x1="-119.911" y1="71.754" x2="-119.851" y2="71.754" xlink:href="#e"/><clipPath id="ao"><path d="M1869.686,313.86h35.07l-1.164-2.749h-35.07Z" transform="translate(-1868.522 -311.111)" fill="none"/></clipPath><linearGradient id="ap" x1="-14.817" y1="144.897" x2="-14.809" y2="144.897" xlink:href="#e"/><clipPath id="aq"><path d="M2.24,0H12.622a2.239,2.239,0,0,1,2.239,2.239v0a2.24,2.24,0,0,1-2.24,2.24H2.238A2.238,2.238,0,0,1,0,2.241v0A2.24,2.24,0,0,1,2.24,0Z" fill="none"/></clipPath><linearGradient id="ar" x1="-22.586" y1="108.895" x2="-22.567" y2="108.895" xlink:href="#e"/><clipPath id="as"><path d="M2.239,0H12.622a2.239,2.239,0,0,1,2.239,2.239v0a2.239,2.239,0,0,1-2.239,2.239H2.239A2.239,2.239,0,0,1,0,2.24v0A2.239,2.239,0,0,1,2.239,0Z" fill="none"/></clipPath><linearGradient id="at" x1="-22.586" y1="106.497" x2="-22.567" y2="106.497" xlink:href="#e"/><clipPath id="au"><path d="M2.239,0H12.623a2.238,2.238,0,0,1,2.238,2.238v0a2.239,2.239,0,0,1-2.239,2.239H2.24A2.24,2.24,0,0,1,0,2.239v0A2.239,2.239,0,0,1,2.239,0Z" fill="none"/></clipPath><linearGradient id="av" x1="-22.586" y1="104.093" x2="-22.567" y2="104.093" xlink:href="#e"/><clipPath id="aw"><path d="M2.114,0h0A2.114,2.114,0,0,1,4.229,2.114v.25A2.114,2.114,0,0,1,2.114,4.479h0A2.114,2.114,0,0,1,0,2.365V2.114A2.114,2.114,0,0,1,2.114,0Z" fill="none"/></clipPath><linearGradient id="ax" x1="-84.342" y1="108.896" x2="-84.274" y2="108.896" xlink:href="#e"/><clipPath id="ay"><path d="M2.114,0h0A2.115,2.115,0,0,1,4.229,2.115v.25A2.114,2.114,0,0,1,2.115,4.479h0A2.114,2.114,0,0,1,0,2.365V2.114A2.114,2.114,0,0,1,2.114,0Z" fill="none"/></clipPath><linearGradient id="az" x1="-84.342" y1="106.498" x2="-84.274" y2="106.498" xlink:href="#e"/><clipPath id="ba"><path d="M2.114,0h0A2.114,2.114,0,0,1,4.229,2.114v.252A2.114,2.114,0,0,1,2.115,4.479h0A2.115,2.115,0,0,1,0,2.364v-.25A2.114,2.114,0,0,1,2.114,0Z" fill="none"/></clipPath><linearGradient id="bb" x1="-84.342" y1="104.092" x2="-84.274" y2="104.092" xlink:href="#e"/><clipPath id="bc"><path d="M1004.329,865.106l4.758,9.869h15.546l-4.758-9.869Z" transform="translate(-1004.329 -865.106)" fill="none"/></clipPath><linearGradient id="bd" x1="-14.212" y1="24.229" x2="-14.198" y2="24.229" xlink:href="#e"/><clipPath id="be"><path d="M979.012,865.106l4.758,9.869h3.7l-4.758-9.869Z" transform="translate(-979.012 -865.106)" fill="none"/></clipPath><linearGradient id="bf" x1="-33.241" y1="24.23" x2="-33.207" y2="24.23" xlink:href="#e"/></defs><g clip-path="url(#a)"><g transform="translate(0 -0.001)"><g clip-path="url(#b)"><g transform="translate(218.7 78.79)" opacity="0.95"><g clip-path="url(#c)"><g transform="translate(0 0)"><g clip-path="url(#d)"><rect width="159.676" height="159.676" transform="matrix(0.998, -0.055, 0.055, 0.998, -8.336, 0.46)" fill="url(#e)"/></g></g></g></g></g></g><rect width="70.168" height="3.466" transform="translate(259.395 195.842)" fill="#96bfe6"/><rect width="50.291" height="3.466" transform="translate(269.333 206.764)" fill="#96bfe6"/><g transform="translate(0 -0.001)"><g clip-path="url(#b)"><g transform="translate(395.19 131.354)" opacity="0.95"><g clip-path="url(#g)"><g transform="translate(0 0)"><g clip-path="url(#h)"><rect width="207.423" height="243.468" transform="translate(0 0)" fill="url(#i)"/></g></g></g></g></g></g><rect width="16.451" height="3.047" transform="translate(489.237 274.984)" fill="#4598e6"/><rect width="95.728" height="5.899" transform="translate(426.78 302.903)" fill="#96bfe6"/><rect width="77.411" height="5.899" transform="translate(426.78 331.225)" fill="#96bfe6"/><rect width="45.381" height="5.899" transform="translate(426.779 317.064)" fill="#96bfe6"/><path d="M1610.181,541.649v2.979h17.542v16.464h2.979V541.649Zm-119.124,19.443h2.979V544.628h17.542v-2.979h-20.521Zm136.666,84.952v16.469h-17.542v2.98H1630.7V646.043Zm-133.687,0h-2.979v19.449h20.521v-2.98h-17.542Z" transform="translate(-1062.629 -386.016)" fill="#4598e6"/><g transform="translate(0 -0.001)"><g clip-path="url(#b)"><path d="M1901.229,1087.773a17.543,17.543,0,1,1,17.544-17.544,17.563,17.563,0,0,1-17.544,17.544m0-31.691a14.148,14.148,0,1,0,14.148,14.148,14.164,14.164,0,0,0-14.148-14.148" transform="translate(-1342.443 -750.216)" fill="#4598e6"/><path d="M1921.08,1106.5l-7.97-7.971,2.4-2.4,5.569,5.569,7.807-7.807,2.4,2.4Z" transform="translate(-1363.413 -779.58)" fill="#4598e6"/></g></g><g transform="translate(0 461.053)"><g clip-path="url(#k)"><rect width="569.336" height="26.646" fill="url(#l)"/></g></g><g transform="translate(0 -0.001)"><g clip-path="url(#b)"><g transform="translate(243.401 84.456)" opacity="0.95"><g clip-path="url(#n)"><g transform="translate(0 0.001)"><g clip-path="url(#n)"><rect width="102.155" height="87.648" transform="translate(0)" fill="url(#p)"/></g></g></g></g></g></g><g transform="translate(92.458 297.794)"><g clip-path="url(#q)"><rect width="36.603" height="137.742" transform="translate(0)" fill="url(#r)"/></g></g><g transform="translate(34.08 355.131)"><g clip-path="url(#s)"><rect width="69.167" height="83.495" transform="translate(-0.884)" fill="url(#t)"/></g></g><g transform="translate(44.989 366.364)"><g clip-path="url(#u)"><rect width="49.945" height="80.382" transform="translate(0 0)" fill="url(#v)"/></g></g><g transform="translate(80.306 257.57)"><g clip-path="url(#w)"><rect width="79.469" height="196.499" transform="translate(-3.493)" fill="url(#x)"/></g></g><g transform="translate(53.452 290.113)"><g clip-path="url(#y)"><rect width="122.6" height="175.641" transform="translate(-57.003 15.982) rotate(-18.435)" fill="url(#z)"/></g></g><g transform="translate(0 -0.001)"><g clip-path="url(#b)"><path d="M265.047,1258.249c1.117-4.735,10.651-46.411,1.754-51.45-7.84-4.44-7.647-21.709-6.424-38.018,1.083-14.436-17.457-21.183-18.247-21.463l-.47,1.325c.183.065,18.317,6.67,17.315,20.032-1.256,16.748-1.391,34.52,7.134,39.347,6.754,3.825.536,37.32-2.431,49.9Z" transform="translate(-172.223 -817.658)" fill="#fff"/></g></g><g transform="translate(72.644 425.751)"><g clip-path="url(#ab)"><rect width="58.971" height="63.151" transform="matrix(0.226, -0.974, 0.974, 0.226, -10.585, 45.63)" fill="url(#ac)"/></g></g><g transform="translate(72.644 425.751)"><g clip-path="url(#ad)"><rect width="53.674" height="48.086" fill="url(#ae)"/></g></g><g transform="translate(0 -0.001)"><g clip-path="url(#b)"><g transform="translate(385.145 22.665)" opacity="0.95"><g clip-path="url(#ag)"><g transform="translate(-0.001 0.001)"><g clip-path="url(#ah)"><rect width="111.349" height="100.284" transform="translate(0 0)" fill="url(#ai)"/></g></g></g></g><rect width="8.831" height="1.636" transform="translate(435.981 103.983)" fill="#4598e6"/><path d="M1467.681,142.044v1.6h9.417v8.838h1.6V142.044Zm-63.948,10.437h1.6v-8.838h9.417v-1.6h-11.016Zm73.365,45.6v8.841h-9.417v1.6H1478.7v-10.44Zm-71.766,0h-1.6v10.44h11.016v-1.6h-9.417Z" transform="translate(-1000.396 -101.23)" fill="#4598e6"/><rect width="11.796" height="2.185" transform="translate(288.581 178.908)" fill="#4598e6"/><path d="M936.047,329v2.136h12.578v11.8h2.136V329Zm-85.416,13.941h2.136v-11.8h12.578V329H850.631Zm97.994,60.913v11.809H936.047V417.8h14.714V403.857Zm-95.858,0h-2.136V417.8h14.714v-2.136H852.767Z" transform="translate(-606.218 -234.469)" fill="#4598e6"/><path d="M1627.249,669.887h-19.678c-1.295-9.422-2.886-20.177-2.886-20.177s-.8,8.876-1.763,20.177h-78.742c-.718-10.162-1.584-17.767-1.9-17.923-.453-.226-3.26,8.79-5.592,17.923h-21.316c5.483-23.616,15.708-61.506,21.62-63.775,8.415-3.237,42.733-13.813,42.733-13.813h19.584s34.8,9.928,38.038,20.723c2.574,8.6,8.252,36.969,9.9,56.865" transform="translate(-1065.709 -422.112)" fill="#e65353"/><path d="M1702.281,370.761s18.287,2.881,15.5,31.492-18.924,26.266-20,26.237-16.2.522-17.381-34.411c0,0-.514-25.831,21.882-23.318" transform="translate(-1197.566 -264.106)" fill="#eea987"/><path d="M1725.865,535.08s-.5,11.768.638,14.315-15.09,10.731-24.989,1.612c0,0,2.39-12.789,1.726-17.322s22.625,1.4,22.625,1.4" transform="translate(-1212.615 -379.123)" fill="#eea987"/><path d="M1808.857,450.323s2-2.139,2.737.026-3.107,11.841-2.856,12.275c0,0-.365.84-.846.377s.965-12.679.965-12.679" transform="translate(-1288.358 -320.259)" fill="#eea987"/><path d="M1674.062,448.983s-1.961-2.177-2.737-.026,2.877,11.9,2.618,12.327c0,0,.349.847.839.394s-.72-12.695-.72-12.695" transform="translate(-1191.023 -319.28)" fill="#eea987"/><path d="M1712.819,388.378l-2.618,3.5s.074-7.673-.346-8.877-1.063-4.879-1.414-5.745-15.7-5.169-29.264,1.256c0,0,.6,5.518-.7,6.009s-.663,8.986-.663,8.986l-2.152-2.429s-3.295-22.012-2.481-24.307,3.407-16.088,31.227-7.9c0,0,8.673-1.837,10.414,4.151s-2,25.354-2,25.354" transform="translate(-1192.329 -253.925)" fill="#d98b52"/><path d="M1726.478,592.377s4.125.88-13.14,17.426c0,0-12.246-13.546-11.849-15.814s24.989-1.612,24.989-1.612" transform="translate(-1212.591 -422.105)" fill="#eea987"/><path d="M1742.752,603.9l4.712,8.057,13.977-23.732L1755.388,584Z" transform="translate(-1242.004 -416.198)" fill="#b84343"/><path d="M1698.314,608.119l-11.434-18.193-6.482,4.166,11.622,22.085Z" transform="translate(-1197.567 -420.421)" fill="#b84343"/><path d="M1728.439,703.49c.141,2.683.2,5.974.211,9.671H1728c-.008-3.681-.07-6.965-.211-9.64-1.06-20.185,3.83-44.745,3.861-50.5l.632.125c-.031,5.756-4.906,30.246-3.845,50.345" transform="translate(-1231.235 -465.387)" fill="#b84343"/><path d="M1713.446,558.73s4.344,4.594,10.481,3.369,8.862-4.035,8.862-4.035a11.406,11.406,0,0,1-9.517,6.631c-7.095.556-9.825-5.965-9.825-5.965" transform="translate(-1221.119 -397.714)" fill="#c78d71"/><path d="M969.161,305.631a.173.173,0,0,1-.041-.005c-.413-.1-1.066-2.079-1.193-2.474-.03-.108-.094-.307-.183-.583-.513-1.583-1.712-5.292-1.244-6.712.147-.449.377-.708.684-.771.657-.135,1.407.7,1.438.733l.016.018,0,.024c.17,1.56,1,9.359.644,9.717a.172.172,0,0,1-.122.053m-1.827-10.41a.585.585,0,0,0-.121.012c-.249.052-.441.278-.571.671-.452,1.374.78,5.184,1.244,6.618.089.277.154.478.184.586a6.864,6.864,0,0,0,1.084,2.37c.006,0,.011,0,.022-.008.228-.309-.3-6.023-.685-9.569a2.05,2.05,0,0,0-1.159-.681" transform="translate(-688.718 -210.287)" fill="#eea886"/><path d="M970.786,223.522s10.066-1.055,13.693,8.666,7.042,12.9,7.47,18.01c1.729,20.655,11.375,15.983,8.662,27.889s-4.591,13.707-4.591,13.707l-23.06-4.521-23.361.075s9.139-4.564,7.1-14.285-7.1-25.654-4.241-36.505,12.309-12.208,18.324-13.037" transform="translate(-676.749 -159.272)" fill="#16202e"/><path d="M1065.6,305.629a.172.172,0,0,1-.122-.053c-.359-.358.474-8.157.644-9.717l0-.024.016-.018c.032-.036.782-.87,1.438-.733.306.063.536.323.683.771.468,1.421-.731,5.129-1.244,6.712-.089.275-.153.474-.182.58-.128.4-.781,2.376-1.194,2.477a.168.168,0,0,1-.042,0m.669-9.729c-.387,3.547-.913,9.26-.683,9.571a.018.018,0,0,0,.02.006,6.873,6.873,0,0,0,1.085-2.373c.029-.106.094-.306.183-.583.464-1.434,1.7-5.244,1.244-6.618-.13-.393-.322-.619-.571-.671-.524-.108-1.171.552-1.28.669" transform="translate(-759.269 -210.286)" fill="#eea886"/><path d="M954.79,445.792H940.42c-2.98-5.43-5.4-9.678-5.4-9.678a43.414,43.414,0,0,0-3.439,9.678H883.206a41.8,41.8,0,0,1-.629-10.122s-2.585,4.672-5.585,10.122H860.741c4.313-8.076,12.393-22.78,14.23-24.7,2.306-2.416,15.672-11.654,25.216-14.669s14.973-.1,14.973-.1a113.114,113.114,0,0,1,18.866,5.361c3.564,1.412,13.407,19.59,20.763,34.109" transform="translate(-613.423 -288.672)" fill="#faa146"/><path d="M988.567,243.121s13.331,1.924,11.38,21.6-13.717,18.118-14.5,18.1-11.8.409-12.757-23.6c0,0-.444-17.758,15.881-16.1" transform="translate(-693.202 -173.186)" fill="#8e4f3a"/><path d="M1010.923,367.213s-.825,10.237,1.146,13.3-1.686,7.229-9.223,5.806-7.1-5.7-7.1-5.7,2.11-6.317,1.493-11.374,13.682-2.039,13.682-2.039" transform="translate(-709.635 -261.064)" fill="#8e4f3a"/><path d="M983.755,242.536s6.229,6.549,9.122,9.864,3.226,9.721,3.226,9.721,4.873-5.953,2.836-12.886-6.861-20.422-19.069-16.277-12.66,22.381-11.228,31.423c0,0,5.48-19.962,15.113-21.846" transform="translate(-689.915 -165.469)" fill="#16202e"/><path d="M1010.9,407.961s-9.245,23.416-14.865,27.486c0,0-7.381-23.883-6.865-27.379,0,0,11.135-4.363,21.73-.107" transform="translate(-704.933 -289.411)" fill="#8e4f3a"/><path d="M964.838,392.877s-16.481,14.664-12.2,23.813c3.651,7.808,16.594,3.02,14.459-5.162s-2.255-18.651-2.255-18.651" transform="translate(-678.407 -279.99)" fill="#16202e"/><path d="M1004.367,375.3a11.646,11.646,0,0,0,11.209-1.281,7.213,7.213,0,0,1-5.6,3.622c-4.069.451-5.6-2.341-5.6-2.341" transform="translate(-715.781 -266.549)" fill="#633029"/><path d="M1459.634,189.953s-5.466,20.571-6.607,25.206a38.533,38.533,0,0,1-2.827,6.562.715.715,0,0,1-.034.064,5.238,5.238,0,0,0-.511,1.671c-.221,1.715.438,3.067-.7,5.1l-.206.855h-10.819c1.263-3.75,2.866-8.523,4.148-12.367,1.076-3.244,1.927-5.825,2.153-6.572.668-2.231,3.121-9.457,5.2-14.255.727-1.671,3.529-3.323,6.012-4.517,2.222-1.057,4.188-1.75,4.188-1.75" transform="translate(-1024.765 -135.373)" fill="#323657"/><path d="M1487.65,33.356s-3.449-22.311,15.029-21.9,18.231,11.444,17.9,22.393-7.409,10.126.576,25.357-6.915,15.231-6.915,15.231l-11.563-15.889Z" transform="translate(-1060.02 -8.16)" fill="#fccca2"/><path d="M1501.188,18.275s-12.514,1.976-13.008,19.759,3.375,21.57,14.325,17.865,14.407-22.311,14.654-25.192.905-14.572-15.972-12.432" transform="translate(-1060.55 -12.838)" fill="#eea886"/><path d="M1494.445,187.925c.044,6.12-6.99,20.758-8.076,25.28-.128.526-.266,1.013-.4,1.47h-34.152c-.177-2.109-.344-3.913-.427-4.93-.271-3.343-3.657-10.544-3.544-13.9.118-3.416,1.794-6.365,4.139-10.012.727-1.131,1.494-2.281,2.256-3.4a64.687,64.687,0,0,1,6.189-8.1,19.848,19.848,0,0,1,2.492-1.986l0,0a11.509,11.509,0,0,1,2.566-1.352l10.755-1.721s6.7,2.428,10.563,3.328c0,0,7.526,1.1,7.639,15.327" transform="translate(-1031.829 -120.634)" fill="#e55353"/><path d="M1470.606,179.962l-6.234,9.825-5.754,9.068c.014-.049.4-1.422,1.047-5.4.124-.755.256-1.6.4-2.554a6.743,6.743,0,0,1,.181-.836h0c2.463-5.678,10.077-9.959,10.355-10.1l.007,0" transform="translate(-1039.51 -128.253)" fill="#e55353"/><path d="M1522.751,121.336c-1.085,2.048-2.231,14.764-2.231,14.764s-15.305,5.785-13.739,2.513a12.515,12.515,0,0,0,.933-5.073,24.5,24.5,0,0,0-.17-3.089c-.04-.335-.071-.527-.071-.527s16.361-10.637,15.276-8.587" transform="translate(-1073.756 -86.285)" fill="#eea886"/><path d="M1496.186,30.293s6.422,10.456,12.267,14.572,2.881,7.41,2.881,7.41,15.251-32.108.751-34.331-23.392-2.387-23.8,19.347c0,0,6.587-7.163,7.9-7" transform="translate(-1060.652 -12.095)" fill="#fccca2"/><path d="M1518.446,149.149c-2.349,3.465-8.557,4.4-8.557,4.4h0a24.592,24.592,0,0,0-.17-3.089c3.988.769,8.727-1.31,8.727-1.31" transform="translate(-1075.929 -106.293)" fill="#a77860"/><path d="M1462.866,190.008h0a12.839,12.839,0,0,0-.6,3.458l2.254-3.4s4.026-5.773,5.406-7.274a22.886,22.886,0,0,1,3.274-2.816s-7.921,3.806-10.329,10.034" transform="translate(-1042.107 -128.261)" fill="#ebeeff"/><path d="M1561.711,199.454s9.824-3.853,12.73-4.077c0,0-1.976-15.775-11.626-14.1s-1.1,18.181-1.1,18.181" transform="translate(-1110.495 -129.099)" fill="#e55353"/><path d="M1496.178,170.908s-7.212,11.09-4.771,12.058,15.657-1.293,21.276-11.826c0,0-8.4-4.308-16.5-.232" transform="translate(-1062.519 -120.551)" fill="#eea886"/><path d="M1550.49,188.717c-.5,8.7-2.969,16.943-5,24.513-.295,1.1-.58,2.183-.845,3.249h-20c-.049-3-.039-5.643.054-7.85,1.007-24.134,8.656-36.826,8.656-36.826s2.443.821,9.472,2.812c4.817,1.362,6.636,7.491,7.3,11.207a.367.367,0,0,1,.01.044,26.583,26.583,0,0,1,.359,2.851" transform="translate(-1086.542 -122.438)" fill="#323657"/><path d="M1464.838,175.276a57.836,57.836,0,0,0-2.974,5.967,64.815,64.815,0,0,0-5.579,23.511,138.374,138.374,0,0,1-1.6,14.2h-3.991a63.372,63.372,0,0,0-2.2-12.367c-.545-1.942-1.047-3.392-1.318-4.311-1.273-4.33,2.8-10.1,4.159-12.16s4.63-11.537,13.5-14.84" transform="translate(-1031.184 -124.913)" fill="#323657"/><path d="M1579.6,222.693h-10.74a14.227,14.227,0,0,0-.634-3.249c-1.951-6.936-7.727-20.438-7.727-20.438s-8.642-14.122-.452-17.72,11.713,6.459,12.815,10.75a.4.4,0,0,1,.01.044c.27,1.027,5.146,19.617,6.729,30.613" transform="translate(-1109.286 -128.652)" fill="#323657"/><path d="M1024.75,1011.042s3.753-.053,5.089-1.5a17.531,17.531,0,0,1,4.453-3.11c1.012-.493,3.812-3.216,4.164-1.886s-4.459,4.7-5.374,5.613,4,1.307,4.717,2.191-1.786,10.178-5.059,9.458-5.953-4.02-6.573-4.013a17.391,17.391,0,0,1-2.417-.413Z" transform="translate(-729.594 -715.65)" fill="#eea886"/><path d="M1059.79,1031.281s9.77,2.984,10.172,3.829.13,1.465-.8,1.23-9.564-2.558-9.564-2.558,10.677,5.837,11.158,6.422c.282.342-.187,1.562-.7,1.492s-11.509-5.113-11.509-5.113,9.957,5.473,10.205,6.123c.217.569-.45,1.617-1.223,1.274s-10.369-4.78-10.369-4.78,6.938,4.544,6.83,5.292c-.066.457-.43,1.525-2.177.283s-6.225-3.628-6.225-3.628Z" transform="translate(-752.282 -734.961)" fill="#eea886"/><path d="M928.984,1599.52s3.134,4.689,7.531,5.7,8.727,2.624,8.76,5.4-12.711,4.429-17.742,1.632c-7.508-4.174-8.272-2.916-9.1-5s1-7.666.946-8.33c-.067-.82,9.61.6,9.61.6" transform="translate(-654.38 -1139.318)" fill="#353a3d"/><path d="M931.366,1590.21a20.012,20.012,0,0,1,.487,2.313c-.085.048-9.906,1.218-9.61-.6.241-1.474.585-3.076.585-3.076Z" transform="translate(-657.249 -1132.321)" fill="#81807e"/><path d="M714.419,1597.674s2.235,4.485,6.055,6.013c4.083,1.633,7.357,3.51,7.283,6.214s-9.981,5.443-17.188.255c-4.554-3.278-6-3.294-6.727-5.358s1.269-7.428,1.241-8.076c-.034-.8,9.336.953,9.336.953" transform="translate(-501.491 -1137.783)" fill="#353a3d"/><path d="M718,1588.126a21.942,21.942,0,0,1-.112,2.329c-.085.044-9.578.826-9.336-.953a14.629,14.629,0,0,1,.921-3.119Z" transform="translate(-504.956 -1130.565)" fill="#81807e"/><path d="M743.675,1089.733s12.468,47.766,17.215,58.809c4.4,10.231,5.849,24.539,6.455,31.726.762,9.039,5.3,44.238,5.829,46.881s-14.667,1.462-14.667,1.462-10.481-60.86-14.832-69.742c-2.9-5.927-19.752-48.43-21.68-45.983s-4.319,45.034-5.746,52.1-5.811,62.928-5.811,62.928-9.8,1.446-12.418-.77c0,0-1.192-47.7-.282-60.95.347-5.051-5.918-60.563,2.115-82.911,4.246-11.81,43.823,6.446,43.823,6.446" transform="translate(-495.83 -769.19)" fill="#2d3133"/><path d="M620.879,857.092c0,.546,1.031,2.732,2.678,5.874,2.408-4.816,4.3-8.771,4.918-10.226,2.029-4.793,12.486-15.778,12.486-15.778a.091.091,0,0,0,0,.023.043.043,0,0,0,0,.014.028.028,0,0,1,0,.012c0,.016.009.031.012.046s.015.057.026.094a.539.539,0,0,1,.015.058.41.41,0,0,1,.012.044c.57,2.121,4.066,15.379,4.194,21.91.142,7.109,2,20.262,2,20.262h.007l2.183.306,4.831.681.579.081,1.406.2,12.811,1.8,4.544.639.614.087,2.6.365,7.172,1.009,1.829.256.017,0,1.369.193,1.895.266h0c.052-.07,1.843-2.521,1.566-7.965-.176-3.514-.6-10.117-.423-16.243,0-.032,0-.064,0-.095,0-.078,0-.154.006-.232,0-.027,0-.052,0-.078v-.014a43.739,43.739,0,0,1,1.036-8.979,37.159,37.159,0,0,0,.891-4.787c.01-.075.018-.148.028-.222.032-.283.063-.562.089-.837a42.2,42.2,0,0,0,.067-7.673l.008.016c.13.283,1.065,3.71,2.29,7.94,2.072,7.152,4.972,16.6,6.208,17.055,1.8.662,30.9,9.282,37.189,10.165.728.1,1.149.1,1.189-.028.029-.092.058-.186.087-.284.764-2.518,1.813-6.8,1.981-7.488.017-.062.024-.1.024-.1l-1.126-.337-31.67-9.491-14.478-41.75c-.3-.242-3.858-1.963-6.455-3.2-2.648-1.26-5.841-3.112-8.731-4.7-1.475-.807-2.87-1.543-4.075-2.1l-.185-.084v0c-1.994-.912-3.318-1.515-3.318-1.515h-.006l-.866-.082c-2.781-.264-11.422-1.074-14.318-1.244-.238-.015-.438-.024-.593-.028-.133,0-.231-.006-.292,0a36.138,36.138,0,0,0-4.489,1.534h0l-.267.1-.332.126-.619.239c-.419.163-.849.331-1.286.5l-.457.18c-4.685,1.86-10.052,4.157-11.328,5.074-.842.6-3.467,5.55-6.51,11.668-3.919,12.555-8.886,31.772-9.04,36.512,0,.075,0,.147,0,.214" transform="translate(-442.481 -570.802)" fill="#decbc4"/><path d="M752.611,1079.981s.964,1.153,1.243,6.036c0,0-39.633-4.624-43.822-6.446,0,0-.164-5.381.725-5.474.976-.1,41.855,5.884,41.855,5.884" transform="translate(-506.009 -765.473)" fill="#495055"/><path d="M740.624,761.06c.123,6.22,12.167,9.623,12.167,9.623s5.038-6.315,3.834-6.92c-.473-.237-.665-1.18-.723-2.237a21.842,21.842,0,0,1,.069-2.821c.036-.44.07-.723.07-.723s-1.721-1.816-3.91-3.979c-3.825-3.782-9.084-8.628-9.092-6.7a1.689,1.689,0,0,0,.044.365c.924,4.338-2.458,13.392-2.458,13.392" transform="translate(-527.819 -532.266)" fill="#eea886"/><path d="M737.222,1076.854s-.865,5.455-.94,6.877l-1.833-.366s.505-5.771.8-6.739Z" transform="translate(-523.418 -767.278)" fill="#353a3d"/><path d="M842.162,1091.72s.695,4.958.711,6.831l-1.94-.252s-.4-6.192-.619-6.838Z" transform="translate(-598.865 -777.849)" fill="#353a3d"/><path d="M756.767,764.549h0c.024.036.534.8,1.406,1.9,1.849,2.325,5.325,6.146,9.232,7.68a21.9,21.9,0,0,1,.069-2.821,6.31,6.31,0,0,0,1.2-.144,37.048,37.048,0,0,0-2.619-3.834l-2.418-.723Z" transform="translate(-539.324 -544.869)" fill="#a77860"/><path d="M738.549,696.833c1.042,2.266,2.031,3.909,2.312,4.56h0a8.058,8.058,0,0,0,1.406,1.9c1.985,2.138,5.674,4.958,9.3,4.859a6.31,6.31,0,0,0,1.2-.144,5.69,5.69,0,0,0,4.145-2.864c7.513-14.71,2.074-26.739,2.074-26.739s-20.544-5.81-23.758.375c-2.256,4.338.876,12.729,3.324,18.054" transform="translate(-523.418 -481.713)" fill="#eea886"/><path d="M751.35,653.063s1.908-.106,2.38-3.723c.466-3.574-.476-4.564-.476-4.564s-8.481-3.55-11.527-4.012-10.535-.905-12.291,1.1c0,0-4.265-.991-5.427,6.089-1.844,11.233,6.282,22.14,6.282,22.14s-.069-7.338,1.549-8.311,3.015,1.34,3.015,1.34l3.31.593s-5.028-10.857,1-11.259,8.728,1.233,12.181.6" transform="translate(-515.784 -456.372)" fill="#252e3b"/><path d="M747.756,701.7c-.315-3.233-6.162-4.467-5.77-1.079s3.271,6.644,4.6,6.53,1.409-2.987,1.169-5.451" transform="translate(-528.777 -497.87)" fill="#eea886"/><path d="M623.557,866.779c2.547,4.858,6.565,12.007,10.533,18.939-.522.975-1.033,1.942-1.522,2.9a58.026,58.026,0,0,0-3,6.7c-.9,2.533-2.162,9.022.245,10.228l12.678,7s.089-.247.257-.706c.42-1.138,1.331-3.574,2.591-6.729.041-.1.168-.4.356-.846.252-.595.616-1.444,1.031-2.414.187-.434.382-.892.585-1.363.229-.538.468-1.092.7-1.644.345-.8.689-1.6,1.007-2.343.865-2.013,1.54-3.581,1.54-3.581.043-.093.086-.185.128-.278q.619-1.338,1.267-2.68c.666-1.383,1.352-2.759,2.054-4.105.07-.138.141-.274.212-.409.125-.237.251-.474.376-.707l.234-.429.052-.1c.032-.057.062-.113.094-.17,3.666-6.686,7.794-12.276,9.111-20.475q.19-1.187.362-2.359c.191-1.3.366-2.587.527-3.846.06-.476.119-.947.176-1.415.66-5.47,1.054-10.344,1.372-13.738.992-10.576-5.486-22.027-10.46-29.1a78.352,78.352,0,0,0-5.317-6.794c-.011-.009-.018-.018-.026-.026l-.267.1-.332.125-.619.239c-.419.163-.849.331-1.286.5l-.457.18c-4.816,1.889-14.958,4.678-16.234,5.594-.736.527-2.384,5.353-4.286,11.449-3.919,12.554-6.245,31.483-6.358,36.211,0,.075,0,.147,0,.214,0,.547,1.031,2.732,2.678,5.875m19.265-2.362a21.878,21.878,0,0,1-1.946,7.939c-.031.072-.06.145-.09.217-.813-1.734-1.578-3.4-2.264-4.933a.018.018,0,0,1,0-.007c-1.887-4.224-3.182-7.517-3.254-8.821-.466-8.374,5.7-18.013,5.7-18.013a.047.047,0,0,0,0,.014.026.026,0,0,1,0,.012c0,.015.009.03.012.046.009.031.018.061.026.093a.506.506,0,0,1,.016.058.408.408,0,0,1,.012.045c1.263,4.978,1.785,23.352,1.785,23.352" transform="translate(-442.481 -574.614)" fill="#3c4145"/><path d="M652.747,1044.047l-36.138,16.085a4.052,4.052,0,0,1-5.349-2.054l-9.893-22.227a4.052,4.052,0,0,1,2.054-5.349l36.138-16.085a4.052,4.052,0,0,1,5.349,2.054L654.8,1038.7a4.052,4.052,0,0,1-2.054,5.349" transform="translate(-428.324 -722.692)" fill="#b3a5a0"/><path d="M808.179,811.311s1.694,5.642,3.887,19.726a.005.005,0,0,0,0,0c.075.474.148.955.223,1.447.007.057.017.115.026.171.049.326.1.655.148.99.006.04.012.079.018.118.034.225.068.451.1.68q.124.834.247,1.7c.978,6.856,2.35,18.522,3.668,30.3v0c1.042,9.283,3.417,18.81,4.171,25.918,0,0,0,.009,0,.014a49,49,0,0,0,.987,5.344c.054.237.11.477.167.719,2.124,8.973,6.247,21.674,6.247,21.674l1.2-1.109,3.557-3.283a2.882,2.882,0,0,0,.8-2.975c-1.973-6.364-8.677-28.884-9.9-44.719a.048.048,0,0,1,0-.014c.6-5.564,2.143-13.029,1.913-14.1.015.038.029.076.042.116.706,1.963,1.488,4.1,2.277,6.176h0c2.116,5.58,4.281,10.75,5.183,11.08,2.006.738,38.039,11.369,38.3,9.885.026-.149.057-.309.092-.476s.069-.34.107-.521c.445-2.031,1.253-4.943,1.817-6.909l.232-.8c.237-.814.391-1.331.391-1.331l-30.471-10-15.375-40.207c-.3-.24-4.226-2.352-6.823-3.588-2.7-1.288-6.127-2.876-9.163-4.278-1.45-.671-2.816-1.3-3.969-1.828Z" transform="translate(-575.964 -578.142)" fill="#3c4145"/><path d="M721.87,821.72l5.859,3.3-2.5,2.553,6.665,35.987c1.359-8.435,1.978-16.446,2.438-21.358,1.533-16.35-14.787-34.794-15.8-35.923-.784.3-1.631.626-2.505.971Z" transform="translate(-510.286 -574.612)" fill="#51565c"/><path d="M807.864,810.945s2.189,7.15,4.74,25c.978,6.856,2.351,18.523,3.67,30.3l1.364-33.7-2.791-3.024,2.481-3.1-5.309-13.557c-1.45-.671-2.816-1.3-3.97-1.828Z" transform="translate(-575.739 -577.934)" fill="#51565c"/><path d="M723.6,799.269l4.891-3s.136,2.664,12.166,9.623l-3.416,9.622Z" transform="translate(-515.688 -567.474)" fill="#f5e2d9"/><path d="M786.166,800.939s-.189,2.875-3.2,8.28l6.668,8.692.486-14.1Z" transform="translate(-557.995 -570.803)" fill="#f5e2d9"/><path d="M780.6,829.757s-1.292,5.169-.827,6.616c0,0,2.842,1.034,4.884-.258a22.708,22.708,0,0,0-4.057-6.357" transform="translate(-555.649 -591.341)" fill="#faa146"/><path d="M804.63,1051.9c.723-3.647.035-14.575.006-15.038l-.619.04c.007.112.713,11.31.005,14.878Z" transform="translate(-572.997 -738.938)" fill="#ad9f99"/><path d="M788.223,1083.347s5.832.7,7.76,1.177l-.253,6.536-7.637-.815Z" transform="translate(-561.65 -772.067)" fill="#69737a"/><path d="M784.95,848.469s6.5,16.425,5.443,34.81c-1.1,19.062-2.9,25.973-2.9,25.973l-4.011,5.029L781.71,908.1s5.381-24.3,1.907-47.949c-.629-4.285-1.564-12.4-1.564-12.4Z" transform="translate(-557.1 -604.161)" fill="#faa146"/><path d="M709.241,1120.17s1.4,2.791,2.791,3.256,3.431,2.733,3.431,2.733l-9.827,5.175s-2.616-5.117-2.733-8.373,6.338-2.791,6.338-2.791" transform="translate(-500.936 -798.293)" fill="#eea886"/><path d="M708.742,1121.138l.651,1.308s-6.241,4.565-7.924,4.855l-.578-1.745Z" transform="translate(-499.504 -798.999)" fill="#decbc4"/><path d="M665.309,1043.279a47.9,47.9,0,0,1-8.618,5.651l-17.657-30.96,11.269-6.162s14.7,29.145,15.006,31.471" transform="translate(-455.419 -721.083)" fill="#3c4145"/><path d="M864.5,903.607c.217,4.411.185,8.328.185,8.328v0c0,.021.006.14.015.338l.028-.222c.706,1.963,1.488,4.1,2.276,6.176a66.312,66.312,0,0,0,.177-6.73c-.316-12.368-4.206-18.854-4.206-18.854.892,2.156,1.32,6.78,1.525,10.961" transform="translate(-615.019 -636.16)" fill="#2d3133"/><path d="M1402.114,764.6a14.542,14.542,0,0,1,.083-3.334c.462-1.832-.219-4.8,2.085-6.238s8.928,4.588,9.449,6.272-1.956,4.554-7.135,6.965-4.483-3.665-4.483-3.665" transform="translate(-999.198 -537.931)" fill="#eea886"/><path d="M1407.361,726.308a78.435,78.435,0,0,1,5.188-6.8c2.59-3.016,6.225-6.4,6.993-5.756,1.165.976-2.134,3.408-4.5,6.571-2.177,2.913-1.254,2.706-1.254,2.706s-.266.044,2.731-2.665c3.223-2.913,6.806-5.907,7.444-5.392.791.637.836.783-.159,2.033.728-.595,1-.479,1.277-.2,1.451,1.458-2.608,6.48-4.22,8.473,1.248-1.524,2.33-2.508,2.641-1.042.356,1.677-5.707,8.516-7.64,11.175-2.109,2.9-8.5-9.1-8.5-9.1" transform="translate(-1002.982 -508.609)" fill="#eea886"/><path d="M1106.663,1596.713s6.3,3.727,9.157,5.112,13.944,1.782,15.039,2.823.694,4.356-1.144,4.694-15.316,1.557-19.813.506-12.907.718-14.77.086-.661-10.674.059-12.927,11.473-.293,11.473-.293" transform="translate(-779.759 -1137.363)" fill="#181929"/><path d="M1111.013,1584.387l-.525,4.1s-8.427,1.576-10.98.278l.632-4.266Z" transform="translate(-783.585 -1129.142)" fill="#22243b"/><path d="M1141,1051.756c-.09,2.843-.608,9.012-1.211,15.49-.135,1.439-.276,2.895-.415,4.332-.841,8.718-1.689,16.781-1.689,16.781-1.065,6.939-3.26,18.987-5.714,28.1v0c-.709,2.629-1.437,5.012-2.167,6.958a17.181,17.181,0,0,1-2.117,4.259c-5.222,6.671-17.2,65.81-17.2,65.81l-16.344-.125s3.594-40.046,7.208-50.2c4.03-11.337,11.033-26.615,9.295-37.549-1.088-6.862-2.492-28.7-2.492-28.7s-1.366-24.542,5.053-42.516c1.6-4.492,27.79,17.36,27.79,17.36" transform="translate(-779.761 -736.747)" fill="#292c47"/><path d="M1266.241,1601.828s6.258,3.8,9.095,5.221,13.921,1.949,15,3,.642,4.364-1.2,4.68-15.333,1.373-19.818.268-12.915.563-14.77-.092-.533-10.681.214-12.926,11.475-.155,11.475-.155" transform="translate(-893.407 -1140.941)" fill="#181929"/><path d="M1270.909,1589.723l-.574,4.1s-8.445,1.474-10.983.146l.684-4.258Z" transform="translate(-897.501 -1132.936)" fill="#22243b"/><path d="M1190.635,1139.873c-.426-13.08-1.581-21.77-4.946-29.326-2.827-6.345-5.245-26.274-5.245-26.274s-7.66-23.352-6.108-42.377c.389-4.751,30,7.193,30,7.193a175.135,175.135,0,0,1,3.331,17.953c4.009,36.941,2.509,61.007,2.509,61.007-2.29,8.157,3.5,72.335,3.5,72.335H1197s-4.37-22.831-4.829-37.03c0,0-1.7-21.221-1.539-23.482" transform="translate(-836.763 -741.73)" fill="#292c47"/><path d="M1167.758,788.694s7.765,12.73,10.035,19.833.441,27.756.842,31.906c1.243,12.878,3.056,27.057,3.056,27.057l-26.029,16.626a257.419,257.419,0,0,1-8.746-24.5c-4.074-13.588-4.4-25.822-4.364-34,.12-25.641,13.979-40.12,13.979-40.12Z" transform="translate(-814.259 -559.8)" fill="#cfbeb6"/><path d="M1199.2,665.427s5.337,5.712,3.83,7.214c-1.245,1.241,3.661,6.934,4.359,7.891s-2.179,2.541-2.653,3.4-.195,9.818-2.665,10.739-14.945-.053-18.907-2.472-10.354-16.366-9.9-23.078,16.545-13.655,25.932-3.693" transform="translate(-836.136 -470.676)" fill="#eea886"/><path d="M1210.682,716.777s-.091.761-.213,1.941c-.046.5-.107,1.058-.16,1.675-.03.365-.061.753-.1,1.149-.007.106-.023.213-.03.32-.015.182-.031.365-.046.556-.061.86-.122,1.751-.167,2.634a27.751,27.751,0,0,0,.114,5.664c.655,3.319-13.642-10.688-13.642-10.688a163.657,163.657,0,0,0,.624-23.074c-.594-12.211,13.619,19.824,13.619,19.824" transform="translate(-852.664 -494.718)" fill="#eea886"/><path d="M1194.651,654.293s2.524-5.956-5.262-10.091c-9.167-4.868-18.886,7.354-20.175,8.074s-7.151,7.315-1.415,16.058c7.237,11.032,6.855,10.662,6.855,10.662s.726-8.138.678-9.708c-.087-2.87,7.442-3.211,7.442-3.211s-3.092-4.115.345-5.961,7.457-6.225,11.532-5.823" transform="translate(-830.49 -458.288)" fill="#3a3f47"/><path d="M1198.106,713.612c-.548-.77-2.559-4.17-5.146-1.184s4.349,8.568,4.923,8.513,4.835-.849.223-7.329" transform="translate(-849.775 -506.865)" fill="#eea886"/><path d="M1185.47,1072.579s-1.295-6.089-1.545-7l-38.066,6.334.39,4.921s27.427-1.642,39.222-4.255" transform="translate(-816.617 -759.404)" fill="#23263d"/><path d="M1125.769,996.573s5.848,25.255-3.311,54.717c-1.118,3.6,25.351-.56,25.351-.56Z" transform="translate(-799.916 -710.226)" fill="#faa146"/><path d="M1163.784,898.458s-18.8,4.126-24.082,2.261c0,0-7.684-27.952-10.364-56.324q-.311-3.29-.525-6.567v0c-1.5-23.081,4.379-46.5,17.765-52.32.377.255,19.23,16.877,18.872,32.091q-.039,1.544-.047,3.1c-.012,1.87,0,3.745.042,5.616l0,0c.12,5.787.478,11.561.99,17.167.051.584.108,1.169.165,1.748q.138,1.413.287,2.808.2,1.859.42,3.684a125.56,125.56,0,0,1-3.524,46.743" transform="translate(-804.307 -559.803)" fill="#faa146"/><path d="M1248.4,834.63a209.116,209.116,0,0,1,4.892,31.664c1.13,14.761,2.638,25.2,2.638,25.2l2.26,7.307.929-7.047s-.829-19.05-1.935-26.8c-1.115-7.813-1.6-17.733-7.847-30.6Z" transform="translate(-889.695 -594.618)" fill="#d44040"/><path d="M1245.564,824.3a2.093,2.093,0,0,0,1.031.5c.6.09,1.468-.876-1.619-4.952Z" transform="translate(-887.255 -584.278)" fill="#d44040"/><path d="M1192.878,778.166s8.754,8.245,13.964,10.064l.994,7.9-16.627-15.855Z" transform="translate(-848.937 -554.574)" fill="#eddad3"/><path d="M1181.216,810.572c-3.45-1.227-17.793-8.188-13.978-16.315s13.648-3.8,21.048-.5c7.745,3.46,26.026,14.089,27.473,13.1s7.77-10.04,8.913-12.056,8.045-14.906,8.7-15.878c.635-.95,10.662,7.471,10.662,7.471s-18,31.973-22.848,37.064-39.966-12.886-39.966-12.886" transform="translate(-831.398 -555.061)" fill="#faa146"/><path d="M1206.263,1254.406v0c-.709,2.629-1.437,5.012-2.167,6.958l0,0-5.7-34.005c1.442,3.225,7.87,27.047,7.87,27.047" transform="translate(-854.057 -874.7)" fill="#181929"/><path d="M1215.955,894.1l-16.5-13.474c4.369,2.342,15.108,7.246,16.453,7.858-.012,1.87,0,3.745.042,5.615" transform="translate(-854.817 -627.591)" fill="#8f5c28"/><path d="M1219.948,774.225c-.046.5-.107,1.058-.16,1.675-.03.365-.06.753-.1,1.149-5.466-.366-9.691-4.72-9.95-4.986,2.223,1.766,10.209,2.162,10.209,2.162" transform="translate(-862.143 -550.224)" fill="#a77860"/><g transform="translate(536.885 89.392)" opacity="0.95"><g clip-path="url(#aj)"><g transform="translate(32.489 3.799)"><g clip-path="url(#ak)"><rect width="11.312" height="5.498" transform="translate(0)" fill="url(#al)"/></g></g><g transform="translate(28.437 3.799)"><g clip-path="url(#am)"><rect width="4.714" height="5.498" fill="url(#an)"/></g></g><g transform="translate(0.001 0)"><g clip-path="url(#ao)"><rect width="36.234" height="2.749" transform="translate(0 0)" fill="url(#ap)"/></g></g></g></g></g></g><g transform="translate(335.658 0)"><g clip-path="url(#aq)"><rect width="14.861" height="4.479" transform="translate(0 0)" fill="url(#ar)"/></g></g><g transform="translate(335.658 10.739)"><g clip-path="url(#as)"><rect width="14.861" height="4.479" transform="translate(0)" fill="url(#at)"/></g></g><g transform="translate(335.658 21.478)"><g clip-path="url(#au)"><rect width="14.861" height="4.479" transform="translate(0 0)" fill="url(#av)"/></g></g><g transform="translate(356.655 0)"><g clip-path="url(#aw)"><rect width="4.229" height="4.479" transform="translate(0 0)" fill="url(#ax)"/></g></g><g transform="translate(356.655 10.739)"><g clip-path="url(#ay)"><rect width="4.229" height="4.479" transform="translate(0 0)" fill="url(#az)"/></g></g><g transform="translate(356.655 21.478)"><g clip-path="url(#ba)"><rect width="4.229" height="4.479" transform="translate(0)" fill="url(#bb)"/></g></g><g transform="translate(288.575 248.572)"><g clip-path="url(#bc)"><rect width="20.305" height="9.869" transform="translate(0 0)" fill="url(#bd)"/></g></g><g transform="translate(281.301 248.572)"><g clip-path="url(#be)"><rect width="8.462" height="9.869" transform="translate(0 0)" fill="url(#bf)"/></g></g></g></svg>