<svg id="Group_13168" data-name="Group 13168" xmlns="http://www.w3.org/2000/svg" xmlns:xlink="http://www.w3.org/1999/xlink" width="721.91" height="470.899" viewBox="0 0 721.91 470.899">
  <defs>
    <clipPath id="clip-path">
      <rect id="Rectangle_2038" data-name="Rectangle 2038" width="721.91" height="470.899" fill="none"/>
    </clipPath>
    <clipPath id="clip-path-5">
      <rect id="Rectangle_2012" data-name="Rectangle 2012" width="101.555" height="13.79" fill="none"/>
    </clipPath>
    <clipPath id="clip-path-7">
      <rect id="Rectangle_2022" data-name="Rectangle 2022" width="70.699" height="31.771" fill="none"/>
    </clipPath>
    <clipPath id="clip-path-12">
      <rect id="Rectangle_2033" data-name="Rectangle 2033" width="58.863" height="54.02" fill="none"/>
    </clipPath>
    <clipPath id="clip-path-13">
      <rect id="Rectangle_2035" data-name="Rectangle 2035" width="3.497" height="3.099" fill="none"/>
    </clipPath>
    <clipPath id="clip-path-14">
      <rect id="Rectangle_2036" data-name="Rectangle 2036" width="2.808" height="3.087" fill="none"/>
    </clipPath>
  </defs>
  <g id="Group_13167" data-name="Group 13167" clip-path="url(#clip-path)">
    <g id="Group_13137" data-name="Group 13137">
      <g id="Group_13136" data-name="Group 13136" clip-path="url(#clip-path)">
        <path id="Path_20135" data-name="Path 20135" d="M604.262,187.852a32.261,32.261,0,0,1-33.934-.417,32.266,32.266,0,1,1,33.934.417" transform="translate(62.808 14.468)" fill="#ebebeb"/>
        <path id="Path_20136" data-name="Path 20136" d="M595.2,154.725a9.819,9.819,0,1,1-9.7-9.936,9.819,9.819,0,0,1,9.7,9.936" transform="translate(65.094 16.375)" fill="#fff"/>
        <path id="Path_20137" data-name="Path 20137" d="M602.789,179.869l-.048,4.051a32.262,32.262,0,0,1-33.935-.417l.048-4.036a16.969,16.969,0,0,1,33.935.4" transform="translate(64.33 18.401)" fill="#fff"/>
        <path id="Path_20138" data-name="Path 20138" d="M67.252,103.848a20.813,20.813,0,0,1-6.125,2.479,21.136,21.136,0,1,1,6.125-2.479" transform="translate(3.983 7.306)" fill="#ebebeb"/>
        <path id="Path_20139" data-name="Path 20139" d="M61.315,82.149a6.432,6.432,0,1,1-6.355-6.508,6.433,6.433,0,0,1,6.355,6.508" transform="translate(5.48 8.555)" fill="#fff"/>
        <path id="Path_20140" data-name="Path 20140" d="M66.288,98.62l-.031,2.654A21.139,21.139,0,0,1,44.029,101l.031-2.644a11.115,11.115,0,0,1,22.227.264" transform="translate(4.98 9.882)" fill="#fff"/>
        <rect id="Rectangle_1930" data-name="Rectangle 1930" width="139.848" height="95.325" transform="translate(94.279 16.925)" fill="none" stroke="#ebebeb" stroke-width="1"/>
        <path id="Path_20141" data-name="Path 20141" d="M94.671,20.572a2.806,2.806,0,1,1-2.806-2.806,2.806,2.806,0,0,1,2.806,2.806" transform="translate(10.072 2.009)" fill="#a6a6a6"/>
        <path id="Path_20142" data-name="Path 20142" d="M104.964,20.572a2.806,2.806,0,1,1-2.806-2.806,2.806,2.806,0,0,1,2.806,2.806" transform="translate(11.237 2.009)" fill="#ebebeb"/>
        <path id="Path_20143" data-name="Path 20143" d="M115.256,20.572a2.806,2.806,0,1,1-2.806-2.806,2.806,2.806,0,0,1,2.806,2.806" transform="translate(12.401 2.009)" fill="#ffc727"/>
        <line id="Line_88" data-name="Line 88" x2="139.848" transform="translate(94.279 28.077)" fill="none" stroke="#ebebeb" stroke-width="1"/>
        <rect id="Rectangle_1931" data-name="Rectangle 1931" width="74.124" height="47.008" transform="matrix(0.991, -0.135, 0.135, 0.991, 35.954, 167.807)" fill="#ebebeb"/>
        <path id="Path_20144" data-name="Path 20144" d="M105.744,141.759c-2.58,3.241-5.232,6.37-7.84,9.569q-3.959,4.715-7.953,9.4-4.171,4.88-8.374,9.688c-.087.1-.163.2-.25.308q-3.717,4.246-7.458,8.494l-.372.4-.455-.289q-4.737-3.092-9.451-6.2c-.11-.062-.221-.138-.333-.215-3.566-2.342-7.124-4.7-10.676-7.106-3.388-2.274-6.783-4.594-10.166-6.916-3.37-2.384-6.762-4.688-10.116-7.12,3.485,2,6.932,4.13,10.394,6.2,3.456,2.113,6.912,4.225,10.352,6.386q5.745,3.575,11.5,7.27c.011,0,.011,0,.024.012q4.3,2.738,8.6,5.508c2.26-2.54,4.529-5.1,6.8-7.609.007-.031.007-.031.018-.032q4.55-5.071,9.129-10.082,4.109-4.481,8.257-8.908c2.792-2.919,5.543-5.893,8.366-8.755" transform="translate(3.653 16.033)" fill="#fff"/>
        <path id="Path_20145" data-name="Path 20145" d="M64.155,169.53c-.03.027-.048.062-.078.089-.341.384-.681.767-1.024,1.14-1.63,1.807-3.313,3.552-5.035,5.259-2.095,2.1-4.255,4.141-6.428,6.168-2.188,1.995-4.389,3.979-6.654,5.906s-4.556,3.824-6.954,5.6c1.961-2.256,4.029-4.392,6.125-6.486s4.265-4.144,6.427-6.169c2.2-2.007,4.4-3.993,6.664-5.918,1.8-1.538,3.639-3.059,5.531-4.507.436-.341.875-.67,1.323-1,.03-.027.071-.055.1-.081" transform="translate(4.296 19.173)" fill="#fff"/>
        <path id="Path_20146" data-name="Path 20146" d="M106.867,183.936c-2.786-1.07-5.512-2.282-8.2-3.533s-5.35-2.573-8-3.908c-2.636-1.37-5.263-2.754-7.844-4.221-2.106-1.185-4.193-2.405-6.236-3.711-.443-.277-.874-.555-1.3-.834-.037-.017-.063-.048-.1-.065a.569.569,0,0,0,.118.04c.523.209,1.033.41,1.545.62,2.211.889,4.377,1.863,6.535,2.862,2.7,1.249,5.351,2.572,7.994,3.92,2.636,1.37,5.263,2.754,7.845,4.221s5.155,2.96,7.649,4.608" transform="translate(8.503 18.962)" fill="#fff"/>
        <rect id="Rectangle_1932" data-name="Rectangle 1932" width="74.467" height="117.422" transform="matrix(0.23, -0.973, 0.973, 0.23, 578.725, 290.559)" fill="#ebebeb"/>
        <path id="Path_20147" data-name="Path 20147" d="M649.6,222.982c-5.661,3.322-11.362,6.435-17.042,9.677-5.69,3.141-11.4,6.279-17.112,9.364q-8.946,4.839-17.9,9.549c-.188.1-.358.212-.545.315q-7.916,4.156-15.865,8.3l-.779.383-.508-.688q-5.238-7.268-10.435-14.554c-.127-.154-.248-.329-.37-.506q-5.9-8.241-11.73-16.586c-3.712-5.293-7.409-10.656-11.086-16.015-3.622-5.444-7.323-10.784-10.895-16.29,4.013,4.944,7.894,10.056,11.833,15.082,3.9,5.091,7.809,10.184,11.663,15.337q6.455,8.557,12.85,17.3c.017,0,.017,0,.029.031q4.793,6.5,9.578,13.044c4.789-2.467,9.6-4.953,14.393-7.37.028-.042.028-.042.045-.039q9.614-4.9,19.24-9.7,8.624-4.284,17.279-8.463c5.791-2.723,11.552-5.551,17.355-8.172" transform="translate(60.544 22.16)" fill="#fff"/>
        <path id="Path_20148" data-name="Path 20148" d="M573.119,240.321c-.061.022-.107.066-.167.088-.722.372-1.445.745-2.163,1.1-3.438,1.741-6.921,3.363-10.439,4.9-4.3,1.918-8.65,3.7-13.015,5.454-4.371,1.7-8.756,3.382-13.2,4.939s-8.914,3.054-13.471,4.313c4.184-2.216,8.458-4.2,12.749-6.1,4.313-1.915,8.667-3.693,13.015-5.454,4.393-1.715,8.777-3.395,13.223-4.952,3.54-1.247,7.12-2.447,10.744-3.51.839-.254,1.674-.491,2.527-.725.061-.022.136-.04.2-.062" transform="translate(58.886 27.18)" fill="#fff"/>
        <path id="Path_20149" data-name="Path 20149" d="M626.643,287.467c-3.51-3.168-6.849-6.514-10.108-9.894-3.276-3.385-6.442-6.852-9.6-10.337-3.116-3.527-6.209-7.069-9.189-10.71-2.437-2.95-4.826-5.944-7.1-9.037-.5-.661-.975-1.319-1.454-1.976-.043-.046-.065-.106-.108-.152a.83.83,0,0,0,.151.127c.653.608,1.293,1.193,1.929,1.8,2.762,2.575,5.409,5.248,8.03,7.953,3.276,3.385,6.443,6.852,9.583,10.35,3.115,3.529,6.209,7.069,9.19,10.71,3,3.629,5.934,7.312,8.682,11.17" transform="translate(66.623 27.749)" fill="#fff"/>
        <rect id="Rectangle_1933" data-name="Rectangle 1933" width="67.461" height="42.783" transform="translate(401.914)" fill="#ebebeb"/>
        <path id="Path_20150" data-name="Path 20150" d="M428.538,0c-2.725,2.606-5.5,5.1-8.247,7.666-2.765,2.509-5.541,5.018-8.327,7.5q-4.361,3.887-8.743,7.707c-.091.082-.173.165-.263.248q-3.875,3.371-7.771,6.742l-.385.316-.375-.316q-3.89-3.371-7.76-6.756c-.091-.069-.183-.151-.273-.234-2.929-2.551-5.846-5.116-8.753-7.722-2.776-2.468-5.552-4.977-8.318-7.486C366.578,5.1,363.8,2.606,361.077,0c2.9,2.234,5.744,4.577,8.611,6.866,2.857,2.331,5.714,4.661,8.551,7.031q4.742,3.93,9.472,7.97c.01,0,.01,0,.02.013q3.541,3,7.082,6.025c2.351-2.014,4.711-4.041,7.071-6.025.01-.028.01-.028.02-.028q4.727-4.012,9.472-7.969,4.254-3.536,8.541-7.018c2.876-2.289,5.724-4.632,8.621-6.866" transform="translate(40.837)" fill="#fff"/>
        <path id="Path_20151" data-name="Path 20151" d="M387.8,20.521c-.03.02-.051.051-.081.071-.354.3-.709.608-1.063.9-1.692,1.428-3.425,2.8-5.187,4.123-2.148,1.641-4.347,3.211-6.555,4.772-2.218,1.529-4.448,3.049-6.728,4.508s-4.578,2.887-6.959,4.194c2.046-1.793,4.173-3.465,6.321-5.1s4.357-3.211,6.555-4.772c2.228-1.539,4.457-3.06,6.736-4.518,1.813-1.165,3.658-2.31,5.542-3.384.435-.254.87-.5,1.317-.739.03-.021.071-.041.1-.061" transform="translate(40.853 2.321)" fill="#fff"/>
        <path id="Path_20152" data-name="Path 20152" d="M424.239,39.091c-2.381-1.307-4.691-2.735-6.96-4.194s-4.508-2.979-6.736-4.508c-2.208-1.561-4.407-3.131-6.555-4.772-1.753-1.327-3.485-2.685-5.167-4.113-.365-.3-.719-.608-1.074-.912-.03-.021-.05-.051-.081-.071a.483.483,0,0,0,.1.05c.445.254.88.5,1.317.75,1.884,1.074,3.718,2.218,5.541,3.384,2.28,1.458,4.509,2.979,6.728,4.518,2.208,1.561,4.407,3.131,6.554,4.772s4.285,3.3,6.332,5.1" transform="translate(44.975 2.321)" fill="#fff"/>
      </g>
    </g>
    <g id="Group_13139" data-name="Group 13139">
      <g id="Group_13138" data-name="Group 13138" clip-path="url(#clip-path)">
        <path id="Path_20153" data-name="Path 20153" d="M339.562,411.8c0,7.8-73.414,14.117-163.976,14.117S11.61,419.6,11.61,411.8s73.414-14.117,163.976-14.117,163.976,6.32,163.976,14.117" transform="translate(1.313 44.977)" fill="#ebebeb"/>
      </g>
    </g>
    <path id="Path_20154" data-name="Path 20154" d="M180.478,317.493l-90.239.1L0,317.861l90.239.272,90.239.1,180.478.187,180.478-.186,90.239-.1,90.239-.273-90.239-.272-90.239-.1-180.478-.185Z" transform="translate(0 35.886)" fill="#263238"/>
    <rect id="Rectangle_1936" data-name="Rectangle 1936" width="491.372" height="328.692" transform="translate(114.334 37.92)" fill="#dbdbdb"/>
    <rect id="Rectangle_1937" data-name="Rectangle 1937" width="484.231" height="320.673" transform="translate(117.904 41.929)" fill="#263238"/>
    <rect id="Rectangle_1938" data-name="Rectangle 1938" width="619.369" height="22.559" transform="translate(50.335 391.259)" fill="#c7c7c7"/>
    <path id="Path_20155" data-name="Path 20155" d="M45.221,354.01l64-24.647H600.592l64,24.647Z" transform="translate(5.114 37.25)" fill="#dbdbdb"/>
    <path id="Path_20156" data-name="Path 20156" d="M107.851,345.268l41.3-15.905H546.494l41.3,15.905Z" transform="translate(12.198 37.25)" fill="#263238"/>
    <rect id="Rectangle_1939" data-name="Rectangle 1939" width="429.5" height="271.946" transform="translate(145.27 66.293)" fill="#fff"/>
    <rect id="Rectangle_1940" data-name="Rectangle 1940" width="429.862" height="10.464" transform="translate(144.907 66.293)" fill="#455a64"/>
    <g id="Group_13144" data-name="Group 13144">
      <g id="Group_13143" data-name="Group 13143" clip-path="url(#clip-path)">
        <path id="Path_20157" data-name="Path 20157" d="M138.183,64.522a2.6,2.6,0,1,1-2.595-2.6,2.6,2.6,0,0,1,2.595,2.6" transform="translate(15.041 7.004)" fill="#c7c7c7"/>
        <path id="Path_20158" data-name="Path 20158" d="M147.7,64.522a2.6,2.6,0,1,1-2.6-2.6,2.6,2.6,0,0,1,2.6,2.6" transform="translate(16.118 7.004)" fill="#fff"/>
        <path id="Path_20159" data-name="Path 20159" d="M157.224,64.522a2.6,2.6,0,1,1-2.595-2.6,2.6,2.6,0,0,1,2.595,2.6" transform="translate(17.195 7.004)" fill="#ffc727"/>
        <rect id="Rectangle_1941" data-name="Rectangle 1941" width="7.625" height="261.482" transform="translate(567.145 76.757)" fill="#dbdbdb"/>
        <path id="Path_20160" data-name="Path 20160" d="M513.14,159.455h0a1.969,1.969,0,0,1-1.969-1.969V72.3a1.969,1.969,0,1,1,3.938,0v85.183a1.969,1.969,0,0,1-1.969,1.969" transform="translate(57.812 7.954)" fill="#a6a6a6"/>
        <rect id="Rectangle_1942" data-name="Rectangle 1942" width="231.51" height="8.807" transform="translate(269.047 93.209)" fill="#fff"/>
        <rect id="Rectangle_1943" data-name="Rectangle 1943" width="231.689" height="8.986" transform="translate(268.958 93.118)" fill="#ebebeb"/>
        <rect id="Rectangle_1944" data-name="Rectangle 1944" width="8.99" height="8.99" transform="translate(491.658 93.116)" fill="#ffc727"/>
        <path id="Path_20161" data-name="Path 20161" d="M448.541,90.2l-.814.617-1.507-1.99-.551-.728a1.276,1.276,0,0,0,.316-.178,1.319,1.319,0,0,0,.417-.542l.586.772Z" transform="translate(50.404 9.882)" fill="#fff"/>
        <path id="Path_20162" data-name="Path 20162" d="M447.215,85.79A2.22,2.22,0,1,0,446.5,89.1a2.274,2.274,0,0,0,.308-.2,2.221,2.221,0,0,0,.411-3.113m-.954,2.405a1.327,1.327,0,1,1,.417-.542,1.317,1.317,0,0,1-.417.542" transform="translate(50.128 9.604)" fill="#fff"/>
        <rect id="Rectangle_1945" data-name="Rectangle 1945" width="0.473" height="5.344" transform="translate(270.888 94.939)" fill="#c7c7c7"/>
        <path id="Path_20163" data-name="Path 20163" d="M496.4,92.9a5,5,0,0,1-7.489-3.068A5,5,0,1,1,496.4,92.9" transform="translate(55.278 9.459)" fill="#ffc727"/>
        <path id="Path_20164" data-name="Path 20164" d="M494.939,87.775a1.522,1.522,0,1,1-1.523-1.522,1.522,1.522,0,0,1,1.523,1.522" transform="translate(55.632 9.755)" fill="#fff"/>
        <path id="Path_20165" data-name="Path 20165" d="M496.16,91.659v.628a5,5,0,0,1-5.261,0v-.626a2.63,2.63,0,0,1,5.261,0" transform="translate(55.519 10.069)" fill="#fff"/>
        <path id="Path_20166" data-name="Path 20166" d="M480.765,93.65h-3.477V92.418a.189.189,0,0,0-.107-.166,3.83,3.83,0,0,1-.375-.219.2.2,0,0,0-.2-.01l-1.069.617L473.8,89.629l1.07-.617a.185.185,0,0,0,.087-.177c0-.07,0-.142,0-.216s0-.144,0-.215a.183.183,0,0,0-.088-.177l-1.069-.617,1.739-3.012,1.066.617a.191.191,0,0,0,.2-.01,4.285,4.285,0,0,1,.377-.219.186.186,0,0,0,.1-.165V83.589h3.477v1.232a.185.185,0,0,0,.108.166,4.221,4.221,0,0,1,.377.219.186.186,0,0,0,.2.009l1.068-.617,1.736,3.012-1.071.617a.186.186,0,0,0-.086.178c0,.07,0,.142,0,.214s0,.144,0,.215a.19.19,0,0,0,.086.178l1.071.618-1.736,3.01-1.07-.616a.2.2,0,0,0-.2.009,3.705,3.705,0,0,1-.376.22.186.186,0,0,0-.107.165Zm-2.611-.866H479.9v-.366a1.052,1.052,0,0,1,.579-.937,3.121,3.121,0,0,0,.3-.171,1.053,1.053,0,0,1,1.1-.037l.318.185.87-1.512-.321-.186a1.053,1.053,0,0,1-.518-.971l0-.17,0-.169a1.055,1.055,0,0,1,.519-.973l.319-.185-.87-1.51-.316.184a1.046,1.046,0,0,1-1.1-.035,2.966,2.966,0,0,0-.3-.171,1.054,1.054,0,0,1-.58-.938v-.365h-1.745v.365a1.052,1.052,0,0,1-.577.937,2.9,2.9,0,0,0-.3.171,1.05,1.05,0,0,1-1.105.036l-.316-.184-.873,1.51.318.184a1.052,1.052,0,0,1,.521.974l-.006.169.006.171a1.054,1.054,0,0,1-.52.973l-.319.184.873,1.51.318-.185a1.054,1.054,0,0,1,1.1.036,3.163,3.163,0,0,0,.3.173,1.051,1.051,0,0,1,.579.937Zm.873-1.594a2.571,2.571,0,1,1,2.572-2.571,2.574,2.574,0,0,1-2.572,2.571m0-4.277a1.705,1.705,0,1,0,1.706,1.705,1.707,1.707,0,0,0-1.706-1.705" transform="translate(53.585 9.454)" fill="#dbdbdb"/>
        <rect id="Rectangle_1946" data-name="Rectangle 1946" width="320.683" height="18.176" transform="translate(246.462 138.319)" fill="#ebebeb"/>
        <rect id="Rectangle_1947" data-name="Rectangle 1947" width="5.46" height="5.46" transform="translate(260.688 144.677)" fill="#fff"/>
        <path id="Path_20167" data-name="Path 20167" d="M260.5,135.437h-5.46l2.226-2.73-2.226-2.729h5.46l2.226,2.729Z" transform="translate(28.844 14.7)" fill="#fff"/>
        <path id="Path_20168" data-name="Path 20168" d="M247.63,129.977l.887,1.8,1.984.288-1.436,1.4.34,1.976-1.774-.933-1.774.933.34-1.976-1.436-1.4,1.984-.288Z" transform="translate(27.681 14.7)" fill="#ffc727"/>
        <rect id="Rectangle_1948" data-name="Rectangle 1948" width="43.492" height="2.221" transform="translate(295.483 146.298)" fill="#263238"/>
        <rect id="Rectangle_1949" data-name="Rectangle 1949" width="39.483" height="2.221" transform="translate(503.815 146.298)" fill="#263238"/>
        <rect id="Rectangle_1950" data-name="Rectangle 1950" width="134.973" height="2.221" transform="translate(352.253 146.298)" fill="#455a64"/>
        <rect id="Rectangle_1951" data-name="Rectangle 1951" width="5.46" height="5.46" transform="translate(260.688 162.853)" fill="#fff"/>
        <rect id="Rectangle_1952" data-name="Rectangle 1952" width="5.46" height="5.46" transform="translate(260.688 162.853)" fill="none" stroke="#ebebeb" stroke-width="0.5"/>
        <path id="Path_20169" data-name="Path 20169" d="M260.5,151.766h-5.46l2.226-2.729-2.226-2.73h5.46l2.226,2.73Z" transform="translate(28.844 16.547)" fill="#fff"/>
        <path id="Path_20170" data-name="Path 20170" d="M260.5,151.766h-5.46l2.226-2.729-2.226-2.73h5.46l2.226,2.73Z" transform="translate(28.844 16.547)" fill="none" stroke="#ebebeb" stroke-width="0.5"/>
        <path id="Path_20171" data-name="Path 20171" d="M247.63,146.306l.887,1.8,1.984.288-1.436,1.4.34,1.976-1.774-.933-1.774.933.34-1.976-1.436-1.4,1.984-.288Z" transform="translate(27.681 16.547)" fill="#ffc727"/>
        <rect id="Rectangle_1953" data-name="Rectangle 1953" width="43.492" height="2.221" transform="translate(295.483 164.472)" fill="#263238"/>
        <rect id="Rectangle_1954" data-name="Rectangle 1954" width="39.483" height="2.221" transform="translate(503.815 164.472)" fill="#263238"/>
        <rect id="Rectangle_1955" data-name="Rectangle 1955" width="134.973" height="2.221" transform="translate(352.253 164.472)" fill="#455a64"/>
        <rect id="Rectangle_1956" data-name="Rectangle 1956" width="320.683" height="18.176" transform="translate(246.462 174.669)" fill="#ebebeb"/>
        <rect id="Rectangle_1957" data-name="Rectangle 1957" width="5.46" height="5.46" transform="translate(260.688 181.029)" fill="#fff"/>
        <path id="Path_20172" data-name="Path 20172" d="M260.5,168.094h-5.46l2.226-2.73-2.226-2.729h5.46l2.226,2.729Z" transform="translate(28.844 18.393)" fill="#fff"/>
        <path id="Path_20173" data-name="Path 20173" d="M247.63,162.635l.887,1.8,1.984.288-1.436,1.4.34,1.976-1.774-.933-1.774.933.34-1.976-1.436-1.4,1.984-.288Z" transform="translate(27.681 18.393)" fill="#fff"/>
        <rect id="Rectangle_1958" data-name="Rectangle 1958" width="43.492" height="2.221" transform="translate(295.483 182.648)" fill="#dbdbdb"/>
        <rect id="Rectangle_1959" data-name="Rectangle 1959" width="39.483" height="2.221" transform="translate(503.815 182.648)" fill="#dbdbdb"/>
        <rect id="Rectangle_1960" data-name="Rectangle 1960" width="134.973" height="2.221" transform="translate(352.253 182.648)" fill="#c7c7c7"/>
        <rect id="Rectangle_1961" data-name="Rectangle 1961" width="5.46" height="5.46" transform="translate(260.688 199.203)" fill="#fff"/>
        <rect id="Rectangle_1962" data-name="Rectangle 1962" width="5.46" height="5.46" transform="translate(260.688 199.203)" fill="none" stroke="#ebebeb" stroke-width="0.5"/>
        <path id="Path_20174" data-name="Path 20174" d="M260.5,184.423h-5.46l2.226-2.729-2.226-2.73h5.46l2.226,2.73Z" transform="translate(28.844 20.24)" fill="#fff"/>
        <path id="Path_20175" data-name="Path 20175" d="M260.5,184.423h-5.46l2.226-2.729-2.226-2.73h5.46l2.226,2.73Z" transform="translate(28.844 20.24)" fill="none" stroke="#ebebeb" stroke-width="0.5"/>
        <path id="Path_20176" data-name="Path 20176" d="M247.63,178.963l.887,1.8,1.984.288-1.436,1.4.34,1.976-1.774-.933-1.774.933.34-1.976-1.436-1.4,1.984-.288Z" transform="translate(27.681 20.24)" fill="#ffc727"/>
        <rect id="Rectangle_1963" data-name="Rectangle 1963" width="43.492" height="2.221" transform="translate(295.483 200.823)" fill="#dbdbdb"/>
        <rect id="Rectangle_1964" data-name="Rectangle 1964" width="39.483" height="2.221" transform="translate(503.815 200.823)" fill="#dbdbdb"/>
        <rect id="Rectangle_1965" data-name="Rectangle 1965" width="134.973" height="2.221" transform="translate(352.253 200.823)" fill="#c7c7c7"/>
        <rect id="Rectangle_1966" data-name="Rectangle 1966" width="320.683" height="18.176" transform="translate(246.462 211.021)" fill="#ebebeb"/>
        <rect id="Rectangle_1967" data-name="Rectangle 1967" width="5.46" height="5.46" transform="translate(260.688 217.379)" fill="#fff"/>
        <path id="Path_20177" data-name="Path 20177" d="M260.5,200.752h-5.46l2.226-2.729-2.226-2.73h5.46l2.226,2.73Z" transform="translate(28.844 22.087)" fill="#fff"/>
        <path id="Path_20178" data-name="Path 20178" d="M247.63,195.292l.887,1.8,1.984.288-1.436,1.4.34,1.976-1.774-.933-1.774.933.34-1.976-1.436-1.4,1.984-.288Z" transform="translate(27.681 22.087)" fill="#ffc727"/>
        <rect id="Rectangle_1968" data-name="Rectangle 1968" width="43.492" height="2.221" transform="translate(295.483 218.998)" fill="#dbdbdb"/>
        <rect id="Rectangle_1969" data-name="Rectangle 1969" width="39.483" height="2.221" transform="translate(503.815 218.998)" fill="#dbdbdb"/>
        <rect id="Rectangle_1970" data-name="Rectangle 1970" width="134.973" height="2.221" transform="translate(352.253 218.998)" fill="#c7c7c7"/>
        <rect id="Rectangle_1971" data-name="Rectangle 1971" width="5.46" height="5.46" transform="translate(260.688 235.554)" fill="#fff"/>
        <rect id="Rectangle_1972" data-name="Rectangle 1972" width="5.46" height="5.46" transform="translate(260.688 235.554)" fill="none" stroke="#ebebeb" stroke-width="0.5"/>
        <path id="Path_20179" data-name="Path 20179" d="M260.5,217.08h-5.46l2.226-2.729-2.226-2.73h5.46l2.226,2.73Z" transform="translate(28.844 23.934)" fill="#fff"/>
        <path id="Path_20180" data-name="Path 20180" d="M260.5,217.08h-5.46l2.226-2.729-2.226-2.73h5.46l2.226,2.73Z" transform="translate(28.844 23.934)" fill="none" stroke="#ebebeb" stroke-width="0.5"/>
        <path id="Path_20181" data-name="Path 20181" d="M247.63,211.62l.887,1.8,1.984.288-1.436,1.4.34,1.976-1.774-.933-1.774.933.34-1.976-1.436-1.4,1.984-.288Z" transform="translate(27.681 23.934)" fill="#fff"/>
        <path id="Path_20182" data-name="Path 20182" d="M247.63,211.62l.887,1.8,1.984.288-1.436,1.4.34,1.976-1.774-.933-1.774.933.34-1.976-1.436-1.4,1.984-.288Z" transform="translate(27.681 23.934)" fill="none" stroke="#ebebeb" stroke-width="0.5"/>
        <rect id="Rectangle_1973" data-name="Rectangle 1973" width="43.492" height="2.221" transform="translate(295.483 237.174)" fill="#dbdbdb"/>
        <rect id="Rectangle_1974" data-name="Rectangle 1974" width="39.483" height="2.221" transform="translate(503.815 237.174)" fill="#dbdbdb"/>
        <rect id="Rectangle_1975" data-name="Rectangle 1975" width="134.973" height="2.221" transform="translate(352.253 237.174)" fill="#c7c7c7"/>
        <rect id="Rectangle_1976" data-name="Rectangle 1976" width="320.683" height="18.176" transform="translate(246.462 247.371)" fill="#ebebeb"/>
        <rect id="Rectangle_1977" data-name="Rectangle 1977" width="5.46" height="5.46" transform="translate(260.688 253.729)" fill="#fff"/>
        <path id="Path_20183" data-name="Path 20183" d="M260.5,233.409h-5.46l2.226-2.729-2.226-2.73h5.46l2.226,2.73Z" transform="translate(28.844 25.78)" fill="#fff"/>
        <path id="Path_20184" data-name="Path 20184" d="M247.63,227.949l.887,1.8,1.984.288-1.436,1.4.34,1.976-1.774-.933-1.774.933.34-1.976-1.436-1.4,1.984-.288Z" transform="translate(27.681 25.78)" fill="#ffc727"/>
        <rect id="Rectangle_1978" data-name="Rectangle 1978" width="43.492" height="2.221" transform="translate(295.483 255.349)" fill="#dbdbdb"/>
        <rect id="Rectangle_1979" data-name="Rectangle 1979" width="39.483" height="2.221" transform="translate(503.815 255.349)" fill="#dbdbdb"/>
        <rect id="Rectangle_1980" data-name="Rectangle 1980" width="134.973" height="2.221" transform="translate(352.253 255.349)" fill="#c7c7c7"/>
        <rect id="Rectangle_1981" data-name="Rectangle 1981" width="5.46" height="5.46" transform="translate(260.688 271.905)" fill="#fff"/>
        <rect id="Rectangle_1982" data-name="Rectangle 1982" width="5.46" height="5.46" transform="translate(260.688 271.905)" fill="none" stroke="#ebebeb" stroke-width="0.5"/>
        <path id="Path_20185" data-name="Path 20185" d="M260.5,249.737h-5.46l2.226-2.729-2.226-2.73h5.46l2.226,2.73Z" transform="translate(28.844 27.627)" fill="#fff"/>
        <path id="Path_20186" data-name="Path 20186" d="M260.5,249.737h-5.46l2.226-2.729-2.226-2.73h5.46l2.226,2.73Z" transform="translate(28.844 27.627)" fill="none" stroke="#ebebeb" stroke-width="0.5"/>
        <path id="Path_20187" data-name="Path 20187" d="M247.63,244.278l.887,1.8,1.984.288-1.436,1.4.34,1.976-1.774-.933-1.774.933.34-1.976-1.436-1.4,1.984-.288Z" transform="translate(27.681 27.627)" fill="#fff"/>
        <path id="Path_20188" data-name="Path 20188" d="M247.63,244.278l.887,1.8,1.984.288-1.436,1.4.34,1.976-1.774-.933-1.774.933.34-1.976-1.436-1.4,1.984-.288Z" transform="translate(27.681 27.627)" fill="none" stroke="#ebebeb" stroke-width="0.5"/>
        <rect id="Rectangle_1983" data-name="Rectangle 1983" width="43.492" height="2.221" transform="translate(295.483 273.525)" fill="#dbdbdb"/>
        <rect id="Rectangle_1984" data-name="Rectangle 1984" width="39.483" height="2.221" transform="translate(503.815 273.525)" fill="#dbdbdb"/>
        <rect id="Rectangle_1985" data-name="Rectangle 1985" width="134.973" height="2.221" transform="translate(352.253 273.525)" fill="#c7c7c7"/>
        <rect id="Rectangle_1986" data-name="Rectangle 1986" width="320.683" height="18.176" transform="translate(246.462 283.722)" fill="#ebebeb"/>
        <rect id="Rectangle_1987" data-name="Rectangle 1987" width="5.46" height="5.46" transform="translate(260.688 290.08)" fill="#fff"/>
        <path id="Path_20189" data-name="Path 20189" d="M260.5,266.066h-5.46l2.226-2.729-2.226-2.73h5.46l2.226,2.73Z" transform="translate(28.844 29.474)" fill="#fff"/>
        <path id="Path_20190" data-name="Path 20190" d="M247.63,260.606l.887,1.8,1.984.288-1.436,1.4.34,1.976-1.774-.933-1.774.933.34-1.976-1.436-1.4,1.984-.288Z" transform="translate(27.681 29.474)" fill="#fff"/>
        <rect id="Rectangle_1988" data-name="Rectangle 1988" width="43.492" height="2.221" transform="translate(295.483 291.699)" fill="#dbdbdb"/>
        <rect id="Rectangle_1989" data-name="Rectangle 1989" width="39.483" height="2.221" transform="translate(503.815 291.699)" fill="#dbdbdb"/>
        <rect id="Rectangle_1990" data-name="Rectangle 1990" width="134.973" height="2.221" transform="translate(352.253 291.699)" fill="#c7c7c7"/>
        <rect id="Rectangle_1991" data-name="Rectangle 1991" width="5.46" height="5.46" transform="translate(260.688 308.255)" fill="#fff"/>
        <rect id="Rectangle_1992" data-name="Rectangle 1992" width="5.46" height="5.46" transform="translate(260.688 308.255)" fill="none" stroke="#ebebeb" stroke-width="0.5"/>
        <path id="Path_20191" data-name="Path 20191" d="M260.5,282.395h-5.46l2.226-2.729-2.226-2.73h5.46l2.226,2.73Z" transform="translate(28.844 31.32)" fill="#fff"/>
        <path id="Path_20192" data-name="Path 20192" d="M260.5,282.395h-5.46l2.226-2.729-2.226-2.73h5.46l2.226,2.73Z" transform="translate(28.844 31.32)" fill="none" stroke="#ebebeb" stroke-width="0.5"/>
        <path id="Path_20193" data-name="Path 20193" d="M247.63,276.935l.887,1.8,1.984.288-1.436,1.4.34,1.976-1.774-.933-1.774.933.34-1.976-1.436-1.4,1.984-.288Z" transform="translate(27.681 31.32)" fill="#fff"/>
        <path id="Path_20194" data-name="Path 20194" d="M247.63,276.935l.887,1.8,1.984.288-1.436,1.4.34,1.976-1.774-.933-1.774.933.34-1.976-1.436-1.4,1.984-.288Z" transform="translate(27.681 31.32)" fill="none" stroke="#ebebeb" stroke-width="0.5"/>
        <rect id="Rectangle_1993" data-name="Rectangle 1993" width="43.492" height="2.221" transform="translate(295.483 309.875)" fill="#dbdbdb"/>
        <rect id="Rectangle_1994" data-name="Rectangle 1994" width="39.483" height="2.221" transform="translate(503.815 309.875)" fill="#dbdbdb"/>
        <rect id="Rectangle_1995" data-name="Rectangle 1995" width="134.973" height="2.221" transform="translate(352.253 309.875)" fill="#c7c7c7"/>
        <rect id="Rectangle_1996" data-name="Rectangle 1996" width="320.683" height="18.176" transform="translate(246.462 320.072)" fill="#ebebeb"/>
        <rect id="Rectangle_1997" data-name="Rectangle 1997" width="5.46" height="5.46" transform="translate(260.688 326.43)" fill="#fff"/>
        <path id="Path_20195" data-name="Path 20195" d="M260.5,298.723h-5.46l2.226-2.729-2.226-2.73h5.46l2.226,2.73Z" transform="translate(28.844 33.167)" fill="#fff"/>
        <path id="Path_20196" data-name="Path 20196" d="M247.63,293.263l.887,1.8,1.984.288-1.436,1.4.34,1.976-1.774-.933-1.774.933.34-1.976-1.436-1.4,1.984-.288Z" transform="translate(27.681 33.167)" fill="#ffc727"/>
        <rect id="Rectangle_1998" data-name="Rectangle 1998" width="43.492" height="2.221" transform="translate(295.483 328.051)" fill="#dbdbdb"/>
        <rect id="Rectangle_1999" data-name="Rectangle 1999" width="39.483" height="2.221" transform="translate(503.815 328.051)" fill="#dbdbdb"/>
        <rect id="Rectangle_2000" data-name="Rectangle 2000" width="134.973" height="2.221" transform="translate(352.253 328.051)" fill="#c7c7c7"/>
        <rect id="Rectangle_2001" data-name="Rectangle 2001" width="60.705" height="6.505" transform="translate(278.27 121.923)" fill="#dbdbdb"/>
        <rect id="Rectangle_2002" data-name="Rectangle 2002" width="8.268" height="6.505" transform="translate(260.688 121.923)" fill="#dbdbdb"/>
        <path id="Path_20197" data-name="Path 20197" d="M242.48,109.535c-.334.361-.675.706-1.012,1.06s-.68.693-1.022,1.036q-.536.538-1.073,1.066l-.032.033q-.476.467-.954.933l-.047.043-.046-.043q-.478-.466-.953-.934l-.033-.032q-.539-.529-1.074-1.067-.511-.513-1.021-1.035c-.337-.354-.678-.7-1.012-1.06.355.308.7.632,1.056.949s.7.643,1.05.972q.581.543,1.162,1.1h0q.436.416.869.834c.288-.278.578-.559.868-.834l0,0q.579-.554,1.162-1.1.523-.489,1.049-.97c.353-.317.7-.641,1.057-.949" transform="translate(26.488 12.388)" fill="#fff"/>
        <path id="Path_20198" data-name="Path 20198" d="M237.48,112.241l-.01.013c-.043.057-.087.115-.13.169-.208.269-.421.526-.637.776-.264.309-.533.6-.8.9s-.545.573-.825.848-.562.543-.855.789c.252-.337.513-.652.776-.959s.535-.6.8-.9.547-.575.827-.85c.223-.219.449-.434.68-.637.053-.048.107-.094.161-.139l.012-.011" transform="translate(26.489 12.694)" fill="#fff"/>
        <path id="Path_20199" data-name="Path 20199" d="M241.952,115.734c-.292-.246-.575-.514-.854-.789s-.553-.56-.827-.848-.541-.589-.8-.9c-.216-.25-.429-.505-.634-.774l-.132-.173-.01-.013.013.01c.055.048.108.093.161.141.232.2.456.417.68.637.279.274.553.56.825.849s.541.589.8.9.525.621.777.958" transform="translate(26.995 12.694)" fill="#fff"/>
        <rect id="Rectangle_2003" data-name="Rectangle 2003" width="60.705" height="6.505" transform="translate(380.432 121.923)" fill="#dbdbdb"/>
        <path id="Path_20200" data-name="Path 20200" d="M329.622,111.658a1.377,1.377,0,1,1-1.377-1.377,1.377,1.377,0,0,1,1.377,1.377" transform="translate(36.968 12.472)" fill="#dbdbdb"/>
        <path id="Path_20201" data-name="Path 20201" d="M330.726,115.168v.5h-4.762v-.5a2.381,2.381,0,0,1,4.762,0" transform="translate(36.865 12.757)" fill="#dbdbdb"/>
        <path id="Path_20202" data-name="Path 20202" d="M332.79,110.912a1.377,1.377,0,1,1-1.377-1.377,1.377,1.377,0,0,1,1.377,1.377" transform="translate(37.326 12.388)" fill="#dbdbdb"/>
        <path id="Path_20203" data-name="Path 20203" d="M333.895,114.422v.5h-4.762v-.5a2.381,2.381,0,0,1,4.762,0" transform="translate(37.224 12.672)" fill="#dbdbdb"/>
        <rect id="Rectangle_2004" data-name="Rectangle 2004" width="60.705" height="6.505" transform="translate(482.593 121.923)" fill="#dbdbdb"/>
        <path id="Path_20204" data-name="Path 20204" d="M426.03,109.54h-8.27v6.5h8.27l2.471-3.25Zm.067,3.74a.494.494,0,0,1-.49-.49.487.487,0,0,1,.49-.49.48.48,0,0,1,.49.49.487.487,0,0,1-.49.49" transform="translate(47.247 12.389)" fill="#dbdbdb"/>
        <rect id="Rectangle_2005" data-name="Rectangle 2005" width="101.554" height="261.482" transform="translate(144.906 76.757)" fill="#ffc727"/>
        <rect id="Rectangle_2006" data-name="Rectangle 2006" width="73.163" height="19.399" transform="translate(159.102 115.476)" fill="#fff"/>
        <rect id="Rectangle_2007" data-name="Rectangle 2007" width="10.2" height="1.641" transform="translate(159.103 93.116)" fill="#fff"/>
        <rect id="Rectangle_2008" data-name="Rectangle 2008" width="10.2" height="1.641" transform="translate(159.103 100.466)" fill="#fff"/>
        <rect id="Rectangle_2009" data-name="Rectangle 2009" width="10.2" height="1.641" transform="translate(159.103 96.834)" fill="#fff"/>
        <rect id="Rectangle_2010" data-name="Rectangle 2010" width="14.176" height="8.99" transform="translate(178.988 93.116)" fill="#ebebeb"/>
        <path id="Path_20205" data-name="Path 20205" d="M174.978,83.655v8.99H160.8v-8.99c.609.345,1.207.707,1.81,1.061s1.2.719,1.8,1.085q1,.606,1.99,1.23a.133.133,0,0,0,.021-.012l-.017.014,1.488.931c.494-.311.99-.623,1.486-.931l-.017-.014a.053.053,0,0,0,.021.01c.662-.413,1.323-.824,1.99-1.23q.895-.546,1.794-1.083c.606-.354,1.2-.716,1.812-1.061" transform="translate(18.186 9.461)" fill="#ebebeb"/>
        <path id="Path_20206" data-name="Path 20206" d="M174.978,83.655c-.572.4-1.155.788-1.733,1.183s-1.164.776-1.75,1.159q-.917.6-1.838,1.19l-.055.038-1.633,1.042-.081.049-.079-.049-1.631-1.043q-.028-.017-.057-.037-.923-.591-1.84-1.192c-.583-.381-1.167-.769-1.748-1.157s-1.16-.78-1.733-1.183c.609.345,1.207.707,1.81,1.061s1.2.719,1.8,1.085q1,.606,1.99,1.23l0,0,1.488.931c.494-.311.99-.623,1.486-.931l0,0c.662-.413,1.323-.824,1.99-1.23q.895-.546,1.794-1.083c.606-.354,1.2-.716,1.812-1.061" transform="translate(18.186 9.461)" fill="#fff"/>
        <path id="Path_20207" data-name="Path 20207" d="M166.416,86.677c-.007,0-.011.011-.017.014q-.112.1-.224.19c-.356.3-.72.587-1.09.866-.452.345-.914.675-1.378,1s-.935.641-1.414.947-.962.607-1.463.882c.431-.377.877-.728,1.329-1.071s.915-.676,1.377-1,.937-.643,1.416-.949c.381-.245.768-.485,1.164-.711.091-.053.184-.1.277-.155l.021-.013" transform="translate(18.19 9.803)" fill="#fff"/>
        <path id="Path_20208" data-name="Path 20208" d="M174.074,90.58c-.5-.275-.986-.574-1.463-.882s-.947-.626-1.416-.947-.926-.658-1.377-1c-.368-.278-.732-.564-1.086-.864l-.225-.191c-.007,0-.011-.011-.018-.016l.021.011.277.157c.4.226.781.466,1.164.711.479.307.947.626,1.414.949s.926.658,1.378,1,.9.693,1.33,1.071" transform="translate(19.056 9.803)" fill="#fff"/>
        <g id="Group_13142" data-name="Group 13142" transform="translate(144.906 151.792)" opacity="0.1">
          <g id="Group_13141" data-name="Group 13141">
            <g id="Group_13140" data-name="Group 13140" clip-path="url(#clip-path-5)">
              <rect id="Rectangle_2011" data-name="Rectangle 2011" width="101.554" height="13.79" transform="translate(0 0)" fill="#020100"/>
            </g>
          </g>
        </g>
        <rect id="Rectangle_2013" data-name="Rectangle 2013" width="58.892" height="8.099" transform="translate(159.103 154.754)" fill="#fff"/>
        <rect id="Rectangle_2014" data-name="Rectangle 2014" width="58.892" height="8.099" transform="translate(159.103 170.621)" fill="#fff"/>
        <rect id="Rectangle_2015" data-name="Rectangle 2015" width="58.892" height="8.099" transform="translate(159.103 186.488)" fill="#fff"/>
        <rect id="Rectangle_2016" data-name="Rectangle 2016" width="58.892" height="8.1" transform="translate(159.103 202.354)" fill="#fff"/>
        <rect id="Rectangle_2017" data-name="Rectangle 2017" width="58.892" height="8.1" transform="translate(171.604 218.222)" fill="#455a64"/>
        <rect id="Rectangle_2018" data-name="Rectangle 2018" width="58.892" height="8.099" transform="translate(171.604 234.09)" fill="#455a64"/>
        <rect id="Rectangle_2019" data-name="Rectangle 2019" width="58.892" height="8.1" transform="translate(159.103 249.956)" fill="#fff"/>
        <rect id="Rectangle_2020" data-name="Rectangle 2020" width="58.892" height="8.099" transform="translate(159.103 265.824)" fill="#fff"/>
      </g>
    </g>
    <g id="Group_13149" data-name="Group 13149">
      <g id="Group_13148" data-name="Group 13148" clip-path="url(#clip-path)">
        <path id="Path_20209" data-name="Path 20209" d="M129.929,227.483q0,1.1.092,2.222" transform="translate(14.695 25.728)" fill="none" stroke="#263238" stroke-width="0.75"/>
        <path id="Path_20210" data-name="Path 20210" d="M130.872,245.438c7.331,28,52.052,61.893,101.816,40.336,53.641-23.236,51.643-111.6,120.91-148.921" transform="translate(14.801 15.478)" fill="none" stroke="#263238" stroke-width="0.75" stroke-dasharray="4.007 5.009"/>
        <path id="Path_20211" data-name="Path 20211" d="M333.191,135.79q.988-.5,2-.992" transform="translate(37.683 15.245)" fill="none" stroke="#263238" stroke-width="0.75"/>
        <path id="Path_20212" data-name="Path 20212" d="M331.8,125.217l-6.982,19.176,14.657-11.447,56.042-20.324Z" transform="translate(36.736 12.737)" fill="#ffc727"/>
        <g id="Group_13147" data-name="Group 13147" transform="translate(361.555 125.359)" opacity="0.1">
          <g id="Group_13146" data-name="Group 13146">
            <g id="Group_13145" data-name="Group 13145" clip-path="url(#clip-path-7)">
              <path id="Path_20213" data-name="Path 20213" d="M331.8,125.217l-6.982,19.176,14.657-11.447,56.042-20.324Z" transform="translate(-324.819 -112.622)"/>
            </g>
          </g>
        </g>
        <path id="Path_20214" data-name="Path 20214" d="M341.358,135.349l-16.54,6.979,14.658-11.447Z" transform="translate(36.736 14.802)" fill="#263238"/>
        <path id="Path_20215" data-name="Path 20215" d="M337.987,132.946l56.041-20.324-45.966,44.857Z" transform="translate(38.225 12.737)" fill="#ffc727"/>
        <path id="Path_20216" data-name="Path 20216" d="M333.458,125.465l-23.289-15.037,87.006,2.442Z" transform="translate(35.079 12.489)" fill="#ffc727"/>
      </g>
    </g>
    <g id="Group_13151" data-name="Group 13151">
      <g id="Group_13150" data-name="Group 13150" clip-path="url(#clip-path)">
        <path id="Path_20217" data-name="Path 20217" d="M570.984,73.921a54.3,54.3,0,1,1-54.3-54.3,54.3,54.3,0,0,1,54.3,54.3" transform="translate(52.295 2.22)" fill="#a6a6a6"/>
        <rect id="Rectangle_2024" data-name="Rectangle 2024" width="74.123" height="47.007" transform="translate(531.921 52.636)" fill="#fff"/>
        <path id="Path_20218" data-name="Path 20218" d="M552,47.288c-2.994,2.863-6.044,5.6-9.061,8.423-3.039,2.757-6.089,5.514-9.151,8.24Q529,68.224,524.181,72.42c-.1.091-.189.181-.289.273q-4.258,3.7-8.537,7.408l-.423.348-.412-.348q-4.274-3.7-8.526-7.423c-.1-.076-.2-.166-.3-.257-3.217-2.8-6.424-5.62-9.618-8.483-3.05-2.712-6.1-5.469-9.139-8.226-3.016-2.818-6.066-5.56-9.061-8.423,3.183,2.454,6.311,5.029,9.461,7.543,3.139,2.56,6.278,5.121,9.395,7.726q5.209,4.318,10.409,8.756c.011,0,.011,0,.022.016q3.89,3.294,7.781,6.62c2.582-2.211,5.176-4.438,7.769-6.62.011-.03.011-.03.022-.03q5.193-4.408,10.407-8.756,4.677-3.885,9.384-7.712c3.161-2.514,6.289-5.089,9.472-7.543" transform="translate(54.046 5.348)" fill="#dbdbdb"/>
        <path id="Path_20219" data-name="Path 20219" d="M507.233,69.835c-.033.022-.056.056-.089.078-.39.334-.779.668-1.169.991-1.859,1.569-3.762,3.072-5.7,4.53-2.36,1.8-4.775,3.529-7.2,5.243-2.438,1.681-4.886,3.35-7.392,4.953s-5.031,3.172-7.647,4.609c2.248-1.971,4.586-3.808,6.946-5.6s4.787-3.529,7.2-5.243c2.449-1.692,4.9-3.362,7.4-4.964,1.992-1.28,4.018-2.538,6.089-3.718.479-.278.957-.545,1.447-.813.033-.022.078-.045.111-.067" transform="translate(54.064 7.898)" fill="#dbdbdb"/>
        <path id="Path_20220" data-name="Path 20220" d="M547.274,90.238c-2.616-1.436-5.154-3.005-7.647-4.608s-4.953-3.273-7.4-4.953c-2.428-1.714-4.842-3.439-7.2-5.243-1.926-1.458-3.829-2.951-5.677-4.52-.4-.333-.79-.668-1.18-1-.033-.023-.056-.057-.089-.079a.519.519,0,0,0,.111.056c.49.278.968.547,1.447.825,2.07,1.18,4.085,2.438,6.09,3.718,2.5,1.6,4.953,3.273,7.391,4.964,2.427,1.714,4.842,3.439,7.2,5.243s4.708,3.629,6.957,5.6" transform="translate(58.593 7.898)" fill="#dbdbdb"/>
      </g>
    </g>
    <g id="Group_13153" data-name="Group 13153">
      <g id="Group_13152" data-name="Group 13152" clip-path="url(#clip-path)">
        <path id="Path_20221" data-name="Path 20221" d="M587.4,228.073a84.068,84.068,0,0,1,1.953-13.74c.968-4.067,2.343-8.226,4.909-11.588a14.705,14.705,0,0,1,9.622-6c3.768-.461,7.308,1.219,10.126,3.592,3.493,2.942,6.168,6.837,8.678,10.611a130.279,130.279,0,0,1,7.5,13.12c.076.148-.151.274-.226.125a81.793,81.793,0,0,0-6.7-10.977,69.1,69.1,0,0,0-7.719-9.347c-2.587-2.525-5.874-4.887-9.623-5.006a11.819,11.819,0,0,0-9.416,4.849c-2.511,3.215-3.788,7.227-4.744,11.138a83.223,83.223,0,0,0-1.932,13.081c-.737,9.052-.936,18.156-1.141,27.231q-.175,7.7-.233,15.409-.035,3.905-.063,7.808a47.98,47.98,0,0,1-.3,7.528c-.085.505-.912.456-1-.024a44.729,44.729,0,0,1-.345-7.133q-.05-3.7-.088-7.4-.063-7.193-.053-14.388c.028-9.624.144-19.288.8-28.892" transform="translate(66.342 22.243)" fill="#263238"/>
        <path id="Path_20222" data-name="Path 20222" d="M599.135,221.591c.481-2.559,1.346-5.895,2.8-7.877,2.62-3.563,5.449-2.014,2.834,1.932a23.566,23.566,0,0,0-3.679,9.728s4.4,6.292,9.72,9.39c-.227-2.419-.909-6.14-.437-9.728,1.022-7.773,5.722-7.336,4.56-1.162a53.433,53.433,0,0,0-1.064,12.488,26.39,26.39,0,0,0,5.681,2.783c-.305-.9-.629-1.982-.986-3.293-1.887-6.969,2.759-9.143,2.907-5.223a55,55,0,0,0,1.808,9.887c2.55.856,4.664,1.441,5.956,1.9a21.737,21.737,0,0,1,8.716,5.956,27.429,27.429,0,0,0,5.938-7.686c-1.624-1.4-4.192-3.476-7.755-5.991-6.681-4.716-4.358-10.672.944-6.969,3.825,2.673,6.785,7.624,8.13,10.165a41.327,41.327,0,0,0,3.031-13.911c-5.249-4.925-18.226-11.79-14.314-11.79,3.52,0,11.4,5.161,14.288,7.153a37.343,37.343,0,0,0-.445-4.044c-4.943-3.24-21-8.279-18.444-9.728,2.812-1.59,14.016,3.6,17.4,5.239a20.369,20.369,0,0,0-2.969-6.148c-6.83-9.144-19.145-12.293-24.517-10.551-3.8,1.233-2.691,10.879-3.507,10.551-15.273-6.147-22.218-1.8-16.6,16.934m37.44-1.056c1.083-1.31,6.1,2.541,4.646,4.646s-6.044-2.97-4.646-4.646m-26.191-8.227c1.319.838-.629,5.711-2.664,4.235-1.729-1.258,1.336-5.082,2.664-4.235" transform="translate(67.542 21.901)" fill="#ffc727"/>
        <path id="Path_20223" data-name="Path 20223" d="M611.225,212.635c.69-1.362,1.409-2.718,2.2-4.028a23.443,23.443,0,0,1,2.524-3.66c-.218-.267-.429-.541-.653-.8-.091-.107.066-.258.159-.151.257.292.5.591.748.887a.226.226,0,0,1,.107.126c.944,1.131,1.832,2.3,2.681,3.484a40.643,40.643,0,0,1,4.436,1.285c1.5.5,2.982,1.023,4.438,1.637.152.065.077.315-.075.248-1.443-.639-2.905-1.256-4.4-1.761-1.414-.479-2.852-.846-4.285-1.251.466.658.924,1.321,1.364,2a52.464,52.464,0,0,1,7.843,3.2c2.65,1.259,5.2,2.723,7.74,4.191.144.082.007.306-.136.219a85.48,85.48,0,0,0-7.7-3.985c-2.457-1.15-5-2.094-7.476-3.189,6.237,9.733,9.979,20.965,14.978,31.363.072.151-.162.276-.226.125-1.527-3.647-3.286-7.2-4.948-10.787-1.494-3.22-2.95-6.458-4.445-9.678q-.656-1.414-1.345-2.822c.274,5.2.162,10.488,1.015,15.626a.129.129,0,1,1-.255.028c-.361-5.555-1.34-11.024-1.3-16.611,0-.032.021-.046.03-.071-1.059-2.124-2.185-4.22-3.4-6.259-2.068,4.865-4.24,9.8-5.2,15.029-.029.159-.292.088-.247-.076,1.4-5.237,2.707-10.48,5.229-15.32a59.028,59.028,0,0,0-4.392-6.332c-.692,1.293-1.582,2.516-2.37,3.751-.77,1.208-1.526,2.422-2.237,3.665a52.946,52.946,0,0,0-3.9,8.246c-.057.157-.312.076-.247-.076,1.188-2.769,2.394-5.553,3.757-8.244" transform="translate(68.702 23.067)" fill="#263238"/>
        <path id="Path_20224" data-name="Path 20224" d="M566.677,223.327c4-4.014,8.654-9.282,14.84-9.272,5.97.01,10.364,4.817,12.887,9.775,2.64,5.186,3.588,11.061,4.333,16.771a203.414,203.414,0,0,1,1.583,20.618c.108,3.828.093,7.66,0,11.488a75.9,75.9,0,0,1-.877,11.592c-.111.618-1.1.641-1.14-.027-.18-3.222-.05-6.462-.032-9.687q.025-4.767-.149-9.53c-.236-6.424-.7-12.837-1.458-19.221-.658-5.575-1.181-11.308-2.851-16.7-1.505-4.858-4.326-10.414-9.251-12.548-6.721-2.912-13.286,2.408-17.684,6.9-.116.119-.317-.046-.2-.164" transform="translate(64.085 24.209)" fill="#263238"/>
        <path id="Path_20225" data-name="Path 20225" d="M548.332,233.237v.009c.03.82.078,1.631.132,2.423a14.522,14.522,0,0,1,6.56-2.717c5.68-.6,5.318,3.716,1.524,3.9a21.591,21.591,0,0,0-7.8,1.562c.927,7.5,2.99,13.531,3.3,13.612a109.461,109.461,0,0,0,15.009-1.9c-1.411-3.01-4.627-7.009-2.99-7.333,1.68-.334,3.433,3.238,4.341,7.058a71.673,71.673,0,0,0,10.916-3c-2.5-2.164-6.36-4.855-4.885-6s4.541,2.642,6.378,5.4a21.966,21.966,0,0,0,4.718-2.629c-3.366-4.945-11.572-5.953-10.5-9.527,1.093-3.645,8.748,1.384,12.194,8,4.048-4.2,5.234-10.138,4.807-15.215-3.525-.41-10.31.335-9.819-2.2.462-2.409,5.393-2.049,9.407-.571a14.071,14.071,0,0,0-2.356-5.58c-3.716-4.771-15.055,1.3-15.055,1.3s1.213-11.4-3.112-13.368c-2.493-1.132-6.891-1.123-11.3,1.475,2.476.206,5.468.99,6.669,2.707,1.539,2.191-.887,3.382-2.431,2.372-1.083-.718-3.115-2.973-6.774-3.27a22.465,22.465,0,0,0-4.094,4.531c-.417.589-.808,1.211-1.2,1.884a15.574,15.574,0,0,1,13.275.24c4.917,2.441,2.171,7.547-2.059,5.563-4.185-1.96-8.258-3.934-12.743-2.811a31.741,31.741,0,0,0-2.155,12.71,22.224,22.224,0,0,1,7.282-3.5c4.888-1.282,6.365,1.637,1,2.183a21.482,21.482,0,0,0-8.239,2.693m5.947-7.847c-.338-1.584,3.129-2.038,3.705-.754.481,1.1-3.377,2.339-3.705.754m29.655,8.77c.326-.864,2.646.118,2.435,1.2-.289,1.438-2.753-.332-2.435-1.2m-16.373,5.555c1.69-.676,4.33,3.526,2.488,4.489s-3.869-3.934-2.488-4.489" transform="translate(62.01 23.268)" fill="#ffc727"/>
        <path id="Path_20226" data-name="Path 20226" d="M552.269,249.686c2.547-4.259,5.065-8.541,7.739-12.722q1.868-2.922,3.9-5.728c-.2-.041-.409-.1-.607-.144q-.5-.107-1.014-.195c-.783-.136-1.57-.249-2.361-.329q-1.115-.112-2.237-.125a11.138,11.138,0,0,0-2.39.126c-.1.02-.11-.13-.02-.127.8.032,1.611-.072,2.409-.083.774-.011,1.548.009,2.321.055.726.043,1.448.116,2.167.226q.6.092,1.187.208a7.236,7.236,0,0,1,.716.151q2.07-2.845,4.292-5.578a51.024,51.024,0,0,0-13.944-4.45c-.082-.012-.051-.139.031-.126a47.318,47.318,0,0,1,14.146,4.291q1.22-1.5,2.457-2.985c.922-1.108,1.908-2.191,2.74-3.367.056-.077.167.008.1.076a49.265,49.265,0,0,0-3.232,3.957c.008,0,.016,0,.023,0a49.13,49.13,0,0,1,5.185,4.164q2.541,2.252,4.954,4.651c.059.058-.03.151-.089.094-1.588-1.578-3.235-3.085-4.958-4.517s-3.532-2.743-5.263-4.159c-.009-.008-.007-.018-.013-.027-.4.524-.789,1.046-1.187,1.561-.2.259-.4.522-.6.783a.162.162,0,0,1-.043.056q-.993,1.294-1.977,2.6a20.8,20.8,0,0,1,1.968,3.552c.571,1.2,1.068,2.443,1.525,3.692a54.119,54.119,0,0,1,2.125,7.98c.017.081-.108.119-.124.038a46.8,46.8,0,0,0-2.32-7.824c-.494-1.3-1.059-2.572-1.64-3.838-.529-1.152-1.17-2.258-1.665-3.424-.572.759-1.141,1.522-1.7,2.29-.162.224-.317.452-.479.677.024.05.01.114-.056.117h-.026c-1.751,2.443-3.416,4.944-5.036,7.474a2.285,2.285,0,0,1,.221.554c.1.307.2.617.293.928a18.733,18.733,0,0,1,.444,1.9c.108.6.194,1.205.254,1.813a16.656,16.656,0,0,0,.153,2.061.064.064,0,1,1-.125,0,6.758,6.758,0,0,0-.141-1.923q-.139-.987-.367-1.959c-.137-.585-.295-1.168-.469-1.743-.087-.288-.18-.575-.279-.859-.052-.151-.126-.311-.177-.471q-1.137,1.783-2.248,3.583c-1.467,2.382-2.92,4.771-4.382,7.154-.073.12-.266.017-.193-.106" transform="translate(62.458 24.74)" fill="#263238"/>
        <path id="Path_20227" data-name="Path 20227" d="M587.56,280.147c.066-2.414.449-4.844.709-7.244s.534-4.822.792-7.233c.5-4.648.773-9.4,1.866-13.957a20.291,20.291,0,0,1,5.678-10.438,9.267,9.267,0,0,1,5.568-2.658,9.594,9.594,0,0,1,5.913,1.823,20.6,20.6,0,0,1,4.972,5.239,51.125,51.125,0,0,1,3.877,6.3c.043.083-.087.135-.133.057a32.2,32.2,0,0,0-8.387-9.4,9.894,9.894,0,0,0-5.288-2.2A7.167,7.167,0,0,0,598,242.475c-2.815,2.445-4.443,6.045-5.414,9.579a97.188,97.188,0,0,0-2.1,12.893c-.342,2.553-.667,5.109-1,7.663s-.548,5.146-1.087,7.651a.424.424,0,0,1-.839-.115" transform="translate(66.451 26.985)" fill="#263238"/>
        <path id="Path_20228" data-name="Path 20228" d="M598.539,261.521a13.491,13.491,0,0,0,2.626,2.68c-.4-2.355-.877-6.541.312-8.768,1.847-3.461,4.033-1.734,2.932,1.273a24.432,24.432,0,0,0-1.778,8.529,37.083,37.083,0,0,0,8.018,3.783,13.484,13.484,0,0,1-.264-4.127c.368-3.7,3.2-3.63,2.466.218a23.592,23.592,0,0,0-.388,4.519,83.345,83.345,0,0,0,12.5,2.818,36.54,36.54,0,0,0,5.171-9.206c-3.011-.755-9.107-.926-8.977-3.078.174-2.9,6.079-.666,9.534,1.434a23.084,23.084,0,0,0,1.043-7.789,38.771,38.771,0,0,0-8.3-1.376c-6.2-.535-5.895-4.051-1.4-3.97,3.315.061,7.508,2.09,9.495,3.146-1.294-8.433-7.726-13.838-12.884-14.044-8.671-.351-5.551,10.442-5.551,10.442s-5.875-4.135-11.42-4.026-9.051,9.293-3.122,17.542m23.16-15.6c-.193-1.213,3.677-1.5,3.878.052.231,1.749-3.681,1.183-3.878-.052m6.227,12.659c-.08-.794,1.591-.932,1.968.068.254.65-1.9.716-1.968-.068m-20.822.739c1.308.184,2.05,4.858-.2,4.765-1.716-.072-.908-4.923.2-4.765" transform="translate(67.345 26.867)" fill="#ffc727"/>
        <path id="Path_20229" data-name="Path 20229" d="M607.546,261.949c.216-.582.409-1.172.592-1.766-.169.6-.32,1.2-.431,1.811a.084.084,0,1,1-.161-.045" transform="translate(68.711 29.426)" fill="#263238"/>
        <path id="Path_20230" data-name="Path 20230" d="M609.762,255.893c.406-1.2.863-2.381,1.328-3.557.248-.628.506-1.251.781-1.868a7.6,7.6,0,0,1,.772-1.564,12.02,12.02,0,0,1-.7-1.514.047.047,0,0,1,.079-.047,18.269,18.269,0,0,1,1.69,2.62c.24.409.47.825.706,1.237a12.193,12.193,0,0,1,1.459.227q.78.142,1.554.317t1.545.358c.51.122,1.018.292,1.537.371a.084.084,0,1,1-.043.161,9.965,9.965,0,0,0-1.623-.422c-.5-.108-1-.2-1.5-.268s-1.008-.135-1.515-.185c-.378-.038-.765-.058-1.146-.093.206.364.421.724.622,1.091.031.057.06.117.091.175a4.869,4.869,0,0,1,1.246.147c.449.08.895.165,1.34.264.9.2,1.805.414,2.7.663,1.876.523,3.729,1.122,5.581,1.728.1.033.037.19-.066.155a53.925,53.925,0,0,0-5.606-1.555c-.887-.2-1.773-.4-2.664-.589-.446-.092-.89-.19-1.337-.284a8.375,8.375,0,0,1-1.035-.229c.954,1.763,1.853,3.554,2.678,5.381,1.8,3.979,3.313,8.079,4.854,12.161.039.1-.119.168-.155.067a111.217,111.217,0,0,0-5.166-11.889c-.346-.706-.7-1.407-1.053-2.11-.029.143-.065.286-.091.431q-.134.723-.256,1.448c-.163.967-.327,1.935-.472,2.9a34.112,34.112,0,0,0-.7,6.026c0,.126-.186.119-.167,0,.156-.961.155-1.963.216-2.934.063-1.015.138-2.03.255-3.04.114-.974.238-1.947.4-2.914.08-.483.166-.966.254-1.449a2.893,2.893,0,0,1,.273-1.049c-.509-1.018-1.012-2.04-1.525-3.057q-.723-1.429-1.465-2.85c-.209-.4-.436-.8-.659-1.211a11.651,11.651,0,0,1-.575,1.459q-.332.821-.67,1.641c-.5,1.21-.959,2.432-1.421,3.655-.656,1.734-1.38,3.511-1.92,5.316.53-1.772.977-3.576,1.572-5.325" transform="translate(68.784 27.972)" fill="#263238"/>
        <path id="Path_20231" data-name="Path 20231" d="M608.077,260.226c.039-.14.085-.279.126-.42-.041.14-.082.281-.126.42" transform="translate(68.772 29.383)" fill="#263238"/>
        <path id="Path_20232" data-name="Path 20232" d="M574.535,271.708l.61,12.907,1.569,33.268h34.323l1.569-33.268.61-12.907Z" transform="translate(64.978 30.729)" fill="#37474f"/>
        <path id="Path_20233" data-name="Path 20233" d="M574.535,271.708l.61,12.907h37.462l.61-12.907Z" transform="translate(64.978 30.729)" fill="#263238"/>
        <rect id="Rectangle_2026" data-name="Rectangle 2026" width="43.563" height="10.436" transform="translate(637.072 297.219)" fill="#37474f"/>
        <rect id="Rectangle_2027" data-name="Rectangle 2027" width="6.026" height="5.464" transform="translate(667.211 348.614)" fill="#37474f"/>
        <rect id="Rectangle_2028" data-name="Rectangle 2028" width="6.026" height="2.732" transform="translate(667.211 348.614)" fill="#263238"/>
        <rect id="Rectangle_2029" data-name="Rectangle 2029" width="6.021" height="5.464" transform="translate(644.471 348.614)" fill="#37474f"/>
        <rect id="Rectangle_2030" data-name="Rectangle 2030" width="6.021" height="2.732" transform="translate(644.471 348.614)" fill="#263238"/>
      </g>
    </g>
    <g id="Group_13155" data-name="Group 13155">
      <g id="Group_13154" data-name="Group 13154" clip-path="url(#clip-path)">
        <path id="Path_20234" data-name="Path 20234" d="M40.924,426.6l160.937.692c39.116-30.716,43.156-76.224,15.251-103.807-16.89-16.685-38.336-13.319-58.758-15.973-.02,0-.039-.01-.059-.01a60.228,60.228,0,0,1-20.715-6.079c-21.026-11.094-32.882-37.263-50.572-59.276Q83.7,238,80.079,234.115c-14.547-15.533-43.5-16.04-58.647,5.8C-17.049,295.4.579,377.993,40.924,426.6" transform="translate(0.003 25.213)" fill="#c7c7c7"/>
        <path id="Path_20235" data-name="Path 20235" d="M33.586,298.081c4.214,66.028,80.468,90.675,128.093,70.9,41.411-17.2,27.859-56.456-7.094-63.022-.019,0-.039-.01-.058-.01a60.26,60.26,0,0,1-20.715-6.079c-21.026-11.094-32.882-37.263-50.571-59.276-26.356-13.689-52.75,9.143-49.655,57.49" transform="translate(3.77 26.766)" fill="#dbdbdb"/>
      </g>
    </g>
    <g id="Group_13166" data-name="Group 13166">
      <g id="Group_13165" data-name="Group 13165" clip-path="url(#clip-path)">
        <path id="Path_20236" data-name="Path 20236" d="M154.349,425.392c-2.384-.836-56.552-42.882-57.605-45.791-.405-1.1,5.259-9.348,12.385-19.117,1.538-2.11,3.14-4.279,4.78-6.473,10.623-14.258,22.23-29.136,22.23-29.136L172.456,352.9l-23.23,28.365-5.095,6.23s13.54,25.374,14.351,28.689-1.749,10.048-4.133,9.212" transform="translate(10.939 36.742)" fill="#774442"/>
        <path id="Path_20237" data-name="Path 20237" d="M119.621,344.21c-1.882,2.5-3.808,5.073-5.711,7.616-1.645,2.2-3.247,4.36-4.784,6.466C102,368.068,96.343,376.31,96.747,377.415c1.052,2.909,55.214,44.951,57.606,45.791s4.927-5.907,4.131-9.218c-.816-3.309-14.355-28.682-14.355-28.682l5.1-6.229,5.184-6.33Z" transform="translate(10.939 38.929)" fill="#ebebeb"/>
        <path id="Path_20238" data-name="Path 20238" d="M154.655,423.034c-2.421-.862-57.319-43.878-58.376-46.842-.489-1.368,8.171-13.426,17.577-25.947l35.794,27.88-5.21,6.314s13.652,25.872,14.462,29.247-1.827,10.212-4.246,9.35" transform="translate(10.887 39.611)" fill="#ffc727"/>
        <path id="Path_20239" data-name="Path 20239" d="M155.221,417.507c-9.027-7.437-46.131-36.581-55.619-43.246-.077-.055-.116,0-.045.058,8.785,7.567,46.126,36.408,55.545,43.34.2.146.308.006.119-.151" transform="translate(11.255 42.325)" fill="#263238"/>
        <path id="Path_20240" data-name="Path 20240" d="M143.457,380.654c-3.092-3.513-7.956-6.428-12.745-6.016-.186.016-.16.279-.014.334a64.7,64.7,0,0,1,12.387,6.129.294.294,0,0,0,.373-.446" transform="translate(14.768 42.366)" fill="#263238"/>
        <path id="Path_20241" data-name="Path 20241" d="M144.7,383.91c-3.092-3.513-7.956-6.427-12.745-6.016-.186.017-.16.279-.014.335a64.634,64.634,0,0,1,12.387,6.128.294.294,0,0,0,.373-.446" transform="translate(14.908 42.734)" fill="#263238"/>
        <path id="Path_20242" data-name="Path 20242" d="M145.935,387.165c-3.092-3.514-7.956-6.428-12.745-6.016-.186.016-.16.279-.014.334a64.708,64.708,0,0,1,12.387,6.129.294.294,0,0,0,.373-.446" transform="translate(15.049 43.102)" fill="#263238"/>
        <path id="Path_20243" data-name="Path 20243" d="M147.175,390.421c-3.092-3.513-7.956-6.428-12.745-6.016-.186.016-.16.279-.014.334a64.707,64.707,0,0,1,12.387,6.129.294.294,0,0,0,.373-.446" transform="translate(15.189 43.471)" fill="#263238"/>
        <path id="Path_20244" data-name="Path 20244" d="M155.878,377.649c.112-3.074-3.228-4.27-5.736-4.183a24.551,24.551,0,0,0-12.077,3.925.123.123,0,0,0-.017.2.573.573,0,0,0,.214.9c3.858,1.236,7.83,3.034,11.951,3.05,2.407.008,5.558-.978,5.665-3.887m-11.384,1.514c-1.912-.562-3.786-1.213-5.718-1.705a73.865,73.865,0,0,1,7.1-2.137,26.522,26.522,0,0,1,3.544-.57c1.846-.136,7.746,1.12,3.995,4.594-2.069,1.915-6.645.488-8.925-.181" transform="translate(15.598 42.237)" fill="#263238"/>
        <path id="Path_20245" data-name="Path 20245" d="M130.551,370.409c1.988,3.611,5.47,6.234,8.4,9.029a.571.571,0,0,0,.889-.243.123.123,0,0,0,.166-.109,24.56,24.56,0,0,0-2.34-12.482c-1.126-2.242-3.776-4.6-6.42-3.03-2.5,1.487-1.859,4.726-.7,6.834m.388-3.864c1.251-4.957,5.18-.38,5.945,1.306a26.488,26.488,0,0,1,1.2,3.384,73.578,73.578,0,0,1,1.527,7.26c-1.357-1.461-2.826-2.793-4.235-4.2-1.68-1.681-5.125-5.014-4.435-7.747" transform="translate(14.649 41.062)" fill="#263238"/>
        <path id="Path_20246" data-name="Path 20246" d="M215.261,303.361c-2.49,18.877-49.009,73.366-54.384,79.617l-1.224,1.422-38.479-29.57.443-.571L155.5,309.89s-56.032,32.7-84.069,17.854c-12.585-6.663-21.921-18.508-21.921-18.508L86.1,289.726s10.125,3.274,16.6,2.33c22.306-3.266,72.288-22.242,84.146-21.763,15.3.629,30.7,15.749,28.416,33.068" transform="translate(5.6 30.568)" fill="#455a64"/>
        <path id="Path_20247" data-name="Path 20247" d="M157.071,291.051a45.223,45.223,0,0,0-3.5,4.48c-1.2,1.571-2.415,3.126-3.611,4.7l-.035.047c.212-.461.42-.923.64-1.379.755-1.564,1.359-3.179,2.252-4.673a.083.083,0,0,0-.141-.087c-.917,1.485-1.981,2.9-2.767,4.458q-.554,1.1-1.045,2.234c-.179.414-.362.828-.522,1.25a5.972,5.972,0,0,0-.22.6c-.535.729-1.065,1.463-1.579,2.207-1.141,1.652-2.148,3.4-3.3,5.039-.062.088.077.169.14.086,1.169-1.542,2.481-2.979,3.669-4.508,1.209-1.558,2.356-3.159,3.49-4.772,1.105-1.575,2.187-3.165,3.291-4.74a47.15,47.15,0,0,0,3.333-4.868c.031-.059-.045-.129-.1-.077" transform="translate(16.199 32.915)" fill="#263238"/>
        <path id="Path_20248" data-name="Path 20248" d="M155.537,367.4c-2.113-1.958-4.387-3.77-6.616-5.594s-4.486-3.652-6.744-5.461c-4.518-3.616-9.016-7.264-13.583-10.819-2.51-1.953-5.038-3.88-7.649-5.7-.116-.08-.247.106-.145.2,4.278,3.89,8.842,7.448,13.357,11.056s9.058,7.22,13.634,10.767c2.5,1.942,5,3.943,7.616,5.727.106.072.222-.093.13-.178" transform="translate(13.658 38.432)" fill="#263238"/>
        <path id="Path_20249" data-name="Path 20249" d="M38.188,232.523a3.284,3.284,0,0,0,2.412,5.919,3.468,3.468,0,0,0,.039,1.389,3.624,3.624,0,0,0,4.016,2.775,3.043,3.043,0,0,0,.049,1.167,3.3,3.3,0,0,0,3.957,2.47,3.266,3.266,0,0,0,1.839-1.173,3.285,3.285,0,0,0,3.88,2.194,3.21,3.21,0,0,0,1.249-.6,2.2,2.2,0,0,0,.056.294,3.3,3.3,0,0,0,6.252.515,3.258,3.258,0,0,0,3.708,1.817A3.291,3.291,0,0,0,68.071,247a3.66,3.66,0,0,0,2.39.257,3.546,3.546,0,0,0,2.267-1.653,3.615,3.615,0,0,0,5.53-2.874,3.384,3.384,0,0,0,1.291-.041,3.281,3.281,0,0,0,2.535-3.518,3.54,3.54,0,0,0,1.6,0,3.622,3.622,0,0,0,2.724-4.347,3.475,3.475,0,0,0-.462-1.1,2.261,2.261,0,0,0,.572-.071,3.3,3.3,0,0,0,2.473-3.946,3.258,3.258,0,0,0-.866-1.566,3.609,3.609,0,0,0,1.425-5.985,3.64,3.64,0,0,0,1.538-3.851,3.589,3.589,0,0,0-2.018-2.464,3.278,3.278,0,0,0-1.122-4.746,3.616,3.616,0,0,0-2.5-5.923,3.282,3.282,0,0,0-3.491-4.112,3.408,3.408,0,0,0,0-1.557,3.619,3.619,0,0,0-4.344-2.712,3.176,3.176,0,0,0-.791.294,3.126,3.126,0,0,0-.085-.582,3.626,3.626,0,0,0-4.344-2.712,3.192,3.192,0,0,0-.846.318,3.219,3.219,0,0,0-.078-1.025,3.627,3.627,0,0,0-6.664-1.022,3.612,3.612,0,0,0-5.633.519,3.289,3.289,0,0,0-6.016.509,3.288,3.288,0,0,0-5.259,2.3,3.561,3.561,0,0,0-2.877-.561,3.631,3.631,0,0,0-2.817,3.621,3.24,3.24,0,0,0-1.2.046,3.294,3.294,0,0,0-2.459,3.954A3.123,3.123,0,0,0,39,203.532a1.22,1.22,0,0,0-.211.037,3.631,3.631,0,0,0-2.722,4.358,3.321,3.321,0,0,0,.386.978,3.056,3.056,0,0,0-.877.08,3.288,3.288,0,0,0-.978,6,3.284,3.284,0,0,0,.424,5.226,3.616,3.616,0,0,0,1.4,6.731,3.24,3.24,0,0,0-.9,3.065,3.312,3.312,0,0,0,2.666,2.511" transform="translate(3.736 21.519)" fill="#263238"/>
        <path id="Path_20250" data-name="Path 20250" d="M65.161,254.744C72.011,264.58,95.5,290.1,111.736,293.8c8.949,2.039,52.189,8.087,58.116,2.7,6.94-6.315,3.721-30.123-1.8-30.339-16.842-.662-48.01,2.634-55.8.914-3.522-.777-22.188-12.816-42.123-22.448-7.538-3.642-9.4,3.771-4.977,10.118" transform="translate(7.103 27.558)" fill="#774442"/>
        <path id="Path_20251" data-name="Path 20251" d="M158.929,264.846l-2.888,35.64s-39.233-.62-51.078-7.28-31.123-23.644-38.5-35.448-4.91-18.243,9.489-10.983,33.836,18.91,36.383,19.526,46.594-1.456,46.594-1.456" transform="translate(7.06 27.563)" fill="#ffc727"/>
        <path id="Path_20252" data-name="Path 20252" d="M142.4,264.933c0-.092-.141-.129-.161-.028-.485,2.446-.687,4.962-.964,7.441-.288,2.562-.534,5.131-.765,7.7-.46,5.119-1,10.273-1.159,15.412a.161.161,0,1,0,.322.01c.771-5.046,1.181-10.175,1.66-15.258.236-2.519.463-5.042.643-7.566.184-2.56.457-5.145.424-7.712" transform="translate(15.76 29.953)" fill="#263238"/>
        <path id="Path_20253" data-name="Path 20253" d="M95.6,257.158a163.806,163.806,0,0,1-12.478,20.013c-.134-.134-.278-.256-.412-.367a163.548,163.548,0,0,0,12.4-19.924c.167.089.334.178.49.278" transform="translate(9.354 29.052)" fill="#fff"/>
        <path id="Path_20254" data-name="Path 20254" d="M99.845,259.5a159.406,159.406,0,0,1-12.912,21.038c-.145-.111-.289-.234-.423-.356A160.26,160.26,0,0,0,99.366,259.23c.167.089.323.178.479.267" transform="translate(9.784 29.318)" fill="#fff"/>
        <g id="Group_13158" data-name="Group 13158" transform="translate(69.477 271.272)" opacity="0.1">
          <g id="Group_13157" data-name="Group 13157">
            <g id="Group_13156" data-name="Group 13156" clip-path="url(#clip-path-12)">
              <path id="Path_20255" data-name="Path 20255" d="M121.281,297.729c-6.712-1.057-12.756-2.516-16.318-4.519-11.843-6.667-31.122-23.642-38.5-35.452-5.632-9.016-5.532-14.9,1.258-13.947Z" transform="translate(-62.418 -243.709)" fill="#020100"/>
            </g>
          </g>
        </g>
        <path id="Path_20256" data-name="Path 20256" d="M33.732,320.9c2.151.692,63.322-17.006,63.322-17.006L89.83,282.654s3.566-6.83,1.91-13.4c-2.212-8.777-18.458-23.207-19.734-24.055-5.125-3.4-9.93-3.339-14.176-1.083-17.686,9.4-24.1,76.783-24.1,76.783" transform="translate(3.815 27.428)" fill="#ffc727"/>
        <path id="Path_20257" data-name="Path 20257" d="M87.87,261.018c-15.828,7.747-37.678,10.708-46.85,11.643.045-.189.1-.378.156-.568,9.239-.968,30.744-3.907,46.372-11.543.111.156.223.312.323.468" transform="translate(4.639 29.467)" fill="#fff"/>
        <path id="Path_20258" data-name="Path 20258" d="M90.444,264.942C73.636,274.114,48.224,277.2,39.72,278.01a5.429,5.429,0,0,1,.134-.579c8.649-.835,33.76-3.929,50.357-13,.089.178.167.345.234.512" transform="translate(4.492 29.906)" fill="#fff"/>
        <path id="Path_20259" data-name="Path 20259" d="M75.672,251.8c1.575,1.834,3.266,3.578,4.893,5.373-.76-1.338-1.513-2.681-2.321-3.992-.017-.026.019-.057.039-.03a29.9,29.9,0,0,1,3.1,4.939,41.183,41.183,0,0,1,3.372,4.305,19.222,19.222,0,0,1,2.779,5.922,16.254,16.254,0,0,1,.186,6.551,41.956,41.956,0,0,1-2.066,7.319c-.112.316-.56.118-.474-.193,1.149-4.147,2.451-8.526,1.529-12.851-.911-4.271-3.591-7.9-6.192-11.3a60.527,60.527,0,0,0-4.977-5.936c-.073-.075.059-.185.129-.1" transform="translate(8.541 28.475)" fill="#263238"/>
        <path id="Path_20260" data-name="Path 20260" d="M48.429,258.464c-4.918,27.9-.924,48.965,3.816,51.554,12.759,6.967,37.373-5.326,46.017-8.133,3.494-1.135.132-30.135-3.717-29.351-9.481,1.929-26.43,11.779-26.9,11.73-.946-.1-2.051-7.218-6.928-27.973-3.945-16.791-10.272-9.234-12.283,2.174" transform="translate(5.223 27.878)" fill="#774442"/>
        <path id="Path_20261" data-name="Path 20261" d="M86.377,271.469s17.934-7.5,32.442-6.837c4.919.226,24.874,6.508,23.56,11.387-1.19,4.416-17.729-2.795-17.729-2.795s17.332,5.8,14.922,10.854-20.015-5.578-20.015-5.578,17.675,6.359,14.365,11.178c-2.5,3.641-18.988-5.089-18.988-5.089s15.154,5.57,12.743,9.426c-2.665,4.26-18.388-2.844-18.388-2.844-7.779,8.769-15.07,9.761-20.341,9.85-1.276.022-2.57-29.552-2.57-29.552" transform="translate(9.769 29.924)" fill="#774442"/>
        <path id="Path_20262" data-name="Path 20262" d="M115.5,270.2c2.06.608,4.151,1.209,6.15,2s3.974,1.647,5.891,2.619a36.642,36.642,0,0,1,7.1,4.489c-4.111-2.845-11.224-5.779-13.226-6.568s-3.951-1.674-5.946-2.462c-.051-.021-.017-.09.032-.076" transform="translate(13.056 30.559)" fill="#263238"/>
        <path id="Path_20263" data-name="Path 20263" d="M112.82,276.64c2.6.889,5.209,1.677,7.768,2.683s4.875,2.172,7.346,3.344c.189.09.079.164-.116.08-2.516-1.073-4.924-1.871-7.453-2.914s-5.017-2.185-7.571-3.132c-.04-.014-.013-.073.026-.06" transform="translate(12.754 31.287)" fill="#263238"/>
        <path id="Path_20264" data-name="Path 20264" d="M109.532,281.754a61.369,61.369,0,0,1,11.564,5.01c.185.1.031.176-.164.087-3.812-1.738-6.791-3.129-11.442-4.957-.072-.028-.045-.165.041-.14" transform="translate(12.378 31.865)" fill="#263238"/>
        <path id="Path_20265" data-name="Path 20265" d="M87.469,273.631,102.135,305s-45.52,13.283-51.7,5.291-5.745-33.127-2.846-50.515,10.721-17.723,14.146-2S67.18,283.42,67.8,283.332s19.673-9.7,19.673-9.7" transform="translate(5.152 27.861)" fill="#ffc727"/>
        <path id="Path_20266" data-name="Path 20266" d="M65.6,272.6a127.5,127.5,0,0,1-20.036,10.8v-.6a126.388,126.388,0,0,0,19.9-10.764c.056.189.089.378.134.568" transform="translate(5.153 30.766)" fill="#fff"/>
        <path id="Path_20267" data-name="Path 20267" d="M66.868,277.468a128.937,128.937,0,0,1-21.1,11.3l-.033-.6A127.136,127.136,0,0,0,66.712,276.9c.056.2.111.39.156.568" transform="translate(5.172 31.317)" fill="#fff"/>
        <path id="Path_20268" data-name="Path 20268" d="M77.888,274.652c-.048-.079-.187-.04-.154.057.817,2.356,1.915,4.629,2.927,6.909,1.046,2.357,2.132,4.7,3.229,7.033,2.191,4.651,4.328,9.37,6.787,13.886.107.2.361.042.283-.154-1.882-4.745-4.121-9.379-6.276-14.006-1.069-2.294-2.147-4.586-3.267-6.856-1.134-2.3-2.2-4.671-3.53-6.869" transform="translate(8.791 31.058)" fill="#263238"/>
        <path id="Path_20269" data-name="Path 20269" d="M78.117,308.769a19.715,19.715,0,0,0-3.811.637c-1.315.234-2.632.442-3.956.616a74.886,74.886,0,0,1-7.728.662c-2.543.067-8.835-.313-10.769-2.068a12.163,12.163,0,0,1-3.29-5.666A82.669,82.669,0,0,1,47,294.007a116.146,116.146,0,0,1-.6-19.155c.072-1.779.183-3.555.312-5.331.131-1.807.345-3.622.406-5.431a.063.063,0,0,0-.122-.014,64.65,64.65,0,0,0-1.205,8.771c-.109-1.834-.329-3.664-.36-5.5a.082.082,0,0,0-.165,0c.032,1.935-.1,3.866-.026,5.8.04,1.09.149,2.168.27,3.246q-.229,3.685-.2,7.38a75.827,75.827,0,0,0,2.255,19.261c.751,2.732,1.907,5.345,4.408,6.807a16.127,16.127,0,0,0,5.99,1.571,50.468,50.468,0,0,0,13.113-.832c1.21-.225,2.415-.479,3.615-.752a14.3,14.3,0,0,0,3.452-.948c.057-.03.022-.112-.035-.115" transform="translate(5.114 29.861)" fill="#263238"/>
        <path id="Path_20270" data-name="Path 20270" d="M83.73,271.077l0,.008v0l0,0" transform="translate(9.47 30.658)" fill="#263238"/>
        <path id="Path_20271" data-name="Path 20271" d="M85.618,271.145c-3.348,1.674-6.712,3.36-10.046,5.067-1.646.844-3.3,1.683-4.94,2.532-1.581.816-4.6,2.447-4.6,2.443-.037-.754-.614-2.945-.934-4.358-.348-1.541-.7-3.08-1.1-4.608-.1-.4-.216-.791-.322-1.189-.071-.736-.138-1.471-.206-2.207-.108-1.184-.211-2.4-.393-3.57a.033.033,0,0,0-.066,0,16.838,16.838,0,0,0,.02,3.39q-.768-2.775-1.586-5.535a.049.049,0,0,0-.095.029c.6,3.106,1.233,6.21,1.946,9.292.345,1.495.728,2.982,1.118,4.466a47.557,47.557,0,0,0,1.327,4.754,49.411,49.411,0,0,0,5.017-2.213q2.571-1.221,5.112-2.5c3.291-1.649,6.61-3.326,9.79-5.185-.006.018.492,1.031.523,1.079.085.134.193-.1.154-.24a6.631,6.631,0,0,0-.72-1.449" transform="translate(6.939 29.753)" fill="#263238"/>
        <path id="Path_20272" data-name="Path 20272" d="M83.733,271.084h0" transform="translate(9.47 30.659)" fill="#263238"/>
        <rect id="Rectangle_2034" data-name="Rectangle 2034" width="64.906" height="2.911" transform="translate(94.932 323.915)" fill="#c7c7c7"/>
        <path id="Path_20273" data-name="Path 20273" d="M97.989,291l-2.222,2.911h53.239V291Z" transform="translate(10.831 32.911)" fill="#a6a6a6"/>
        <path id="Path_20274" data-name="Path 20274" d="M100.257,297.98h63.255l5.266-42.961H105.523Z" transform="translate(11.339 28.842)" fill="#c7c7c7"/>
        <path id="Path_20275" data-name="Path 20275" d="M127.578,274.708a3.77,3.77,0,0,0,3.782,3.85,3.933,3.933,0,0,0,3.918-3.85,3.769,3.769,0,0,0-3.782-3.85,3.933,3.933,0,0,0-3.918,3.85" transform="translate(14.429 30.633)" fill="#fff"/>
        <path id="Path_20276" data-name="Path 20276" d="M163.166,258.752c2.383,3.68,8.269,7.984,9.078,11.141a3.738,3.738,0,0,1-1.541,4.186s3.412,1.173,3.673,4.16c.135,1.536-2.2,3.1-2.2,3.1a4.463,4.463,0,0,1,2.763,3.729c.055,2.127-2.294,3.377-2.294,3.377s2.109,2.221,1.47,4.406c-1.3,4.43-19.4,6.823-23.081.523-1.715-2.936,2.739-3.28,2.739-3.28s-6.525-1.052-7.114-4.773,5.226-3.818,5.226-3.818-6.315-1.074-6.536-4.993c-.23-4.08,5.6-3.181,5.6-3.181s-4.387-2.2-3.869-5.236c.855-5.019,11.181.315,15.036-1.155Z" transform="translate(16.438 29.264)" fill="#774442"/>
        <path id="Path_20277" data-name="Path 20277" d="M171.484,285.655a.048.048,0,0,1,.03.091,31.683,31.683,0,0,1-18.8,1.354c-.2-.052-.2-.4.029-.38a64.9,64.9,0,0,0,18.74-1.065" transform="translate(17.255 32.307)" fill="#263238"/>
        <path id="Path_20278" data-name="Path 20278" d="M171.647,279.069c.069-.016.1.1.024.127-5.952,2.274-13.879,2.837-20.6.2-.23-.091-.347-.4-.073-.319,4.6,1.414,14.883,1.259,20.649-.01" transform="translate(17.059 31.561)" fill="#263238"/>
        <path id="Path_20279" data-name="Path 20279" d="M150.01,271.538c6.543,2.277,13.157,2.228,19.943,1.2.088-.013.1.114.027.145-3.182,1.407-7.577,1.609-11.009,1.479a18.271,18.271,0,0,1-9.042-2.6c-.109-.067-.06-.278.08-.229" transform="translate(16.95 30.709)" fill="#263238"/>
        <path id="Path_20280" data-name="Path 20280" d="M52.726,246.354s10.826,9.171,17.707,7.487,2.656-8.654,2.656-8.654-6.277-3.831-12.985-2.956a11.685,11.685,0,0,0-7.378,4.124" transform="translate(5.963 27.381)" fill="#774442"/>
        <path id="Path_20281" data-name="Path 20281" d="M57.731,246.365c.243,1.11,5.417,8.364,10.475,8.2,1.647-.057,1.741-9.061,1.741-9.061l.159-.663,2.216-9.283-12.407-8.13s-2.282,18.467-2.185,18.938" transform="translate(6.529 25.721)" fill="#774442"/>
        <path id="Path_20282" data-name="Path 20282" d="M72.179,235.552l-2.218,9.285a19.183,19.183,0,0,1-10.954-11.1c.38-3.2.707-5.864.749-6.255a.172.172,0,0,0,.011-.052l1.574.951Z" transform="translate(6.674 25.722)" fill="#263238"/>
        <path id="Path_20283" data-name="Path 20283" d="M85.86,224.706c.346,16.748-9.646,18.847-13.258,18.918-3.278.065-14.449-.134-16.525-16.755s5.6-22.079,13.091-22.623,16.344,3.711,16.692,20.46" transform="translate(6.303 23.095)" fill="#774442"/>
        <path id="Path_20284" data-name="Path 20284" d="M80.713,220.416a11.024,11.024,0,0,1-1.119-.294,1.871,1.871,0,0,1-1.084-.518.6.6,0,0,1,.037-.727,1.478,1.478,0,0,1,1.472-.274,2.173,2.173,0,0,1,1.323.835.635.635,0,0,1-.629.977" transform="translate(8.867 24.715)" fill="#263238"/>
        <path id="Path_20285" data-name="Path 20285" d="M70.3,221.165a11.234,11.234,0,0,0,1.142-.183,1.879,1.879,0,0,0,1.13-.409.6.6,0,0,0,.035-.727,1.478,1.478,0,0,0-1.437-.417,2.172,2.172,0,0,0-1.4.7.636.636,0,0,0,.53,1.035" transform="translate(7.873 24.814)" fill="#263238"/>
        <path id="Path_20286" data-name="Path 20286" d="M72.383,223.342c-.008-.043-.09.051-.09.1.007,1.14-.178,2.449-1.219,2.8-.032.011-.03.068.008.063,1.263-.145,1.49-1.883,1.3-2.963" transform="translate(8.036 25.258)" fill="#263238"/>
        <path id="Path_20287" data-name="Path 20287" d="M71.516,222.249c-1.83-.187-2.069,3.487-.373,3.661,1.669.169,1.907-3.5.373-3.661" transform="translate(7.917 25.135)" fill="#263238"/>
        <path id="Path_20288" data-name="Path 20288" d="M70.922,222.406c-.334.187-.672.533-1.062.547-.451.016-.764-.392-1.033-.78-.027-.04-.061-.01-.065.038-.057.7.168,1.444.915,1.6.682.14,1.218-.451,1.439-1.146.041-.129-.06-.331-.195-.255" transform="translate(7.776 25.125)" fill="#263238"/>
        <path id="Path_20289" data-name="Path 20289" d="M78.207,223.388c.012-.042.085.06.08.107-.119,1.135-.063,2.454.938,2.907.03.014.023.071-.014.062-1.243-.268-1.3-2.02-1-3.077" transform="translate(8.828 25.263)" fill="#263238"/>
        <path id="Path_20290" data-name="Path 20290" d="M79.305,222.386c1.84-.006,1.716,3.674.011,3.68-1.676.006-1.553-3.674-.011-3.68" transform="translate(8.833 25.151)" fill="#263238"/>
        <path id="Path_20291" data-name="Path 20291" d="M79.885,222.64c.284.2.56.569.906.6.4.04.713-.347.983-.721.029-.038.057-.007.056.042,0,.7-.262,1.429-.942,1.542-.62.1-1.052-.516-1.2-1.223-.027-.13.079-.325.194-.243" transform="translate(9.012 25.165)" fill="#263238"/>
        <path id="Path_20292" data-name="Path 20292" d="M71.54,232.388c.234.3.453.7.858.8a3,3,0,0,0,1.253-.116.04.04,0,0,1,.041.066,1.538,1.538,0,0,1-1.519.413,1.214,1.214,0,0,1-.749-1.122c-.008-.069.081-.08.116-.037" transform="translate(8.078 26.279)" fill="#263238"/>
        <path id="Path_20293" data-name="Path 20293" d="M76.616,229.856s.1,1.718.031,2.518c-.007.076-.2.095-.476.089-.013,0-.021.008-.031,0a3.819,3.819,0,0,1-3.582-1.723c-.049-.082.059-.157.128-.1a5.761,5.761,0,0,0,3.4,1.28c.075-.217-.264-2.935-.136-2.934a7.031,7.031,0,0,1,1.785.559c-.1-3.582-.768-7.119-.81-10.688a.109.109,0,0,1,.213-.036A57.924,57.924,0,0,1,78.5,230.294c.029.461-1.571-.275-1.88-.437" transform="translate(8.205 24.739)" fill="#263238"/>
        <path id="Path_20294" data-name="Path 20294" d="M76.2,230.916A4.681,4.681,0,0,1,74.35,232.4a2.1,2.1,0,0,1-1.277.1c-.928-.228-.965-1.075-.808-1.8a5.046,5.046,0,0,1,.4-1.118,6.054,6.054,0,0,0,3.536,1.339" transform="translate(8.165 25.964)" fill="#263238"/>
        <path id="Path_20295" data-name="Path 20295" d="M74.35,232.284a2.1,2.1,0,0,1-1.277.1c-.928-.228-.965-1.076-.808-1.8a2.173,2.173,0,0,1,2.085,1.7" transform="translate(8.165 26.078)" fill="#ff9cbd"/>
        <path id="Path_20296" data-name="Path 20296" d="M57.52,226.284c1.774-.112,6.376-5.011,6.485-13.581,0,0-.63,7.688-1.2,8.818s2.572-2.757,2.757-9.667a27.954,27.954,0,0,0,7.1,3.65c3.266.9,5.263.864,5.5.628s-4.576-1.732-5.879-3.225c0,0,8.7,4,12.7,4.293.463.033.335-8.2-5.866-12.213s-15.34-.907-17.964,1.647c0,0-1.862.84-5.207,5.43s-.331,14.34,1.581,14.22" transform="translate(6.157 22.965)" fill="#263238"/>
        <path id="Path_20297" data-name="Path 20297" d="M57.507,230.3c.849,2.331-5.749-8.228-5.895-9.95s2.225-10.5,9.009-14.868c5.683-3.658,13.318-2.391,14.652-2.154A10.6,10.6,0,0,1,79.431,205s-10-1.692-17.964,1.647c-3.839,1.611-7.139,14.919-3.96,23.646" transform="translate(5.836 22.95)" fill="#ffc727"/>
        <path id="Path_20298" data-name="Path 20298" d="M56.862,205.571s1.318-5.3,5.653-7.245c0,0,1.244,4.516.131,6.489-.553.982-3.979,2.411-4.578,1.958a8.5,8.5,0,0,1-1.207-1.2" transform="translate(6.431 22.43)" fill="#ffc727"/>
        <g id="Group_13161" data-name="Group 13161" transform="translate(63.294 226.187)" opacity="0.1">
          <g id="Group_13160" data-name="Group 13160">
            <g id="Group_13159" data-name="Group 13159" clip-path="url(#clip-path-13)">
              <path id="Path_20299" data-name="Path 20299" d="M56.863,205.023a8.712,8.712,0,0,0,1.2,1.194.2.2,0,0,0,.092.046.334.334,0,0,0,.122.035c.03,0,.06.007.1,0a5.208,5.208,0,0,0,1.98-.519,11.206,11.206,0,0,0-1.1-1.781,3.082,3.082,0,0,0-1.734-.8,11.342,11.342,0,0,0-.662,1.818" transform="translate(-56.863 -203.205)" fill="#050400"/>
            </g>
          </g>
        </g>
        <path id="Path_20300" data-name="Path 20300" d="M56.98,205.7s-6.573,1.031-9.153,3.349c0,0,2.683,2.74,6.076,2.549,1.52-.086,4.821-3.95,4.363-4.616A6.607,6.607,0,0,0,56.98,205.7" transform="translate(5.409 23.264)" fill="#ffc727"/>
        <g id="Group_13164" data-name="Group 13164" transform="translate(60.908 228.962)" opacity="0.1">
          <g id="Group_13163" data-name="Group 13163">
            <g id="Group_13162" data-name="Group 13162" clip-path="url(#clip-path-14)">
              <path id="Path_20301" data-name="Path 20301" d="M54.719,205.981a3.849,3.849,0,0,0,.772,2.038,3.3,3.3,0,0,0,1.151.766c.631-.814,1.016-1.545.844-1.807A6.7,6.7,0,0,0,56.2,205.7s-.588.089-1.48.284" transform="translate(-54.719 -205.698)" fill="#050400"/>
            </g>
          </g>
        </g>
        <path id="Path_20302" data-name="Path 20302" d="M55.932,207.537a2.161,2.161,0,1,0-.006-3.057,2.161,2.161,0,0,0,.006,3.057" transform="translate(6.254 23.054)" fill="#ffc727"/>
        <path id="Path_20303" data-name="Path 20303" d="M59.149,226.126s-3.3-5.459-5.757-4.313-.209,8.889,2.5,10.107a2.833,2.833,0,0,0,3.888-1.27Z" transform="translate(5.919 25.069)" fill="#774442"/>
        <path id="Path_20304" data-name="Path 20304" d="M53.916,223.777a.039.039,0,0,0-.02.073c1.9.918,2.8,2.793,3.4,4.714a1.565,1.565,0,0,0-2.307-.581c-.052.033-.009.116.047.108a1.743,1.743,0,0,1,1.873.732,8.39,8.39,0,0,1,.814,1.608c.08.18.4.108.347-.1,0-.016-.009-.031-.012-.046.213-2.482-1.489-6.086-4.141-6.513" transform="translate(6.093 25.308)" fill="#263238"/>
        <path id="Path_20305" data-name="Path 20305" d="M284.045,373.447c-.877,2.369-43.859,55.8-46.787,56.8-1.108.385-9.254-5.421-18.9-12.716-2.083-1.575-4.224-3.214-6.389-4.891-14.07-10.87-28.745-22.734-28.745-22.734l28.649-35.824,27.957,23.72,6.141,5.2s25.606-13.1,28.934-13.85,10.016,1.925,9.139,4.293" transform="translate(20.722 40.045)" fill="#774442"/>
        <path id="Path_20306" data-name="Path 20306" d="M202.3,405.275c2.464,1.926,5.007,3.895,7.516,5.843,2.167,1.684,4.3,3.324,6.381,4.9,9.651,7.3,17.793,13.094,18.9,12.709,2.926-1,45.905-54.423,46.786-56.8s-5.82-5.028-9.144-4.291c-3.323.759-28.927,13.854-28.927,13.854l-6.141-5.2-6.238-5.293Z" transform="translate(22.879 41.564)" fill="#ebebeb"/>
        <path id="Path_20307" data-name="Path 20307" d="M281.731,371.719c-.9,2.405-44.87,56.546-47.851,57.553-1.377.465-13.283-8.4-25.638-18.025l28.5-35.3,6.221,5.319s26.105-13.2,29.494-13.952,10.178,2,9.275,4.409" transform="translate(23.552 41.528)" fill="#ffc727"/>
        <path id="Path_20308" data-name="Path 20308" d="M276.246,370.386c-7.592,8.895-37.379,45.487-44.208,54.857-.056.077-.006.117.057.046,7.718-8.651,37.206-45.484,44.3-54.782.149-.2.011-.308-.149-.12" transform="translate(26.24 41.879)" fill="#263238"/>
        <path id="Path_20309" data-name="Path 20309" d="M239.192,377.218c-3.566,3.031-6.565,7.844-6.238,12.638.013.187.277.166.335.02a64.675,64.675,0,0,1,6.342-12.277.294.294,0,0,0-.44-.381" transform="translate(26.344 42.654)" fill="#263238"/>
        <path id="Path_20310" data-name="Path 20310" d="M242.468,376.036c-3.566,3.03-6.565,7.843-6.237,12.639.012.186.276.165.334.019a64.7,64.7,0,0,1,6.342-12.277.294.294,0,0,0-.44-.381" transform="translate(26.714 42.52)" fill="#263238"/>
        <path id="Path_20311" data-name="Path 20311" d="M245.745,374.854c-3.566,3.03-6.566,7.843-6.238,12.638.013.186.277.166.334.02a64.648,64.648,0,0,1,6.344-12.277.294.294,0,0,0-.44-.381" transform="translate(27.085 42.387)" fill="#263238"/>
        <path id="Path_20312" data-name="Path 20312" d="M249.022,373.671c-3.566,3.03-6.565,7.843-6.238,12.638.013.187.277.166.335.02a64.64,64.64,0,0,1,6.342-12.277.294.294,0,0,0-.44-.381" transform="translate(27.455 42.253)" fill="#263238"/>
        <path id="Path_20313" data-name="Path 20313" d="M236.383,365.261c-3.072-.166-4.324,3.153-4.282,5.661a24.545,24.545,0,0,0,3.714,12.144.122.122,0,0,0,.2.02.571.571,0,0,0,.9-.2c1.3-3.836,3.171-7.776,3.258-11.9.05-2.407-.882-5.574-3.788-5.731m1.316,11.408c-.6,1.9-1.28,3.763-1.8,5.687a73.736,73.736,0,0,1-2.014-7.139,26.4,26.4,0,0,1-.508-3.554c-.1-1.847,1.254-7.725,4.662-3.913,1.879,2.1.373,6.652-.336,8.919" transform="translate(26.25 41.309)" fill="#263238"/>
        <path id="Path_20314" data-name="Path 20314" d="M228.719,389.688c3.645-1.924,6.329-5.36,9.174-8.244a.571.571,0,0,0-.226-.894.124.124,0,0,0-.107-.168,24.558,24.558,0,0,0-12.521,2.123c-2.261,1.087-4.666,3.694-3.14,6.367,1.443,2.528,4.692,1.94,6.82.816m-3.856-.455c-4.934-1.338-.289-5.187,1.409-5.921a26.11,26.11,0,0,1,3.4-1.139,73.487,73.487,0,0,1,7.285-1.4c-1.485,1.331-2.842,2.777-4.275,4.162-1.71,1.65-5.1,5.036-7.823,4.3" transform="translate(25.042 43.007)" fill="#263238"/>
        <path id="Path_20315" data-name="Path 20315" d="M255.115,380.469l-30.159,40.691-101.77-70.618-9.813-6.813s-2.778,1.869-6.961,4.183c-5.81,3.211-14.324,7.279-21.857,8.387-12.634,1.87-33.73,1.67-44.378-12.57-8.968-11.99-4.1-27.634-4.1-27.634l13.873-5.956s32.829-27.352,54.093-28.176c9.032-.359,22.183,6.486,34.364,13.638s116.707,84.868,116.707,84.868" transform="translate(3.931 31.888)" fill="#455a64"/>
        <path id="Path_20316" data-name="Path 20316" d="M108.482,339.618s-2.778,1.87-6.961,4.183c-7.394-8.852-23.05-24.93-23.525-25.5Z" transform="translate(8.821 35.999)" fill="#263238"/>
        <path id="Path_20317" data-name="Path 20317" d="M61.414,299.05c-1.962,1.362-3.86,2.811-5.8,4.209-1.9,1.377-3.87,2.668-5.681,4.171-1.841,1.527-3.585,3.159-5.319,4.805-.837.794-1.667,1.6-2.477,2.418a22.568,22.568,0,0,0-2.363,2.565c-.061.087.063.19.145.138a26.827,26.827,0,0,0,2.63-2.14c.918-.772,1.827-1.557,2.742-2.335,1.764-1.5,3.563-2.957,5.324-4.461s3.369-3.13,5.1-4.644c1.853-1.62,3.808-3.128,5.734-4.661.037-.029,0-.091-.039-.063" transform="translate(4.497 33.821)" fill="#263238"/>
        <path id="Path_20318" data-name="Path 20318" d="M229.166,369.151c-1.958,2.113-3.77,4.387-5.594,6.616s-3.653,4.486-5.461,6.744c-3.616,4.518-7.264,9.016-10.819,13.583-1.953,2.51-3.88,5.038-5.7,7.649-.08.116.106.247.2.145,3.891-4.278,7.449-8.842,11.058-13.357s7.22-9.058,10.767-13.634c1.941-2.5,3.943-5,5.727-7.616.072-.106-.093-.222-.178-.13" transform="translate(22.798 41.746)" fill="#263238"/>
        <path id="Path_20319" data-name="Path 20319" d="M155.457,372.434c-5.063-3.99-10.314-7.757-15.563-11.5-5.224-3.723-10.443-7.458-15.746-11.07-1.522-1.037-3.058-2.053-4.59-3.072s-3.124-1.958-4.624-3.014c-.088-.061-.166.083-.08.145,1.377.987,2.678,2.095,4.032,3.12,1.292.978,2.575,1.968,3.877,2.933,2.542,1.882,5.11,3.729,7.674,5.582q7.8,5.638,15.729,11.1c3,2.06,5.994,4.129,9.065,6.088.183.117.4-.174.227-.311" transform="translate(12.985 38.879)" fill="#263238"/>
        <path id="Path_20320" data-name="Path 20320" d="M188.325,336.966c-4.679-3.878-9.7-7.365-14.6-10.95-4.961-3.626-9.9-7.287-14.877-10.887l-14.822-10.715c-4.79-3.463-9.556-6.981-14.615-10.047-2.768-1.677-5.608-3.232-8.526-4.633a55.789,55.789,0,0,0-8.811-3.6.083.083,0,0,0-.06.152c2.493,1.392,5.112,2.565,7.636,3.908q3.74,1.994,7.368,4.192c5.021,3.044,9.763,6.5,14.527,9.928,9.893,7.115,19.766,14.26,29.73,21.276,5.574,3.926,11.036,8.07,16.827,11.679.181.112.39-.166.223-.3" transform="translate(12.664 32.361)" fill="#263238"/>
      </g>
    </g>
  </g>
</svg>
