<?xml version="1.0" encoding="UTF-8"?><svg id="Layer_2" xmlns="http://www.w3.org/2000/svg" xmlns:xlink="http://www.w3.org/1999/xlink" viewBox="0 0 2146.4 1459.69"><defs><style>.cls-1{fill:url(#linear-gradient-75);}.cls-2{opacity:.81;}.cls-3{fill:url(#linear-gradient-2);}.cls-4{fill:url(#linear-gradient-51);}.cls-5,.cls-6,.cls-7{fill:#fff;}.cls-8{fill:url(#linear-gradient-17);}.cls-9{opacity:.88;}.cls-10{fill:url(#linear-gradient-80);}.cls-11{fill:url(#linear-gradient-43);}.cls-12{fill:url(#linear-gradient-15);}.cls-13{fill:url(#linear-gradient-58);}.cls-14{fill:url(#linear-gradient-69);}.cls-15{fill:url(#linear-gradient-81);}.cls-16{fill:url(#linear-gradient-18);}.cls-17{fill:url(#linear-gradient-56);}.cls-18{fill:url(#linear-gradient-40);}.cls-19{fill:url(#linear-gradient-52);}.cls-20{fill:url(#linear-gradient-28);}.cls-21{fill:url(#linear-gradient-14);}.cls-22{fill:url(#linear-gradient-36);}.cls-23{fill:url(#linear-gradient-78);}.cls-24{fill:url(#linear-gradient-20);}.cls-25{fill:url(#linear-gradient-6);}.cls-26{fill:url(#linear-gradient-53);}.cls-27{fill:url(#linear-gradient-60);}.cls-28{fill:url(#linear-gradient-84);}.cls-29{fill:url(#linear-gradient-35);}.cls-30{fill:url(#linear-gradient-48);}.cls-31{fill:url(#linear-gradient-32);}.cls-32{fill:url(#linear-gradient-11);}.cls-33{fill:url(#linear-gradient-50);}.cls-34{fill:url(#linear-gradient-63);}.cls-35{fill:url(#linear-gradient-67);}.cls-36{fill:url(#linear-gradient-39);}.cls-37{opacity:.8;}.cls-38{fill:url(#linear-gradient-10);}.cls-39{fill:#91b3fa;}.cls-40{fill:url(#linear-gradient-59);}.cls-41{fill:url(#linear-gradient-49);}.cls-42{fill:url(#linear-gradient-37);}.cls-43{fill:url(#linear-gradient-82);}.cls-44{fill:url(#linear-gradient-16);}.cls-45{fill:url(#linear-gradient-31);}.cls-46{fill:url(#linear-gradient-85);}.cls-47{fill:#7d97f4;}.cls-48{fill:url(#linear-gradient-61);}.cls-49{fill:url(#linear-gradient-68);}.cls-50{fill:url(#linear-gradient-62);}.cls-51{fill:url(#linear-gradient-41);}.cls-52{fill:url(#linear-gradient-76);}.cls-53{fill:url(#linear-gradient-21);}.cls-54{fill:url(#linear-gradient-72);}.cls-55{fill:url(#linear-gradient-25);}.cls-56{fill:url(#linear-gradient-5);}.cls-57{fill:url(#linear-gradient-64);}.cls-58{fill:url(#linear-gradient-83);}.cls-59{fill:url(#linear-gradient-54);}.cls-60{fill:url(#linear-gradient-45);}.cls-61{fill:url(#linear-gradient-55);}.cls-62{fill:url(#__5);}.cls-63{fill:url(#linear-gradient-34);}.cls-64{fill:url(#linear-gradient-65);}.cls-65{fill:url(#linear-gradient-70);}.cls-66{fill:url(#linear-gradient-79);}.cls-67{fill:url(#linear-gradient-7);}.cls-68{fill:url(#linear-gradient-66);}.cls-69{fill:url(#linear-gradient-24);}.cls-70{fill:url(#linear-gradient-73);}.cls-71{fill:#dce5fe;}.cls-72{fill:url(#linear-gradient-9);}.cls-73{fill:url(#linear-gradient-22);}.cls-74{fill:url(#linear-gradient-74);}.cls-75{fill:url(#linear-gradient-42);}.cls-76{fill:url(#linear-gradient-3);}.cls-6{opacity:.6;}.cls-77{fill:url(#linear-gradient);}.cls-7{opacity:.78;}.cls-78{fill:url(#linear-gradient-27);}.cls-79{fill:url(#linear-gradient-33);}.cls-80{fill:url(#linear-gradient-38);}.cls-81{fill:url(#linear-gradient-29);}.cls-82{fill:url(#linear-gradient-30);}.cls-83{fill:#bdd0fb;}.cls-84{fill:url(#linear-gradient-23);}.cls-85{fill:url(#linear-gradient-19);}.cls-86{fill:url(#linear-gradient-71);}.cls-87{fill:url(#linear-gradient-4);}.cls-88{fill:url(#linear-gradient-77);}.cls-89{fill:url(#linear-gradient-8);}.cls-90{fill:url(#linear-gradient-44);}.cls-91{fill:url(#linear-gradient-57);}.cls-92{fill:url(#linear-gradient-47);}.cls-93{fill:url(#linear-gradient-46);}.cls-94{fill:url(#linear-gradient-12);}.cls-95{fill:url(#linear-gradient-13);}.cls-96{fill:url(#linear-gradient-26);}</style><linearGradient id="linear-gradient" x1="40.48" y1="682.53" x2="2143.74" y2="682.53" gradientTransform="matrix(1, 0, 0, 1, 0, 0)" gradientUnits="userSpaceOnUse"><stop offset="0" stop-color="#dae3fe"/><stop offset="1" stop-color="#e9effd"/></linearGradient><linearGradient id="linear-gradient-2" x1="729.91" y1="420.22" x2="468.06" y2="1515.22" gradientTransform="matrix(1, 0, 0, 1, 0, 0)" gradientUnits="userSpaceOnUse"><stop offset="0" stop-color="#fe7062"/><stop offset="1" stop-color="#ff928e"/></linearGradient><linearGradient id="linear-gradient-3" x1="1142.97" y1="520.04" x2="881.36" y2="1614.01" xlink:href="#linear-gradient-2"/><linearGradient id="linear-gradient-4" x1="913.7" y1="464.24" x2="651.95" y2="1558.83" xlink:href="#linear-gradient-2"/><linearGradient id="linear-gradient-5" x1="1595.31" y1="628.48" x2="1333.8" y2="1722.07" xlink:href="#linear-gradient-2"/><linearGradient id="linear-gradient-6" x1="1314.49" y1="795.77" x2="1052.76" y2="1890.3" xlink:href="#linear-gradient-2"/><linearGradient id="linear-gradient-7" x1="1630.5" y1="759.51" x2="1642.15" y2="1349.64" gradientTransform="matrix(1, 0, 0, 1, 0, 0)" gradientUnits="userSpaceOnUse"><stop offset="0" stop-color="#4042e2"/><stop offset="1" stop-color="#4f52ff"/></linearGradient><linearGradient id="linear-gradient-8" x1="1270.02" y1="900.52" x2="1304.96" y2="1595.48" xlink:href="#linear-gradient-7"/><linearGradient id="linear-gradient-9" x1="837.11" y1="1476.09" x2="945.82" y2="843.25" xlink:href="#linear-gradient-7"/><linearGradient id="linear-gradient-10" x1="545.43" y1="1348.64" x2="593.95" y2="1698.01" xlink:href="#linear-gradient-7"/><linearGradient id="linear-gradient-11" x1="437.1" y1="1536.3" x2="438.15" y2="1646.98" gradientTransform="matrix(1, 0, 0, 1, 0, 0)" gradientUnits="userSpaceOnUse"><stop offset="0" stop-color="#09005d"/><stop offset="1" stop-color="#1a0f91"/></linearGradient><linearGradient id="linear-gradient-12" x1="410.42" y1="1412.69" x2="404.68" y2="1367.79" gradientTransform="matrix(1, 0, 0, 1, 0, 0)" gradientUnits="userSpaceOnUse"><stop offset="0" stop-color="#ff928e"/><stop offset="1" stop-color="#feb3b1"/></linearGradient><linearGradient id="linear-gradient-13" x1="287.56" y1="1537.71" x2="288.61" y2="1648.39" xlink:href="#linear-gradient-11"/><linearGradient id="linear-gradient-14" x1="284.9" y1="1428.08" x2="279.31" y2="1384.33" xlink:href="#linear-gradient-12"/><linearGradient id="linear-gradient-15" x1="245.79" y1="1261.83" x2="418.05" y2="1261.83" xlink:href="#linear-gradient-7"/><linearGradient id="linear-gradient-16" x1="281.52" y1="1235.4" x2="287.79" y2="1222.87" xlink:href="#linear-gradient-7"/><linearGradient id="linear-gradient-17" x1="384.62" y1="972.2" x2="277.07" y2="1291.72" xlink:href="#linear-gradient-11"/><linearGradient id="linear-gradient-18" x1="389.44" y1="1027.72" x2="399.77" y2="1027.72" xlink:href="#linear-gradient-7"/><linearGradient id="linear-gradient-19" x1="327.2" y1="1140.72" x2="405.63" y2="1140.72" xlink:href="#linear-gradient-12"/><linearGradient id="linear-gradient-20" x1="399.48" y1="1042.39" x2="545.95" y2="1042.39" xlink:href="#linear-gradient-12"/><linearGradient id="linear-gradient-21" x1="382.14" y1="910.49" x2="365.75" y2="976.92" xlink:href="#linear-gradient-12"/><linearGradient id="linear-gradient-22" x1="443.6" y1="895.22" x2="382.35" y2="896.09" xlink:href="#linear-gradient-12"/><linearGradient id="linear-gradient-23" x1="372.14" y1="895.27" x2="448.05" y2="895.27" xlink:href="#linear-gradient-11"/><linearGradient id="linear-gradient-24" x1="372.43" y1="908.09" x2="356.03" y2="974.52" xlink:href="#linear-gradient-12"/><linearGradient id="linear-gradient-25" x1="302.03" y1="1049.5" x2="359.43" y2="1049.5" xlink:href="#linear-gradient-7"/><linearGradient id="linear-gradient-26" x1="700.61" y1="1413.15" x2="724.89" y2="1260.44" xlink:href="#linear-gradient-11"/><linearGradient id="linear-gradient-27" x1="710.31" y1="1414.69" x2="734.59" y2="1261.98" xlink:href="#linear-gradient-11"/><linearGradient id="linear-gradient-28" x1="691.59" y1="1411.72" x2="715.87" y2="1259.01" xlink:href="#linear-gradient-11"/><linearGradient id="__5" x1="621.48" y1="1309.64" x2="607.67" y2="1449.4" gradientTransform="matrix(1, 0, 0, 1, 0, 0)" gradientUnits="userSpaceOnUse"><stop offset="0" stop-color="#ff928e"/><stop offset=".48" stop-color="#ffa29f"/><stop offset="1" stop-color="#feb3b1"/></linearGradient><linearGradient id="linear-gradient-29" x1="635.67" y1="1367.96" x2="623.92" y2="1548.08" xlink:href="#linear-gradient-11"/><linearGradient id="linear-gradient-30" x1="493.03" y1="1321.38" x2="661.56" y2="1321.38" xlink:href="#linear-gradient-12"/><linearGradient id="linear-gradient-31" x1="597.02" y1="1233.46" x2="785.82" y2="1233.46" gradientTransform="matrix(1, 0, 0, 1, 0, 0)" gradientUnits="userSpaceOnUse"><stop offset="0" stop-color="#e1473d"/><stop offset="1" stop-color="#e9605a"/></linearGradient><linearGradient id="linear-gradient-32" x1="522.31" y1="1360.57" x2="510.56" y2="1540.69" xlink:href="#linear-gradient-11"/><linearGradient id="linear-gradient-33" x1="787.98" y1="1000.63" x2="723.44" y2="1063.77" xlink:href="#linear-gradient-11"/><linearGradient id="linear-gradient-34" x1="674.81" y1="1052.86" x2="674.81" y2="1089.1" xlink:href="#linear-gradient-12"/><linearGradient id="linear-gradient-35" x1="702.18" y1="1008.7" x2="657.32" y2="999.21" xlink:href="#linear-gradient-12"/><linearGradient id="linear-gradient-36" x1="731.21" y1="942.54" x2="666.59" y2="1005.76" xlink:href="#linear-gradient-11"/><linearGradient id="linear-gradient-37" x1="701.56" y1="1011.59" x2="656.71" y2="1002.1" xlink:href="#linear-gradient-12"/><linearGradient id="linear-gradient-38" x1="388.72" y1="1183.73" x2="547.03" y2="1183.73" xlink:href="#linear-gradient-12"/><linearGradient id="linear-gradient-39" x1="657.29" y1="1296.48" x2="557.63" y2="1323.79" gradientTransform="translate(13.17 -95.03) rotate(-2.83)" xlink:href="#linear-gradient-11"/><linearGradient id="linear-gradient-40" x1="598.84" y1="1103.04" x2="528.12" y2="1177.78" xlink:href="#linear-gradient-11"/><linearGradient id="linear-gradient-41" x1="556.09" y1="1121.65" x2="524" y2="1169.97" xlink:href="#linear-gradient-7"/><linearGradient id="linear-gradient-42" x1="342.92" y1="1190.06" x2="464.65" y2="1190.06" xlink:href="#linear-gradient-2"/><linearGradient id="linear-gradient-43" x1="400.71" y1="1259.36" x2="400.19" y2="1228.06" gradientTransform="matrix(1, 0, 0, 1, 0, 0)" gradientUnits="userSpaceOnUse"><stop offset="0" stop-color="#a22b25"/><stop offset="1" stop-color="#c0423c"/></linearGradient><linearGradient id="linear-gradient-44" x1="1287.49" y1="103.38" x2="680.45" y2="697.22" xlink:href="#linear-gradient-11"/><linearGradient id="linear-gradient-45" x1="598.42" y1="532.42" x2="539.17" y2="590.38" xlink:href="#linear-gradient-11"/><linearGradient id="linear-gradient-46" x1="828.93" y1="406.47" x2="769.68" y2="464.43" gradientTransform="translate(1041.32 -424.95) rotate(76.72)" xlink:href="#linear-gradient-11"/><linearGradient id="linear-gradient-47" x1="1045.19" y1="496.77" x2="985.94" y2="554.73" gradientTransform="translate(673.27 -554.01) rotate(45)" xlink:href="#linear-gradient-11"/><linearGradient id="linear-gradient-48" x1="1225.79" y1="318.54" x2="1166.54" y2="376.5" xlink:href="#linear-gradient-11"/><linearGradient id="linear-gradient-49" x1="1449.17" y1="190.22" x2="1389.92" y2="248.18" gradientTransform="translate(1081.74 -1160.63) rotate(67.5)" xlink:href="#linear-gradient-11"/><linearGradient id="linear-gradient-50" x1="885.41" y1="1426.05" x2="905.25" y2="1330.81" gradientTransform="translate(333.84)" xlink:href="#linear-gradient-31"/><linearGradient id="linear-gradient-51" x1="1023.96" y1="1447.67" x2="1103.84" y2="1447.67" gradientTransform="translate(333.84)" xlink:href="#linear-gradient-7"/><linearGradient id="linear-gradient-52" x1="1085.51" y1="1294.05" x2="1063.68" y2="1444.86" gradientTransform="translate(333.84)" xlink:href="#linear-gradient-11"/><linearGradient id="linear-gradient-53" x1="1027.95" y1="1423.59" x2="1049.56" y2="1423.59" gradientTransform="translate(333.84)" xlink:href="#linear-gradient-12"/><linearGradient id="linear-gradient-54" x1="1149.25" y1="1431.83" x2="1213.75" y2="1431.83" gradientTransform="translate(333.84)" xlink:href="#linear-gradient-7"/><linearGradient id="linear-gradient-55" x1="1193.62" y1="1309.7" x2="1171.79" y2="1460.51" gradientTransform="translate(333.84)" xlink:href="#linear-gradient-11"/><linearGradient id="linear-gradient-56" x1="1326.87" y1="1284.39" x2="1310.7" y2="1360.09" xlink:href="#linear-gradient-11"/><linearGradient id="linear-gradient-57" x1="1130.33" y1="1425.41" x2="1156.13" y2="1425.41" gradientTransform="translate(333.84)" xlink:href="#linear-gradient-12"/><linearGradient id="linear-gradient-58" x1="1362.42" y1="1166.65" x2="1347.54" y2="1261.11" xlink:href="#linear-gradient-11"/><linearGradient id="linear-gradient-59" x1="1342.56" y1="1044.17" x2="1382.03" y2="1020.23" xlink:href="#linear-gradient-12"/><linearGradient id="linear-gradient-60" x1="1329.4" y1="1163.8" x2="1246.9" y2="1369.29" xlink:href="#linear-gradient-11"/><linearGradient id="linear-gradient-61" x1="1341.51" y1="1104.59" x2="1244.02" y2="1210.7" xlink:href="#linear-gradient-7"/><linearGradient id="linear-gradient-62" x1="1095.68" y1="1186.55" x2="1155.28" y2="1186.55" gradientTransform="translate(333.84)" gradientUnits="userSpaceOnUse"><stop offset="0" stop-color="#f9b776"/><stop offset="1" stop-color="#f47960"/></linearGradient><linearGradient id="linear-gradient-63" x1="1480.19" y1="954.78" x2="1473.72" y2="1115.24" xlink:href="#linear-gradient-11"/><linearGradient id="linear-gradient-64" x1="1383.03" y1="1014.79" x2="1336.45" y2="1045.85" xlink:href="#linear-gradient-12"/><linearGradient id="linear-gradient-65" x1="1571.06" y1="-686.72" x2="1628.34" y2="-612.97" gradientTransform="translate(-365.3 1001.86) rotate(22.78)" xlink:href="#linear-gradient-11"/><linearGradient id="linear-gradient-66" x1="1373.39" y1="1000.33" x2="1326.8" y2="1031.38" xlink:href="#linear-gradient-12"/><linearGradient id="linear-gradient-67" x1="1481.51" y1="900.53" x2="1576.67" y2="790.08" gradientTransform="translate(1253.65 -946.25) rotate(52.86)" xlink:href="#linear-gradient-31"/><linearGradient id="linear-gradient-68" x1="1630.44" y1="709.51" x2="1349.05" y2="1134.62" gradientTransform="translate(417.01 -540.08) rotate(22.3)" xlink:href="#linear-gradient-12"/><linearGradient id="linear-gradient-69" x1="1622.05" y1="721.7" x2="1472.21" y2="973.24" xlink:href="#linear-gradient-31"/><linearGradient id="linear-gradient-70" x1="1611.54" y1="899.88" x2="1777.2" y2="707.6" gradientTransform="translate(1019.11 -1052.92) rotate(45)" xlink:href="#linear-gradient-31"/><linearGradient id="linear-gradient-71" x1="1870.8" y1="567.35" x2="1380.95" y2="1307.38" gradientTransform="translate(2060.87 -1190.21) rotate(76.85)" xlink:href="#linear-gradient-12"/><linearGradient id="linear-gradient-72" x1="1856.19" y1="588.56" x2="1595.35" y2="1026.46" xlink:href="#linear-gradient-31"/><linearGradient id="linear-gradient-73" x1="1691.82" y1="1181.42" x2="1862.28" y2="983.56" gradientTransform="translate(2261.07 -1090.25) rotate(73.11)" xlink:href="#linear-gradient-31"/><linearGradient id="linear-gradient-74" x1="1958.6" y1="839.25" x2="1454.54" y2="1600.73" gradientTransform="translate(1239.11 -1032.35) rotate(45)" xlink:href="#linear-gradient-12"/><linearGradient id="linear-gradient-75" x1="1943.56" y1="861.07" x2="1675.16" y2="1311.67" xlink:href="#linear-gradient-31"/><linearGradient id="linear-gradient-76" x1="1901.33" y1="954.35" x2="2026.23" y2="809.38" gradientTransform="translate(2679.29 -1277.53) rotate(85.66)" xlink:href="#linear-gradient-31"/><linearGradient id="linear-gradient-77" x1="2096.8" y1="703.65" x2="1727.48" y2="1261.58" gradientTransform="translate(1888.75 -1372.22) rotate(64.64)" xlink:href="#linear-gradient-12"/><linearGradient id="linear-gradient-78" x1="2085.78" y1="719.63" x2="1889.13" y2="1049.78" xlink:href="#linear-gradient-31"/><linearGradient id="linear-gradient-79" x1="-3168.12" y1="2869.53" x2="-3236.76" y2="2961.74" gradientTransform="translate(5540.72 116.99) rotate(-42.4) scale(1 -1)" xlink:href="#linear-gradient-31"/><linearGradient id="linear-gradient-80" x1="-1927.03" y1="2525.5" x2="-1885.69" y2="2441.26" gradientTransform="translate(3735.61 -1671.72) rotate(-89.26) scale(1 -1)" xlink:href="#linear-gradient-7"/><linearGradient id="linear-gradient-81" x1="-1711.07" y1="2529.44" x2="-1775.42" y2="2420.63" gradientTransform="translate(3735.61 -1671.72) rotate(-89.26) scale(1 -1)" xlink:href="#linear-gradient-7"/><linearGradient id="linear-gradient-82" x1="1302.29" y1="135.54" x2="1422.29" y2="97.54" xlink:href="#linear-gradient-7"/><linearGradient id="linear-gradient-83" x1="-1792.07" y1="2224.17" x2="-1879.43" y2="2350.53" gradientTransform="translate(3735.61 -1671.72) rotate(-89.26) scale(1 -1)" xlink:href="#linear-gradient-11"/><linearGradient id="linear-gradient-84" x1="-1851.17" y1="2332.06" x2="-1795.7" y2="2332.06" gradientTransform="translate(3735.61 -1671.72) rotate(-89.26) scale(1 -1)" xlink:href="#linear-gradient-11"/><linearGradient id="linear-gradient-85" x1="-1842.09" y1="2397.55" x2="-1805.44" y2="2397.55" gradientTransform="translate(3735.61 -1671.72) rotate(-89.26) scale(1 -1)" xlink:href="#linear-gradient-11"/></defs><g id="Illustration"><g><path class="cls-77" d="M469.27,84.71c-120.59,76.23-205.83,17.37-278.71,98.1-227.39,251.87,60.76,347.33-73.09,385.97-145.36,41.95-54.93,227.08,26.86,280.59,81.79,53.51,142.62,85.69,26.41,140.39-116.21,54.69-136.51,115.18-87.78,213.6,48.73,98.42,141.04,129.43,524.68,135.27,383.64,5.84,1126.6-6.54,1329.28-62.54,202.68-56,54.92-200.1,140.14-307.74,85.21-107.64,101.97-170.84-28.53-275.25-130.5-104.41-56.16-212.47-16.98-288.67,39.18-76.21,69.32-214.42-87.95-253.84-157.27-39.42-340.13,117.88-419.22,37.97-79.1-79.91-44.28-185.89-217.02-159.21-172.74,26.68-230.82,233.2-381.45,221.84-150.63-11.36-201-328.06-456.63-166.46Z"/><g class="cls-2"><path class="cls-83" d="M605.39,1420.56s-20.04-230.41-323.66-310.87C79.14,1056,21.98,994.9,6.39,969.59c-1.82-2.95-6.35-1.72-6.38,1.74-.46,42.8,13.06,177.51,187.62,283.6,210.38,127.86,334.99,75.01,417.76,165.63Z"/></g><g class="cls-2"><path class="cls-83" d="M1454.03,1375.91S947.48,851.6,1726.37,150.14c0,0,46.33,301.41-142.2,602.36-188.52,300.94-209.29,480.61-130.14,623.41Z"/><path class="cls-71" d="M1597.13,437.84c-26.12,29.23-49.35,61.06-70.53,94.01-10.63,16.46-20.77,33.24-30.27,50.36-9.58,17.08-18.61,34.45-27.06,52.1-33.9,70.53-58.85,145.33-73.03,222.19-3.58,19.2-6.53,38.53-8.64,57.96-2.15,19.42-3.76,38.9-4.54,58.43-.55,9.76-.56,19.54-.8,29.31,.1,9.77-.04,19.55,.38,29.32,.46,19.55,1.78,39.07,3.57,58.55,7.51,77.94,25.71,154.78,51.93,228.88,.21,.6-.1,1.25-.7,1.46-.58,.2-1.21-.09-1.44-.65-14.9-36.49-27.17-74.06-37.32-112.23-10.08-38.19-17.23-77.18-21.8-116.48-9.02-78.63-6.36-158.7,7.97-236.64,3.52-19.5,7.78-38.86,12.84-58.02,5.01-19.16,10.67-38.16,16.96-56.94,6.27-18.79,13.41-37.27,21.02-55.54,7.65-18.26,15.85-36.28,24.77-53.94,8.89-17.67,18.35-35.05,28.37-52.09,10.06-17.02,20.75-33.66,31.91-49.96,11.23-16.25,23.06-32.09,35.44-47.46,12.39-15.37,25.27-30.33,39.36-44.24,.45-.44,1.18-.44,1.62,.01,.43,.43,.44,1.12,.04,1.57l-.04,.04Z"/></g><g class="cls-9"><path class="cls-83" d="M484.86,263.16c-9.74-15.45-33.69-6.74-31.26,11.36,12.52,93.31,27.4,256.19-1.94,362.64-43.15,156.52-120.72,616.93,316.77,733.48,0,0-41.67-723.77-283.57-1107.48Z"/><path class="cls-71" d="M523.69,455.63c4.92,9.08,8.6,18.59,11.97,28.25,3.36,9.66,6.07,19.51,8.62,29.42,4.84,19.87,8.11,40.1,10.41,60.42l1.45,15.28c.47,5.1,.63,10.2,.96,15.31,.73,10.22,.84,20.44,.99,30.67,.01,2.56,.11,5.12,.06,7.67l-.19,7.66-.37,15.34c-.03,5.12-.53,10.21-.79,15.32l-.94,15.31c-1.45,20.48-4.34,40.74-7.18,60.84l-8.82,60.03c-5.71,39.85-9.72,79.73-9.79,119.55-.18,39.82,4.55,79.44,13.95,117.97,2.69,9.54,4.98,19.21,8.31,28.56,1.59,4.7,3.01,9.46,4.75,14.11l5.4,13.88c.92,2.31,1.76,4.65,2.73,6.93l3.02,6.81,6.05,13.64c2.19,4.47,4.49,8.88,6.74,13.33,2.32,4.41,4.37,8.96,6.97,13.22l7.47,12.96c1.26,2.15,2.46,4.34,3.77,6.47l4.07,6.29,8.09,12.63,2.02,3.16,2.17,3.06,4.35,6.12,8.71,12.25c2.93,4.06,6.15,7.91,9.22,11.88l9.31,11.83c3.16,3.9,6.5,7.65,9.74,11.49,26.06,30.63,54.81,59.05,84.8,86.26,.47,.42,.51,1.15,.09,1.62-.4,.45-1.08,.5-1.55,.15-32.3-24.56-62.93-51.52-91.01-81.14-3.49-3.72-7.12-7.32-10.51-11.14l-9.99-11.62c-3.29-3.91-6.74-7.69-9.91-11.7l-9.43-12.12-4.72-6.07-2.35-3.04-2.21-3.15-8.81-12.61-4.38-6.33c-1.41-2.14-2.72-4.35-4.08-6.53l-8.11-13.11c-21.33-35.19-37.35-73.66-48.37-113.49-10.79-39.93-15.66-81.36-15.79-122.53-.43-41.23,4.39-82.12,10.36-122.37,6.04-40.27,14.16-79.92,18.42-119.63l1.46-14.97c.43-4.99,1.11-9.98,1.32-14.98l.91-15.01,.46-7.51c.14-2.5,.14-5.01,.22-7.51,.24-10.02,.73-20.05,.49-30.07-.07-5.01,.02-10.03-.19-15.04l-.66-15.02c-1.13-20.01-3-40.03-6.42-59.82-1.73-9.88-3.64-19.76-6.19-29.48-2.42-9.73-5.31-19.45-9.09-28.66l-.03-.08c-.24-.58,.04-1.25,.62-1.49,.55-.22,1.17,0,1.44,.51Z"/></g><rect class="cls-3" x="479.14" y="787.88" width="174.32" height="633.05" rx="17.61" ry="17.61"/><path class="cls-76" d="M1080.65,712.19h-138.76c-9.73,0-17.78,9.36-17.78,20.25v667.55c0,10.9,8.05,20.94,17.78,20.94h138.76c9.73,0,20.07-10.04,20.07-20.94V732.45c0-10.9-10.35-20.25-20.07-20.25Z"/><rect class="cls-87" x="697.04" y="590.63" width="174.32" height="830.31" rx="17.61" ry="17.61"/><rect class="cls-56" x="1451.65" y="308.51" width="174.32" height="1112.43" rx="17.61" ry="17.61"/><rect class="cls-25" x="1192.47" y="462.18" width="174.32" height="958.75" rx="17.61" ry="17.61"/><g class="cls-37"><path class="cls-39" d="M635.86,1410.34s-196.48,68.03-343.27-146.93c-137.89-201.92-55.04-454.39,5.8-598.63,3.17-7.51,14.21-6.12,15.42,1.95,18.25,121.44,103.15,596.31,332.55,743.24l-10.49,.38Z"/><path class="cls-5" d="M615.03,1415.18c-25.04-3.51-49.12-11.34-72.52-20.73-23.34-9.6-45.66-21.74-66.67-35.87-20.97-14.19-40.48-30.6-58.22-48.75-17.66-18.24-33.48-38.23-47.5-59.43-13.61-21.46-25.23-44.09-35.28-67.4l-6.83-17.75-3.33-8.91-2.81-9.08-5.62-18.15c-1.61-6.12-3.06-12.28-4.53-18.43-11.61-49.25-15.92-99.95-13.51-150.08,.03-.63,.57-1.12,1.2-1.09,.57,.03,1.03,.47,1.09,1.03v.03c1.31,12.47,2.48,24.89,3.51,37.3l2.43,18.53c.81,6.17,1.4,12.36,2.4,18.49,1.1,6.12,2.11,12.24,3.12,18.36,1.05,6.11,1.89,12.26,3.38,18.29,2.76,12.08,4.82,24.31,8.37,36.17l4.77,17.92,5.66,17.64,2.82,8.82,3.32,8.63,6.56,17.3c9.64,22.7,20.84,44.69,33.87,65.6,13.27,20.74,28.3,40.36,45.16,58.32,16.75,18.06,35.35,34.44,55.38,48.9,19.99,14.53,41.46,27.03,63.84,37.72,22.48,10.39,46,19.1,70.26,24.34l.07,.02c.62,.13,1.01,.74,.88,1.36-.13,.59-.69,.97-1.28,.89Z"/></g><g><path class="cls-67" d="M1316.61,1300.3l320.78-614.54h-65.72c-12.12,0-18.78-14.09-11.1-23.46l341.88-416.69c14.82-18.06,44.09-6.61,42.71,16.71l-24.03,407.47c-1.38,23.33-22.06,40.71-45.27,38.05l-45.82-5.24-318.27,689.27c-8.29,17.94-26.25,29.43-46.01,29.43h-110.31l-38.83-121.01Z"/><path class="cls-89" d="M1051.4,869.29l226.46,503.06c13.41,29.8,43.05,48.96,75.73,48.96h116.75c15.49,0,29.76-8.4,37.28-21.95l4.15-7.48h0c-12.54,0-24.03-7.03-29.73-18.2l-301.73-591.2-128.9,86.83Z"/><path class="cls-72" d="M1210.78,842.18h0c-22.71-17.93-55.89-12.66-71.92,11.43l-332.96,500.25c-26.67,40.07-71.61,64.14-119.74,64.14h-46.85l-38.13-109.84s309.54-474.62,389.32-546.42c0,0,79.45-71.61,157.79-17.47,20.7,14.3,36.41,34.72,46.01,57.97l16.48,39.94Z"/><path class="cls-38" d="M239.04,1012.75s55.74-69.67,163.74-80.5c0,0,51.3,17.48,153.49,200.6,102.19,183.12,170.03,266.63,249.63,221.02l-6.59,10.94c-21.72,36.06-60.74,58.11-102.83,58.11h-44.02c-48.47,0-93.97-23.3-122.28-62.65-79.54-110.57-242.27-330.34-291.13-347.51Z"/><path class="cls-39" d="M1906.59,391.43c-.13,0-.26,0-.39-.02-1.89-.21-3.24-1.92-3.03-3.81l2.25-19.9c.21-1.89,1.92-3.27,3.81-3.03,1.89,.21,3.24,1.92,3.03,3.81l-2.25,19.9c-.2,1.76-1.69,3.05-3.41,3.05Z"/><path class="cls-39" d="M1621.2,642.58c-.73,0-1.47-.23-2.1-.71-1.51-1.16-1.79-3.32-.63-4.82l282.31-366.82c3.35-4.36,9.03-5.9,14.13-3.84,5.1,2.06,8.11,7.12,7.49,12.58l-4.98,43.97c-.21,1.89-1.92,3.25-3.81,3.03-1.89-.21-3.24-1.92-3.03-3.81l4.98-43.97c.33-2.91-1.45-4.71-3.23-5.43-1.78-.72-4.31-.66-6.1,1.66l-282.31,366.82c-.68,.88-1.7,1.34-2.73,1.34Z"/><path class="cls-39" d="M980.74,1027.13c-.66,0-1.33-.19-1.92-.59-1.58-1.06-1.99-3.2-.93-4.78l146-216.42c5.29-7.84,14.07-12.11,23.52-11.38,9.44,.71,17.49,6.25,21.53,14.8,.81,1.72,.08,3.77-1.64,4.58-1.72,.82-3.77,.08-4.58-1.64-2.98-6.29-8.9-10.36-15.83-10.88-6.95-.53-13.4,2.6-17.29,8.37l-146,216.42c-.67,.99-1.75,1.52-2.86,1.52Z"/><path class="cls-39" d="M942.8,1083.37c-.66,0-1.33-.19-1.92-.59-1.58-1.06-1.99-3.2-.93-4.78l9.36-13.88c1.07-1.58,3.2-1.99,4.78-.93,1.58,1.06,1.99,3.2,.93,4.78l-9.36,13.88c-.67,.99-1.75,1.52-2.86,1.52Z"/></g><g class="cls-2"><path class="cls-39" d="M2098.58,632.25c-127.41,56.49-465.85,251.96-611.97,778.86,0,0,197.11,3.3,345-312.81,126.47-270.34,199.21-379.55,276.65-451.46,7.34-6.81-.53-18.65-9.68-14.6Z"/><path class="cls-71" d="M1511.07,1381.61c5.57-15.82,11.72-31.38,18.09-46.87,6.39-15.48,13.05-30.84,19.98-46.09,6.9-15.26,14-30.43,21.43-45.44,3.65-7.54,7.39-15.04,11.18-22.5,3.76-7.49,7.64-14.91,11.56-22.31,15.54-29.69,32.05-58.87,49.22-87.66,17.27-28.73,35.46-56.91,54.25-84.69,37.76-55.42,78.92-108.61,124.08-158.23l17.16-18.4c5.75-6.1,11.76-11.96,17.63-17.95l8.85-8.94,9.12-8.67c6.14-5.71,12.16-11.54,18.39-17.15,24.93-22.42,50.93-43.64,78.08-63.23,.51-.37,1.23-.26,1.6,.26,.36,.5,.26,1.18-.21,1.56l-.02,.02c-25.94,21.03-51.15,42.85-75.03,66.1-23.63,23.49-46.8,47.42-68.55,72.65-43.77,50.2-83.83,103.55-121.01,158.8-18.59,27.63-36.41,55.78-53.66,84.28-17.22,28.52-33.76,57.45-49.9,86.62-32.13,58.4-62.4,117.91-90.1,178.68v.02c-.27,.58-.95,.83-1.53,.57-.54-.25-.8-.87-.61-1.43Z"/></g><g class="cls-2"><path class="cls-83" d="M1486.61,1415.96s56.26-220.6,364.01-250.27c205.36-19.8,270.64-70.02,289.82-92.12,2.23-2.57,6.44-.66,5.92,2.71-6.39,41.64-41.03,170.33-227.52,245.5-224.76,90.6-337.36,19.36-432.23,94.17Z"/><path class="cls-71" d="M1502.81,1373.35c18.96-18.65,40.01-34.96,61.88-50.1,10.97-7.52,22.16-14.76,33.7-21.43,11.49-6.74,23.21-13.15,35.21-19.03,11.97-5.94,24.25-11.25,36.63-16.35,12.45-4.93,25.11-9.39,37.97-13.22,3.22-.95,6.41-1.97,9.65-2.86l9.74-2.57c6.46-1.85,13.09-3.05,19.65-4.51,6.61-1.26,13.24-2.42,19.89-3.47l10.02-1.33,5.01-.66,5.03-.46,10.07-.89c3.35-.35,6.73-.34,10.1-.53l10.11-.4,10.12,.1c6.75-.05,13.49,.54,20.22,.95l9.88,.69,9.72,.72c6.48,.33,12.97,.62,19.45,.77,6.48-.01,12.97,.2,19.44-.04,12.96-.17,25.87-1.2,38.69-2.87,25.63-3.24,50.86-9.85,74.19-20.89,5.76-2.87,11.51-5.84,16.94-9.32,5.48-3.41,10.79-7.1,15.8-11.18,5.04-4.05,9.77-8.49,14.18-13.24,4.37-4.74,8.53-9.9,11.64-15.45l.05-.08c.31-.55,1.01-.75,1.56-.44,.52,.29,.72,.93,.49,1.46-2.75,6.28-6.45,11.84-10.5,17.22-4.06,5.36-8.66,10.29-13.53,14.94-9.7,9.37-20.9,17.09-32.6,23.8-11.77,6.63-24.27,11.89-37.06,16.15-12.8,4.27-25.92,7.54-39.2,9.72-13.27,2.24-26.65,3.81-40.05,4.49-13.41,.92-26.83,.7-40.21,.32l-10.03-.52-9.87-.46c-6.44-.23-12.86-.67-19.31-.47l-9.66,.05-9.65,.45c-3.22,.2-6.44,.22-9.65,.58l-9.63,.92c-25.68,2.6-51.03,8.18-75.92,15.32-24.86,7.28-49.26,16.38-73.02,27.05-5.95,2.64-11.85,5.42-17.76,8.18-5.86,2.87-11.74,5.69-17.51,8.74-11.57,6.05-23.12,12.2-34.39,18.85-11.26,6.66-22.52,13.4-33.48,20.63-11.02,7.13-21.9,14.56-32.45,22.39l-.03,.02c-.51,.38-1.23,.27-1.61-.24-.35-.47-.29-1.11,.12-1.5Z"/></g><g><g><g><path class="cls-32" d="M403.52,1405.76s-1.3,7.21-1.81,15.77c-.22,3.65,2.48,6.81,6.12,7.17,12.66,1.23,41.48,3.5,59.88,.84,2.58-.37,3.6-3.54,1.7-5.31-7.59-7.07-25.91-20.82-56.07-23.83l-9.81,5.37Z"/><path class="cls-94" d="M397.23,1389.51l6.4,15.69c.88,2.15,3.06,3.49,5.37,3.25,1.57-.16,3.42-.46,5.23-1.01,3.61-1.1,5.65-4.93,4.57-8.54l-4.83-16.16-16.74,6.78Z"/><path class="cls-95" d="M287.79,1418.26s12.82,10.72,17.81,24.48c1.37,3.78-1.53,7.77-5.56,7.77h-26.38c-3.86,0-6.82-3.47-6.15-7.28,1.68-9.5,6.53-24.94,20.27-24.98Z"/><path class="cls-21" d="M271.91,1404.3s2.59,11.46,4.58,19.03c.36,1.37,1.83,2.13,3.17,1.65,3.99-1.43,7.24-2.06,9.6-1.74,1.09,.15,2.04-.76,2.06-1.86l.25-19.03-19.65,1.95Z"/><path class="cls-12" d="M340.08,1146.43l77.97,237.86s-14.95,9.79-22.08,9.39l-92.61-191.16s-16.21,117.78-8.35,202.35l-26.53,2.02s-43.13-216.09-10.46-290.11l82.06,29.65Z"/><path class="cls-44" d="M303.86,1200.46s-.06,0-.09,0c-.41-.05-.71-.43-.65-.84l3.03-24.02c.05-.41,.43-.7,.84-.65,.41,.05,.71,.43,.65,.84l-3.03,24.02c-.05,.38-.37,.66-.75,.66Z"/></g><path class="cls-8" d="M354.7,937.12s-63.17,5.61-54.23,50.62c0,0-34.92,65.71-51.24,143.12-.53,2.52,1.16,4.98,3.69,5.41l105.2,18.01c2.9,.5,5.7-1.31,6.44-4.16l25.13-97.14,9.79,45.16,31.12-8.11-26.2-132.71s-3.65-19.36-49.7-20.2Z"/><path class="cls-16" d="M390.22,1048.63c-.06,0-.11,0-.17-.02-.42-.09-.69-.51-.6-.93l8.77-40.26c.09-.42,.5-.69,.93-.6,.42,.09,.69,.51,.6,.93l-8.77,40.26c-.08,.37-.4,.62-.77,.62Z"/><path class="cls-85" d="M383.87,1168.45c-3.31-1.82-7.19-2.33-10.86-1.41l-7.32,1.82c-1.56,.39-3.1-.68-3.28-2.28l-7.57-67.41c-9.47,4.5-23.13,3.96-27.64,3.63l17.43,79.48h61l-21.76-13.82Z"/><path class="cls-24" d="M545.95,1022.22l-1.84-6.13c-1.06-3.53-3.67-6.38-7.08-7.75l-33.35-13.41s-.5-4.28,7.05-7.18c7.55-2.91,5.78-11.36,5.78-11.36,0,0-10.31,4.7-25.41,12.17-8.64,4.27-13.48,11.8-16.05,17.47l-75.57,92.12,8.87,6.1c11.67,8.02,27.71,4.08,34.34-8.43l40.94-78.5c20.55,6.17,41.35,7.35,62.32,4.91Z"/><g><path class="cls-53" d="M375.16,894.15l-19.43,54.38s17.2,13.45,29.76,8.9l9.79-31.17s-7.48-38.1-20.12-32.11Z"/><g><path class="cls-73" d="M433.15,874.62c0,.84-18.72,52.98-18.72,52.98l-29.55-11.32,10.4-52.06s37.86-3.63,37.86,10.39Z"/><path class="cls-84" d="M400.46,876.91l-7.62,26.97c-.1,.35-.15,.69-.15,1.05,0,2.2,.54,9.77,8.25,8.74,7-.93,13.4-1.68,17.47,.23,1.83,.86,2.7,2.96,2.02,4.86-1.7,4.74-5.73,15.34-10.64,24.02-1,1.76-3.18,2.45-5.02,1.61-5.55-2.52-17.1-8.18-25.33-14.9-1.12-.91-1.65-2.34-1.39-3.76,1.29-6.9,5.15-27.89,5.32-33.9,.16-5.65-6.18-9.95-8.96-11.57-.91-.53-1.56-1.41-1.81-2.43-.88-3.63-1.62-11.86,8.87-13.67,2.2-.38,3.63-2.48,3.18-4.66-.89-4.35-.6-10.74,7.65-13.1,8.39-2.39,13.67,2.65,16.35,6.53,1.09,1.57,3.12,2.07,4.86,1.3,.99-.44,2.19-.46,3.47,.62,1.73,1.46,4.37,1.02,5.64-.86,2.45-3.6,6.89-7.19,14.41-4.76,13.35,4.32,12.71,19.71,7.82,28.08-4.89,8.37-19.1,2.86-25.82-2.68-5.11-4.22-12.9-1.69-16.34-.24-1.09,.46-1.9,1.39-2.22,2.53Z"/><path class="cls-69" d="M380.7,901.69s7.9-14.94,2.68-19.64c-5.22-4.69-14.07-3.93-13.84,7.76,.3,14.54,11.16,11.88,11.16,11.88Z"/></g></g><path class="cls-55" d="M333.33,1103.81c-4.31,0-7.39-.33-7.72-.36l-.56-.06-23-107.24c-.09-.42,.18-.84,.6-.93,.43-.09,.84,.18,.93,.6l22.76,106.13c3.42,.3,21.7,1.51,31.35-5.32l-19.93-93.17,4.16-7.84c.2-.38,.68-.53,1.06-.33,.38,.2,.53,.68,.32,1.06l-3.89,7.33,20.02,93.6-.4,.3c-6.97,5.24-18.2,6.23-25.71,6.23Z"/></g><g><path class="cls-47" d="M363.09,1459.69c-.6,0-1.2-.13-1.79-.4-2.3-1.08-3.36-3.99-2.37-6.5l95-241.05c.99-2.51,3.65-3.67,5.95-2.59,2.3,1.08,3.36,3.99,2.37,6.5l-95,241.05c-.74,1.87-2.41,2.99-4.16,2.99Z"/><path class="cls-47" d="M470.12,1459.69c-1.76,0-3.43-1.12-4.16-2.99l-95-241.05c-.99-2.51,.07-5.42,2.37-6.5,2.3-1.08,4.96,.08,5.95,2.59l95,241.05c.99,2.51-.07,5.42-2.37,6.5-.58,.27-1.19,.4-1.79,.4Z"/><path class="cls-47" d="M767.47,1459.69c-.6,0-1.2-.13-1.79-.4-2.3-1.08-3.36-3.99-2.37-6.5l95-241.05c.99-2.51,3.65-3.67,5.95-2.59,2.3,1.08,3.36,3.99,2.37,6.5l-95,241.05c-.74,1.87-2.41,2.99-4.16,2.99Z"/><path class="cls-47" d="M874.49,1459.69c-1.76,0-3.43-1.12-4.16-2.99l-95-241.05c-.99-2.51,.07-5.42,2.37-6.5,2.3-1.08,4.96,.08,5.95,2.59l95,241.05c.99,2.51-.07,5.42-2.37,6.5-.58,.27-1.19,.4-1.79,.4Z"/></g><g><rect class="cls-96" x="703.76" y="1297.26" width="11.23" height="121.47"/><path class="cls-78" d="M758.57,1421.07h-98.38v-.53c0-3.75,3.04-6.78,6.78-6.78h84.28c4.04,0,7.31,3.27,7.31,7.31h0Z"/><rect class="cls-20" x="649.48" y="1270.04" width="123.69" height="35.08" rx="12.08" ry="12.08"/></g><g><path class="cls-62" d="M626.46,1216.27s-16.69,2.59-35.46,15.13c-2.95,1.97-4.57,5.42-4.13,8.94,2.25,17.8,11.49,75.41,41.95,131.68,1.61,2.97,2.07,6.42,1.36,9.72l-5.29,24.63-9.82,9.2h25.28l16.83-45.56-7.2-2.28c-5.58-1.76-9.41-6.9-9.51-12.75l-.84-48.87c.72-21.77-13.35-36.79-13.35-36.79l40.38-1.96-40.21-51.1Z"/><path class="cls-81" d="M605.2,1420.02c-2.3,3.01,24.78,6.99,38.47,.4,0,0,18.97-33,18.97-49.99,0,0-1.51-3.46-12.64-2.68,0,0-6.37,39.08-13.09,43.45-6.73,4.38-18.82,.44-18.82,.44,0,0-9.48,3.93-12.88,8.38Z"/><path class="cls-82" d="M661.56,1270.04c-.21-.37-43.47-5.2-43.47-5.2,0,0,1.42,13.15-3.01,31.26-4.42,18.11-67.94,96.55-67.94,96.55l6.66,21.11c-20.59,7.17-40.84,8.32-60.77,3.66l41.27-24.77s38.62-131.63,62.28-155.11l43.36-15,21.62,47.5Z"/><path class="cls-45" d="M758.57,1193.46s24.92,37.07,26.97,53.98c2.05,16.91-6.83,23.78-32.98,24.91-26.15,1.13-95.96,1.11-95.96,1.11l-59.58-50.92s43.42-15.49,54.71-19.88c11.29-4.38,106.84-9.21,106.84-9.21Z"/><path class="cls-31" d="M551.28,1406.65s7.17,6.94,2.33,14.67c0,0-56.8,10.07-72.22,5.5,0,0,3.2-7.31,20.57-15.63l-1.28,.98c-1.62,1.24-.67,3.84,1.37,3.72,11.44-.65,35.12-2.75,49.23-9.25Z"/></g><g><path class="cls-79" d="M708.2,985.21c3.77,1.17,17.34,6.05,15.59,14.78-.23,1.16,.86,2.14,2,1.83,5.85-1.57,18.77-3.56,26.78,6.48,7.07,8.86,1.79,17.22-2.52,21.81-1.04,1.11-.17,2.91,1.34,2.72,10.75-1.36,34.12-1.68,37.94,20.21,3.56,20.41-10.64,26.17-19.07,27.79-1.43,.27-1.76,2.15-.53,2.93,4.2,2.67,9.07,8.18,7.11,19.05-3.08,17.05-36.5,15.65-40.41,15.43-.25-.01-.48-.09-.7-.21l-53.53-30.53c-.42-.24-.71-.65-.79-1.12l-10.81-62.41c-.09-.5,.07-1.02,.43-1.39l35.54-36.94c.42-.44,1.05-.61,1.63-.42Z"/><path class="cls-47" d="M691.17,1188.55s-29.02-27.64-43.31-45.94c-7.72-9.89-10.15-22.92-6.58-34.95,6.52-21.97,18.11-44.73,19.17-48.28,1.62-5.43,34.16-5.2,34.16-5.2,0,0,64.04,41.56,89.2,111.96l-28.26,8.8s-16.72-28.05-33.24-45.88c0,0,28.59,37.76,29.59,53.22l-60.74,6.28Z"/><path class="cls-63" d="M656.52,1029.04c.34,1.13,8.83,29.29,9.5,29.87,.66,.58,18.63,1.55,27.08-4.23l-14.34-30.03-22.24,4.38Z"/><g><path class="cls-29" d="M670.47,969.89s-15.33,6.47-25.76,28.63c-10.43,22.16-2.64,32.39,7.14,33.79,9.78,1.4,24.41,1.19,39.88-13.12,15.47-14.31-1.32-56.98-21.26-49.3Z"/><path class="cls-22" d="M681.33,1007.37s11.57-32.42-17.17-32.8l-6.76,4.73s-10.55-17.97,6.76-26.55c17.31-8.58,37.57-1.49,44.93,21.83,7.37,23.32,8.62,38.93-3.63,50.08-12.25,11.16-17.3-1.49-17.3-1.49,0,0,6.67-10.43,3.96-16.02s-8.98,1.15-8.98,1.15l-1.8-.93Z"/><path class="cls-42" d="M684.55,1010.98s5.85-16.7,13.65-10.05c7.8,6.65-6.34,15.43-11.88,18.27l-1.77-8.22Z"/></g><path class="cls-80" d="M632.04,1190.6l21.32-20.55,29.5,12.46s29.36,4.55,46.17,0l16.81-4.55,37.98-11.82,5.96,16.86c1.51,4.28,0,9.03-3.71,11.66-3.29,2.33-7.14,4.9-9.59,5.97-5,2.19-123.28-1.51-123.28-1.51l-21.15-8.51Z"/></g><g><path class="cls-36" d="M712.74,1200.29c-.09,0-.19,0-.28,0l-123.69-.14c-3.06,0-5.53-2.48-5.53-5.54,0-3.06,2.49-5.59,5.54-5.53l123.69,.13c3.06,0,5.53,2.48,5.53,5.54,0,2.96-2.33,5.38-5.26,5.52Z"/><path class="cls-18" d="M477.56,1087.98h103.01c7.6,0,14.52,4.39,17.76,11.26l47.62,100.98h-128.02c-4.9,0-9.3-2.99-11.1-7.55l-36.93-93.44c-2.13-5.4,1.85-11.25,7.65-11.25Z"/><path class="cls-51" d="M550.14,1139.76c2.23,6.94,.58,13.67-3.68,15.04-4.27,1.37-9.54-3.14-11.77-10.07-2.23-6.94-.58-13.67,3.68-15.04,4.27-1.37,9.53,3.14,11.77,10.07Z"/></g><g><path class="cls-75" d="M464.65,1196.34h-121.74v-12.56h121.74c-2.61,0-2.61,12.56,0,12.56Z"/><path class="cls-11" d="M343.92,1196.34c-.55,0-1-.45-1-1v-10.56c0-.55,.45-1,1-1h123.45c.55,0,1-.45,1-1v-.84c0-.55-.45-1-1-1h-131.42c-2.9,0-5.26,2.35-5.26,5.26v8.03c0,2.74,2.22,4.96,4.96,4.96h131.72c.55,0,1-.45,1-1v-.84c0-.55-.45-1-1-1h-123.45Z"/></g><path class="cls-39" d="M885.61,1204.81c.31-1.4-.11-2.85-1.16-3.95-1.05-1.1-2.61-1.74-4.25-1.74H323.09c-2.16,0-4.18,.96-5.34,2.54-1.17,1.58-1.32,3.57-.41,5.28l6.04,11.35c1.38,2.6,4.38,4.26,7.67,4.26H876.38c3.07,0,5.7-1.89,6.28-4.5l2.95-13.23Z"/></g><g><polygon class="cls-90" points="560.27 574.37 556.97 568.33 788.97 441.57 1004.64 536.37 1189.82 354.72 1190.19 354.51 1407.63 226.19 1411.12 232.11 1194.04 360.23 1006.13 544.55 789.3 449.23 560.27 574.37"/><path class="cls-60" d="M583.58,571.35c0,13.78-11.17,24.95-24.95,24.95s-24.95-11.17-24.95-24.95,11.17-24.95,24.95-24.95,24.95,11.17,24.95,24.95Z"/><circle class="cls-93" cx="789.13" cy="445.4" r="24.95" transform="translate(174.34 1111.09) rotate(-76.72)"/><circle class="cls-92" cx="1005.39" cy="535.71" r="24.95" transform="translate(-84.33 867.82) rotate(-45)"/><circle class="cls-30" cx="1185.99" cy="357.48" r="24.95"/><circle class="cls-41" cx="1409.37" cy="229.15" r="24.95" transform="translate(658.32 1443.55) rotate(-67.5)"/></g><g><g><g><path class="cls-47" d="M1195.31,1296.72c-3.28,4.85-16.31,114.7-18.35,155.27-.14,2.74,2.06,5.03,4.8,5.03h0c2.37,0,4.39-1.73,4.75-4.07l23.83-152.74-15.04-3.49Z"/><path class="cls-47" d="M1300.08,1296.72c3.28,4.85,16.31,114.7,18.35,155.27,.14,2.74-2.06,5.03-4.8,5.03h0c-2.37,0-4.38-1.73-4.75-4.07l-23.83-152.74,15.04-3.49Z"/><path class="cls-33" d="M1175.6,1288.15v1.2c-.09,8.62,7.33,15.69,16.63,15.84l110.17,1.87c9.16,.16,16.8-6.47,17.24-14.95l.06-1.1c.46-8.85-7.05-16.3-16.61-16.47l-110.22-1.98c-9.43-.17-17.2,6.83-17.28,15.58Z"/></g><g><g><path class="cls-4" d="M1389.92,1448c-19.58,0-28.25-1.68-32.12-3.21,.75,3.22,3.62,5.76,7.24,5.76h69.28c2.33,0,3.81-2.23,3.25-4.26-7.9,.64-24.67,1.71-47.64,1.71Z"/><path class="cls-19" d="M1437.57,1446.29c-.11-.41-.28-.81-.57-1.18-5.28-6.74-15.88-17.32-30.3-17.12-21.13,.3-28.49,2.59-44.91,.13l-3.87,12.84c-.39,1.31-.4,2.62-.12,3.83,3.87,1.53,12.54,3.21,32.12,3.21,22.97,0,39.75-1.08,47.64-1.71Z"/></g><path class="cls-26" d="M1366.55,1414.29l-4.75,16.17s10.53,4.79,19.8,.95l1.82-14.01-16.86-3.11Z"/><g><path class="cls-59" d="M1510.14,1437.82c-15.27,12.27-23.07,16.39-27.04,17.63,2.59,2.02,6.41,2.2,9.23-.07l54.01-43.4c1.82-1.46,1.57-4.12-.12-5.34-5.76,5.44-18.16,16.78-36.07,31.17Z"/><path class="cls-61" d="M1546.21,1406.65c-.34-.25-.72-.45-1.18-.56-8.31-1.92-23.18-3.49-34.29,5.7-16.28,13.46-20.6,19.86-34.93,28.23l4.98,12.39c.51,1.26,1.32,2.28,2.3,3.04,3.98-1.24,11.78-5.36,27.04-17.63,17.91-14.39,30.31-25.73,36.07-31.17Z"/></g><path class="cls-17" d="M1264.85,1230.07s117.25,9.57,141.3,20.9c24.05,11.32-19.63,170.02-19.63,170.02,0,0-6.55,3.15-21.12-1.38,0,0,14.94-117.11,3.82-142.51l-126.95-20.76,22.57-26.27Z"/><path class="cls-91" d="M1464.17,1417.72c1.09,.99,11.65,22.29,11.65,22.29,0,0,11.76-2.54,14.16-9.98l-10.58-19.22-15.23,6.92Z"/><path class="cls-13" d="M1194.23,1229.09s-3.82,9.19-3.67,21.41c.22,16.9,13.8,30.61,30.68,31.45l138.61,6.32c2.93,.13,5.4,2.16,6.14,5,3.26,12.6,19.18,51.29,97,128.49,2.07,2.05,5.3,2.4,7.76,.85l11.08-7c1.16-.73,1.53-2.26,.84-3.45l-80.71-137.82c-4.24-7-11.05-12.05-18.98-14.07l-118.14-30.2-70.62-.98Z"/><path class="cls-40" d="M1355.03,1016.9s-39.05,23.16-54.19,35.88l31.29,17.46s16.91-19.53,33.02-27.67l-10.12-25.67Z"/><path class="cls-27" d="M1191.71,1230.07s37.42,9.12,73.14,0c0,0,49.98-67.19,69.31-85.47,0,0,30.84,48.67,99.49,55.56l3.83-8.56s-54.65-25.19-71.48-63.9-23.58-55.22-38.89-65.32c-9.53-6.29-15.24-10.59-18.19-12.93-1.62-1.28-3.84-1.43-5.61-.36-16.24,9.9-92.68,62.25-111.61,180.97Z"/><path class="cls-48" d="M1332.13,1142.06c.17,0,.35-.05,.49-.17,.36-.27,.42-.78,.15-1.14-11.63-15.17-18.31-32.41-18.38-32.58-.16-.42-.63-.63-1.05-.47-.42,.16-.63,.63-.47,1.05,.07,.17,6.83,17.63,18.61,32.99,.16,.21,.4,.32,.65,.32Z"/><path class="cls-50" d="M1429.52,1187.14l7.73-2.06,23.46-5.43c2.82-.65,5.79-.15,8.25,1.39l20.17,12.69-55.71-.09-3.9-6.5Z"/></g><g><path class="cls-83" d="M1408,1204.66c.09,0,.18,0,.27,0l119.01-.12c2.94,0,5.32-2.39,5.32-5.32,0-2.94-2.4-5.36-5.33-5.31l-119.01,.12c-2.94,0-5.32,2.39-5.32,5.32,0,2.85,2.25,5.17,5.06,5.31Z"/><path class="cls-83" d="M1573.37,1088.11c-.04,.08-.08,.16-.12,.25l-50.07,107.96c-1.24,2.67-.08,5.83,2.58,7.07,2.67,1.24,5.88,.09,7.07-2.6l50.07-107.96c1.24-2.67,.08-5.83-2.58-7.07-2.58-1.2-5.63-.14-6.94,2.35Z"/></g><g><path class="cls-39" d="M1460.99,1210.63c-.52,2.15-50.18,188.39-62.77,235.61-1.45,5.44,2.6,10.78,8.17,10.78h0c3.88,0,7.27-2.68,8.21-6.49l55.12-223.49-8.73-16.41Z"/><path class="cls-39" d="M1488.18,1210.63c.52,2.15,50.18,188.39,62.77,235.61,1.45,5.44-2.6,10.78-8.17,10.78h0c-3.88,0-7.27-2.68-8.21-6.49l-55.12-223.49,8.73-16.41Z"/><path class="cls-39" d="M1490.25,1204.54h-30.93v24.84c0,3.57,2.86,6.46,6.39,6.46h4.24v55.79c0,2.7,2.16,4.89,4.83,4.89h0c2.67,0,4.83-2.19,4.83-4.89v-55.79h2.15c4.68,0,8.48-3.84,8.48-8.58v-22.72Z"/><path class="cls-34" d="M1383.28,1198.57h172.69c2.41,0,4.52,1.65,5.12,4.02l2.41,9.45c.87,3.4-1.68,6.72-5.15,6.69l-177.19-1.03c-3.43-.02-5.94-3.29-5.1-6.66l2.1-8.42c.59-2.38,2.71-4.05,5.13-4.05Z"/></g></g><g><path class="cls-57" d="M1381.75,1007.77s.36,27.72-4.12,40.31c-4.48,12.59-5.18,21.68-20.44,18.19-15.26-3.49-24.27-15.61-25.62-30.59,0,0-2.24-23.15,3.28-29.92,5.53-6.77,46.89,2.02,46.89,2.02Z"/><path class="cls-64" d="M1340.13,1028.91l1.8,.75s-1.03-18.31,6.6-18.24c7.63,.06,35.62,5.63,45.03-1.18,9.07-6.57,9.07-19.97,3.25-26.16-.37-.39-.99-.4-1.41-.06l-1.06,.87c-.73,.6-1.81,0-1.71-.93h0c.1-.89-.89-1.51-1.62-.99-2.85,2.02-9.33,4.53-22.66,1.62-18.91-4.13-33.49-1.9-38.87,10.11-.34,.76-1.34,.84-1.83,.16-.96-1.33-2.88-2.57-6.63-1.41-6.52,2.03-8.96,13.37-2.03,26.45,.33,.62,0,1.4-.7,1.53-2.44,.44-6.54,2.21-.8,9.27,5.87,7.22,10.53,8.66,12.4,8.94,.5,.07,.98-.21,1.15-.69l3.85-11.03c.2-.57,.84-.85,1.39-.62l3.83,1.61Z"/><path class="cls-68" d="M1339.63,1031.34s2.39-16.6-6.08-15.22c-8.47,1.38-3.56,18.24,1.6,21.06l4.48-5.84Z"/></g></g><g><g><circle class="cls-35" cx="1578.59" cy="787.84" r="70.95" transform="translate(-2.49 1570.67) rotate(-52.86)"/><circle class="cls-49" cx="1578.59" cy="787.84" r="68.59" transform="translate(-180.89 657.92) rotate(-22.3)"/><path class="cls-6" d="M1522.04,761.65c-.35,0-.7-.08-1.03-.25-1.13-.57-1.58-1.95-1.01-3.08,11.23-22.26,33.69-36.08,58.6-36.08,3.98,0,7.96,.36,11.83,1.06,1.25,.23,2.07,1.42,1.85,2.67-.23,1.25-1.41,2.08-2.67,1.85-3.61-.65-7.31-.99-11.01-.99-23.17,0-44.06,12.86-54.51,33.56-.4,.8-1.21,1.26-2.05,1.26Z"/><circle class="cls-7" cx="1580.09" cy="789.34" r="58.05"/><path class="cls-14" d="M1574.39,832.49v-6.32c-6.58-.26-13.1-1.82-17.72-3.84-1.65-.72-2.49-2.58-2.02-4.32l1.6-5.88c.59-2.16,2.94-3.27,5-2.41,4.59,1.92,10.25,3.44,16.36,3.44s11.07-2.15,11.07-6.56c0-3.98-3.65-6.34-12.47-8.71-12.57-3.44-21.6-8.92-21.6-19.99,0-10,7.31-17.63,19.99-19.67v-6.32c0-2.03,1.65-3.68,3.68-3.68h3.71c2.03,0,3.68,1.65,3.68,3.68v5.67c6.09,.24,10.53,1.29,14.05,2.52,1.8,.63,2.79,2.58,2.29,4.42l-1.48,5.44c-.57,2.1-2.81,3.25-4.84,2.48-3.24-1.23-7.82-2.5-13.78-2.5-7.52,0-9.67,3.12-9.67,5.91,0,3.44,4.51,5.8,14.29,8.81,13.97,4.19,19.78,10,19.78,20.42,0,9.57-7.09,18.16-20.85,20.31v7.07c0,2.03-1.65,3.68-3.68,3.68h-3.71c-2.03,0-3.68-1.65-3.68-3.68Z"/></g><g><circle class="cls-65" cx="1780.54" cy="703.71" r="123.5" transform="translate(23.91 1465.15) rotate(-45)"/><circle class="cls-86" cx="1780.54" cy="703.71" r="119.4" transform="translate(690.33 2277.55) rotate(-76.85)"/><path class="cls-6" d="M1682.09,656.41c-.35,0-.7-.08-1.03-.25-1.13-.57-1.58-1.95-1.01-3.08,19.27-38.17,57.78-61.88,100.5-61.88,6.82,0,13.65,.61,20.29,1.83,1.25,.23,2.07,1.42,1.85,2.67-.23,1.25-1.42,2.09-2.67,1.84-6.38-1.16-12.93-1.75-19.47-1.75-40.98,0-77.92,22.75-96.41,59.36-.4,.8-1.21,1.26-2.05,1.26Z"/><circle class="cls-7" cx="1783.14" cy="706.31" r="101.06"/><path class="cls-54" d="M1773.23,781.44v-10.99c-11.46-.46-22.8-3.16-30.85-6.69-2.88-1.26-4.34-4.48-3.51-7.51l2.79-10.24c1.02-3.76,5.11-5.7,8.7-4.19,7.99,3.35,17.85,6,28.48,6s19.27-3.74,19.27-11.41c0-6.92-6.36-11.04-21.7-15.15-21.89-5.99-37.61-15.53-37.61-34.8,0-17.4,12.72-30.69,34.8-34.24v-11c0-3.54,2.87-6.41,6.41-6.41h6.46c3.54,0,6.41,2.87,6.41,6.41v9.87c10.61,.42,18.33,2.24,24.45,4.39,3.14,1.1,4.85,4.48,3.98,7.7l-2.57,9.47c-.99,3.65-4.89,5.65-8.43,4.31-5.64-2.13-13.62-4.35-23.98-4.35-13.1,0-16.84,5.43-16.84,10.29,0,5.99,7.86,10.1,24.88,15.34,24.32,7.3,34.43,17.4,34.43,35.55,0,16.65-12.35,31.62-36.3,35.36v12.3c0,3.54-2.87,6.41-6.41,6.41h-6.46c-3.54,0-6.41-2.87-6.41-6.41Z"/></g><g><circle class="cls-70" cx="1865.72" cy="979.56" r="127.08" transform="translate(386.42 2480.27) rotate(-73.11)"/><circle class="cls-74" cx="1865.72" cy="979.56" r="122.86" transform="translate(-146.2 1606.17) rotate(-45)"/><path class="cls-6" d="M1764.41,930.82c-.35,0-.7-.08-1.03-.25-1.13-.57-1.58-1.95-1.01-3.08,19.81-39.25,59.42-63.64,103.35-63.64,7.01,0,14.03,.63,20.87,1.88,1.25,.23,2.07,1.42,1.85,2.67-.23,1.25-1.41,2.08-2.67,1.84-6.57-1.2-13.31-1.8-20.05-1.8-42.2,0-80.23,23.42-99.26,61.12-.4,.8-1.21,1.26-2.05,1.26Z"/><circle class="cls-7" cx="1868.4" cy="982.24" r="103.98" transform="translate(478.94 2571.3) rotate(-76.57)"/><path class="cls-1" d="M1858.19,1059.55v-11.31c-11.79-.47-23.46-3.26-31.74-6.88-2.96-1.3-4.47-4.62-3.62-7.73l2.87-10.54c1.05-3.87,5.26-5.87,8.95-4.32,8.22,3.45,18.37,6.17,29.31,6.17s19.83-3.85,19.83-11.75c0-7.12-6.55-11.36-22.33-15.59-22.53-6.16-38.7-15.98-38.7-35.81,0-17.91,13.09-31.58,35.81-35.23v-11.31c0-3.64,2.95-6.59,6.59-6.59h6.65c3.64,0,6.59,2.95,6.59,6.59v10.16c10.91,.44,18.86,2.3,25.16,4.52,3.23,1.13,4.99,4.61,4.1,7.92l-2.64,9.75c-1.02,3.76-5.04,5.82-8.68,4.44-5.8-2.19-14.01-4.48-24.68-4.48-13.48,0-17.33,5.58-17.33,10.59,0,6.16,8.09,10.4,25.61,15.79,25.03,7.51,35.42,17.9,35.42,36.58,0,17.13-12.71,32.54-37.35,36.39v12.66c0,3.64-2.95,6.59-6.59,6.59h-6.65c-3.64,0-6.59-2.95-6.59-6.59Z"/></g><g><circle class="cls-52" cx="2028.75" cy="806.45" r="93.11" transform="translate(1071.01 2768.32) rotate(-85.66)"/><circle class="cls-88" cx="2028.75" cy="806.45" r="90.02" transform="translate(431.22 2294.43) rotate(-64.64)"/><path class="cls-6" d="M1954.52,771.35c-.35,0-.7-.08-1.03-.25-1.13-.57-1.58-1.95-1.01-3.08,14.62-28.97,43.85-46.96,76.27-46.96,5.17,0,10.35,.47,15.4,1.39,1.25,.23,2.07,1.42,1.85,2.67-.23,1.25-1.41,2.09-2.67,1.85-4.78-.87-9.69-1.31-14.58-1.31-30.68,0-58.34,17.03-72.18,44.44-.4,.8-1.21,1.26-2.05,1.26Z"/><circle class="cls-7" cx="2030.71" cy="808.41" r="76.19" transform="translate(-143.24 1034.79) rotate(-27.65)"/><path class="cls-23" d="M2023.23,865.05v-8.29c-8.64-.35-17.19-2.39-23.26-5.04-2.17-.95-3.27-3.38-2.65-5.66l2.11-7.72c.77-2.83,3.85-4.3,6.56-3.16,6.02,2.52,13.46,4.52,21.47,4.52s14.53-2.82,14.53-8.61c0-5.22-4.8-8.32-16.36-11.43-16.5-4.51-28.35-11.71-28.35-26.24,0-13.12,9.59-23.13,26.24-25.81v-8.29c0-2.67,2.16-4.83,4.83-4.83h4.87c2.67,0,4.83,2.16,4.83,4.83v7.44c8,.32,13.82,1.69,18.43,3.31,2.37,.83,3.66,3.38,3,5.8l-1.94,7.14c-.75,2.75-3.69,4.26-6.36,3.25-4.25-1.61-10.27-3.28-18.08-3.28-9.87,0-12.7,4.09-12.7,7.76,0,4.51,5.92,7.62,18.76,11.57,18.34,5.5,25.96,13.12,25.96,26.8,0,12.55-9.31,23.84-27.37,26.66v9.28c0,2.67-2.16,4.83-4.83,4.83h-4.87c-2.67,0-4.83-2.16-4.83-4.83Z"/></g></g><g><path class="cls-47" d="M1071.93,148.66s.47-.78,1.37-2.19c.51-.8,1.58-1.03,2.37-.52,.35,.23,.59,.56,.71,.93,.74-.2,1.57-.42,2.5-.64,.92-.22,1.85,.34,2.08,1.26,.22,.92-.34,1.85-1.26,2.08-2.6,.63-4.43,1.2-5.32,1.47-.25,.08-.43,.13-.52,.15l-4.09,1.1,2.17-3.64Zm6.23-9.38c1.64-2.32,3.37-4.67,5.14-6.98,.58-.75,1.66-.9,2.41-.32,.75,.58,.9,1.65,.32,2.41-1.74,2.27-3.44,4.59-5.06,6.87-.55,.77-1.62,.96-2.4,.41-.13-.1-.25-.21-.35-.33-.47-.58-.51-1.43-.06-2.07Zm7.87,7.23c-.14-.94,.51-1.81,1.45-1.95,2.96-.43,5.9-.72,8.73-.84,.95-.04,1.75,.69,1.79,1.64,.04,.95-.69,1.75-1.64,1.79-2.71,.12-5.53,.39-8.38,.81-.63,.09-1.22-.17-1.59-.63-.18-.23-.31-.51-.36-.82Zm17.14-1.06c.08-.95,.91-1.65,1.85-1.57,3.04,.25,5.98,.71,8.74,1.38,.92,.22,1.49,1.15,1.27,2.07-.22,.92-1.15,1.49-2.07,1.27-2.59-.62-5.35-1.06-8.22-1.29-.49-.04-.92-.28-1.2-.64-.26-.33-.41-.76-.37-1.21Zm-14.48-19.92c1.85-2.24,3.74-4.46,5.63-6.58,.63-.71,1.72-.77,2.43-.14,.71,.64,.78,1.72,.14,2.43-1.86,2.09-3.72,4.27-5.54,6.48-.6,.73-1.69,.84-2.42,.23-.09-.08-.18-.16-.25-.25-.5-.62-.51-1.53,.02-2.16Zm31.23,23.46c.39-.86,1.41-1.25,2.28-.85,1.96,.89,3.84,1.93,5.59,3.08,.69,.46,1.37,.88,2.04,1.29,.81,.49,1.07,1.55,.58,2.36-.49,.81-1.55,1.07-2.36,.58-.7-.43-1.42-.88-2.14-1.36-1.6-1.05-3.32-2-5.12-2.82-.26-.11-.47-.29-.63-.49-.39-.49-.5-1.18-.22-1.79Zm23.4,24.33c.49-.49,1.21-.63,1.82-.4,1.5-.46,3.18-.56,5.16-.35,.94,.1,1.62,.95,1.52,1.89-.1,.94-.95,1.63-1.89,1.52-2.41-.26-4.06,.06-5.54,1.07l-2.19-2.63,1.11-1.11Zm-8.34-16.11c.35-.88,1.35-1.31,2.23-.96,2.73,1.09,5.36,1.79,7.83,2.08,.94,.11,1.62,.97,1.51,1.91-.11,.94-.96,1.62-1.91,1.51-2.77-.33-5.7-1.1-8.71-2.3-.29-.11-.52-.3-.7-.52-.37-.47-.49-1.12-.25-1.71Zm-34.79-44.63c2.01-2.09,4.07-4.15,6.13-6.13,.68-.66,1.77-.63,2.43,.05,.66,.69,.63,1.77-.05,2.43-2.02,1.94-4.05,3.97-6.03,6.03-.66,.68-1.74,.71-2.43,.05-.06-.05-.11-.11-.15-.17-.53-.66-.5-1.63,.1-2.26Zm49.14,54.6c2.3-2.39,4.28-4.48,5.88-6.23,.64-.7,1.73-.75,2.43-.11,.68,.65,.75,1.73,.11,2.43-1.62,1.77-3.62,3.89-5.95,6.3-.66,.68-1.75,.7-2.43,.04-.05-.05-.1-.11-.15-.17-.53-.66-.5-1.64,.11-2.27Zm7.5,8.49c.22-.92,1.15-1.49,2.07-1.27,2.45,.59,5.14,1.2,8.28,1.69,.94,.15,1.58,1.03,1.43,1.96-.15,.94-1.02,1.58-1.96,1.43-3.25-.51-6.03-1.14-8.55-1.74-.39-.09-.71-.31-.94-.6-.32-.4-.46-.94-.33-1.48Zm-5.14-15.76c-.26-.91,.27-1.86,1.19-2.12,2.66-.75,4.56-1.95,5.83-2.74,.53-.34,.97-.6,1.31-.77,.18-.09,.34-.15,.48-.2,.9-.31,1.82,.19,2.13,1.09,.31,.9-.22,1.9-1.12,2.2-.25,.12-.57,.33-.97,.58-1.34,.84-3.59,2.26-6.72,3.14-.69,.19-1.39-.06-1.81-.58-.14-.17-.25-.38-.31-.61Zm-38.98-59.32c1.95-1.71,3.94-3.37,5.9-4.94l.77-.61c.74-.59,1.82-.46,2.41,.28h0c.59,.75,.46,1.83-.28,2.42l-.76,.6c-1.92,1.54-3.87,3.17-5.78,4.84-.71,.63-1.8,.55-2.42-.16-.02-.02-.03-.04-.05-.06-.57-.71-.48-1.76,.21-2.37Zm61.03,77.97c.04-.95,.84-1.68,1.79-1.64,2.73,.12,5.55,.09,8.41-.07,.95-.06,1.76,.66,1.82,1.61,.06,.95-.67,1.76-1.61,1.82-2.97,.18-5.92,.2-8.76,.08-.52-.02-.97-.27-1.27-.64-.25-.31-.39-.71-.37-1.15Zm17.14-.64c-.14-.94,.51-1.81,1.45-1.95,.59-.09,1.19-.18,1.8-.28,2.17-.36,4.31-.84,6.38-1.43,.91-.26,1.87,.27,2.12,1.18,.26,.91-.27,1.86-1.18,2.12-2.19,.63-4.47,1.14-6.76,1.51-.63,.1-1.24,.2-1.86,.29-.63,.09-1.23-.17-1.6-.63-.18-.23-.31-.51-.36-.82Zm-64.95-85.69c-.55-.78-.36-1.85,.42-2.39,2.4-1.69,4.85-3.3,7.26-4.79,.81-.5,1.89-.25,2.36,.56,.5,.81,.25,1.87-.56,2.36-2.35,1.45-4.74,3.02-7.09,4.67-.75,.53-1.77,.37-2.33-.33-.02-.03-.04-.06-.06-.09Zm81.55,81.42c-.4-.86-.02-1.88,.85-2.28,2.51-1.15,4.96-2.5,7.28-4.03,.79-.52,1.88-.31,2.38,.49,.52,.79,.3,1.86-.49,2.38-2.47,1.62-5.07,3.06-7.74,4.28-.73,.33-1.58,.11-2.06-.49-.09-.11-.16-.23-.22-.36Zm-67.02-90.59c-.44-.84-.11-1.88,.73-2.32,2.61-1.36,5.26-2.62,7.88-3.74,.87-.37,1.88,.03,2.26,.9,.37,.87-.03,1.88-.9,2.26-2.54,1.08-5.11,2.31-7.64,3.63-.74,.39-1.63,.18-2.14-.45-.07-.09-.13-.18-.18-.28Zm81.77,79.21c2.06-1.83,4.02-3.84,5.84-5.97,.62-.72,1.7-.81,2.42-.19,.73,.62,.81,1.7,.19,2.42-1.92,2.25-4,4.37-6.17,6.31-.71,.63-1.8,.57-2.43-.14-.02-.02-.04-.05-.06-.07-.57-.71-.49-1.75,.2-2.36Zm-66.08-86.19c-.3-.9,.19-1.87,1.1-2.17,2.8-.92,5.63-1.7,8.43-2.34,.93-.21,1.85,.38,2.06,1.3,.21,.93-.37,1.85-1.3,2.05-2.69,.61-5.42,1.37-8.11,2.25-.7,.23-1.44-.02-1.88-.56-.12-.16-.22-.34-.29-.54Zm76.89,73.51c2.25-3.54,3.4-6.2,3.6-6.88l.55-3.76c.14-.94,1.01-1.59,1.95-1.45,.94,.14,1.59,1.01,1.45,1.95l-.53,3.67h-.03c-.37,2.46-4.05,8.26-4.09,8.32-.51,.8-1.57,1.04-2.37,.53-.16-.1-.3-.23-.42-.38-.45-.56-.51-1.36-.11-2Zm-60.23-77.6c-.11-.94,.56-1.8,1.5-1.91,2.91-.35,5.86-.54,8.75-.58,.95,0,1.73,.75,1.74,1.7,.01,.95-.75,1.73-1.7,1.74-2.77,.03-5.59,.22-8.38,.55-.61,.07-1.19-.19-1.55-.63-.19-.24-.32-.54-.36-.87Zm17.13-.57c.09-.94,.94-1.64,1.88-1.54,2.88,.28,5.8,.74,8.66,1.34,.93,.19,1.52,1.11,1.33,2.04-.2,.93-1.11,1.52-2.04,1.33-2.75-.58-5.54-1.01-8.29-1.28-.48-.05-.89-.29-1.17-.64-.27-.34-.41-.78-.37-1.24Zm48.49,59.02l1.23-8.5c.14-.94,1.01-1.59,1.95-1.45,.94,.14,1.59,1.01,1.45,1.95l-1.23,8.5c-.14,.94-1.01,1.59-1.95,1.45-.45-.07-.83-.3-1.09-.63-.29-.36-.43-.83-.36-1.32Zm-31.64-55.85c.29-.9,1.26-1.4,2.16-1.11,2.71,.87,5.47,1.91,8.18,3.09,.88,.38,1.28,1.39,.9,2.26-.38,.87-1.39,1.27-2.26,.9-2.61-1.13-5.26-2.13-7.87-2.97-.33-.11-.61-.31-.81-.56-.35-.44-.48-1.03-.29-1.6Zm34.11,38.85l1.23-8.5c.14-.94,1.01-1.59,1.95-1.45,.94,.14,1.59,1.01,1.45,1.95l-1.23,8.5c-.14,.94-1.01,1.59-1.95,1.45-.45-.06-.83-.3-1.09-.63-.29-.36-.43-.83-.36-1.32Zm-18.24-32.35c.45-.83,1.5-1.14,2.33-.69,2.49,1.35,5.01,2.85,7.49,4.46,.79,.52,1.02,1.58,.51,2.38-.52,.8-1.58,1.02-2.38,.51-2.4-1.56-4.85-3.01-7.26-4.32-.21-.11-.38-.26-.52-.44-.42-.52-.51-1.27-.17-1.89Zm14.54,9.1c.57-.76,1.65-.91,2.41-.34,2.2,1.66,4.43,3.45,6.61,5.31l.72,.62-.17,1.15c-.14,.94-1.01,1.59-1.95,1.45-.61-.09-1.1-.49-1.33-1.02-1.97-1.67-3.97-3.27-5.96-4.76-.12-.09-.22-.19-.31-.3-.48-.6-.51-1.47-.03-2.11Z"/><path class="cls-66" d="M1238.99,123.8s-17.57,33.78-43.76,23.55c-26.19-10.23-50.07-27.04-62.22-21.79,0,0,46.28-58.33,106.43-15.19l-.45,13.43Z"/><path class="cls-10" d="M1308.01,164.61s-4.55,37.11-16.35,41.71c-11.23,4.38-95.52-3.2-103.72-3.95-.37-.03-.64-.34-.63-.71h0c.04-3.06,1.53-5.91,4.03-7.69,12.06-8.57,48.27-33.85,61.68-37.99,16.19-4.99,55,8.63,55,8.63Z"/><path class="cls-83" d="M1218.24,200.02c.14,.18,.36,.3,.61,.32,.47,.03,46.7,3.39,66.66,4.06,3.55,.12,6.85-1.87,8.39-5.06,2.43-5.04,6.88-15.05,9.37-25.48,.11-.46-.17-.92-.64-1.03-.46-.11-.93,.18-1.04,.64-2.45,10.28-6.85,20.16-9.25,25.13-1.25,2.58-3.91,4.19-6.78,4.09-19.93-.67-66.13-4.02-66.6-4.05-.47-.03-.88,.32-.92,.8-.02,.22,.06,.44,.19,.6Z"/><path class="cls-15" d="M1309.13,77.77s-3.59-37.21-15.27-42.12c-11.11-4.67-95.58,.73-103.79,1.26-.37,.02-.65,.33-.65,.7h0c-.04,3.06,1.38,5.95,3.83,7.79,11.83,8.88,47.38,35.09,60.67,39.57,16.05,5.41,55.21-7.2,55.21-7.2Z"/><path class="cls-83" d="M1220.3,41.14c.17,.21,.43,.34,.71,.32,.47-.02,46.74-2.18,66.68-2.33,2.88-.02,5.5,1.65,6.68,4.27,2.27,5.04,6.41,15.03,8.6,25.37,.09,.47,.55,.76,1.02,.66,.46-.1,.76-.55,.66-1.02-2.11-9.97-5.9-19.49-8.71-25.72-1.46-3.23-4.7-5.3-8.25-5.28-19.97,.15-66.28,2.31-66.75,2.33-.47,.02-.84,.42-.82,.9,0,.19,.08,.36,.19,.5Z"/><path class="cls-43" d="M1433.56,165.75c-17.35,5.41-37.37,9.05-59.64,8.82-69.14-.69-119.84-13.16-134.16-17.09-2.59-.71-4.55-2.8-5.17-5.41-4.88-20.6-4.76-41.16,.32-61.67,.96-3.86,4.02-6.85,7.88-7.77,16.78-4,66.34-14.16,132.49-13.12,22.1,.35,41.88,4.44,59,10.23,9.13,34.39,3.53,67.46-.72,86.01Z"/><path class="cls-58" d="M1434.28,79.74c37.81,12.79,62.59,33.88,70.54,41.32,1.55,1.45,1.52,3.92-.07,5.33-8.11,7.21-33.29,27.53-71.19,39.36,4.25-18.55,9.85-51.62,.72-86.01Z"/><g><path class="cls-39" d="M1379.6,87.37c-17.91-.23-32.63,15.16-32.88,34.38-.25,19.22,14.07,34.99,31.98,35.22,17.91,.23,32.63-15.16,32.88-34.38,.25-19.22-14.07-34.99-31.98-35.22Z"/><path class="cls-28" d="M1380.43,93.48c-14.27-.18-26,12.08-26.2,27.4-.2,15.32,11.21,27.88,25.48,28.07,14.27,.18,26-12.08,26.2-27.4,.2-15.32-11.21-27.88-25.48-28.07Z"/><path class="cls-83" d="M1384.63,140.69c.21,.26,.57,.39,.91,.29,8.81-2.57,15.05-11.05,15.18-20.62,.03-2.41-.32-4.78-1.03-7.05-.14-.45-.62-.7-1.08-.56-.45,.14-.7,.62-.56,1.08,.66,2.1,.98,4.29,.95,6.52-.11,8.82-5.85,16.63-13.94,18.99-.46,.13-.72,.61-.58,1.07,.03,.11,.08,.21,.15,.3Z"/></g><g><path class="cls-39" d="M1314.28,98.33c-11.83-.15-21.56,10.02-21.72,22.71-.16,12.7,9.29,23.12,21.13,23.27,11.83,.15,21.56-10.02,21.72-22.71,.16-12.7-9.29-23.12-21.12-23.27Z"/><path class="cls-46" d="M1314.83,102.37c-9.43-.12-17.18,7.98-17.31,18.1-.13,10.12,7.41,18.42,16.83,18.54,9.43,.12,17.18-7.98,17.31-18.1,.13-10.12-7.4-18.42-16.83-18.54Z"/><path class="cls-83" d="M1317.37,133.74c.21,.26,.57,.39,.91,.29,5.94-1.73,10.15-7.45,10.24-13.9,.02-1.62-.21-3.22-.69-4.75-.14-.45-.62-.7-1.08-.56-.45,.14-.7,.62-.56,1.08,.43,1.35,.63,2.77,.61,4.21-.07,5.7-3.77,10.74-9,12.27-.46,.13-.72,.61-.58,1.07,.03,.11,.09,.21,.15,.3Z"/></g></g><g><path class="cls-47" d="M1048.83,147.36l-11.27,2.76c-1.05,.26-2.12-.39-2.38-1.44-.26-1.05,.39-2.12,1.44-2.38l.13-.03,10.99-2.74,.14-.03c1.06-.26,2.14,.38,2.41,1.45,.27,1.07-.38,2.14-1.45,2.41h0Z"/><path class="cls-47" d="M1026.13,152.1l-11.52,1.24c-1.06,.11-2.01-.65-2.12-1.71-.11-1.06,.65-2,1.71-2.12h.11l11.28-1.27h.12c1.07-.13,2.03,.64,2.15,1.7,.12,1.07-.65,2.03-1.72,2.15h0Z"/><path class="cls-47" d="M1003.04,153.9l-11.56-.09c-1.04,0-1.88-.86-1.87-1.9,0-1.04,.86-1.88,1.9-1.87h.09l11.36,.04h.1c1.05,0,1.9,.86,1.9,1.91,0,1.05-.86,1.9-1.91,1.9h0Z"/><path class="cls-47" d="M979.95,153.14l-11.49-1.21c-1.01-.11-1.74-1.01-1.64-2.02,.11-1.01,1.01-1.74,2.02-1.64h.07l11.33,1.16h.08c1.02,.11,1.77,1.03,1.66,2.05-.1,1.02-1.02,1.77-2.04,1.66h0Z"/><path class="cls-47" d="M957.05,150.23l-11.33-2.15c-.98-.18-1.62-1.13-1.43-2.1,.19-.98,1.13-1.62,2.1-1.43h.06l11.21,2.09h.07c.99,.2,1.64,1.15,1.46,2.13-.18,.99-1.13,1.64-2.12,1.46h0Z"/><path class="cls-47" d="M934.47,145.52l-11.14-2.93c-.94-.25-1.5-1.21-1.25-2.15,.25-.94,1.21-1.5,2.15-1.25h.05l11.05,2.87h.06c.95,.26,1.52,1.23,1.27,2.18s-1.22,1.52-2.17,1.28h0Z"/><path class="cls-47" d="M912.28,139.32l-10.94-3.58c-.9-.29-1.39-1.26-1.1-2.16,.29-.9,1.26-1.39,2.16-1.1h.04l10.87,3.53h.05c.91,.31,1.41,1.29,1.12,2.2-.29,.91-1.27,1.41-2.19,1.12h0Z"/><path class="cls-47" d="M890.5,131.87l-10.74-4.13c-.86-.33-1.29-1.3-.96-2.16,.33-.86,1.3-1.29,2.16-.96h.03l10.68,4.08h.04c.87,.35,1.31,1.33,.98,2.2-.33,.87-1.31,1.31-2.19,.98h0Z"/><path class="cls-47" d="M869.12,123.36l-10.54-4.6c-.83-.36-1.2-1.32-.84-2.15,.36-.83,1.32-1.2,2.15-.84h.03l10.5,4.55h.03c.84,.38,1.22,1.35,.86,2.18-.36,.84-1.33,1.22-2.17,.86h0Z"/><path class="cls-47" d="M848.13,113.95l-10.35-5.01c-.79-.38-1.12-1.33-.74-2.12,.38-.79,1.33-1.12,2.12-.74h.02l10.32,4.95h.03c.8,.4,1.14,1.36,.76,2.16-.38,.8-1.35,1.14-2.15,.76h0Z"/><path class="cls-47" d="M827.52,103.75l-10.17-5.36c-.76-.4-1.05-1.33-.65-2.09,.4-.76,1.33-1.04,2.09-.65h.02l10.15,5.31h.02c.77,.41,1.06,1.36,.66,2.13s-1.35,1.06-2.11,.66h0Z"/><path class="cls-47" d="M807.27,92.87l-10-5.67c-.72-.41-.98-1.33-.57-2.05,.41-.72,1.33-.98,2.05-.57h.01l9.98,5.62h.02c.73,.42,.99,1.35,.58,2.09-.41,.73-1.34,.99-2.08,.58h0Z"/><path class="cls-47" d="M787.35,81.38l-9.84-5.94c-.7-.42-.93-1.34-.5-2.04,.42-.7,1.34-.93,2.04-.5h.02l9.81,5.92h.02c.7,.44,.93,1.35,.51,2.05-.42,.7-1.34,.93-2.04,.51h0Z"/><path class="cls-47" d="M767.74,69.37l-9.68-6.2c-.68-.44-.88-1.35-.45-2.03,.44-.68,1.35-.88,2.03-.45h.01l9.66,6.18h.02c.69,.45,.89,1.36,.45,2.05-.44,.69-1.35,.89-2.04,.45h0Z"/><path class="cls-47" d="M748.46,56.85l-9.53-6.43c-.67-.45-.84-1.36-.39-2.03,.45-.67,1.36-.84,2.03-.39h.01l9.51,6.41h.01c.67,.46,.85,1.37,.4,2.05-.45,.67-1.36,.85-2.04,.4h0Z"/><path class="cls-47" d="M729.48,43.89l-9.37-6.64c-.65-.46-.81-1.37-.34-2.02,.46-.65,1.37-.81,2.02-.34h.01l9.35,6.62h.01c.66,.47,.81,1.38,.35,2.04-.46,.66-1.37,.81-2.03,.35h0Z"/><path class="cls-47" d="M710.7,30.83l-9.79-5.8-.08-.05c-.68-.4-.91-1.29-.5-1.97,.4-.68,1.29-.91,1.97-.5l9.95,5.89c.69,.41,.91,1.29,.51,1.98-.41,.69-1.29,.91-1.98,.51h0l-.08-.05Z"/><path class="cls-47" d="M690.78,19.85l-10.44-4.52-.08-.04c-.72-.31-1.06-1.15-.74-1.87,.31-.72,1.15-1.06,1.87-.74l10.61,4.58c.73,.31,1.06,1.16,.75,1.88-.31,.73-1.16,1.06-1.88,.75h0l-.08-.04Z"/><path class="cls-47" d="M669.63,11.49l-10.93-3.16-.09-.02c-.75-.22-1.18-1-.97-1.75,.22-.75,1-1.18,1.75-.97l11.11,3.2c.75,.22,1.19,1,.97,1.76-.22,.75-1,1.19-1.76,.97h0l-.09-.03Z"/><path class="cls-47" d="M647.59,5.88l-11.24-1.75h-.09c-.77-.13-1.29-.85-1.17-1.61,.12-.77,.83-1.29,1.6-1.17l11.42,1.76c.77,.12,1.3,.84,1.18,1.61-.12,.77-.84,1.3-1.61,1.18h-.09Z"/><path class="cls-47" d="M625.01,3.1l-11.37-.31h-.09c-.77-.02-1.37-.66-1.35-1.43,.02-.77,.66-1.37,1.43-1.35l11.55,.31c.77,.02,1.38,.66,1.36,1.43-.02,.77-.66,1.38-1.43,1.36h-.09Z"/><path class="cls-47" d="M602.27,3.19l-11.32,1.13h-.09c-.76,.08-1.43-.47-1.51-1.23-.08-.76,.48-1.43,1.23-1.51l11.5-1.16c.76-.08,1.44,.48,1.52,1.24,.08,.76-.48,1.44-1.24,1.52h-.09Z"/><path class="cls-47" d="M579.72,6.18l-11.09,2.56-.09,.02c-.74,.17-1.47-.29-1.64-1.03-.17-.74,.29-1.47,1.02-1.64l11.26-2.61c.74-.17,1.48,.29,1.65,1.03,.17,.74-.29,1.48-1.03,1.65h0l-.09,.02Z"/><path class="cls-47" d="M557.73,12l-10.67,3.95-.08,.03c-.7,.26-1.48-.1-1.74-.8-.26-.7,.1-1.48,.8-1.74l10.83-4.02c.71-.26,1.49,.1,1.75,.8,.26,.71-.1,1.49-.8,1.75h0l-.08,.03Z"/><path class="cls-47" d="M536.66,20.57l-10.02,5.37-.09,.05c-.65,.35-1.47,.1-1.82-.55-.35-.66-.11-1.47,.55-1.82l10.19-5.47c.66-.35,1.48-.11,1.83,.55,.35,.66,.11,1.48-.55,1.83h0l-.09,.05Z"/><path class="cls-47" d="M517.01,32l-9.21,6.69-.07,.05c-.6,.43-1.43,.3-1.86-.3s-.3-1.43,.29-1.86l9.34-6.8c.6-.44,1.44-.3,1.87,.3,.44,.6,.3,1.44-.3,1.87h0l-.07,.05Z"/><path class="cls-47" d="M499.03,45.94l-8.33,7.75-.06,.05c-.53,.5-1.37,.47-1.87-.07-.5-.54-.47-1.37,.07-1.87l8.44-7.87c.54-.5,1.38-.47,1.88,.07,.5,.54,.47,1.38-.07,1.88h0l-.06,.05Z"/><path class="cls-47" d="M482.81,61.92l-7.4,8.67-.05,.06c-.47,.55-1.3,.62-1.85,.15-.55-.47-.62-1.3-.15-1.85l7.49-8.79c.47-.55,1.3-.62,1.86-.15,.55,.47,.62,1.3,.15,1.86h0l-.05,.06Z"/><path class="cls-47" d="M468.53,79.66l-6.35,9.46-.04,.06c-.4,.6-1.21,.76-1.8,.36-.6-.4-.76-1.21-.36-1.8l6.43-9.59c.4-.6,1.21-.76,1.81-.36,.6,.4,.76,1.21,.36,1.81h0l-.04,.06Z"/><path class="cls-47" d="M456.41,98.94l-5.15,10.16-.04,.07c-.32,.63-1.1,.89-1.73,.57-.63-.32-.89-1.1-.57-1.73l5.21-10.31c.32-.64,1.1-.89,1.74-.57,.64,.32,.89,1.1,.57,1.74h0l-.04,.07Z"/><path class="cls-47" d="M446.79,119.56l-3.73,10.75-.03,.09c-.23,.67-.96,1.02-1.63,.79-.67-.23-1.02-.96-.79-1.62l3.78-10.92c.23-.67,.96-1.02,1.63-.79,.67,.23,1.02,.96,.79,1.63h0l-.03,.09Z"/><path class="cls-47" d="M440.13,141.3l-2.05,11.18-.02,.1c-.13,.69-.79,1.14-1.47,1.02-.69-.13-1.14-.78-1.02-1.47l2.07-11.38c.13-.69,.79-1.15,1.48-1.02,.69,.13,1.15,.79,1.02,1.48h0l-.02,.1Z"/><path class="cls-47" d="M436.99,163.78l-.07,11.35v.12c0,.69-.57,1.25-1.26,1.25-.69,0-1.25-.57-1.25-1.26l.06-11.58c0-.7,.57-1.26,1.27-1.25,.7,0,1.26,.57,1.25,1.27h0v.12Z"/><path class="cls-47" d="M437.92,186.42l2.13,11.14,.02,.12c.13,.67-.31,1.32-.99,1.45-.67,.13-1.32-.31-1.45-.99l-2.18-11.38c-.13-.68,.31-1.33,.99-1.46,.68-.13,1.33,.31,1.46,.99h0l.02,.12Z"/><path class="cls-47" d="M443.3,208.42l4.34,10.48,.05,.12c.26,.63-.04,1.35-.67,1.61-.63,.26-1.35-.04-1.61-.67l-4.45-10.7c-.26-.63,.04-1.35,.67-1.62,.63-.26,1.35,.04,1.62,.67h0l.05,.12Z"/><path class="cls-47" d="M453.16,228.73c2.1,3.11,4.48,6.02,7.14,8.65,.48,.47,.48,1.25,0,1.73-.47,.48-1.25,.48-1.73,0-2.78-2.75-5.26-5.79-7.45-9.01-.38-.56-.23-1.32,.33-1.7,.56-.38,1.32-.23,1.7,.33h0Z"/><path class="cls-47" d="M469.05,244.35c3.16,1.98,6.55,3.6,10.08,4.8,.63,.22,.97,.9,.75,1.53-.22,.63-.9,.97-1.53,.76-3.71-1.26-7.27-2.96-10.59-5.03-.57-.36-.74-1.11-.39-1.67,.36-.57,1.11-.74,1.67-.39h0Z"/><path class="cls-47" d="M490.05,251.53c3.72,.38,7.48,.35,11.2-.05,.66-.07,1.25,.4,1.32,1.06,.07,.66-.4,1.25-1.06,1.32-3.88,.43-7.81,.46-11.7,.07-.66-.07-1.14-.66-1.08-1.32,.07-.66,.66-1.14,1.32-1.08h0Z"/><path class="cls-47" d="M512.23,249.17c3.58-1.12,7.05-2.57,10.38-4.32,.58-.3,1.3-.08,1.6,.5,.31,.58,.08,1.3-.5,1.6-3.44,1.81-7.05,3.33-10.77,4.5-.63,.2-1.3-.15-1.49-.78-.2-.63,.15-1.3,.78-1.5h0Z"/><path class="cls-47" d="M532.08,238.77c2.98-2.29,5.76-4.83,8.31-7.59,.44-.48,1.19-.5,1.66-.06,.48,.44,.5,1.18,.06,1.66-2.64,2.85-5.52,5.48-8.6,7.86-.52,.4-1.26,.3-1.66-.21-.4-.52-.3-1.26,.21-1.66h0Z"/><path class="cls-47" d="M547.35,222.33l2.86-4.87c1.01-1.59,1.76-3.33,2.61-5.01l.03-.07c.29-.57,.99-.81,1.56-.52s.81,.98,.52,1.56c-.87,1.74-1.64,3.52-2.68,5.17l-2.95,5.03c-.33,.56-1.04,.74-1.6,.42-.56-.33-.74-1.04-.42-1.6h0l.06-.11Z"/><path class="cls-47" d="M556.75,201.87c1.03-3.62,1.76-7.32,2.14-11.06,.06-.63,.63-1.09,1.26-1.03,.63,.06,1.09,.63,1.03,1.26-.39,3.88-1.14,7.72-2.2,11.46-.17,.62-.81,.97-1.43,.8-.62-.17-.97-.81-.8-1.43h0Z"/><path class="cls-47" d="M558.97,179.59c-.33-3.73-1.04-7.43-2.09-11.04-.18-.6,.17-1.24,.78-1.41,.6-.18,1.24,.17,1.41,.77,1.1,3.74,1.83,7.59,2.18,11.47,.06,.63-.41,1.19-1.04,1.25s-1.19-.41-1.25-1.04h0Z"/><path class="cls-47" d="M552.73,158.1c-1.7-3.35-3.7-6.54-5.96-9.56-.37-.5-.27-1.21,.23-1.58,.5-.37,1.21-.27,1.58,.23,2.33,3.11,4.4,6.41,6.17,9.88,.28,.56,.06,1.24-.5,1.53-.56,.28-1.24,.06-1.53-.5h0Z"/><path class="cls-47" d="M539.34,140.07c-2.69-2.64-5.58-5.08-8.62-7.31-.5-.37-.6-1.07-.24-1.56,.37-.5,1.07-.6,1.56-.24,3.12,2.3,6.09,4.8,8.86,7.51,.44,.43,.45,1.15,.02,1.59-.43,.44-1.15,.45-1.59,.02h0Z"/><path class="cls-47" d="M521.2,126.64c-3.3-1.84-6.71-3.48-10.21-4.91-.57-.23-.83-.88-.6-1.44s.88-.84,1.44-.6c3.57,1.47,7.07,3.14,10.45,5.02,.54,.3,.73,.98,.43,1.51s-.98,.73-1.51,.43h0Z"/><path class="cls-47" d="M500.28,118c-3.63-1.06-7.38-1.74-11.06-2.63l-.09-.02c-.6-.15-.97-.75-.83-1.36,.15-.6,.75-.97,1.36-.83h0c3.74,.92,7.51,1.65,11.23,2.72,.59,.16,.93,.77,.76,1.36s-.77,.93-1.36,.76h0Z"/><path class="cls-47" d="M477.97,113.54l-11.34-1.09h-.07c-.65-.07-1.13-.65-1.07-1.3,.06-.65,.64-1.13,1.3-1.07h0l11.48,1.17c.63,.06,1.1,.63,1.03,1.27-.06,.63-.63,1.09-1.26,1.03h-.07Z"/><path class="cls-47" d="M455.24,112.06l-11.39,.28h-.07c-.69,.02-1.26-.53-1.28-1.22-.02-.69,.53-1.26,1.22-1.28h0l11.54-.22c.67-.01,1.23,.52,1.24,1.2,.01,.67-.52,1.22-1.19,1.24h-.07Z"/><path class="cls-47" d="M432.49,113.26l-11.29,1.54h-.07c-.72,.11-1.38-.4-1.48-1.12-.1-.72,.41-1.38,1.12-1.48h0l11.44-1.5c.7-.09,1.35,.4,1.44,1.11,.09,.7-.4,1.34-1.1,1.44h-.07Z"/><path class="cls-47" d="M410,116.94l-11.07,2.73-.07,.02c-.74,.18-1.49-.27-1.67-1.01-.18-.74,.27-1.49,1.01-1.67h0l11.22-2.7c.72-.17,1.45,.27,1.62,.99,.17,.72-.27,1.44-.99,1.62l-.07,.02Z"/><path class="cls-47" d="M388.03,122.98l-10.71,3.89-.07,.03c-.75,.27-1.57-.11-1.85-.86-.27-.75,.11-1.58,.86-1.85h0l10.87-3.89c.73-.26,1.54,.12,1.8,.85,.26,.73-.12,1.53-.85,1.8l-.07,.03Z"/><path class="cls-47" d="M366.86,131.35l-10.19,5.07-.08,.04c-.74,.37-1.65,.07-2.02-.68-.37-.74-.07-1.65,.68-2.02h0l10.37-5.1c.73-.36,1.61-.06,1.97,.67,.36,.73,.06,1.61-.67,1.97l-.08,.04Z"/><path class="cls-47" d="M346.82,142.1l-9.48,6.27-.08,.05c-.72,.48-1.7,.28-2.17-.44s-.28-1.7,.44-2.17h0l9.67-6.33c.71-.46,1.66-.26,2.13,.45,.46,.71,.27,1.66-.44,2.12l-.08,.05Z"/><path class="cls-47" d="M328.21,155.17l-8.78,7.25-.06,.05c-.69,.57-1.72,.48-2.3-.22-.57-.69-.48-1.72,.22-2.3h0l8.94-7.31c.68-.56,1.69-.46,2.25,.23,.56,.68,.46,1.69-.22,2.24l-.06,.05Z"/><path class="cls-47" d="M310.97,170.06l-8.14,7.98-.05,.05c-.67,.66-1.74,.64-2.4-.02s-.64-1.74,.02-2.4h0l8.28-8.03c.66-.64,1.71-.62,2.35,.04,.64,.66,.62,1.71-.03,2.35l-.05,.05Z"/><path class="cls-47" d="M294.99,186.33l-7.56,8.55-.04,.04c-.64,.73-1.75,.79-2.48,.15-.73-.64-.79-1.75-.15-2.48h0l7.68-8.6c.64-.71,1.73-.77,2.44-.14,.71,.63,.77,1.72,.14,2.43l-.04,.04Z"/><path class="cls-47" d="M280.14,203.66l-7.02,9-.03,.04c-.62,.79-1.76,.93-2.55,.31s-.93-1.76-.31-2.55h0l7.13-9.05c.61-.77,1.73-.91,2.51-.3,.77,.61,.91,1.73,.3,2.5l-.03,.04Z"/><path class="cls-47" d="M266.36,221.85l-6.51,9.38-.03,.04c-.59,.85-1.76,1.06-2.61,.47-.85-.59-1.06-1.76-.47-2.61h0l6.62-9.43c.59-.83,1.74-1.04,2.57-.45,.83,.58,1.03,1.73,.46,2.56l-.03,.04Z"/><path class="cls-47" d="M253.58,240.78l-6.02,9.7-.03,.04c-.56,.91-1.76,1.19-2.67,.62-.91-.56-1.19-1.76-.62-2.67h0l6.12-9.76c.56-.89,1.74-1.16,2.63-.6,.89,.56,1.16,1.73,.61,2.62l-.03,.04Z"/><path class="cls-47" d="M241.78,260.33l-5.53,9.99-.02,.04c-.53,.96-1.75,1.31-2.71,.78-.96-.53-1.31-1.75-.78-2.71h0l5.63-10.06c.53-.95,1.73-1.28,2.68-.75,.94,.53,1.28,1.72,.76,2.67l-.02,.04Z"/><path class="cls-47" d="M230.97,280.45l-5.03,10.25-.02,.05c-.5,1.02-1.73,1.44-2.75,.94-1.02-.5-1.44-1.73-.94-2.75h0l5.13-10.33c.5-1,1.71-1.41,2.72-.91,1,.5,1.41,1.71,.92,2.71l-.02,.05Z"/><path class="cls-47" d="M221.17,301.08l-4.49,10.5-.02,.05c-.46,1.08-1.7,1.57-2.78,1.11-1.07-.46-1.57-1.7-1.11-2.78h0l4.59-10.59c.46-1.06,1.69-1.54,2.74-1.08,1.05,.46,1.54,1.68,1.09,2.73l-.02,.05Z"/><path class="cls-47" d="M212.48,322.2l-3.89,10.73-.02,.06c-.41,1.13-1.66,1.71-2.79,1.3-1.13-.41-1.71-1.66-1.3-2.79h0l3.99-10.84c.41-1.11,1.64-1.68,2.76-1.27,1.11,.41,1.68,1.64,1.28,2.74l-.02,.06Z"/><path class="cls-47" d="M205.04,343.76l-3.19,10.94-.02,.08c-.35,1.18-1.59,1.87-2.77,1.52-1.19-.34-1.87-1.59-1.52-2.77h0l3.29-11.08c.35-1.17,1.57-1.83,2.74-1.49,1.16,.35,1.83,1.57,1.49,2.73l-.02,.07Z"/><path class="cls-47" d="M199.06,365.74l-2.33,11.13-.02,.08c-.26,1.24-1.47,2.03-2.71,1.77-1.24-.26-2.04-1.46-1.78-2.7,.77-3.78,1.62-7.54,2.42-11.31,.26-1.22,1.46-2,2.69-1.74,1.22,.26,2,1.46,1.74,2.69l-.02,.09Z"/><path class="cls-47" d="M194.87,388.07l-1.33,11.28v.11c-.16,1.25-1.29,2.13-2.53,1.99-1.24-.15-2.13-1.27-1.99-2.52l1.34-11.5c.15-1.25,1.28-2.15,2.53-2,1.25,.15,2.15,1.28,2,2.53h0v.11Z"/><path class="cls-47" d="M192.76,410.69l-.19,11.35v.12c-.02,1.24-1.05,2.23-2.29,2.21-1.24-.02-2.23-1.04-2.21-2.28l.17-11.59c.02-1.25,1.04-2.24,2.29-2.22,1.25,.02,2.24,1.04,2.22,2.29h0v.12Z"/><path class="cls-47" d="M192.99,433.39l1.05,11.3v.12c.12,1.22-.77,2.31-2,2.42-1.22,.11-2.31-.78-2.42-2.01l-1.09-11.54c-.12-1.23,.79-2.32,2.01-2.44s2.32,.79,2.44,2.01h0v.13Z"/><path class="cls-47" d="M195.72,455.9l2.32,11.1,.03,.12c.25,1.19-.51,2.36-1.7,2.61-1.19,.25-2.36-.51-2.6-1.7l-2.4-11.34c-.25-1.2,.51-2.37,1.71-2.62,1.2-.25,2.37,.51,2.62,1.71h0l.03,.13Z"/><path class="cls-47" d="M201,477.94l3.58,10.76,.04,.12c.38,1.14-.24,2.38-1.38,2.75-1.14,.38-2.37-.23-2.75-1.38l-3.68-10.99c-.38-1.15,.23-2.39,1.38-2.77,1.15-.38,2.39,.23,2.77,1.38h0l.04,.12Z"/><path class="cls-47" d="M208.76,499.25l4.75,10.31,.05,.11c.5,1.08,.03,2.36-1.06,2.86-1.08,.5-2.36,.03-2.86-1.05l-4.87-10.51c-.5-1.09-.03-2.37,1.06-2.88,1.09-.5,2.37-.03,2.88,1.05h0l.05,.11Z"/><path class="cls-47" d="M218.8,519.6l5.8,9.77,.05,.09c.6,1.01,.27,2.32-.74,2.92s-2.32,.27-2.92-.74l-5.93-9.94c-.61-1.02-.27-2.33,.74-2.94,1.02-.61,2.33-.27,2.94,.74h0l.05,.1Z"/><path class="cls-47" d="M230.88,538.85l6.7,9.19,.06,.08c.69,.94,.48,2.26-.46,2.95-.94,.69-2.26,.49-2.95-.46l-6.83-9.33c-.69-.95-.49-2.27,.46-2.97,.95-.69,2.27-.49,2.97,.46h0l.06,.08Z"/><path class="cls-47" d="M244.68,556.93l7.46,8.6,.05,.06c.76,.87,.66,2.19-.21,2.95-.87,.76-2.19,.67-2.94-.2l-7.59-8.71c-.76-.87-.67-2.2,.2-2.96,.87-.76,2.2-.67,2.96,.2h0l.06,.07Z"/><path class="cls-47" d="M259.93,573.84l8.08,8.02,.05,.05c.81,.8,.81,2.11,.01,2.92-.8,.81-2.11,.82-2.92,.01l-8.2-8.11c-.82-.81-.82-2.12-.02-2.94,.81-.82,2.12-.82,2.94-.02h0l.05,.05Z"/><path class="cls-47" d="M276.36,589.61l8.6,7.49,.05,.04c.85,.74,.94,2.03,.2,2.88-.74,.85-2.03,.94-2.88,.2l-8.7-7.56c-.86-.74-.95-2.04-.2-2.9,.74-.86,2.04-.95,2.9-.2h0l.05,.04Z"/><path class="cls-47" d="M293.77,604.34l9.02,7,.04,.03c.88,.68,1.04,1.95,.36,2.83s-1.95,1.04-2.83,.36l-9.12-7.05c-.89-.69-1.05-1.96-.36-2.85,.69-.89,1.96-1.05,2.85-.37h0l.04,.04Z"/><path class="cls-47" d="M311.99,618.11l9.36,6.55,.04,.03c.9,.63,1.12,1.88,.49,2.78-.63,.9-1.87,1.13-2.78,.49l-9.45-6.58c-.91-.63-1.13-1.89-.5-2.8,.63-.91,1.89-1.13,2.8-.5h0l.04,.03Z"/><path class="cls-47" d="M330.86,631.03l9.57,6.32c.91,.6,1.17,1.82,.57,2.73-.6,.91-1.83,1.16-2.74,.57l-9.59-6.31c-.92-.6-1.17-1.83-.57-2.75,.6-.92,1.84-1.17,2.75-.57h.01Z"/><path class="cls-47" d="M350.02,643.64l9.6,6.28c.9,.59,1.16,1.8,.57,2.7-.59,.9-1.8,1.16-2.7,.57l-9.62-6.26c-.91-.59-1.17-1.81-.58-2.72,.59-.91,1.81-1.17,2.72-.58h0Z"/><path class="cls-47" d="M369.23,656.19l9.6,6.28c.89,.58,1.14,1.78,.56,2.67-.58,.89-1.78,1.14-2.67,.56l-9.61-6.26c-.9-.58-1.15-1.79-.57-2.69s1.79-1.15,2.69-.57h0Z"/><path class="cls-47" d="M388.41,668.77l9.56,6.33c.88,.58,1.12,1.77,.54,2.64-.58,.88-1.77,1.12-2.65,.53l-9.56-6.31c-.89-.58-1.14-1.77-.56-2.66s1.77-1.14,2.66-.56h0Z"/><path class="cls-47" d="M407.5,681.48l9.49,6.44c.86,.59,1.08,1.76,.5,2.62-.58,.86-1.76,1.08-2.62,.5h0l-9.48-6.42h-.01c-.87-.59-1.09-1.77-.51-2.64,.59-.87,1.77-1.1,2.63-.51h0Z"/><path class="cls-47" d="M426.44,694.46l9.39,6.62c.84,.59,1.04,1.75,.45,2.59-.59,.84-1.75,1.04-2.59,.45h-.01l-9.37-6.58h-.01c-.85-.6-1.05-1.77-.46-2.62,.59-.85,1.76-1.05,2.61-.46h0Z"/><path class="cls-47" d="M445.15,707.78l9.23,6.82c.82,.6,.99,1.76,.39,2.57-.6,.82-1.76,.99-2.57,.39h-.02l-9.21-6.79h-.02c-.82-.62-1-1.78-.39-2.6,.61-.82,1.76-1,2.59-.39h0Z"/><path class="cls-47" d="M463.53,721.55l9.05,7.09c.79,.62,.93,1.76,.31,2.55-.62,.79-1.76,.93-2.55,.31l-.02-.02-9.02-7.04-.02-.02c-.8-.62-.94-1.77-.32-2.56,.62-.8,1.77-.94,2.57-.32h0Z"/><path class="cls-47" d="M481.53,735.84l8.87,7.29c.77,.63,.88,1.76,.25,2.52-.63,.76-1.76,.88-2.52,.25h-.01l-8.85-7.26h-.02c-.77-.65-.88-1.78-.25-2.55,.63-.77,1.77-.88,2.54-.25h0Z"/><path class="cls-47" d="M499.18,750.55l8.67,7.56c.74,.64,.81,1.76,.17,2.5-.64,.74-1.76,.81-2.5,.17l-.02-.02-8.64-7.5-.02-.02c-.74-.65-.82-1.77-.18-2.51,.65-.74,1.77-.82,2.51-.18h0Z"/><path class="cls-47" d="M516.38,765.82l8.37,7.89c.7,.66,.74,1.77,.07,2.47-.66,.7-1.77,.73-2.47,.07l-.03-.02-8.33-7.82-.03-.03c-.71-.67-.74-1.78-.08-2.49,.67-.71,1.78-.74,2.49-.08h0Z"/><path class="cls-47" d="M532.94,781.8l7.98,8.31c.66,.69,.64,1.78-.05,2.44-.69,.66-1.78,.64-2.44-.05l-.03-.03-7.93-8.22-.03-.03c-.67-.69-.65-1.79,.04-2.46,.69-.67,1.79-.65,2.46,.04h0Z"/><path class="cls-47" d="M548.65,798.64l7.46,8.79c.61,.72,.52,1.79-.2,2.4-.72,.61-1.79,.52-2.4-.2l-.04-.04-7.4-8.69-.04-.04c-.61-.72-.53-1.8,.19-2.42,.72-.61,1.8-.53,2.42,.19h0Z"/><path class="cls-47" d="M563.25,816.49l6.78,9.33c.55,.75,.38,1.8-.37,2.35s-1.8,.38-2.35-.37l-.04-.05-6.72-9.21-.04-.05c-.55-.75-.39-1.81,.37-2.36s1.81-.39,2.36,.37h0Z"/><path class="cls-47" d="M576.42,835.44l5.93,9.91c.47,.79,.21,1.8-.57,2.27-.79,.47-1.8,.21-2.27-.57l-.04-.07-5.86-9.76-.04-.07c-.47-.79-.22-1.81,.57-2.29,.79-.47,1.81-.22,2.29,.57h0Z"/><path class="cls-47" d="M587.76,855.54l4.85,10.49c.37,.81,.02,1.77-.79,2.14-.81,.37-1.76,.02-2.14-.78l-.04-.08-4.83-10.3-.04-.08c-.39-.82-.03-1.8,.79-2.19,.82-.39,1.8-.03,2.19,.79h0Z"/><path class="cls-47" d="M596.85,876.78l3.59,10.98c.27,.81-.18,1.69-.99,1.96-.81,.26-1.68-.18-1.95-.98l-.03-.09-3.59-10.78-.03-.09c-.28-.83,.17-1.73,1-2,.83-.28,1.73,.17,2,1h0Z"/><path class="cls-47" d="M603.34,898.95l2.18,11.35c.16,.81-.37,1.59-1.18,1.74-.8,.15-1.58-.37-1.74-1.17l-.02-.09-2.21-11.15-.02-.1c-.16-.82,.37-1.62,1.2-1.79s1.62,.37,1.79,1.2h0Z"/><path class="cls-47" d="M606.97,921.77l.71,11.54c.05,.78-.55,1.46-1.33,1.51-.78,.05-1.46-.54-1.51-1.33v-.09l-.77-11.35v-.09c-.06-.8,.55-1.5,1.35-1.55,.8-.05,1.5,.55,1.55,1.36h0Z"/><path class="cls-47" d="M607.6,944.88l-.84,11.5c-.05,.75-.71,1.31-1.46,1.26-.75-.05-1.31-.7-1.26-1.45v-.07l.77-11.36v-.08c.06-.77,.72-1.35,1.49-1.3s1.35,.72,1.3,1.48h0Z"/><path class="cls-47" d="M605.37,967.83l-1.88,11.37c-.12,.71-.78,1.19-1.49,1.07-.7-.12-1.18-.78-1.07-1.48v-.06l1.8-11.27v-.06c.12-.72,.81-1.22,1.53-1.1,.73,.12,1.22,.8,1.1,1.52h0Z"/><path class="cls-47" d="M601.12,990.48l-2.93,11.15c-.17,.66-.85,1.05-1.51,.88-.66-.17-1.05-.84-.88-1.5l.02-.06,2.83-11.05,.02-.06c.17-.68,.86-1.09,1.54-.91,.68,.17,1.09,.86,.91,1.54h0Z"/><path class="cls-47" d="M594.62,1012.62l-4.34,10.72c-.24,.6-.93,.89-1.52,.65-.6-.24-.89-.92-.65-1.52l.04-.09,4.21-10.56,.03-.09c.25-.62,.95-.92,1.56-.67,.62,.25,.92,.95,.67,1.56h0Z"/><path class="cls-47" d="M584.95,1033.63c-1.97,3.33-4.15,6.55-6.61,9.57-.39,.47-1.09,.55-1.56,.16-.47-.39-.54-1.08-.16-1.56,2.36-2.92,4.46-6.06,6.37-9.32,.32-.54,1.02-.73,1.56-.41,.54,.32,.73,1.02,.41,1.56h0Z"/><path class="cls-47" d="M570.04,1051.44c-3.08,2.42-6.52,4.44-10.22,5.81-.54,.2-1.14-.07-1.34-.61-.2-.54,.07-1.14,.61-1.34,3.47-1.31,6.7-3.23,9.62-5.55,.47-.37,1.14-.29,1.51,.17,.37,.47,.29,1.14-.17,1.51h0Z"/></g></g></g></svg>