<?xml version="1.0" encoding="UTF-8"?><svg id="Layer_2" xmlns="http://www.w3.org/2000/svg" xmlns:xlink="http://www.w3.org/1999/xlink" viewBox="0 0 642.06 411.7"><defs><style>.cls-1{fill:#fff;}.cls-2{fill:#252384;}.cls-3{fill:#ff777a;}.cls-4{fill:#dcf1ff;}.cls-5{fill:#ffdcdc;}.cls-6{fill:#fafdff;}.cls-7{fill:#261b60;}.cls-8{fill:#ffc5c7;}.cls-9{filter:url(#drop-shadow-1);}.cls-10{fill:#f97068;}.cls-11{fill:#fb8384;}.cls-12{fill:#57aff7;}.cls-13{fill:#7db6f4;}.cls-14{fill:#afd9ff;}.cls-15{fill:#cb3034;}.cls-16{fill:#ffa6a4;}.cls-17{fill:#fe8a8b;}.cls-18{opacity:.35;}.cls-18,.cls-19{fill:#a2d4f9;}.cls-20{fill:#001e7f;}.cls-21{fill:#c31f2a;}.cls-22{fill:#b4dff9;}.cls-23{fill:#dcedff;}.cls-24{fill:#f7f7f7;}.cls-25{fill:#0058c6;}.cls-26{fill:#0c0835;}.cls-27{fill:#0e35af;}.cls-28{fill:#ea5854;}</style><filter id="drop-shadow-1" filterUnits="userSpaceOnUse"><feOffset dx="5" dy="5"/><feGaussianBlur result="blur" stdDeviation="0"/><feFlood flood-color="#00264f" flood-opacity=".25"/><feComposite in2="blur" operator="in"/><feComposite in="SourceGraphic"/></filter></defs><g id="OBJECTS"><path class="cls-18" d="M19.73,289.13l35.52,45.62c12.2,15.66,30.93,24.82,50.78,24.82h440.81c16.55,0,32.47-6.38,44.44-17.81l7.59-7.24c42.19-40.28,50.44-104.6,19.76-154.21h0c-7.45-12.05-10.71-26.22-9.29-40.31h0c5.31-52.62-29.67-100.87-81.33-112.19L429.6,6.24c-75.81-16.61-155.09,.33-217.54,46.41-11.4,8.41-19.52,14.04-20.77,14.01-2.53-.07-40.47,5.94-76.86,11.82-39.23,6.34-68.29,39.87-68.97,79.61h0c-.29,17.07-7.36,33.33-19.65,45.19h0c-23.67,22.86-26.29,59.89-6.08,85.85Z"/><g><path class="cls-1" d="M632.13,106.33c-2.17-5.26-6.66-9.32-12.22-10.87-.51-12.63-10.9-22.72-23.66-22.72-11.22,0-20.61,7.81-23.06,18.28-.7-.08-1.42-.13-2.14-.13-7.45,0-13.88,4.37-16.86,10.69-4.05-3.23-9.17-5.16-14.75-5.16-7.94,0-14.96,3.91-19.26,9.91h111.95Z"/><path class="cls-1" d="M108.67,167.12c-1.46-3.54-4.48-6.26-8.2-7.3-.34-8.48-7.32-15.25-15.89-15.25-7.53,0-13.84,5.24-15.48,12.28-.47-.05-.95-.09-1.44-.09-5,0-9.32,2.94-11.32,7.18-2.72-2.17-6.16-3.47-9.91-3.47-5.33,0-10.05,2.63-12.93,6.65H108.67Z"/><path class="cls-1" d="M203.73,55.63c1.06-2.56,3.24-4.54,5.95-5.29,.25-6.15,5.31-11.06,11.52-11.06,5.46,0,10.04,3.8,11.23,8.9,.34-.04,.69-.06,1.04-.06,3.63,0,6.76,2.13,8.21,5.21,1.97-1.57,4.47-2.51,7.18-2.51,3.87,0,7.28,1.9,9.38,4.82h-54.51Z"/></g><g><path class="cls-28" d="M200.29,94.46v-9.84c0-2.02-1.64-3.66-3.66-3.66h-9.37c-1.31-7.2-4.25-13.81-8.43-19.48l6.89-6.89c1.43-1.43,1.43-3.75,0-5.17l-6.96-6.96c-1.43-1.43-3.75-1.43-5.17,0l-7.26,7.26c-5.65-3.64-12.14-6.12-19.11-7.07v-11.1c0-2.02-1.64-3.66-3.66-3.66h-9.84c-2.02,0-3.66,1.64-3.66,3.66v11.85c-6.4,1.46-12.31,4.23-17.43,7.99l-8.94-8.93c-1.43-1.43-3.74-1.43-5.17,0l-6.96,6.96c-1.43,1.43-1.43,3.75,0,5.17l9.3,9.3c-3.28,5.1-5.61,10.87-6.75,17.06h-13.47c-2.02,0-3.66,1.64-3.66,3.66v9.84c0,2.02,1.64,3.66,3.66,3.66h13.47c1.14,6.19,3.47,11.95,6.75,17.05l-9.3,9.3c-1.43,1.43-1.43,3.75,0,5.17l6.96,6.96c1.43,1.43,3.74,1.43,5.17,0l8.94-8.93c5.12,3.78,11.03,6.55,17.43,8v11.85c0,2.02,1.64,3.66,3.66,3.66h9.84c2.02,0,3.66-1.64,3.66-3.66v-11.1c6.97-.96,13.46-3.44,19.11-7.09l7.26,7.26c1.43,1.43,3.75,1.43,5.17,0l6.96-6.96c1.43-1.43,1.43-3.75,0-5.17l-6.89-6.89c4.18-5.66,7.11-12.28,8.43-19.47h9.37c2.02,0,3.66-1.64,3.66-3.66Zm-38.27,8.71c-2.39,3.73-5.73,6.8-9.68,8.84-2.08,1.09-4.32,1.89-6.68,2.36-1.61,.33-3.28,.5-4.99,.5-2.83,0-5.57-.47-8.11-1.34-1.96-.65-3.83-1.55-5.54-2.66-3.73-2.38-6.8-5.72-8.85-9.67-.84-1.61-1.51-3.32-1.98-5.12-.56-2.09-.86-4.28-.86-6.55s.3-4.46,.86-6.55c.48-1.8,1.14-3.51,1.99-5.13,2.05-3.95,5.11-7.29,8.84-9.67,1.71-1.1,3.57-2,5.54-2.66,2.54-.87,5.28-1.34,8.11-1.34,1.7,0,3.38,.17,4.99,.5,2.36,.47,4.6,1.26,6.68,2.36,3.95,2.04,7.29,5.11,9.68,8.84,1.38,2.16,2.45,4.56,3.12,7.1,.56,2.09,.86,4.28,.86,6.55s-.3,4.46-.86,6.55c-.67,2.54-1.74,4.93-3.12,7.09Z"/><path class="cls-10" d="M196.63,80.96h-9.37c-1.31-7.2-4.25-13.81-8.43-19.48l6.89-6.89c1.43-1.43,1.43-3.75,0-5.17l-6.96-6.96c-1.43-1.43-3.75-1.43-5.17,0l-7.26,7.26c-5.65-3.64-12.14-6.12-19.11-7.07v-11.1c0-2.02-1.64-3.66-3.66-3.66h-9.84c-2.02,0-3.66,1.64-3.66,3.66v11.85c-6.4,1.46-12.31,4.23-17.43,7.99l-8.94-8.93c-1.43-1.43-3.74-1.43-5.17,0l-6.96,6.96c-1.43,1.43-1.43,3.75,0,5.17l9.3,9.3c-3.28,5.1-5.61,10.87-6.75,17.06h-1.25c6.88,9.56,16.05,17.36,26.72,22.58-.5-.75-.97-1.53-1.39-2.33-.84-1.61-1.51-3.32-1.98-5.12-.56-2.09-.86-4.28-.86-6.55s.3-4.46,.86-6.55c.48-1.8,1.14-3.51,1.99-5.13,2.05-3.95,5.11-7.29,8.84-9.67,1.71-1.1,3.57-2,5.54-2.66,2.54-.87,5.28-1.34,8.11-1.34,1.7,0,3.38,.17,4.99,.5,2.36,.47,4.6,1.26,6.68,2.36,3.95,2.04,7.29,5.11,9.68,8.84,1.38,2.16,2.45,4.56,3.12,7.1,.56,2.09,.86,4.28,.86,6.55s-.3,4.46-.86,6.55c-.67,2.54-1.74,4.93-3.12,7.09-1.91,2.99-4.44,5.54-7.4,7.49,11.6-.59,22.46-3.97,31.95-9.45,.26-1.02,.5-2.05,.69-3.1h4.22c3.13-2.16,6.07-4.57,8.81-7.19v-6.31c0-2.02-1.64-3.66-3.66-3.66Z"/></g><g><g><rect class="cls-25" x="277.54" y="326.05" width="80.44" height="52.51"/><rect class="cls-27" x="277.54" y="326.05" width="80.44" height="23.31"/><path class="cls-25" d="M144.48,89.54H491.04c10.64,0,19.27,8.63,19.27,19.27v199.25H125.21V108.81c0-10.64,8.63-19.27,19.27-19.27Z"/><rect class="cls-13" x="138.63" y="112.26" width="358.25" height="185.57"/><path class="cls-12" d="M125.21,297.83H510.31v19.45c0,10.64-8.63,19.27-19.27,19.27H144.48c-10.64,0-19.27-8.63-19.27-19.27v-19.45h0Z"/><circle class="cls-25" cx="317.76" cy="318.76" r="7.29"/><path class="cls-12" d="M462.85,388.06H172.67c-2.67,0-4.84-2.17-4.84-4.84h0c0-7.82,6.34-14.16,14.16-14.16H453.53c7.82,0,14.16,6.34,14.16,14.16h0c0,2.67-2.17,4.84-4.84,4.84Z"/><g><g><rect class="cls-14" x="401.76" y="140.15" width="79.42" height="19.86" rx="2.19" ry="2.19"/><g><polygon class="cls-3" points="412.95 153.37 409.91 154.76 410.3 151.44 408.03 148.98 411.31 148.32 412.95 145.4 414.59 148.32 417.87 148.98 415.61 151.44 415.99 154.76 412.95 153.37"/><polygon class="cls-3" points="427.21 153.37 424.17 154.76 424.56 151.44 422.29 148.98 425.57 148.32 427.21 145.4 428.85 148.32 432.13 148.98 429.87 151.44 430.25 154.76 427.21 153.37"/><polygon class="cls-3" points="441.47 153.37 438.43 154.76 438.82 151.44 436.55 148.98 439.83 148.32 441.47 145.4 443.11 148.32 446.39 148.98 444.13 151.44 444.51 154.76 441.47 153.37"/><polygon class="cls-3" points="455.73 153.37 452.69 154.76 453.08 151.44 450.81 148.98 454.09 148.32 455.73 145.4 457.37 148.32 460.65 148.98 458.39 151.44 458.77 154.76 455.73 153.37"/><polygon class="cls-24" points="469.99 153.37 466.95 154.76 467.34 151.44 465.07 148.98 468.35 148.32 469.99 145.4 471.64 148.32 474.91 148.98 472.65 151.44 473.03 154.76 469.99 153.37"/></g></g><g><path class="cls-14" d="M158.72,128.6h80c2.42,0,4.38,1.96,4.38,4.38v18.84c0,2.42-1.96,4.38-4.38,4.38h-80c-2.42,0-4.38-1.96-4.38-4.38v-18.84c0-2.42,1.96-4.38,4.38-4.38Z"/><g><g><circle class="cls-3" cx="169.11" cy="142.41" r="7.74" transform="translate(-27.37 243.76) rotate(-67.39)"/><path class="cls-24" d="M163.91,148.13c1.37,1.25,3.19,2.02,5.2,2.02s3.82-.77,5.2-2.02c-.16-2.02-1.45-3.71-3.25-4.43,.77-.59,1.28-1.51,1.28-2.55,0-1.78-1.44-3.22-3.22-3.22s-3.22,1.44-3.22,3.22c0,1.04,.51,1.96,1.28,2.55-1.8,.72-3.09,2.41-3.25,4.43Z"/></g><g><rect class="cls-4" x="182.46" y="138.37" width="41.25" height="1.48"/><rect class="cls-4" x="182.46" y="141.67" width="53.61" height="1.48"/><rect class="cls-4" x="182.46" y="144.97" width="53.61" height="1.48"/></g></g></g><g><rect class="cls-14" x="154.33" y="167.12" width="50.62" height="12.66" rx="2.19" ry="2.19"/><rect class="cls-14" x="154.33" y="185.01" width="50.62" height="12.66" rx="2.19" ry="2.19"/><rect class="cls-4" x="154.33" y="202.9" width="50.62" height="12.66" rx="2.19" ry="2.19"/><rect class="cls-3" x="212.66" y="185.01" width="50.62" height="12.66" rx="2.19" ry="2.19"/><rect class="cls-14" x="212.66" y="202.9" width="50.62" height="12.66" rx="2.19" ry="2.19"/></g><g><rect class="cls-3" x="430.56" y="191.34" width="50.62" height="12.66" rx="2.19" ry="2.19"/><rect class="cls-14" x="430.56" y="209.23" width="50.62" height="12.66" rx="2.19" ry="2.19"/><rect class="cls-4" x="430.56" y="227.12" width="50.62" height="12.66" rx="2.19" ry="2.19"/></g></g></g><g><g><path class="cls-2" d="M257.04,124.7c-2.28,57.73-29.13,63.57,0,105.22,29.13,41.64,129.46,26.89,131.17-4.64,1.71-31.53-19.48-50.52-5.6-89.97s-125.57-10.61-125.57-10.61Z"/><path class="cls-26" d="M264.51,140.06c-3.38,26.24-12.39,52.11-7.76,66.34,0,0,.51-16,3.5-19.86,0,0-2.99,22.46,6.17,40.68s108.06,14.75,108.06,14.75c0,0,2.02-19.95,0-34.41-2.02-14.46-5.88-20.08-6.99-27.82,0,0,6.1,12.59,8.47,17.41s2.69,11.88,2.69,11.88c0,0,.64-12.85-4.37-22.68-5.01-9.83-2.01-36.94-.52-47.48,1.48-10.54-69.76-23.04-77.51-18.82-7.75,4.23-31.74,20.01-31.74,20.01Z"/></g><g><path class="cls-1" d="M287.48,211.33c-34.37,11.64-59.03,16.03-66.16,38.49-7.12,22.47-17.11,48.01-17.11,48.01h232.45s-11.51-52.94-24.11-61.71c-12.6-8.77-61.92-23.46-76.99-25.97-15.07-2.52-48.09,1.18-48.09,1.18Z"/><path class="cls-23" d="M382.23,262.22s.88,21.08-2.2,35.62h7.88l-5.68-35.62Z"/><path class="cls-23" d="M259.92,270.52s-.67,16.16,1.69,27.31h-6.04l4.35-27.31Z"/><path class="cls-23" d="M232.28,243.4c3.01-7.94,12.73-17.26,12.74-17.27-11.8,5.42-20.05,12.18-23.7,23.69-7.12,22.47-17.11,48.01-17.11,48.01h18.75c-.82-23.93,6.3-46.48,9.31-54.43Z"/><path class="cls-25" d="M329.54,255.03s-16.71-1.1-26.85-8.77c-10.14-7.67-8.77-15.34-8.77-15.34,0,0-7.4,.55-10.14,0-2.74-.55,1.19-29.09,17.17-29.62,15.98-.52,49.45,6.11,53.56,6.33,4.11,.22,17.67,12.37,14.24,27.77-.55,2.47-7.17-4.48-10.18-.92s-5.48,18.63-29.04,20.55Z"/><path class="cls-27" d="M324,250.43s-20.07-13.47-29.11-39.91c-1.43-4.18,.99-6.52,5.42-7.23l23.69,47.14Z"/><path class="cls-27" d="M330.39,254.49c11.75-7.52,22.58-26.02,25.86-32.18,3.29-6.16,3.42-11.97-6.65-13.04-10.07-1.07-19.22,45.22-19.22,45.22Z"/><path class="cls-8" d="M351.11,171.76c-3.03,24.44-4.76,37.51,3.41,47.65,0,0-14.57,29.59-24.98,35.62,0,0-24.93-17.81-31.78-46.3,0,0,4.11-6.3,4.66-15.62,.55-9.31-.82-25.48-.82-25.48l49.51,4.13Z"/><path class="cls-17" d="M344.73,236.91c-15.2,18.41-30.87,2.87-36.69-5.02,9.61,14.64,21.5,23.14,21.5,23.14,4.79-2.77,10.46-10.54,15.19-18.11Z"/><path class="cls-17" d="M302.42,193.11c-.47,7.97-3.54,13.73-4.42,15.22,11.28-2,35.47-6.64,50.64-12.05,.24-6.7,1.25-14.69,2.46-24.52l-30.2-2.52-19.28-1.25c.2,2.41,1.29,16.62,.79,25.12Z"/></g><g><g><path class="cls-16" d="M390.49,109.49c.97-15.41,1.22-29.44-10.81-47.42-12.03-17.98-9.49,29.46-9.29,30s10.66,20.55,10.66,20.55l9.43-3.13Z"/><path class="cls-10" d="M383.7,133.89c-1.53,8.86-.49,16.18,3.76,16.92,4.25,.73,8.93-5.86,10.46-14.72,1.53-8.86-.68-16.64-4.93-17.38-4.25-.73-7.76,6.32-9.29,15.18Z"/><path class="cls-15" d="M392.01,139.57l-2.68,1.09-2.62,7.27s-.44,.9-.99,2.06c.51,.41,1.08,.7,1.74,.82,3.77,.65,7.87-4.46,9.82-11.8-3.38,1.76-5.27,.57-5.27,.57Z"/><path class="cls-10" d="M379.77,106.61c3.3-.61,12.65,1.87,13.71,6.7,2.41,10.98-1.6,36.46-8.95,42.75-2.68,2.29-10.15,1.83-12.8,1.01-6.73-2.06-6.75-12.82-4.29-27.08s7.76-22.53,12.33-23.38Z"/><path class="cls-15" d="M392.01,139.57c-3.42,2.47-5.2,0-5.2,0-2.32,4.93-6.58,4.93-11.97,5.66l-3.02-1.6s-2.95,2.17-5.71,4.13c.5,4.91,2.18,8.25,5.62,9.31,2.65,.81,10.12,1.28,12.8-1.01,3.22-2.76,5.81-9.2,7.49-16.49Z"/><path class="cls-16" d="M393.48,113.31c-1.06-4.83-10.41-7.31-13.71-6.7-.27,.05-.55,.13-.83,.23,6.04-.45,9.21,3.78,9.9,8.63,.69,4.85,0,26.77-7.11,36.44-.91,1.23-2.48,4.84-7.76,5.6,3.36,.44,8.44,.35,10.56-1.46,7.36-6.29,11.37-31.77,8.95-42.75Z"/><path class="cls-10" d="M392.01,139.57c-3.42,2.47-5.2,0-5.2,0h0c-1.13,4.74-2.76,9.19-5.08,12.34-.91,1.23-2.48,4.84-7.76,5.6,3.36,.44,8.44,.35,10.56-1.46,3.22-2.76,5.81-9.2,7.49-16.49Z"/><path class="cls-15" d="M380.27,131.99c-1.33,7.74-4.09,13.72-6.17,13.37-2.07-.36-2.67-6.92-1.34-14.66,1.33-7.74,4.09-13.72,6.17-13.37,2.07,.36,2.67,6.92,1.34,14.66Z"/></g><path class="cls-8" d="M276.7,156.6c.09,.23,.19,.45,.29,.68,3.37,7.77,9.45,15.86,15.4,21.92,8.79,8.96,20.72,16.74,33.36,18.44,13.59,1.82,26.06-5.74,35.15-15.44,4.18-4.46,7.44-9.96,8.79-15.96,1.43-6.37,.66-13.21,1.7-19.72,.56-3.5,1.97-6.8,3.15-10.14,3.63-10.25,5.45-21.72,4.2-32.75-.52-4.58-1.27-11.15-3.75-15.12-2.85-4.57-9.45-8.16-13.9-10.95-14.27-8.93-33.18-12.2-49.39-7.15-16.57,5.16-30.09,18.44-37.07,34.15-3.32,7.48-5.25,14.84-3.64,22.9,2.01,10.04,1.71,19.46,5.71,29.14Z"/><path class="cls-17" d="M273.38,118.84s25.75,7.08,48.49,0c22.74-7.08,30.46-21.32,32.35-28.72,0,0,18.57,14.56,22.29,36.05,0,0,1.28-38.15-10.58-42.9-11.85-4.75-36.67-10.96-39.41-8.49-2.74,2.47-48.77,28.77-48.77,28.77l-4.38,15.3Z"/><g><path class="cls-26" d="M299.59,119.38c1.87-.92,3.81-1.7,5.81-2.39,2-.66,4.08-1.17,6.22-1.42,2.12-.26,4.35-.57,6.49-.02,3.09,.84,4.32,1.46,5.82,2.89l-.1,.28c-1.12,.07-2.15,0-3.18-.04l-3-.16c-1.96-.07-3.88-.55-5.88-.55-1.99,0-4,.18-6.02,.49-2.02,.28-4.03,.75-6.06,1.21l-.1-.28Z"/><path class="cls-26" d="M366.62,120.02c-1.92-.82-3.91-1.38-5.94-1.66-2.02-.3-4.05-.39-6.07-.3-2.03,.09-3.98,.64-5.98,.76-2.01,.14-4.02,.34-6.27,.27l-.1-.28c1.7-1.49,3.75-2.38,5.86-2.94,2.13-.59,4.37-.38,6.53-.2,2.17,.17,4.32,.57,6.37,1.25,2.04,.7,4.02,1.6,5.74,2.86l-.15,.26Z"/><ellipse class="cls-26" cx="312.12" cy="130.91" rx="1.96" ry="4"/><ellipse class="cls-26" cx="353.29" cy="131.1" rx="1.88" ry="4"/><path class="cls-17" d="M338.68,150.14c-.57,1.49-1.55,2.86-2.9,3.71-1.36,.85-3.11,1.11-4.59,.48-2.38-1-3.03-3.78,.2-3.15,1.26,.24,2.46,.39,3.75,.21,.66-.09,3.25-.51,3.54-1.25Z"/><g><path class="cls-21" d="M315.11,161.02c8.15,1.06,27.78,1.53,34.19,1.21-2.62,8.7-9.08,17.23-17.92,16.91-9.07-.32-14.35-9.06-16.27-18.13Z"/><path class="cls-11" d="M342.08,174.63c-6.83-5.75-11.76-.83-11.76-.83-1.56-1.06-5.86-2.84-9.64-.29,2.09,2.55,4.71,4.44,7.89,5.23,.99,.13,2.02,.27,3.05,.4,4.04,.07,7.57-1.72,10.46-4.51Z"/><path class="cls-1" d="M317.23,161.25c.14,1.46,.42,2.9,.86,4.3,8.82,3.24,18.69,3.75,27.76,1.43,.33-1.52,.58-3.09,.76-4.67-7.36,.11-21.47-.28-29.38-1.06Z"/></g></g><g><path class="cls-16" d="M367.83,177.95c-.66,.05-1.31,.04-1.94-.05-6.22-.84-9.56-1.31-9.56-1.31l.38-2.73s3.33,.46,9.55,1.31c5.73,.78,13.08-8.32,15.02-19.03,.13-.74,.8-1.25,1.55-1.15h0c.77,.1,1.31,.82,1.18,1.58-2.01,11.3-9.43,20.84-16.17,21.37Z"/><path class="cls-10" d="M383.68,155.46c0,.1,0,.2-.02,.3-2.01,11.3-9.43,20.84-16.17,21.37-.66,.05-1.31,.04-1.94-.05-4.91-.67-8.02-1.09-9.11-1.25l-.11,.76s3.33,.46,9.56,1.31c.63,.09,1.28,.1,1.94,.05,6.74-.54,14.15-10.08,16.17-21.37,.07-.42-.06-.82-.32-1.12Z"/><path class="cls-2" d="M356.49,178.15l-5.46-.75c-1.88-.26-3.2-1.99-2.94-3.88h0c.26-1.88,1.99-3.2,3.88-2.94l5.46,.75c1.88,.26,3.2,1.99,2.94,3.88h0c-.26,1.88-1.99,3.2-3.88,2.94Z"/><path class="cls-7" d="M359.57,172.51c.01,.22,0,.45-.02,.68h0c-.26,1.88-1.99,3.2-3.88,2.94l-4.78-.65c-1.3-.18-2.31-1.07-2.74-2.21-.02,.08-.05,.16-.06,.25h0c-.26,1.88,1.06,3.62,2.94,3.88l5.46,.75c1.88,.26,3.62-1.06,3.88-2.94h0c.14-1.01-.19-1.97-.8-2.69Z"/></g><g><path class="cls-2" d="M349,83.39s27.4,11.51,27.67,49.04c0,0,21.92-24.11,9.04-60.27-12.88-36.16-50.14-34.79-50.14-34.79l13.42,46.03Z"/><path class="cls-7" d="M349,83.39s26.72,11.25,27.63,47.71c0-.21,0-.41,0-.63-.45-36.79-13.2-46.56-25.8-53.26l-3,2.15,1.17,4.03Z"/><path class="cls-2" d="M271.83,116.81s75.52,4.38,81.55-33.97c6.03-38.36-13.33-47.66-22.83-48.58-9.5-.92-28-3.12-43.84,12.24-15.83,15.36-33.5,24.66-31.54,74.34l16.65-4.02Z"/><path class="cls-26" d="M270.26,106.42c3.29-1.83,6.58-3.71,9.76-5.79,3.2-2.04,6.34-4.19,9.41-6.44,6.16-4.49,12.11-9.29,17.74-14.49-5.11,5.71-10.61,11.09-16.37,16.2-2.88,2.56-5.84,5.03-8.88,7.41-3.02,2.41-6.19,4.65-9.39,6.85l-2.27-3.75Z"/><path class="cls-26" d="M313.19,49.75c-17.9,9.68-37.58,32.96-37.96,52.25,0,0-7.57-7.02-3.59-17.09,3.98-10.07,15.7-21.23,22.19-26.02s19.36-9.13,19.36-9.13Z"/><path class="cls-26" d="M276.33,108.56c-2.4-6.21-.75-27.42,0-33.44,.75-6.03,2.98-10.62,3.22-11.75,.24-1.13-.28-1.47-.28-1.47,12.46-19.18,30.14-21.92,48.07-27.53l-1.03-.51c-10.13-.8-25.87-.69-39.59,12.63-15.83,15.36-33.5,24.66-31.54,74.34l16.65-4.02s25.83,1.49,48.48-4.93c-25.19,4.95-41.59,2.9-43.98-3.32Z"/><path class="cls-26" d="M344.03,82.72c-7.4,11.56-16.56,22.34-51.53,27.36-23.3,3.35-26.98-1.43-26.98-1.43,0,0,40.66-2.71,57.09-11.04,16.43-8.34,21.42-14.88,21.42-14.88Z"/></g><g><path class="cls-16" d="M277.03,62.81c4.53-13.24,27.21-28.19,53.52-28.56,0,0-13.52-3.29-29.22,2.56-15.71,5.84-27.01,15.38-33.23,26.14-6.22,10.76,8.94-.13,8.94-.13Z"/><path class="cls-10" d="M299.95,40.39c-14.38,5.75-22.37,17.94-22.37,17.94-.72,.09-7.29,1.31-7.39,1.33-.75,1.08-1.45,2.17-2.1,3.28-.22,.39-.41,.74-.58,1.07,2.06-.14,5.07-.28,5.87,.07,.33,.14,.98,.1,2-.15,.99-.65,1.65-1.13,1.65-1.13,4.53-13.24,27.21-28.19,53.52-28.56-8.85-.11-16.22,.39-30.6,6.14Z"/><path class="cls-16" d="M273.52,109.49c-1.24-24.6,2.24-41.38,5.34-45.95s-9.64-2.58-12.19,1c-1.66,2.32-7.26,21.89-5.21,45.11s12.06-.17,12.06-.17Z"/><path class="cls-10" d="M276.57,60.89c1.09,.41,1.41,.96,.64,2.15-.78,1.19-3.97,11.6-4.79,20.78s-.41,18.81-.59,19.91c-.18,1.1-8.22,3.12-10.64,2.02,.07,1.29,.16,2.6,.28,3.92,.15,1.71,.35,3.17,.58,4.4,2.44,.27,5.83,.4,8.92,.44,1.5-2.54,2.56-5.02,2.56-5.02-1.24-24.6,2.24-41.38,5.34-45.95,1.26-1.85-.08-2.62-2.29-2.65Z"/><path class="cls-10" d="M271.4,108.3c-3.22-.95-12.77,.56-14.33,5.25-3.53,10.68-2.17,36.44,4.51,43.45,2.43,2.56,9.91,2.86,12.63,2.32,6.9-1.36,8.03-12.05,7.06-26.5-.98-14.44-5.4-23.21-9.86-24.53Z"/><path class="cls-15" d="M261.57,157c2.43,2.56,9.91,2.86,12.63,2.32,3.97-.78,6.02-4.66,6.87-10.54-3.32,2.85-11.81,1.94-16.1,0,0,0,.7-12.82-1.57-20.05,0,0-4.06,8.96-6.53,17.29,1.06,4.8,2.62,8.81,4.7,10.99Z"/><path class="cls-16" d="M270.23,133.57c.87,12.9-2.17,23.61-6.8,23.92-4.63,.31-9.09-9.89-9.96-22.79-.87-12.9,2.17-23.61,6.8-23.92,4.63-.31,9.09,9.89,9.96,22.79Z"/><path class="cls-10" d="M264.33,139s-5.92,.74-8.2,9.69c1.91,5.51,4.57,8.99,7.3,8.81,2.36-.16,4.3-3.02,5.52-7.48-1.5-.32-2.88-.74-3.98-1.24,0,0,.52-2.09-.65-9.77Z"/><path class="cls-10" d="M264.2,135.08c.65,9.66-1.09,17.37-5.4,17.66-4.3,.29-8.32-7.31-8.97-16.97-.65-9.66,2.31-17.73,6.61-18.02,4.3-.29,7.11,7.66,7.76,17.32Z"/><path class="cls-15" d="M257.72,149.4c-1.96,.13-3.88-1.03-5.57-3.12,1.71,4.08,4.13,6.63,6.65,6.46,3.7-.25,5.5-5.99,5.52-13.74-.92,6.1-3.1,10.16-6.6,10.4Z"/></g></g></g></g><g><g><g><path class="cls-8" d="M466.45,185.67c-.89,3.29,1.94,6.21,2.85,6.76,.91,.55,7.12,3.1,10.96,3.2,3.84,.09,9.5-8.04,7.49-8.95-2.01-.91-16.07-1.92-17.63-1.92s-3.67,.91-3.67,.91Z"/><path class="cls-1" d="M476.65,183.93c.96,9.86,4.38,17.53,5.62,17.67,1.23,.14,13.47-3.97,16.87-5.48,3.4-1.51,.78-24.65-1.29-24.25-2.08,.41-6.89,4.85-10.76,6.99-3.86,2.13-10.44,5.07-10.44,5.07Z"/><path class="cls-23" d="M496.02,188.03c-1.29,1.97-11.15,6.98-16.5,8.8,1.08,2.91,2.17,4.7,2.75,4.77,1.06,.12,10.18-2.88,14.91-4.69-.12-3.67-1.16-8.88-1.16-8.88Z"/><path class="cls-8" d="M466.47,185.21c-.38,3.91,3.1,4.47,7.4,3.47,4.29-1,11.87-10.5,15.25-14.79,3.38-4.29,9.66-11.94,10.89-12.63,1.23-.68,3.97-1.05,6.58-4.91,2.6-3.86,.14-11.94-.89-12.9s-10.66,2.24-11.87,3.86,.02,10.32-.39,11.41c-.41,1.1-9.06,10.05-12.72,12.24-3.65,2.19-13.97,11.42-14.25,14.25Z"/><path class="cls-17" d="M500.41,149.91c1.15-.55,1.59-3.04,.87-2.6-.73,.44-1.94,.43-3.59,.41-1.64-.02-2.31-.16-2.31-.16,0,0-.25,1.08-.3,1.96,0,0,4.19,.94,5.33,.39Z"/><path class="cls-17" d="M507.69,150.48c-.58-1.25-1.03-2.19-1.03-2.19l-6.92,6.23c-1.66-1.53-3.72-2.93-3.72-2.93l-.64,1.01c.92,1.77,1.56,5.51,1.51,6.43,0,0,.91,1.1,1.46,1.19,0,0-7.72,10.96-12.56,16.35-4.81,5.36-8.18,9.99-10.37,11.48,4.38-2.43,10.69-10.33,13.7-14.15,3.38-4.29,9.66-11.94,10.89-12.63s3.97-1.05,6.58-4.91c1.03-1.53,1.26-3.73,1.1-5.88Z"/><path class="cls-26" d="M494.18,151.1c.03,.64,6.05,6.21,6.68,6.85,.05,.05,.54,.12,.69,0,1.82-1.5,10.27-15.06,10.44-15.54,.16-.46-4.46-5.12-5.88-6.37-.19-.17-1.05-.07-1.2,.14-1.69,2.26-10.76,14.1-10.72,14.92Z"/><path class="cls-2" d="M494.87,151.1c.03,.64,6.05,6.21,6.68,6.85,.63,.64,10.95-15.02,11.13-15.54,.16-.46-5.02-5.04-6.45-6.29-.19-.17-.48-.14-.64,.06-1.69,2.26-10.76,14.1-10.72,14.92Z"/><path class="cls-12" d="M496.02,150.19c.03,.6,5.66,5.81,6.25,6.41,.59,.6,10.24-14.05,10.41-14.54,.15-.43-4.7-4.72-6.03-5.88-.18-.16-.45-.13-.6,.06-1.58,2.12-10.07,13.19-10.03,13.96Z"/><path class="cls-8" d="M500.43,142.55c1.04-.6,2.41-2.63,2.57-3.32s.14-1.3-.39-1.44c-.53-.14-2.33,2.01-3.2,2.65-.87,.64-1.96,1.96-1.62,2.85,.34,.89,2.19,.55,2.4,.41s.24-1.16,.24-1.16Z"/><path class="cls-17" d="M502.91,137.97c.26,.78-2.02,3.9-3.89,4.8l.61,.77s.31-.07,.71-.16c.08-.35,.1-.83,.1-.83,1.04-.6,2.41-2.63,2.57-3.32,.12-.52,.13-1-.09-1.26Z"/><path class="cls-8" d="M497.89,145.7c1.78-.91,3.11-.81,4.07-1.19s1.23-1.82,.62-2.05c-.62-.24-4.52,.38-5.55,.82-1.03,.45-1.65,2.5-1.65,2.5l2.51-.07Z"/><path class="cls-17" d="M498.72,144.64c-.98,.18-1.3,0-1.3,0,0,.38-.37,.57-.81,1.11l1.29-.04c1.78-.91,3.11-.81,4.07-1.19,.44-.17,.72-.56,.86-.96-.47,.79-3.13,.9-4.1,1.09Z"/><path class="cls-8" d="M493.82,147.31c.82,1.26,5.34,.72,6.26,.58,.91-.14,1.52-.71,1.47-1.28-.1-1.16-6.04-.95-6.54-.77-.5,.18-1.19,1.48-1.19,1.48Z"/><path class="cls-17" d="M501.5,146.89c-.66,.61-2.15,.96-3.77,1.08-1.4,.11-2.19,.06-2.38,.04,1.67,.27,4.09-.03,4.73-.12,.76-.11,1.29-.53,1.42-1Z"/></g><g><g><path class="cls-5" d="M515.9,407.7c.27,2.4,1.23,3.29,4.73,3.77,3.49,.48,8.63,.41,11.3-2.19,2.67-2.6,4.31-5.62,4.52-6.92,.21-1.3,.14-2.74,.55-3.42,.41-.68,2.58-1.11,2.32-4.93-.27-3.82-23.41,13.7-23.41,13.7Z"/><path class="cls-10" d="M538.52,384.93c-.39-5.3-12.96-3.26-13.03-1.13-.07,2.12-3.01,11.03-5.91,13.73h0c-3.79,1.73-5.21,6.04-3.69,10.17,1.3,3.51,11.03,2.66,13.36,1.37,2.45-1.36,4.88-4.91,5.61-6.84h0c.53-1.14,.76-2.82,1.92-4.26,1.16-1.44,1.78-1.16,2.33-2.88,.55-1.71-.21-4.86-.6-10.17Z"/><path class="cls-5" d="M527.78,384.7c-1.21,5.47-3.82,9.03-3.05,9.67,.76,.64,5.47,1.4,6.36,0,.89-1.4,2.42-7.31,2.42-9.67s-5.72,0-5.72,0Z"/></g><g><path class="cls-10" d="M499.97,389.19c.31-2.38,.34-5.87-1.67-9.85-2.02-3.97-1.92-4.32-4.25-4.73-2.33-.41-10.82-1.58-10.82-1.58,0,0-1.44,3.97-6.44,6.71-5,2.74-6.03,3.7-9.25,3.7s-10.33,.38-7.53,8.9c0,0,2.26,.98,7.92,.94,5.66-.05,11.42-.5,13.47-1.28,2.05-.78,4.2-1.19,5.43-.68,1.23,.5,5.25,.32,7.53,0,2.28-.32,5.6-2.14,5.6-2.14Z"/><path class="cls-5" d="M473.11,381.38c-.35,.12-.48,.53-.28,.84,.67,1.05,2.08,2.19,2.82,1.93,.91-.32,5.15-3.52,7.4-5.48,1.05-.91,2.05-2.65,1.46-3.47-.59-.82-2.15-1.78-2.79-1.28-.64,.5-1.87,2.91-4.47,5.06-1.76,1.46-3.32,2.12-4.14,2.39Z"/><path class="cls-5" d="M460.01,392.36c5.62,.55,18.55-.55,21.19-1.23,2.64-.68,4.08-1.85,6.61-.89s10.34-.55,11.58-1.03c1.23-.48,.89,1.45,0,1.65-.89,.2-6.51,1.39-9.38,1.65-2.88,.26-3.01-1.86-6.44-.29-3.42,1.58-9.04,1.58-11.51,1.58s-9.52,.55-10.82,0c-1.3-.55-1.23-1.44-1.23-1.44Z"/></g><path class="cls-27" d="M524.46,385.03c3.84,1.05,14.79,.68,15.34-.82,.55-1.51-1.51-25.21-1.51-32.74s-2.6-26.16-2.19-28.22c.41-2.05,.41-3.56-.27-7.12-.68-3.56-.95-44.84-4.25-72.65l-42.74,4.02s-6.85,26.3-7.4,44.93c-.55,18.63,.09,27.58,0,30.32-.09,2.74,1.16,5.48,1.45,7.67,.29,2.19-.08,18.45-.45,24.29-.37,5.84-.63,16.62-1.23,17.9-.6,1.28,12.92,3.84,14.74,2.92s1.83-1.1,1.83-10.59,1.28-32.33,1.28-36.35,1.28-4.75,.73-6.76c-.55-2.01,1.46-11.14,3.47-17.9,2.01-6.76,4.38-14.06,4.38-14.06,0,0,5.66,36.53,7.49,38.72,1.83,2.19,1.46,7.85,2.56,11.14,1.1,3.29,4.38,25.57,4.38,32.33s-1.64,11.87,2.37,12.97Z"/><path class="cls-20" d="M533.56,385.56c1.85-.09,3.54-.29,4.7-.57,.46-1.95,.94-4.4,1.45-7.25-.42-7.97-1.41-21.03-1.41-26.27,0-7.53-2.6-26.16-2.19-28.22,.41-2.05,.41-3.56-.27-7.12-.68-3.56-.96-44.84-4.25-72.65l-8.6,.81-25.17,9.46c12.13,.34,26.24-1.56,26.24-1.56,0,0,1.97,22.26,2.03,25.55,.07,3.29,2.44,33.98,2.44,36.81s1.1,3.64,1.28,6.7-2.19,4.16-2.19,4.16c0,0,3.29,1.1,3.29,1.64s.68,9.36,.68,12.79,1.49,8.08,1.91,18.36c.42,10.27,1.79,22.47,1.79,23.84s0,2.73-1.73,3.53Z"/><path class="cls-20" d="M505.84,269.16l-9.18-2.33,7.12,3.42-5.75,.14,4.41,1.57s1.37,11.45-1.49,19.11c-3.14,8.4-4.57,29.86-5.52,31.51-.96,1.64-3.42,1.23-3.42,1.23,0,0,2.6,.27,2.74,2.19,.14,1.92-.55,7.26-.55,12.92s-.55,14.64-1.1,18.46c-.55,3.82-.8,13.17-1.1,15.65-.29,2.48-4.02,1.9-4.02,1.9h0c1.89,.36,3.84,.63,5.37,.74,5.64,.53,4.47-1.56,4.46-12.66,.14-10.34,1.26-30.66,1.26-34.43,0-4.02,1.28-4.75,.73-6.76-.55-2.01,1.46-11.14,3.47-17.9,2.01-6.76,4.38-14.06,4.38-14.06,0,0-1-9.34-1.13-11.53-.14-2.19-.68-9.18-.68-9.18Z"/></g><g><path class="cls-1" d="M513.5,165.03c-9.86,4.84-11.41,4.65-15.65,6.85-4.24,2.2-4.71,25.3-4.71,28.86s-.05,17.72-.87,21.55c-.82,3.84-3.97,18.08-5.07,20.27-1.1,2.19-3.15,5.89-.55,8.08,2.6,2.19,8.34,3.7,21.09,2.88s27-8.63,27.68-9.73c.68-1.1-4.52-21.23-4.52-25.07s-.55-6.71-.82-8.49c-.27-1.78,4.37-10.14,5.4-15.48s7.91-20.08,7.01-22.78-10.79-5.71-17.43-9.14c-6.63-3.43-11.56,2.19-11.56,2.19Z"/><path class="cls-23" d="M511.25,168.88c0,.59,0,1.17,.13,1.73,.1,.56,.29,1.11,.6,1.57,.58,.96,1.65,1.46,2.75,1.46,1.11,.02,2.24-.27,3.32-.66,1.09-.39,2.13-.92,3.19-1.43-.47,.35-.97,.67-1.46,1-.52,.27-1.03,.58-1.58,.82-1.08,.5-2.26,.83-3.5,.82l-.46-.02-.46-.1c-.31-.05-.59-.2-.88-.33-.54-.33-1.03-.77-1.29-1.34-.61-1.09-.62-2.37-.38-3.51Z"/><path class="cls-23" d="M535.42,243.79c.68-1.1-4.52-21.23-4.52-25.07s-.55-6.71-.82-8.49c-.27-1.78,4.37-10.14,5.4-15.48,.18-.93,.54-2.14,1-3.53l-4.06-3.19c-3.03,7.01-5.49,19.34-8.09,22.36-2.6,3.01-8.63,4.25-8.63,4.25,0,0,5.77,1.37,8.36,.82,0,0,1.94,10.82,1.58,16.16-.36,5.34-1.44,13.42-1.58,14.52-.05,.41-.07,1.84-.06,3.46,6.32-2.43,11.03-5.19,11.42-5.81Z"/><path class="cls-8" d="M524.69,153.1c-.32,5.72-.23,9.64,.96,10.74,0,0-2.87,9.49-11.51,8.68-2.92-.27-2.28-5.21-.64-7.49l-.37-7.01,11.55-4.91Z"/><path class="cls-17" d="M525.06,162.83h0c-.62-1.75-.63-5.17-.37-9.73l-11.55,4.92,.23,4.5h0c1.92,.89,11.69,.32,11.69,.32Z"/></g><g><path class="cls-8" d="M552.15,199.33c1.74,2.65,3.84,9.22,2.65,12.24-1.19,3.01-12.15,16.44-17.08,21.46-4.93,5.02-6.03,5.84-6.94,7.49-.91,1.64-5.3,8.42-6.39,9.45-1.1,1.03-2.95,1.16-2.95,1.16,0,0-1.48,1.51-4.1,1.23,0,0-2.41,1.58-4.26,1.99,0,0-.69,1.16-1.3,1.27-.62,.1-1.3-1.13,0-3.6,1.3-2.47,3.22-3.49,3.63-5.07,.41-1.58,2.07-4.79,2.07-4.79,0,0-3.44,3.28-5.43,3.49s-2.17-.96-1.01-1.92c1.15-.96,2.66-2.4,4.1-4.25,1.44-1.85,3.15-3.08,5.68-3.42,2.53-.34,4.32-.62,5-1.1,.68-.48,4.3-5.14,6.91-10.16,2.61-5.02,5.08-11.44,11.19-17.08l-2.19-4.38,10.41-4.02Z"/><path class="cls-17" d="M513.19,254.04c.59-1.39,1.57-2.57,2.63-3.63l.42-.38c.12-.12,.34-.27,.39-.34,.21-.25,.41-.58,.62-.88,.41-.62,.8-1.24,1.25-1.85-.24,.71-.55,1.39-.88,2.06-.17,.34-.34,.66-.58,.99-.18,.22-.29,.27-.43,.41l-.39,.38c-.53,.51-1.04,1.04-1.55,1.57-.51,.53-.98,1.09-1.46,1.67Z"/><path class="cls-17" d="M517.48,251.9c.43-.74,.93-1.38,1.37-2.05,.47-.66,.89-1.33,1.32-2.06-.02,.86-.4,1.67-.87,2.37-.49,.69-1.09,1.3-1.82,1.74Z"/><path class="cls-17" d="M519.47,252.19c1.27-.36,1.97-1.05,1.97-1.05,0,0,1.85-.14,2.95-1.16,.45-.42,1.45-1.8,2.53-3.4-.02,.03-1.26,1.27-2.16,2.3-1.27,1.45-2.9,.97-2.9,.97l.32-1.34s-1.33,3.03-2.71,3.68Z"/><path class="cls-17" d="M555.08,208.22c-.15,1.25-.23,2.24-2.32,5.52-2.36,3.69-16.03,19.25-18.97,22.12-2.94,2.88-2.88,3.06-4.83,7.6,.82-1.28,1.52-2.41,1.82-2.95,.91-1.64,2.01-2.47,6.94-7.49,4.93-5.02,15.89-18.45,17.08-21.46,.34-.88,.41-2.06,.29-3.35Z"/><path class="cls-17" d="M545.51,204.63l.89,1.7s-1.41,.37-2.48,1.41l-1.74-3.37,3.33,.27Z"/><path class="cls-1" d="M534.17,195.34c-2.24-5.15-2.68-13.51,0-17.91,2.68-4.4,7.26-5.98,8.32-5.46,1.06,.53,3.52,7.39,6.07,10.56,2.55,3.17,9.51,12.06,9.68,12.81,.18,.75-5.99,6.79-17.07,11.22-1.32,.53-7-11.22-7-11.22Z"/><path class="cls-23" d="M541.87,199.33l1.46,3.52s-7.84-8.48-10.89-14.81c.23,2.64,.84,5.23,1.74,7.3,0,0,5.68,11.75,7,11.22,1.9-.76,3.64-1.57,5.24-2.38l-4.54-4.85Z"/></g><g><path class="cls-2" d="M530.57,145.66c2.02-4.92,4.48-10.13,1.38-12.87,0,0,3.47-1.1,5.3-.73,0,0-1.83-1.1-5.48-1.46,0,0,.72-8.31-1.19-11.87,0,0,0,3.65-1,5.11,0,0-2.01-4.29-7.95-5.94-5.94-1.64-11.69-1.83-15.8,2.37-4.11,4.2-8.92,9.59-2,17.72,6.93,8.13,16.06,10.23,19.99,10.78,3.93,.55,6.75-3.11,6.75-3.11Z"/><path class="cls-26" d="M509.4,130.05c1.36,.64,2.79,.98,4.22,1.33,1.43,.32,2.88,.61,4.33,.84,1.45,.24,2.91,.42,4.38,.56,1.46,.11,2.93,.24,4.42,0-1.38,.65-2.94,.82-4.45,.85-1.52,.03-3.03-.11-4.52-.33-1.49-.25-2.97-.6-4.4-1.1-1.42-.5-2.85-1.14-3.98-2.15Z"/><path class="cls-26" d="M525.42,137.15c1.58-.39,4.21-2.93,4.21-2.93,0,0-2.72,1.92-8.31,1.46-5.59-.46-9.32-1.62-9.32-1.62,0,0,5.76,3.38,7.88,3.93,2.12,.54,5.54-.84,5.54-.84Z"/><path class="cls-26" d="M505.97,133.45c-2.6-1.28-3.35,.02-3.35,1.11s1.22,3.43,1.22,3.43l2.13-4.54Z"/><path class="cls-26" d="M533.34,137.48c-2.07,4.1-6.69,7.27-6.69,7.27,0,0-1.8,2.43,.22,3.42,.08,.04,.18,.08,.27,.11,2.1-.91,3.43-2.63,3.43-2.63,1.15-2.8,2.44-5.7,2.77-8.18Z"/><path class="cls-8" d="M526.65,144.75s2.12-1.58,3.56,0c1.44,1.58-1.3,8.9-4.52,7.12,0,0-5.34,6.78-9.04,8.7-3.7,1.92-6.16,.96-7.4-.41-1.23-1.37-5.37-6.99-5.75-12.95-.14-2.12,.48-6.3,.48-7.19s-.55-4.38,.21-5.41,1.78-1.16,1.78-1.16c0,0,4.59,2.26,8.56,2.6,0,0-1.92-1.23-2.53-1.99,0,0,7.88,2.74,13.42,3.08,0,0-.07,3.15,.21,4.52,.27,1.37,1.03,3.08,1.03,3.08Z"/><path class="cls-17" d="M529.52,146.76c-.19-1.34-1.32-1.61-2.24-.67-.94,.96-1.31,4-1.12,4.44,.19,.45,1.69,.42,2.05-.51,.35-.93-.48-1.51-1.34-1.23,0,0-.14-1.35,.62-2.22s1.45-.54,1.61-.31c.16,.22,.43,.51,.43,.51Z"/><g><path class="cls-26" d="M520.68,140.82c-.3-.3-.63-.58-.97-.85-.34-.26-.71-.5-1.11-.69-.39-.19-.81-.4-1.26-.43-.44-.04-.9,0-1.32,.17v.06c.21,.09,.42,.14,.62,.2l.59,.17c.38,.12,.79,.15,1.18,.28,.39,.13,.76,.3,1.13,.49,.37,.19,.73,.41,1.09,.64l.04-.05Z"/><path class="cls-26" d="M505.64,139.28c.38-.19,.78-.34,1.19-.42,.41-.09,.82-.14,1.24-.15,.42,0,.82,.08,1.23,.07,.41,0,.83,.01,1.28-.03l.02-.06c-.37-.28-.8-.43-1.24-.52-.44-.09-.9-.02-1.34,.05-.44,.06-.87,.18-1.28,.34-.41,.17-.8,.38-1.13,.66l.03,.05Z"/><path class="cls-26" d="M516.44,143.23c.06-.58,.38-1.02,.72-.99,.34,.03,.57,.53,.52,1.11-.06,.58-.38,1.02-.72,.99-.34-.03-.57-.53-.52-1.11Z"/><path class="cls-26" d="M507.34,142.49c.06-.58,.33-1.03,.61-1,.28,.03,.46,.52,.4,1.1-.06,.58-.33,1.03-.61,1-.28-.03-.46-.52-.4-1.1Z"/><path class="cls-17" d="M513.16,148.86c-.83,.55-2,.54-2.82-.03,.07,.45,.23,.88,.66,1.04,.42,.16,.91,.11,1.32-.07,.41-.18,.57-.58,.85-.94Z"/><g><path class="cls-21" d="M516.09,152.26c-1.91,.03-6.48-.32-7.96-.53,.45,1.94,1.86,3.85,4.02,3.85,1.95,0,3.35-1.6,3.94-3.31Z"/><path class="cls-11" d="M514.14,154.94c-.74-.23-1.52-.11-1.84-.02,0,0-.96-.71-2.46-.24,.63,.54,1.4,.89,2.31,.89,.75,0,1.42-.24,1.99-.63Z"/><path class="cls-1" d="M509.31,153.34c1.89,.6,4.01,.43,5.88-.23,.03-.29,.08-.57,.12-.86-1.89-.04-4.93-.27-6.55-.45,.1,.53,.28,1.06,.55,1.54Z"/></g></g></g></g><g class="cls-9"><path class="cls-10" d="M558.56,124.01c.41-1.11,.89-2.12,1.43-3.05,.54-.93,1.3-1.72,2.3-2.37,.99-.65,2.31-1.08,3.97-1.29,.51-.07,1.23-.15,2.17-.24,.93-.09,1.91-.25,2.92-.48,1.01-.23,1.92-.58,2.73-1.04,.81-.46,1.36-1.09,1.66-1.89,.21-.57,.23-1.14,.07-1.7-.17-.56-.47-1.05-.9-1.48-.44-.42-.97-.75-1.58-.98-.92-.34-1.77-.4-2.54-.18-.76,.22-1.44,.55-2.01,.97-.58,.43-1.09,.77-1.54,1.04l-5.17-7.59c1.24-1.34,2.67-2.34,4.28-3,1.6-.66,3.32-.99,5.15-.99s3.67,.34,5.52,1.03c1.47,.55,2.87,1.31,4.2,2.28,1.33,.98,2.44,2.15,3.34,3.53,.89,1.38,1.44,2.95,1.64,4.73,.2,1.78-.1,3.73-.89,5.88-.34,.92-.74,1.77-1.21,2.56-.47,.78-1.02,1.48-1.67,2.09-.65,.61-1.39,1.14-2.24,1.59-.85,.45-1.81,.8-2.87,1.06-1.41,.35-2.8,.58-4.17,.67-1.38,.1-2.58,.28-3.59,.53-1.02,.26-1.68,.81-2,1.65l-8.99-3.33Zm-3.73,10.59l.19-.52c.92-2.48,3.68-3.75,6.16-2.83h0c2.48,.92,3.75,3.68,2.83,6.16l-.19,.52c-.92,2.48-3.68,3.75-6.16,2.83h0c-2.48-.92-3.75-3.68-2.83-6.16Z"/><path class="cls-10" d="M542.75,124.93c-.13-.85-.18-1.67-.16-2.45,.02-.78,.22-1.56,.63-2.32,.4-.77,1.09-1.51,2.08-2.23,.3-.22,.73-.53,1.3-.92,.57-.39,1.13-.83,1.69-1.34,.56-.5,1.02-1.05,1.37-1.63,.35-.58,.49-1.18,.39-1.79-.07-.44-.25-.81-.56-1.11-.31-.3-.67-.51-1.1-.62-.43-.11-.88-.14-1.36-.07-.71,.11-1.27,.37-1.68,.78-.41,.41-.72,.86-.94,1.33-.22,.47-.42,.88-.61,1.21l-5.98-3.02c.32-1.29,.88-2.44,1.67-3.42,.79-.99,1.77-1.8,2.93-2.45,1.16-.65,2.46-1.08,3.89-1.3,1.13-.17,2.29-.18,3.49-.03,1.2,.15,2.32,.51,3.38,1.07,1.06,.56,1.96,1.37,2.72,2.44,.76,1.06,1.26,2.42,1.51,4.07,.11,.71,.15,1.4,.13,2.06-.02,.67-.13,1.31-.32,1.93-.2,.62-.48,1.22-.87,1.8-.38,.59-.87,1.15-1.45,1.69-.77,.72-1.58,1.36-2.42,1.9-.84,.55-1.55,1.09-2.11,1.61-.56,.52-.79,1.11-.69,1.76l-6.91,1.05Zm1.36,8.07l-.06-.4c-.29-1.91,1.02-3.69,2.93-3.98h0c1.91-.29,3.69,1.02,3.98,2.93l.06,.4c.29,1.91-1.02,3.69-2.93,3.98h0c-1.91,.29-3.69-1.02-3.98-2.93Z"/></g></g><g><g><g><path class="cls-10" d="M575,352.94c4.86,0,8.96-4.99,8.85-10.93-.07-3.87-.64-7.69-1.7-11.28-2.43-8.23-7.44-16.18-5.63-24.87,.74-3.58,2.63-6.89,2.68-10.55,.05-3.77-1.85-7.01-3.74-9.88-3.15-4.78-6.5-9.36-10.04-13.71-.86,8.17-4.79,15.45-7.52,23.08-2.73,7.63-4.14,17.01-.26,23.48,2.77,4.62,8.02,7.4,8.63,13.17,.25,2.35-.37,4.74-.51,7.13-.38,6.8,3.8,13.29,9.25,14.36h0Z"/><g><path class="cls-16" d="M578.93,363.91l-2.1-9.77c-.51-3.28-1.07-6.56-1.68-9.82-1.21-6.53-2.61-13.02-4.37-19.41-.45-1.59-.9-3.19-1.42-4.75-.25-.79-.52-1.56-.79-2.34-.29-.76-.58-1.53-.82-2.4-.44-1.69-.64-3.39-.71-5.07-.09-1.69-.07-3.36-.04-5.04,.09-3.34,.3-6.67,.43-9.98,.32-3.3,.64-6.61,.2-9.92,.96,3.22,.99,6.64,1.11,9.97-.13,3.34-.34,6.65-.43,9.96-.03,1.65-.05,3.3,.04,4.94,.06,1.64,.26,3.26,.66,4.79,.2,.73,.5,1.52,.8,2.31,.27,.79,.55,1.58,.8,2.38,.52,1.59,.98,3.2,1.43,4.81,1.77,6.44,3.18,12.97,4.39,19.52,.62,3.27,1.16,6.56,1.7,9.85,.31,3.32,.61,6.64,.79,9.98Z"/><path class="cls-16" d="M562.52,295.8c.96,.67,1.82,1.35,2.71,2.02,.44,.34,.84,.74,1.28,1.1,.43,.37,.92,.67,1.43,.9l-.16,.02c.54-.5,1.03-1.07,1.56-1.59,.54-.51,1.08-1.01,1.64-1.49,1.13-.95,2.34-1.8,3.67-2.51l.06,.07c-.94,1.18-1.99,2.22-3.13,3.16-.58,.46-1.17,.9-1.76,1.34-.6,.43-1.25,.8-1.84,1.25l-.08,.06-.08-.04c-.5-.29-1-.56-1.53-.8-.52-.25-1.05-.5-1.52-.84-.92-.69-1.76-1.54-2.31-2.58l.07-.06Z"/><path class="cls-16" d="M559.12,309.45c.81,.26,1.58,.59,2.34,.94,.76,.35,1.51,.71,2.2,1.18,.7,.46,1.41,.92,2.19,1.24,.76,.34,1.58,.56,2.37,.84l-.39,.09c.8-1.04,1.62-2.07,2.52-3.02,.92-.94,1.84-1.87,2.9-2.68l.07,.06c-.67,1.15-1.48,2.19-2.3,3.22-.83,1.02-1.75,1.95-2.68,2.88l-.19,.19-.2-.1c-.75-.39-1.46-.86-2.21-1.22-.74-.39-1.55-.65-2.34-.93-.8-.27-1.54-.67-2.27-1.1-.72-.43-1.41-.92-2.05-1.49l.04-.08Z"/><path class="cls-16" d="M568.6,327.76c.71,.06,1.32,.28,1.91,.52,.29,.14,.55,.35,.85,.5,.28,.16,.63,.23,.92,.21l-.13,.06c.2-.35,.35-.74,.57-1.08,.22-.33,.43-.68,.68-.99,.5-.62,1.09-1.18,1.82-1.62l.07,.05c-.26,.81-.66,1.52-1.15,2.15-.25,.31-.54,.6-.81,.89-.28,.29-.62,.53-.92,.81l-.08,.07h-.05c-.37-.07-.67-.15-1.02-.17-.34-.03-.7-.03-1.03-.14-.64-.24-1.22-.6-1.67-1.16l.04-.08Z"/><path class="cls-16" d="M570.14,343.24c.5-.04,.96-.03,1.42,0,.46,.03,.92,.04,1.37,.16,.45,.11,.91,.27,1.38,.28,.47,.03,.94-.06,1.39-.16l-.16,.06c.29-.32,.61-.61,.94-.88,.32-.28,.65-.56,1-.8,.71-.48,1.46-.91,2.3-1.21l.05,.07c-.52,.73-1.14,1.33-1.8,1.87-.33,.28-.69,.51-1.05,.74-.36,.24-.72,.47-1.11,.66l-.13,.06h-.03c-.49-.07-.95-.16-1.43-.15-.47,0-.95,.1-1.43,.14-.48,.05-.96-.05-1.42-.17-.47-.12-.92-.31-1.34-.59l.02-.08Z"/></g></g><g><path class="cls-16" d="M579.5,356.11c3.36,3.46,8.65-.76,12.13-4.76,4.39-5.03,9.1-10.84,9.61-17.95,.19-2.67-.25-5.33,.15-7.99,.91-6.1,5.8-10.34,8.12-15.98,3.36-8.18,.75-17.51-2.48-25.07-2.12-4.96-4.58-10.12-4.18-15.95,.36-5.33,3.05-10.16,5.64-14.67-6.05,.36-12.86,1.16-17.11,6.93-4.03,5.47-4.24,13.43-3.85,20.46,.39,7.03,1.01,14.59-1.95,20.97-4.02,8.68-14.01,13.8-14.29,23.45-.14,4.87,2.45,8.81,4.21,12.95,1.15,2.7,1.86,6.15,1.39,9.17-.5,3.18,.29,6.33,2.28,8.14l.32,.29Z"/><g><path class="cls-10" d="M578.93,370.27c.37-2.33,.8-4.64,1.2-6.95,.36-2.32,.75-4.63,1.03-6.95,.91-4.58,1.6-9.19,1.82-13.82,.12-2.32,.08-4.62,.09-7.01,0-2.38,.28-4.85,.88-7.19,.6-2.34,1.43-4.57,2.35-6.79,.97-2.19,2.06-4.33,3.32-6.35,2.44-4.07,5.55-7.72,6.52-12.06,.5-2.15,.49-4.41,.19-6.65-.36-2.22-.94-4.52-1.43-6.83-.98-4.61-1.88-9.28-2-14.1,.11-2.41,.46-4.83,1.2-7.12,.73-2.3,1.9-4.43,3.39-6.24-1.2,2.03-2.02,4.23-2.45,6.49-.43,2.26-.47,4.56-.28,6.84,.12,4.58,.98,9.18,1.96,13.74,.48,2.28,1.06,4.54,1.45,6.96,.32,2.4,.34,4.91-.22,7.34-.55,2.43-1.69,4.66-2.94,6.69-1.26,2.03-2.6,3.95-3.8,5.92-1.23,1.96-2.26,4.02-3.2,6.12-.88,2.12-1.69,4.3-2.26,6.51-.57,2.21-.82,4.44-.83,6.75-.01,2.31,.03,4.7-.09,7.07-.22,4.76-.95,9.45-1.84,14.08-1.18,4.58-2.55,9.09-4.07,13.55Z"/><path class="cls-10" d="M599.19,274.05c-.15,.77-.45,1.44-.79,2.08-.33,.64-.72,1.25-1.28,1.74-.56,.49-1.08,1.01-1.43,1.64-.37,.62-.59,1.34-.91,1.99l-.29,.6-.63-.53c-.42-.35-.82-.73-1.22-1.1-.4-.37-.77-.77-1.11-1.2-.67-.87-1.29-1.78-1.73-2.85l.1-.1c1.04,.53,1.89,1.22,2.7,1.96,.4,.37,.77,.77,1.11,1.2,.34,.43,.68,.85,1,1.3l-.92,.07c.49-.54,1.07-1.01,1.51-1.59,.46-.56,.74-1.24,.99-1.94,.25-.7,.66-1.29,1.13-1.84,.47-.55,.98-1.08,1.63-1.5l.12,.08Z"/><path class="cls-10" d="M604.88,294.3c-.1,1.08-.46,2.12-.97,3.07-.52,.94-1.14,1.83-1.97,2.52-.83,.69-1.68,1.31-2.41,2.06-.76,.72-1.42,1.55-2.24,2.27l-.43,.38-.39-.58-1.36-2.01c-.46-.67-.9-1.34-1.32-2.02l-1.28-2.04c-.44-.67-.86-1.36-1.39-2l.08-.12c.8,.33,1.49,.87,2.1,1.45,.62,.58,1.18,1.21,1.68,1.88,.51,.66,.96,1.37,1.35,2.1,.4,.73,.78,1.46,1.11,2.24l-.82-.2c.87-.48,1.81-1,2.58-1.67,.8-.66,1.4-1.52,1.94-2.4,.54-.88,1.15-1.66,1.76-2.47,.61-.81,1.16-1.64,1.81-2.5l.13,.05Z"/><path class="cls-10" d="M599.36,318.69c-.73,1-1.7,1.8-2.72,2.47-1.04,.65-2.14,1.2-3.33,1.5-1.18,.31-2.39,.49-3.52,.87-1.15,.34-2.26,.81-3.44,1.18l-.24,.08-.26-.26c-.74-.74-1.34-1.55-1.95-2.38-.59-.84-1.15-1.7-1.56-2.65-.44-.94-.78-1.92-1-2.94-.2-1.02-.27-2.09-.08-3.1h.14c.24,.99,.58,1.9,.96,2.78,.37,.89,.85,1.74,1.3,2.6l1.44,2.54c.49,.84,1.04,1.67,1.56,2.49l-.5-.18c1.16-.1,2.37-.23,3.51-.56,1.15-.3,2.22-.88,3.25-1.44,1.03-.58,2.11-1.02,3.17-1.51,1.06-.5,2.09-1.02,3.18-1.57l.09,.11Z"/><path class="cls-10" d="M591.22,340.45c-.4,.56-.95,.99-1.54,1.31-.6,.31-1.24,.56-1.91,.63-.67,.07-1.35-.06-2-.1-.66-.05-1.28,0-1.96,.05h-.08l-.15-.13c-.51-.48-1.05-.95-1.49-1.48-.45-.53-.92-1.04-1.32-1.61-.4-.56-.75-1.17-1.08-1.79-.33-.62-.61-1.27-.83-1.97l.11-.08c.6,.41,1.14,.88,1.63,1.37,.49,.5,.97,1.01,1.38,1.56,.42,.55,.77,1.15,1.14,1.74,.38,.58,.66,1.23,.97,1.86l-.23-.13c.59,.16,1.24,.21,1.86,.09,.62-.11,1.21-.41,1.79-.59,.58-.17,1.17-.29,1.76-.44,.6-.12,1.18-.31,1.86-.42l.08,.12Z"/></g></g><g><path class="cls-22" d="M598.19,388.06h-30.06c-1.76,0-3.25-1.28-3.52-3.02l-4.81-31.58c-.33-2.16,1.34-4.1,3.52-4.1h39.69c2.18,0,3.85,1.94,3.52,4.1l-4.81,31.58c-.26,1.74-1.76,3.02-3.52,3.02Z"/><path class="cls-19" d="M603.01,349.36h-6.14c2.18,0,3.85,1.94,3.52,4.1l-4.81,31.58c-.26,1.74-1.76,3.02-3.52,3.02h6.14c1.76,0,3.25-1.28,3.52-3.02l4.81-31.58c.33-2.16-1.34-4.1-3.52-4.1Z"/></g></g><g><g><path class="cls-10" d="M150.86,298.51c.16,1.29-.11,2.58-.73,3.72-2.28,4.14-3.43,8.91-3.28,13.63,.1,3.12,.74,6.3-.11,9.3-1.46,5.17-6.93,8.37-8.68,13.46-1.56,4.51-.11,10.17-3.35,13.67-.8,.87-2.05,1.53-3.15,1.09-.55-.22-.96-.68-1.36-1.13-3.71-4.22-7.69-9.34-6.54-14.84,1.08-5.17,6.4-8.66,7.41-13.84,.82-4.23-1.34-9.12,1.09-12.68,.67-.98,1.63-1.74,2.36-2.68,2.88-3.7,1.82-9.61,5.14-12.92,1.08-1.08,2.44-1.69,3.92-2.01,3.48-.74,6.86,1.68,7.29,5.22h0Z"/><g><path class="cls-16" d="M129.74,364.16c-.22-2.76-.32-5.51-.42-8.28,.13-2.76,.27-5.51,.51-8.27,.24-2.75,.55-5.51,1.03-8.25,.5-2.72,1.15-5.5,2.29-8.06,2-5.06,3.62-10.34,5.25-15.58l2.37-7.9c.97-2.58,1.92-5.17,2.84-7.77-.4,2.74-1.03,5.43-1.58,8.14l-2.37,7.92c-1.64,5.26-3.24,10.52-5.29,15.7-1.11,2.48-1.72,5.1-2.21,7.78-.48,2.68-.78,5.4-1.02,8.13-.23,2.73-.39,5.47-.49,8.21l-.9,8.22Z"/><path class="cls-16" d="M144.29,308.29c-.45,.69-1.04,1.2-1.67,1.66-.32,.22-.7,.36-1.05,.54-.36,.17-.67,.4-.96,.66l-.13,.11-.11-.17c-.26-.4-.58-.78-.83-1.18-.24-.41-.5-.82-.71-1.24-.42-.86-.73-1.77-.89-2.75l.08-.04c.69,.72,1.22,1.52,1.65,2.37,.21,.43,.38,.88,.56,1.32,.17,.45,.28,.93,.44,1.38l-.24-.06c.34-.2,.65-.43,.92-.72,.27-.28,.52-.6,.82-.85,.62-.47,1.29-.87,2.08-1.1l.05,.07Z"/><path class="cls-16" d="M143.62,317.72c-.47,.39-.96,.81-1.47,1.16-.51,.36-1.03,.71-1.59,.99-.57,.27-1.17,.49-1.71,.8-.55,.3-1.05,.68-1.54,1.08l-.17,.14-.17-.23c-.76-.99-1.4-2.04-2.01-3.11-.57-1.09-1.09-2.22-1.45-3.43l.08-.04c.85,.94,1.55,1.96,2.19,3.01,.6,1.08,1.17,2.17,1.63,3.33l-.35-.09c.57-.27,1.14-.55,1.65-.9,.52-.35,.98-.79,1.48-1.18,.51-.37,1.06-.68,1.62-.96,.57-.27,1.14-.54,1.8-.67l.02,.09Z"/><path class="cls-16" d="M140.28,330.16c-.52,.52-1.1,.91-1.69,1.26-.59,.36-1.24,.6-1.93,.77-.69,.17-1.31,.47-1.86,.89-.55,.42-1.09,.88-1.65,1.25l-.42,.27-.31-.47c-.46-.69-.87-1.4-1.2-2.16-.32-.76-.61-1.54-.77-2.39l.1-.05c.63,.59,1.14,1.25,1.6,1.93,.47,.68,.85,1.41,1.18,2.17l-.73-.19c.63-.35,1.3-.55,1.97-.78,.66-.23,1.27-.56,1.82-1.01,.54-.46,1.14-.83,1.79-1.07,.65-.25,1.32-.46,2.05-.52l.05,.1Z"/></g></g><g><path class="cls-16" d="M125.36,364.7c-2.15-.35-10.23-2.94-9.67-5.05,2.42-9.05,4.84-19.32-3.54-23.75-4.03-2.13-9.1-3.21-11.4-7.16-2.37-4.06-.62-9.22,1.5-13.41,2.12-4.19,4.68-8.68,3.77-13.29-.95-4.83-5.52-8.39-6.25-13.26-1-6.64,5.46-12,11.65-14.59,2.11-.88,4.43-1.64,6.65-1.1,1.59,.38,2.96,1.4,4.05,2.62,4.35,4.87,4.18,12.21,3.18,18.67s-2.51,13.27-.08,19.34c1.73,4.31,5.42,8.36,4.43,12.89-.4,1.82-1.53,3.4-1.96,5.21-1.16,4.87,2.88,9.26,4.74,13.92,2.39,6,.75,13.34-3.79,17.9-.86,.87-2.09,1.28-3.29,1.08h0Z"/><g><path class="cls-10" d="M126.12,364.8c-.5-3.58-1-7.15-1.64-10.7-.15-.89-.34-1.77-.48-2.65-.13-.89-.21-1.78-.36-2.67-.27-1.77-.57-3.54-.9-5.3-.68-3.51-1.5-7.01-2.7-10.33-.6-1.65-1.32-3.28-2.26-4.67-.47-.7-1.02-1.31-1.63-1.73-.81-.53-1.58-1.21-2.18-2.03-1.24-1.65-1.62-3.74-1.57-5.62,.04-1.91,.4-3.73,.81-5.51,.83-3.56,1.88-6.99,2.46-10.49,.59-3.48,.7-7.04-.21-10.38-.28-.81-.5-1.64-.77-2.47-.27-.83-.63-1.63-1.03-2.41-.8-1.57-1.85-3.04-3.02-4.43,1.43,1.12,2.75,2.41,3.85,3.9,.55,.74,1.07,1.53,1.51,2.36,.46,.82,.84,1.7,1.04,2.62,1,3.65,.86,7.48,.25,11.09-.6,3.63-1.67,7.11-2.48,10.58-.39,1.73-.73,3.47-.77,5.17-.04,1.69,.29,3.35,1.25,4.62,.47,.64,1.07,1.17,1.77,1.63,.88,.6,1.54,1.37,2.08,2.17,1.08,1.6,1.82,3.31,2.45,5.04,1.25,3.47,2.08,7.02,2.77,10.58,.34,1.78,.65,3.57,.92,5.37,.12,.9,.29,1.79,.4,2.69,.09,.9,.13,1.81,.19,2.71,.2,3.62,.33,7.24,.26,10.86Z"/><path class="cls-10" d="M111.81,294.15c.62,.22,1.14,.58,1.62,.96,.48,.39,.93,.81,1.27,1.33,.34,.52,.64,1.07,1.08,1.5,.42,.44,.93,.81,1.41,1.2l-.64,.04c.22-.46,.48-.9,.72-1.34,.25-.44,.5-.88,.8-1.29,.28-.42,.6-.81,.9-1.22,.31-.4,.65-.78,.93-1.2l.11,.02c.02,.56-.15,1.09-.32,1.58-.19,.49-.4,.97-.66,1.42-.24,.46-.54,.88-.85,1.29-.31,.41-.61,.82-.98,1.2l-.4,.42-.24-.38c-.33-.52-.64-1.06-1.05-1.51-.39-.47-.92-.8-1.42-1.16-.51-.36-.9-.81-1.29-1.27-.39-.47-.75-.95-1.07-1.51l.07-.09Z"/><path class="cls-10" d="M119.64,307.85c-.26,.62-.59,1.18-.96,1.71-.38,.52-.78,1.03-1.23,1.48-.47,.44-1,.82-1.5,1.23-.49,.42-.92,.89-1.31,1.4l-.12,.16-.18-.14c-.65-.52-1.17-.99-1.68-1.55-.49-.56-1.01-1.08-1.46-1.66-.46-.58-.88-1.17-1.29-1.79-.41-.61-.78-1.25-1.2-1.85l.06-.09c.71,.34,1.27,.86,1.82,1.36,.54,.51,1.05,1.06,1.52,1.63,.47,.57,.87,1.19,1.31,1.78,.43,.58,.79,1.29,1.2,1.8l-.3,.02c.5-.41,.94-.86,1.33-1.38,.37-.52,.71-1.08,1.1-1.58,.4-.49,.86-.93,1.32-1.38,.47-.44,.96-.85,1.5-1.23l.09,.07Z"/><path class="cls-10" d="M105.24,318.43c.68,.8,1.38,1.53,2.11,2.24,.72,.7,1.5,1.32,2.26,2,.77,.65,1.64,1.24,2.63,1.53,.98,.31,2.02,.35,3.03,.34l-.45,.32c.18-.85,.44-1.64,.72-2.45,.27-.81,.62-1.59,1.04-2.33,.42-.75,.91-1.46,1.49-2.11,.59-.63,1.28-1.22,2.1-1.51l.06,.09c-.62,.56-1.1,1.21-1.51,1.9-.42,.69-.78,1.41-1.13,2.14l-1.01,2.22c-.33,.75-.62,1.52-.91,2.28l-.14,.36-.31-.05c-1.07-.17-2.08-.53-3.07-.88-.98-.38-1.99-.72-2.95-1.21-.97-.48-1.79-1.21-2.48-2.04-.69-.82-1.25-1.76-1.55-2.79l.1-.05Z"/><path class="cls-10" d="M124.72,326.53c.33,.79,.44,1.66,.42,2.51-.04,.85-.17,1.72-.47,2.52-.31,.8-.78,1.53-1.29,2.2l-1.51,2-.11,.14-.17-.12c-.82-.58-1.74-1.02-2.63-1.48-.88-.47-1.8-.88-2.71-1.27-.91-.39-1.83-.79-2.77-1.15-.93-.38-1.89-.69-2.86-1.05l.02-.11c2.08-.05,4.17,.4,6.08,1.24,.96,.42,1.86,.95,2.73,1.52,.87,.58,1.64,1.28,2.4,2l-.28,.02c.56-.59,1.07-1.24,1.39-1.99,.36-.73,.54-1.52,.79-2.27,.48-1.5,.79-3.04,.86-4.7l.11-.02Z"/></g></g><g><path class="cls-22" d="M140,388.06h-23.06c-2.14,0-3.96-1.85-4.28-4.35l-3.65-28.36c-.4-3.1,1.63-5.9,4.28-5.9h30.36c2.65,0,4.68,2.8,4.28,5.9l-3.65,28.36c-.32,2.5-2.14,4.35-4.28,4.35Z"/><path class="cls-19" d="M143.65,349.45h-5.02c2.65,0,4.68,2.8,4.28,5.9l-3.65,28.36c-.32,2.5-2.14,4.35-4.28,4.35h5.02c2.14,0,3.96-1.85,4.28-4.35l3.65-28.36c.4-3.1-1.63-5.9-4.28-5.9Z"/></g></g></g><g><g><rect class="cls-19" y="188.84" width="83.35" height="49.92" rx="6.85" ry="6.85"/><path class="cls-22" d="M78.85,238.76H4.5c-2.48,0-4.5-2.01-4.5-4.5l41.67-27.66,41.67,27.66c0,2.48-2.01,4.5-4.5,4.5Z"/><path class="cls-6" d="M78.85,188.84H4.5c-2.48,0-4.5,2.01-4.5,4.5l41.67,27.66,41.67-27.66c0-2.48-2.01-4.5-4.5-4.5Z"/></g><g><path class="cls-19" d="M574.44,7.79h-166.33c-5.18,0-9.38,4.2-9.38,9.38V56.07c0,5.18,4.2,9.38,9.38,9.38h16.71l-5.69,14.05,18.93-14.05h136.39c5.18,0,9.38-4.2,9.38-9.38V17.17c0-5.18-4.2-9.38-9.38-9.38Z"/><path class="cls-1" d="M563.47,28.97h-126.76c-1.21,0-2.19-.98-2.19-2.19s.98-2.19,2.19-2.19h126.76c1.21,0,2.19,.98,2.19,2.19s-.98,2.19-2.19,2.19Zm2.19,7.65c0-1.21-.98-2.19-2.19-2.19h-144.37c-1.21,0-2.19,.98-2.19,2.19s.98,2.19,2.19,2.19h144.37c1.21,0,2.19-.98,2.19-2.19Zm-63.38,9.85c0-1.21-.98-2.19-2.19-2.19h-80.99c-1.21,0-2.19,.98-2.19,2.19s.98,2.19,2.19,2.19h80.99c1.21,0,2.19-.98,2.19-2.19Z"/></g><path class="cls-19" d="M608.65,181.15c-6.46,6.46-7.44,16.31-2.97,23.83l-32.89,32.89c-.67,.67-.67,1.77,0,2.44l4.39,4.39c.67,.67,1.77,.67,2.44,0l2.34-2.34,6.08,6.08c.67,.67,1.77,.67,2.44,0l3.59-3.59c.67-.67,.67-1.77,0-2.44l-6.08-6.08,3.15-3.15,5.19,5.19c.67,.67,1.77,.67,2.44,0l3.59-3.59c.67-.67,.67-1.77,0-2.44l-5.19-5.19,15.34-15.34c7.51,4.47,17.36,3.49,23.83-2.97,7.64-7.64,7.64-20.04,0-27.68-7.64-7.64-20.04-7.64-27.68,0Zm21.55,21.55c-4.26,4.26-11.17,4.26-15.43,0-4.26-4.26-4.26-11.17,0-15.43,4.26-4.26,11.17-4.26,15.43,0,4.26,4.26,4.26,11.17,0,15.43Z"/><path class="cls-1" d="M58.17,299.4c-.54-1.55-.93-3.06-1.18-4.53-.24-1.47-.13-2.99,.35-4.57,.48-1.57,1.51-3.21,3.1-4.91,.48-.52,1.18-1.25,2.1-2.17,.92-.92,1.82-1.95,2.69-3.1,.87-1.14,1.54-2.32,1.99-3.53,.46-1.21,.49-2.37,.1-3.49-.28-.8-.76-1.42-1.44-1.87-.68-.45-1.43-.71-2.27-.78-.84-.06-1.7,.06-2.56,.36-1.29,.45-2.25,1.14-2.87,2.06s-1.05,1.86-1.28,2.82c-.24,.97-.48,1.79-.72,2.48l-12.25-3.52c.14-2.53,.78-4.87,1.91-7,1.13-2.12,2.67-4,4.61-5.62,1.95-1.62,4.22-2.89,6.81-3.8,2.06-.72,4.22-1.15,6.51-1.29,2.29-.14,4.52,.13,6.7,.8,2.18,.68,4.16,1.87,5.94,3.59,1.79,1.72,3.21,4.07,4.26,7.07,.45,1.29,.78,2.55,.98,3.81,.2,1.25,.22,2.49,.08,3.72-.15,1.23-.47,2.45-.98,3.68-.51,1.23-1.22,2.46-2.12,3.68-1.19,1.62-2.47,3.09-3.86,4.42-1.38,1.33-2.51,2.58-3.37,3.75-.86,1.18-1.08,2.35-.67,3.53l-12.56,4.41Zm5.41,14.61l-.25-.72c-1.22-3.47,.6-7.27,4.07-8.48h0c3.47-1.22,7.27,.6,8.48,4.07l.25,.73c1.22,3.47-.6,7.27-4.07,8.48h0c-3.47,1.22-7.27-.6-8.48-4.07Z"/></g></g></svg>