<svg xmlns="http://www.w3.org/2000/svg" xmlns:xlink="http://www.w3.org/1999/xlink" width="751.334" height="459.621" viewBox="0 0 751.334 459.621"><defs><clipPath id="a"><rect width="751.334" height="459.621" fill="none"/></clipPath><clipPath id="b"><path d="M460.073,122.588c-1.157.106-2.3.167-3.445.195ZM653.058,40.7c-18.15,8.346-34.259,20.452-51.191,31.052a349.721,349.721,0,0,1-147.424,51.046c-27.678-.51-50.7-23.286-73.157-40.732A240.249,240.249,0,0,0,277.133,35.6c-27.478-4.967-57.263-4.717-81.586,9s-40.846,43.793-32.1,70.311c11.02,33.408,56.392,52.449,54.318,87.566-.918,15.553-11.658,28.772-23.414,39s-25.17,18.833-34.677,31.177-14.309,30.139-6.343,43.529c9.19,15.446,32.753,21.564,35.051,39.389,1.97,15.284-13.6,26.914-18.044,41.671-4.915,16.339,5.172,34.208,19.389,43.642s31.664,12.315,48.546,14.787c146.47,21.454,297.123,28.716,441.575-3.65,14.5-3.249,29.157-6.992,41.877-14.671s23.426-19.925,25.911-34.574c3.176-18.725-7.255-37.143-7.615-56.133-.555-29.265,21.949-52.955,39.6-76.307,17.535-23.2,31.733-50.242,33.113-79.292s-12.535-60.106-38.814-72.565c-11.183-5.3-25.727-8.821-29.28-20.676-1.927-6.43.274-13.279.661-19.981,1.152-19.944-14.948-38.081-34.043-43.952a63.15,63.15,0,0,0-18.616-2.7c-13.511,0-27.2,3.837-39.579,9.531" transform="translate(-149.314 -31.165)" fill="none"/></clipPath><linearGradient id="c" x1="-0.07" y1="0.991" x2="-0.069" y2="0.991" gradientUnits="objectBoundingBox"><stop offset="0" stop-color="#dae3fe"/><stop offset="1" stop-color="#e9effd"/></linearGradient><clipPath id="d"><rect width="751.334" height="459.62" fill="none"/></clipPath><clipPath id="e"><path d="M507.74,1096.107c-.179.134-18.164,13.274-41.286,12.083a.856.856,0,0,0-.086,1.71c16.857.868,31.065-5.695,37.947-9.618a50.289,50.289,0,0,0,4.447-2.8.857.857,0,0,0-.513-1.544.847.847,0,0,0-.508.169" transform="translate(-465.555 -1095.938)" fill="none"/></clipPath><linearGradient id="f" x1="-3.617" y1="5.908" x2="-3.609" y2="5.908" xlink:href="#c"/><clipPath id="g"><path d="M562.938,970.739l-.008,0a.857.857,0,0,0-.307,1.171c13.093,22.419,9.315,41.106,9.275,41.292a.856.856,0,1,0,1.673.361c.168-.785,3.977-19.489-9.471-42.516a.855.855,0,0,0-1.162-.312" transform="translate(-562.506 -970.627)" fill="none"/></clipPath><linearGradient id="h" x1="-12.583" y1="2.982" x2="-12.561" y2="2.982" xlink:href="#c"/><clipPath id="j"><path d="M98.921,1142.6a.857.857,0,0,0,.594,1.056c.754.21,76.562,21.027,175.44,15.566a.857.857,0,0,0-.1-1.71c-98.579,5.445-174.132-15.294-174.884-15.505a.857.857,0,0,0-1.055.594" transform="translate(-98.89 -1141.977)" fill="none"/></clipPath><linearGradient id="k" x1="-0.189" y1="3.171" x2="-0.187" y2="3.171" xlink:href="#c"/><clipPath id="l"><path d="M137,1086.173a.855.855,0,0,0,.059,1.209c.165.15,16.545,15.092,18.185,24.891a.856.856,0,0,0,1.689-.282c-1.737-10.38-18.032-25.25-18.725-25.879a.855.855,0,0,0-1.209.061" transform="translate(-136.776 -1085.891)" fill="none"/></clipPath><linearGradient id="m" x1="-2.281" y1="3.351" x2="-2.264" y2="3.351" xlink:href="#c"/><clipPath id="n"><path d="M146.3,1162.69c-.109.1-11.008,10.219-22.381,13.667a.856.856,0,0,0,.5,1.639,50.394,50.394,0,0,0,11.381-5.3,79.1,79.1,0,0,0,11.674-8.752.856.856,0,1,0-1.17-1.25" transform="translate(-123.309 -1162.459)" fill="none"/></clipPath><linearGradient id="o" x1="-1.696" y1="4.15" x2="-1.682" y2="4.15" xlink:href="#c"/><clipPath id="p"><path d="M275.608,1098.089a.857.857,0,0,0,.2,1.194c.172.123,17.317,12.467,22.645,27.922a.856.856,0,0,0,1.619-.558c-5.509-15.98-22.548-28.245-23.271-28.759a.855.855,0,0,0-1.194.2" transform="translate(-275.449 -1097.729)" fill="none"/></clipPath><linearGradient id="q" x1="-3.754" y1="2.885" x2="-3.741" y2="2.885" xlink:href="#c"/><clipPath id="r"><path d="M289.393,1182.943c-.072.135-7.472,13.586-27.428,20.539a.856.856,0,1,0,.564,1.617,63.043,63.043,0,0,0,12.171-5.718c11.464-7.009,15.965-15.185,16.2-15.628a.857.857,0,0,0-1.509-.81" transform="translate(-261.391 -1182.491)" fill="none"/></clipPath><linearGradient id="s" x1="-2.969" y1="2.559" x2="-2.958" y2="2.559" xlink:href="#c"/><clipPath id="t"><path d="M480.684,1193.108c-.082.162-8.418,16.228-25.622,23.728a.856.856,0,1,0,.684,1.569,49.521,49.521,0,0,0,6.042-3.151,60.4,60.4,0,0,0,20.422-21.37.856.856,0,1,0-1.526-.776" transform="translate(-454.548 -1192.64)" fill="none"/></clipPath><linearGradient id="u" x1="-5.507" y1="2.111" x2="-5.495" y2="2.111" xlink:href="#c"/><clipPath id="v"><path d="M466.813,1111.295a.856.856,0,0,0,.247,1.186c17.608,11.538,21.62,26.47,21.659,26.62a.856.856,0,0,0,1.658-.425c-.162-.635-4.183-15.7-22.38-27.627a.856.856,0,0,0-1.185.246" transform="translate(-466.673 -1110.908)" fill="none"/></clipPath><linearGradient id="w" x1="-6.617" y1="2.854" x2="-6.603" y2="2.854" xlink:href="#c"/><clipPath id="y"><path d="M259.753,247.728a1.013,1.013,0,0,0-.116,1.408c.908,1.1,91.586,112.048,156.578,281.419a.978.978,0,0,0,1.269.571c.024-.009.046-.019.069-.03a1,1,0,0,0,.486-1.262c-65.116-169.7-156-280.877-156.906-281.981a.976.976,0,0,0-.754-.358.957.957,0,0,0-.627.233" transform="translate(-259.406 -247.495)" fill="none"/></clipPath><linearGradient id="z" x1="-0.553" y1="1.323" x2="-0.551" y2="1.323" xlink:href="#c"/><clipPath id="aa"><path d="M195.928,353.989a1.01,1.01,0,0,0,.514,1.315c1.541.683,37.956,16.658,56.089,11.765a.969.969,0,0,0,.172-.064,1,1,0,0,0,.52-1.156.983.983,0,0,0-1.2-.711c-17.477,4.715-54.436-11.5-54.806-11.665a.958.958,0,0,0-.39-.083.977.977,0,0,0-.9.6" transform="translate(-195.848 -353.389)" fill="none"/></clipPath><linearGradient id="ab" x1="-1.151" y1="18.288" x2="-1.145" y2="18.288" xlink:href="#c"/><clipPath id="ac"><path d="M367.99,242.03a.993.993,0,0,0-.839,1.12c2.889,21.782-5.571,47.833-5.657,48.094a1.009,1.009,0,0,0,.618,1.268.96.96,0,0,0,.737-.043.983.983,0,0,0,.5-.58c.088-.265,8.691-26.747,5.74-49a.992.992,0,0,0-.974-.87.968.968,0,0,0-.128.009" transform="translate(-361.443 -242.021)" fill="none"/></clipPath><linearGradient id="ad" x1="-11.432" y1="7.463" x2="-11.4" y2="7.463" xlink:href="#c"/><clipPath id="ae"><path d="M319.318,577.259a1.013,1.013,0,0,0,.359,1.367c.337.2,34.1,20,64.25,17.155a.948.948,0,0,0,.331-.093,1,1,0,0,0-.52-1.9c-29.515,2.781-62.748-16.694-63.081-16.892a.968.968,0,0,0-1.338.36" transform="translate(-319.186 -576.764)" fill="none"/></clipPath><linearGradient id="af" x1="-1.644" y1="12.071" x2="-1.639" y2="12.071" xlink:href="#c"/><clipPath id="ag"><path d="M523.522,442.424a.987.987,0,0,0-.884,1.084c3.571,38.858-13.059,61.663-13.228,61.889a1.014,1.014,0,0,0,.188,1.4.967.967,0,0,0,1.372-.185c.173-.232,17.264-23.6,13.619-63.282a.993.993,0,0,0-.98-.911c-.029,0-.058,0-.088,0" transform="translate(-509.212 -442.42)" fill="none"/></clipPath><linearGradient id="ah" x1="-9.018" y1="4.787" x2="-9.001" y2="4.787" xlink:href="#c"/><clipPath id="ai"><path d="M687.5,751.25a.983.983,0,0,0-.963,1.012c.6,34.717-19.616,60.979-19.82,61.24a1.013,1.013,0,0,0,.158,1.4.966.966,0,0,0,1.376-.153c.209-.266,20.861-27.061,20.246-62.517a1,1,0,0,0-.983-.986H687.5" transform="translate(-666.504 -751.25)" fill="none"/></clipPath><linearGradient id="aj" x1="-9.947" y1="3.2" x2="-9.932" y2="3.2" xlink:href="#c"/><clipPath id="ak"><path d="M484.25,887.617a1.014,1.014,0,0,0,.307,1.38c33,21.345,61.381,16.565,61.663,16.514a.99.99,0,0,0,.252-.082,1,1,0,0,0,.538-1.076.987.987,0,0,0-1.139-.811c-.275.05-27.908,4.7-60.27-16.232a.967.967,0,0,0-1.351.307" transform="translate(-484.099 -887.154)" fill="none"/></clipPath><linearGradient id="al" x1="-2.601" y1="6.835" x2="-2.595" y2="6.835" xlink:href="#c"/><clipPath id="an"><path d="M1809.677,404.724c-.429,1.017-43.02,103.248-53.648,243.024a.774.774,0,0,0,.638.826l.058.008a.755.755,0,0,0,.812-.7c10.608-139.509,53.1-241.523,53.53-242.536a.781.781,0,0,0-.4-1.015.745.745,0,0,0-.993.4" transform="translate(-1756.026 -404.262)" fill="none"/></clipPath><linearGradient id="ao" x1="-10.791" y1="1.319" x2="-10.785" y2="1.319" xlink:href="#c"/><clipPath id="ap"><path d="M1909.831,468.65c-.238.2-23.965,20.35-37.921,20.727a.758.758,0,0,0-.73.79.773.773,0,0,0,.64.74.8.8,0,0,0,.141.01c14.48-.391,37.859-20.239,38.847-21.084a.78.78,0,0,0,.089-1.086.759.759,0,0,0-.584-.276.737.737,0,0,0-.482.179" transform="translate(-1871.18 -468.471)" fill="none"/></clipPath><linearGradient id="aq" x1="-15.878" y1="13.392" x2="-15.87" y2="13.392" xlink:href="#c"/><clipPath id="ar"><path d="M1825.527,426.478a.763.763,0,0,0-.624.881c2.735,17.092,14.942,34.76,15.066,34.936a.756.756,0,0,0,.5.317.742.742,0,0,0,.555-.131.778.778,0,0,0,.176-1.073c-.121-.174-12.127-17.555-14.8-34.288a.769.769,0,0,0-.752-.652.754.754,0,0,0-.116.009" transform="translate(-1824.893 -426.469)" fill="none"/></clipPath><linearGradient id="as" x1="-37.296" y1="8.704" x2="-37.276" y2="8.704" xlink:href="#c"/><clipPath id="at"><path d="M1858.441,661.015c-.2.22-20.457,21.952-42.881,26.417a.774.774,0,0,0,.035,1.517.743.743,0,0,0,.265,0c22.9-4.561,43.481-26.647,43.686-26.87a.782.782,0,0,0-.036-1.089.756.756,0,0,0-.521-.21.741.741,0,0,0-.547.24" transform="translate(-1814.954 -660.775)" fill="none"/></clipPath><linearGradient id="au" x1="-13.705" y1="8.349" x2="-13.698" y2="8.349" xlink:href="#c"/><clipPath id="av"><path d="M1743.763,612.231a.765.765,0,0,0-.588.906c6.071,30.124,23.864,43.619,24.042,43.752a.745.745,0,0,0,1.055-.167.783.783,0,0,0-.17-1.077c-.175-.13-17.5-13.307-23.446-42.809a.767.767,0,0,0-.743-.621.731.731,0,0,0-.15.016" transform="translate(-1743.159 -612.215)" fill="none"/></clipPath><linearGradient id="aw" x1="-23.268" y1="5.614" x2="-23.255" y2="5.614" xlink:href="#c"/><clipPath id="ax"><path d="M1681.314,879.5a.766.766,0,0,0-.519.949c7.378,26.335,28.557,41.572,28.771,41.723a.744.744,0,0,0,1.051-.19.782.782,0,0,0-.194-1.073c-.209-.148-20.949-15.087-28.174-40.873a.764.764,0,0,0-.731-.564.733.733,0,0,0-.2.029" transform="translate(-1680.766 -879.467)" fill="none"/></clipPath><linearGradient id="ay" x1="-18.905" y1="3.758" x2="-18.893" y2="3.758" xlink:href="#c"/><clipPath id="az"><path d="M1808.732,926.82c-19.288,22.619-40.735,25.284-40.949,25.309a.762.762,0,0,0-.662.851.771.771,0,0,0,.635.676.76.76,0,0,0,.2.005c.22-.025,22.248-2.762,41.917-25.825a.782.782,0,0,0-.078-1.088.745.745,0,0,0-1.066.072" transform="translate(-1767.115 -926.557)" fill="none"/></clipPath><linearGradient id="ba" x1="-13.923" y1="5.353" x2="-13.915" y2="5.353" xlink:href="#c"/><clipPath id="bc"><path d="M1819.53,1148.59c-16.823,5.989-33.015.252-33.177.192a.661.661,0,0,0-.451,1.242,39.014,39.014,0,0,0,3.9,1.086c5.952,1.379,17.9,3.09,30.164-1.276a.661.661,0,0,0-.442-1.245" transform="translate(-1785.469 -1148.552)" fill="none"/></clipPath><linearGradient id="bd" x1="-17.258" y1="11.576" x2="-17.249" y2="11.576" xlink:href="#c"/><clipPath id="bf"><path d="M1873.77,1067.657c-.534.339-54.308,34.1-132.005,52.819a.7.7,0,0,0-.015,1.35.688.688,0,0,0,.338,0c77.933-18.778,131.886-52.656,132.422-53a.7.7,0,0,0,.216-.961.691.691,0,0,0-.956-.217" transform="translate(-1741.233 -1067.55)" fill="none"/></clipPath><linearGradient id="bg" x1="-4.418" y1="1.791" x2="-4.415" y2="1.791" xlink:href="#c"/><clipPath id="bh"><path d="M2071.924,1033.009c-.391.651-9.579,16.033-8.52,24.526a.693.693,0,1,0,1.375-.174c-1-8.017,8.237-23.475,8.33-23.631a.7.7,0,0,0-.234-.956.682.682,0,0,0-.358-.1.692.692,0,0,0-.594.336" transform="translate(-2063.319 -1032.673)" fill="none"/></clipPath><linearGradient id="bi" x1="-63.797" y1="4.282" x2="-63.766" y2="4.282" xlink:href="#c"/><clipPath id="bj"><path d="M2064.741,1105.173a.7.7,0,0,0,.311.933,63.773,63.773,0,0,0,11.08,4.1,40.556,40.556,0,0,0,10.054,1.482.7.7,0,0,0,.006-1.392c-9.618-.037-20.414-5.381-20.522-5.436a.69.69,0,0,0-.928.313" transform="translate(-2064.668 -1104.787)" fill="none"/></clipPath><linearGradient id="bk" x1="-31.404" y1="12.26" x2="-31.388" y2="12.26" xlink:href="#c"/><clipPath id="bl"><path d="M1961.885,1074.469c-.442.569-10.81,14.094-11.377,27.828a.7.7,0,0,0,.514.7.724.724,0,0,0,.149.022.694.694,0,0,0,.721-.667c.549-13.283,10.98-26.9,11.086-27.031a.7.7,0,0,0-.121-.977.69.69,0,0,0-.972.121" transform="translate(-1950.507 -1074.201)" fill="none"/></clipPath><linearGradient id="bm" x1="-52.051" y1="3.295" x2="-52.025" y2="3.295" xlink:href="#c"/><clipPath id="bn"><path d="M1950.613,1156.32a.7.7,0,0,0,0,.984c.287.29,5.672,5.613,16.186,8.4a50.8,50.8,0,0,0,10.763,1.62.7.7,0,0,0,.062-1.391c-17.084-.769-25.94-9.526-26.028-9.614a.69.69,0,0,0-.98,0" transform="translate(-1950.409 -1156.117)" fill="none"/></clipPath><linearGradient id="bo" x1="-23.676" y1="5.985" x2="-23.664" y2="5.985" xlink:href="#c"/><clipPath id="bp"><path d="M1807.453,1207.938a.7.7,0,0,0-.024.984,48.836,48.836,0,0,0,20.789,11.894,39.928,39.928,0,0,0,5.415,1.047.7.7,0,0,0,.167-1.382c-15.078-1.837-25.266-12.413-25.367-12.52a.69.69,0,0,0-.98-.023" transform="translate(-1807.239 -1207.745)" fill="none"/></clipPath><linearGradient id="bq" x1="-22.48" y1="3.507" x2="-22.467" y2="3.507" xlink:href="#c"/><clipPath id="br"><path d="M1817.543,1129.262c-11.345,13.529-10.97,26.206-10.948,26.739a.7.7,0,0,0,.515.645.685.685,0,0,0,.205.022.694.694,0,0,0,.665-.722c0-.126-.355-12.7,10.623-25.786a.7.7,0,0,0-.083-.982.691.691,0,0,0-.976.084" transform="translate(-1806.589 -1129.014)" fill="none"/></clipPath><linearGradient id="bs" x1="-48.44" y1="2.763" x2="-48.413" y2="2.763" xlink:href="#c"/><clipPath id="bt"><path d="M1439.88,603.773l1.271,238.511a9.177,9.177,0,0,0,9.178,9.129h158.957a9.178,9.178,0,0,0,9.178-9.178V604.154a9.178,9.178,0,0,0-9.153-9.178l-160.229-.43h-.025a9.178,9.178,0,0,0-9.177,9.227" transform="translate(-1439.88 -594.546)" fill="none"/></clipPath><linearGradient id="bu" x1="-2.736" y1="1.004" x2="-2.734" y2="1.004" xlink:href="#c"/><clipPath id="bw"><path d="M285.392,975.229l1.678,119.993c.035,2.54,5.449,4.592,12.114,4.592H509c6.69,0,12.114-2.067,12.114-4.617V975.42c0-2.545-5.4-4.61-12.082-4.617l-211.493-.216H297.5c-6.713,0-12.149,2.081-12.113,4.642" transform="translate(-285.391 -970.587)" fill="none"/></clipPath><linearGradient id="bx" x1="-0.411" y1="1.007" x2="-0.409" y2="1.007" xlink:href="#c"/><clipPath id="bz"><path d="M1024.989,1068.658l-8.88,79.644h103.029l-13.42-79.644Z" transform="translate(-1016.108 -1068.658)" fill="none"/></clipPath><linearGradient id="ca" x1="-4.159" y1="1.032" x2="-4.155" y2="1.032" gradientUnits="objectBoundingBox"><stop offset="0" stop-color="#09005d"/><stop offset="1" stop-color="#1a0f91"/></linearGradient><clipPath id="cb"><path d="M552.046,430.858a20.113,20.113,0,0,0-19.663,20.112V633.376a27.671,27.671,0,0,0,26.958,27.663c66.623,1.718,299.641,5.884,363.062,4.948a20.361,20.361,0,0,0,20.045-19.781c1.223-42.375,3.209-144.274-4.141-191.582a20.952,20.952,0,0,0-20.034-17.734c-49.7-1.59-250.963-6.259-339.249-6.26-10.876,0-20.025.071-26.978.227" transform="translate(-532.383 -430.631)" fill="none"/></clipPath><linearGradient id="cc" x1="-1.007" y1="0.96" x2="-1.005" y2="0.96" xlink:href="#ca"/><clipPath id="cd"><path d="M566.1,463.874v173.3A16.032,16.032,0,0,0,581.9,653.2l353.657,4.37a15.6,15.6,0,0,0,15.836-15.543l.592-171.75a11.411,11.411,0,0,0-11.134-11.45l-362.08-7.315c-.1,0-.205,0-.307,0A12.363,12.363,0,0,0,566.1,463.874" transform="translate(-566.103 -451.51)" fill="none"/></clipPath><linearGradient id="ce" x1="-0.558" y1="0.965" x2="-0.557" y2="0.965" gradientUnits="objectBoundingBox"><stop offset="0" stop-color="#4042e2"/><stop offset="1" stop-color="#4f52ff"/></linearGradient><clipPath id="cg"><rect width="388.629" height="7.289" fill="none"/></clipPath><clipPath id="ch"><rect width="8.751" height="8.752" fill="none"/></clipPath><clipPath id="ci"><rect width="344.192" height="149.323" fill="none"/></clipPath><clipPath id="cj"><path d="M769.055,1224.824a.339.339,0,0,0,.28.39c.366.06,36.789,6.253,53.085,25.462a.339.339,0,1,0,.518-.439c-8.607-10.145-22.7-16.591-33-20.212a136.378,136.378,0,0,0-20.49-5.481.312.312,0,0,0-.062-.006.337.337,0,0,0-.329.286" transform="translate(-769.051 -1224.539)" fill="none"/></clipPath><linearGradient id="ck" x1="-4.83" y1="1.675" x2="-4.824" y2="1.675" xlink:href="#c"/><clipPath id="cl"><path d="M1075.161,1285.536l-145.367,4.536c-3.007.094-5.539,1.783-6.121,4.085l-1.935,7.652c-.792,3.133,2.284,6.049,6.381,6.049h150.79c4.163,0,7.254-3.006,6.347-6.172l-3.488-12.188c-.665-2.325-3.312-3.966-6.345-3.966-.087,0-.175,0-.263,0" transform="translate(-921.614 -1285.532)" fill="none"/></clipPath><linearGradient id="cm" x1="-8.183" y1="0.573" x2="-8.175" y2="0.573" xlink:href="#ca"/><clipPath id="co"><rect width="341.796" height="41.283" fill="none"/></clipPath><clipPath id="cp"><path d="M1063.569,538.943l10.17,57.953a3.79,3.79,0,0,0,2.393,2.905c4.186,1.556,8.239,1.852,12.1.31a4.407,4.407,0,0,0,2.688-3.339l10.148-57.83Z" transform="translate(-1063.569 -538.943)" fill="none"/></clipPath><linearGradient id="cq" x1="-5.136" y1="5.835" x2="-5.131" y2="5.835" gradientUnits="objectBoundingBox"><stop offset="0" stop-color="#fe7062"/><stop offset="1" stop-color="#ff928e"/></linearGradient><clipPath id="cr"><path d="M917.975,292.843v3.577a9.006,9.006,0,0,0,1.479,4.945l47.94,72.962a61.334,61.334,0,0,0,37.721,0l47.94-72.962a9.008,9.008,0,0,0,1.479-4.945v-3.577l-50.669-3.1Z" transform="translate(-917.975 -289.74)" fill="none"/></clipPath><linearGradient id="cs" x1="-1.856" y1="2.797" x2="-1.854" y2="2.797" xlink:href="#cq"/><clipPath id="ct"><path d="M1049.9,261.578l-127.546,3.494a4.507,4.507,0,0,0-4.383,4.5v4.662c47.273,4.806,92.94,5.21,136.559,0v-8.156a4.507,4.507,0,0,0-4.5-4.507l-.126,0" transform="translate(-917.974 -261.576)" fill="none"/></clipPath><linearGradient id="cu" x1="-5.74" y1="3.18" x2="-5.734" y2="3.18" xlink:href="#cq"/><clipPath id="cw"><rect width="95.043" height="69.482" fill="none"/></clipPath><clipPath id="cx"><rect width="18.316" height="54.111" fill="none"/></clipPath><clipPath id="cy"><path d="M736.393,0a40.564,40.564,0,1,0,40.565,40.564A40.564,40.564,0,0,0,736.393,0Z" transform="translate(-695.829 -0.003)" fill="none"/></clipPath><linearGradient id="cz" x1="-2.047" y1="4.356" x2="-2.044" y2="4.356" gradientUnits="objectBoundingBox"><stop offset="0" stop-color="#e1473d"/><stop offset="1" stop-color="#e9605a"/></linearGradient><clipPath id="da"><path d="M704.719,99.077a38.094,38.094,0,0,0-.549,4.746.34.34,0,0,0,.321.357h.018a.34.34,0,0,0,.339-.321,37.292,37.292,0,0,1,.539-4.661.34.34,0,0,0-.274-.394.375.375,0,0,0-.061-.005.339.339,0,0,0-.333.279" transform="translate(-704.17 -98.798)" fill="none"/></clipPath><linearGradient id="db" x1="-43.376" y1="255.801" x2="-43.313" y2="255.801" gradientUnits="objectBoundingBox"><stop offset="0" stop-color="#ff928e"/><stop offset="1" stop-color="#feb3b1"/></linearGradient><clipPath id="dc"><path d="M715.829,28.973a.339.339,0,1,0,.606.306A36.952,36.952,0,0,1,749.58,8.87a37.412,37.412,0,0,1,6.694.6A.339.339,0,0,0,756.4,8.8a38.109,38.109,0,0,0-6.816-.614,37.626,37.626,0,0,0-33.752,20.782" transform="translate(-715.792 -8.191)" fill="none"/></clipPath><linearGradient id="dd" x1="-10.351" y1="11.015" x2="-10.337" y2="11.015" xlink:href="#db"/><clipPath id="de"><path d="M716.792,55.3a34.333,34.333,0,1,0,34.333-34.333A34.333,34.333,0,0,0,716.792,55.3" transform="translate(-716.792 -20.966)" fill="none"/></clipPath><linearGradient id="df" x1="-2.991" y1="5.758" x2="-2.987" y2="5.758" xlink:href="#cq"/><clipPath id="dh"><rect width="21.052" height="22.026" fill="none"/></clipPath><clipPath id="di"><rect width="40.587" height="19.025" fill="none"/></clipPath><clipPath id="dj"><circle cx="40.564" cy="40.564" r="40.564" transform="translate(0 57.366) rotate(-45)" fill="none"/></clipPath><linearGradient id="dk" x1="-2.995" y1="4.356" x2="-2.992" y2="4.356" xlink:href="#cz"/><clipPath id="dl"><path d="M1008.192,99.077a38.013,38.013,0,0,0-.549,4.746.34.34,0,0,0,.321.357h.018a.34.34,0,0,0,.339-.321,37.28,37.28,0,0,1,.539-4.661.34.34,0,0,0-.274-.394.378.378,0,0,0-.061-.005.339.339,0,0,0-.333.279" transform="translate(-1007.643 -98.798)" fill="none"/></clipPath><linearGradient id="dm" x1="-62.235" y1="255.806" x2="-62.173" y2="255.806" xlink:href="#db"/><clipPath id="dn"><path d="M1019.3,28.973a.339.339,0,0,0,.606.306A36.951,36.951,0,0,1,1053.053,8.87a37.414,37.414,0,0,1,6.694.6.339.339,0,0,0,.122-.668,38.112,38.112,0,0,0-6.816-.614A37.626,37.626,0,0,0,1019.3,28.973" transform="translate(-1019.264 -8.191)" fill="none"/></clipPath><linearGradient id="do" x1="-14.595" y1="11.015" x2="-14.581" y2="11.015" xlink:href="#db"/><clipPath id="dp"><path d="M1020.264,55.3A34.333,34.333,0,1,0,1054.6,20.966,34.333,34.333,0,0,0,1020.264,55.3" transform="translate(-1020.264 -20.966)" fill="none"/></clipPath><linearGradient id="dq" x1="-4.286" y1="5.758" x2="-4.282" y2="5.758" xlink:href="#cq"/><clipPath id="ds"><rect width="21.051" height="22.026" fill="none"/></clipPath><clipPath id="dt"><rect width="40.586" height="19.025" fill="none"/></clipPath><clipPath id="du"><circle cx="40.564" cy="40.564" r="40.564" transform="matrix(0.986, -0.167, 0.167, 0.986, 0, 13.515)" fill="none"/></clipPath><linearGradient id="dv" x1="-3.943" y1="4.356" x2="-3.94" y2="4.356" xlink:href="#cz"/><clipPath id="dw"><path d="M1311.665,99.077a38.019,38.019,0,0,0-.549,4.747.34.34,0,0,0,.321.356h.018a.339.339,0,0,0,.339-.322,37.338,37.338,0,0,1,.539-4.661.34.34,0,0,0-.274-.394A.374.374,0,0,0,1312,98.8a.338.338,0,0,0-.333.279" transform="translate(-1311.116 -98.798)" fill="none"/></clipPath><linearGradient id="dx" x1="-81.095" y1="255.798" x2="-81.033" y2="255.798" xlink:href="#db"/><clipPath id="dy"><path d="M1322.774,28.973a.339.339,0,0,0,.606.306A36.951,36.951,0,0,1,1356.526,8.87a37.415,37.415,0,0,1,6.694.6.339.339,0,1,0,.122-.668,38.111,38.111,0,0,0-6.816-.614,37.627,37.627,0,0,0-33.752,20.782" transform="translate(-1322.737 -8.191)" fill="none"/></clipPath><linearGradient id="dz" x1="-18.838" y1="11.015" x2="-18.825" y2="11.015" xlink:href="#db"/><clipPath id="ea"><path d="M1323.737,55.3a34.333,34.333,0,1,0,34.333-34.333A34.333,34.333,0,0,0,1323.737,55.3" transform="translate(-1323.737 -20.966)" fill="none"/></clipPath><linearGradient id="eb" x1="-5.582" y1="5.758" x2="-5.578" y2="5.758" xlink:href="#cq"/><clipPath id="ee"><rect width="40.589" height="19.025" fill="none"/></clipPath><clipPath id="ef"><path d="M978.012,798.906a49.271,49.271,0,1,0,49.271-49.271,49.271,49.271,0,0,0-49.271,49.271" transform="translate(-978.012 -749.635)" fill="none"/></clipPath><linearGradient id="eg" x1="-2.336" y1="1.66" x2="-2.333" y2="1.66" xlink:href="#cz"/><clipPath id="eh"><path d="M989.024,870.131a46.251,46.251,0,0,0-.666,5.756.34.34,0,0,0,.322.357h.018a.339.339,0,0,0,.339-.322,45.452,45.452,0,0,1,.656-5.67.339.339,0,0,0-.274-.394.328.328,0,0,0-.06-.005.34.34,0,0,0-.334.279" transform="translate(-988.358 -869.852)" fill="none"/></clipPath><linearGradient id="ei" x1="-51.996" y1="113.152" x2="-51.943" y2="113.152" xlink:href="#db"/><clipPath id="ej"><path d="M1002.511,785a.339.339,0,0,0,.606.305,44.954,44.954,0,0,1,40.325-24.829,45.6,45.6,0,0,1,8.144.732.339.339,0,1,0,.122-.668,46.243,46.243,0,0,0-8.266-.744,45.63,45.63,0,0,0-40.931,25.2" transform="translate(-1002.475 -759.796)" fill="none"/></clipPath><linearGradient id="ek" x1="-13.48" y1="4.292" x2="-13.467" y2="4.292" xlink:href="#db"/><clipPath id="el"><path d="M1003.475,816.8a41.7,41.7,0,1,0,41.7-41.7,41.7,41.7,0,0,0-41.7,41.7" transform="translate(-1003.475 -775.098)" fill="none"/></clipPath><linearGradient id="em" x1="-3.458" y1="2.103" x2="-3.454" y2="2.103" xlink:href="#cq"/><clipPath id="eo"><rect width="25.573" height="26.755" fill="none"/></clipPath><clipPath id="ep"><rect width="49.299" height="23.11" fill="none"/></clipPath><clipPath id="eq"><rect width="42.89" height="42.892" fill="none"/></clipPath><clipPath id="er"><path d="M1362.617,660.257a12.218,12.218,0,1,1-22.549,0h-9.651a21.446,21.446,0,1,0,41.851,0Z" transform="translate(-1329.897 -660.257)" fill="none"/></clipPath><linearGradient id="es" x1="-11.402" y1="5.003" x2="-11.394" y2="5.003" xlink:href="#cq"/><clipPath id="ev"><path d="M1493.144,644.694a12.218,12.218,0,1,1,12.218,12.218,12.218,12.218,0,0,1-12.218-12.218m-2.974-15.137a21.446,21.446,0,1,0,30.384,0Z" transform="translate(-1483.916 -629.557)" fill="none"/></clipPath><linearGradient id="ew" x1="-10.116" y1="4.786" x2="-10.109" y2="4.786" xlink:href="#cq"/><clipPath id="ey"><path d="M1671.528,699.97a12.218,12.218,0,0,1-17.029,0h-11.065a21.455,21.455,0,0,0,39.159,0Z" transform="translate(-1643.434 -699.97)" fill="none"/></clipPath><linearGradient id="ez" x1="-21.877" y1="5.747" x2="-21.864" y2="5.747" xlink:href="#cq"/><clipPath id="fa"><path d="M388.695,1349.508a13.18,13.18,0,0,1-5.233-.512c0,.1,0,.2.008.289a.944.944,0,0,0,.9.891,160.2,160.2,0,0,0,17.925.018.672.672,0,0,0,.548-1.01,5.514,5.514,0,0,0-.456-.634c-3.336.288-9.126.757-13.69.957" transform="translate(-383.462 -1348.551)" fill="none"/></clipPath><linearGradient id="fb" x1="-44.782" y1="0.542" x2="-44.672" y2="0.542" xlink:href="#ca"/><clipPath id="fc"><path d="M385.753,1328.707a12.328,12.328,0,0,0-2.293,7.181,13.18,13.18,0,0,0,5.233.512c4.564-.2,10.354-.669,13.69-.958-3.28-4.024-13.69-6.736-13.69-6.736Z" transform="translate(-383.459 -1328.707)" fill="none"/></clipPath><linearGradient id="fd" x1="-6.477" y1="0.93" x2="-6.46" y2="0.93" xlink:href="#ca"/><clipPath id="fe"><path d="M388.759,1314.566l.275,5.444a1.244,1.244,0,0,0,1.062,1.17A4.839,4.839,0,0,0,392.3,1321a1.472,1.472,0,0,0,.989-1.131l.951-5.3Z" transform="translate(-388.759 -1314.566)" fill="none"/></clipPath><linearGradient id="ff" x1="-24.058" y1="2" x2="-23.996" y2="2" xlink:href="#db"/><clipPath id="fg"><path d="M269.145,1346.1a1.881,1.881,0,0,0,1.267,2.144,8.286,8.286,0,0,0,3.507.549,3.486,3.486,0,0,0,2.63-1.213l.008-.011c-1.09.539-2.62.6-5.032.266a2.64,2.64,0,0,1-2.375-1.756l-.006.021" transform="translate(-269.096 -1346.077)" fill="none"/></clipPath><linearGradient id="fh" x1="-29.8" y1="0.674" x2="-29.691" y2="0.674" xlink:href="#ca"/><clipPath id="fi"><path d="M269.257,1325.192a2.64,2.64,0,0,0,2.375,1.757c2.413.336,3.942.273,5.032-.266,2-2.626,2.984-6.471,3.46-8.715a3.059,3.059,0,0,0-1.672-3.505h-2.478c-3.662,0-5.963,7.729-6.718,10.731" transform="translate(-269.257 -1314.461)" fill="none"/></clipPath><linearGradient id="fj" x1="-6.719" y1="0.983" x2="-6.693" y2="0.983" xlink:href="#ca"/><clipPath id="fk"><path d="M286.073,1304.93a1.454,1.454,0,0,0,.756,1.647,5.157,5.157,0,0,0,2.788.675,1.214,1.214,0,0,0,.99-.81l1.977-5.634-5.165-1.233Z" transform="translate(-286.029 -1299.575)" fill="none"/></clipPath><linearGradient id="fl" x1="-14.524" y1="2.374" x2="-14.473" y2="2.374" xlink:href="#db"/><clipPath id="fm"><path d="M285.393,1155.966c1.675,1.486,7.124,1.682,7.124,1.682,19.625-47.1,27.654-53.8,27.654-53.8-2.834,17.779-.457,57.14-.457,57.14,3.238,1.429,7.414,0,7.414,0a303.388,303.388,0,0,1,10.022-74.5c-13.265-.3-20.319-4.838-22.622-6.659-11.057,17.826-29.135,76.136-29.135,76.136" transform="translate(-285.393 -1079.83)" fill="none"/></clipPath><linearGradient id="fn" x1="-0.777" y1="1.054" x2="-0.773" y2="1.054" xlink:href="#ca"/><clipPath id="fo"><path d="M372.194,919.612c-2.511,12.524-1.611,34.938-1.02,45.162.166,2.874-1.84,6.857-3.461,9.575a.852.852,0,0,0,.344,1.2,59.129,59.129,0,0,0,22.57,6.257,1.52,1.52,0,0,0,1.529-1.135c7.906-29.522,17.089-48.386,17.089-48.386-7.067-11.286-22.286-13-30.858-13a52.821,52.821,0,0,0-6.194.323" transform="translate(-367.59 -919.289)" fill="none"/></clipPath><linearGradient id="fp" x1="-1.444" y1="2.116" x2="-1.439" y2="2.116" xlink:href="#ce"/><clipPath id="fq"><path d="M397.82,1124.479a19.717,19.717,0,0,0-7.781,6.756.628.628,0,1,0,1.073.654,18.8,18.8,0,0,1,7.254-6.277.628.628,0,0,0-.546-1.132" transform="translate(-389.947 -1124.417)" fill="none"/></clipPath><linearGradient id="fr" x1="-14.776" y1="10.03" x2="-14.738" y2="10.03" gradientUnits="objectBoundingBox"><stop offset="0" stop-color="#020039"/><stop offset="1" stop-color="#090056"/></linearGradient><clipPath id="fs"><path d="M334.755,1024.436c.806,5.834,3.189,12.2,7.956,18.957l1.812-1.477a55.944,55.944,0,0,1-.9-18.118,13.731,13.731,0,0,0-2.618-.233,26.347,26.347,0,0,0-6.247.871" transform="translate(-334.755 -1023.565)" fill="none"/></clipPath><linearGradient id="ft" x1="-5.864" y1="5.145" x2="-5.846" y2="5.145" xlink:href="#db"/><clipPath id="fu"><path d="M334.126,956.182a21.689,21.689,0,0,1,8.865-.638c.857-6.938,3.415-14.47,9.688-19.852l-2.8-15.452s-18.737,14.322-15.749,35.942" transform="translate(-333.803 -920.24)" fill="none"/></clipPath><linearGradient id="fv" x1="-2.429" y1="3.777" x2="-2.421" y2="3.777" xlink:href="#ce"/><clipPath id="fw"><path d="M469,973.151c1.169,9.4,6.221,13.47,11.668,15.029a33.053,33.053,0,0,1,2.429-10.143c-6.96-7.186-6.865-20.462-6.865-20.462Z" transform="translate(-469.004 -957.575)" fill="none"/></clipPath><linearGradient id="fx" x1="-4.599" y1="4.436" x2="-4.589" y2="4.436" xlink:href="#ce"/><clipPath id="fy"><path d="M503.378,1028c14.532,5.638,18.377-5.3,18.377-5.3l-2.685-.474c-6.065.639-10.3-1.316-13.263-4.373A33.054,33.054,0,0,0,503.378,1028" transform="translate(-503.378 -1017.858)" fill="none"/></clipPath><linearGradient id="fz" x1="-9.298" y1="7.229" x2="-9.279" y2="7.229" xlink:href="#db"/><clipPath id="ga"><path d="M431.116,901.548a3.365,3.365,0,0,0,1.187,4.836,50.742,50.742,0,0,0,5.032,2.3,2.5,2.5,0,0,0,3.34-1.662l3.491-12.836-5.791-3.461Z" transform="translate(-430.544 -890.724)" fill="none"/></clipPath><linearGradient id="gb" x1="-7.711" y1="10.878" x2="-7.693" y2="10.878" xlink:href="#db"/><clipPath id="gc"><path d="M304.779,1039.4a6.85,6.85,0,0,0-3.893,9.273l.271.6a6.368,6.368,0,0,0,8.47,3.143l86.873-40.188-2.253-5.388Z" transform="translate(-300.269 -1006.833)" fill="none"/></clipPath><linearGradient id="gd" x1="-0.888" y1="1.554" x2="-0.884" y2="1.554" xlink:href="#cq"/><clipPath id="gf"><rect width="88.332" height="86.739" fill="none"/></clipPath><clipPath id="gg"><path d="M560.729,855.208c0-22.737,18.771-41.169,41.926-41.169s41.925,18.432,41.925,41.169-18.771,41.17-41.925,41.17-41.926-18.432-41.926-41.17m-7.219,0c0,26.653,22,48.259,49.145,48.259S651.8,881.861,651.8,855.208s-22-48.258-49.145-48.258-49.145,21.606-49.145,48.258" transform="translate(-553.51 -806.95)" fill="none"/></clipPath><linearGradient id="gh" x1="-1.911" y1="1.924" x2="-1.908" y2="1.924" xlink:href="#cq"/><clipPath id="gi"><path d="M563.286,863.379a.17.17,0,0,0-.161.178c.056,1.148.159,2.308.3,3.448a.169.169,0,0,0,.168.148h.022a.17.17,0,0,0,.147-.19c-.145-1.131-.246-2.282-.3-3.421a.168.168,0,0,0-.159-.163h-.019m19.748-39.257a45.25,45.25,0,0,0-16.625,20.3,44.315,44.315,0,0,0-2.642,9.041.17.17,0,0,0,.137.2l.03,0a.17.17,0,0,0,.167-.14,43.953,43.953,0,0,1,2.621-8.971h0a45.431,45.431,0,0,1,42.283-27.983,46.062,46.062,0,0,1,24.487,7,.17.17,0,0,0,.18-.288,46.67,46.67,0,0,0-50.638.848" transform="translate(-563.124 -816.225)" fill="none"/></clipPath><linearGradient id="gj" x1="-3.313" y1="2.554" x2="-3.308" y2="2.554" xlink:href="#db"/><clipPath id="gk"><path d="M461.2,866.885l-.759,14.088,8.2,1.856s2.944-14.427,2.912-14.647c-.232-1.606-2.225-2.06-4.4-2.06a29.473,29.473,0,0,0-5.955.763" transform="translate(-460.441 -866.122)" fill="none"/></clipPath><linearGradient id="gl" x1="-11.847" y1="9.263" x2="-11.821" y2="9.263" xlink:href="#db"/><clipPath id="gm"><path d="M458.293,853.746a1.025,1.025,0,0,1-1.452.44.824.824,0,0,0-.937-.032,1.041,1.041,0,0,1-1.326-.157,3.812,3.812,0,0,0-4.549-1.1,2.7,2.7,0,0,0-1.515,3.735,1.042,1.042,0,0,1-.659,1.347,2.7,2.7,0,0,0-1.815,3.933,1.024,1.024,0,0,0,.569.572c.8.32,2.625,1.213,2.8,2.7.184,1.589-.035,7.256-.113,9.12a1.039,1.039,0,0,0,.507.936,33.51,33.51,0,0,0,7.23,2.958,1.037,1.037,0,0,0,1.26-.614,44.978,44.978,0,0,0,1.888-6.722,1.04,1.04,0,0,0-.716-1.2c-1.143-.35-2.8.09-4.6.6-1.989.563-2.42-1.407-2.5-1.986a1.037,1.037,0,0,1,0-.283l.98-7.385a1.03,1.03,0,0,1,.488-.75c.849-.512,2.8-1.471,4.307-.556,1.98,1.2,5.925,2.112,6.895-.275s.553-6.459-3.122-7.089a4.487,4.487,0,0,0-.754-.067,3.05,3.05,0,0,0-2.856,1.866" transform="translate(-445.743 -851.88)" fill="none"/></clipPath><linearGradient id="gn" x1="-4.453" y1="5.819" x2="-4.442" y2="5.819" xlink:href="#ca"/><clipPath id="go"><path d="M445.447,885.146c.63,3.812,3.387,2.7,3.387,2.7s1.511-4.231-.042-5.267a2.763,2.763,0,0,0-1.511-.482c-1.173,0-2.188.908-1.834,3.049" transform="translate(-445.376 -882.097)" fill="none"/></clipPath><linearGradient id="gp" x1="-17.272" y1="19.425" x2="-17.233" y2="19.425" xlink:href="#db"/><clipPath id="gq"><path d="M358.1,1075.528l-1.661.87c.046,3.155,3.786,1.469,3.786,1.469a38.784,38.784,0,0,1,6.42.857c2.709.689,3.576-.509,3.576-.509l-3.663-3.377Z" transform="translate(-356.437 -1074.839)" fill="none"/></clipPath><linearGradient id="gr" x1="-8.485" y1="8.776" x2="-8.461" y2="8.776" xlink:href="#db"/><clipPath id="gs"><path d="M552.642,1025.572c.732.572,3.238-.621,4.771-1.446a1.764,1.764,0,0,0,.853-2.085c-.369-1.164-.984-2.666-1.742-2.856a.608.608,0,0,0-.146-.016c-1.491,0-6.646,4.129-3.737,6.4" transform="translate(-551.767 -1019.169)" fill="none"/></clipPath><linearGradient id="gt" x1="-20.866" y1="11.297" x2="-20.827" y2="11.297" xlink:href="#db"/><clipPath id="gu"><path d="M320.127,1096.215l-10.743,4.189a5.163,5.163,0,0,0-3.369,4.972c.093,2.137,1.528,3.7,4.266,4.648a.174.174,0,0,0,.055.009.17.17,0,0,0,.055-.33c-2.593-.9-3.952-2.357-4.038-4.342a4.822,4.822,0,0,1,3.153-4.641l10.743-4.189a.17.17,0,0,0-.062-.328.175.175,0,0,0-.061.011" transform="translate(-306.011 -1096.204)" fill="none"/></clipPath><linearGradient id="gv" x1="-6.646" y1="5.514" x2="-6.624" y2="5.514" xlink:href="#db"/><clipPath id="gw"><path d="M358.532,1090.812l-1.393.543a.17.17,0,0,0,.062.328.166.166,0,0,0,.062-.012l1.392-.543a.17.17,0,0,0-.061-.328.166.166,0,0,0-.061.012" transform="translate(-357.031 -1090.8)" fill="none"/></clipPath><linearGradient id="gx" x1="-110.576" y1="47.956" x2="-110.267" y2="47.956" xlink:href="#db"/><clipPath id="gy"><path d="M1653.152,377.586l-8.128.969-9.549,20.656,15.907-9.264c-1.574,10.886,18.861,27.064,25.869,32.967a1.61,1.61,0,0,1,.127,2.344l-2.8,2.929a32.135,32.135,0,0,0,15.876,9.028l-1.475-2.721c-.054-.021-29.173-51.016-33.108-55.815a3.052,3.052,0,0,0-2.723-1.095" transform="translate(-1635.476 -377.564)" fill="none"/></clipPath><linearGradient id="gz" x1="-7.035" y1="4.315" x2="-7.031" y2="4.315" xlink:href="#db"/><clipPath id="ha"><path d="M1748.2,524.217a1.819,1.819,0,0,0,.684,2.1c2.94,2.107,12.64,8.908,17.115,10.24a.506.506,0,0,0,.634-.6,16.129,16.129,0,0,0-3.366-6.155l.215.434a.622.622,0,0,1-.861.821c-2.994-1.69-9.091-5.389-12.03-9.007a4.12,4.12,0,0,0-2.39,2.167" transform="translate(-1748.094 -522.05)" fill="none"/></clipPath><linearGradient id="hb" x1="-27.644" y1="12.296" x2="-27.628" y2="12.296" xlink:href="#ce"/><clipPath id="hc"><path d="M1626.36,412.853,1643.813,407c-3.745,10.342,12.993,30.321,18.662,37.521a1.61,1.61,0,0,1-.35,2.321l-3.333,2.3a32.135,32.135,0,0,0,13.72,12.055l-.893-2.963c-.049-.031-4.418-10.557-4.467-10.589a185.334,185.334,0,0,0-16.661-50.772,3.049,3.049,0,0,0-2.445-1.623l-8.156-.7Z" transform="translate(-1626.36 -394.556)" fill="none"/></clipPath><linearGradient id="hd" x1="-6.599" y1="4.405" x2="-6.595" y2="4.405" xlink:href="#db"/><clipPath id="he"><path d="M1718.825,553.421a1.82,1.82,0,0,0,.245,2.192c2.453,2.658,10.576,11.281,14.689,13.492a.506.506,0,0,0,.741-.456,16.127,16.127,0,0,0-2.051-6.71l.122.469a.622.622,0,0,1-1.009.629c-2.59-2.261-7.813-7.117-9.959-11.255a4.121,4.121,0,0,0-2.779,1.639" transform="translate(-1718.564 -551.782)" fill="none"/></clipPath><linearGradient id="hf" x1="-24.433" y1="11.732" x2="-24.419" y2="11.732" xlink:href="#ce"/><clipPath id="hg"><path d="M1538.059,382.573s-7.378,10.973-7.983,15.979,2.04,6.737,9.762,7.375c22.979,1.9,34.308-4.988,34.308-4.988,1.572-10.023,2.69-12.572,15.819-18.022,0,0-16.605,1.318-19.947.022-1.372-.533-7.005-.69-13.167-.69-8.849,0-18.791.323-18.791.323" transform="translate(-1529.993 -382.25)" fill="none"/></clipPath><linearGradient id="hh" x1="-15.654" y1="5.491" x2="-15.644" y2="5.491" xlink:href="#ce"/><clipPath id="hi"><path d="M1560.7,198.91c-.989,1.351-4.789.237-6.183,3.064a3.59,3.59,0,0,1-3.874,1.994c-3.986-.735-10.5-.8-13.719,5.45-2.456,4.768-.56,7.559,1.9,9.15a4.024,4.024,0,0,1,1.356,5.392c-1.046,1.776-1.243,4.18,1.458,7.074,6.05,6.485,18.028-4.115,18.028-4.115l9.51-22.472,2.13-6.916a6.985,6.985,0,0,0-4.776-2.336c-1.719,0-3.749.879-5.826,3.715" transform="translate(-1535.777 -195.195)" fill="none"/></clipPath><linearGradient id="hj" x1="-9.733" y1="7.292" x2="-9.726" y2="7.292" xlink:href="#ca"/><clipPath id="hk"><path d="M1558.146,261.734s-18.957,12.3-26.4,33.143l8.365,2.6a97.736,97.736,0,0,1,9.84-13.583s-8.462,11.178-8.76,15.755l17.98,1.858s8.591-8.181,12.82-13.6a11.5,11.5,0,0,0,1.947-10.347c-1.931-6.505-5.362-13.242-5.675-14.291-.443-1.484-8.686-1.541-9.951-1.541h-.162" transform="translate(-1531.741 -261.734)" fill="none"/></clipPath><linearGradient id="hl" x1="-8.719" y1="6.482" x2="-8.713" y2="6.482" xlink:href="#cq"/><clipPath id="hm"><path d="M1526.206,364.368a3,3,0,0,0,1.1,3.452,19.8,19.8,0,0,0,2.84,1.768c1.48.648,34.1.205,34.1.205l7.52-.552-6.456-7.024-7.455,2.008s-8.692,1.346-13.667,0l-4.975-1.346-11.242-3.5Z" transform="translate(-1526.034 -359.378)" fill="none"/></clipPath><linearGradient id="hn" x1="-14.243" y1="8.212" x2="-14.234" y2="8.212" xlink:href="#db"/><clipPath id="ho"><path d="M1616.437,225.8l-6.475,12.04c.427,2.628,7.047,2.7,8.069,1.133a1.546,1.546,0,0,0,.2-.531l3.874-8.044c.166-.784-1.985-3.428-2.692-3.8l-2.1-1.116c-.219.1-.507.2-.882.323m.405-.577.476.254c.989-.431.534-.609.03-.609-.441,0-.919.135-.506.355" transform="translate(-1609.962 -224.864)" fill="none"/></clipPath><linearGradient id="hp" x1="-27.396" y1="20.55" x2="-27.379" y2="20.55" xlink:href="#db"/><clipPath id="hq"><path d="M1628.506,215.841a11.369,11.369,0,0,0,2.673,10.074c1.618,1.844,4.8,2.078,8-3.094s2.466-9.24,2.466-9.24c-.436-2.049-2.44-2.932-4.76-2.932-3.552,0-7.844,2.07-8.378,5.191" transform="translate(-1628.285 -210.65)" fill="none"/></clipPath><linearGradient id="hr" x1="-29.372" y1="18.954" x2="-29.354" y2="18.954" xlink:href="#db"/><clipPath id="hs"><path d="M1629.87,196.658c-5.85,1.627-9.268,3.481-9.928,7.542s2.655,3.4,2.655,3.4,1.267-2.8,2.8-2.994.977,2.025.977,2.025l.437.248s5.177-6.8,9.151-.872l-.067,2.048s5.168-.242,4.608-5.006a7.45,7.45,0,0,0-7.678-6.814,11.01,11.01,0,0,0-2.951.424" transform="translate(-1619.855 -196.234)" fill="none"/></clipPath><linearGradient id="ht" x1="-24.325" y1="16.18" x2="-24.31" y2="16.18" xlink:href="#ca"/><clipPath id="hu"><path d="M1630.958,219.463l1.95-.745s2.682-3.48.241-4.2a1.887,1.887,0,0,0-.534-.084c-1.893,0-1.8,3.616-1.657,5.031" transform="translate(-1630.889 -214.432)" fill="none"/></clipPath><linearGradient id="hv" x1="-92.127" y1="63.329" x2="-92.07" y2="63.329" xlink:href="#db"/><clipPath id="hw"><path d="M1625.111,388.7l-29.693.033a1.329,1.329,0,0,0-.065,2.656l.068,0,29.693-.033a1.329,1.329,0,0,0,.021-2.658h-.023" transform="translate(-1594.091 -388.702)" fill="none"/></clipPath><linearGradient id="hx" x1="-73.028" y1="10.577" x2="-72.983" y2="10.577" xlink:href="#ca"/><clipPath id="hy"><path d="M1660.732,317.2a4.713,4.713,0,0,0-4.262,2.7l-11.432,24.24h30.73a2.864,2.864,0,0,0,2.664-1.812L1687.3,319.9a1.975,1.975,0,0,0-1.836-2.7Z" transform="translate(-1645.038 -317.199)" fill="none"/></clipPath><linearGradient id="hz" x1="-11.099" y1="7.502" x2="-11.092" y2="7.502" xlink:href="#ca"/></defs><g clip-path="url(#a)"><g transform="translate(50.682 10.578)"><g clip-path="url(#b)"><rect width="668.745" height="453.751" transform="translate(-3.948 -0.535)" fill="url(#c)"/></g></g><g transform="translate(0 0.001)"><g clip-path="url(#d)"><path d="M30.51,742.2a42.357,42.357,0,1,1,68.015-50.5l0,0a45.408,45.408,0,0,0,32.584,18.182,53.945,53.945,0,0,1,38.819,21.658l0,0A50.7,50.7,0,0,0,209.8,752.018a61.381,61.381,0,1,1-50.193,97.95q-1.621-2.184-3.02-4.46a63.362,63.362,0,0,0-41.043-28.816A54.19,54.19,0,0,1,75.1,780.369,35.518,35.518,0,0,0,51.888,757.4,42.212,42.212,0,0,1,30.51,742.2" transform="translate(-14.631 -445.596)" fill="#91b3fa"/><path d="M326.46,917.857a.854.854,0,0,1-.763.042C214,869.7,142.055,805.257,141.341,804.611a.855.855,0,1,1,1.147-1.269c.711.643,72.467,64.9,183.886,112.986a.856.856,0,0,1,.086,1.529" transform="translate(-93.179 -530.519)" fill="#bdd0fb"/><path d="M221.093,801.849a.856.856,0,0,1-1.243-.994c3.578-11.736-6.282-37.221-6.382-37.477a.855.855,0,1,1,1.594-.622c.417,1.068,10.175,26.295,6.425,38.6a.855.855,0,0,1-.394.494" transform="translate(-140.972 -503.495)" fill="#bdd0fb"/><path d="M168.206,877.338a.877.877,0,0,1-.18.077c-.733.218-18.129,5.329-32.956,2.809a.855.855,0,1,1,.285-1.687c14.427,2.451,32-2.711,32.18-2.763a.856.856,0,0,1,.67,1.563" transform="translate(-88.753 -578.488)" fill="#bdd0fb"/><path d="M370.442,896.633a.856.856,0,0,1-1.271-.855c2.606-19.983-9.522-43.013-9.645-43.243a.842.842,0,0,1,.352-1.158.856.856,0,0,1,1.158.353c.125.235,12.51,23.738,9.831,44.271a.852.852,0,0,1-.425.633" transform="translate(-237.423 -562.328)" fill="#bdd0fb"/><path d="M305.438,984.586c-4.938,2.815-19.3,9.473-40.862,6.713a.856.856,0,1,1,.216-1.7c25.778,3.3,41.386-7.471,41.54-7.583a.856.856,0,0,1,.989,1.4c-.121.085-.758.528-1.883,1.17" transform="translate(-174.277 -648.591)" fill="#bdd0fb"/></g></g><g transform="translate(158.023 371.994)"><g clip-path="url(#e)"><rect width="43.687" height="14.83" transform="translate(-0.023)" fill="url(#f)"/></g></g><g transform="translate(190.931 329.459)"><g clip-path="url(#g)"><rect width="15.164" height="43.643" transform="translate(-0.122)" fill="url(#h)"/></g></g><g transform="translate(0 0.001)"><g clip-path="url(#d)"><path d="M18.876,1102.365a34.491,34.491,0,0,1,31.246-61.5l0,0a36.935,36.935,0,0,0,30.331,1.409,43.882,43.882,0,0,1,36.134,1.676l0,0a41.245,41.245,0,0,0,36.465.433A49.953,49.953,0,1,1,152,1133.978q-1.973-1-3.817-2.152a51.528,51.528,0,0,0-40.35-6.083A44.057,44.057,0,0,1,65.2,1113.972a28.877,28.877,0,0,0-25.239-8.3,34.326,34.326,0,0,1-21.085-3.306" transform="translate(0 -685.089)" fill="#bdd0fb"/></g></g><g transform="translate(33.566 387.621)"><g clip-path="url(#j)"><rect width="176.986" height="22.708" transform="translate(-0.095 0)" fill="url(#k)"/></g></g><g transform="translate(46.426 368.583)"><g clip-path="url(#l)"><rect width="20.31" height="27.164" transform="translate(-0.096)" fill="url(#m)"/></g></g><g transform="translate(41.855 394.573)"><g clip-path="url(#n)"><rect width="24.623" height="15.675" transform="translate(-0.1)" fill="url(#o)"/></g></g><g transform="translate(93.496 372.602)"><g clip-path="url(#p)"><rect width="24.872" height="30.16" transform="translate(-0.116)" fill="url(#q)"/></g></g><g transform="translate(88.724 401.372)"><g clip-path="url(#r)"><rect width="29.843" height="22.763" transform="translate(-0.108)" fill="url(#s)"/></g></g><g transform="translate(154.287 404.817)"><g clip-path="url(#t)"><rect width="27.994" height="25.955" transform="translate(-0.118)" fill="url(#u)"/></g></g><g transform="translate(158.403 377.075)"><g clip-path="url(#v)"><rect width="23.919" height="28.925" transform="translate(-0.119)" fill="url(#w)"/></g></g><g transform="translate(0 0.001)"><g clip-path="url(#d)"><path d="M170.74,82.338a61.285,61.285,0,0,0-87.362,9.735,64.333,64.333,0,0,0,9.954,89.134,63.164,63.164,0,0,1,26.952,46.68c2.183,25.868,15.122,51.9,27.922,62.342,18.066,14.74,35.863,20.343,35.464,43.878-.467,27.555,3.768,71.937,26.556,90.53a88.758,88.758,0,0,0,126.524-14.1c30.958-39.54,24.5-97.336-14.416-129.09a35.8,35.8,0,0,0-3.44-2.085,95.2,95.2,0,0,1-46.419-63.841c-4.707-22.749-16.147-43.8-25.507-51.434-3.605-2.941-12.987-7.884-23.824-11.808a52.988,52.988,0,0,1-32.62-34.974c-4.553-15.466-13.236-29.624-19.785-34.967" transform="translate(-46.148 -45.163)" fill="#bdd0fb"/></g></g><g transform="translate(88.05 84.007)"><g clip-path="url(#y)"><rect width="158.94" height="283.83" transform="translate(-0.118)" fill="url(#z)"/></g></g><g transform="translate(66.477 119.951)"><g clip-path="url(#aa)"><rect width="57.632" height="18.573" transform="translate(-0.133 0)" fill="url(#ab)"/></g></g><g transform="translate(122.684 82.149)"><g clip-path="url(#ac)"><rect width="10.721" height="50.578" transform="translate(-0.121 0)" fill="url(#ad)"/></g></g><g transform="translate(108.341 195.771)"><g clip-path="url(#ae)"><rect width="65.801" height="21.858" transform="translate(-0.139)" fill="url(#af)"/></g></g><g transform="translate(172.841 150.17)"><g clip-path="url(#ag)"><rect width="19.152" height="64.642" transform="translate(-0.127 0)" fill="url(#ah)"/></g></g><g transform="translate(226.231 254.996)"><g clip-path="url(#ai)"><rect width="22.731" height="63.939" transform="translate(-0.124 0)" fill="url(#aj)"/></g></g><g transform="translate(164.317 301.126)"><g clip-path="url(#ak)"><rect width="63.129" height="23.188" transform="translate(-0.138)" fill="url(#al)"/></g></g><g transform="translate(0 0.001)"><g clip-path="url(#d)"><path d="M1651.368,284.863a47.266,47.266,0,0,1,66.7-12.106,49.616,49.616,0,0,1,12.335,68.061,48.715,48.715,0,0,0-9.6,40.447c4.1,19.6.291,41.689-6.861,52.234-10.093,14.883-22.006,22.954-16.512,40.257,6.432,20.258,13.108,53.988.377,72.76a68.454,68.454,0,0,1-96.606,17.532,71.857,71.857,0,0,1-17.865-98.572,27.583,27.583,0,0,1,2.081-2.3,73.421,73.421,0,0,0,20.2-57.428c-1.548-17.85,2.256-35.93,7.485-43.64,2.014-2.97,7.854-8.695,15-13.988a40.865,40.865,0,0,0,16.377-33.049c-.052-12.434,3.236-24.813,6.895-30.208" transform="translate(-1037.82 -174.362)" fill="#bdd0fb"/></g></g><g transform="translate(596.047 137.218)"><g clip-path="url(#an)"><rect width="55.233" height="244.354" transform="translate(-0.029 0)" fill="url(#ao)"/></g></g><g transform="translate(635.134 159.013)"><g clip-path="url(#ap)"><rect width="39.999" height="22.447" transform="translate(-0.013 0)" fill="url(#aq)"/></g></g><g transform="translate(619.423 144.756)"><g clip-path="url(#ar)"><rect width="16.607" height="36.174" transform="translate(-0.058 0)" fill="url(#as)"/></g></g><g transform="translate(616.049 224.287)"><g clip-path="url(#at)"><rect width="44.944" height="28.187" transform="translate(-0.068)" fill="url(#au)"/></g></g><g transform="translate(591.68 207.804)"><g clip-path="url(#av)"><rect width="25.426" height="44.857" transform="translate(-0.068 0)" fill="url(#aw)"/></g></g><g transform="translate(570.502 298.517)"><g clip-path="url(#ax)"><rect width="30.173" height="42.875" transform="translate(-0.086)" fill="url(#ay)"/></g></g><g transform="translate(599.811 314.501)"><g clip-path="url(#az)"><rect width="43.078" height="27.111" transform="translate(-0.044)" fill="url(#ba)"/></g></g><g transform="translate(0 0.001)"><g clip-path="url(#d)"><path d="M1822.217,779.442A32.667,32.667,0,1,0,1760.8,757.15v0a35.021,35.021,0,0,1-20.061,20.635,41.6,41.6,0,0,0-23.9,24.579v0a39.1,39.1,0,0,1-24.933,23.934,47.339,47.339,0,1,0,58.727,61.289q.715-1.972,1.246-3.963a48.867,48.867,0,0,1,23.962-30.36A41.794,41.794,0,0,0,1797.7,817.5a27.39,27.39,0,0,1,12.078-22.1,32.557,32.557,0,0,0,12.439-15.953" transform="translate(-1095.778 -485.911)" fill="#91b3fa"/><path d="M1724.961,959.4a.659.659,0,0,0,.573-.137c71.884-60.292,110.813-123.8,111.2-124.437a.66.66,0,1,0-1.127-.685c-.384.633-39.21,63.966-110.918,124.11a.66.66,0,0,0,.274,1.149" transform="translate(-1139.121 -550.803)" fill="#bdd0fb"/><path d="M1992.776,850.41a.66.66,0,0,0,.7-1.009c-5.236-7.882-3.581-28.891-3.563-29.1a.66.66,0,1,0-1.315-.107c-.073.881-1.71,21.678,3.78,29.941a.657.657,0,0,0,.4.277" transform="translate(-1313.42 -541.394)" fill="#bdd0fb"/><path d="M2002.246,898.513a.68.68,0,0,0,.15.018c.59,0,14.573-.067,24.973-5.2a.66.66,0,1,0-.583-1.184c-10.119,5-24.248,5.067-24.389,5.067a.66.66,0,0,0-.149,1.3" transform="translate(-1322.288 -589.279)" fill="#bdd0fb"/><path d="M1901.537,953.44a.66.66,0,0,0,.75-.913c-6.34-14.19-2.466-33.887-2.426-34.084a.649.649,0,0,0-.516-.778.661.661,0,0,0-.778.517c-.04.2-4,20.3,2.516,34.885a.656.656,0,0,0,.453.374" transform="translate(-1253.326 -606.174)" fill="#bdd0fb"/><path d="M1910.768,1015.186c4.271.99,16.351,2.737,31.677-4.066a.66.66,0,1,0-.535-1.207c-18.319,8.132-32.231,3.622-32.369,3.573a.66.66,0,0,0-.422,1.251c.108.036.677.223,1.65.448" transform="translate(-1260.811 -667.082)" fill="#bdd0fb"/></g></g><g transform="translate(606.041 389.852)"><g clip-path="url(#bc)"><rect width="35.111" height="6.026" transform="translate(-0.085)" fill="url(#bd)"/></g></g><g transform="translate(0 0.001)"><g clip-path="url(#d)"><path d="M1776.77,1085.042a.661.661,0,0,0,.727-.961c-.071-.128-6.991-13.1-2.268-32.561a.66.66,0,0,0-.486-.8l-.007,0a.659.659,0,0,0-.789.487c-4.85,19.986,2.1,32.965,2.394,33.508a.658.658,0,0,0,.429.325" transform="translate(-1170.684 -694.065)" fill="#bdd0fb"/><path d="M1868.452,1030.907a28.148,28.148,0,0,0,.98-39.657,27.818,27.818,0,0,0-39.463-.985l0,0a29.8,29.8,0,0,1-23.191,8.163,35.407,35.407,0,0,0-27.629,9.723l0,0a33.271,33.271,0,0,1-28.173,8.832,40.225,40.225,0,0,0-34.144,10.7,40.764,40.764,0,0,0-1.419,57.433,40.287,40.287,0,0,0,57.153,1.426q1.3-1.24,2.461-2.566a41.619,41.619,0,0,1,29.876-14.139,35.667,35.667,0,0,0,30.326-19.1,23.371,23.371,0,0,1,17.645-12.347,27.724,27.724,0,0,0,15.583-7.488" transform="translate(-1125.789 -649.036)" fill="#bdd0fb"/></g></g><g transform="translate(591.026 362.358)"><g clip-path="url(#bf)"><rect width="133.767" height="54.308" transform="translate(-0.07)" fill="url(#bg)"/></g></g><g transform="translate(700.351 350.52)"><g clip-path="url(#bh)"><rect width="10.963" height="25.477" transform="translate(-0.974)" fill="url(#bi)"/></g></g><g transform="translate(700.809 374.997)"><g clip-path="url(#bj)"><rect width="22.313" height="6.903" transform="translate(-0.098)" fill="url(#bk)"/></g></g><g transform="translate(662.06 364.616)"><g clip-path="url(#bl)"><rect width="12.719" height="28.837" transform="translate(-0.014)" fill="url(#bm)"/></g></g><g transform="translate(662.026 392.42)"><g clip-path="url(#bn)"><rect width="27.958" height="11.228" transform="translate(-0.068)" fill="url(#bo)"/></g></g><g transform="translate(613.43 409.944)"><g clip-path="url(#bp)"><rect width="27.285" height="14.164" transform="translate(-0.073)" fill="url(#bq)"/></g></g><g transform="translate(613.21 383.221)"><g clip-path="url(#br)"><rect width="12.651" height="27.656" transform="translate(-0.391 0)" fill="url(#bs)"/></g></g><g transform="translate(488.738 201.806)"><g clip-path="url(#bt)"><rect width="178.612" height="256.867" transform="translate(-0.027)" fill="url(#bu)"/></g></g><g transform="translate(0 0.001)"><g clip-path="url(#d)"><path d="M1475.378,629.155l142.133.875a9.313,9.313,0,0,1,9.255,9.356l-.992,213.686a9.313,9.313,0,0,1-9.142,9.268l-138.1,2.52a9.313,9.313,0,0,1-9.482-9.181L1466.009,638.6a9.313,9.313,0,0,1,9.369-9.443" transform="translate(-968.402 -415.602)" fill="#91b3fa"/><path d="M1510.639,659v.98a2.786,2.786,0,0,0,2.786,2.786h109.513a2.786,2.786,0,0,0,2.786-2.786V659a2.786,2.786,0,0,0-2.786-2.786H1513.425a2.786,2.786,0,0,0-2.786,2.786" transform="translate(-997.883 -433.479)" fill="#7d97f4"/><path d="M1546.629,695.022h0a2.786,2.786,0,0,0,2.731,2.635l95.775,1.746a2.786,2.786,0,0,0,2.837-2.786v-.227a2.786,2.786,0,0,0-2.742-2.786l-95.774-1.518a2.786,2.786,0,0,0-2.826,2.936" transform="translate(-1021.655 -457.172)" fill="#7d97f4"/><path d="M1497.59,926.753a7.313,7.313,0,0,1-7.293-7.166l-3.108-174.769a7.307,7.307,0,0,1,7.153-7.424l129.314-2.517h.146a7.3,7.3,0,0,1,7.291,7.157l3.333,175.731a7.3,7.3,0,0,1-7.207,7.434l-129.54,1.555h-.089M1623.8,736.233h-.119l-129.314,2.517a5.947,5.947,0,0,0-5.822,6.043l3.108,174.769a5.952,5.952,0,0,0,5.936,5.832h.072l129.54-1.555a5.939,5.939,0,0,0,5.866-6.05l-3.334-175.732a5.938,5.938,0,0,0-5.934-5.826" transform="translate(-982.392 -485.438)" fill="#bdd0fb"/><path d="M1633.892,788.039H1492.813a.679.679,0,0,1,0-1.358h141.079a.679.679,0,0,1,0,1.358" transform="translate(-985.66 -519.659)" fill="#bdd0fb"/></g></g><g transform="translate(96.87 329.446)"><g clip-path="url(#bw)"><rect width="235.758" height="129.228" transform="translate(-0.036 0)" fill="url(#bx)"/></g></g><g transform="translate(0 0.001)"><g clip-path="url(#d)"><path d="M332.245,988l187.609.44c6.781.016,12.248,2.122,12.216,4.707l-1.309,107.5c-.031,2.546-5.39,4.616-12.068,4.663l-182.285,1.267c-6.808.047-12.42-2.024-12.515-4.619l-4.014-109.212c-.1-2.624,5.481-4.767,12.367-4.751" transform="translate(-211.302 -652.643)" fill="#91b3fa"/><path d="M378.789,1003.015v.493c0,.774,1.646,1.4,3.677,1.4H527.018c2.031,0,3.677-.628,3.677-1.4v-.493c0-.774-1.646-1.4-3.677-1.4H382.466c-2.031,0-3.677.628-3.677,1.4" transform="translate(-250.217 -661.637)" fill="#bdd0fb"/><path d="M426.294,1021.135h0c.1.733,1.677,1.312,3.605,1.325l126.417.878c2.057.014,3.744-.617,3.744-1.4v-.115c0-.765-1.611-1.389-3.619-1.4l-126.418-.764c-2.132-.013-3.846.666-3.73,1.477" transform="translate(-281.594 -673.557)" fill="#7d97f4"/><path d="M362,1137.4c-4.5,0-9.3-1.365-9.418-3.917l-4.1-87.925a2.3,2.3,0,0,1,.7-1.688c1.36-1.436,4.711-2.381,8.536-2.41l170.689-1.266c4.543-.037,9.457,1.324,9.585,3.91l4.4,88.409a2.3,2.3,0,0,1-.7,1.694c-1.371,1.447-4.748,2.393-8.6,2.411L362.1,1137.4H362m-12.164-91.905,4.1,87.925c.051,1.1,3.134,2.622,8.048,2.622h.109l170.986-.782c3.962-.019,6.73-1.043,7.624-1.987a.976.976,0,0,0,.33-.693l-4.4-88.408c-.055-1.106-3.135-2.621-8.042-2.621h-.178l-170.689,1.266c-3.929.029-6.673,1.05-7.56,1.986a.977.977,0,0,0-.33.691" transform="translate(-230.192 -687.121)" fill="#bdd0fb"/><path d="M541.9,1067.612H355.682a.679.679,0,0,1,0-1.358H541.9a.679.679,0,1,1,0,1.358" transform="translate(-234.505 -704.337)" fill="#bdd0fb"/></g></g><g transform="translate(344.897 362.734)"><g clip-path="url(#bz)"><rect width="85.089" height="107.178" transform="translate(-4.293 79.412) rotate(-86.906)" fill="url(#ca)"/></g></g><g transform="translate(180.706 146.169)"><g clip-path="url(#cb)"><rect width="257.065" height="424.789" transform="matrix(0.051, -0.999, 0.999, 0.051, -12.037, 235.677)" fill="url(#cc)"/></g></g><g transform="translate(192.152 153.256)"><g clip-path="url(#cd)"><rect width="364.083" height="437.532" transform="translate(-85.874 160.143) rotate(-61.798)" fill="url(#ce)"/></g></g><g transform="translate(0 0.001)"><g clip-path="url(#d)"><g transform="translate(191.812 358.979)" opacity="0.65"><g clip-path="url(#cg)"><path d="M953.391,1064.887h-.006l-387.949-6.61a.339.339,0,0,1,.006-.679h.005l387.949,6.61a.34.34,0,0,1-.006.679" transform="translate(-565.103 -1057.598)" fill="#fff"/></g></g><g transform="translate(385.578 365.589)" opacity="0.65"><g clip-path="url(#ch)"><path d="M1140.334,1085.824a4.376,4.376,0,1,1,4.376-4.376,4.381,4.381,0,0,1-4.376,4.376m0-8.073a3.7,3.7,0,1,0,3.7,3.7,3.7,3.7,0,0,0-3.7-3.7" transform="translate(-1135.959 -1077.073)" fill="#fff"/></g></g><g transform="translate(207.945 209.996)" opacity="0.26"><g clip-path="url(#ci)"><path d="M946.446,618.677,622.16,622.6a8.788,8.788,0,0,0-8.681,8.731l-.849,132.3L955.9,768l.921-139a10.251,10.251,0,0,0-10.375-10.319" transform="translate(-612.63 -618.676)" fill="#91b3fa"/></g></g><rect width="15.648" height="62.306" transform="translate(227.338 289.676)" fill="#bdd0fb"/><rect width="15.648" height="40.893" transform="translate(253.484 311.09)" fill="#bdd0fb"/><rect width="15.648" height="93.815" transform="translate(279.63 258.167)" fill="#bdd0fb"/><rect width="15.648" height="22.538" transform="translate(305.776 329.445)" fill="#bdd0fb"/><rect width="15.648" height="81.273" transform="translate(331.922 270.71)" fill="#bdd0fb"/><rect width="15.648" height="67.201" transform="translate(358.069 284.782)" fill="#bdd0fb"/><rect width="15.648" height="51.906" transform="translate(384.215 300.077)" fill="#bdd0fb"/><rect width="15.648" height="112.782" transform="translate(410.361 239.201)" fill="#bdd0fb"/><rect width="15.648" height="100.851" transform="translate(436.507 251.131)" fill="#bdd0fb"/><rect width="15.648" height="82.802" transform="translate(462.654 269.18)" fill="#bdd0fb"/><rect width="15.648" height="20.446" transform="translate(488.8 331.536)" fill="#bdd0fb"/><rect width="15.648" height="60.165" transform="translate(514.946 291.818)" fill="#bdd0fb"/><path d="M859.68,1124.223a.339.339,0,0,1-.32-.227,216.071,216.071,0,0,0-34.635-62.236c-11.3-14.164-20.412-21.861-20.5-21.936a.34.34,0,0,1,.436-.521c.091.077,9.246,7.806,20.585,22.018A216.749,216.749,0,0,1,860,1123.771a.339.339,0,0,1-.208.432.333.333,0,0,1-.112.019" transform="translate(-531.165 -686.482)" fill="#fff"/><path d="M1370.468,1078.265a.339.339,0,0,1-.323-.443c14.4-45.109,10.321-97.907,10.278-98.436a.339.339,0,0,1,.677-.055c.043.529,4.133,53.461-10.307,98.7a.339.339,0,0,1-.323.236" transform="translate(-905.067 -646.713)" fill="#fff"/><path d="M1232.3,1075.788c-5.6-45.385,3.689-89.377,57.6-129.19,0,0,29.027,108.578-57.6,129.19" transform="translate(-813.08 -625.296)" fill="#7d97f4"/><path d="M839.3,1102.411c-40.96-20.333-72.558-52.318-76.083-119.246,0,0,106.607,35.592,76.083,119.246" transform="translate(-504.156 -649.451)" fill="#7d97f4"/><path d="M818.463,1249.548c-28.789,2.657-56.409-4.064-80.523-38.905,0,0,69.177-16.239,80.523,38.905" transform="translate(-487.461 -798.242)" fill="#bdd0fb"/></g></g><g transform="translate(261.038 415.645)"><g clip-path="url(#cj)"><rect width="54.035" height="26.257" transform="translate(-0.026)" fill="url(#ck)"/></g></g><g transform="translate(312.823 436.347)"><g clip-path="url(#cl)"><rect width="45.466" height="166.714" transform="translate(-3.793 21.879) rotate(-81.87)" fill="url(#cm)"/></g></g><g transform="translate(0 0.001)"><g clip-path="url(#d)"><path d="M1179.265,1303.068a.339.339,0,0,1-.005-.679l6.229-.091a.355.355,0,0,1,.344.335.339.339,0,0,1-.334.344l-6.229.091Z" transform="translate(-778.764 -860.261)" fill="#fff"/><path d="M937.767,1315.01a.317.317,0,0,1-.054,0,.339.339,0,0,1-.282-.388l.889-5.566a6.056,6.056,0,0,1,5.9-5.11l66.07-.966a.349.349,0,0,1,.344.334.34.34,0,0,1-.335.344l-66.07.966a5.38,5.38,0,0,0-5.242,4.538l-.889,5.566a.339.339,0,0,1-.335.286" transform="translate(-619.237 -860.708)" fill="#fff"/><g transform="translate(210.34 168.597)" opacity="0.26"><g clip-path="url(#co)"><path d="M954.638,501.781,627.4,496.711a6.954,6.954,0,0,0-7.059,6.788l-.653,27.375a6.954,6.954,0,0,0,7.064,7.119L954.642,532.7a6.954,6.954,0,0,0,6.842-6.953V508.734a6.954,6.954,0,0,0-6.846-6.953" transform="translate(-619.688 -496.711)" fill="#91b3fa"/></g></g></g></g><g transform="translate(361.007 182.933)"><g clip-path="url(#cp)"><rect width="67.384" height="45.992" transform="translate(-8.78 61.457) rotate(-81.87)" fill="url(#cq)"/></g></g><g transform="translate(311.588 98.346)"><g clip-path="url(#cr)"><rect width="161.21" height="138.052" transform="translate(-33.974 15.884) rotate(-25.058)" fill="url(#cs)"/></g></g><g transform="translate(311.587 88.787)"><g clip-path="url(#ct)"><rect width="60.88" height="135.044" transform="matrix(0.322, -0.947, 0.947, 0.322, -5.447, 16.02)" fill="url(#cu)"/></g></g><g transform="translate(0 0.001)"><g clip-path="url(#d)"><g transform="translate(321.403 109.557)" opacity="0.61"><g clip-path="url(#cw)"><path d="M988.9,392.25a.678.678,0,0,1-.575-.317l-41.06-65.084a2.425,2.425,0,0,1,2.285-3.708c12.052,1.179,54.276,4.634,91.611-.369a.679.679,0,1,1,.18,1.346c-37.478,5.023-79.834,1.557-91.923.374a1.067,1.067,0,0,0-1,1.633l41.059,65.084a.679.679,0,0,1-.573,1.041" transform="translate(-946.893 -322.767)" fill="#fff"/></g></g><g transform="translate(367.124 188.883)" opacity="0.61"><g clip-path="url(#cx)"><path d="M1094.538,610.586a15.158,15.158,0,0,1-4.459-.678,2.551,2.551,0,0,1-1.792-2.072l-6.687-50.593a.679.679,0,0,1,1.346-.178l6.687,50.593a1.193,1.193,0,0,0,.85.954,13.119,13.119,0,0,0,8.5-.2.679.679,0,0,1,.486,1.268,13.711,13.711,0,0,1-4.935.9" transform="translate(-1081.593 -556.475)" fill="#fff"/></g></g></g></g><g transform="translate(236.185 0.001)"><g clip-path="url(#cy)"><rect width="108.664" height="108.664" transform="matrix(0.443, -0.897, 0.897, 0.443, -32.209, 65.223)" fill="url(#cz)"/></g></g><g transform="translate(239.016 33.535)"><g clip-path="url(#da)"><rect width="5.462" height="1.658" transform="translate(-0.41 5.353) rotate(-85.717)" fill="url(#db)"/></g></g><g transform="translate(242.961 2.78)"><g clip-path="url(#dc)"><rect width="24.273" height="42.433" transform="translate(-1.632 21.155) rotate(-85.717)" fill="url(#dd)"/></g></g><g transform="translate(243.3 7.116)"><g clip-path="url(#de)"><rect width="79.524" height="79.524" transform="translate(-11.717 66.604) rotate(-80.022)" fill="url(#df)"/></g></g><g transform="translate(0 0.001)"><g clip-path="url(#d)"><g transform="translate(267.092 18.539)" opacity="0.73"><g clip-path="url(#dh)"><path d="M807.938,64.553c0,5.813-4.713,12.089-10.526,12.089s-10.526-6.276-10.526-12.089,4.713-9.937,10.526-9.937,10.526,4.124,10.526,9.937" transform="translate(-786.886 -54.617)" fill="#fff"/></g></g><g transform="translate(257.269 43.921)" opacity="0.73"><g clip-path="url(#di)"><path d="M765.231,148.424h25.7a6.22,6.22,0,0,0,5.924-4.324l1.383-4.322a6.213,6.213,0,0,0-3.754-7.731c-10.457-3.824-21.27-3.333-32.347.353a6.194,6.194,0,0,0-3.969,7.508l1.065,3.925a6.22,6.22,0,0,0,6,4.591" transform="translate(-757.945 -129.399)" fill="#fff"/></g></g></g></g><g transform="translate(322.39 -16.801)"><g clip-path="url(#dj)"><rect width="108.664" height="108.664" transform="matrix(0.443, -0.897, 0.897, 0.443, -15.407, 82.025)" fill="url(#dk)"/></g></g><g transform="translate(342.024 33.535)"><g clip-path="url(#dl)"><rect width="5.462" height="1.658" transform="translate(-0.41 5.353) rotate(-85.717)" fill="url(#dm)"/></g></g><g transform="translate(345.968 2.78)"><g clip-path="url(#dn)"><rect width="24.273" height="42.434" transform="translate(-1.632 21.155) rotate(-85.717)" fill="url(#do)"/></g></g><g transform="translate(346.308 7.116)"><g clip-path="url(#dp)"><rect width="79.524" height="79.524" transform="translate(-11.717 66.604) rotate(-80.022)" fill="url(#dq)"/></g></g><g transform="translate(0 0.001)"><g clip-path="url(#d)"><g transform="translate(370.1 18.539)" opacity="0.73"><g clip-path="url(#ds)"><path d="M1111.411,64.553c0,5.813-4.713,12.089-10.526,12.089s-10.526-6.276-10.526-12.089,4.713-9.937,10.526-9.937,10.526,4.124,10.526,9.937" transform="translate(-1090.359 -54.617)" fill="#fff"/></g></g><g transform="translate(360.277 43.921)" opacity="0.73"><g clip-path="url(#dt)"><path d="M1068.7,148.424h25.7a6.22,6.22,0,0,0,5.924-4.324l1.383-4.322a6.213,6.213,0,0,0-3.754-7.731c-10.457-3.824-21.27-3.333-32.347.353a6.194,6.194,0,0,0-3.969,7.508l1.065,3.925a6.22,6.22,0,0,0,6,4.591" transform="translate(-1061.418 -129.399)" fill="#fff"/></g></g></g></g><g transform="translate(436.009 -6.19)"><g clip-path="url(#du)"><rect width="108.664" height="108.664" transform="translate(-26.018 71.414) rotate(-63.719)" fill="url(#dv)"/></g></g><g transform="translate(445.031 33.535)"><g clip-path="url(#dw)"><rect width="5.462" height="1.658" transform="translate(-0.41 5.353) rotate(-85.717)" fill="url(#dx)"/></g></g><g transform="translate(448.976 2.78)"><g clip-path="url(#dy)"><rect width="24.273" height="42.434" transform="matrix(0.075, -0.997, 0.997, 0.075, -1.632, 21.155)" fill="url(#dz)"/></g></g><g transform="translate(449.315 7.116)"><g clip-path="url(#ea)"><rect width="79.524" height="79.524" transform="matrix(0.173, -0.985, 0.985, 0.173, -11.717, 66.604)" fill="url(#eb)"/></g></g><g transform="translate(0 0.001)"><g clip-path="url(#d)"><g transform="translate(473.107 18.539)" opacity="0.73"><g clip-path="url(#ds)"><path d="M1414.884,64.553c0,5.813-4.713,12.089-10.526,12.089s-10.526-6.276-10.526-12.089,4.713-9.937,10.526-9.937,10.526,4.124,10.526,9.937" transform="translate(-1393.831 -54.617)" fill="#fff"/></g></g><g transform="translate(463.284 43.921)" opacity="0.73"><g clip-path="url(#ee)"><path d="M1372.177,148.424h25.7a6.22,6.22,0,0,0,5.924-4.324l1.383-4.322a6.213,6.213,0,0,0-3.754-7.731c-10.457-3.824-21.27-3.333-32.347.353a6.193,6.193,0,0,0-3.969,7.508l1.065,3.925a6.22,6.22,0,0,0,6,4.591" transform="translate(-1364.89 -129.399)" fill="#fff"/></g></g></g></g><g transform="translate(331.966 254.448)"><g clip-path="url(#ef)"><rect width="134.449" height="134.449" transform="matrix(0.496, -0.868, 0.868, 0.496, -42.449, 74.286)" fill="url(#eg)"/></g></g><g transform="translate(335.478 295.253)"><g clip-path="url(#eh)"><rect width="6.403" height="1.431" transform="translate(-0.063 6.392) rotate(-89.518)" fill="url(#ei)"/></g></g><g transform="translate(340.269 257.897)"><g clip-path="url(#ej)"><rect width="26.11" height="49.803" transform="translate(-0.264 25.692) rotate(-89.518)" fill="url(#ek)"/></g></g><g transform="translate(340.609 263.091)"><g clip-path="url(#el)"><rect width="96.593" height="96.593" transform="translate(-14.232 80.9) rotate(-80.022)" fill="url(#em)"/></g></g><g transform="translate(0 0.001)"><g clip-path="url(#d)"><g transform="translate(369.506 276.963)" opacity="0.73"><g clip-path="url(#eo)"><path d="M1114.185,828.041c0,7.061-5.724,14.684-12.785,14.684s-12.785-7.623-12.785-14.684,5.724-12.071,12.785-12.071,12.785,5.01,12.785,12.071" transform="translate(-1088.613 -815.97)" fill="#fff"/></g></g><g transform="translate(357.575 307.795)" opacity="0.73"><g clip-path="url(#ep)"><path d="M1062.312,929.914h31.212a7.554,7.554,0,0,0,7.2-5.253l1.679-5.249a7.547,7.547,0,0,0-4.559-9.391c-12.7-4.644-25.836-4.048-39.29.429a7.523,7.523,0,0,0-4.821,9.12l1.293,4.767a7.555,7.555,0,0,0,7.291,5.577" transform="translate(-1053.461 -906.805)" fill="#fff"/></g></g><g transform="translate(451.407 207.38)" opacity="0.57"><g clip-path="url(#eq)"><path d="M1351.343,610.971a21.446,21.446,0,1,0,21.446,21.446,21.446,21.446,0,0,0-21.446-21.446m0,33.664a12.218,12.218,0,1,1,12.218-12.218,12.218,12.218,0,0,1-12.218,12.218" transform="translate(-1329.898 -610.971)" fill="#fff"/></g></g><path d="M1351.343,610.971a21.446,21.446,0,1,0,21.446,21.446,21.446,21.446,0,0,0-21.446-21.446m0,33.664a12.218,12.218,0,1,1,12.218-12.218,12.218,12.218,0,0,1-12.218,12.218" transform="translate(-878.491 -403.59)" fill="#bdd0fb"/></g></g><g transform="translate(451.406 224.111)"><g clip-path="url(#er)"><rect width="39.728" height="49.399" transform="translate(-8.71 22.84) rotate(-69.125)" fill="url(#es)"/></g></g><g transform="translate(0 0.001)"><g clip-path="url(#d)"><g transform="translate(503.686 207.38)" opacity="0.57"><g clip-path="url(#eq)"><path d="M1505.362,610.971a21.446,21.446,0,1,0,21.446,21.446,21.446,21.446,0,0,0-21.446-21.446m0,33.664a12.218,12.218,0,1,1,12.218-12.218,12.218,12.218,0,0,1-12.218,12.218" transform="translate(-1483.917 -610.971)" fill="#fff"/></g></g><path d="M1505.362,610.971a21.446,21.446,0,1,0,21.446,21.446,21.446,21.446,0,0,0-21.446-21.446m0,33.664a12.218,12.218,0,1,1,12.218-12.218,12.218,12.218,0,0,1-12.218,12.218" transform="translate(-980.231 -403.59)" fill="#bdd0fb"/></g></g><g transform="translate(503.685 213.69)"><g clip-path="url(#ev)"><rect width="49.465" height="53.112" transform="translate(-12.18 31.938) rotate(-69.125)" fill="url(#ew)"/></g></g><g transform="translate(0 0.001)"><g clip-path="url(#d)"><path d="M1659.381,610.971a21.446,21.446,0,1,0,21.446,21.446,21.446,21.446,0,0,0-21.446-21.446m0,33.664a12.218,12.218,0,1,1,12.218-12.218,12.218,12.218,0,0,1-12.218,12.218" transform="translate(-1081.972 -403.59)" fill="#bdd0fb"/></g></g><g transform="translate(557.83 237.59)"><g clip-path="url(#ey)"><rect width="25.803" height="41.107" transform="translate(-4.222 11.072) rotate(-69.125)" fill="url(#ez)"/></g></g><g transform="translate(130.158 457.738)"><g clip-path="url(#fa)"><rect width="3.091" height="19.717" transform="translate(-0.106 2.103) rotate(-87.122)" fill="url(#fb)"/></g></g><g transform="translate(130.157 451.002)"><g clip-path="url(#fc)"><rect width="20.009" height="10.967" transform="matrix(0.985, -0.173, 0.173, 0.985, -1.35, 0.233)" fill="url(#fd)"/></g></g><g transform="translate(131.956 446.203)"><g clip-path="url(#fe)"><rect width="5.485" height="6.708" transform="translate(0 0)" fill="url(#ff)"/></g></g><g transform="translate(91.339 456.898)"><g clip-path="url(#fg)"><rect width="3.135" height="7.755" transform="translate(-0.302 2.749) rotate(-87.122)" fill="url(#fh)"/></g></g><g transform="translate(91.394 446.167)"><g clip-path="url(#fi)"><rect width="13.451" height="14.601" transform="matrix(0.985, -0.173, 0.173, 0.985, -2.181, 0.381)" fill="url(#fj)"/></g></g><g transform="translate(97.087 441.114)"><g clip-path="url(#fk)"><rect width="6.676" height="7.795" transform="translate(-0.121)" fill="url(#fl)"/></g></g><g transform="translate(96.871 366.526)"><g clip-path="url(#fm)"><rect width="96.16" height="93.477" transform="translate(-40.983 46.368) rotate(-48.527)" fill="url(#fn)"/></g></g><g transform="translate(124.771 312.034)"><g clip-path="url(#fo)"><rect width="74.865" height="71.979" transform="translate(-30.805 37.392) rotate(-50.639)" fill="url(#fp)"/></g></g><g transform="translate(132.36 381.66)"><g clip-path="url(#fq)"><rect width="8.952" height="7.773" transform="translate(-0.089)" fill="url(#fr)"/></g></g><g transform="translate(113.626 347.428)"><g clip-path="url(#fs)"><rect width="18.622" height="22.021" transform="matrix(0.856, -0.518, 0.518, 0.856, -8.782, 5.314)" fill="url(#ft)"/></g></g><g transform="translate(113.303 312.357)"><g clip-path="url(#fu)"><rect width="41.451" height="39.45" transform="matrix(0.634, -0.773, 0.773, 0.634, -20.29, 21.486)" fill="url(#fv)"/></g></g><g transform="translate(159.194 325.029)"><g clip-path="url(#fw)"><rect width="32.603" height="30.309" transform="translate(-15.007 18.295) rotate(-50.639)" fill="url(#fx)"/></g></g><g transform="translate(170.861 345.491)"><g clip-path="url(#fy)"><rect width="18.377" height="15.782" transform="translate(0)" fill="url(#fz)"/></g></g><g transform="translate(146.139 302.338)"><g clip-path="url(#ga)"><rect width="18.596" height="14.263" transform="translate(-0.64 18.513) rotate(-89.665)" fill="url(#gb)"/></g></g><g transform="translate(101.92 341.749)"><g clip-path="url(#gc)"><rect width="107.753" height="89.492" transform="translate(-21.454 11.834) rotate(-30.097)" fill="url(#gd)"/></g></g><g transform="translate(0 0.001)"><g clip-path="url(#d)"><g transform="translate(192.856 278.791)" opacity="0.26"><g clip-path="url(#gf)"><path d="M656.51,864.724c0,23.952-19.774,43.369-44.166,43.369s-44.166-19.417-44.166-43.369,19.774-43.369,44.166-43.369,44.166,19.417,44.166,43.369" transform="translate(-568.178 -821.355)" fill="#bdd0fb"/></g></g></g></g><g transform="translate(187.878 273.903)"><g clip-path="url(#gg)"><rect width="98.29" height="96.517" transform="translate(0 0)" fill="url(#gh)"/></g></g><g transform="translate(191.141 277.051)"><g clip-path="url(#gi)"><rect width="59.389" height="76.486" transform="translate(-6.342 50.127) rotate(-82.794)" fill="url(#gj)"/></g></g><g transform="translate(156.287 293.987)"><g clip-path="url(#gk)"><rect width="13.109" height="17.947" transform="matrix(0.992, -0.123, 0.123, 0.992, -2.032, 0.251)" fill="url(#gl)"/></g></g><g transform="translate(151.298 289.153)"><g clip-path="url(#gm)"><rect width="32.536" height="29.563" transform="translate(-10.15 22.387) rotate(-66.852)" fill="url(#gn)"/></g></g><g transform="translate(151.174 299.41)"><g clip-path="url(#go)"><rect width="8.638" height="8.284" transform="translate(-3.547 4.484) rotate(-53.945)" fill="url(#gp)"/></g></g><g transform="translate(120.985 364.832)"><g clip-path="url(#gq)"><rect width="14.232" height="11.169" transform="translate(-2.088 1.264) rotate(-31.178)" fill="url(#gr)"/></g></g><g transform="translate(187.286 345.936)"><g clip-path="url(#gs)"><rect width="8.876" height="10.204" transform="matrix(0.239, -0.971, 0.971, 0.239, -3.656, 6.574)" fill="url(#gt)"/></g></g><g transform="translate(103.869 372.084)"><g clip-path="url(#gu)"><rect width="15.534" height="16.079" transform="matrix(0.125, -0.992, 0.992, 0.125, -1.81, 13.612)" fill="url(#gv)"/></g></g><g transform="translate(121.187 370.25)"><g clip-path="url(#gw)"><rect width="1.099" height="1.874" transform="matrix(0.125, -0.992, 0.992, 0.125, -0.132, 0.869)" fill="url(#gx)"/></g></g><g transform="translate(555.129 128.156)"><g clip-path="url(#gy)"><rect width="77.322" height="79.063" transform="translate(-25.682 14.659) rotate(-29.717)" fill="url(#gz)"/></g></g><g transform="translate(593.355 177.199)"><g clip-path="url(#ha)"><rect width="21.411" height="23.323" transform="translate(-5.967 11.769) rotate(-63.819)" fill="url(#hb)"/></g></g><g transform="translate(552.035 133.924)"><g clip-path="url(#hc)"><rect width="81.016" height="74.861" transform="matrix(0.541, -0.841, 0.841, 0.541, -30.314, 47.155)" fill="url(#hd)"/></g></g><g transform="translate(583.331 187.291)"><g clip-path="url(#he)"><rect width="23.712" height="23.468" transform="matrix(0.614, -0.79, 0.79, 0.614, -8.657, 10.911)" fill="url(#hf)"/></g></g><g transform="translate(519.325 129.747)"><g clip-path="url(#hg)"><rect width="33.989" height="63.537" transform="translate(-4.153 25.051) rotate(-81.754)" fill="url(#hh)"/></g></g><g transform="translate(521.288 66.255)"><g clip-path="url(#hi)"><rect width="52.615" height="54.801" transform="translate(-19.117 9.728) rotate(-28.647)" fill="url(#hj)"/></g></g><g transform="translate(519.918 88.84)"><g clip-path="url(#hk)"><rect width="58.744" height="58.655" transform="translate(-19.876 19.172) rotate(-43.968)" fill="url(#hl)"/></g></g><g transform="translate(517.981 121.983)"><g clip-path="url(#hm)"><rect width="36.675" height="43.077" transform="translate(-5.525 6.816) rotate(-52.4)" fill="url(#hn)"/></g></g><g transform="translate(546.469 76.325)"><g clip-path="url(#ho)"><rect width="19.81" height="18.725" transform="matrix(0.527, -0.85, 0.85, 0.527, -7.022, 11.318)" fill="url(#hp)"/></g></g><g transform="translate(552.688 71.501)"><g clip-path="url(#hq)"><rect width="18.726" height="20.563" transform="matrix(0.966, -0.258, 0.258, 0.966, -4.986, 1.155)" fill="url(#hr)"/></g></g><g transform="translate(549.826 66.608)"><g clip-path="url(#hs)"><rect width="22.563" height="24.68" transform="translate(-6.304 7.838) rotate(-53.83)" fill="url(#ht)"/></g></g><g transform="translate(553.572 72.785)"><g clip-path="url(#hu)"><rect width="6.001" height="6.117" transform="translate(-1.422 0.335) rotate(-14.958)" fill="url(#hv)"/></g></g><g transform="translate(541.081 131.937)"><g clip-path="url(#hw)"><rect width="7.579" height="32.385" transform="translate(-0.405 2.628) rotate(-81.254)" fill="url(#hx)"/></g></g><g transform="translate(558.374 107.667)"><g clip-path="url(#hy)"><rect width="49.984" height="48.342" transform="matrix(0.757, -0.653, 0.653, 0.757, -13.327, 11.501)" fill="url(#hz)"/></g></g><g transform="translate(0 0.001)"><g clip-path="url(#d)"><path d="M1712.339,349c-.536,1.665-.14,3.282.884,3.611s2.289-.753,2.825-2.418.14-3.282-.884-3.611-2.289.753-2.825,2.417" transform="translate(-1130.963 -228.902)" fill="#7d97f4"/><path d="M1290.5,541.017a.679.679,0,0,1-.456-1.182q.383-.347.77-.687a.679.679,0,0,1,.9,1.02q-.379.333-.755.674a.675.675,0,0,1-.455.176m2.579-2.219a.679.679,0,0,1-.43-1.2q.4-.326.8-.646a.679.679,0,0,1,.844,1.063q-.4.315-.788.634a.676.676,0,0,1-.429.153m2.686-2.084a.679.679,0,0,1-.4-1.225q.414-.306.833-.6a.679.679,0,1,1,.79,1.1q-.411.294-.817.593a.676.676,0,0,1-.4.132m2.782-1.948a.679.679,0,0,1-.376-1.244q.429-.285.86-.563a.679.679,0,1,1,.736,1.141q-.425.273-.845.553a.676.676,0,0,1-.375.113m2.871-1.812a.679.679,0,0,1-.35-1.261q.441-.264.886-.522a.679.679,0,0,1,.68,1.175q-.436.253-.869.512a.678.678,0,0,1-.348.1m2.95-1.676a.679.679,0,0,1-.323-1.277q.452-.243.906-.481a.679.679,0,1,1,.629,1.2q-.448.234-.892.472a.675.675,0,0,1-.321.081m3.02-1.543a.679.679,0,0,1-.3-1.29q.462-.224.927-.442a.679.679,0,0,1,.575,1.23q-.456.214-.91.434a.684.684,0,0,1-.3.068m3.082-1.413a.679.679,0,0,1-.271-1.3q.47-.2.942-.4a.679.679,0,0,1,.526,1.252q-.465.2-.927.4a.674.674,0,0,1-.27.057m3.136-1.287a.679.679,0,0,1-.246-1.312q.478-.185.958-.365a.679.679,0,0,1,.477,1.271q-.473.177-.942.359a.674.674,0,0,1-.245.047m3.182-1.167a.679.679,0,0,1-.222-1.32q.484-.168.97-.33a.679.679,0,0,1,.429,1.288q-.479.159-.955.324a.678.678,0,0,1-.222.038m3.222-1.05a.679.679,0,0,1-.2-1.328q.489-.15.981-.295a.679.679,0,0,1,.384,1.3q-.484.143-.965.291a.694.694,0,0,1-.2.03m3.256-.94a.679.679,0,0,1-.177-1.334q.493-.133.988-.262a.679.679,0,1,1,.343,1.314q-.489.127-.976.259a.7.7,0,0,1-.177.023m3.285-.834a.679.679,0,0,1-.156-1.339q.5-.118,1-.232a.679.679,0,1,1,.3,1.324q-.493.112-.984.229a.7.7,0,0,1-.157.018m3.309-.734a.679.679,0,0,1-.137-1.344q.5-.1,1-.2a.679.679,0,1,1,.263,1.332q-.5.1-.99.2a.714.714,0,0,1-.138.014m91.664-.2h-.277a.679.679,0,0,1,0-1.358h1.019a.679.679,0,0,1,0,1.358Zm-2.653-.015h-.008l-1.022-.014a.679.679,0,0,1-.668-.689.69.69,0,0,1,.689-.668l1.015.014a.679.679,0,0,1-.007,1.358m5.77-.007a.679.679,0,0,1-.01-1.358l1.015-.017h.014a.679.679,0,0,1,.013,1.358l-1.021.017Zm-9.164-.053h-.017l-1.021-.026a.679.679,0,0,1-.66-.7.667.667,0,0,1,.7-.66l1.017.026a.679.679,0,0,1-.016,1.357m12.557-.025a.679.679,0,0,1-.022-1.357q.508-.016,1.014-.035a.679.679,0,0,1,.05,1.357l-1.021.035h-.022m-15.952-.076h-.024l-1.02-.037a.679.679,0,0,1,.052-1.357l1.016.037a.679.679,0,0,1-.024,1.357m19.343-.064a.679.679,0,0,1-.034-1.357q.506-.026,1.012-.055a.688.688,0,0,1,.717.639.679.679,0,0,1-.639.717q-.51.029-1.021.055h-.035m-22.734-.071h-.03l-1.02-.046a.679.679,0,0,1-.646-.71.688.688,0,0,1,.71-.646l1.016.047a.679.679,0,0,1-.029,1.357m-75.5-.126a.679.679,0,0,1-.118-1.347q.5-.09,1.008-.175a.679.679,0,1,1,.225,1.339q-.5.083-1,.172a.686.686,0,0,1-.12.01m101.624-.011a.679.679,0,0,1-.049-1.356q.506-.036,1.012-.076a.679.679,0,0,1,.106,1.354l-1.019.077-.05,0m-29.514-.028h-.036l-1.018-.054a.679.679,0,1,1,.073-1.356l1.017.054a.679.679,0,0,1-.035,1.357m-3.389-.187h-.041l-1.017-.06a.678.678,0,0,1-.637-.718.669.669,0,0,1,.718-.637l1.017.06a.679.679,0,0,1-.04,1.356m36.285-.067a.679.679,0,0,1-.064-1.355q.5-.048,1.009-.1a.672.672,0,0,1,.744.606.679.679,0,0,1-.606.744q-.509.052-1.018.1c-.022,0-.044,0-.065,0m-39.674-.139h-.044l-1.017-.065a.679.679,0,0,1,.086-1.355l1.017.064a.679.679,0,0,1-.042,1.356m-61.987-.118a.679.679,0,0,1-.1-1.35q.505-.076,1.011-.148a.679.679,0,1,1,.192,1.344q-.5.072-1,.147a.639.639,0,0,1-.1.008m58.6-.1h-.045l-1.017-.067a.679.679,0,0,1,.09-1.355l1.016.067a.679.679,0,0,1-.044,1.356m46.437,0a.679.679,0,0,1-.08-1.353q.5-.06,1.006-.124a.679.679,0,1,1,.17,1.347q-.508.064-1.015.125a.724.724,0,0,1-.081,0m-49.824-.221-.047,0-1.015-.068a.679.679,0,0,1,.09-1.355l1.017.068a.679.679,0,0,1-.045,1.356m-51.852-.14a.679.679,0,0,1-.084-1.352q.507-.064,1.015-.124a.679.679,0,0,1,.159,1.349q-.5.059-1,.123a.666.666,0,0,1-.086.005m105.04-.084a.679.679,0,0,1-.1-1.351q.5-.073,1-.149a.679.679,0,1,1,.207,1.342q-.506.078-1.012.151a.694.694,0,0,1-.1.007m-56.575,0h-.046l-1.015-.068a.679.679,0,1,1,.089-1.355l1.016.068a.679.679,0,0,1-.044,1.356m-3.387-.221h-.044l-1.015-.065a.679.679,0,0,1,.086-1.355l1.017.065a.679.679,0,0,1-.043,1.356m-41.706-.076a.679.679,0,0,1-.069-1.354q.509-.052,1.018-.1a.679.679,0,0,1,.13,1.352q-.505.048-1.009.1a.619.619,0,0,1-.07,0m38.319-.136h-.042l-1.015-.06a.679.679,0,0,1,.079-1.356l1.018.061a.679.679,0,0,1-.04,1.356m66.7-.1a.679.679,0,0,1-.116-1.348l1-.177a.679.679,0,1,1,.241,1.336l-1.007.179a.743.743,0,0,1-.117.01m-101.641-.075a.679.679,0,0,1-.054-1.355q.51-.041,1.02-.079a.679.679,0,1,1,.1,1.354q-.506.037-1.011.078l-.055,0m31.551-.023h-.039l-1.015-.055a.679.679,0,0,1,.072-1.356l1.019.055a.679.679,0,0,1-.037,1.357m-3.39-.176h-.033l-1.016-.048a.679.679,0,0,1-.647-.709.688.688,0,0,1,.709-.647l1.018.048a.679.679,0,0,1-.032,1.357m-24.775-.039a.679.679,0,0,1-.04-1.356l1.021-.058a.679.679,0,0,1,.074,1.356l-1.014.058h-.041m21.384-.11h-.027l-1.014-.038a.679.679,0,1,1,.049-1.357l1.02.039a.679.679,0,0,1-.027,1.357m-17.991-.061a.679.679,0,0,1-.027-1.357q.512-.021,1.024-.039a.669.669,0,0,1,.7.655.679.679,0,0,1-.655.7q-.507.017-1.015.038h-.028m14.6-.056h-.02l-1.015-.028a.678.678,0,0,1-.662-.7.688.688,0,0,1,.7-.662l1.02.028a.679.679,0,0,1-.019,1.357m-11.2-.051a.679.679,0,0,1-.015-1.358q.512-.012,1.023-.02a.689.689,0,0,1,.691.667.678.678,0,0,1-.667.691l-1.017.02h-.016m7.81-.026h-.01l-1.016-.013a.678.678,0,0,1-.671-.686.671.671,0,0,1,.686-.672l1.021.013a.679.679,0,0,1-.01,1.358m86.99-.013a.679.679,0,0,1-.134-1.344q.5-.1.991-.206a.679.679,0,1,1,.282,1.328q-.5.106-1,.209a.672.672,0,0,1-.136.014m-91.4-.008a.679.679,0,0,1,0-1.358q.512,0,1.022,0a.679.679,0,0,1,0,1.358q-.506,0-1.014,0Zm94.719-.717a.679.679,0,0,1-.154-1.34q.492-.116.984-.235a.679.679,0,1,1,.321,1.319q-.5.121-1,.238a.684.684,0,0,1-.155.018m3.294-.821a.679.679,0,0,1-.173-1.336q.489-.129.977-.263a.679.679,0,1,1,.359,1.309q-.494.136-.989.267a.7.7,0,0,1-.174.023m3.268-.916a.679.679,0,0,1-.192-1.33q.485-.144.969-.292a.679.679,0,1,1,.4,1.3q-.49.15-.981.295a.685.685,0,0,1-.193.028m3.241-1.009a.679.679,0,0,1-.211-1.324q.481-.157.96-.319a.679.679,0,1,1,.434,1.287q-.486.164-.972.322a.675.675,0,0,1-.211.034m3.211-1.1a.679.679,0,0,1-.229-1.318q.477-.171.952-.346a.679.679,0,1,1,.468,1.274q-.48.177-.962.35a.679.679,0,0,1-.229.04m3.178-1.191a.679.679,0,0,1-.247-1.311q.472-.185.942-.373a.679.679,0,1,1,.5,1.261q-.475.189-.952.376a.675.675,0,0,1-.247.047m3.143-1.281a.679.679,0,0,1-.265-1.3q.466-.2.93-.4a.679.679,0,1,1,.541,1.245q-.47.2-.942.4a.675.675,0,0,1-.265.054m3.107-1.368a.679.679,0,0,1-.283-1.3q.461-.211.92-.425a.679.679,0,1,1,.573,1.23q-.464.216-.929.429a.674.674,0,0,1-.282.061m3.067-1.454a.679.679,0,0,1-.3-1.288q.455-.223.906-.45a.679.679,0,1,1,.61,1.213q-.457.23-.917.456a.674.674,0,0,1-.3.07m3.025-1.539a.679.679,0,0,1-.317-1.28q.448-.236.894-.476a.679.679,0,1,1,.642,1.2q-.451.242-.9.48a.674.674,0,0,1-.316.078m2.981-1.623a.679.679,0,0,1-.333-1.27q.441-.248.881-.5a.679.679,0,0,1,.675,1.178q-.444.255-.89.505a.677.677,0,0,1-.332.087m2.935-1.706a.679.679,0,0,1-.35-1.261q.434-.26.865-.524a.679.679,0,0,1,.709,1.158q-.436.267-.876.53a.676.676,0,0,1-.349.1m2.886-1.786a.679.679,0,0,1-.366-1.251q.426-.272.851-.548a.679.679,0,1,1,.741,1.138q-.429.279-.861.555a.675.675,0,0,1-.365.107m2.834-1.866a.679.679,0,0,1-.382-1.241q.419-.284.836-.572a.679.679,0,0,1,.772,1.117q-.422.291-.845.578a.673.673,0,0,1-.381.117m2.782-1.945a.679.679,0,0,1-.4-1.23q.41-.3.819-.6a.679.679,0,1,1,.8,1.1q-.412.3-.828.6a.675.675,0,0,1-.4.128m2.726-2.022a.679.679,0,0,1-.413-1.218q.4-.308.8-.618a.679.679,0,1,1,.833,1.072q-.4.314-.811.625a.675.675,0,0,1-.411.139m2.668-2.1a.679.679,0,0,1-.427-1.206q.393-.319.785-.64a.679.679,0,0,1,.863,1.048q-.4.326-.793.648a.674.674,0,0,1-.427.151m2.607-2.173a.679.679,0,0,1-.443-1.194q.384-.33.766-.663a.679.679,0,0,1,.892,1.024q-.386.336-.774.67a.676.676,0,0,1-.442.164m2.545-2.245a.679.679,0,0,1-.457-1.182q.375-.34.746-.684a.679.679,0,0,1,.921,1q-.376.348-.755.692a.676.676,0,0,1-.456.176m2.479-2.318a.679.679,0,0,1-.471-1.168q.365-.351.726-.7a.679.679,0,0,1,.95.97q-.366.358-.735.714a.676.676,0,0,1-.47.19m2.412-2.388a.679.679,0,0,1-.485-1.154q.355-.361.706-.726a.679.679,0,1,1,.977.943q-.355.369-.714.734a.677.677,0,0,1-.485.2m2.341-2.457a.679.679,0,0,1-.5-1.14q.344-.371.684-.745a.679.679,0,0,1,1.005.913q-.345.379-.693.755a.677.677,0,0,1-.5.217m2.268-2.524a.679.679,0,0,1-.512-1.125l.082-.094c.193-.221.387-.446.58-.672a.679.679,0,0,1,1.032.883q-.294.344-.59.684l-.079.091a.676.676,0,0,1-.513.234m2.192-2.59a.679.679,0,0,1-.524-1.11q.321-.391.638-.785a.679.679,0,1,1,1.057.852q-.321.4-.646.794a.678.678,0,0,1-.525.249m2.112-2.655a.679.679,0,0,1-.537-1.093q.309-.4.613-.8a.679.679,0,1,1,1.083.819q-.309.408-.621.814a.678.678,0,0,1-.538.265m2.029-2.72a.679.679,0,0,1-.55-1.076q.3-.41.588-.823a.679.679,0,0,1,1.109.784q-.3.419-.6.834a.678.678,0,0,1-.551.282m1.944-2.782a.679.679,0,0,1-.562-1.059q.283-.42.562-.841a.679.679,0,0,1,1.132.749q-.283.427-.569.852a.68.68,0,0,1-.564.3m1.855-2.843a.679.679,0,0,1-.574-1.041q.27-.428.535-.859a.679.679,0,0,1,1.156.712q-.27.436-.542.87a.679.679,0,0,1-.575.317m1.761-2.9a.679.679,0,0,1-.585-1.021q.255-.437.506-.876a.679.679,0,1,1,1.179.674q-.254.445-.513.888a.679.679,0,0,1-.587.336m1.664-2.959a.679.679,0,0,1-.6-1q.24-.445.477-.893a.679.679,0,1,1,1.2.634q-.239.453-.483.9a.678.678,0,0,1-.6.356m1.562-3.014a.671.671,0,0,1-.3-.071.679.679,0,0,1-.306-.91q.224-.453.445-.908a.679.679,0,1,1,1.222.59q-.222.462-.451.922a.679.679,0,0,1-.609.377m1.456-3.067a.679.679,0,0,1-.618-.96q.209-.46.412-.924a.679.679,0,0,1,1.243.548q-.207.469-.419.936a.678.678,0,0,1-.619.4m1.346-3.118a.68.68,0,0,1-.628-.937q.192-.467.378-.937a.679.679,0,1,1,1.262.5q-.189.477-.384.951a.68.68,0,0,1-.629.422m1.23-3.164a.68.68,0,0,1-.637-.913q.175-.475.343-.951a.679.679,0,1,1,1.279.453q-.171.483-.348.966a.68.68,0,0,1-.637.445m1.108-3.209a.679.679,0,0,1-.646-.888q.156-.481.306-.963a.679.679,0,1,1,1.3.4q-.153.49-.311.978a.679.679,0,0,1-.646.47m.982-3.25a.68.68,0,0,1-.654-.863q.137-.486.267-.974a.679.679,0,0,1,1.312.35q-.133.5-.271.991a.679.679,0,0,1-.653.5m.851-3.286a.693.693,0,0,1-.157-.018.679.679,0,0,1-.5-.817q.116-.491.227-.984a.679.679,0,1,1,1.324.3q-.112.5-.231,1a.679.679,0,0,1-.66.522m.713-3.318a.7.7,0,0,1-.129-.012.679.679,0,0,1-.538-.8q.1-.5.185-.992a.679.679,0,0,1,1.336.24q-.091.506-.188,1.009a.679.679,0,0,1-.666.55m.573-3.344a.679.679,0,0,1-.672-.779q.074-.5.142-1a.679.679,0,1,1,1.346.182q-.069.509-.144,1.017a.679.679,0,0,1-.671.579m.425-3.366c-.023,0-.047,0-.071,0a.679.679,0,0,1-.6-.746q.052-.5.1-1a.687.687,0,0,1,.738-.614.679.679,0,0,1,.614.738q-.047.511-.1,1.021a.679.679,0,0,1-.674.608m.276-3.38h-.041a.679.679,0,0,1-.638-.718c.014-.246.028-.493.039-.74l.012-.265a.679.679,0,0,1,1.356.055l-.012.275q-.018.377-.04.755a.679.679,0,0,1-.677.639m.116-3.392h0a.679.679,0,0,1-.674-.686q0-.336,0-.673V420.8a.679.679,0,0,1,.675-.683h0a.679.679,0,0,1,.68.675v.342q0,.344,0,.687a.678.678,0,0,1-.679.672m-.05-3.393a.679.679,0,0,1-.678-.652q-.02-.5-.047-1.007a.679.679,0,1,1,1.356-.072q.028.512.047,1.026a.678.678,0,0,1-.652.7h-.027m-.215-3.386a.679.679,0,0,1-.676-.619q-.044-.5-.1-1a.679.679,0,1,1,1.35-.138q.052.511.1,1.023a.678.678,0,0,1-.616.736.6.6,0,0,1-.06,0m-.38-3.373a.679.679,0,0,1-.672-.587q-.068-.5-.144-1a.679.679,0,1,1,1.342-.2q.077.508.147,1.018a.679.679,0,0,1-.58.765.716.716,0,0,1-.093.006m-.541-3.351a.679.679,0,0,1-.667-.554q-.092-.5-.192-.99a.679.679,0,1,1,1.331-.269q.1.5.2,1.01a.678.678,0,0,1-.543.792.688.688,0,0,1-.125.012m-.7-3.321a.678.678,0,0,1-.659-.522q-.117-.491-.24-.98a.679.679,0,1,1,1.316-.333q.126.5.245,1a.679.679,0,0,1-.5.818.7.7,0,0,1-.158.018m-.864-3.283a.679.679,0,0,1-.652-.49q-.14-.485-.288-.967a.679.679,0,0,1,1.3-.4q.151.492.294.986a.68.68,0,0,1-.652.868m-1.026-3.236a.679.679,0,0,1-.642-.458q-.164-.477-.336-.951a.679.679,0,0,1,1.277-.462q.174.484.342.971a.68.68,0,0,1-.641.9m-1.186-3.181a.68.68,0,0,1-.63-.426q-.188-.467-.384-.932a.679.679,0,0,1,1.252-.526q.2.474.391.953a.678.678,0,0,1-.377.883.67.67,0,0,1-.252.05m-1.347-3.117a.679.679,0,0,1-.616-.394q-.212-.458-.431-.913a.679.679,0,0,1,1.224-.589q.223.463.439.93a.679.679,0,0,1-.615.965m-1.507-3.043a.678.678,0,0,1-.6-.362q-.235-.445-.478-.887a.679.679,0,0,1,1.189-.654q.249.452.49.907a.679.679,0,0,1-.6,1m-1.668-2.958a.678.678,0,0,1-.583-.33q-.259-.432-.525-.859a.679.679,0,0,1,1.152-.719q.272.437.537.879a.679.679,0,0,1-.582,1.028m-1.826-2.861a.678.678,0,0,1-.562-.3q-.283-.417-.572-.829a.679.679,0,1,1,1.111-.781q.3.422.586.848a.679.679,0,0,1-.561,1.06m-1.984-2.754a.678.678,0,0,1-.54-.266q-.306-.4-.618-.794a.679.679,0,1,1,1.063-.844q.321.4.633.813a.678.678,0,0,1-.538,1.091m-2.14-2.633a.677.677,0,0,1-.514-.236q-.329-.381-.664-.756a.679.679,0,0,1,1.013-.9q.343.384.68.774a.679.679,0,0,1-.514,1.122m-2.293-2.5a.678.678,0,0,1-.486-.205q-.35-.36-.707-.713a.679.679,0,1,1,.954-.965q.367.363.726.731a.679.679,0,0,1-.486,1.153m-2.44-2.356a.676.676,0,0,1-.456-.176q-.372-.338-.75-.668a.679.679,0,1,1,.894-1.022q.387.339.768.684a.679.679,0,0,1-.456,1.182m-2.581-2.2a.675.675,0,0,1-.423-.148q-.393-.313-.792-.62a.679.679,0,0,1,.827-1.077q.409.314.812.635a.679.679,0,0,1-.424,1.21m-2.721-2.027a.674.674,0,0,1-.386-.121q-.413-.286-.831-.563a.679.679,0,1,1,.749-1.132q.43.285.855.579a.679.679,0,0,1-.387,1.237m-55.329-1.4a.679.679,0,0,1-.388-1.237q.426-.3.858-.579a.679.679,0,0,1,.745,1.135q-.417.274-.829.56a.675.675,0,0,1-.386.121m52.473-.431a.673.673,0,0,1-.346-.1q-.432-.257-.869-.5a.679.679,0,1,1,.67-1.182q.449.255.892.518a.679.679,0,0,1-.348,1.263M1464.2,366.3a.679.679,0,0,1-.339-1.267q.448-.258.9-.505a.679.679,0,1,1,.649,1.192q-.439.239-.874.49a.677.677,0,0,1-.338.09m46.635-.25a.675.675,0,0,1-.306-.073q-.448-.227-.9-.445a.679.679,0,1,1,.589-1.223q.465.225.925.457a.679.679,0,0,1-.307,1.284m-43.629-1.322a.679.679,0,0,1-.291-1.293q.468-.221.94-.431a.679.679,0,0,1,.551,1.241q-.458.2-.911.417a.673.673,0,0,1-.29.065m40.553-.11a.67.67,0,0,1-.266-.055q-.462-.2-.929-.385a.679.679,0,1,1,.508-1.259q.478.192.953.395a.679.679,0,0,1-.266,1.3m-37.431-1.218a.679.679,0,0,1-.241-1.314q.483-.183.971-.355a.679.679,0,1,1,.452,1.28q-.472.167-.942.345a.682.682,0,0,1-.241.044m34.267-.01a.676.676,0,0,1-.225-.039q-.475-.166-.952-.324a.679.679,0,0,1,.426-1.289q.49.161.976.332a.679.679,0,0,1-.225,1.32m-3.236-1.022a.675.675,0,0,1-.184-.025q-.484-.136-.971-.262a.679.679,0,0,1,.342-1.314q.5.129,1,.269a.679.679,0,0,1-.183,1.333m-27.815-.049a.679.679,0,0,1-.191-1.331q.5-.146.995-.28a.679.679,0,0,1,.354,1.311q-.485.131-.966.273a.7.7,0,0,1-.192.028m24.52-.763a.678.678,0,0,1-.142-.015q-.492-.1-.986-.2a.679.679,0,1,1,.257-1.333q.507.1,1.011.205a.679.679,0,0,1-.141,1.343m-21.231-.074a.679.679,0,0,1-.142-1.342q.5-.108,1.012-.207a.679.679,0,1,1,.257,1.333q-.493.1-.984.2a.693.693,0,0,1-.143.015m17.891-.527a.708.708,0,0,1-.1-.007q-.5-.073-1-.136a.679.679,0,1,1,.171-1.347q.512.065,1.023.14a.679.679,0,0,1-.1,1.35m-14.549-.068a.679.679,0,0,1-.095-1.351q.512-.072,1.025-.134a.679.679,0,0,1,.162,1.348q-.5.06-1,.13a.673.673,0,0,1-.1.007m11.177-.317-.056,0q-.5-.041-1-.072a.679.679,0,0,1,.083-1.355q.515.032,1.029.074a.679.679,0,0,1-.054,1.355m-7.8-.043a.679.679,0,0,1-.048-1.356q.515-.037,1.031-.063a.679.679,0,0,1,.069,1.356q-.5.026-1,.061l-.049,0m4.411-.122h-.011q-.4-.007-.795-.006h-.213a.679.679,0,0,1,0-1.358h.216q.409,0,.817.006a.679.679,0,0,1-.011,1.358" transform="translate(-852.018 -237.176)" fill="#faf3fe"/></g></g></g></svg>