<svg xmlns="http://www.w3.org/2000/svg" xmlns:xlink="http://www.w3.org/1999/xlink" width="777.277" height="502.063" viewBox="0 0 777.277 502.063"><defs><clipPath id="a"><rect width="777.277" height="502.063" fill="none"/></clipPath><clipPath id="b"><path d="M356.917,147.558C257.528,164.8,247.3,135.017,187.082,111.76S72.047,95.582,49.46,150.453c-15.744,38.246,8.1,57.7,39.239,86.563s18.041,46.474-3.739,62.694-55.528,3.658-79.375,64.319C1.749,373.785,0,382.012,0,389.049v.048c.026,36.672,47.452,40.961,93.2,60.647,54.536,23.468-17.587,41.317,41.049,78.022s219.661,22.5,219.661,22.5,173.634-1.54,288.5-.736c114.7.8,149.567-66.609,124.848-126.7s-101.025-46.784-62.807-98.233,79.451-84.283,55.913-126.515S704.3,145.192,676.61,161.053,637.3,174.094,617.726,141.9c-15.909-26.171-34.053-42.58-46.185-46.19a172,172,0,0,0-49.348-7.507c-73.174,0-119.381,51.391-165.277,59.353" transform="translate(0 -88.205)" fill="none"/></clipPath><linearGradient id="c" y1="0.989" x2="0" y2="0.989" gradientUnits="objectBoundingBox"><stop offset="0" stop-color="#dae3fe"/><stop offset="1" stop-color="#e9effd"/></linearGradient><clipPath id="d"><rect width="777.275" height="502.061" fill="none"/></clipPath><clipPath id="e"><path d="M650.22,192.658V581.693a18.23,18.23,0,0,0,18.032,18.413L949,598.868c10.6-.047,19.4-9.054,19.4-19.913l.233-388.182c.009-15.692-11.344-28.182-25.82-28.341l-261.869-2.884-.317,0c-16.827,0-30.413,14.795-30.413,33.112" transform="translate(-650.22 -159.546)" fill="none"/></clipPath><linearGradient id="f" x1="-0.213" y1="0.934" x2="-0.212" y2="0.934" gradientUnits="objectBoundingBox"><stop offset="0" stop-color="#09005d"/><stop offset="1" stop-color="#1a0f91"/></linearGradient><clipPath id="h"><path d="M996.482,507.6a8.215,8.215,0,0,0-8.215,8.215v14.1c-28.314,4.558-44.632,21.594-44.632,43.911,0,24.715,20.157,36.953,48.231,44.632,19.677,5.278,27.834,10.557,27.834,19.434,0,9.839-10.558,14.639-24.715,14.639a95.46,95.46,0,0,1-36.528-7.691A8.221,8.221,0,0,0,947.3,650.22l-3.582,13.134a8.157,8.157,0,0,0,4.508,9.635c10.326,4.52,24.865,7.989,39.563,8.578v14.1A8.215,8.215,0,0,0,996,703.882h8.285a8.216,8.216,0,0,0,8.215-8.215V679.887c30.714-4.8,46.551-24,46.551-45.352,0-23.276-12.958-36.233-44.152-45.591-21.835-6.719-31.913-12-31.913-19.677,0-6.239,4.8-13.2,21.595-13.2a85.533,85.533,0,0,1,30.756,5.584,8.193,8.193,0,0,0,10.815-5.533l3.294-12.146a8.174,8.174,0,0,0-5.108-9.869,104.834,104.834,0,0,0-31.358-5.631V515.815a8.215,8.215,0,0,0-8.216-8.215Z" transform="translate(-943.422 -507.6)" fill="none"/></clipPath><linearGradient id="i" x1="-2.838" y1="1.65" x2="-2.835" y2="1.65" xlink:href="#c"/><clipPath id="k"><rect width="150.479" height="104.899" fill="none"/></clipPath><clipPath id="l"><path d="M1475.337,299.328l7.893,107.017a12.555,12.555,0,0,0,12.265,11.629l159.743,3.251a12.554,12.554,0,0,0,12.807-12.3l2.24-110.045a12.555,12.555,0,0,0-12.535-12.81l-169.877-.223h-.017a12.554,12.554,0,0,0-12.52,13.477" transform="translate(-1475.302 -285.851)" fill="none"/></clipPath><linearGradient id="m" x1="-2.089" y1="1.97" x2="-2.087" y2="1.97" gradientUnits="objectBoundingBox"><stop offset="0" stop-color="#fe7062"/><stop offset="1" stop-color="#ff928e"/></linearGradient><clipPath id="n"><path d="M1672.134,322.32l-160.569,2.2a7.765,7.765,0,0,0-7.646,8.2l5.26,92.507a7.765,7.765,0,0,0,7.513,7.32l153.285,4.727a7.765,7.765,0,0,0,8-7.6L1680,330.241a7.764,7.764,0,0,0-7.76-7.922h-.109" transform="translate(-1503.907 -322.319)" fill="none"/></clipPath><linearGradient id="o" x1="-2.67" y1="2.787" x2="-2.668" y2="2.787" gradientUnits="objectBoundingBox"><stop offset="0" stop-color="#ff928e"/><stop offset="1" stop-color="#feb3b1"/></linearGradient><clipPath id="p"><path d="M1808.963,565.72l-86.511.826a1.573,1.573,0,0,0,0,3.145l86.482.566a1.572,1.572,0,0,0,1.582-1.541l.028-1.392a1.572,1.572,0,0,0-1.572-1.6h-.015" transform="translate(-1720.895 -565.72)" fill="none"/></clipPath><linearGradient id="q" x1="-8.326" y1="5.627" x2="-8.321" y2="5.627" xlink:href="#m"/><clipPath id="r"><path d="M1720.453,590.27l-.012.593a1.572,1.572,0,0,0,1.54,1.6l86.458,1.76a1.573,1.573,0,0,0,1.6-1.54l.012-.593a1.572,1.572,0,0,0-1.54-1.6l-86.458-1.76h-.033a1.573,1.573,0,0,0-1.572,1.541" transform="translate(-1720.441 -588.729)" fill="none"/></clipPath><linearGradient id="s" x1="-8.256" y1="5.419" x2="-8.251" y2="5.419" xlink:href="#m"/><clipPath id="t"><path d="M1794.795,613.879l-.005.261a1.572,1.572,0,0,0,1.54,1.6l60.217,1.226a1.573,1.573,0,0,0,1.6-1.541l.025-1.224a1.573,1.573,0,0,0-1.565-1.6l-60.236-.262h-.007a1.572,1.572,0,0,0-1.572,1.54" transform="translate(-1794.789 -612.339)" fill="none"/></clipPath><linearGradient id="u" x1="-12.015" y1="7.174" x2="-12.009" y2="7.174" xlink:href="#m"/><clipPath id="v"><path d="M1544.176,184.538l-188.388,3.587a13.925,13.925,0,0,0-13.6,15.229l11.169,118.5a13.925,13.925,0,0,0,13.863,12.618H1544.44a13.925,13.925,0,0,0,13.925-13.925V198.461a13.924,13.924,0,0,0-13.919-13.925l-.271,0" transform="translate(-1342.127 -184.536)" fill="none"/></clipPath><linearGradient id="w" x1="-2.168" y1="2.917" x2="-2.166" y2="2.917" gradientUnits="objectBoundingBox"><stop offset="0" stop-color="#4042e2"/><stop offset="1" stop-color="#4f52ff"/></linearGradient><clipPath id="x"><path d="M1560.839,224.54l-178.011,6.067a8.613,8.613,0,0,0-8.294,9.271l7.922,102.466a8.612,8.612,0,0,0,8.5,7.948l170.09,1.782a8.612,8.612,0,0,0,8.7-8.612V233.147a8.613,8.613,0,0,0-8.607-8.612c-.1,0-.2,0-.3.005" transform="translate(-1374.509 -224.535)" fill="none"/></clipPath><linearGradient id="y" x1="-2.464" y1="3.317" x2="-2.463" y2="3.317" xlink:href="#c"/><clipPath id="aa"><path d="M206.186,286.714l-93.71,50.061a12.493,12.493,0,0,0-5.132,16.906l73.047,136.737a7.7,7.7,0,0,0,10.549,3.1L297.3,434.188a8.117,8.117,0,0,0,3-11.272l-79.5-132.167a11,11,0,0,0-14.619-4.035" transform="translate(-105.868 -285.414)" fill="none"/></clipPath><linearGradient id="ab" x1="-0.098" y1="1.885" x2="-0.097" y2="1.885" xlink:href="#w"/><clipPath id="ad"><path d="M258.074,340.793,178.843,382.32c-.684.358-.663.9.045,1.208l.789.341a3.306,3.306,0,0,0,2.527-.1l77.008-41.139a1.18,1.18,0,0,0,.671-1.573,1.127,1.127,0,0,0-.984-.467,1.8,1.8,0,0,0-.826.208" transform="translate(-178.344 -340.585)" fill="none"/></clipPath><linearGradient id="ae" x1="-0.761" y1="8.776" x2="-0.756" y2="8.776" xlink:href="#c"/><clipPath id="af"><path d="M266.064,355.75l-79.231,41.527c-.684.358-.663.9.046,1.208l.79.341a3.305,3.305,0,0,0,2.527-.1L267.2,357.582a1.18,1.18,0,0,0,.671-1.572,1.127,1.127,0,0,0-.985-.468,1.8,1.8,0,0,0-.826.208" transform="translate(-186.334 -355.542)" fill="none"/></clipPath><linearGradient id="ag" x1="-0.795" y1="8.656" x2="-0.791" y2="8.656" xlink:href="#c"/><clipPath id="ai"><path d="M255.487,557.079c-2.227,1.321-6.68,4.528-8.77,5.932a1.552,1.552,0,0,0-.516,2.176l4.733,6.526a2.208,2.208,0,0,0,2.885.479l8.323-4.694a1.989,1.989,0,0,0,.913-2.627c-1.623-2.988-3.4-6.212-4.761-7.563a2.11,2.11,0,0,0-1.5-.593,2.564,2.564,0,0,0-1.3.364" transform="translate(-245.944 -556.715)" fill="none"/></clipPath><linearGradient id="aj" x1="-4.828" y1="19.105" x2="-4.808" y2="19.105" xlink:href="#c"/><clipPath id="ak"><path d="M363.024,465.447l-53.43,29.135a1,1,0,0,0-.244,1.669l2.373,2.4a1.927,1.927,0,0,0,2.2.3l51.425-29.65a1.371,1.371,0,0,0,.488-1.9l-.857-1.415a1.487,1.487,0,0,0-1.27-.7,1.439,1.439,0,0,0-.691.174" transform="translate(-309.004 -465.273)" fill="none"/></clipPath><linearGradient id="al" x1="-1.885" y1="9.948" x2="-1.878" y2="9.948" xlink:href="#c"/><clipPath id="am"><path d="M257.323,539.575l1.437,14.2a.589.589,0,0,1-.889.565l-4.155-2.485a1.835,1.835,0,0,0-2.537.668,1.925,1.925,0,0,0,.557,2.515C257.283,559,261,558.434,261,558.434a25.708,25.708,0,0,0-2.457-19.238.634.634,0,0,0-.565-.34.646.646,0,0,0-.657.719" transform="translate(-250.93 -538.856)" fill="none"/></clipPath><linearGradient id="an" x1="-4.152" y1="24.167" x2="-4.135" y2="24.167" xlink:href="#m"/><clipPath id="ap"><path d="M220.038,489.258c-2.227,1.321-6.68,4.528-8.77,5.932a1.552,1.552,0,0,0-.516,2.176l4.732,6.526a2.208,2.208,0,0,0,2.885.479l8.324-4.693a1.989,1.989,0,0,0,.912-2.627c-1.623-2.988-3.4-6.212-4.761-7.563a2.111,2.111,0,0,0-1.5-.593,2.564,2.564,0,0,0-1.3.364" transform="translate(-210.496 -488.894)" fill="none"/></clipPath><linearGradient id="aq" x1="-4.13" y1="20.587" x2="-4.11" y2="20.587" xlink:href="#c"/><clipPath id="ar"><path d="M327.575,397.627l-53.43,29.135a1,1,0,0,0-.244,1.669l2.374,2.4a1.926,1.926,0,0,0,2.2.3l51.425-29.65a1.371,1.371,0,0,0,.488-1.9l-.857-1.415a1.485,1.485,0,0,0-1.269-.7,1.438,1.438,0,0,0-.691.174" transform="translate(-273.555 -397.453)" fill="none"/></clipPath><linearGradient id="as" x1="-1.668" y1="10.647" x2="-1.662" y2="10.647" xlink:href="#c"/><clipPath id="at"><path d="M221.874,471.755l1.437,14.2a.589.589,0,0,1-.889.565l-4.155-2.484a1.836,1.836,0,0,0-2.538.668,1.925,1.925,0,0,0,.558,2.515c5.545,3.963,9.265,3.392,9.265,3.392a25.71,25.71,0,0,0-2.456-19.238.634.634,0,0,0-.565-.34.646.646,0,0,0-.658.72" transform="translate(-215.481 -471.035)" fill="none"/></clipPath><linearGradient id="au" x1="-3.538" y1="26.027" x2="-3.52" y2="26.027" xlink:href="#m"/><clipPath id="aw"><path d="M291.964,620.343c-2.227,1.321-6.68,4.528-8.77,5.932a1.551,1.551,0,0,0-.515,2.176l4.732,6.526a2.208,2.208,0,0,0,2.885.479l8.323-4.693a1.989,1.989,0,0,0,.912-2.627c-1.623-2.988-3.4-6.212-4.761-7.563a2.112,2.112,0,0,0-1.5-.593,2.564,2.564,0,0,0-1.3.364" transform="translate(-282.421 -619.979)" fill="none"/></clipPath><linearGradient id="ax" x1="-5.546" y1="17.722" x2="-5.526" y2="17.722" xlink:href="#c"/><clipPath id="ay"><path d="M399.5,528.711l-53.43,29.135a1,1,0,0,0-.244,1.669l2.374,2.4a1.925,1.925,0,0,0,2.2.3l51.425-29.65a1.371,1.371,0,0,0,.489-1.9l-.857-1.414a1.487,1.487,0,0,0-1.27-.7,1.438,1.438,0,0,0-.691.174" transform="translate(-345.481 -528.537)" fill="none"/></clipPath><linearGradient id="az" x1="-2.107" y1="9.296" x2="-2.101" y2="9.296" xlink:href="#c"/><clipPath id="ba"><path d="M293.8,602.839l1.437,14.2a.589.589,0,0,1-.889.565l-4.155-2.484a1.834,1.834,0,0,0-2.536.668,1.924,1.924,0,0,0,.557,2.515c5.545,3.963,9.265,3.392,9.265,3.392a25.71,25.71,0,0,0-2.456-19.238.635.635,0,0,0-.565-.34.646.646,0,0,0-.657.719" transform="translate(-287.406 -602.12)" fill="none"/></clipPath><linearGradient id="bb" x1="-4.785" y1="22.433" x2="-4.767" y2="22.433" xlink:href="#m"/><clipPath id="bc"><path d="M314.489,693.592l-5.922-8.166a1.241,1.241,0,0,1-.207-.956,1.673,1.673,0,0,1,.73-1.076c.842-.566,1.99-1.365,3.253-2.243,2.594-1.805,5.822-4.052,7.7-5.165a2.443,2.443,0,0,1,2.918.212c1.6,1.595,3.691,5.333,5.873,9.351a2.053,2.053,0,0,1-.953,2.63l-10.416,5.872a2.631,2.631,0,0,1-1.291.348,2.043,2.043,0,0,1-1.684-.809m5.055-18.444c-1.907,1.131-5.151,3.389-7.758,5.2-1.258.875-2.4,1.671-3.24,2.234A2.655,2.655,0,0,0,307.4,684.3a2.21,2.21,0,0,0,.378,1.7l5.922,8.166a3.241,3.241,0,0,0,4.244.738l10.416-5.872.028-.016a2.985,2.985,0,0,0,1.3-3.929c-2.218-4.084-4.349-7.889-6.042-9.577a3.119,3.119,0,0,0-2.221-.877,3.759,3.759,0,0,0-1.884.515" transform="translate(-307.363 -674.632)" fill="none"/></clipPath><linearGradient id="bd" x1="-4.661" y1="12.564" x2="-4.646" y2="12.564" xlink:href="#c"/><clipPath id="bf"><rect width="17.316" height="15.802" fill="none"/></clipPath><clipPath id="bg"><path d="M431.764,591.052l-53.429,29.135a1,1,0,0,0-.245,1.669l2.373,2.4a1.927,1.927,0,0,0,2.2.3l51.425-29.65a1.371,1.371,0,0,0,.488-1.9l-.857-1.415a1.487,1.487,0,0,0-1.27-.7,1.442,1.442,0,0,0-.691.174" transform="translate(-377.745 -590.878)" fill="none"/></clipPath><linearGradient id="bh" x1="-2.305" y1="8.654" x2="-2.298" y2="8.654" xlink:href="#c"/><clipPath id="bi"><path d="M326.064,665.18l1.437,14.2a.589.589,0,0,1-.889.565l-4.155-2.484a1.835,1.835,0,0,0-2.537.668,1.925,1.925,0,0,0,.557,2.515c5.546,3.963,9.265,3.392,9.265,3.392a25.712,25.712,0,0,0-2.456-19.238.635.635,0,0,0-.565-.34.647.647,0,0,0-.657.72" transform="translate(-319.671 -664.46)" fill="none"/></clipPath><linearGradient id="bj" x1="-5.052" y1="18.239" x2="-5.035" y2="18.239" xlink:href="#m"/><clipPath id="bl"><path d="M357,747.264c-2.227,1.321-6.68,4.529-8.771,5.932a1.552,1.552,0,0,0-.516,2.176l4.732,6.526a2.208,2.208,0,0,0,2.885.479l8.324-4.693a1.99,1.99,0,0,0,.913-2.627c-1.623-2.988-3.405-6.212-4.761-7.563a2.111,2.111,0,0,0-1.5-.593,2.563,2.563,0,0,0-1.3.364" transform="translate(-347.453 -746.9)" fill="none"/></clipPath><linearGradient id="bm" x1="-6.826" y1="14.947" x2="-6.806" y2="14.947" xlink:href="#c"/><clipPath id="bn"><path d="M464.532,655.632,411.1,684.767a1,1,0,0,0-.244,1.669l2.374,2.4a1.926,1.926,0,0,0,2.2.3l51.425-29.65a1.371,1.371,0,0,0,.489-1.9l-.858-1.415a1.486,1.486,0,0,0-1.269-.7,1.439,1.439,0,0,0-.691.174" transform="translate(-410.512 -655.458)" fill="none"/></clipPath><linearGradient id="bo" x1="-2.505" y1="7.989" x2="-2.499" y2="7.989" xlink:href="#c"/><clipPath id="bp"><path d="M358.831,729.76l1.437,14.2a.59.59,0,0,1-.889.565l-4.155-2.484a1.836,1.836,0,0,0-2.537.667,1.925,1.925,0,0,0,.558,2.515c5.545,3.962,9.265,3.392,9.265,3.392a25.712,25.712,0,0,0-2.456-19.238.635.635,0,0,0-.565-.34.646.646,0,0,0-.657.719" transform="translate(-352.438 -729.041)" fill="none"/></clipPath><linearGradient id="bq" x1="-5.912" y1="18.952" x2="-5.895" y2="18.952" xlink:href="#m"/><clipPath id="br"><path d="M222.259,307.744a3,3,0,1,1,2.654,1.59,3.006,3.006,0,0,1-2.654-1.59m-4.766-6.34a4.685,4.685,0,0,0-.614,5.913l6.1,9.276,11.136-4.737s1.787-12.17-7.319-13.243a15.26,15.26,0,0,0-1.785-.108,10.321,10.321,0,0,0-7.521,2.9" transform="translate(-216.104 -298.505)" fill="none"/></clipPath><linearGradient id="bs" x1="-3.529" y1="17.382" x2="-3.512" y2="17.382" xlink:href="#f"/><clipPath id="bt"><path d="M223.531,311.759a.6.6,0,0,0-.171.826l.972,1.478a.6.6,0,0,0,1-.656l-.972-1.477a.6.6,0,0,0-.827-.171m2.714-10.043a9.324,9.324,0,0,0-3.929,2.311,4.78,4.78,0,0,0-.627,6.02l.738,1.122a.6.6,0,0,0,1-.656l-.738-1.122a3.582,3.582,0,0,1,.467-4.512,8.126,8.126,0,0,1,3.43-2.017.6.6,0,0,0-.175-1.168.617.617,0,0,0-.165.022" transform="translate(-220.904 -301.694)" fill="none"/></clipPath><linearGradient id="bu" x1="-11.603" y1="31.286" x2="-11.55" y2="31.286" xlink:href="#c"/><clipPath id="bv"><path d="M231.664,314.1l-34.425,16.9a3.392,3.392,0,0,0-1.5,4.643l2.62,4.9L238.729,319.9l-2.8-4.561a3.3,3.3,0,0,0-4.266-1.236" transform="translate(-195.34 -313.765)" fill="none"/></clipPath><linearGradient id="bw" x1="-2.193" y1="8.455" x2="-2.183" y2="8.455" xlink:href="#f"/><clipPath id="bx"><path d="M226.781,352l-1.454.777a.347.347,0,0,0,.324.613h0l1.453-.777a.347.347,0,0,0,.143-.47.342.342,0,0,0-.3-.185.359.359,0,0,0-.167.042" transform="translate(-225.143 -351.956)" fill="none"/></clipPath><linearGradient id="by" x1="-35.151" y1="249.013" x2="-34.995" y2="249.013" xlink:href="#c"/><clipPath id="bz"><path d="M207.915,355.744,202.57,358.6a3.459,3.459,0,0,0-1.421,4.679l1.06,1.984a.6.6,0,0,0,.61.31.6.6,0,0,0,.2-.064.6.6,0,0,0,.246-.808l-1.06-1.984a2.266,2.266,0,0,1,.93-3.063l5.345-2.855a.6.6,0,0,0-.563-1.054" transform="translate(-200.74 -355.674)" fill="none"/></clipPath><linearGradient id="ca" x1="-8.518" y1="37.984" x2="-8.476" y2="37.984" xlink:href="#c"/><clipPath id="cb"><path d="M226.613,310.028,167.5,341.611a3.612,3.612,0,0,0-1.562,4.733l1.319,2.785a2.766,2.766,0,0,0,3.8,1.255l60.651-32.4a4.254,4.254,0,0,0,1.351-6.367l-.2-.262a4.952,4.952,0,0,0-6.242-1.324" transform="translate(-165.585 -309.443)" fill="none"/></clipPath><linearGradient id="cc" x1="-1.688" y1="5.83" x2="-1.679" y2="5.83" xlink:href="#f"/><clipPath id="ce"><path d="M952.438,102.464c4.144-1.792,12.292,3.946,21.227,7.435s14.931-8.036,14.931-8.036l.155-4.58c-5.541-3.974-10.735-5.425-15.369-5.424-12.527,0-20.944,10.605-20.944,10.605" transform="translate(-952.438 -91.859)" fill="none"/></clipPath><linearGradient id="cf" x1="-12.074" y1="12.052" x2="-12.061" y2="12.052" xlink:href="#m"/><clipPath id="ch"><path d="M1051.74,72.016a3.635,3.635,0,0,0-2.689,2.652,44.1,44.1,0,0,0-.109,21.04,2.5,2.5,0,0,0,1.765,1.847,187.557,187.557,0,0,0,45.774,5.832,65.882,65.882,0,0,0,20.347-3.011c1.45-6.329,3.362-17.611.246-29.345a65.882,65.882,0,0,0-20.129-3.49q-1.645-.026-3.249-.026a187.522,187.522,0,0,0-41.956,4.5" transform="translate(-1047.722 -67.516)" fill="none"/></clipPath><linearGradient id="ci" x1="-4.547" y1="6.871" x2="-4.542" y2="6.871" xlink:href="#w"/><clipPath id="cj"><path d="M1244.649,106.88a68.363,68.363,0,0,0,24.289-13.428,1.229,1.229,0,0,0,.023-1.818,68.372,68.372,0,0,0-24.067-14.1c3.116,11.734,1.2,23.017-.246,29.345" transform="translate(-1244.649 -77.535)" fill="none"/></clipPath><linearGradient id="ck" x1="-11.644" y1="12.541" x2="-11.634" y2="12.541" xlink:href="#m"/><clipPath id="cm"><path d="M1167.519,100.232c-.067,5.225,3.824,9.512,8.693,9.576s8.87-4.122,8.938-9.348-3.825-9.512-8.693-9.575h-.109c-4.82,0-8.762,4.162-8.829,9.348" transform="translate(-1167.519 -90.884)" fill="none"/></clipPath><linearGradient id="cn" x1="-21.28" y1="26.077" x2="-21.262" y2="26.077" xlink:href="#f"/><clipPath id="cp"><path d="M1112.383,105.708a5.839,5.839,0,1,0,5.9-6.175h-.072a6.056,6.056,0,0,0-5.833,6.176" transform="translate(-1112.382 -99.532)" fill="none"/></clipPath><linearGradient id="cq" x1="-30.709" y1="39.231" x2="-30.681" y2="39.231" xlink:href="#f"/><clipPath id="cs"><path d="M995.219,1024.988s-4.881-12.848-10.582-11.672-11.938,5.557-11.938,5.557l-9.159,12.387s25.711,10.128,34.753,4.324c0,0,26.262,4.538,59.426-.9a129.956,129.956,0,0,1-9.342-28.159c-16.8,9.508-34.889,16.609-53.157,18.468" transform="translate(-963.54 -1006.52)" fill="none"/></clipPath><linearGradient id="ct" x1="-7.672" y1="1.841" x2="-7.664" y2="1.841" xlink:href="#o"/><clipPath id="cu"><path d="M1205.293,868.3a129.954,129.954,0,0,0,9.342,28.159c25.083-4.116,54.114-13.938,78.725-35.766l-2.114-67.121s-37.6,47.358-85.953,74.728" transform="translate(-1205.293 -793.572)" fill="none"/></clipPath><linearGradient id="cv" x1="-4.575" y1="2.12" x2="-4.571" y2="2.12" xlink:href="#m"/><clipPath id="cw"><path d="M229.64,797.114c-34.318.79-159.31,3.877-204.023,7.856a9.264,9.264,0,0,0-7.739,12.739l74.642,187.719a22.237,22.237,0,0,0,23.83,13.794l195.737-14.453-70.5-199.62a12.474,12.474,0,0,0-11.655-8.039c-.1,0-.193,0-.29,0" transform="translate(-17.181 -797.11)" fill="none"/></clipPath><linearGradient id="cx" x1="-0.015" y1="0.994" x2="-0.014" y2="0.994" gradientUnits="objectBoundingBox"><stop offset="0" stop-color="#020039"/><stop offset="1" stop-color="#090056"/></linearGradient><clipPath id="cy"><path d="M257.391,823.083l-184.328,7a5.907,5.907,0,0,0-5.363,8.069l74.576,189.405,193.453-12.746L268.219,830.171a11.175,11.175,0,0,0-10.4-7.1q-.213,0-.427.008" transform="translate(-67.285 -823.075)" fill="none"/></clipPath><linearGradient id="cz" x1="0.012" y1="0.828" x2="0.013" y2="0.828" xlink:href="#w"/><clipPath id="da"><path d="M1375.532,805.149l-70.5,200.375,195.737,13.7a22.237,22.237,0,0,0,23.83-13.794l74.642-187.719a9.263,9.263,0,0,0-7.739-12.739c-44.713-3.979-169.7-7.066-204.023-7.856-.1,0-.193,0-.29,0a12.474,12.474,0,0,0-11.655,8.039" transform="translate(-1305.029 -797.11)" fill="none"/></clipPath><linearGradient id="db" x1="-1.544" y1="0.994" x2="-1.543" y2="0.994" xlink:href="#cx"/><clipPath id="dc"><path d="M1397.844,830.171l-67.51,184.637,193.453,12.746,74.576-189.405a5.907,5.907,0,0,0-5.363-8.069l-184.328-7c-.143-.005-.285-.008-.427-.008a11.176,11.176,0,0,0-10.4,7.1" transform="translate(-1330.334 -823.075)" fill="none"/></clipPath><linearGradient id="dd" x1="-1.732" y1="1.043" x2="-1.731" y2="1.043" xlink:href="#w"/><clipPath id="de"><path d="M649.511,874.111a172.356,172.356,0,0,0,18.954,5.382c3.76-12.105,12.039-26.962,18.819-38.009-24.908-8.8-40.106-30.067-40.106-30.067Z" transform="translate(-647.177 -811.417)" fill="none"/></clipPath><linearGradient id="df" x1="-2.723" y1="2.903" x2="-2.718" y2="2.903" xlink:href="#m"/><clipPath id="dg"><path d="M726.658,839.512c-6.78,11.047-15.058,25.9-18.819,38.009,91.244,20.116,112.73-63.765,112.73-63.765l-9.662-5.377c-34.167,36.89-61.823,39.061-84.249,31.133" transform="translate(-707.839 -808.379)" fill="none"/></clipPath><linearGradient id="dh" x1="-2.203" y1="2.447" x2="-2.2" y2="2.447" xlink:href="#o"/><clipPath id="di"><path d="M1050.818,786.31c-4.539,3.859-11.023,1.329-18.307,0s-11.22,2.9-11.22,2.9l22.071,8.753,13.591-10.331s-.847-2.749-3.062-2.749a4.916,4.916,0,0,0-3.072,1.429" transform="translate(-1021.291 -784.881)" fill="none"/></clipPath><linearGradient id="dj" x1="-21.015" y1="6.444" x2="-20.995" y2="6.444" xlink:href="#o"/><clipPath id="dk"><path d="M998.127,799.534c9.282,8.764,43.669,12.207,43.669,12.207l23.5-13.226c-2.431-5.007-16.556,3.142-16.556,3.142l5.495-6.831c-3.12-1.564-9.2,2.86-13.955,4.709s-23.205-8.186-31.332-9.731a7.991,7.991,0,0,0-1.5-.146c-6.964,0-9.326,9.876-9.326,9.876" transform="translate(-998.127 -789.658)" fill="none"/></clipPath><linearGradient id="dl" x1="-5.214" y1="10.187" x2="-5.209" y2="10.187" xlink:href="#o"/><clipPath id="dm"><path d="M382.452,770.962c-84.989,51.755-73.331,218.195-73.331,218.195h77.794c-6.023-29.573,19.284-82.408,44.131-111.986s34.382-61.139,4.774-91.517c-14.567-14.946-27.715-18.742-37.318-18.741-9.915,0-16.05,4.049-16.05,4.049" transform="translate(-308.58 -766.913)" fill="none"/></clipPath><linearGradient id="dn" x1="-0.15" y1="0.954" x2="-0.149" y2="0.954" xlink:href="#m"/><clipPath id="do"><path d="M560.435,691.444s5.08,10,29.331,18.128L610.7,666.531l-21.941-17.27c-.022,1.984-28.323,42.183-28.323,42.183" transform="translate(-560.435 -649.261)" fill="none"/></clipPath><linearGradient id="dp" x1="-2.354" y1="3.779" x2="-2.349" y2="3.779" gradientUnits="objectBoundingBox"><stop offset="0" stop-color="#ff928e"/><stop offset="0.536" stop-color="#fea6a3"/><stop offset="1" stop-color="#feb3b1"/></linearGradient><clipPath id="dq"><path d="M609.43,979.893s53.694,44.969,111.675,25.347a13.806,13.806,0,0,1,10.886.82l16.669,8.8a14.88,14.88,0,0,0,19.721-5.522c2.315-3.873,4.292-8.3,4.685-12.537l-32.616-13.2,2.4-4s-15.925-1.349-20.093,10.064c0,0-30.333,12.616-81.486-43.648,0,0-23.212,19.737-31.845,33.875" transform="translate(-609.43 -946.018)" fill="none"/></clipPath><linearGradient id="dr" x1="-1.628" y1="1.22" x2="-1.625" y2="1.22" xlink:href="#o"/><clipPath id="ds"><path d="M504.447,921.966a1.189,1.189,0,0,0-.629,1.557c.105.248,10.772,24.977,33.446,40.3a1.188,1.188,0,1,0,1.33-1.968c-22.075-14.915-32.486-39.014-32.589-39.256a1.188,1.188,0,0,0-1.558-.63" transform="translate(-503.724 -921.872)" fill="none"/></clipPath><linearGradient id="dt" x1="-4.944" y1="4.236" x2="-4.934" y2="4.236" gradientUnits="objectBoundingBox"><stop offset="0" stop-color="#e1473d"/><stop offset="1" stop-color="#e9605a"/></linearGradient><clipPath id="du"><path d="M528.509,801.176a1.188,1.188,0,0,0,1.174,2.066c.1-.058,10.287-5.724,20.845-2.768,6.367,1.783,11.626,6.326,15.634,13.5,13.16,23.564,20.072,34.324,20.14,34.43a1.188,1.188,0,1,0,2-1.287c-.068-.106-6.945-10.815-20.063-34.3-4.332-7.757-10.082-12.682-17.09-14.638a26.4,26.4,0,0,0-7.107-.949,34.349,34.349,0,0,0-15.532,3.946" transform="translate(-527.909 -797.23)" fill="none"/></clipPath><linearGradient id="dv" x1="-3.038" y1="4.298" x2="-3.033" y2="4.298" xlink:href="#dt"/><clipPath id="dw"><path d="M589.88,598.45c-2.252,7.632,7.787,26.268,7.787,26.268,6.407,12.094,18.233,19.088,32.272,16.642s11.423-10.323,10.747-22.465-10.747-35.274-10.747-35.274-37.807,7.2-40.058,14.828" transform="translate(-589.551 -583.622)" fill="none"/></clipPath><linearGradient id="dx" x1="-2.328" y1="3.748" x2="-2.324" y2="3.748" xlink:href="#o"/><clipPath id="dy"><path d="M599.609,512.169l-.586,1.108a.954.954,0,0,1-1.76-.181.949.949,0,0,0-1.718-.246c-1.688,2.7-6.245,7.082-18.431,9.331-17.319,3.2-28.77,10.205-29.055,22.173a.955.955,0,0,1-1.476.787c-1.279-.779-3.325-1.145-6.06,1.155-4.756,4-2.81,14.374,7.617,22.908a.947.947,0,0,1-.045,1.528c-1.89,1.23-4.708,4.158,2.594,8.061,7.552,4.037,13.191,3.706,15.363,3.348a.95.95,0,0,0,.771-1.147L564.5,570.476a.954.954,0,0,1,.932-1.159h3.61l.8-.352a1.927,1.927,0,0,0,.942-2.647c-1.98-3.825-5.839-12.59-.853-14.635,6.425-2.635,31.876-7.826,37.367-16.856,5.278-8.679.6-19.883-6.426-23.07a1.014,1.014,0,0,0-.419-.091.949.949,0,0,0-.847.5" transform="translate(-538.066 -511.665)" fill="none"/></clipPath><linearGradient id="dz" x1="-1.656" y1="3.277" x2="-1.653" y2="3.277" xlink:href="#cx"/><clipPath id="ea"><path d="M593.725,650.619c-6.625,4.143,3.438,16.557,8.764,17.11l1.7-6.477s-2.956-11.365-8.151-11.366a4.34,4.34,0,0,0-2.315.733" transform="translate(-591.541 -649.886)" fill="none"/></clipPath><linearGradient id="eb" x1="-8.068" y1="11.246" x2="-8.054" y2="11.246" xlink:href="#o"/><clipPath id="ec"><path d="M963.85,1088.775a16.858,16.858,0,0,0-5.167,8.485s13.644,13.347,16.278,11.4a47.965,47.965,0,0,0,5.594-6,5.857,5.857,0,0,0,.4-6.9l-3.218-4.965a9.357,9.357,0,0,0-7.865-4.274,9.12,9.12,0,0,0-6.021,2.252" transform="translate(-958.683 -1086.523)" fill="none"/></clipPath><linearGradient id="ed" x1="-10.724" y1="3.978" x2="-10.712" y2="3.978" xlink:href="#o"/><clipPath id="ee"><path d="M1440.954,779.88l-3.819,24.671a99.245,99.245,0,0,0,11.383,63.88c34.865,61.921,34.956,121.887,34.956,121.887l82.759,4.832c49.15-155.251-24.392-215.952-24.392-215.952a172.809,172.809,0,0,0-48.446-6.72c-30.564,0-52.441,7.4-52.441,7.4" transform="translate(-1435.94 -772.477)" fill="none"/></clipPath><linearGradient id="ef" x1="-1.602" y1="0.952" x2="-1.601" y2="0.952" xlink:href="#m"/><clipPath id="eg"><path d="M1473.439,689.195,1485.846,719a5.941,5.941,0,0,0,4.487,3.569c7.154,1.227,24.455,3.143,35.817-4.328a2.887,2.887,0,0,0,.772-4.06L1504,681.274Z" transform="translate(-1473.439 -681.274)" fill="none"/></clipPath><linearGradient id="eh" x1="-9.503" y1="5.918" x2="-9.497" y2="5.918" xlink:href="#o"/><clipPath id="ej"><path d="M1707.692,991.871l-129.568,30.867a2.883,2.883,0,0,0-2.037,3.8l28.732,78.049a2.884,2.884,0,0,0,3.506,1.774l117.058-33.8a2.884,2.884,0,0,0,2.019-3.38l-16.222-75.118a2.88,2.88,0,0,0-3.487-2.2" transform="translate(-1575.908 -991.792)" fill="none"/></clipPath><linearGradient id="ek" x1="-3.63" y1="1.339" x2="-3.628" y2="1.339" xlink:href="#c"/><clipPath id="el"><path d="M1722.742,1006.714l-117.07,17.8a3.565,3.565,0,0,0-2.937,4.328l19.515,84.257a3.565,3.565,0,0,0,4.461,2.621L1742,1082.438a3.565,3.565,0,0,0,2.463-4.314l-17.73-68.777a3.565,3.565,0,0,0-3.448-2.675,3.6,3.6,0,0,0-.539.041" transform="translate(-1602.643 -1006.673)" fill="none"/></clipPath><linearGradient id="em" x1="-3.383" y1="1.181" x2="-3.381" y2="1.181" xlink:href="#f"/><clipPath id="en"><path d="M1665.963,844.508c23.529,29.327,34.714,56.2,39.823,77.309,6.775-1.974,23.089-5.091,34.308,6.125,8.948-67.591-43.14-119.563-43.14-119.563Z" transform="translate(-1665.963 -808.379)" fill="none"/></clipPath><linearGradient id="eo" x1="-3.831" y1="1.725" x2="-3.828" y2="1.725" xlink:href="#m"/><clipPath id="ep"><path d="M1664,909.249a.792.792,0,0,0-.122,1.114c19.986,24.912,33.333,50.818,39.671,77a.792.792,0,1,0,1.539-.373c-6.392-26.409-19.841-52.523-39.974-77.618a.792.792,0,0,0-1.113-.122" transform="translate(-1663.706 -909.075)" fill="none"/></clipPath><linearGradient id="eq" x1="-6.279" y1="2.446" x2="-6.275" y2="2.446" xlink:href="#dt"/><clipPath id="er"><path d="M1720.942,1128.026c4.749,19.617,4.249,34.254,3.527,41.243a5.441,5.441,0,0,1-5.032,4.877c-3,.21-7.086.486-10.737.7-4.012.231-8.466-2.3-11.444-4.424a1.791,1.791,0,0,0-2.638,2.265c2.222,4.349,7.864,8.22,11.752,10.5a1.855,1.855,0,0,1-.428,3.389l-16.628,4.714c27.323,25.74,45.362-3.06,45.362-3.06,12.061-18.636,18.3-36.859,20.574-54.07-6.3-6.3-14.2-8.076-21.125-8.076a48.236,48.236,0,0,0-13.184,1.951" transform="translate(-1689.314 -1126.075)" fill="none"/></clipPath><linearGradient id="es" x1="-5.132" y1="1.112" x2="-5.129" y2="1.112" xlink:href="#o"/><clipPath id="et"><path d="M1469.327,570.892c-.521.491-21.991,42.653-21.991,42.653l24.334,11.748,26.287-36.938s-14.8-19.082-24.466-19.083a5.862,5.862,0,0,0-4.164,1.62" transform="translate(-1447.336 -569.272)" fill="none"/></clipPath><linearGradient id="eu" x1="-8.488" y1="5.551" x2="-8.482" y2="5.551" xlink:href="#o"/><clipPath id="ev"><path d="M1448.306,532.923c-2.339,7.941,9.4,13.552,16.785,14.488,5.425.688,8.4,6.608,9.6,9.7a3.89,3.89,0,0,1-.292,3.409l-12.137,20.232a3.761,3.761,0,0,1-.666.828c-1.445,1.345-6.387,5.256-10.209-.069-3.257-4.539-6.313-8.666-9.588-10.367a3.879,3.879,0,0,0-5.236,1.724,144.936,144.936,0,0,0-8.306,19.7,3.863,3.863,0,0,0,2.248,4.738c4.927,2,14.666,5.606,23.308,6.8a3.881,3.881,0,0,0,3.67-1.56c3.718-5.094,14.2-19.328,17.773-22.891,3.323-3.31,9.456-2.062,12.219-1.268a3.9,3.9,0,0,0,3.1-.407c2.8-1.689,7.7-5.894,3.22-13.014a3.885,3.885,0,0,1,1.2-5.277c3.13-2.059,6.527-5.924,3.291-12.183-3.275-6.336-9.126-6.905-13.11-6.418a4.031,4.031,0,0,1-4.229-2.352,2.567,2.567,0,0,0-2-1.578,3.768,3.768,0,0,1-3.049-4.424c.7-3.585.174-8.243-5.551-11.391a13.5,13.5,0,0,0-6.556-1.784c-7.593,0-13.646,7.129-15.48,13.358" transform="translate(-1428.073 -519.565)" fill="none"/></clipPath><linearGradient id="ew" x1="-6.777" y1="3.773" x2="-6.773" y2="3.773" xlink:href="#f"/><clipPath id="ex"><path d="M1549.528,687.621s4.705,8.314,13.919-.012c7.406-6.693,2.7-12.646-3.273-13.148q-.162-.014-.322-.014c-5.821,0-10.324,13.173-10.324,13.173" transform="translate(-1549.528 -674.448)" fill="none"/></clipPath><linearGradient id="ey" x1="-24.269" y1="11.956" x2="-24.253" y2="11.956" xlink:href="#o"/><clipPath id="ez"><path d="M256.608,1385.618l4.049,4.705a9.629,9.629,0,0,0,9.629,9.629H527.714a6.336,6.336,0,0,0,6.336-6.336,10.288,10.288,0,0,0-10.149-10.288Z" transform="translate(-256.608 -1383.328)" fill="none"/></clipPath><linearGradient id="fa" x1="-0.324" y1="0.874" x2="-0.322" y2="0.874" xlink:href="#cx"/><clipPath id="fb"><path d="M1115.371,1393.616a6.336,6.336,0,0,0,6.336,6.336h257.428a9.629,9.629,0,0,0,9.629-9.629l4.049-4.705-267.293-2.29a10.288,10.288,0,0,0-10.149,10.288" transform="translate(-1115.371 -1383.328)" fill="none"/></clipPath><linearGradient id="fc" x1="-1.409" y1="0.874" x2="-1.408" y2="0.874" xlink:href="#cx"/><clipPath id="fd"><path d="M74.194,1104.677a20.841,20.841,0,1,0,20.841-20.841,20.841,20.841,0,0,0-20.841,20.841" transform="translate(-74.194 -1083.836)" fill="none"/></clipPath><linearGradient id="fe" x1="-0.297" y1="2.216" x2="-0.291" y2="2.216" xlink:href="#dt"/><clipPath id="ff"><path d="M76.169,1105.96a20.148,20.148,0,1,0,20.147-20.148,20.148,20.148,0,0,0-20.147,20.148" transform="translate(-76.169 -1085.812)" fill="none"/></clipPath><linearGradient id="fg" x1="-0.339" y1="2.307" x2="-0.333" y2="2.307" xlink:href="#m"/><clipPath id="fi"><rect width="21.534" height="11.794" fill="none"/></clipPath><clipPath id="fj"><rect width="34.105" height="34.105" fill="none"/></clipPath><clipPath id="fk"><path d="M120.412,1110.085a1.081,1.081,0,0,0-1.081,1.081v1.855c-3.725.6-5.872,2.842-5.872,5.778,0,3.252,2.652,4.862,6.346,5.873,2.589.694,3.663,1.389,3.663,2.557,0,1.295-1.389,1.926-3.252,1.926a12.561,12.561,0,0,1-4.806-1.012,1.082,1.082,0,0,0-1.468.708l-.472,1.728a1.074,1.074,0,0,0,.593,1.268,15.122,15.122,0,0,0,5.206,1.128v1.855a1.081,1.081,0,0,0,1.081,1.081h1.09a1.081,1.081,0,0,0,1.081-1.081v-2.076c4.041-.631,6.125-3.157,6.125-5.967,0-3.063-1.7-4.768-5.809-6-2.873-.884-4.2-1.579-4.2-2.589,0-.821.631-1.736,2.841-1.736a11.249,11.249,0,0,1,4.047.734,1.079,1.079,0,0,0,1.423-.728l.433-1.6a1.075,1.075,0,0,0-.672-1.3,13.8,13.8,0,0,0-4.126-.741v-1.665a1.081,1.081,0,0,0-1.081-1.081Z" transform="translate(-113.431 -1110.085)" fill="none"/></clipPath><linearGradient id="fl" x1="-1.077" y1="4.276" x2="-1.066" y2="4.276" xlink:href="#m"/><clipPath id="fm"><path d="M199.247,1005.693a36.28,36.28,0,1,0,36.28-36.28,36.28,36.28,0,0,0-36.28,36.28" transform="translate(-199.247 -969.413)" fill="none"/></clipPath><linearGradient id="fn" x1="-0.538" y1="1.727" x2="-0.534" y2="1.727" xlink:href="#dt"/><clipPath id="fo"><path d="M202.685,1007.924a35.074,35.074,0,1,0,35.074-35.074,35.074,35.074,0,0,0-35.074,35.074" transform="translate(-202.685 -972.85)" fill="none"/></clipPath><linearGradient id="fp" x1="-0.592" y1="1.792" x2="-0.589" y2="1.792" xlink:href="#m"/><clipPath id="fr"><rect width="36.328" height="19.373" fill="none"/></clipPath><clipPath id="fs"><rect width="59.371" height="59.371" fill="none"/></clipPath><clipPath id="ft"><path d="M279.706,1015.106a1.882,1.882,0,0,0-1.882,1.882v3.23c-6.486,1.044-10.223,4.946-10.223,10.058,0,5.661,4.617,8.465,11.047,10.223,4.507,1.209,6.376,2.418,6.376,4.452,0,2.254-2.419,3.353-5.661,3.353a21.869,21.869,0,0,1-8.367-1.762,1.883,1.883,0,0,0-2.556,1.232l-.82,3.008a1.867,1.867,0,0,0,1.032,2.207,26.332,26.332,0,0,0,9.062,1.965v3.23a1.882,1.882,0,0,0,1.882,1.882h1.9a1.882,1.882,0,0,0,1.882-1.882v-3.615c7.035-1.1,10.663-5.5,10.663-10.388,0-5.332-2.968-8.3-10.113-10.443-5-1.539-7.31-2.748-7.31-4.507,0-1.429,1.1-3.023,4.946-3.023a19.592,19.592,0,0,1,7.045,1.279,1.876,1.876,0,0,0,2.477-1.267l.755-2.782a1.873,1.873,0,0,0-1.17-2.26,24.019,24.019,0,0,0-7.183-1.29v-2.9a1.882,1.882,0,0,0-1.882-1.882Z" transform="translate(-267.552 -1015.106)" fill="none"/></clipPath><linearGradient id="fu" x1="-1.548" y1="3.187" x2="-1.541" y2="3.187" xlink:href="#m"/><clipPath id="fv"><path d="M267.552,1234.663a37.332,37.332,0,1,0,37.332-37.332,37.332,37.332,0,0,0-37.332,37.332" transform="translate(-267.552 -1197.331)" fill="none"/></clipPath><linearGradient id="fw" x1="-0.746" y1="0.923" x2="-0.743" y2="0.923" xlink:href="#dt"/><clipPath id="fx"><path d="M271.089,1236.959a36.09,36.09,0,1,0,36.091-36.09,36.09,36.09,0,0,0-36.091,36.09" transform="translate(-271.089 -1200.869)" fill="none"/></clipPath><linearGradient id="fy" x1="-0.812" y1="0.945" x2="-0.808" y2="0.945" xlink:href="#m"/><clipPath id="ga"><rect width="37.336" height="19.888" fill="none"/></clipPath><clipPath id="gb"><rect width="61.092" height="61.092" fill="none"/></clipPath><clipPath id="gc"><path d="M350.342,1244.35a1.936,1.936,0,0,0-1.936,1.936v3.324c-6.673,1.074-10.52,5.09-10.52,10.35,0,5.825,4.751,8.71,11.368,10.519,4.638,1.245,6.56,2.489,6.56,4.581,0,2.319-2.488,3.45-5.825,3.45a22.5,22.5,0,0,1-8.609-1.813,1.937,1.937,0,0,0-2.63,1.268l-.844,3.1a1.922,1.922,0,0,0,1.062,2.271,27.1,27.1,0,0,0,9.325,2.022v3.323a1.936,1.936,0,0,0,1.936,1.936h1.953a1.936,1.936,0,0,0,1.936-1.936v-3.719c7.24-1.131,10.972-5.656,10.972-10.689,0-5.486-3.054-8.54-10.407-10.746-5.146-1.584-7.522-2.828-7.522-4.638,0-1.47,1.131-3.11,5.09-3.11a20.158,20.158,0,0,1,7.249,1.317,1.931,1.931,0,0,0,2.549-1.3l.777-2.863a1.927,1.927,0,0,0-1.2-2.326,24.709,24.709,0,0,0-7.391-1.327v-2.984a1.936,1.936,0,0,0-1.936-1.936Z" transform="translate(-337.836 -1244.35)" fill="none"/></clipPath><linearGradient id="gd" x1="-1.956" y1="1.395" x2="-1.949" y2="1.395" xlink:href="#m"/><clipPath id="ge"><path d="M432.462,1108.208a27.353,27.353,0,1,0,27.353-27.352,27.353,27.353,0,0,0-27.353,27.352" transform="translate(-432.462 -1080.856)" fill="none"/></clipPath><linearGradient id="gf" x1="-1.822" y1="1.737" x2="-1.817" y2="1.737" xlink:href="#dt"/><clipPath id="gg"><path d="M435.054,1109.891a26.443,26.443,0,1,0,26.443-26.443,26.443,26.443,0,0,0-26.443,26.443" transform="translate(-435.054 -1083.448)" fill="none"/></clipPath><linearGradient id="gh" x1="-2.478" y1="2.087" x2="-2.473" y2="2.087" xlink:href="#m"/><clipPath id="gj"><rect width="27.774" height="14.99" fill="none"/></clipPath><clipPath id="gk"><rect width="44.761" height="44.762" fill="none"/></clipPath><clipPath id="gl"><path d="M493.122,1115.305a1.419,1.419,0,0,0-1.419,1.419v2.435c-4.89.787-7.708,3.729-7.708,7.583,0,4.268,3.481,6.381,8.329,7.707,3.4.912,4.807,1.823,4.807,3.357,0,1.7-1.824,2.528-4.268,2.528a16.479,16.479,0,0,1-6.308-1.328,1.42,1.42,0,0,0-1.927.929l-.618,2.268a1.409,1.409,0,0,0,.778,1.664,19.864,19.864,0,0,0,6.832,1.482v2.435a1.419,1.419,0,0,0,1.419,1.419h1.431a1.419,1.419,0,0,0,1.419-1.419v-2.725c5.3-.828,8.039-4.144,8.039-7.832,0-4.019-2.237-6.257-7.624-7.873-3.771-1.161-5.511-2.072-5.511-3.4,0-1.078.829-2.279,3.73-2.279a14.776,14.776,0,0,1,5.311.964,1.415,1.415,0,0,0,1.868-.955l.569-2.1a1.411,1.411,0,0,0-.882-1.7,18.085,18.085,0,0,0-5.415-.973v-2.186a1.419,1.419,0,0,0-1.419-1.419Z" transform="translate(-483.959 -1115.305)" fill="none"/></clipPath><linearGradient id="gm" x1="-4.061" y1="3.208" x2="-4.052" y2="3.208" xlink:href="#m"/></defs><g clip-path="url(#a)"><g transform="translate(0 30.953)"><g clip-path="url(#b)"><rect width="791.97" height="476.265" transform="translate(0 0)" fill="url(#c)"/></g></g><g transform="translate(0 0.002)"><g clip-path="url(#d)"><path d="M1535.969,930.31a.758.758,0,0,0,1.389-.558c-2.778-12.149-9.037-51.273,19.939-70.07,33.778-21.913,91.973-31.416,56.318-163.8a7.53,7.53,0,0,0-11.186-4.467c-19.842,12.061-67.452,45.484-69.952,89.793-3.162,56.053,6.527,67.925,1.559,88.558-8.785,36.488-2.018,54.033,1.933,60.541" transform="translate(-992.92 -448.071)" fill="#bdd0fb"/><path d="M1481.641,753.994a.431.431,0,0,1-.843-.172c3.158-21.794,12.223-90.536,9.64-145.438-3.112-66.153-14.885-95.224-20.061-128.918s16.18-76.383,73.352-62.588c46.678,11.263,83.358,18.946,100.549,16.461a4.129,4.129,0,0,1,4.257,5.951c-9.873,19.634-36.694,64-78.9,67.526-54.339,4.544-55.1-10.334-66.545,4.094s-10.854,28.587-9.97,55.137c.853,25.583,4.445,126.493-11.48,187.946" transform="translate(-953.904 -268.862)" fill="#bdd0fb"/><path d="M1509.052,602.677a107.652,107.652,0,0,1-4.011-12.341,113.333,113.333,0,0,1-2.608-12.674,81.722,81.722,0,0,1,.085-25.963,54.325,54.325,0,0,1,3.865-12.567A44.707,44.707,0,0,1,1513.5,528a49.221,49.221,0,0,1,10.031-8.546c1.827-1.141,3.63-2.316,5.521-3.358,1.851-1.1,3.778-2.081,5.7-3.073a96.858,96.858,0,0,1,11.974-4.975,80.039,80.039,0,0,1,12.63-3.019,83.617,83.617,0,0,1,12.918-.943c4.31.009,8.6.3,12.851.706,8.506.827,16.9,2.015,25.34,2.446a109.99,109.99,0,0,0,25.222-1.42h0a.679.679,0,0,1,.251,1.334,111.689,111.689,0,0,1-25.556,2.086c-8.564-.224-17.043-1.309-25.474-1.959a102.637,102.637,0,0,0-25.1.612,77.066,77.066,0,0,0-12.113,3.052,93.766,93.766,0,0,0-11.5,4.946c-1.847.985-3.7,1.952-5.489,3.05-1.823,1.032-3.568,2.2-5.333,3.334a46.175,46.175,0,0,0-9.278,7.988,45.517,45.517,0,0,0-10.051,22.081,78.474,78.474,0,0,0-.119,24.83,120.2,120.2,0,0,0,2.415,12.32,104.93,104.93,0,0,0,3.726,11.948l.022.058a1.628,1.628,0,0,1-3.032,1.185" transform="translate(-974.551 -327.191)" fill="#dce5fe"/><path d="M1530.609,976.163a.475.475,0,0,1-.838-.433,137.236,137.236,0,0,0,7.617-54.151c-1.907-33.966-26.862-115.947,37.652-130.782,56.835-13.069,90.425-15.933,106.182-26.972a3.388,3.388,0,0,1,5.342,2.883c-.721,20.318-6.027,73.961-41.542,87.275-44.067,16.519-86.855-1.581-100.9,14.286-13.628,15.4,9.348,74.392-13.515,107.9" transform="translate(-992.92 -495.378)" fill="#bdd0fb"/><path d="M1542.32,930.9a107.779,107.779,0,0,1-.225-10.989c.1-3.649.321-7.3.7-10.938a112.314,112.314,0,0,1,4.325-21.585A86.991,86.991,0,0,1,1551.1,877a69.749,69.749,0,0,1,5.594-9.731,55.63,55.63,0,0,1,7.461-8.537l2.195-1.828c.373-.3.721-.622,1.114-.893l1.176-.815c.8-.525,1.545-1.122,2.38-1.585l2.492-1.408.624-.348.652-.294,1.3-.586a25.171,25.171,0,0,1,2.636-1.1l2.7-.922c.9-.329,1.809-.5,2.713-.755a64.577,64.577,0,0,1,11.072-1.757c7.473-.58,14.849.4,21.959,1.291,7.109.942,14.133,1.632,21.05.562a53.4,53.4,0,0,0,19.625-7.56l0,0a.61.61,0,0,1,.684,1.009,57.419,57.419,0,0,1-9.309,5.788,46.407,46.407,0,0,1-10.465,3.665,54.773,54.773,0,0,1-11.064,1.137c-3.7.007-7.35-.273-10.954-.571-3.6-.314-7.153-.664-10.68-.818a78.4,78.4,0,0,0-10.48.175,59.711,59.711,0,0,0-10.218,1.816c-.824.249-1.688.435-2.48.733l-2.409.84a21.26,21.26,0,0,0-2.342.994l-1.158.527-.579.263-.552.315-2.205,1.264c-.741.411-1.4.955-2.106,1.423l-1.042.728c-.349.241-.657.538-.987.8l-1.949,1.641a53.729,53.729,0,0,0-6.754,7.7,72.149,72.149,0,0,0-9.105,18.689c-1.071,3.342-2.027,6.736-2.791,10.185s-1.364,6.94-1.887,10.45a144.894,144.894,0,0,0-1.444,21.217v.064a1.628,1.628,0,0,1-3.251.129" transform="translate(-1000.911 -545.647)" fill="#dce5fe"/><path d="M564.849,535.059s2.14-56.116-23.5-71.511S466.684,438.056,466,357.425c-.4-47.2-1.274-67.854-1.928-76.861a5.314,5.314,0,0,1,6.357-5.6c24.421,4.964,103.7,25.091,119.6,79.625,18.849,64.651-25.172,180.47-25.172,180.47" transform="translate(-301.207 -178.404)" fill="#bdd0fb"/><path d="M532.166,339.508c1.878,1.731,3.678,3.488,5.456,5.286.892.9,1.76,1.811,2.626,2.729s1.749,1.823,2.591,2.762c1.7,1.863,3.416,3.719,5.065,5.63l2.5,2.848,2.436,2.9,2.419,2.915,2.354,2.967c1.576,1.975,3.146,3.954,4.649,5.984,3.076,4.01,5.967,8.155,8.893,12.279,2.809,4.2,5.67,8.375,8.289,12.7l2,3.221,1,1.611.956,1.639,3.807,6.566.943,1.647.892,1.676,1.783,3.351,1.784,3.352.892,1.676.839,1.7c2.2,4.567,4.529,9.04,6.506,13.768.531,1.161.98,2.355,1.457,3.538s.954,2.367,1.405,3.559l1.3,3.6.646,1.8.589,1.818,1.178,3.638,1.069,3.669c.745,2.438,1.3,4.925,1.947,7.388a211.924,211.924,0,0,1,4.928,30.085,231.852,231.852,0,0,1,.81,30.412q-.313,7.6-1.1,15.164c-.521,5.055-1.208,10.04-2.234,15.092a1.687,1.687,0,0,1-3.324-.569l.01-.073a222.611,222.611,0,0,0,2.136-29.725,255.23,255.23,0,0,0-1.415-29.79,224.913,224.913,0,0,0-5.088-29.31,188.1,188.1,0,0,0-9.3-28.167A370.13,370.13,0,0,0,567.4,388.322l-4.157-6.231c-1.36-2.1-2.858-4.095-4.274-6.154s-2.889-4.076-4.373-6.086l-2.218-3.022-2.284-2.972a292.436,292.436,0,0,0-19.253-22.966l-.024-.026a.957.957,0,0,1,1.348-1.357" transform="translate(-344.375 -220.205)" fill="#dce5fe"/><path d="M432.752,907.032c3.989,1.937-37.882-50.3-51.251-132.551-6.3-38.757-6.566-87.346-28.73-105.986-18.445-15.514-80.973-5.435-101.429-1.617a3.07,3.07,0,0,0-1.408,5.376c9.849,8.207,30.924,27.574,36.471,47.152,7.311,25.805,31.935,42.142,53.939,46.5s34.252,8.631,45.1,43.753,35.976,91.866,47.309,97.369" transform="translate(-161.509 -428.474)" fill="#bdd0fb"/><path d="M337.137,710.257a99.285,99.285,0,0,1,38.3,9.431,77.879,77.879,0,0,1,16.836,10.7,67.569,67.569,0,0,1,13.3,14.982l1.348,2.125c.445.711.823,1.461,1.237,2.19.394.736.821,1.474,1.187,2.207l1.1,2.2q2.213,4.4,4.368,8.821,4.3,8.853,8.32,17.843c5.363,11.982,10.337,24.133,14.547,36.6a.658.658,0,0,1-1.232.462l-.008-.02c-2.476-6.034-5.058-12.053-7.758-18q-4-8.953-8.2-17.814t-8.542-17.653q-2.155-4.4-4.383-8.772l-1.105-2.188c-.368-.73-.767-1.408-1.148-2.114s-.744-1.415-1.164-2.094l-1.272-2.03a66.981,66.981,0,0,0-12.569-14.412,73.972,73.972,0,0,0-7.685-5.791l-1-.67-1.028-.632c-.687-.418-1.364-.854-2.06-1.259-1.4-.789-2.8-1.6-4.247-2.31A100.089,100.089,0,0,0,356.2,715.02a104.645,104.645,0,0,0-19.1-3.706l-.035,0a.528.528,0,0,1,.072-1.053" transform="translate(-218.472 -461.014)" fill="#dce5fe"/><path d="M416.464,1131.905c2.362,1.245-13.307-25.725-14.51-49.487s-6.563-64.318-27.054-88.578-42.931-26.474-71.206-4.419c-23.563,18.379-38.261,27.654-46.88,29.378a3.257,3.257,0,0,0-2.185,4.75c5.528,10.181,21.159,33.567,47.4,31.921,33.477-2.1,74.048-23.862,86.413-5.708s10.777,28.312,11.158,36.916,1.226,36.985,16.861,45.228" transform="translate(-165.016 -632.316)" fill="#bdd0fb"/><path d="M421.982,1067.721a65.809,65.809,0,0,1,5.819-4.927c2.019-1.541,4.1-3.011,6.272-4.348a62.572,62.572,0,0,1,13.886-6.58,43.7,43.7,0,0,1,7.619-1.725,32.592,32.592,0,0,1,7.92-.034c.659.106,1.324.169,1.978.315s1.319.277,1.947.457l3.7,1.15,3.625,1.411,3.515,1.69a44.18,44.18,0,0,1,12.24,9.587,54.7,54.7,0,0,1,8.45,12.9c.564,1.15,1.134,2.3,1.588,3.49.474,1.184.986,2.355,1.428,3.549l1.237,3.61c.438,1.195.713,2.437,1.065,3.655a131.1,131.1,0,0,1,3.149,14.831.587.587,0,0,1-1.149.238l0-.019c-1.205-4.863-2.352-9.734-3.99-14.441-.745-2.379-1.682-4.678-2.552-7-.469-1.146-1-2.263-1.5-3.395-.477-1.142-1.064-2.227-1.644-3.314a55.865,55.865,0,0,0-8.359-12.007,42.812,42.812,0,0,0-11.5-8.759l-3.286-1.556-3.406-1.3-3.5-1.063c-.58-.164-1.145-.273-1.718-.414s-1.161-.19-1.74-.291a29.281,29.281,0,0,0-7.112-.021,40.8,40.8,0,0,0-7.1,1.428,68.961,68.961,0,0,0-13.556,5.729c-2.167,1.2-4.319,2.44-6.408,3.792s-4.143,2.784-6.107,4.28l-.015.011a.61.61,0,0,1-.794-.924" transform="translate(-273.779 -681.457)" fill="#dce5fe"/></g></g><g transform="translate(228.176 55.988)"><g clip-path="url(#e)"><rect width="543.456" height="520.256" transform="matrix(0.606, -0.796, 0.796, 0.606, -212.358, 278.927)" fill="url(#f)"/></g></g><g transform="translate(0 0.002)"><g clip-path="url(#d)"><path d="M983.875,265.593H763.756a16.712,16.712,0,0,0-16.646,16.6v320.37c0,8.992,7.415,15.963,16.646,15.963H983.875c9.231,0,16.783-6.971,16.783-15.963V282.192a16.831,16.831,0,0,0-16.783-16.6" transform="translate(-484.933 -172.392)" fill="#91b3fa"/></g></g><g transform="translate(331.067 178.128)"><g clip-path="url(#h)"><rect width="116.396" height="196.282" transform="translate(-0.766 0)" fill="url(#i)"/></g></g><g transform="translate(0 0.002)"><g clip-path="url(#d)"><path d="M1751.1,534.079l-135.359-12.013a10.678,10.678,0,0,1-9.734-10.577l-.5-91.265a10.678,10.678,0,0,1,11.419-10.71l144.133,10.03a10.678,10.678,0,0,1,9.895,11.6l-8.275,93.247a10.678,10.678,0,0,1-11.58,9.692" transform="translate(-1042.101 -265.791)" fill="#7d97f4"/><g transform="translate(570.447 156.738)" opacity="0.87"><g clip-path="url(#k)"><path d="M1626.467,453.182l-.9,78.8a6.6,6.6,0,0,0,5.951,6.646l129.794,12.89a6.6,6.6,0,0,0,7.231-5.987l7.477-84.258a6.6,6.6,0,0,0-6.219-7.178l-136.376-7.432a6.6,6.6,0,0,0-6.963,6.519" transform="translate(-1625.57 -446.652)" fill="#fff"/></g></g><path d="M1800.844,661.444l73.455,4.31a1.337,1.337,0,0,1,1.254,1.453l-.1,1.18a1.337,1.337,0,0,1-1.432,1.215l-73.351-5.49a1.338,1.338,0,0,1-1.232-1.452h0a1.337,1.337,0,0,1,1.41-1.217" transform="translate(-1167.97 -429.329)" fill="#7d97f4"/><path d="M1797.8,680.163l-.045.5a1.338,1.338,0,0,0,1.214,1.45l73.26,6.5a1.337,1.337,0,0,0,1.45-1.214l.045-.5a1.337,1.337,0,0,0-1.214-1.45l-73.26-6.5a1.337,1.337,0,0,0-1.45,1.214" transform="translate(-1166.879 -440.69)" fill="#7d97f4"/><path d="M1859.547,704.5l-.02.221a1.338,1.338,0,0,0,1.214,1.45l51.025,4.528a1.337,1.337,0,0,0,1.45-1.214l.092-1.037a1.337,1.337,0,0,0-1.235-1.452l-51.1-3.712a1.337,1.337,0,0,0-1.429,1.216" transform="translate(-1206.976 -456.488)" fill="#7d97f4"/></g></g><g transform="translate(517.715 100.311)"><g clip-path="url(#l)"><rect width="237.597" height="227.192" transform="translate(-66.231 51.297) rotate(-37.97)" fill="url(#m)"/></g></g><g transform="translate(527.753 113.109)"><g clip-path="url(#n)"><rect width="194.231" height="144.919" transform="translate(-20.58 3.715) rotate(-10.35)" fill="url(#o)"/></g></g><g transform="translate(603.899 198.523)"><g clip-path="url(#p)"><rect width="73.501" height="58.763" transform="translate(-2.221 1.719) rotate(-37.97)" fill="url(#q)"/></g></g><g transform="translate(603.74 206.598)"><g clip-path="url(#r)"><rect width="74.067" height="59.505" transform="translate(-2.693 2.088) rotate(-37.97)" fill="url(#s)"/></g></g><g transform="translate(629.83 214.883)"><g clip-path="url(#t)"><rect width="52.857" height="42.684" transform="matrix(0.788, -0.615, 0.615, 0.788, -2.272, 1.759)" fill="url(#u)"/></g></g><g transform="translate(470.981 64.758)"><g clip-path="url(#v)"><rect width="216.936" height="149.934" transform="translate(-0.698 0)" fill="url(#w)"/></g></g><g transform="translate(482.345 78.794)"><g clip-path="url(#x)"><rect width="195.588" height="127.589" transform="translate(-0.352 0)" fill="url(#y)"/></g></g><g transform="translate(0 0.002)"><g clip-path="url(#d)"><path d="M1630.217,260.279l95.916-2.869a1.744,1.744,0,0,1,1.8,1.743V260.7a1.744,1.744,0,0,1-1.72,1.744l-95.916,1.324a1.744,1.744,0,0,1-.076-3.487" transform="translate(-1057.041 -167.08)" fill="#7d97f4"/><path d="M1628.525,290.244v.658a1.744,1.744,0,0,0,1.744,1.744h95.916a1.744,1.744,0,0,0,1.744-1.744v-.658a1.744,1.744,0,0,0-1.744-1.744h-95.916a1.744,1.744,0,0,0-1.744,1.744" transform="translate(-1057.041 -187.261)" fill="#7d97f4"/><path d="M1560.2,488.6a.782.782,0,0,1-.782-.781l-.006-2.348a.783.783,0,0,1,.781-.784h0a.782.782,0,0,1,.783.781l.006,2.347a.783.783,0,0,1-.781.785Zm-.02-7.826a.782.782,0,0,1-.783-.781l-.006-2.348a.782.782,0,0,1,.78-.784h0a.783.783,0,0,1,.783.781l.006,2.348a.782.782,0,0,1-.781.784Zm-.02-7.826a.782.782,0,0,1-.783-.78l-.006-2.348a.783.783,0,0,1,.781-.784h0a.782.782,0,0,1,.783.781l.006,2.348a.783.783,0,0,1-.781.784Zm-.02-7.826a.782.782,0,0,1-.783-.78l-.006-2.348a.782.782,0,0,1,.78-.785h0a.783.783,0,0,1,.783.781l.006,2.348a.783.783,0,0,1-.781.784Z" transform="translate(-1012.143 -299.364)" fill="#7d97f4"/><path d="M1672.324,467.77a.782.782,0,0,1-.782-.783V464.64a.783.783,0,1,1,1.565,0v2.348a.783.783,0,0,1-.783.783m0-7.826a.783.783,0,0,1-.782-.783v-2.348a.783.783,0,1,1,1.565,0v2.348a.783.783,0,0,1-.783.783m0-7.826a.782.782,0,0,1-.782-.782v-2.348a.783.783,0,1,1,1.565,0v2.348a.782.782,0,0,1-.783.782m0-7.826a.782.782,0,0,1-.782-.783v-2.348a.783.783,0,1,1,1.565,0v2.348a.783.783,0,0,1-.783.783m0-7.826a.782.782,0,0,1-.782-.783v-2.348a.783.783,0,1,1,1.565,0v2.348a.783.783,0,0,1-.783.783" transform="translate(-1084.962 -280.764)" fill="#7d97f4"/><path d="M1754.976,459.042a.782.782,0,0,1-.782-.758l-.043-1.4a.782.782,0,0,1,.758-.807.766.766,0,0,1,.807.758l.043,1.4a.783.783,0,0,1-.758.807h-.025m-.213-6.876a.782.782,0,0,1-.782-.758l-.073-2.346a.783.783,0,0,1,1.564-.049l.073,2.347a.782.782,0,0,1-.758.806h-.025m-.243-7.822a.783.783,0,0,1-.782-.758l-.073-2.347a.783.783,0,0,1,1.564-.048l.073,2.347a.782.782,0,0,1-.758.806h-.024m-.243-7.822a.782.782,0,0,1-.782-.758l-.072-2.347a.782.782,0,0,1,1.564-.048l.073,2.347a.783.783,0,0,1-.758.806h-.025m-.242-7.822a.782.782,0,0,1-.782-.758l-.073-2.347a.783.783,0,0,1,.758-.806.762.762,0,0,1,.807.758l.073,2.347a.783.783,0,0,1-.758.806h-.025m-.243-7.822a.782.782,0,0,1-.782-.758l-.073-2.347a.783.783,0,0,1,.758-.807.774.774,0,0,1,.807.758l.073,2.346a.783.783,0,0,1-.758.807h-.025m-.243-7.822a.782.782,0,0,1-.782-.758l-.073-2.347a.783.783,0,0,1,.758-.807.773.773,0,0,1,.806.758l.073,2.346a.782.782,0,0,1-.757.807h-.025" transform="translate(-1137.636 -265.569)" fill="#7d97f4"/><path d="M1838.95,415.819a.783.783,0,0,1-.783-.783v-2.348a.783.783,0,1,1,1.565,0v2.348a.783.783,0,0,1-.782.783m0-7.826a.783.783,0,0,1-.783-.783v-2.348a.783.783,0,1,1,1.565,0v2.348a.783.783,0,0,1-.782.783m0-7.826a.783.783,0,0,1-.783-.783v-2.348a.783.783,0,1,1,1.565,0v2.348a.783.783,0,0,1-.782.783m0-7.826a.783.783,0,0,1-.783-.783v-2.348a.783.783,0,1,1,1.565,0v2.348a.783.783,0,0,1-.782.783m0-7.826a.783.783,0,0,1-.783-.783v-2.348a.783.783,0,1,1,1.565,0v2.348a.783.783,0,0,1-.782.783m0-7.826a.783.783,0,0,1-.783-.783v-2.348a.783.783,0,1,1,1.565,0v2.348a.783.783,0,0,1-.782.783m0-7.826a.783.783,0,0,1-.783-.783v-2.348a.783.783,0,1,1,1.565,0v2.348a.783.783,0,0,1-.782.783m0-7.826a.783.783,0,0,1-.783-.783V357.91a.783.783,0,1,1,1.565,0v2.348a.782.782,0,0,1-.782.783m0-7.826a.783.783,0,0,1-.783-.783v-2.348a.783.783,0,1,1,1.565,0v2.348a.783.783,0,0,1-.782.783" transform="translate(-1193.115 -226.726)" fill="#7d97f4"/><path d="M1424.872,385.6a1.174,1.174,0,0,1-1.169-1.075l-8.022-94.741a1.174,1.174,0,0,1,2.339-.2l8.022,94.741a1.173,1.173,0,0,1-1.071,1.269c-.034,0-.067,0-.1,0" transform="translate(-918.886 -187.268)" fill="#7d97f4"/><path d="M1408.317,291.9l3.63-4.3,4.3,3.632-.285-3.367-4.3-3.63-3.63,4.3Z" transform="translate(-913.924 -184.493)" fill="#7d97f4"/><path d="M1587.438,548.106H1422.365a1.174,1.174,0,0,1,0-2.348h165.073a1.174,1.174,0,0,1,0,2.348" transform="translate(-922.465 -354.242)" fill="#7d97f4"/><path d="M1881.61,545.722l3.982-3.98-3.982-3.98h3.379l3.98,3.98-3.98,3.98Z" transform="translate(-1221.313 -349.051)" fill="#7d97f4"/><path d="M1459.28,383.5a1.174,1.174,0,0,1-.154-2.338c.868-.115,87.3-11.951,134.609-46.837a1.174,1.174,0,1,1,1.393,1.889c-47.8,35.247-134.819,47.16-135.693,47.276a1.3,1.3,0,0,1-.156.009" transform="translate(-946.426 -216.853)" fill="#7d97f4"/><path d="M1832.054,339.306c-.031,0-.062,0-.093,0a1.174,1.174,0,0,1-1.078-1.262l.363-4.611-6.5-.386a1.175,1.175,0,0,1-1.1-1.241,1.162,1.162,0,0,1,1.242-1.1l7.7.456a1.173,1.173,0,0,1,1.1,1.263l-.457,5.8a1.174,1.174,0,0,1-1.169,1.082" transform="translate(-1183.686 -214.65)" fill="#7d97f4"/></g></g><g transform="translate(37.151 100.158)"><g clip-path="url(#aa)"><rect width="225.014" height="214.325" transform="matrix(0.078, -0.997, 0.997, 0.078, -18.079, 208.93)" fill="url(#ab)"/></g></g><g transform="translate(0 0.002)"><g clip-path="url(#d)"><path d="M328.271,818.692h0l-12.1,6.265a8.459,8.459,0,0,1-11.307-3.513L295.169,803.3a.347.347,0,0,1,.142-.47.351.351,0,0,1,.47.143l9.694,18.145a7.763,7.763,0,0,0,10.376,3.223l12.1-6.265a.347.347,0,0,1,.32.615" transform="translate(-191.561 -521.077)" fill="#fff"/><path d="M284.177,781.987a.347.347,0,0,1-.467-.144l-1.57-2.938a.347.347,0,0,1,.143-.47h0a.347.347,0,0,1,.467.143l1.57,2.939a.347.347,0,0,1-.142.47h0" transform="translate(-183.105 -505.241)" fill="#fff"/><path d="M119.47,343.115c13.724-5.1,60.6-23.242,95.488-45.471a3.355,3.355,0,0,1,4.679,1.089l80.156,132.593a3.862,3.862,0,0,1-1.286,5.292c-14.818,9.08-75.967,46.246-99.7,55.9a3.059,3.059,0,0,1-3.841-1.381L117.546,348.247a3.629,3.629,0,0,1,1.925-5.132" transform="translate(-76.011 -192.853)" fill="#91b3fa"/><path d="M128.93,354.32c13.207-4.909,58.315-22.367,91.892-43.759a3.229,3.229,0,0,1,4.5,1.048l77.138,127.6a3.716,3.716,0,0,1-1.238,5.092c-14.26,8.738-73.106,44.5-95.948,53.795a2.944,2.944,0,0,1-3.7-1.329l-74.5-137.509a3.492,3.492,0,0,1,1.853-4.939" transform="translate(-82.208 -201.25)" fill="#bdd0fb"/></g></g><g transform="translate(62.585 119.519)"><g clip-path="url(#ad)"><rect width="82.037" height="43.59" transform="translate(-0.184 0)" fill="url(#ae)"/></g></g><g transform="translate(65.389 124.767)"><g clip-path="url(#af)"><rect width="82.037" height="43.59" transform="translate(-0.184)" fill="url(#ag)"/></g></g><g transform="translate(0 0.002)"><g clip-path="url(#d)"><path d="M259.647,563.388l-.028.017L249.2,569.277a3.242,3.242,0,0,1-4.244-.738l-5.922-8.166a2.207,2.207,0,0,1-.378-1.7,2.652,2.652,0,0,1,1.146-1.715c.84-.563,1.984-1.36,3.243-2.236,2.741-1.908,5.848-4.07,7.754-5.2l.042-.025a3.363,3.363,0,0,1,4.063.386c1.693,1.687,3.824,5.493,6.042,9.577a2.984,2.984,0,0,1-1.3,3.928m-19.3-5.619a1.672,1.672,0,0,0-.73,1.075,1.242,1.242,0,0,0,.207.956l5.922,8.166a2.271,2.271,0,0,0,2.975.461l10.416-5.873.02-.012a2.009,2.009,0,0,0,.933-2.618c-2.182-4.018-4.273-7.757-5.874-9.352a2.414,2.414,0,0,0-2.918-.213c-1.875,1.113-5.1,3.359-7.7,5.163-1.264.88-2.413,1.68-3.256,2.246" transform="translate(-154.884 -356.343)" fill="#fff"/></g></g><g transform="translate(86.307 195.363)"><g clip-path="url(#ai)"><rect width="17.829" height="16.054" transform="translate(-0.233 0)" fill="url(#aj)"/></g></g><g transform="translate(108.436 163.274)"><g clip-path="url(#ak)"><rect width="57.435" height="34.055" transform="translate(-0.198)" fill="url(#al)"/></g></g><g transform="translate(88.057 189.096)"><g clip-path="url(#am)"><rect width="20.237" height="12.798" transform="matrix(0.007, -1, 1, 0.007, -0.378, 20.148)" fill="url(#an)"/></g></g><g transform="translate(0 0.002)"><g clip-path="url(#d)"><path d="M224.2,495.567l-.029.017-10.416,5.873a3.242,3.242,0,0,1-4.244-.738l-5.922-8.166a2.211,2.211,0,0,1-.378-1.7,2.654,2.654,0,0,1,1.146-1.715c.839-.563,1.984-1.36,3.243-2.236,2.741-1.908,5.848-4.07,7.754-5.2l.042-.025a3.364,3.364,0,0,1,4.063.386c1.693,1.687,3.824,5.493,6.042,9.577a2.984,2.984,0,0,1-1.3,3.928m-19.3-5.619a1.672,1.672,0,0,0-.73,1.075,1.24,1.24,0,0,0,.207.956l5.922,8.166a2.271,2.271,0,0,0,2.975.461l10.416-5.873.02-.012a2.008,2.008,0,0,0,.933-2.618c-2.182-4.018-4.273-7.757-5.873-9.352a2.415,2.415,0,0,0-2.919-.213c-1.875,1.113-5.1,3.359-7.7,5.163-1.264.88-2.413,1.68-3.256,2.246" transform="translate(-131.876 -312.321)" fill="#fff"/></g></g><g transform="translate(73.867 171.563)"><g clip-path="url(#ap)"><rect width="17.829" height="16.054" transform="translate(-0.233 0)" fill="url(#aq)"/></g></g><g transform="translate(95.996 139.475)"><g clip-path="url(#ar)"><rect width="57.435" height="34.055" transform="translate(-0.198)" fill="url(#as)"/></g></g><g transform="translate(75.617 165.296)"><g clip-path="url(#at)"><rect width="20.237" height="12.798" transform="translate(-0.378 20.148) rotate(-89.598)" fill="url(#au)"/></g></g><g transform="translate(0 0.002)"><g clip-path="url(#d)"><path d="M296.123,626.651l-.028.016-10.416,5.873a3.242,3.242,0,0,1-4.244-.738l-5.922-8.166a2.21,2.21,0,0,1-.378-1.7,2.653,2.653,0,0,1,1.146-1.715c.84-.563,1.984-1.36,3.243-2.236,2.741-1.908,5.848-4.07,7.754-5.2l.042-.025a3.362,3.362,0,0,1,4.063.386c1.693,1.686,3.824,5.493,6.042,9.577a2.984,2.984,0,0,1-1.3,3.928m-19.3-5.619a1.672,1.672,0,0,0-.73,1.075,1.241,1.241,0,0,0,.207.956l5.922,8.166a2.27,2.27,0,0,0,2.975.461l10.416-5.873.02-.012a2.008,2.008,0,0,0,.933-2.617c-2.182-4.018-4.273-7.757-5.873-9.351a2.429,2.429,0,0,0-2.919-.213c-1.875,1.113-5.1,3.359-7.7,5.163-1.264.88-2.413,1.68-3.256,2.246" transform="translate(-178.561 -397.405)" fill="#fff"/></g></g><g transform="translate(99.108 217.564)"><g clip-path="url(#aw)"><rect width="17.829" height="16.053" transform="translate(-0.233 0)" fill="url(#ax)"/></g></g><g transform="translate(121.237 185.475)"><g clip-path="url(#ay)"><rect width="57.435" height="34.055" transform="translate(-0.198)" fill="url(#az)"/></g></g><g transform="translate(100.857 211.297)"><g clip-path="url(#ba)"><rect width="20.237" height="12.798" transform="matrix(0.007, -1, 1, 0.007, -0.378, 20.148)" fill="url(#bb)"/></g></g><g transform="translate(107.86 236.743)"><g clip-path="url(#bc)"><rect width="23.127" height="21.117" transform="translate(-0.072)" fill="url(#bd)"/></g></g><g transform="translate(0 0.002)"><g clip-path="url(#d)"><g transform="translate(110.43 239.439)" opacity="0.6"><g clip-path="url(#bf)"><path d="M315.458,688.616c2.09-1.4,6.543-4.61,8.77-5.932a2.315,2.315,0,0,1,2.807.229c1.356,1.351,3.138,4.575,4.761,7.563a1.989,1.989,0,0,1-.913,2.627l-8.324,4.693a2.207,2.207,0,0,1-2.885-.479l-4.732-6.525a1.552,1.552,0,0,1,.516-2.176" transform="translate(-314.685 -682.32)" fill="#fff"/></g></g></g></g><g transform="translate(132.559 207.352)"><g clip-path="url(#bg)"><rect width="57.435" height="34.055" transform="translate(-0.198)" fill="url(#bh)"/></g></g><g transform="translate(112.179 233.173)"><g clip-path="url(#bi)"><rect width="21.304" height="14.59" transform="matrix(0.099, -0.995, 0.995, 0.099, -2.222, 19.952)" fill="url(#bj)"/></g></g><g transform="translate(0 0.002)"><g clip-path="url(#d)"><path d="M361.155,753.594l-.028.016-10.416,5.873a3.242,3.242,0,0,1-4.244-.738l-5.922-8.166a2.209,2.209,0,0,1-.378-1.7,2.653,2.653,0,0,1,1.146-1.715c.839-.563,1.984-1.36,3.243-2.236,2.741-1.908,5.848-4.07,7.754-5.2a3.4,3.4,0,0,1,4.105.361c1.693,1.687,3.824,5.493,6.042,9.577a2.984,2.984,0,0,1-1.3,3.928m-19.3-5.619a1.669,1.669,0,0,0-.73,1.075,1.239,1.239,0,0,0,.207.956l5.922,8.166a2.27,2.27,0,0,0,2.975.461l10.416-5.873.02-.012a2.008,2.008,0,0,0,.932-2.617c-2.182-4.018-4.273-7.757-5.873-9.352a2.459,2.459,0,0,0-2.918-.213c-1.876,1.113-5.1,3.359-7.7,5.163-1.264.88-2.413,1.68-3.256,2.246" transform="translate(-220.771 -479.808)" fill="#fff"/></g></g><g transform="translate(121.929 262.103)"><g clip-path="url(#bl)"><rect width="17.829" height="16.054" transform="translate(-0.233)" fill="url(#bm)"/></g></g><g transform="translate(144.058 230.014)"><g clip-path="url(#bn)"><rect width="57.435" height="34.055" transform="translate(-0.198 0)" fill="url(#bo)"/></g></g><g transform="translate(123.678 255.836)"><g clip-path="url(#bp)"><rect width="20.237" height="12.798" transform="translate(-0.378 20.148) rotate(-89.598)" fill="url(#bq)"/></g></g><g transform="translate(75.835 104.752)"><g clip-path="url(#br)"><rect width="21.225" height="22.999" transform="translate(-3.441 17.579) rotate(-80.354)" fill="url(#bs)"/></g></g><g transform="translate(77.52 105.871)"><g clip-path="url(#bt)"><rect width="6.641" height="12.664" transform="translate(-0.464 0)" fill="url(#bu)"/></g></g><g transform="translate(68.549 110.107)"><g clip-path="url(#bv)"><rect width="33.413" height="47.587" transform="translate(-4.7 26.112) rotate(-80.869)" fill="url(#bw)"/></g></g><g transform="translate(79.008 123.509)"><g clip-path="url(#bx)"><rect width="2.246" height="1.52" transform="translate(-0.049 0)" fill="url(#by)"/></g></g><g transform="translate(70.444 124.814)"><g clip-path="url(#bz)"><rect width="8.256" height="9.932" transform="translate(-0.118 0)" fill="url(#ca)"/></g></g><g transform="translate(58.107 108.59)"><g clip-path="url(#cb)"><rect width="42.245" height="69.907" transform="matrix(0.008, -1, 1, 0.008, -0.813, 41.682)" fill="url(#cc)"/></g></g><g transform="translate(0 0.002)"><g clip-path="url(#d)"><path d="M891.686,94.582s.159-.266.467-.746a.586.586,0,0,1,1.052.139c.251-.068.537-.143.852-.219a.586.586,0,0,1,.277,1.139c-.887.215-1.513.408-1.814.5-.087.027-.146.045-.177.053l-1.4.377Zm2.126-3.2c.561-.792,1.15-1.593,1.753-2.381a.586.586,0,1,1,.931.713c-.593.776-1.174,1.565-1.727,2.345a.586.586,0,0,1-.817.14.594.594,0,0,1-.119-.112.587.587,0,0,1-.021-.7m2.685,2.466a.586.586,0,0,1,.5-.665,29.346,29.346,0,0,1,2.979-.286.586.586,0,1,1,.051,1.171,28.23,28.23,0,0,0-2.861.275.586.586,0,0,1-.665-.5m5.847-.363a.587.587,0,0,1,.632-.537,19.648,19.648,0,0,1,2.983.47.586.586,0,0,1-.275,1.14,18.323,18.323,0,0,0-2.8-.441.587.587,0,0,1-.536-.632m-4.942-6.8c.631-.766,1.277-1.522,1.92-2.246a.586.586,0,0,1,.877.779c-.634.714-1.27,1.458-1.891,2.213a.586.586,0,0,1-.905-.745m10.656,8a.586.586,0,0,1,.777-.291,14.045,14.045,0,0,1,1.906,1.05q.354.233.694.439a.587.587,0,1,1-.609,1q-.359-.218-.731-.463a12.894,12.894,0,0,0-1.746-.962.586.586,0,0,1-.291-.777m7.983,8.3a.586.586,0,0,1,.622-.135,4.346,4.346,0,0,1,1.761-.119.586.586,0,1,1-.127,1.165,2.6,2.6,0,0,0-1.889.367l-.747-.9ZM913.2,97.5a.587.587,0,0,1,.762-.327,10.576,10.576,0,0,0,2.673.71.587.587,0,0,1-.138,1.165,11.76,11.76,0,0,1-2.971-.786.586.586,0,0,1-.327-.762M901.327,82.269c.685-.714,1.388-1.418,2.09-2.091a.586.586,0,0,1,.812.846c-.69.662-1.382,1.354-2.056,2.056a.586.586,0,1,1-.846-.812M918.094,100.9c.786-.814,1.461-1.529,2.007-2.126a.586.586,0,1,1,.866.791c-.553.6-1.235,1.328-2.029,2.15a.587.587,0,0,1-.829.014.631.631,0,0,1-.051-.056.586.586,0,0,1,.036-.773m2.561,2.9a.586.586,0,0,1,.707-.433c.835.2,1.755.409,2.823.576A.586.586,0,1,1,924,105.1c-1.11-.173-2.058-.388-2.918-.594a.587.587,0,0,1-.433-.707M918.9,98.418a.586.586,0,0,1,.4-.723,7.33,7.33,0,0,0,1.988-.936,5.075,5.075,0,0,1,.446-.261,1.534,1.534,0,0,1,.165-.069.572.572,0,0,1,.727.373.6.6,0,0,1-.383.752c-.086.042-.2.113-.332.2a8.482,8.482,0,0,1-2.293,1.071.586.586,0,0,1-.724-.405m-13.3-20.24c.665-.582,1.343-1.149,2.013-1.685l.263-.209a.587.587,0,0,1,.822.094v0a.586.586,0,0,1-.1.824l-.259.206c-.657.525-1.321,1.082-1.974,1.652a.586.586,0,0,1-.827-.055l-.017-.02a.586.586,0,0,1,.072-.807m20.823,26.6a.587.587,0,0,1,.611-.56,27.924,27.924,0,0,0,2.868-.025.586.586,0,1,1,.069,1.17,29.174,29.174,0,0,1-2.988.027.586.586,0,0,1-.56-.611m5.846-.219a.586.586,0,0,1,.493-.667q.3-.045.615-.1a19.376,19.376,0,0,0,2.177-.488.587.587,0,0,1,.321,1.128,20.671,20.671,0,0,1-2.308.517q-.321.053-.633.1a.586.586,0,0,1-.666-.494M910.108,75.327a.586.586,0,0,1,.142-.817c.82-.578,1.654-1.126,2.478-1.633a.586.586,0,1,1,.614,1c-.8.494-1.617,1.03-2.417,1.593a.586.586,0,0,1-.795-.113l-.022-.029m27.822,27.779a.586.586,0,0,1,.289-.777,18.775,18.775,0,0,0,2.485-1.374.586.586,0,0,1,.643.98,20,20,0,0,1-2.641,1.461.587.587,0,0,1-.7-.167.576.576,0,0,1-.076-.123M915.064,72.2a.587.587,0,0,1,.248-.791c.89-.465,1.794-.894,2.688-1.277a.587.587,0,1,1,.461,1.079c-.866.37-1.743.787-2.607,1.238a.587.587,0,0,1-.729-.153.6.6,0,0,1-.062-.1m27.9,27.024a20.642,20.642,0,0,0,1.992-2.036.586.586,0,0,1,.893.76,21.715,21.715,0,0,1-2.106,2.152.586.586,0,0,1-.828-.049l-.02-.024a.586.586,0,0,1,.069-.8M920.415,69.818a.585.585,0,0,1,.374-.74c.954-.313,1.921-.581,2.876-.8a.586.586,0,1,1,.259,1.143c-.918.208-1.85.467-2.769.768a.585.585,0,0,1-.74-.374M946.649,94.9a12.472,12.472,0,0,0,1.23-2.348l.186-1.284a.586.586,0,1,1,1.16.169l-.182,1.254-.01,0a12.43,12.43,0,0,1-1.4,2.841.586.586,0,1,1-.989-.63M926.1,68.422a.587.587,0,0,1,.512-.652,27.875,27.875,0,0,1,2.985-.2.587.587,0,1,1,.013,1.173,26.445,26.445,0,0,0-2.858.188.586.586,0,0,1-.652-.512m5.845-.193a.587.587,0,0,1,.642-.526,27.586,27.586,0,0,1,2.956.458.586.586,0,1,1-.242,1.148,26.4,26.4,0,0,0-2.829-.438.587.587,0,0,1-.526-.641m16.542,20.136.421-2.9a.587.587,0,0,1,1.161.168l-.421,2.9a.587.587,0,0,1-1.161-.168m-10.8-19.056a.586.586,0,0,1,.738-.378c.926.3,1.866.653,2.791,1.053a.586.586,0,1,1-.465,1.076c-.892-.386-1.8-.726-2.686-1.013a.586.586,0,0,1-.378-.738m11.638,13.253.421-2.9a.586.586,0,1,1,1.161.168l-.421,2.9a.586.586,0,0,1-1.161-.168M943.1,71.525a.586.586,0,0,1,.794-.236c.85.461,1.709.972,2.556,1.521a.586.586,0,0,1-.638.984c-.82-.532-1.654-1.028-2.476-1.474a.586.586,0,0,1-.236-.795m4.96,3.105a.586.586,0,0,1,.821-.115c.752.567,1.511,1.176,2.257,1.812l.246.21-.056.391a.587.587,0,0,1-1.119.148c-.673-.569-1.356-1.115-2.033-1.625a.57.57,0,0,1-.1-.1.587.587,0,0,1-.01-.719" transform="translate(-578.295 -43.862)" fill="#7d97f4"/></g></g><g transform="translate(334.231 32.235)"><g clip-path="url(#ce)"><rect width="28.026" height="39.737" transform="translate(-4.009 20.755) rotate(-79.068)" fill="url(#cf)"/></g></g><g transform="translate(0 0.002)"><g clip-path="url(#d)"><path d="M1046.406,153.909s-1.552,12.66-5.579,14.232c-3.83,1.5-32.591-1.091-35.389-1.347a.238.238,0,0,1-.216-.244,3.267,3.267,0,0,1,1.374-2.624c4.113-2.925,16.47-11.551,21.043-12.961,5.522-1.7,18.766,2.943,18.766,2.943" transform="translate(-652.469 -97.747)" fill="#7d97f4"/><path d="M1035.185,177.293a.292.292,0,0,0,.207.109c.159.011,15.935,1.156,22.745,1.384A3.063,3.063,0,0,0,1061,177.06a45.563,45.563,0,0,0,3.2-8.695.293.293,0,0,0-.571-.136,44.934,44.934,0,0,1-3.156,8.575,2.476,2.476,0,0,1-2.314,1.4c-6.8-.228-22.563-1.371-22.721-1.383a.293.293,0,0,0-.25.475" transform="translate(-671.874 -109.05)" fill="#91b3fa"/><path d="M1048.128,47.842s-1.224-12.7-5.208-14.372c-3.79-1.594-32.608.248-35.412.431a.238.238,0,0,0-.222.238,3.268,3.268,0,0,0,1.306,2.658c4.036,3.03,16.166,11.973,20.7,13.5,5.476,1.845,18.836-2.457,18.836-2.457" transform="translate(-653.807 -21.308)" fill="#7d97f4"/><path d="M1037.184,37.651a.294.294,0,0,0,.243.111c.159-.008,15.947-.743,22.75-.794a2.478,2.478,0,0,1,2.278,1.455,45.013,45.013,0,0,1,2.932,8.654.293.293,0,1,0,.573-.121,44.7,44.7,0,0,0-2.971-8.775,3.065,3.065,0,0,0-2.816-1.8c-6.814.052-22.614.788-22.773.8a.293.293,0,0,0-.216.475" transform="translate(-673.173 -23.615)" fill="#91b3fa"/></g></g><g transform="translate(367.668 23.693)"><g clip-path="url(#ch)"><rect width="79.992" height="72.27" transform="matrix(0.804, -0.595, 0.595, 0.804, -17.633, 12.722)" fill="url(#ci)"/></g></g><g transform="translate(436.774 27.209)"><g clip-path="url(#cj)"><rect width="36.989" height="38.214" transform="matrix(0.83, -0.558, 0.558, 0.83, -13.587, 9.135)" fill="url(#ck)"/></g></g><g transform="translate(0 0.002)"><g clip-path="url(#d)"><path d="M1171.436,84.944c-6.11-.079-11.132,5.173-11.217,11.731s4.8,11.938,10.91,12.017,11.132-5.173,11.217-11.731-4.8-11.938-10.91-12.017" transform="translate(-753.073 -55.137)" fill="#bdd0fb"/></g></g><g transform="translate(409.707 31.893)"><g clip-path="url(#cm)"><rect width="19.216" height="18.011" transform="translate(-0.313 18.983) rotate(-89.255)" fill="url(#cn)"/></g></g><g transform="translate(0 0.002)"><g clip-path="url(#d)"><path d="M1196.952,119.131a.293.293,0,0,0,.311.1,7.4,7.4,0,0,0,5.177-7.035,7.714,7.714,0,0,0-.351-2.406.293.293,0,1,0-.559.175,7.1,7.1,0,0,1,.323,2.223,6.811,6.811,0,0,1-4.755,6.479.293.293,0,0,0-.2.364.286.286,0,0,0,.052.1" transform="translate(-776.875 -71.13)" fill="#91b3fa"/><path d="M1114.97,95.608a7.865,7.865,0,1,0,7.207,7.939,7.591,7.591,0,0,0-7.207-7.939" transform="translate(-718.893 -62.058)" fill="#bdd0fb"/></g></g><g transform="translate(390.359 34.928)"><g clip-path="url(#cp)"><rect width="12.695" height="11.899" transform="translate(-0.207 12.541) rotate(-89.255)" fill="url(#cq)"/></g></g><g transform="translate(0 0.002)"><g clip-path="url(#d)"><path d="M1131.564,118.07a.293.293,0,0,0,.311.1,4.989,4.989,0,0,0,3.492-4.741,5.149,5.149,0,0,0-.237-1.621.293.293,0,1,0-.559.176,4.584,4.584,0,0,1,.209,1.437,4.4,4.4,0,0,1-3.07,4.186.293.293,0,0,0-.2.364.29.29,0,0,0,.052.1" transform="translate(-734.432 -72.439)" fill="#91b3fa"/><path d="M861.944,140.8l-3.846.942a.67.67,0,1,1-.319-1.3l.043-.011,3.75-.933.047-.012a.678.678,0,1,1,.327,1.315Z" transform="translate(-556.434 -90.526)" fill="#7d97f4"/><path d="M839.91,145.438l-3.93.425a.656.656,0,1,1-.141-1.305l.038,0,3.848-.43.041,0a.664.664,0,0,1,.147,1.319Z" transform="translate(-542.145 -93.544)" fill="#7d97f4"/><path d="M817.609,147.2l-3.943-.029a.642.642,0,0,1,.01-1.284h.031l3.875.015h.035a.649.649,0,0,1,0,1.3Z" transform="translate(-527.72 -94.696)" fill="#7d97f4"/><path d="M795.342,145.814l-3.919-.413a.628.628,0,0,1,.132-1.249l.025,0,3.864.393.029,0a.635.635,0,1,1-.128,1.263Z" transform="translate(-513.331 -93.565)" fill="#7d97f4"/><path d="M773.286,142.455l-3.867-.734a.613.613,0,1,1,.228-1.205l.02,0,3.824.711.024,0a.621.621,0,1,1-.227,1.221Z" transform="translate(-499.09 -91.2)" fill="#7d97f4"/><path d="M751.552,137.454l-3.8-1a.6.6,0,0,1,.3-1.159l.016,0,3.768.976.019,0a.606.606,0,0,1-.3,1.174Z" transform="translate(-485.058 -87.806)" fill="#7d97f4"/><path d="M730.188,131.084l-3.733-1.222a.585.585,0,0,1,.364-1.112l.013,0,3.707,1.2.015,0a.592.592,0,0,1-.364,1.127Z" transform="translate(-471.265 -83.552)" fill="#7d97f4"/><path d="M709.207,123.563l-3.664-1.41a.571.571,0,0,1,.409-1.065l.011,0,3.644,1.387.013,0a.578.578,0,0,1-.411,1.08Z" transform="translate(-457.715 -78.572)" fill="#7d97f4"/><path d="M688.6,115.063l-3.6-1.57a.556.556,0,1,1,.445-1.019l.009,0,3.581,1.548.011,0a.563.563,0,1,1-.447,1.034Z" transform="translate(-444.408 -72.976)" fill="#7d97f4"/><path d="M668.37,105.722l-3.532-1.708a.542.542,0,1,1,.472-.976l.007,0,3.52,1.687.009,0a.549.549,0,0,1-.474.991Z" transform="translate(-431.333 -66.847)" fill="#7d97f4"/><path d="M648.489,95.652l-3.47-1.829a.528.528,0,1,1,.492-.933l.006,0,3.461,1.808.008,0a.535.535,0,1,1-.5.948Z" transform="translate(-418.485 -60.255)" fill="#7d97f4"/><path d="M628.945,84.937,625.534,83a.513.513,0,1,1,.506-.893l0,0,3.405,1.916.007,0a.52.52,0,0,1-.51.907Z" transform="translate(-405.852 -53.253)" fill="#7d97f4"/><path d="M609.708,73.637,606.35,71.61a.506.506,0,0,1,.523-.866l.005,0,3.348,2.017.006,0a.508.508,0,0,1-.524.871Z" transform="translate(-393.41 -45.872)" fill="#7d97f4"/><path d="M590.772,61.822l-3.3-2.114a.5.5,0,1,1,.541-.846l0,0,3.3,2.1.005,0a.5.5,0,1,1-.542.85Z" transform="translate(-381.163 -38.157)" fill="#7d97f4"/><path d="M572.139,49.538l-3.251-2.194a.5.5,0,1,1,.558-.826l0,0,3.243,2.184.005,0a.5.5,0,1,1-.559.83Z" transform="translate(-369.111 -30.141)" fill="#7d97f4"/><path d="M553.81,36.82l-3.2-2.267a.494.494,0,1,1,.572-.807l0,0,3.19,2.257,0,0a.5.5,0,1,1-.573.81Z" transform="translate(-357.256 -21.847)" fill="#7d97f4"/><path d="M535.181,24.6l-3.339-1.98-.027-.016a.49.49,0,0,1,.5-.844l3.394,2.009a.492.492,0,0,1-.5.847h0Z" transform="translate(-345.034 -14.08)" fill="#7d97f4"/><path d="M515.3,14.708l-3.563-1.541-.028-.012a.486.486,0,0,1,.386-.893l3.622,1.562a.488.488,0,0,1-.387.9h0Z" transform="translate(-331.947 -7.935)" fill="#7d97f4"/><path d="M494.321,7.42l-3.73-1.077-.029-.008a.482.482,0,0,1,.267-.927l3.79,1.09a.484.484,0,1,1-.268.931h0Z" transform="translate(-318.187 -3.499)" fill="#7d97f4"/><path d="M472.59,2.847l-3.836-.6-.03,0a.479.479,0,0,1,.146-.946l3.9.6a.481.481,0,1,1-.147.95h0Z" transform="translate(-303.976 -0.842)" fill="#7d97f4"/><path d="M450.455,1.061l-3.88-.107h-.03A.475.475,0,0,1,446.57,0l3.941.1a.477.477,0,1,1-.025.953h-.031Z" transform="translate(-289.543 -0.005)" fill="#7d97f4"/><path d="M428.272,1.361l-3.863.386-.03,0a.471.471,0,0,1-.094-.937l3.922-.4a.473.473,0,0,1,.1.941h0Z" transform="translate(-275.119 -0.271)" fill="#7d97f4"/><path d="M406.395,4.283l-3.783.873-.029.007a.467.467,0,1,1-.211-.91l3.84-.891a.469.469,0,0,1,.212.914h0Z" transform="translate(-260.937 -2.176)" fill="#7d97f4"/><path d="M385.181,9.982l-3.642,1.347-.028.01a.463.463,0,0,1-.322-.868l3.7-1.371a.465.465,0,1,1,.323.872h0Z" transform="translate(-247.226 -5.889)" fill="#7d97f4"/><path d="M365.013,18.366,361.594,20.2l-.03.016a.459.459,0,0,1-.434-.809l3.477-1.866a.461.461,0,0,1,.436.812h0Z" transform="translate(-234.245 -11.349)" fill="#7d97f4"/><path d="M346.351,29.555l-3.141,2.281-.023.017a.455.455,0,0,1-.535-.737l3.186-2.318a.457.457,0,0,1,.538.739h0Z" transform="translate(-222.286 -18.638)" fill="#7d97f4"/><path d="M329.354,43.179l-2.843,2.646-.019.018a.451.451,0,0,1-.615-.66l2.88-2.685a.453.453,0,1,1,.618.663h0Z" transform="translate(-211.426 -27.507)" fill="#7d97f4"/><path d="M314.134,58.8l-2.523,2.957-.017.019a.447.447,0,0,1-.681-.58l2.554-3a.449.449,0,1,1,.684.583h0Z" transform="translate(-201.738 -37.672)" fill="#7d97f4"/><path d="M300.865,76.129,298.7,79.356l-.015.022a.443.443,0,0,1-.737-.494l2.192-3.273a.445.445,0,0,1,.74.5h0Z" transform="translate(-193.343 -48.951)" fill="#7d97f4"/><path d="M289.806,94.963l-1.756,3.465-.013.025a.44.44,0,0,1-.785-.4l1.778-3.517a.442.442,0,0,1,.788.4h0Z" transform="translate(-186.418 -61.207)" fill="#7d97f4"/><path d="M281.322,115.117l-1.273,3.667-.011.03a.436.436,0,0,1-.823-.286l1.29-3.727a.438.438,0,0,1,.827.287h0Z" transform="translate(-181.217 -74.325)" fill="#7d97f4"/><path d="M275.9,136.372l-.7,3.813-.006.035a.432.432,0,0,1-.849-.155l.707-3.884a.434.434,0,1,1,.853.155h0Z" transform="translate(-178.067 -88.163)" fill="#7d97f4"/><path d="M274.107,158.367l-.024,3.871v.04a.428.428,0,0,1-.856,0l.021-3.951a.43.43,0,1,1,.859,0h0Z" transform="translate(-177.346 -102.488)" fill="#7d97f4"/><path d="M275.071,180.536l.725,3.8.008.042a.424.424,0,0,1-.833.159l-.745-3.883a.426.426,0,1,1,.836-.16h0Z" transform="translate(-177.99 -116.932)" fill="#7d97f4"/><path d="M280.339,202.089l1.48,3.574.017.039a.42.42,0,0,1-.776.322l-1.517-3.652a.422.422,0,1,1,.779-.324h0Z" transform="translate(-181.424 -130.978)" fill="#7d97f4"/><path d="M290.042,222.046A19.7,19.7,0,0,0,292.478,225a.416.416,0,0,1-.586.592,20.492,20.492,0,0,1-2.542-3.075.418.418,0,1,1,.692-.47Z" transform="translate(-187.764 -144.007)" fill="#7d97f4"/><path d="M305.736,237.456a16.462,16.462,0,0,0,3.44,1.639.413.413,0,0,1-.266.781,17.322,17.322,0,0,1-3.614-1.718.414.414,0,1,1,.44-.7Z" transform="translate(-198.034 -154.088)" fill="#7d97f4"/><path d="M326.492,244.516a18.12,18.12,0,0,0,3.82-.019.409.409,0,0,1,.089.812,18.936,18.936,0,0,1-3.993.023.411.411,0,1,1,.083-.817Z" transform="translate(-211.625 -158.698)" fill="#7d97f4"/><path d="M348.362,239.442a21.26,21.26,0,0,0,3.54-1.475.4.4,0,0,1,.377.717,22.1,22.1,0,0,1-3.674,1.534.407.407,0,1,1-.244-.776Z" transform="translate(-225.929 -154.431)" fill="#7d97f4"/><path d="M367.9,227.12a23.1,23.1,0,0,0,2.837-2.588.4.4,0,0,1,.588.545,23.914,23.914,0,0,1-2.933,2.681.4.4,0,1,1-.492-.638Z" transform="translate(-238.692 -145.657)" fill="#7d97f4"/><path d="M382.9,209.478l.975-1.661a18.989,18.989,0,0,0,.89-1.71l.012-.024a.4.4,0,0,1,.71.355,19.771,19.771,0,0,1-.915,1.762l-1.006,1.716a.4.4,0,0,1-.687-.4h0Z" transform="translate(-248.48 -133.624)" fill="#7d97f4"/><path d="M392.151,188.642a21.887,21.887,0,0,0,.729-3.773.393.393,0,1,1,.782.079,22.65,22.65,0,0,1-.751,3.91.4.4,0,1,1-.76-.215Z" transform="translate(-254.527 -119.767)" fill="#7d97f4"/><path d="M392.985,166.72a19.774,19.774,0,0,0-.712-3.765.389.389,0,0,1,.747-.218,20.463,20.463,0,0,1,.744,3.913.391.391,0,1,1-.779.071Z" transform="translate(-254.606 -105.449)" fill="#7d97f4"/><path d="M384.369,146.551a22.475,22.475,0,0,0-2.032-3.261.385.385,0,0,1,.617-.461,23.216,23.216,0,0,1,2.1,3.371.387.387,0,0,1-.69.352Z" transform="translate(-248.117 -92.608)" fill="#7d97f4"/><path d="M369.518,130.293a27.721,27.721,0,0,0-2.94-2.5.382.382,0,0,1,.452-.614,28.465,28.465,0,0,1,3.024,2.562.383.383,0,1,1-.536.548Z" transform="translate(-237.837 -82.505)" fill="#7d97f4"/><path d="M350.737,118.683a32.916,32.916,0,0,0-3.483-1.677.378.378,0,0,1,.287-.7,33.546,33.546,0,0,1,3.565,1.712.379.379,0,1,1-.369.663Z" transform="translate(-225.243 -75.476)" fill="#7d97f4"/><path d="M329.69,111.66c-1.238-.36-2.519-.594-3.775-.9l-.029-.007a.383.383,0,1,1,.18-.745h0c1.276.313,2.562.563,3.83.927a.376.376,0,0,1-.2.723Z" transform="translate(-211.335 -71.4)" fill="#7d97f4"/><path d="M307.7,108.2l-3.869-.373-.026,0a.4.4,0,0,1,.078-.806h0l3.918.4a.394.394,0,0,1-.078.784Z" transform="translate(-196.958 -69.466)" fill="#7d97f4"/><path d="M285.441,107.412l-3.888.1h-.024a.427.427,0,0,1-.021-.853h0l3.936-.075a.416.416,0,0,1,.018.831Z" transform="translate(-182.451 -69.18)" fill="#7d97f4"/><path d="M263.249,108.5l-3.853.525-.024,0a.448.448,0,1,1-.121-.889h0l3.9-.51a.438.438,0,0,1,.116.867Z" transform="translate(-168.023 -69.86)" fill="#7d97f4"/><path d="M241.392,112.01l-3.775.931-.024.006a.47.47,0,1,1-.225-.913h0l3.828-.922a.459.459,0,0,1,.218.892Z" transform="translate(-153.838 -72.114)" fill="#7d97f4"/><path d="M220.116,117.826l-3.652,1.328-.025.009a.492.492,0,1,1-.336-.924h0l3.71-1.326a.481.481,0,0,1,.326.9Z" transform="translate(-140.057 -75.869)" fill="#7d97f4"/><path d="M199.7,125.921l-3.476,1.73-.027.014a.513.513,0,1,1-.458-.919h0l3.539-1.737a.5.5,0,0,1,.446.9Z" transform="translate(-126.865 -81.108)" fill="#7d97f4"/><path d="M180.5,136.347l-3.234,2.14-.026.017a.535.535,0,1,1-.591-.892l0,0,3.3-2.156a.524.524,0,0,1,.576.876Z" transform="translate(-114.505 -87.866)" fill="#7d97f4"/><path d="M162.714,149.048l-3,2.474-.02.016a.557.557,0,1,1-.709-.859l0,0,3.051-2.491a.546.546,0,0,1,.693.844Z" transform="translate(-103.065 -96.107)" fill="#7d97f4"/><path d="M146.233,163.521l-2.777,2.722-.016.015a.578.578,0,1,1-.81-.826l0,0,2.824-2.738a.568.568,0,0,1,.792.813Z" transform="translate(-92.466 -105.498)" fill="#7d97f4"/><path d="M130.943,179.319l-2.58,2.916-.013.015a.6.6,0,0,1-.9-.794l0,0,2.621-2.932a.589.589,0,0,1,.88.783Z" transform="translate(-82.63 -115.749)" fill="#7d97f4"/><path d="M116.741,196.161l-2.4,3.071-.011.014a.62.62,0,1,1-.977-.762l0,0,2.433-3.086a.61.61,0,0,1,.959.752Z" transform="translate(-73.493 -126.678)" fill="#7d97f4"/><path d="M103.556,213.845l-2.222,3.2-.009.014a.64.64,0,0,1-1.052-.73l0,0,2.258-3.216a.63.63,0,0,1,1.033.721Z" transform="translate(-65.011 -138.153)" fill="#7d97f4"/><path d="M91.342,232.236l-2.054,3.311-.009.014a.661.661,0,1,1-1.123-.7l0,0,2.089-3.328a.65.65,0,0,1,1.1.689Z" transform="translate(-57.156 -150.088)" fill="#7d97f4"/><path d="M80.079,251.243l-1.887,3.409-.008.015a.681.681,0,1,1-1.192-.66l0,0,1.921-3.428a.671.671,0,0,1,1.172.653Z" transform="translate(-49.919 -162.422)" fill="#7d97f4"/><path d="M69.783,270.8l-1.715,3.5-.008.016a.7.7,0,0,1-1.26-.618v0l1.749-3.521a.691.691,0,0,1,1.24.612Z" transform="translate(-43.312 -175.117)" fill="#7d97f4"/><path d="M60.5,290.866l-1.532,3.581-.008.018a.722.722,0,0,1-1.328-.568v0l1.566-3.609a.712.712,0,0,1,1.307.563Z" transform="translate(-37.372 -188.142)" fill="#7d97f4"/><path d="M52.33,311.4,51,315.063l-.008.021a.742.742,0,0,1-1.4-.506v0l1.362-3.694a.732.732,0,0,1,1.375.5Z" transform="translate(-32.165 -201.476)" fill="#7d97f4"/><path d="M45.43,332.392l-1.089,3.732-.008.026a.763.763,0,0,1-1.464-.427v0l1.123-3.777a.752.752,0,0,1,1.444.425Z" transform="translate(-27.806 -215.109)" fill="#7d97f4"/><path d="M40.071,353.806l-.793,3.8-.006.027a.782.782,0,0,1-1.532-.316c.263-1.289.551-2.573.826-3.859a.773.773,0,1,1,1.512.323Z" transform="translate(-24.485 -229.024)" fill="#7d97f4"/><path d="M36.638,375.631l-.455,3.849,0,.037a.774.774,0,0,1-1.538-.18l.456-3.924a.778.778,0,0,1,1.546.18h0Z" transform="translate(-22.481 -243.228)" fill="#7d97f4"/><path d="M35.334,397.773l-.065,3.874v.041a.767.767,0,0,1-1.533-.024l.059-3.955a.77.77,0,1,1,1.541.023h0Z" transform="translate(-21.897 -257.653)" fill="#7d97f4"/><path d="M35.691,420l.357,3.854,0,.042a.759.759,0,0,1-1.511.141l-.373-3.938a.763.763,0,0,1,1.518-.144h0Z" transform="translate(-22.176 -272.14)" fill="#7d97f4"/><path d="M38.387,442.06l.792,3.786.009.042a.751.751,0,0,1-1.47.309l-.818-3.869a.755.755,0,0,1,1.477-.312h0Z" transform="translate(-23.941 -286.516)" fill="#7d97f4"/><path d="M43.578,463.653l1.221,3.672.013.04a.743.743,0,0,1-1.41.47l-1.255-3.75a.747.747,0,1,1,1.417-.474h0Z" transform="translate(-27.332 -300.59)" fill="#7d97f4"/><path d="M51.2,484.533l1.622,3.517.016.036a.736.736,0,0,1-1.335.617l-1.662-3.586a.739.739,0,1,1,1.342-.622h0Z" transform="translate(-32.305 -314.199)" fill="#7d97f4"/><path d="M61.055,504.463l1.979,3.333.018.031a.728.728,0,0,1-1.251.745l-2.023-3.391a.732.732,0,1,1,1.257-.75h0Z" transform="translate(-38.734 -327.185)" fill="#7d97f4"/><path d="M72.888,523.3l2.287,3.135.019.026a.72.72,0,0,1-1.163.85L71.7,524.127a.724.724,0,0,1,1.168-.856h0Z" transform="translate(-46.448 -339.454)" fill="#7d97f4"/><path d="M86.405,540.977l2.546,2.934.018.021a.713.713,0,0,1-1.076.935L85.306,541.9a.716.716,0,1,1,1.08-.941h0Z" transform="translate(-55.255 -350.964)" fill="#7d97f4"/><path d="M101.326,557.5l2.757,2.738.017.017a.7.7,0,0,1-.992,1l-2.8-2.766a.709.709,0,0,1,1-1.008h0Z" transform="translate(-64.973 -361.719)" fill="#7d97f4"/><path d="M117.39,572.908l2.933,2.556.016.014a.7.7,0,0,1-.915,1.052l-2.97-2.578a.7.7,0,1,1,.919-1.059h0Z" transform="translate(-75.431 -371.743)" fill="#7d97f4"/><path d="M134.4,587.285l3.076,2.388.014.011a.689.689,0,0,1-.844,1.09l-3.11-2.4a.693.693,0,0,1,.848-1.1h0Z" transform="translate(-86.502 -381.094)" fill="#7d97f4"/><path d="M152.186,600.711l3.194,2.233.013.009a.682.682,0,0,1-.78,1.118l-3.224-2.245a.685.685,0,1,1,.783-1.125h0Z" transform="translate(-98.072 -389.824)" fill="#7d97f4"/><path d="M170.6,613.306l3.265,2.157a.674.674,0,1,1-.74,1.127l-3.273-2.154a.678.678,0,0,1,.745-1.132Z" transform="translate(-110.052 -398.012)" fill="#7d97f4"/><path d="M189.262,625.581l3.276,2.141a.666.666,0,0,1-.727,1.116l-3.281-2.135a.67.67,0,0,1,.731-1.123Z" transform="translate(-122.173 -405.982)" fill="#7d97f4"/><path d="M207.959,637.779l3.275,2.142a.658.658,0,1,1-.72,1.1l-3.278-2.134a.662.662,0,1,1,.721-1.111Z" transform="translate(-134.317 -413.9)" fill="#7d97f4"/><path d="M226.629,650.005l3.263,2.161a.651.651,0,1,1-.72,1.084l-3.262-2.152a.654.654,0,0,1,.716-1.1Z" transform="translate(-146.44 -421.836)" fill="#7d97f4"/><path d="M245.2,662.365l3.238,2.2a.643.643,0,0,1-.722,1.064l0,0-3.234-2.187,0,0a.647.647,0,0,1,.725-1.072Z" transform="translate(-158.501 -429.856)" fill="#7d97f4"/><path d="M263.622,674.968l3.2,2.257a.635.635,0,0,1-.732,1.038l0,0-3.2-2.243-.005,0a.639.639,0,1,1,.734-1.046Z" transform="translate(-170.458 -438.033)" fill="#7d97f4"/><path d="M281.807,687.911l3.151,2.328a.627.627,0,1,1-.746,1.009l-.006,0-3.142-2.312-.006,0a.631.631,0,1,1,.748-1.017Z" transform="translate(-182.262 -446.43)" fill="#7d97f4"/><path d="M299.676,701.286l3.088,2.419a.62.62,0,0,1-.764.976l-.007,0-3.077-2.4-.008-.006a.624.624,0,0,1,.767-.983Z" transform="translate(-193.859 -455.105)" fill="#7d97f4"/><path d="M317.181,715.161l3.026,2.487a.612.612,0,0,1-.777.945l0,0-3.019-2.472-.006,0a.616.616,0,0,1,.78-.953Z" transform="translate(-205.222 -464.107)" fill="#7d97f4"/><path d="M334.338,729.44l2.957,2.578a.6.6,0,0,1-.794.911l-.007-.006-2.947-2.559-.008-.006a.608.608,0,0,1,.8-.918Z" transform="translate(-216.358 -473.368)" fill="#7d97f4"/><path d="M351.052,744.262l2.857,2.693a.6.6,0,1,1-.818.868l-.009-.008-2.843-2.669-.009-.009a.6.6,0,0,1,.822-.876Z" transform="translate(-227.204 -482.98)" fill="#7d97f4"/><path d="M367.141,759.766l2.722,2.834a.589.589,0,1,1-.849.816L369,763.4l-2.7-2.8-.011-.012a.593.593,0,0,1,.853-.823Z" transform="translate(-237.641 -493.031)" fill="#7d97f4"/><path d="M382.4,776.1l2.544,3a.581.581,0,1,1-.886.752l-.012-.014-2.525-2.964-.013-.015a.585.585,0,0,1,.89-.759Z" transform="translate(-247.537 -503.617)" fill="#7d97f4"/><path d="M396.566,793.389l2.314,3.184a.573.573,0,1,1-.927.674l-.013-.018-2.293-3.141-.014-.019a.577.577,0,0,1,.932-.68Z" transform="translate(-256.725 -514.819)" fill="#7d97f4"/><path d="M409.337,811.74l2.022,3.381a.565.565,0,1,1-.97.58l-.014-.023-2-3.329-.014-.023a.569.569,0,0,1,.976-.586Z" transform="translate(-265.005 -526.705)" fill="#7d97f4"/><path d="M420.344,831.2,422,834.775a.551.551,0,0,1-1,.465l-.013-.028-1.647-3.512-.013-.028a.561.561,0,0,1,1.017-.477Z" transform="translate(-272.141 -539.303)" fill="#7d97f4"/><path d="M429.212,851.755l1.224,3.748a.529.529,0,0,1-1.005.332l-.011-.031-1.224-3.679-.01-.031a.54.54,0,1,1,1.025-.341Z" transform="translate(-277.909 -552.616)" fill="#7d97f4"/><path d="M435.567,873.223l.744,3.873a.508.508,0,0,1-1,.194l-.006-.032-.753-3.8-.006-.033a.518.518,0,1,1,1.017-.2Z" transform="translate(-282.05 -566.519)" fill="#7d97f4"/><path d="M439.16,895.327l.242,3.938a.486.486,0,0,1-.97.062l0-.031-.26-3.874,0-.032a.5.5,0,1,1,.992-.067Z" transform="translate(-284.405 -580.837)" fill="#7d97f4"/><path d="M439.362,917.712l-.286,3.924a.465.465,0,0,1-.927-.065v-.024l.261-3.875,0-.027a.475.475,0,0,1,.949.064Z" transform="translate(-284.392 -595.339)" fill="#7d97f4"/><path d="M436.633,939.991l-.64,3.88a.443.443,0,0,1-.875-.142l0-.019.613-3.845,0-.019a.454.454,0,1,1,.9.143Z" transform="translate(-282.423 -609.787)" fill="#7d97f4"/><path d="M431.928,961.989l-1,3.806a.421.421,0,0,1-.816-.212l.006-.022.967-3.768.006-.021a.432.432,0,0,1,.837.215Z" transform="translate(-279.169 -624.057)" fill="#7d97f4"/><path d="M424.83,983.468l-1.482,3.657a.4.4,0,0,1-.741-.3l.012-.031,1.437-3.6.012-.029a.41.41,0,1,1,.762.3Z" transform="translate(-274.287 -637.983)" fill="#7d97f4"/><path d="M414.177,1003.857a26.391,26.391,0,0,1-2.256,3.264.378.378,0,0,1-.587-.477,25.658,25.658,0,0,0,2.173-3.181.389.389,0,1,1,.672.392Z" transform="translate(-266.933 -651.203)" fill="#7d97f4"/><path d="M397.758,1021.043a13.044,13.044,0,0,1-3.487,1.984.357.357,0,0,1-.251-.668,12.332,12.332,0,0,0,3.283-1.893.367.367,0,1,1,.457.576Z" transform="translate(-255.6 -662.312)" fill="#7d97f4"/></g></g><g transform="translate(338.127 353.209)"><g clip-path="url(#cs)"><rect width="47.139" height="97.993" transform="translate(-4.617 34.245) rotate(-82.321)" fill="url(#ct)"/></g></g><g transform="translate(422.963 278.481)"><g clip-path="url(#cu)"><rect width="92.024" height="106.253" transform="matrix(0.999, -0.039, 0.039, 0.999, -4.022, 0.157)" fill="url(#cv)"/></g></g><g transform="translate(6.029 279.723)"><g clip-path="url(#cw)"><rect width="296.57" height="223.576" transform="translate(-1.663 0)" fill="url(#cx)"/></g></g><g transform="translate(23.612 288.835)"><g clip-path="url(#cy)"><rect width="322.586" height="338.131" transform="matrix(0.577, -0.816, 0.816, 0.577, -97.491, 136.292)" fill="url(#cz)"/></g></g><g transform="translate(457.963 279.723)"><g clip-path="url(#da)"><rect width="296.57" height="223.576" fill="url(#db)"/></g></g><g transform="translate(466.843 288.835)"><g clip-path="url(#dc)"><rect width="269.534" height="204.479" transform="translate(0)" fill="url(#dd)"/></g></g><g transform="translate(227.108 284.744)"><g clip-path="url(#de)"><rect width="76.692" height="76.293" transform="matrix(0.7, -0.714, 0.714, 0.7, -34.031, 34.726)" fill="url(#df)"/></g></g><g transform="translate(248.396 283.677)"><g clip-path="url(#dg)"><rect width="112.73" height="89.258" transform="translate(0 0)" fill="url(#dh)"/></g></g><g transform="translate(358.393 275.432)"><g clip-path="url(#di)"><rect width="17.486" height="37.029" transform="translate(-1.641 12.871) rotate(-82.733)" fill="url(#dj)"/></g></g><g transform="translate(350.264 277.108)"><g clip-path="url(#dk)"><rect width="67.172" height="22.083" transform="translate(0 0)" fill="url(#dl)"/></g></g><g transform="translate(108.287 269.126)"><g clip-path="url(#dm)"><rect width="278.576" height="268.116" transform="translate(-118.114 141.123) rotate(-52.832)" fill="url(#dn)"/></g></g><g transform="translate(196.669 227.84)"><g clip-path="url(#do)"><rect width="77.717" height="74.44" transform="matrix(0.525, -0.851, 0.851, 0.525, -26.945, 43.694)" fill="url(#dp)"/></g></g><g transform="translate(213.862 331.978)"><g clip-path="url(#dq)"><rect width="138.96" height="181.574" transform="translate(-29.465 65.613) rotate(-65.816)" fill="url(#dr)"/></g></g><g transform="translate(176.767 323.505)"><g clip-path="url(#ds)"><rect width="35.719" height="42.152" transform="translate(-0.162 0)" fill="url(#dt)"/></g></g><g transform="translate(185.255 279.765)"><g clip-path="url(#du)"><rect width="60.915" height="51.719" transform="translate(-0.169 0)" fill="url(#dv)"/></g></g><g transform="translate(206.886 204.805)"><g clip-path="url(#dw)"><rect width="82.445" height="82.252" transform="translate(-31.938 32.239) rotate(-47.045)" fill="url(#dx)"/></g></g><g transform="translate(188.819 179.554)"><g clip-path="url(#dy)"><rect width="104.317" height="103.321" transform="translate(-36.776 26.778) rotate(-37.837)" fill="url(#dz)"/></g></g><g transform="translate(207.584 228.059)"><g clip-path="url(#ea)"><rect width="24.706" height="24.668" transform="translate(-13.34 9.558) rotate(-47.045)" fill="url(#eb)"/></g></g><g transform="translate(336.422 381.284)"><g clip-path="url(#ec)"><rect width="31.028" height="31.261" transform="translate(-8.457 3.47) rotate(-22.306)" fill="url(#ed)"/></g></g><g transform="translate(503.902 271.079)"><g clip-path="url(#ee)"><rect width="281.916" height="264.983" transform="translate(-94.572 173.499) rotate(-61.97)" fill="url(#ef)"/></g></g><g transform="translate(517.061 239.074)"><g clip-path="url(#eg)"><rect width="54.41" height="44.44" transform="translate(0 0)" fill="url(#eh)"/></g></g><g transform="translate(0 0.002)"><g clip-path="url(#d)"><path d="M1556.841,1037.951a2.755,2.755,0,0,0-1.74,3.938l35.894,68.826a2.754,2.754,0,0,0,3.207,1.373l117.412-33.9a2.754,2.754,0,0,0,1.882-3.411l-20.225-70.016a2.755,2.755,0,0,0-3.349-1.9Z" transform="translate(-1009.179 -650.878)" fill="#bdd0fb"/></g></g><g transform="translate(553.02 348.041)"><g clip-path="url(#ej)"><rect width="152.232" height="114.991" transform="translate(-0.418)" fill="url(#ek)"/></g></g><g transform="translate(562.401 353.263)"><g clip-path="url(#el)"><rect width="163.111" height="138.042" transform="translate(-23.662 5.193) rotate(-12.571)" fill="url(#em)"/></g></g><g transform="translate(584.622 283.677)"><g clip-path="url(#en)"><rect width="144.58" height="129.52" transform="matrix(0.47, -0.883, 0.883, 0.47, -49.596, 93.159)" fill="url(#eo)"/></g></g><g transform="translate(583.83 319.014)"><g clip-path="url(#ep)"><rect width="89.182" height="73.783" transform="matrix(0.47, -0.883, 0.883, 0.47, -32.825, 61.471)" fill="url(#eq)"/></g></g><g transform="translate(592.816 395.164)"><g clip-path="url(#er)"><rect width="111.109" height="100.458" transform="matrix(0.461, -0.887, 0.887, 0.461, -37.226, 71.589)" fill="url(#es)"/></g></g><g transform="translate(507.901 199.77)"><g clip-path="url(#et)"><rect width="59.324" height="54.303" transform="translate(-3.79 55.763) rotate(-86.112)" fill="url(#eu)"/></g></g><g transform="translate(501.141 182.326)"><g clip-path="url(#ev)"><rect width="73.879" height="84.743" transform="translate(-0.431 -0.001)" fill="url(#ew)"/></g></g><g transform="translate(543.762 236.678)"><g clip-path="url(#ex)"><rect width="22.384" height="22.23" transform="translate(-0.923 21.447) rotate(-87.535)" fill="url(#ey)"/></g></g><g transform="translate(90.049 485.439)"><g clip-path="url(#ez)"><rect width="277.723" height="22.253" transform="translate(-0.337 0.007) rotate(-1.163)" fill="url(#fa)"/></g></g><g transform="translate(391.408 485.439)"><g clip-path="url(#fb)"><rect width="277.723" height="22.253" transform="matrix(1, -0.02, 0.02, 1, -0.337, 0.007)" fill="url(#fc)"/></g></g><g transform="translate(26.036 380.341)"><g clip-path="url(#fd)"><rect width="58.784" height="58.784" transform="matrix(0.653, -0.758, 0.758, 0.653, -20.611, 23.924)" fill="url(#fe)"/></g></g><g transform="translate(26.729 381.035)"><g clip-path="url(#ff)"><rect width="55.842" height="55.842" transform="translate(-18.547 28.019) rotate(-56.498)" fill="url(#fg)"/></g></g><g transform="translate(0 0.002)"><g clip-path="url(#d)"><g transform="translate(29.481 381.8)" opacity="0.6"><g clip-path="url(#fi)"><path d="M84.792,1099.79a.783.783,0,0,1-.7-1.135A19.3,19.3,0,0,1,101.406,1088a19.59,19.59,0,0,1,3.5.314.783.783,0,0,1-.28,1.54,17.994,17.994,0,0,0-3.215-.289,17.741,17.741,0,0,0-15.915,9.8.782.782,0,0,1-.7.43" transform="translate(-84.01 -1087.996)" fill="#fff"/></g></g><g transform="translate(30.263 384.567)" opacity="0.6"><g clip-path="url(#fj)"><path d="M120.345,1112.935a17.053,17.053,0,1,1-17.053-17.052,17.053,17.053,0,0,1,17.053,17.052" transform="translate(-86.24 -1095.883)" fill="#fff"/></g></g></g></g><g transform="translate(39.805 389.553)"><g clip-path="url(#fk)"><rect width="30.026" height="26.374" transform="matrix(0.512, -0.859, 0.859, 0.512, -11.456, 19.063)" fill="url(#fl)"/></g></g><g transform="translate(69.92 340.188)"><g clip-path="url(#fm)"><rect width="102.333" height="102.333" transform="translate(-35.881 41.647) rotate(-49.254)" fill="url(#fn)"/></g></g><g transform="translate(71.126 341.394)"><g clip-path="url(#fo)"><rect width="97.213" height="97.213" transform="translate(-32.287 48.776) rotate(-56.498)" fill="url(#fp)"/></g></g><g transform="translate(0 0.002)"><g clip-path="url(#d)"><g transform="translate(76.496 343.306)" opacity="0.6"><g clip-path="url(#fr)"><path d="M218.77,997.678a.783.783,0,0,1-.7-1.135,33.02,33.02,0,0,1,29.62-18.237,33.476,33.476,0,0,1,5.981.538.783.783,0,1,1-.28,1.54,31.891,31.891,0,0,0-5.7-.513,31.463,31.463,0,0,0-28.223,17.378.782.782,0,0,1-.7.43" transform="translate(-217.987 -978.306)" fill="#fff"/></g></g><g transform="translate(77.279 347.544)" opacity="0.6"><g clip-path="url(#fs)"><path d="M279.588,1020.067A29.685,29.685,0,1,1,249.9,990.382a29.685,29.685,0,0,1,29.685,29.685" transform="translate(-220.217 -990.382)" fill="#fff"/></g></g></g></g><g transform="translate(93.89 356.222)"><g clip-path="url(#ft)"><rect width="52.271" height="45.914" transform="translate(-19.943 33.186) rotate(-59.22)" fill="url(#fu)"/></g></g><g transform="translate(93.89 420.169)"><g clip-path="url(#fv)"><rect width="105.299" height="105.299" transform="translate(-36.921 42.855) rotate(-49.254)" fill="url(#fw)"/></g></g><g transform="translate(95.131 421.411)"><g clip-path="url(#fx)"><rect width="100.03" height="100.03" transform="translate(-33.222 50.189) rotate(-56.498)" fill="url(#fy)"/></g></g><g transform="translate(0 0.002)"><g clip-path="url(#d)"><g transform="translate(100.679 423.401)" opacity="0.6"><g clip-path="url(#ga)"><path d="M287.681,1226.435a.773.773,0,0,1-.352-.084.782.782,0,0,1-.346-1.051,33.956,33.956,0,0,1,30.458-18.753,34.447,34.447,0,0,1,6.151.553.783.783,0,0,1-.28,1.54,32.872,32.872,0,0,0-5.871-.528,32.4,32.4,0,0,0-29.061,17.893.781.781,0,0,1-.7.43" transform="translate(-286.898 -1206.547)" fill="#fff"/></g></g><g transform="translate(101.462 427.739)" opacity="0.6"><g clip-path="url(#gb)"><path d="M350.221,1249.455a30.546,30.546,0,1,1-30.546-30.546,30.546,30.546,0,0,1,30.546,30.546" transform="translate(-289.129 -1218.909)" fill="#fff"/></g></g></g></g><g transform="translate(118.554 436.669)"><g clip-path="url(#gc)"><rect width="53.785" height="47.245" transform="matrix(0.512, -0.859, 0.859, 0.512, -20.52, 34.147)" fill="url(#gd)"/></g></g><g transform="translate(151.76 379.295)"><g clip-path="url(#ge)"><rect width="77.152" height="77.152" transform="translate(-27.052 31.399) rotate(-49.254)" fill="url(#gf)"/></g></g><g transform="translate(152.67 380.205)"><g clip-path="url(#gg)"><rect width="60.135" height="60.135" transform="translate(-7.746 1.16) rotate(-8.517)" fill="url(#gh)"/></g></g><g transform="translate(0 0.002)"><g clip-path="url(#d)"><g transform="translate(156.526 381.454)" opacity="0.6"><g clip-path="url(#gj)"><path d="M446.824,1102a.773.773,0,0,1-.352-.084.782.782,0,0,1-.346-1.051,25.085,25.085,0,0,1,22.5-13.855,25.4,25.4,0,0,1,4.544.409.783.783,0,0,1-.281,1.54,23.84,23.84,0,0,0-4.263-.384,23.529,23.529,0,0,0-21.106,13,.782.782,0,0,1-.7.43" transform="translate(-446.042 -1087.011)" fill="#fff"/></g></g><g transform="translate(157.308 384.841)" opacity="0.6"><g clip-path="url(#gk)"><path d="M493.033,1119.045a22.381,22.381,0,1,1-22.381-22.381,22.381,22.381,0,0,1,22.381,22.381" transform="translate(-448.272 -1096.664)" fill="#fff"/></g></g></g></g><g transform="translate(169.831 391.384)"><g clip-path="url(#gl)"><rect width="39.408" height="34.615" transform="matrix(0.512, -0.859, 0.859, 0.512, -15.035, 25.02)" fill="url(#gm)"/></g></g><g transform="translate(0 0.002)"><g clip-path="url(#d)"><path d="M1731.985,674.539a1.808,1.808,0,0,1,.347-3.5c8.626-1.119,21.269-4.5,25.41-14.617,6.5-15.88-6.96-77.108,54.859-88.063,57.025-10.106,88.785,7.94,88.063,60.634-.7,51.076-82.783,75.024-168.679,45.55" transform="translate(-1123.401 -367.167)" fill="#91b3fa"/><rect width="5.531" height="43.282" transform="translate(652.584 250.805)" fill="#bdd0fb"/><rect width="5.531" height="28.407" transform="translate(661.826 265.68)" fill="#bdd0fb"/><rect width="5.531" height="65.17" transform="translate(671.068 228.917)" fill="#bdd0fb"/><rect width="5.531" height="15.656" transform="translate(680.311 278.431)" fill="#bdd0fb"/><rect width="5.531" height="56.457" transform="translate(689.553 237.63)" fill="#bdd0fb"/><rect width="5.531" height="46.682" transform="translate(698.795 247.405)" fill="#bdd0fb"/><rect width="5.531" height="36.057" transform="translate(708.037 258.03)" fill="#bdd0fb"/><rect width="5.531" height="78.345" transform="translate(717.28 215.742)" fill="#bdd0fb"/><rect width="5.531" height="70.057" transform="translate(726.522 224.03)" fill="#bdd0fb"/><rect width="5.531" height="57.52" transform="translate(735.765 236.568)" fill="#bdd0fb"/><rect width="5.531" height="14.203" transform="translate(745.007 279.884)" fill="#bdd0fb"/></g></g></g></svg>