<svg xmlns="http://www.w3.org/2000/svg" xmlns:xlink="http://www.w3.org/1999/xlink" width="774.031" height="501.17" viewBox="0 0 774.031 501.17"><defs><clipPath id="a"><rect width="774.031" height="501.17" fill="none"/></clipPath><clipPath id="b"><path d="M607.878,0C462.3.135,257.336,151.232,214.832,182.365c0,0-161.573,91.464-204.874,152.288-29.664,41.669,13.522,40.126,43.665,35.022a8.148,8.148,0,0,1,7.532,13.366c-18.862,21.751-45.622,57.386-40.489,79.468,7.792,33.524,155.1,10.465,216.57-6.811s181.313.22,272.224,23.944,193.955-50.907,227.8-78.535c27.853-22.735,36.343-63.39,9.963-69.758a16.609,16.609,0,0,1-11.116-22.739c18-41.981,48.523-126.1,12.37-142.938-23.82-11.094-50.718-4.436-71.954,5.238-7.973,3.632-15.649-5.578-10.607-12.742,29.674-42.162,55.362-114.924,22.582-136.58C665.585,6.45,638.2.035,608.329,0Z" transform="translate(0 0.001)" fill="none"/></clipPath><linearGradient id="c" x1="0.024" y1="0.996" x2="0.025" y2="0.996" gradientUnits="objectBoundingBox"><stop offset="0" stop-color="#dae3fe"/><stop offset="1" stop-color="#e9effd"/></linearGradient><clipPath id="e"><path d="M1870.923,420.321c-11.568,55.1-24.017,131.13-17.635,180.41l2.036-.263c-6.345-48.992,6.072-124.769,17.605-179.711,12.507-59.581,26.7-108.177,26.844-108.661l-1.97-.578c-.142.485-14.356,49.146-26.88,108.8" transform="translate(-1851.554 -311.518)" fill="none"/></clipPath><linearGradient id="f" x1="-1.792" y1="2.741" x2="-1.791" y2="2.741" gradientUnits="objectBoundingBox"><stop offset="0" stop-color="#4042e2"/><stop offset="1" stop-color="#4f52ff"/></linearGradient><clipPath id="h"><path d="M1913.7,869.032c-.118.99-12.256,99.948-53.653,185.25a1.271,1.271,0,1,0,2.288,1.11c41.582-85.682,53.772-185.065,53.891-186.059a1.272,1.272,0,0,0-1.113-1.413,1.246,1.246,0,0,0-.153-.009,1.272,1.272,0,0,0-1.26,1.122" transform="translate(-1859.922 -867.91)" fill="none"/></clipPath><linearGradient id="i" x1="-2.989" y1="1.587" x2="-2.987" y2="1.587" xlink:href="#f"/><clipPath id="j"><path d="M2113.52,684.587a.607.607,0,0,0,.062.857c.087.076,8.827,7.778,11.931,22.547,5.213,24.8-9.269,50-22.336,66.767a.608.608,0,1,0,.959.747c23.96-30.755,25.5-53.826,22.566-67.764-3.188-15.166-11.954-22.894-12.326-23.216a.607.607,0,0,0-.857.062" transform="translate(-2103.049 -684.377)" fill="none"/></clipPath><linearGradient id="k" x1="-26.673" y1="2.848" x2="-26.66" y2="2.848" xlink:href="#c"/><clipPath id="m"><path d="M1051.681,1073.106l-11.42,102.421h132.494L1155.5,1073.106Z" transform="translate(-1040.261 -1073.106)" fill="none"/></clipPath><linearGradient id="n" x1="-2.645" y1="1.162" x2="-2.643" y2="1.162" gradientUnits="objectBoundingBox"><stop offset="0" stop-color="#09005d"/><stop offset="1" stop-color="#1a0f91"/></linearGradient><clipPath id="o"><path d="M465.8,282.339A25.865,25.865,0,0,0,440.513,308.2v234.57a35.584,35.584,0,0,0,34.667,35.574c85.676,2.21,385.331,7.566,466.889,6.364a26.183,26.183,0,0,0,25.778-25.437c1.573-54.494,4.127-185.533-5.325-246.37A26.944,26.944,0,0,0,936.759,290.1c-63.913-2.045-322.731-8.049-436.265-8.049-13.987,0-25.754.091-34.695.292" transform="translate(-440.513 -282.047)" fill="none"/></clipPath><linearGradient id="p" x1="-0.232" y1="1.144" x2="-0.232" y2="1.144" gradientUnits="objectBoundingBox"><stop offset="0" stop-color="#09005d"/><stop offset="0.658" stop-color="#140a7f"/><stop offset="1" stop-color="#1a0f91"/></linearGradient><clipPath id="q"><path d="M482.321,323.833V546.69a20.617,20.617,0,0,0,20.309,20.615l454.8,5.619a20.066,20.066,0,0,0,20.365-19.988l.761-220.867a14.675,14.675,0,0,0-14.318-14.725l-465.626-9.407q-.2,0-.4,0a15.9,15.9,0,0,0-15.892,15.9" transform="translate(-482.321 -307.933)" fill="none"/></clipPath><linearGradient id="r" x1="-0.29" y1="0.976" x2="-0.289" y2="0.976" xlink:href="#f"/><clipPath id="t"><rect width="500.291" height="9.897" fill="none"/></clipPath><clipPath id="u"><path d="M1120.561,1342l-186.939,5.833c-3.867.121-7.123,2.294-7.871,5.253l-2.488,9.84c-1.019,4.028,2.938,7.779,8.206,7.779h193.913c5.353,0,9.328-3.865,8.163-7.937l-4.486-15.674c-.855-2.99-4.259-5.1-8.159-5.1-.112,0-.225,0-.338.005" transform="translate(-923.102 -1341.999)" fill="none"/></clipPath><linearGradient id="v" x1="-3.269" y1="0.57" x2="-3.266" y2="0.57" xlink:href="#n"/><clipPath id="x"><path d="M143.215,810.5c-4.742.555-8.469,4.979-8.871,10.535-3.346,46.369-1.938,147.59-1.3,183.578.133,7.486,5.218,13.546,11.613,13.86,30.7,1.506,99.516-.315,118.287-1.033,3.8-.145,6.838-3.709,6.957-8.149,1.125-41.91-1.232-160.177-1.958-194.463-.119-5.606-3.868-10.19-8.651-10.554-3.787-.288-8.44-.415-13.7-.415-31.567,0-84.857,4.59-102.381,6.641" transform="translate(-132.2 -803.855)" fill="none"/></clipPath><linearGradient id="y" x1="-0.324" y1="1.009" x2="-0.321" y2="1.009" xlink:href="#n"/><clipPath id="z"><path d="M154.432,848.712c-4.575.481-8.13,4.866-8.285,10.236-.97,33.663,2.764,119.388,4.064,147.622.25,5.415,3.875,9.786,8.5,10.219,25.659,2.4,85.343-.237,102.836-1.435,4.249-.291,7.6-4.314,7.749-9.29,1.011-34.044-2.176-126.109-3.186-153.784-.175-4.791-3.43-8.632-7.523-8.894-2.726-.174-6.1-.252-9.957-.252-27.005,0-77.634,3.839-94.194,5.578" transform="translate(-145.988 -843.134)" fill="none"/></clipPath><linearGradient id="aa" x1="-0.047" y1="1.039" x2="-0.045" y2="1.039" gradientUnits="objectBoundingBox"><stop offset="0" stop-color="#fe7062"/><stop offset="1" stop-color="#ff928e"/></linearGradient><clipPath id="ac"><rect width="25.891" height="5.429" fill="none"/></clipPath><clipPath id="ad"><rect width="98.911" height="146.336" fill="none"/></clipPath><clipPath id="ae"><path d="M593.084,1113.912c-2.425.184-4.325,2.508-4.385,5.35-.368,17.38-1.563,77.331-.993,98.575a4,4,0,0,0,3.527,4.131c6.868.263,26.948.817,43.443.818h.088c6.325,0,12.119-.082,16.429-.294,3.242-.159,5.82-3.231,5.887-7.026.324-18.243,1.037-69.552-.659-93.057a5.508,5.508,0,0,0-4.5-5.34c-8.883-1.04-35.9-3.366-51.9-3.367-2.665,0-5.022.064-6.942.21" transform="translate(-587.554 -1113.702)" fill="none"/></clipPath><linearGradient id="af" x1="-2.908" y1="1" x2="-2.903" y2="1" gradientUnits="objectBoundingBox"><stop offset="0" stop-color="#020039"/><stop offset="1" stop-color="#090056"/></linearGradient><clipPath id="ah"><rect width="13.124" height="2.752" fill="none"/></clipPath><clipPath id="ai"><path d="M660.322,1175.435l-12.978,28.429a.98.98,0,0,0,.891,1.386h4.208a.979.979,0,0,1,.98.979v30.561a.98.98,0,0,0,.979.98h13.623a.98.98,0,0,0,.979-.98v-30.561a.979.979,0,0,1,.979-.979h4.208a.979.979,0,0,0,.891-1.386L662.1,1175.435a.98.98,0,0,0-1.782,0" transform="translate(-647.254 -1174.862)" fill="none"/></clipPath><linearGradient id="aj" x1="-8.036" y1="1.392" x2="-8.023" y2="1.392" xlink:href="#c"/><clipPath id="ak"><path d="M589.862,83.689l-276.17,4.667A14.921,14.921,0,0,0,299.225,104l6.351,170.615A12.245,12.245,0,0,0,317.8,286.54l265.466-2.626a16.838,16.838,0,0,0,16.472-16.041L609.244,104.4a19.361,19.361,0,0,0-19.059-20.714l-.323,0" transform="translate(-299.214 -83.686)" fill="none"/></clipPath><linearGradient id="al" x1="-0.203" y1="1.558" x2="-0.203" y2="1.558" xlink:href="#n"/><clipPath id="am"><path d="M595.374,96.162,326.412,100.6a14.336,14.336,0,0,0-14.09,14.88l6.186,162.323a11.8,11.8,0,0,0,11.905,11.35l258.537-2.5A16.226,16.226,0,0,0,604.992,271.4l9.258-155.528A18.6,18.6,0,0,0,595.688,96.16l-.314,0" transform="translate(-312.312 -96.16)" fill="none"/></clipPath><linearGradient id="an" x1="-0.262" y1="1.541" x2="-0.261" y2="1.541" xlink:href="#aa"/><clipPath id="ao"><path d="M594.955,95.8l-270.088,4.458A14.4,14.4,0,0,0,310.718,115.2l.436,11.443h302.1l.658-11.056a18.681,18.681,0,0,0-18.64-19.79l-.316,0" transform="translate(-310.708 -95.794)" fill="none"/></clipPath><linearGradient id="ap" x1="-7.048" y1="1.984" x2="-7.038" y2="1.984" xlink:href="#aa"/><clipPath id="ar"><rect width="4.858" height="19.092" fill="none"/></clipPath><clipPath id="as"><path d="M366.108,119.706a2.429,2.429,0,1,1-2.429-2.43,2.429,2.429,0,0,1,2.429,2.43" transform="translate(-361.25 -117.276)" fill="none"/></clipPath><linearGradient id="at" x1="-26.178" y1="94.651" x2="-26.105" y2="94.651" xlink:href="#c"/><clipPath id="au"><path d="M366.108,139.924a2.429,2.429,0,1,1-2.429-2.429,2.429,2.429,0,0,1,2.429,2.429" transform="translate(-361.25 -137.495)" fill="none"/></clipPath><linearGradient id="av" x1="-26.178" y1="93.192" x2="-26.105" y2="93.192" xlink:href="#c"/><clipPath id="aw"><path d="M366.108,160.143a2.429,2.429,0,1,1-2.429-2.429,2.429,2.429,0,0,1,2.429,2.429" transform="translate(-361.25 -157.714)" fill="none"/></clipPath><linearGradient id="ax" x1="-26.178" y1="91.728" x2="-26.105" y2="91.728" xlink:href="#c"/><clipPath id="ay"><rect width="76.999" height="76.998" fill="none"/></clipPath><clipPath id="az"><path d="M472.976,340.771a8.488,8.488,0,1,0,8.488-8.488,8.488,8.488,0,0,0-8.488,8.488" transform="translate(-472.976 -332.283)" fill="none"/></clipPath><linearGradient id="ba" x1="-6.819" y1="16.212" x2="-6.804" y2="16.212" gradientUnits="objectBoundingBox"><stop offset="0" stop-color="#e1473d"/><stop offset="1" stop-color="#e9605a"/></linearGradient><clipPath id="bc"><path d="M657.942,262.7a5.641,5.641,0,1,0,5.678-5.6h-.037a5.642,5.642,0,0,0-5.641,5.6" transform="translate(-657.942 -257.097)" fill="none"/></clipPath><linearGradient id="bd" x1="-14.333" y1="25.82" x2="-14.311" y2="25.82" gradientUnits="objectBoundingBox"><stop offset="0" stop-color="#2b3582"/><stop offset="1" stop-color="#150e42"/></linearGradient><clipPath id="be"><path d="M658.475,263.047a5.454,5.454,0,1,0,5.49-5.418h-.037a5.454,5.454,0,0,0-5.453,5.418" transform="translate(-658.475 -257.629)" fill="none"/></clipPath><linearGradient id="bf" x1="-15.136" y1="27.18" x2="-15.113" y2="27.18" xlink:href="#n"/><clipPath id="bg"><path d="M659.691,271.1l.077-.632a5.025,5.025,0,0,0-.077.632" transform="translate(-659.691 -270.473)" fill="none"/></clipPath><linearGradient id="bh" x1="-2998.993" y1="642.367" x2="-2994.448" y2="642.367" xlink:href="#bd"/><clipPath id="bi"><path d="M661.234,261.56l5.423-2.651a5.035,5.035,0,0,0-.908-.088h-.034a5.034,5.034,0,0,0-4.481,2.739" transform="translate(-661.234 -258.821)" fill="none"/></clipPath><linearGradient id="bj" x1="-42.926" y1="149.689" x2="-42.861" y2="149.689" xlink:href="#bd"/><clipPath id="bk"><path d="M657.942,359.839a5.641,5.641,0,1,0,5.678-5.6h-.038a5.642,5.642,0,0,0-5.64,5.6" transform="translate(-657.942 -354.235)" fill="none"/></clipPath><linearGradient id="bl" x1="-14.333" y1="23.682" x2="-14.311" y2="23.682" xlink:href="#bd"/><clipPath id="bm"><path d="M658.475,360.186a5.454,5.454,0,1,0,5.49-5.417h-.037a5.454,5.454,0,0,0-5.453,5.418" transform="translate(-658.475 -354.768)" fill="none"/></clipPath><linearGradient id="bn" x1="-15.136" y1="24.928" x2="-15.113" y2="24.928" xlink:href="#n"/><clipPath id="bo"><path d="M659.691,368.244l.077-.632a5.011,5.011,0,0,0-.077.632" transform="translate(-659.691 -367.612)" fill="none"/></clipPath><linearGradient id="bp" x1="-2998.993" y1="588.611" x2="-2994.448" y2="588.611" xlink:href="#bd"/><clipPath id="bq"><path d="M661.234,358.7l5.423-2.651a5.068,5.068,0,0,0-.908-.088h-.034a5.035,5.035,0,0,0-4.481,2.739" transform="translate(-661.234 -355.959)" fill="none"/></clipPath><linearGradient id="br" x1="-42.926" y1="137.207" x2="-42.861" y2="137.207" xlink:href="#bd"/><clipPath id="bs"><path d="M657.942,456.977a5.641,5.641,0,1,0,5.678-5.6h-.038a5.642,5.642,0,0,0-5.64,5.6" transform="translate(-657.942 -451.373)" fill="none"/></clipPath><linearGradient id="bt" x1="-14.333" y1="21.544" x2="-14.311" y2="21.544" xlink:href="#bd"/><clipPath id="bu"><path d="M658.475,457.324a5.454,5.454,0,1,0,5.49-5.418h-.037a5.454,5.454,0,0,0-5.453,5.418" transform="translate(-658.475 -451.906)" fill="none"/></clipPath><linearGradient id="bv" x1="-15.136" y1="22.675" x2="-15.113" y2="22.675" xlink:href="#bd"/><clipPath id="bw"><path d="M659.691,465.381l.077-.632a5.026,5.026,0,0,0-.077.632" transform="translate(-659.691 -464.749)" fill="none"/></clipPath><linearGradient id="bx" x1="-2998.993" y1="534.139" x2="-2994.448" y2="534.139" xlink:href="#bd"/><clipPath id="by"><path d="M661.234,455.836l5.423-2.652a5.1,5.1,0,0,0-.908-.088h-.034a5.035,5.035,0,0,0-4.481,2.739" transform="translate(-661.234 -453.097)" fill="none"/></clipPath><linearGradient id="bz" x1="-42.926" y1="124.721" x2="-42.861" y2="124.721" xlink:href="#n"/><clipPath id="cb"><rect width="117.184" height="10.882" fill="none"/></clipPath><clipPath id="cc"><rect width="117.184" height="10.886" fill="none"/></clipPath><clipPath id="cd"><rect width="117.184" height="10.883" fill="none"/></clipPath><clipPath id="ce"><path d="M620.643,541.915,385,546.1a6.807,6.807,0,0,0-6.6,7.88l1.039,6.5a6.806,6.806,0,0,0,6.748,5.732l233.561-.918a6.806,6.806,0,0,0,6.742-6.086l1.037-9.762a6.806,6.806,0,0,0-6.764-7.526h-.124" transform="translate(-378.318 -541.914)" fill="none"/></clipPath><linearGradient id="cf" x1="-1.162" y1="1.831" x2="-1.16" y2="1.831" xlink:href="#ba"/><clipPath id="cg"><rect width="5.305" height="57.375" fill="none"/></clipPath><linearGradient id="ch" x1="-10.649" y1="3.532" x2="-10.643" y2="3.532" xlink:href="#f"/><clipPath id="ci"><path d="M1755.851,1375.648a1,1,0,0,0-1.005,1.005v2.449h46.468v-2.37a1.083,1.083,0,0,0-1.083-1.083Z" transform="translate(-1754.846 -1375.648)" fill="none"/></clipPath><linearGradient id="cj" x1="-59.374" y1="0.826" x2="-59.341" y2="0.826" xlink:href="#f"/><clipPath id="ck"><path d="M8.8,0H53.286a8.805,8.805,0,0,1,8.805,8.805v0a8.8,8.8,0,0,1-8.8,8.8H8.805A8.805,8.805,0,0,1,0,8.8v0A8.8,8.8,0,0,1,8.8,0Z" fill="none"/></clipPath><linearGradient id="cl" x1="-23.156" y1="1.698" x2="-23.143" y2="1.698" xlink:href="#aa"/><clipPath id="cm"><path d="M1657.42,1330.335s-17.151,7.388-16.169,15.119c0,0,17.73-3.4,20.9-8.468s1.425-8,1.425-8Z" transform="translate(-1641.21 -1328.983)" fill="none"/></clipPath><linearGradient id="cn" x1="-20.742" y1="1.695" x2="-20.729" y2="1.695" xlink:href="#n"/><clipPath id="co"><path d="M1678.218,1311.14l1.688,6.089a2.9,2.9,0,0,0,2.816,2.114,6.515,6.515,0,0,0,2.173-.332,2.49,2.49,0,0,0,1.575-2.644l-.871-7.528Z" transform="translate(-1678.218 -1308.84)" fill="none"/></clipPath><linearGradient id="cp" x1="-48.784" y1="3.858" x2="-48.755" y2="3.858" gradientUnits="objectBoundingBox"><stop offset="0" stop-color="#ff928e"/><stop offset="1" stop-color="#feb3b1"/></linearGradient><clipPath id="cq"><path d="M1658.946,1152.411c-15.7,9.154.8,53.091.8,53.091s4.1.882,10.005-2.274c0,0-8.427-32.164,6.21-37.759,16.456-6.291,33.476-4.76,33.476-4.76l-3.154-15-.088-.993s-1.845-.086-4.865-.086c-9.467,0-30.479.839-42.38,7.78" transform="translate(-1652.17 -1144.631)" fill="none"/></clipPath><linearGradient id="cr" x1="-6.622" y1="1.313" x2="-6.618" y2="1.313" xlink:href="#n"/><clipPath id="cs"><path d="M1639.428,1356.681a14.046,14.046,0,0,0-6.351,3.417c1.738,1.949,4.776,3.958,9.825,3.642,6.864-.429,12.768-4.354,15.509-6.491a4.3,4.3,0,0,0,.761-3.223s-2.289-2.42-3.9-2.48h-.033c-1.724,0-12.244,4.354-15.807,5.135" transform="translate(-1633.077 -1351.546)" fill="none"/></clipPath><linearGradient id="ct" x1="-30.062" y1="1.161" x2="-30.043" y2="1.161" xlink:href="#n"/><clipPath id="cu"><path d="M1640.078,1374.236c-5.049.316-8.087-1.693-9.825-3.642-1.664,1.62-2.227,3.321-.406,4.028,2.273.882,13.738,1.454,20.675-2.466a13.393,13.393,0,0,0,5.066-4.411c-2.741,2.137-8.645,6.062-15.51,6.491" transform="translate(-1628.718 -1367.745)" fill="none"/></clipPath><linearGradient id="cv" x1="-41.126" y1="1.039" x2="-41.101" y2="1.039" xlink:href="#f"/><clipPath id="cw"><path d="M1690.55,1342.639a1.855,1.855,0,0,0,.718,2.524,7.367,7.367,0,0,0,1.9.667,2.86,2.86,0,0,0,2.658-.8c1.452-1.487,3.965-4.156,4.2-5.045l-5.8-4.028Z" transform="translate(-1690.317 -1335.958)" fill="none"/></clipPath><linearGradient id="cx" x1="-49.49" y1="2.666" x2="-49.46" y2="2.666" xlink:href="#cp"/><clipPath id="cy"><path d="M1731.152,1139.362l.8,4.96c.441,2.724.245,5.383-2.262,6.535-8.758,4.023-14.923,13.326-19.138,19.783-4.868,7.456-16.537,38.132-16.537,38.132,1.641,2.761,7.255,4.587,7.255,4.587,9.831-5.714,20.634-25.6,26.649-35.733s23.479-12.746,31.441-16.739,5.208-23.528,5.208-23.528Z" transform="translate(-1694.018 -1137.358)" fill="none"/></clipPath><linearGradient id="cz" x1="-6.662" y1="1.228" x2="-6.658" y2="1.228" xlink:href="#n"/><clipPath id="da"><path d="M1680.476,1021.1a16,16,0,0,1-2.357,9.407,18.171,18.171,0,0,0,9.989,1.464c15.4-1.91,25.6-19.853,25.6-19.853l-17.114-20.01c.045.764-4.951,32.179-16.114,28.992" transform="translate(-1678.119 -992.106)" fill="none"/></clipPath><linearGradient id="db" x1="-10.822" y1="2.983" x2="-10.816" y2="2.983" xlink:href="#aa"/><clipPath id="dc"><path d="M1607.6,1044.218c-4.865,2-10.052,10.637-10.052,10.637s1.853,2.264,4.029.892,7.766-4.957,7.766-4.957-1.892,4.024-1.878,4.777,2.439.632,2.57-1.405c.067-1.033,1.129-1.794,2.16-2.292a2.089,2.089,0,0,1,2.755.933c1.444,2.78,4.95,8.35,10.964,11.1a16,16,0,0,0,2.357-9.407c-3.035-.867-6.858-3.358-11.679-8.292a9.873,9.873,0,0,0-6.184-2.551,7.333,7.333,0,0,0-2.808.56" transform="translate(-1597.546 -1043.658)" fill="none"/></clipPath><linearGradient id="dd" x1="-21.351" y1="4.08" x2="-21.338" y2="4.08" xlink:href="#cp"/><clipPath id="de"><path d="M1732.185,958.469s-3.731,4.729-1.984,10.061,23.258,34.187,24.094,47.733c0,0,14.7,8.655,33.792.074,0,0,6.4-35.768-4.674-66.142,0,0-4.138-2.821-13.311-2.822-8.3,0-20.711,2.307-37.917,11.1" transform="translate(-1729.736 -947.372)" fill="none"/></clipPath><linearGradient id="df" x1="-6.335" y1="1.803" x2="-6.331" y2="1.803" xlink:href="#aa"/><clipPath id="dg"><path d="M1759.925,919.765,1763,932.73a5.094,5.094,0,0,0,3.471,3.695c5.816,1.772,9.224-.977,10.856-3.022a3.3,3.3,0,0,0,.342-3.561l-5.928-11.616Z" transform="translate(-1759.925 -918.225)" fill="none"/></clipPath><linearGradient id="dh" x1="-26.301" y1="8.059" x2="-26.286" y2="8.059" xlink:href="#cp"/><clipPath id="di"><path d="M1863.642,975.2s18.658,13.685,17.643,20.747c3.5,1.328,8.612,4.542,12.382,12.274a14.506,14.506,0,0,0,4.626-6.678c7.488-20.75-28.117-46.158-28.117-46.158Z" transform="translate(-1863.642 -955.388)" fill="none"/></clipPath><linearGradient id="dj" x1="-10.543" y1="2.594" x2="-10.538" y2="2.594" xlink:href="#aa"/><clipPath id="dk"><path d="M1836.181,1072.03c-4.379,6.425-25.485.53-25.485.53-13.783-1.442-15.824,14.842-15.824,14.842,2.479,1.333,4.453-.979,6.168-3.291,1.389-1.873,2.608-3.747,3.789-3.682,1.8.1,5.038-.806,6.906-1.388a3.706,3.706,0,0,1,2.78.233c5.25,2.649,24.572,11.487,34.593,3.6-3.77-7.733-8.884-10.946-12.382-12.274a3.342,3.342,0,0,1-.545,1.429" transform="translate(-1794.872 -1070.601)" fill="none"/></clipPath><linearGradient id="dl" x1="-12.306" y1="2.628" x2="-12.299" y2="2.628" xlink:href="#cp"/><clipPath id="dm"><path d="M1751.495,863.057c-.252.219-11.087,19.463-11.087,19.463l11.12,5.953,12.978-16.714s-6.665-9.378-11.177-9.379a2.717,2.717,0,0,0-1.834.677" transform="translate(-1740.408 -862.38)" fill="none"/></clipPath><linearGradient id="dn" x1="-19.955" y1="6.861" x2="-19.943" y2="6.861" xlink:href="#cp"/><clipPath id="do"><path d="M1741.268,845.356c-1.245,3.658,4.12,6.5,7.546,7.084,2.6.442,3.875,3.446,4.335,4.861a1.548,1.548,0,0,1-.183,1.33l-6.143,9.333a1.534,1.534,0,0,1-.279.32c-.662.575-3.086,2.385-4.788-.207-1.544-2.353-2.988-4.477-4.627-5.2a1.559,1.559,0,0,0-1.992.661,67.375,67.375,0,0,0-4.463,9.474,1.556,1.556,0,0,0,.826,1.933,50.283,50.283,0,0,0,11.1,3.748,1.562,1.562,0,0,0,1.494-.563c1.742-2.19,7.062-8.829,8.83-10.449,1.66-1.521,4.612-.736,5.828-.318a1.534,1.534,0,0,0,1.207-.089c1.324-.684,4-2.606,1.806-6.24a1.563,1.563,0,0,1,.576-2.176c1.541-.866,3.395-2.62,1.952-5.722a5.718,5.718,0,0,0-6.233-3.226,1.562,1.562,0,0,1-1.657-1.125,1.235,1.235,0,0,0-1.093-.884,1.537,1.537,0,0,1-1.213-1.924,4.661,4.661,0,0,0-2.325-5.586,6.231,6.231,0,0,0-3.258-.965c-3.436,0-6.288,3.128-7.243,5.933" transform="translate(-1730.583 -839.423)" fill="none"/></clipPath><linearGradient id="dp" x1="-11.443" y1="4.017" x2="-11.437" y2="4.017" xlink:href="#n"/><clipPath id="dq"><path d="M1787.592,918.327s2.032,3.969,6.491.266c3.585-2.977,1.507-5.845-1.271-6.2a1.793,1.793,0,0,0-.225-.014c-2.683,0-5,5.943-5,5.943" transform="translate(-1787.592 -912.384)" fill="none"/></clipPath><linearGradient id="dr" x1="-58.624" y1="16.589" x2="-58.591" y2="16.589" xlink:href="#cp"/><clipPath id="ds"><path d="M1616.62,1103.858a2.207,2.207,0,0,0,2.205,2.209l49.309.054c.038,0,.076,0,.114,0a2.207,2.207,0,0,0-.109-4.412l-49.309-.054h-.039a2.2,2.2,0,0,0-2.171,2.205" transform="translate(-1616.62 -1101.653)" fill="none"/></clipPath><linearGradient id="dt" x1="-10.865" y1="5.793" x2="-10.858" y2="5.793" xlink:href="#n"/><clipPath id="du"><path d="M1490.933,987.171a3.279,3.279,0,0,0-3.05,4.485l14.722,37.25a4.756,4.756,0,0,0,4.424,3.008h51.033l-18.984-40.255a7.826,7.826,0,0,0-7.079-4.488Z" transform="translate(-1487.651 -987.171)" fill="none"/></clipPath><linearGradient id="dv" x1="-6.37" y1="2.094" x2="-6.365" y2="2.094" xlink:href="#n"/><clipPath id="dw"><path d="M1562.394,1034.214c-1.7.547-2.358,3.232-1.468,6s2.99,4.562,4.691,4.015,2.358-3.233,1.469-6c-.782-2.43-2.5-4.113-4.059-4.113a2.051,2.051,0,0,0-.632.1" transform="translate(-1560.529 -1034.116)" fill="none"/></clipPath><linearGradient id="dx" x1="-41.161" y1="11.034" x2="-41.134" y2="11.034" gradientUnits="objectBoundingBox"><stop offset="0" stop-color="#53d8ff"/><stop offset="1" stop-color="#3840f7"/></linearGradient><clipPath id="dz"><path d="M218.849,406.209c-.776,2.357-6.59,2.661-7.164,7.3a5.319,5.319,0,0,1-4.452,4.676c-5.938.91-15.089,3.994-16.553,14.3-1.118,7.869,2.894,10.853,7.1,11.886a5.963,5.963,0,0,1,4.521,6.888c-.6,2.994.295,6.456,5.483,9.194,11.625,6.134,23.235-14.533,23.235-14.533l2.379-36.085-8.328-9.124s-5.258,2.557-6.225,5.5" transform="translate(-190.489 -400.713)" fill="none"/></clipPath><linearGradient id="ea" x1="-0.637" y1="5.524" x2="-0.633" y2="5.524" xlink:href="#af"/><clipPath id="eb"><path d="M317.258,404.353s5.228,8.53,7.957,9.047c0,0,16.78-21.477,18.491-39.072l-1.521-2.961s-9.219,25.132-24.927,32.986" transform="translate(-317.258 -371.367)" fill="none"/></clipPath><linearGradient id="ec" x1="-3.736" y1="8.463" x2="-3.724" y2="8.463" xlink:href="#cp"/><clipPath id="ed"><path d="M188.115,796.621a13.89,13.89,0,0,0-2.557,4.979,1.348,1.348,0,0,0,1.132,1.749,24.39,24.39,0,0,0,5.1-.08,1.575,1.575,0,0,0,1.381-1.378l.464-3.811a1.3,1.3,0,0,0-1.293-1.46Z" transform="translate(-185.495 -796.621)" fill="none"/></clipPath><linearGradient id="ee" x1="-7.725" y1="31.844" x2="-7.683" y2="31.844" xlink:href="#f"/><clipPath id="ef"><path d="M282.667,677.376l-2.184,4.1a8.322,8.322,0,0,0-.947,4.6L281.8,713.2l-1.729,2.377.21,1.289,10.561,6.232-4.155-6.748a7.588,7.588,0,0,1-1.123-4.312c.425-9.682,2.815-33.889,2.815-33.889l-.714-4.2Z" transform="translate(-279.507 -673.949)" fill="none"/></clipPath><linearGradient id="eg" x1="-6.173" y1="5.292" x2="-6.15" y2="5.292" xlink:href="#cp"/><clipPath id="eh"><path d="M278.8,791.693l.995,6.19h.785s-.179-4.982,1.222-4.888c1.041.069,3.217,2.733,4.268,4.1a2.03,2.03,0,0,0,1.61.79h3.37a.891.891,0,0,0,.166-1.767,4.808,4.808,0,0,0-1.37-.036s-5.331-3.752-7.068-4.8a5.18,5.18,0,0,1-2.057-3.416,3.665,3.665,0,0,0-1.923,3.83" transform="translate(-278.749 -787.863)" fill="none"/></clipPath><linearGradient id="ei" x1="-7.132" y1="22.335" x2="-7.107" y2="22.335" xlink:href="#f"/><clipPath id="ej"><path d="M207.808,676.4c-5.838,4.465-7.353,9.313-8.694,13.782s-3.785,17.323-4.921,20.159c-.952,2.375-3.522,7.613-4.332,9.252a1.5,1.5,0,0,0,.057,1.449,2.463,2.463,0,0,0,2.29,1.044c2.566,0,3.5-.718,3.544-1.466a58.218,58.218,0,0,1,3.035-11.6c2.225-6.063,16.225-32.619,16.225-32.619a4.155,4.155,0,0,0-3.288-1.745,6.438,6.438,0,0,0-3.916,1.745" transform="translate(-189.701 -674.657)" fill="none"/></clipPath><linearGradient id="ek" x1="-2.207" y1="5.355" x2="-2.195" y2="5.355" xlink:href="#cp"/><clipPath id="el"><path d="M270.986,473.125s9.149,8.655,5.538,23.958a13.968,13.968,0,0,0,12.544,1.222s6.356-16.8,7.054-20.162c1.191-5.743-8.845-13.08-8.845-13.08s-10.518,2.521-16.29,8.062" transform="translate(-270.986 -465.063)" fill="none"/></clipPath><linearGradient id="em" x1="-2.31" y1="11.135" x2="-2.301" y2="11.135" xlink:href="#f"/><clipPath id="en"><path d="M248.355,563.59c-1.469,4.427-2.756,26.137-8.485,36.308,0,0,13.833,3.656,22.827,1.834,0,0,5.708-30.093,6.618-34.775a25.157,25.157,0,0,0-.408-9.721,13.968,13.968,0,0,1-12.544-1.222s-6.537,3.148-8.007,7.576" transform="translate(-239.87 -556.014)" fill="none"/></clipPath><linearGradient id="eo" x1="-1.456" y1="5.494" x2="-1.449" y2="5.494" xlink:href="#f"/><clipPath id="ep"><path d="M293.134,434.024,290.2,447.212c-.281,1.161.778.971,1.952.75,1.923-.363,4.4-1.11,5.231-2.606a1.414,1.414,0,0,0,.151-.5l1.261-9.145a1.643,1.643,0,0,0-.962-1.727l-2.434-1.08a1.641,1.641,0,0,0-2.263,1.116" transform="translate(-290.152 -432.766)" fill="none"/></clipPath><linearGradient id="eq" x1="-5.607" y1="27.187" x2="-5.587" y2="27.187" xlink:href="#cp"/><clipPath id="er"><path d="M250.077,518.03A4.621,4.621,0,0,0,252.1,519.2a22.271,22.271,0,0,1,3.694,2.507.694.694,0,0,0,1.017-.183.951.951,0,0,0,.054-.911l-2.537-5.365a1.957,1.957,0,0,0-2.542-.11.966.966,0,0,1-1.464-.332c-1.381-2.814-3.99-11.089,6.687-20.44a1.157,1.157,0,0,0,.257-1.406c-.75-1.441-2.466-4.3-4.567-5,0,0-20.492,14.661-2.621,30.067" transform="translate(-242.761 -487.963)" fill="none"/></clipPath><linearGradient id="es" x1="-2.96" y1="9.688" x2="-2.946" y2="9.688" xlink:href="#cp"/><clipPath id="et"><path d="M292.19,411.469a10.382,10.382,0,0,0,9.043,2.976c2.218-.318,3.984-2.638,1.619-7.663s-5.842-6.493-5.842-6.493a3.011,3.011,0,0,0-1.086-.208c-4.005,0-6.957,8.407-3.734,11.389" transform="translate(-290.819 -400.08)" fill="none"/></clipPath><linearGradient id="eu" x1="-4.642" y1="16.838" x2="-4.625" y2="16.838" xlink:href="#cp"/><clipPath id="ev"><path d="M281.208,393.1c-1.67,5.288-1.955,8.828.823,11.358s3.924-.339,3.924-.339-1.513-2.366-.9-3.633,2.037.262,2.037.262l.408-.211s-2.624-7.351,3.894-7.438l1.534,1.072s2.392-4.076-1.534-6.022a7.4,7.4,0,0,0-3.285-.8c-2.927,0-5.69,1.9-6.9,5.746" transform="translate(-279.945 -387.358)" fill="none"/></clipPath><linearGradient id="ew" x1="-3.878" y1="16.49" x2="-3.863" y2="16.49" xlink:href="#af"/><clipPath id="ex"><path d="M289.585,420.008c-1.769,1.508,1.438,3.5,2.694,4.143l.4-1.864s-.922-2.633-2.255-2.634a1.294,1.294,0,0,0-.841.355" transform="translate(-289.065 -419.653)" fill="none"/></clipPath><linearGradient id="ey" x1="-15.554" y1="54.334" x2="-15.499" y2="54.334" xlink:href="#cp"/><clipPath id="ez"><path d="M383.081,351.414c-.523.714.009,4.469.043,5.345.959,1.829,2.588,1.148,2.447.7a3.631,3.631,0,0,0,2.727-1.609c.594-.844,1.222-1.923,1.682-2.752a3.674,3.674,0,0,0,.366-2.706,12.713,12.713,0,0,0-1.531-3.028l2.624-2.733a1.287,1.287,0,0,0-.161-1.788,69.94,69.94,0,0,0-8.2,8.57" transform="translate(-382.852 -342.844)" fill="none"/></clipPath><linearGradient id="fa" x1="-12.429" y1="23.198" x2="-12.396" y2="23.198" xlink:href="#cp"/><clipPath id="fb"><path d="M387.464,361.774l-.783,2.1.655.243.718-1.932,2.126-1.8a.363.363,0,0,1,.137.191,1.05,1.05,0,0,1-.224.733,25.847,25.847,0,0,0-1.3,4.991l.688.123a25.664,25.664,0,0,1,1.2-4.749,1.626,1.626,0,0,0,.3-1.287,1.228,1.228,0,0,0-.68-.746l-.207-.106Z" transform="translate(-386.681 -359.538)" fill="none"/></clipPath><linearGradient id="fc" x1="-18.379" y1="72.763" x2="-18.331" y2="72.763" xlink:href="#cp"/></defs><g clip-path="url(#a)"><g transform="translate(0 0)"><g clip-path="url(#b)"><rect width="804.337" height="503.367" transform="translate(-19.705 0)" fill="url(#c)"/></g></g><g transform="translate(0 0)"><g clip-path="url(#a)"><path d="M1773.209,443.958c23.673,4.733,53.9-21.076,63.644-49.273,10.023-29.017-8.354-41.172-8.212-81.437.161-45.74,23.954-52.633,39.692-114.285,3.551-13.91,24.1-94.406-1.369-109.495-23.547-13.951-89.69,26.086-101.283,77.331-8.266,36.54,17.287,51.881,7.528,94.439-8.563,37.342-31.069,37.882-39.692,73.909-10.5,43.86,8.609,102.6,39.692,108.81" transform="translate(-1121.343 -56.154)" fill="#91b3fa"/></g></g><g transform="translate(651.852 109.672)"><g clip-path="url(#e)"><rect width="293.931" height="110.166" transform="translate(-61.833 277.426) rotate(-78.353)" fill="url(#f)"/></g></g><g transform="translate(0 0)"><g clip-path="url(#a)"><path d="M1755.432,903.825c-31.226-16.27-41.914-72.139-24.164-90.3,11.993-12.269,29.192.636,45.784-12.082,21.185-16.238,5.6-46.82,22.257-86.482,14.174-33.753,48.173-65.691,68.041-59.138,20.8,6.86,31.751,57.758,13.989,88.389-11.55,19.92-29.23,20.9-33.066,39.425-4.451,21.5,17.052,31.3,17.169,52.143.211,37.438-68.7,89.565-110.009,68.041" transform="translate(-1116.214 -424.381)" fill="#bdd0fb"/></g></g><g transform="translate(654.797 305.553)"><g clip-path="url(#h)"><rect width="195.744" height="93.398" transform="translate(-37.391 180.528) rotate(-78.353)" fill="url(#i)"/></g></g><g transform="translate(740.392 240.939)"><g clip-path="url(#j)"><rect width="27.755" height="91.363" transform="translate(-0.078 0)" fill="url(#k)"/></g></g><g transform="translate(0 0)"><g clip-path="url(#a)"><path d="M1764.841,1186.465a.608.608,0,0,1-.5-.264c-20.081-29.307-26.928-51.952-20.352-67.306,5.846-13.65,20.608-16.191,20.756-16.215a.608.608,0,0,1,.2,1.2c-.142.023-14.266,2.471-19.841,15.508-6.39,14.946.421,37.193,20.244,66.125a.607.607,0,0,1-.5.951" transform="translate(-1128.438 -714.47)" fill="#f0f0f0"/></g></g><g transform="translate(366.23 377.794)"><g clip-path="url(#m)"><rect width="137.491" height="108.974" transform="translate(-5.16 0.261) rotate(-2.891)" fill="url(#n)"/></g></g><g transform="translate(155.085 99.296)"><g clip-path="url(#o)"><rect width="574.668" height="388.184" transform="matrix(0.986, -0.167, 0.167, 0.986, -49.931, 8.439)" fill="url(#p)"/></g></g><g transform="translate(169.804 108.41)"><g clip-path="url(#q)"><rect width="529.11" height="546.221" transform="translate(-131.852 146.443) rotate(-48.001)" fill="url(#r)"/></g></g><g transform="translate(0 0)"><g clip-path="url(#a)"><path d="M656.853,719.682l-48.337-1.218c-6.6-.166-11.974,4.02-11.781,9.184l3.287,87.952c.18,4.819,5.163,8.727,11.326,8.882l42.836,1.08c6.382.161,11.658-3.753,11.784-8.742l2.213-87.813c.126-4.989-4.946-9.163-11.328-9.324" transform="translate(-386.648 -465.52)" fill="#7d97f4"/><path d="M927.1,726.6l-79-1.991c-6.382-.161-11.658,3.753-11.783,8.742L834.1,821.16c-.126,4.989,4.946,9.164,11.328,9.325l79,1.991c6.382.161,11.658-3.753,11.784-8.742l2.213-87.813c.126-4.989-4.946-9.163-11.328-9.325" transform="translate(-540.449 -469.5)" fill="#7d97f4"/><path d="M1276.426,398.376a29.027,29.027,0,1,1-28.287-29.749,29.027,29.027,0,0,1,28.287,29.749" transform="translate(-789.442 -238.843)" fill="#7d97f4"/><path d="M1481.275,403.539a29.027,29.027,0,1,1-28.286-29.749,29.027,29.027,0,0,1,28.286,29.749" transform="translate(-922.172 -242.188)" fill="#7d97f4"/><path d="M1686.057,411.4a29.027,29.027,0,1,1-28.286-29.75,29.027,29.027,0,0,1,28.286,29.75" transform="translate(-1054.859 -247.282)" fill="#7d97f4"/><path d="M1275.177,404.11a18.646,18.646,0,1,1-16.951-11.991q.473.012.94.048l.119-4.725c-.312-.02-.625-.036-.94-.044a23.353,23.353,0,1,0,21.214,14.939Z" transform="translate(-799.814 -251.006)" fill="#91b3fa"/><path d="M1471.24,431.919a18.644,18.644,0,1,1-9.064-34.659q.473.012.939.048l.12-4.725c-.312-.02-.625-.036-.94-.044a23.368,23.368,0,1,0,11.184,43.548Z" transform="translate(-931.962 -254.337)" fill="#91b3fa"/><path d="M1683,431.963a18.645,18.645,0,1,1-14.681-29.507c.315.008.628.024.939.048l.119-4.725c-.311-.02-.624-.036-.939-.044a23.368,23.368,0,1,0,18.318,37.1Z" transform="translate(-1065.533 -257.704)" fill="#91b3fa"/><path d="M1267.859,567.9l-47.288-1.192a5.376,5.376,0,1,0-.271,10.748l47.288,1.192a5.376,5.376,0,0,0,.271-10.749" transform="translate(-787.29 -367.196)" fill="#91b3fa"/><path d="M1472.708,573.068l-47.287-1.192a5.376,5.376,0,1,0-.271,10.748l47.288,1.192a5.376,5.376,0,1,0,.271-10.748" transform="translate(-920.021 -370.542)" fill="#91b3fa"/><path d="M1630,587.786l47.288,1.192a5.376,5.376,0,1,0,.271-10.748l-47.288-1.192a5.376,5.376,0,1,0-.271,10.749" transform="translate(-1052.752 -373.887)" fill="#91b3fa"/><path d="M1265.194,615.4l-47.287-1.192a5.376,5.376,0,0,0-5.51,5.239l-.8,31.648a5.375,5.375,0,0,0,5.239,5.51l47.288,1.192a5.376,5.376,0,0,0,5.51-5.239l.8-31.649a5.376,5.376,0,0,0-5.239-5.51" transform="translate(-785.047 -397.969)" fill="#91b3fa"/><path d="M1470.044,620.56l-47.287-1.192a5.375,5.375,0,0,0-5.51,5.239l-.8,31.648a5.376,5.376,0,0,0,5.239,5.51l47.288,1.192a5.376,5.376,0,0,0,5.51-5.239l.8-31.648a5.377,5.377,0,0,0-5.239-5.51" transform="translate(-917.778 -401.314)" fill="#91b3fa"/><path d="M1674.892,625.722l-47.287-1.192a5.376,5.376,0,0,0-5.51,5.239l-.8,31.649a5.376,5.376,0,0,0,5.239,5.51l47.288,1.192a5.376,5.376,0,0,0,5.51-5.239l.8-31.648a5.375,5.375,0,0,0-5.239-5.51" transform="translate(-1050.508 -404.659)" fill="#91b3fa"/><path d="M862.139,798.28l-1.075,42.647a12.078,12.078,0,0,0,11.769,12.378l58.411,1.472a12.4,12.4,0,0,0,12.712-12.088l1.618-64.213a5.889,5.889,0,0,0-10.175-4.185l-11.606,12.331a12.45,12.45,0,0,1-16.9,1.141l-1.06-.858a10.655,10.655,0,0,0-13.4-.01l-6.314,5.1a16.342,16.342,0,0,1-17.2,2.09,4.762,4.762,0,0,0-6.779,4.193" transform="translate(-557.918 -500.489)" fill="#bdd0fb"/><rect width="44.322" height="9.793" transform="translate(426.629 364.051) rotate(-88.556)" fill="#91b3fa"/><rect width="29.089" height="9.793" transform="translate(442.987 364.463) rotate(-88.556)" fill="#91b3fa"/><rect width="66.737" height="9.793" transform="translate(459.344 364.876) rotate(-88.556)" fill="#91b3fa"/><rect width="16.032" height="9.793" transform="translate(475.701 365.288) rotate(-88.556)" fill="#91b3fa"/><rect width="57.814" height="9.793" transform="translate(492.059 365.7) rotate(-88.556)" fill="#91b3fa"/><rect width="47.804" height="9.793" transform="translate(508.416 366.112) rotate(-88.556)" fill="#91b3fa"/><rect width="36.923" height="9.793" transform="translate(524.773 366.525) rotate(-88.556)" fill="#91b3fa"/><rect width="80.228" height="9.793" transform="translate(541.13 366.937) rotate(-88.556)" fill="#91b3fa"/><rect width="71.742" height="9.793" transform="translate(557.488 367.349) rotate(-88.556)" fill="#91b3fa"/><rect width="58.903" height="9.793" transform="translate(573.845 367.761) rotate(-88.556)" fill="#91b3fa"/><rect width="14.545" height="9.793" transform="translate(590.203 368.174) rotate(-88.556)" fill="#91b3fa"/><rect width="42.799" height="9.793" transform="translate(606.56 368.586) rotate(-88.556)" fill="#91b3fa"/><path d="M1204.581,806.09,1161.508,805a3.427,3.427,0,1,0-.173,6.853l43.074,1.086a3.427,3.427,0,0,0,.173-6.853" transform="translate(-750.315 -521.596)" fill="#7d97f4"/><path d="M1205.35,775.635l-43.074-1.086a3.427,3.427,0,0,0-.173,6.853l43.074,1.086a3.427,3.427,0,0,0,.173-6.853" transform="translate(-750.812 -501.863)" fill="#7d97f4"/><path d="M1425.306,811.653l-43.074-1.086a3.427,3.427,0,0,0-.173,6.853l43.074,1.086a3.427,3.427,0,0,0,.173-6.853" transform="translate(-893.332 -525.201)" fill="#7d97f4"/><path d="M1426.075,781.2,1383,780.112a3.427,3.427,0,1,0-.173,6.853l43.074,1.086a3.427,3.427,0,0,0,.173-6.853" transform="translate(-893.83 -505.468)" fill="#7d97f4"/><g transform="translate(169.106 372.705)" opacity="0.65"><g clip-path="url(#t)"><path d="M979.928,1068.549h-.012l-498.893-8.5a.7.7,0,0,1,.012-1.4h.012l498.893,8.5a.7.7,0,0,1-.012,1.4" transform="translate(-480.337 -1058.652)" fill="#fff"/></g></g><path d="M827.951,1133.552c-48.125-23.89-86.2-60.288-95.875-132.037A12.553,12.553,0,0,1,750,988.592c36.458,17.593,107.637,63.6,77.95,144.96" transform="translate(-474.268 -639.727)" fill="#bdd0fb"/><path d="M1389.178,1172.4c8.823-50.291,31.051-95.076,89.945-124.8a17.561,17.561,0,0,1,25.076,19.331c-8.86,42.085-35.514,110.469-115.022,105.47" transform="translate(-900.109 -677.54)" fill="#bdd0fb"/><path d="M1432.274,1195.7a.7.7,0,0,1-.426-1.252c48.251-37.062,82.634-95.785,82.976-96.374a.7.7,0,1,1,1.208.7c-.343.591-34.865,59.552-83.333,96.78a.7.7,0,0,1-.425.145" transform="translate(-927.58 -711.261)" fill="#dce5fe"/><path d="M815,1299.281c-32.6,3.009-64.034-3.333-92.251-35.482a10.307,10.307,0,0,1,7.072-17.063c26.864-1.887,74.808,2.141,85.179,52.545" transform="translate(-466.637 -807.585)" fill="#91b3fa"/></g></g><g transform="translate(324.984 472.459)"><g clip-path="url(#u)"><rect width="114.191" height="205.255" transform="translate(-11.688 23.778) rotate(-65.513)" fill="url(#v)"/></g></g><g transform="translate(0 0)"><g clip-path="url(#a)"><path d="M1242.086,1363.558a.7.7,0,0,1-.01-1.4l8.011-.117a.707.707,0,0,1,.709.688.7.7,0,0,1-.688.709l-8.011.117Z" transform="translate(-804.349 -882.527)" fill="#fff"/><path d="M942.664,1378.881a.705.705,0,0,1-.111-.009.7.7,0,0,1-.579-.8l1.142-7.158a8.051,8.051,0,0,1,7.845-6.792l84.965-1.242a.712.712,0,0,1,.708.688.7.7,0,0,1-.688.709l-84.965,1.242a6.657,6.657,0,0,0-6.487,5.615l-1.142,7.157a.7.7,0,0,1-.689.589" transform="translate(-610.34 -883.069)" fill="#fff"/><path d="M848.4,1145.7a.7.7,0,0,1-.659-.467c-23.941-68.25-70.361-107.739-70.827-108.13a.7.7,0,0,1,.9-1.071c.469.394,47.174,40.111,71.248,108.738a.7.7,0,0,1-.428.89.687.687,0,0,1-.231.04" transform="translate(-503.232 -671.185)" fill="#dce5fe"/><path d="M802.43,1299.924a.7.7,0,0,1-.533-.247c-20.895-24.629-67.64-32.577-68.109-32.655a.7.7,0,1,1,.227-1.377c.475.078,47.725,8.113,68.948,33.129a.7.7,0,0,1-.532,1.15" transform="translate(-475.074 -820.059)" fill="#dce5fe"/></g></g><g transform="translate(46.542 283.002)"><g clip-path="url(#x)"><rect width="140.028" height="216.12" transform="translate(-1.201 0)" fill="url(#y)"/></g></g><g transform="translate(51.396 296.831)"><g clip-path="url(#z)"><rect width="207.009" height="215.769" transform="matrix(0.788, -0.616, 0.616, 0.788, -86.237, 66.778)" fill="url(#aa)"/></g></g><g transform="translate(0 0)"><g clip-path="url(#a)"><g transform="translate(107.608 288.863)" opacity="0.5"><g clip-path="url(#ac)"><path d="M331.547,822.534h0a1.868,1.868,0,0,1-1.6,1.975c-4.433.272-16.923,1.04-22.5,1.419a1.89,1.89,0,0,1-1.755-2.349l.036-.216a1.816,1.816,0,0,1,1.5-1.595c3.773-.4,15.158-1.526,22.7-1.211a1.861,1.861,0,0,1,1.619,1.977" transform="translate(-305.656 -820.502)" fill="#fff"/></g></g><g transform="translate(63.588 314.106)" opacity="0.42"><g clip-path="url(#ad)"><path d="M304.517,1053.312l-34.465,1.343,2.406-28.936,32.059-.853Z" transform="translate(-238.566 -978.161)" fill="#fff"/><path d="M208.451,1056.586l-26.913,1.049-.207-29.25,29.53-.786Z" transform="translate(-181.08 -979.932)" fill="#fff"/><path d="M180.836,935.879l-.217-30.646c-.026-3.705,2.429-6.788,5.59-7.019l82.028-6c3.328-.243,6.179,2.753,6.328,6.65l1.317,34.484Z" transform="translate(-180.619 -892.203)" fill="#fff"/><path d="M379.544,1023.313l25.412-.676,1.071,28.04-26.483,1.032Z" transform="translate(-309.511 -976.717)" fill="#fff"/><path d="M278.221,1115.835l2.206,57.761c.149,3.9-2.468,7.184-5.8,7.284l-86.094,2.558c-3.332.1-6.085-3.016-6.113-6.915l-.4-56.94Z" transform="translate(-181.523 -1037.104)" fill="#fff"/></g></g></g></g><g transform="translate(206.852 392.086)"><g clip-path="url(#ae)"><rect width="70.982" height="109.084" transform="translate(-0.419 0)" fill="url(#af)"/></g></g><g transform="translate(0 0)"><g clip-path="url(#a)"><path d="M599.709,1136.109c-.512,14.028-2.128,60.7-1.615,77.954.075,2.522,1.774,4.562,3.928,4.709,8.868.607,39.122,1.946,52.129.727,2.342-.219,4.18-2.435,4.306-5.18.659-14.312,2.551-57.767,2.06-74.831-.078-2.722-1.881-4.945-4.2-5.188-9.594-1.008-41.742-3.406-52.795-2.7a4.427,4.427,0,0,0-3.814,4.509" transform="translate(-387.467 -733.13)" fill="#91b3fa"/><g transform="translate(231.512 394.303)" opacity="0.5"><g clip-path="url(#ah)"><path d="M657.6,1121.03h0a.947.947,0,0,0,.81,1c2.248.138,8.579.527,11.408.72a.958.958,0,0,0,.89-1.191l-.018-.11a.92.92,0,0,0-.762-.808,93.616,93.616,0,0,0-11.507-.614.943.943,0,0,0-.821,1" transform="translate(-657.6 -1120)" fill="#fff"/></g></g></g></g><g transform="translate(227.87 413.618)"><g clip-path="url(#ai)"><rect width="28.331" height="62.908" transform="translate(-0.206)" fill="url(#aj)"/></g></g><g transform="translate(105.34 29.462)"><g clip-path="url(#ak)"><rect width="370.356" height="349.841" transform="matrix(0.796, -0.606, 0.606, 0.796, -98.107, 74.468)" fill="url(#al)"/></g></g><g transform="translate(109.951 33.854)"><g clip-path="url(#am)"><rect width="342.482" height="356.148" transform="matrix(0.642, -0.767, 0.767, 0.642, -95.33, 113.451)" fill="url(#an)"/></g></g><g transform="translate(109.387 33.725)"><g clip-path="url(#ao)"><rect width="34.599" height="304.497" transform="translate(-0.678 30.842) rotate(-89.293)" fill="url(#ap)"/></g></g><g transform="translate(0 0)"><g clip-path="url(#a)"><g transform="translate(127.18 41.29)" opacity="0.85"><g clip-path="url(#ar)"><g transform="translate(0 -0.001)"><g clip-path="url(#as)"><rect width="4.858" height="4.859" transform="translate(0)" fill="url(#at)"/></g></g><g transform="translate(0 7.117)"><g clip-path="url(#au)"><rect width="4.858" height="4.858" transform="translate(0)" fill="url(#av)"/></g></g><g transform="translate(0 14.235)"><g clip-path="url(#aw)"><rect width="4.858" height="4.858" transform="translate(0 0)" fill="url(#ax)"/></g></g></g></g><g transform="translate(136.503 86.972)" opacity="0.62"><g clip-path="url(#ay)"><path d="M464.728,285.536a38.5,38.5,0,1,1-38.5-38.5,38.5,38.5,0,0,1,38.5,38.5" transform="translate(-387.729 -247.038)" fill="#fff"/></g></g></g></g><g transform="translate(166.514 116.982)"><g clip-path="url(#az)"><rect width="23.912" height="23.911" transform="translate(-8.353 9.998) rotate(-50.123)" fill="url(#ba)"/></g></g><g transform="translate(0 0)"><g clip-path="url(#a)"><path d="M461.021,313.254a24.729,24.729,0,1,1-20.451-38.633q.628,0,1.247.032v-6.269c-.414-.016-.829-.027-1.247-.027A30.993,30.993,0,1,0,466.1,316.929Z" transform="translate(-265.383 -173.88)" fill="#fff"/></g></g><g transform="translate(231.633 90.513)"><g clip-path="url(#bc)"><rect width="15.996" height="15.996" transform="translate(-5.667 5.423) rotate(-43.841)" fill="url(#bd)"/></g></g><g transform="translate(231.82 90.7)"><g clip-path="url(#be)"><rect width="15.175" height="15.18" transform="translate(-5.077 7.532) rotate(-56.12)" fill="url(#bf)"/></g></g><g transform="translate(232.248 95.222)"><g clip-path="url(#bg)"><rect width="0.077" height="0.632" transform="translate(0 0)" fill="url(#bh)"/></g></g><g transform="translate(232.792 91.12)"><g clip-path="url(#bi)"><rect width="5.423" height="2.739" transform="translate(0 0)" fill="url(#bj)"/></g></g><g transform="translate(231.633 124.711)"><g clip-path="url(#bk)"><rect width="15.996" height="15.996" transform="matrix(0.721, -0.693, 0.693, 0.721, -5.667, 5.423)" fill="url(#bl)"/></g></g><g transform="translate(231.82 124.898)"><g clip-path="url(#bm)"><rect width="15.174" height="15.18" transform="translate(-5.077 7.531) rotate(-56.12)" fill="url(#bn)"/></g></g><g transform="translate(232.248 129.42)"><g clip-path="url(#bo)"><rect width="0.077" height="0.632" transform="translate(0 0)" fill="url(#bp)"/></g></g><g transform="translate(232.792 125.318)"><g clip-path="url(#bq)"><rect width="5.423" height="2.739" transform="translate(0 0)" fill="url(#br)"/></g></g><g transform="translate(231.633 158.909)"><g clip-path="url(#bs)"><rect width="15.996" height="15.995" transform="translate(-5.667 5.423) rotate(-43.841)" fill="url(#bt)"/></g></g><g transform="translate(231.82 159.096)"><g clip-path="url(#bu)"><rect width="15.174" height="15.18" transform="translate(-5.077 7.531) rotate(-56.12)" fill="url(#bv)"/></g></g><g transform="translate(232.248 163.618)"><g clip-path="url(#bw)"><rect width="0.077" height="0.632" transform="translate(0 0)" fill="url(#bx)"/></g></g><g transform="translate(232.792 159.516)"><g clip-path="url(#by)"><rect width="5.423" height="2.739" transform="translate(0 0)" fill="url(#bz)"/></g></g><g transform="translate(0 0)"><g clip-path="url(#a)"><g transform="translate(251.591 90.88)" opacity="0.62"><g clip-path="url(#cb)"><path d="M714.636,263.157l.026.961c.07,2.6,1.7,4.665,3.68,4.675l109.766.229c2.05.011,3.715-2.168,3.711-4.855,0-2.635-1.612-4.784-3.622-4.837L718.4,258.14c-2.122-.056-3.844,2.236-3.769,5.017" transform="translate(-714.633 -258.139)" fill="#fff"/></g></g><g transform="translate(251.591 124.91)" opacity="0.62"><g clip-path="url(#cc)"><path d="M714.636,359.821l.026.961c.07,2.6,1.7,4.665,3.68,4.675l109.766.229c2.05.011,3.715-2.167,3.711-4.855,0-2.635-1.612-4.784-3.622-4.837L718.4,354.8c-2.122-.056-3.844,2.237-3.769,5.018" transform="translate(-714.633 -354.801)" fill="#fff"/></g></g><g transform="translate(251.591 158.942)" opacity="0.62"><g clip-path="url(#cd)"><path d="M714.636,456.485l.026.961c.07,2.6,1.7,4.665,3.68,4.675l109.766.229c2.05.011,3.715-2.167,3.711-4.855,0-2.635-1.612-4.784-3.622-4.837L718.4,451.468c-2.122-.056-3.844,2.236-3.769,5.017" transform="translate(-714.633 -451.467)" fill="#fff"/></g></g></g></g><g transform="translate(133.189 190.784)"><g clip-path="url(#ce)"><rect width="155.038" height="224.024" transform="matrix(0.538, -0.843, 0.843, 0.538, -11.586, 17.278)" fill="url(#cf)"/></g></g><g transform="translate(638.386 429.279)"><g clip-path="url(#cg)"><rect width="57.496" height="14.248" transform="matrix(0.157, -0.988, 0.988, 0.157, -8.896, 55.96)" fill="url(#ch)"/></g></g><g transform="translate(617.805 484.306)"><g clip-path="url(#ci)"><rect width="10.706" height="46.433" transform="translate(-0.536 3.369) rotate(-80.967)" fill="url(#cj)"/></g></g><g transform="translate(610.969 415.616)"><g clip-path="url(#ck)"><rect width="27.14" height="64.086" transform="translate(-2.731 17.176) rotate(-80.967)" fill="url(#cl)"/></g></g><g transform="translate(577.798 467.877)"><g clip-path="url(#cm)"><rect width="27.747" height="20.962" transform="translate(-4.035 0.603) rotate(-11.033)" fill="url(#cn)"/></g></g><g transform="translate(590.827 460.785)"><g clip-path="url(#co)"><rect width="12.073" height="10.457" transform="matrix(0.216, -0.976, 0.976, 0.216, -2.217, 10.019)" fill="url(#cp)"/></g></g><g transform="translate(581.657 402.975)"><g clip-path="url(#cq)"><rect width="85.066" height="82.721" transform="translate(-31.152 9.449) rotate(-23.028)" fill="url(#cr)"/></g></g><g transform="translate(574.935 475.82)"><g clip-path="url(#cs)"><rect width="19.246" height="28.895" transform="translate(-3.275 11.584) rotate(-74.211)" fill="url(#ct)"/></g></g><g transform="translate(573.401 481.523)"><g clip-path="url(#cu)"><rect width="14.089" height="28.71" transform="translate(-2.45 7.941) rotate(-77.52)" fill="url(#cv)"/></g></g><g transform="translate(595.087 470.333)"><g clip-path="url(#cw)"><rect width="11.999" height="11.913" transform="translate(-2.387 9.612) rotate(-77.52)" fill="url(#cx)"/></g></g><g transform="translate(596.39 400.414)"><g clip-path="url(#cy)"><rect width="88.386" height="86.243" transform="translate(-13.983 73.335) rotate(-79.205)" fill="url(#cz)"/></g></g><g transform="translate(590.793 349.277)"><g clip-path="url(#da)"><rect width="53.751" height="53.053" transform="matrix(0.63, -0.777, 0.777, 0.63, -19.739, 24.337)" fill="url(#db)"/></g></g><g transform="translate(562.426 367.426)"><g clip-path="url(#dc)"><rect width="26.445" height="34.528" transform="translate(-4.273 19.304) rotate(-77.52)" fill="url(#dd)"/></g></g><g transform="translate(608.965 333.528)"><g clip-path="url(#de)"><rect width="93.742" height="98.89" transform="translate(-32.3 15.509) rotate(-26.565)" fill="url(#df)"/></g></g><g transform="translate(619.593 323.267)"><g clip-path="url(#dg)"><rect width="23.46" height="22.213" transform="translate(-4.214 19.039) rotate(-77.52)" fill="url(#dh)"/></g></g><g transform="translate(656.107 336.35)"><g clip-path="url(#di)"><rect width="61.319" height="66.103" transform="translate(-21.134 10.567) rotate(-26.565)" fill="url(#dj)"/></g></g><g transform="translate(631.896 376.912)"><g clip-path="url(#dk)"><rect width="51.461" height="53.64" transform="matrix(0.674, -0.738, 0.738, 0.674, -10.038, 10.99)" fill="url(#dl)"/></g></g><g transform="translate(612.722 303.606)"><g clip-path="url(#dm)"><rect width="30.544" height="29.009" transform="translate(-5.321 24.959) rotate(-77.966)" fill="url(#dn)"/></g></g><g transform="translate(609.263 295.524)"><g clip-path="url(#do)"><rect width="52.477" height="52.887" transform="translate(-19.66 16.861) rotate(-40.88)" fill="url(#dp)"/></g></g><g transform="translate(629.333 321.211)"><g clip-path="url(#dq)"><rect width="10.73" height="10.878" transform="translate(-0.836 9.842) rotate(-85.146)" fill="url(#dr)"/></g></g><g transform="translate(569.141 387.844)"><g clip-path="url(#ds)"><rect width="52.443" height="20.99" transform="translate(-1.324 0.434) rotate(-18.158)" fill="url(#dt)"/></g></g><g transform="translate(523.737 347.54)"><g clip-path="url(#du)"><rect width="81.317" height="82.346" transform="matrix(0.687, -0.726, 0.726, 0.687, -22.955, 23.609)" fill="url(#dv)"/></g></g><g transform="translate(549.394 364.067)"><g clip-path="url(#dw)"><rect width="13.271" height="12.51" transform="matrix(0.553, -0.833, 0.833, 0.553, -5.405, 7.396)" fill="url(#dx)"/></g></g><g transform="translate(0 0)"><g clip-path="url(#a)"><path d="M1512.073,1227.351a2.123,2.123,0,0,1-.818-.164,1.983,1.983,0,0,1-1.085-2.635l43.457-97.8a2.1,2.1,0,0,1,2.722-1.05,1.983,1.983,0,0,1,1.085,2.635l-43.457,97.8a2.077,2.077,0,0,1-1.9,1.214" transform="translate(-978.395 -729.283)" fill="#7d97f4"/><path d="M1571.146,1227.351a2.076,2.076,0,0,1-1.9-1.214l-43.457-97.8a1.982,1.982,0,0,1,1.085-2.635,2.1,2.1,0,0,1,2.722,1.05l43.457,97.8a1.983,1.983,0,0,1-1.085,2.635,2.121,2.121,0,0,1-.818.164" transform="translate(-988.513 -729.282)" fill="#7d97f4"/><path d="M1894.165,1227.351a2.123,2.123,0,0,1-.818-.164,1.983,1.983,0,0,1-1.085-2.635l43.457-97.8a2.1,2.1,0,0,1,2.722-1.05,1.982,1.982,0,0,1,1.085,2.635l-43.457,97.8a2.076,2.076,0,0,1-1.9,1.214" transform="translate(-1225.97 -729.283)" fill="#7d97f4"/><path d="M1953.238,1227.351a2.076,2.076,0,0,1-1.9-1.214l-43.457-97.8a1.982,1.982,0,0,1,1.085-2.635,2.1,2.1,0,0,1,2.722,1.05l43.457,97.8a1.983,1.983,0,0,1-1.085,2.635,2.121,2.121,0,0,1-.818.164" transform="translate(-1236.087 -729.282)" fill="#7d97f4"/><path d="M1679.985,1115.611a2.384,2.384,0,0,0-.411-1.809,1.88,1.88,0,0,0-1.508-.8h-197.7a2.2,2.2,0,0,0-1.9,1.162,2.781,2.781,0,0,0-.147,2.414l2.143,5.191a3,3,0,0,0,2.723,1.95h193.518a2.354,2.354,0,0,0,2.23-2.06Z" transform="translate(-957.737 -721.165)" fill="#7d97f4"/></g></g><g transform="translate(67.063 141.074)"><g clip-path="url(#dz)"><rect width="77.427" height="65.118" transform="translate(-23.588 56.842) rotate(-68.265)" fill="url(#ea)"/></g></g><g transform="translate(111.693 130.742)"><g clip-path="url(#eb)"><rect width="29.491" height="43.878" transform="matrix(0.997, -0.074, 0.074, 0.997, -3.107, 0.231)" fill="url(#ec)"/></g></g><g transform="translate(65.305 280.456)"><g clip-path="url(#ed)"><rect width="8.429" height="6.931" transform="translate(-0.193 0)" fill="url(#ee)"/></g></g><g transform="translate(98.402 237.268)"><g clip-path="url(#ef)"><rect width="15.588" height="49.943" transform="translate(-4.279 0.357) rotate(-4.89)" fill="url(#eg)"/></g></g><g transform="translate(98.135 277.372)"><g clip-path="url(#eh)"><rect width="13.731" height="10.02" transform="translate(-0.204 0)" fill="url(#ei)"/></g></g><g transform="translate(66.785 237.517)"><g clip-path="url(#ej)"><rect width="29.33" height="49.422" transform="matrix(0.996, -0.085, 0.085, 0.996, -4.097, 0.345)" fill="url(#ek)"/></g></g><g transform="translate(95.402 163.728)"><g clip-path="url(#el)"><rect width="38.637" height="30.035" transform="matrix(0.107, -0.994, 0.994, 0.107, -3.838, 35.609)" fill="url(#em)"/></g></g><g transform="translate(84.448 195.748)"><g clip-path="url(#en)"><rect width="50.937" height="56.402" transform="matrix(0.848, -0.53, 0.53, 0.848, -21.366, 13.354)" fill="url(#eo)"/></g></g><g transform="translate(102.15 152.358)"><g clip-path="url(#ep)"><rect width="17.423" height="12.778" transform="translate(-4.209 14.52) rotate(-74.694)" fill="url(#eq)"/></g></g><g transform="translate(85.466 171.791)"><g clip-path="url(#er)"><rect width="25.306" height="34" transform="translate(-10.555 0)" fill="url(#es)"/></g></g><g transform="translate(102.385 140.851)"><g clip-path="url(#et)"><rect width="21.131" height="21.604" transform="translate(-8.523 10.404) rotate(-57.328)" fill="url(#eu)"/></g></g><g transform="translate(98.556 136.372)"><g clip-path="url(#ev)"><rect width="24.19" height="22.199" transform="translate(-7.446 16.942) rotate(-68.265)" fill="url(#ew)"/></g></g><g transform="translate(101.767 147.742)"><g clip-path="url(#ex)"><rect width="6.413" height="6.524" transform="translate(-3.293 3.187) rotate(-57.328)" fill="url(#ey)"/></g></g><g transform="translate(134.786 120.7)"><g clip-path="url(#ez)"><rect width="10.775" height="16.415" transform="matrix(0.997, -0.074, 0.074, 0.997, -1.458, 0.087)" fill="url(#fa)"/></g></g><g transform="translate(136.133 126.578)"><g clip-path="url(#fb)"><rect width="7.328" height="5.136" transform="matrix(0.109, -0.994, 0.994, 0.109, -0.747, 6.805)" fill="url(#fc)"/></g></g><g transform="translate(0 0)"><g clip-path="url(#a)"><path d="M1603.256,172.952l-2.018.555a.358.358,0,0,1-.194-.688h.005l2.027-.54a.349.349,0,0,1,.18.675" transform="translate(-1037.217 -111.618)" fill="#fff"/><path d="M1584.134,178.257l-2,.6a.385.385,0,0,1-.226-.736l.006,0,2.015-.585a.377.377,0,0,1,.21.723" transform="translate(-1024.808 -115.022)" fill="#fff"/><path d="M1565.144,183.992l-1.99.645a.412.412,0,1,1-.259-.782l.006,0,2-.631a.4.4,0,0,1,.243.771" transform="translate(-1012.484 -118.705)" fill="#fff"/><path d="M1546.292,190.151l-1.975.689a.439.439,0,1,1-.295-.828l.006,0,1.986-.676a.431.431,0,0,1,.278.817" transform="translate(-1000.249 -122.663)" fill="#fff"/><path d="M1527.587,196.729l-1.959.733a.467.467,0,0,1-.333-.873l.006,0,1.971-.72a.459.459,0,0,1,.315.862" transform="translate(-988.11 -126.892)" fill="#fff"/><path d="M1509.036,203.721l-1.942.777a.495.495,0,0,1-.373-.916l.007,0,1.954-.763a.486.486,0,1,1,.354.9" transform="translate(-976.07 -131.391)" fill="#fff"/><path d="M1490.648,211.121l-1.925.819a.522.522,0,1,1-.415-.957l.007,0,1.937-.807a.514.514,0,0,1,.4.948" transform="translate(-964.136 -136.154)" fill="#fff"/><path d="M1472.43,218.924l-1.906.861h0a.549.549,0,1,1-.452-1l0,0,1.919-.849a.541.541,0,0,1,.442.988Z" transform="translate(-952.312 -141.179)" fill="#fff"/><path d="M1454.391,227.126l-1.887.9,0,0a.577.577,0,0,1-.5-1.041l0,0,1.9-.891a.568.568,0,0,1,.487,1.027Z" transform="translate(-940.604 -146.463)" fill="#fff"/><path d="M1436.539,235.72l-1.866.944,0,0a.6.6,0,0,1-.545-1.078l0,0,1.881-.933a.6.6,0,0,1,.534,1.066Z" transform="translate(-929.017 -152.001)" fill="#fff"/><path d="M1418.881,244.7l-1.845.984,0,0a.631.631,0,0,1-.594-1.114l0,0,1.86-.973a.623.623,0,0,1,.582,1.1Z" transform="translate(-917.555 -157.791)" fill="#fff"/><path d="M1401.424,254.067l-1.823,1.024,0,0a.659.659,0,1,1-.645-1.149l0,0,1.839-1.014a.65.65,0,0,1,.633,1.137Z" transform="translate(-906.224 -163.83)" fill="#fff"/><path d="M1384.178,263.808l-1.8,1.063,0,0a.686.686,0,0,1-.7-1.182l0,0,1.816-1.053a.678.678,0,0,1,.685,1.17Z" transform="translate(-895.029 -170.113)" fill="#fff"/><path d="M1367.149,273.922l-1.777,1.1,0,0a.714.714,0,1,1-.752-1.213l0,0,1.794-1.092a.705.705,0,0,1,.739,1.2Z" transform="translate(-883.975 -176.639)" fill="#fff"/><path d="M1350.347,284.4l-1.753,1.14,0,0a.741.741,0,1,1-.808-1.243l0,0,1.77-1.132a.733.733,0,0,1,.795,1.231Z" transform="translate(-873.069 -183.402)" fill="#fff"/><path d="M1333.78,295.244l-1.727,1.177,0,0a.768.768,0,1,1-.866-1.27l0,0,1.745-1.17a.76.76,0,0,1,.852,1.26Z" transform="translate(-862.314 -190.4)" fill="#fff"/><path d="M1317.473,306.448l-1.7,1.211,0,0a.785.785,0,0,1-.91-1.279l0,0,1.717-1.21a.78.78,0,1,1,.9,1.276Z" transform="translate(-851.738 -197.641)" fill="#fff"/><path d="M1301.412,318.009l-1.677,1.248,0,0a.8.8,0,1,1-.956-1.284l0,0,1.69-1.247a.8.8,0,0,1,.945,1.281Z" transform="translate(-841.324 -205.12)" fill="#fff"/><path d="M1285.611,329.916l-1.649,1.284,0,0a.816.816,0,0,1-1-1.287l0,0,1.663-1.284a.811.811,0,1,1,.991,1.284Z" transform="translate(-831.079 -212.825)" fill="#fff"/><path d="M1270.073,342.165l-1.62,1.32,0,0a.831.831,0,0,1-1.05-1.289l0,0,1.634-1.319a.827.827,0,1,1,1.038,1.286Z" transform="translate(-821.005 -220.75)" fill="#fff"/><path d="M1254.811,354.748l-1.591,1.355,0,0a.847.847,0,0,1-1.1-1.289l0,0,1.605-1.355a.842.842,0,1,1,1.086,1.287Z" transform="translate(-811.109 -228.893)" fill="#fff"/><path d="M1239.829,367.664l-1.561,1.389,0,0a.862.862,0,1,1-1.146-1.288l0,0,1.576-1.39a.857.857,0,1,1,1.134,1.286Z" transform="translate(-801.396 -237.252)" fill="#fff"/><path d="M1225.137,380.9l-1.53,1.423,0,0a.877.877,0,1,1-1.2-1.285l0,0,1.545-1.424a.873.873,0,0,1,1.183,1.284Z" transform="translate(-791.87 -245.822)" fill="#fff"/><path d="M1210.744,394.464l-1.5,1.456,0,0a.893.893,0,1,1-1.245-1.28l0,0,1.512-1.458a.888.888,0,1,1,1.233,1.279Z" transform="translate(-782.539 -254.599)" fill="#fff"/><path d="M1196.656,408.336l-1.465,1.489,0,0a.908.908,0,1,1-1.295-1.274l0,0,1.48-1.491a.9.9,0,1,1,1.282,1.273Z" transform="translate(-773.406 -263.58)" fill="#fff"/><path d="M1182.882,422.521l-1.432,1.521,0,0a.924.924,0,1,1-1.345-1.266l0,0,1.447-1.523a.919.919,0,0,1,1.333,1.265Z" transform="translate(-764.476 -272.763)" fill="#fff"/><path d="M1169.43,437.008l-1.4,1.553,0,0a.939.939,0,0,1-1.4-1.257l0,0,1.412-1.556a.934.934,0,0,1,1.384,1.256Z" transform="translate(-755.756 -282.143)" fill="#fff"/><path d="M1156.309,451.794l-1.362,1.584,0,0a.954.954,0,0,1-1.447-1.245l0,0,1.377-1.587a.95.95,0,1,1,1.435,1.245Z" transform="translate(-747.251 -291.717)" fill="#fff"/><path d="M1143.526,466.872l-1.325,1.614,0,.005a.97.97,0,0,1-1.5-1.231l0,0,1.341-1.618a.965.965,0,1,1,1.486,1.232Z" transform="translate(-738.965 -301.481)" fill="#fff"/><path d="M1131.135,482.24l-1.27,1.65-.008.01a.985.985,0,1,1-1.561-1.2l0,0,1.293-1.664a.981.981,0,1,1,1.549,1.2Z" transform="translate(-730.939 -311.434)" fill="#fff"/><path d="M1119.414,498.064l-1.187,1.706-.009.013a1,1,0,1,1-1.643-1.143l0,0,1.214-1.728a1,1,0,0,1,1.63,1.145Z" transform="translate(-723.361 -321.694)" fill="#fff"/><path d="M1108.583,514.47l-1.081,1.771-.011.018a1.016,1.016,0,0,1-1.735-1.059l0,0,1.11-1.8a1.011,1.011,0,0,1,1.722,1.062Z" transform="translate(-716.371 -332.339)" fill="#fff"/><path d="M1098.907,531.542l-.943,1.842-.012.023a1.031,1.031,0,1,1-1.836-.94l0,0,.975-1.883a1.027,1.027,0,1,1,1.824.944Z" transform="translate(-710.148 -343.425)" fill="#fff"/><path d="M1090.736,549.337l-.764,1.915-.012.031a1.047,1.047,0,1,1-1.944-.776l0,0,.8-1.973a1.042,1.042,0,0,1,1.932.781Z" transform="translate(-704.924 -354.994)" fill="#fff"/><path d="M1084.528,567.87l-.534,1.983-.011.04a1.061,1.061,0,1,1-2.05-.552v0l.563-2.061a1.057,1.057,0,1,1,2.04.557Z" transform="translate(-701.008 -367.059)" fill="#fff"/><path d="M1080.849,587.065l-.245,2.03-.006.05a1.066,1.066,0,1,1-2.117-.255h0l.26-2.13a1.065,1.065,0,0,1,2.114.258Z" transform="translate(-698.79 -379.58)" fill="#fff"/><path d="M1080.079,606.646l.1,2.034,0,.058a1.071,1.071,0,0,1-2.14.107v0l-.1-2.15a1.07,1.07,0,0,1,2.137-.1Z" transform="translate(-698.443 -392.376)" fill="#fff"/><path d="M1082.291,626.123l.476,1.978.014.059a1.076,1.076,0,0,1-2.093.5h0l-.5-2.1a1.075,1.075,0,0,1,2.091-.5Z" transform="translate(-699.881 -405.12)" fill="#fff"/><path d="M1088.146,644.808l.854,1.842.026.058a1.081,1.081,0,0,1-1.962.909v0l-.9-1.959a1.08,1.08,0,1,1,1.961-.905Z" transform="translate(-703.705 -417.356)" fill="#fff"/><path d="M1097.544,662l1.188,1.651.035.047a1.087,1.087,0,1,1-1.763,1.27h0l-1.255-1.748a1.085,1.085,0,0,1,1.763-1.266Z" transform="translate(-709.851 -428.612)" fill="#fff"/><path d="M1109.948,677.184l1.458,1.427.038.037a1.092,1.092,0,1,1-1.527,1.561h0l-1.532-1.5a1.09,1.09,0,0,1,1.527-1.556Z" transform="translate(-717.959 -438.551)" fill="#fff"/><path d="M1124.7,690.135l1.664,1.193.038.027a1.1,1.1,0,1,1-1.278,1.783h0l-1.738-1.25a1.1,1.1,0,0,1,1.279-1.779Z" transform="translate(-727.594 -447.018)" fill="#fff"/><path d="M1141.208,700.808l1.814.958.038.02a1.1,1.1,0,1,1-1.029,1.949h0l-1.889-1a1.1,1.1,0,1,1,1.031-1.945Z" transform="translate(-738.367 -453.988)" fill="#fff"/><path d="M1158.994,709.227l1.925.728.038.014a1.107,1.107,0,1,1-.783,2.071h0l-2-.759a1.106,1.106,0,0,1,.785-2.068Z" transform="translate(-749.969 -459.483)" fill="#fff"/><path d="M1177.691,715.423l2,.495.038.009a1.112,1.112,0,1,1-.536,2.159h0l-2.07-.516a1.111,1.111,0,0,1,.538-2.155Z" transform="translate(-762.16 -463.526)" fill="#fff"/><path d="M1196.976,719.384l2.039.258.039.005a1.117,1.117,0,1,1-.281,2.217h0l-2.117-.271a1.116,1.116,0,1,1,.284-2.213Z" transform="translate(-774.733 -466.111)" fill="#fff"/><path d="M1216.6,721.044c.684.007,1.367.02,2.056.011a1.123,1.123,0,0,1,.03,2.245h-.007c-.708.008-1.421-.006-2.133-.015a1.121,1.121,0,1,1,.026-2.242Z" transform="translate(-787.533 -467.195)" fill="#fff"/><path d="M1236.3,720.126l2.057-.183.03,0a1.128,1.128,0,1,1,.2,2.247h0l-2.116.186a1.126,1.126,0,1,1-.2-2.243Z" transform="translate(-800.367 -466.477)" fill="#fff"/><path d="M1255.888,717.467l2.038-.353.026,0a1.133,1.133,0,0,1,.387,2.232h0l-2.09.359a1.131,1.131,0,1,1-.384-2.23Z" transform="translate(-813.12 -464.635)" fill="#fff"/><path d="M1275.247,713.318l2.012-.5.021,0a1.138,1.138,0,1,1,.548,2.208h0l-2.056.507a1.137,1.137,0,0,1-.544-2.207Z" transform="translate(-825.715 -461.841)" fill="#fff"/><path d="M1294.318,707.922l1.982-.619.018-.005a1.143,1.143,0,0,1,.681,2.182h0l-2.018.627a1.142,1.142,0,0,1-.677-2.181Z" transform="translate(-838.114 -458.255)" fill="#fff"/><path d="M1313.087,701.52l1.954-.715.013,0a1.148,1.148,0,1,1,.789,2.157h0l-1.982.722a1.146,1.146,0,1,1-.784-2.155Z" transform="translate(-850.309 -454.033)" fill="#fff"/><path d="M1331.568,694.335l1.931-.788.01,0a1.153,1.153,0,1,1,.872,2.135h0l-1.953.794a1.152,1.152,0,0,1-.867-2.134Z" transform="translate(-862.31 -449.321)" fill="#fff"/><path d="M1349.828,686.571l1.911-.839.007,0a1.158,1.158,0,0,1,.932,2.121h0l-1.926.844a1.157,1.157,0,0,1-.928-2.12Z" transform="translate(-874.16 -444.249)" fill="#fff"/><path d="M1367.913,678.421l1.9-.873,0,0a1.163,1.163,0,1,1,.971,2.114h0l-1.909.873a1.162,1.162,0,1,1-.967-2.113Z" transform="translate(-885.889 -438.942)" fill="#fff"/><path d="M1385.9,670.055l1.9-.888,0,0a1.169,1.169,0,0,1,.991,2.117h0l-1.9.888a1.167,1.167,0,1,1-.987-2.115" transform="translate(-897.551 -433.509)" fill="#fff"/><path d="M1403.671,661.178l1.8-.988.039-.022a1.173,1.173,0,0,1,1.13,2.057h0l-1.875,1.026a1.172,1.172,0,0,1-1.125-2.056Z" transform="translate(-909.083 -427.658)" fill="#fff"/><path d="M1420.3,650.189l1.55-1.271.07-.057a1.178,1.178,0,1,1,1.494,1.822h0l-1.689,1.381a1.176,1.176,0,0,1-1.489-1.822Z" transform="translate(-919.951 -420.251)" fill="#fff"/><path d="M1433.977,635.528l1.017-1.654.079-.129a1.181,1.181,0,0,1,2.013,1.237v0l-1.18,1.913a1.18,1.18,0,0,1-2.008-1.239Z" transform="translate(-928.97 -410.266)" fill="#fff"/><path d="M1441.6,617.3l.252-1.919.021-.16a1.186,1.186,0,1,1,2.352.308v0l-.3,2.236a1.185,1.185,0,1,1-2.349-.311Z" transform="translate(-934.058 -397.959)" fill="#fff"/><path d="M1439.258,598.727a9.487,9.487,0,0,0-.744-1.7,1.191,1.191,0,0,1,2.074-1.17,11.637,11.637,0,0,1,.936,2.131,1.192,1.192,0,0,1-2.267.741" transform="translate(-931.977 -385.688)" fill="#fff"/><path d="M1426.071,585.666a9.651,9.651,0,0,0-1.652-.863,1.181,1.181,0,0,1,.887-2.19,12.009,12.009,0,0,1,2.059,1.07,1.184,1.184,0,1,1-1.291,1.986Z" transform="translate(-922.466 -377.444)" fill="#fff"/><path d="M1407.328,582.216l-1.968.043-.12,0a1.171,1.171,0,0,1-.054-2.34l2.218-.054a1.173,1.173,0,1,1,.057,2.346h0Z" transform="translate(-909.741 -375.721)" fill="#fff"/><path d="M1388.263,584.665l-1.948.565-.063.018a1.162,1.162,0,0,1-.651-2.232l2.075-.608a1.165,1.165,0,1,1,.655,2.237h0Z" transform="translate(-897.25 -377.337)" fill="#fff"/><path d="M1370,591.281l-1.888.847-.023.01a1.153,1.153,0,0,1-.947-2.1l1.932-.873a1.157,1.157,0,1,1,.952,2.108h0Z" transform="translate(-885.388 -381.676)" fill="#fff"/><path d="M1352.341,599.854l-1.821.983-.023.012a1.144,1.144,0,0,1-1.09-2.012l1.863-1.012a1.147,1.147,0,0,1,1.1,2.016l0,0Z" transform="translate(-873.952 -387.266)" fill="#fff"/><path d="M1335.382,609.711l-1.743,1.115-.022.014a1.135,1.135,0,0,1-1.226-1.911l1.783-1.148a1.138,1.138,0,1,1,1.232,1.913l0,0Z" transform="translate(-862.977 -393.691)" fill="#fff"/><path d="M1319.242,620.827l-1.65,1.247-.021.017a1.126,1.126,0,0,1-1.36-1.795l1.69-1.284a1.129,1.129,0,0,1,1.365,1.8h0Z" transform="translate(-852.541 -400.935)" fill="#fff"/><path d="M1304.068,633.2l-1.54,1.378-.022.019a1.117,1.117,0,0,1-1.491-1.662l1.579-1.42a1.119,1.119,0,0,1,1.5,1.664l0,0Z" transform="translate(-842.744 -408.999)" fill="#fff"/><path d="M1290.051,646.836l-1.407,1.509-.021.023a1.107,1.107,0,0,1-1.622-1.508l1.446-1.559a1.11,1.11,0,1,1,1.628,1.509l0,0Z" transform="translate(-833.712 -417.889)" fill="#fff"/><path d="M1277.427,661.738l-1.248,1.64-.021.028a1.1,1.1,0,0,1-1.749-1.328l1.285-1.7a1.1,1.1,0,0,1,1.755,1.329l0,0Z" transform="translate(-825.6 -427.606)" fill="#fff"/><path d="M1266.477,677.885l-1.057,1.765-.02.033a1.089,1.089,0,0,1-1.869-1.116l1.092-1.833a1.091,1.091,0,1,1,1.876,1.117v0Z" transform="translate(-818.596 -438.139)" fill="#fff"/><path d="M1257.527,695.213l-.832,1.877-.017.038a1.079,1.079,0,0,1-1.975-.872l.86-1.956a1.082,1.082,0,1,1,1.981.872v0Z" transform="translate(-812.917 -449.448)" fill="#fff"/><path d="M1250.909,713.572l-.574,1.968-.012.043a1.07,1.07,0,0,1-2.056-.6l.593-2.055a1.073,1.073,0,0,1,2.062.595v0Z" transform="translate(-808.779 -461.437)" fill="#fff"/><path d="M1246.909,732.726l-.291,2.029-.006.045a1.061,1.061,0,0,1-2.1-.3l.3-2.12a1.064,1.064,0,1,1,2.107.3v0Z" transform="translate(-806.366 -473.949)" fill="#fff"/><path d="M1245.693,752.352l0,2.051v.044a1.033,1.033,0,0,1-2.066.006l-.015-2.139a1.041,1.041,0,1,1,2.083-.015v.052Z" transform="translate(-805.789 -486.777)" fill="#fff"/><path d="M1246.736,772.056l.281,2.034.006.04a1,1,0,0,1-1.99.283l-.309-2.112a1.014,1.014,0,0,1,2.006-.294v.008Z" transform="translate(-806.503 -499.655)" fill="#fff"/><path d="M1250.422,791.463l.541,1.986.01.035a.977.977,0,0,1-1.883.521l-.576-2.051a.985.985,0,0,1,1.9-.533l0,.007Z" transform="translate(-808.942 -512.33)" fill="#fff"/><path d="M1256.494,810.284l.772,1.913.012.03a.949.949,0,0,1-1.757.717l-.811-1.966a.958.958,0,0,1,1.77-.731l0,.007Z" transform="translate(-812.934 -524.61)" fill="#fff"/><path d="M1264.664,828.317l.973,1.823.013.025a.921.921,0,0,1-1.621.874l-1.015-1.865a.929.929,0,1,1,1.633-.889l0,.006Z" transform="translate(-818.289 -536.368)" fill="#fff"/><path d="M1274.658,845.426l1.147,1.719.014.021a.893.893,0,0,1-1.482,1l-1.189-1.752a.9.9,0,1,1,1.492-1.012l0,.006Z" transform="translate(-824.827 -547.514)" fill="#fff"/><path d="M1286.23,861.511l1.3,1.612.015.018a.865.865,0,0,1-1.342,1.092l-1.344-1.637a.874.874,0,1,1,1.35-1.108l0,.005Z" transform="translate(-832.389 -557.988)" fill="#fff"/><path d="M1299.2,876.518l1.437,1.495.015.016a.837.837,0,0,1-1.2,1.165l-1.479-1.514a.845.845,0,0,1,1.21-1.182l0,0Z" transform="translate(-840.853 -567.755)" fill="#fff"/><path d="M1313.392,890.372l1.558,1.37.015.013a.809.809,0,0,1-1.063,1.22l-1.6-1.384a.818.818,0,1,1,1.069-1.237l.005,0Z" transform="translate(-850.115 -576.77)" fill="#fff"/><path d="M1328.7,903l1.665,1.245.013.009a.781.781,0,0,1-.931,1.255l-1.7-1.251a.79.79,0,0,1,.935-1.272l.005,0Z" transform="translate(-860.093 -584.983)" fill="#fff"/><path d="M1344.9,914.5l1.741,1.14.012.007a.739.739,0,0,1-.8,1.242l-1.781-1.13a.754.754,0,0,1,.809-1.274l.006,0Z" transform="translate(-870.655 -592.459)" fill="#fff"/><path d="M1361.82,925.012l1.806,1.039.01.006a.689.689,0,0,1-.679,1.2l-1.841-1.024A.7.7,0,0,1,1361.8,925l.006,0Z" transform="translate(-881.692 -599.291)" fill="#fff"/><path d="M1379.3,934.586l1.858.949.008,0a.64.64,0,0,1-.573,1.143l-1.887-.93a.655.655,0,1,1,.579-1.174l.005,0Z" transform="translate(-893.083 -605.509)" fill="#fff"/><path d="M1397.205,943.336l1.9.871.006,0a.59.59,0,0,1-.484,1.076l-1.923-.849a.6.6,0,0,1,.49-1.107l0,0Z" transform="translate(-904.751 -611.19)" fill="#fff"/><path d="M1415.445,951.387l1.926.806,0,0a.54.54,0,0,1-.41,1l-1.946-.782a.555.555,0,1,1,.414-1.03l0,0Z" transform="translate(-916.627 -616.415)" fill="#fff"/><path d="M1433.925,958.866l1.951.757a.49.49,0,0,1-.345.918l-1.968-.732a.505.505,0,1,1,.352-.947l.01,0" transform="translate(-928.654 -621.268)" fill="#fff"/><path d="M1452.589,965.914l1.969.721a.441.441,0,0,1-.3.83l-1.982-.695a.455.455,0,1,1,.3-.86l.008,0" transform="translate(-940.798 -625.839)" fill="#fff"/><path d="M1471.374,972.66l1.977.7a.39.39,0,0,1-.254.738l-1.989-.671a.406.406,0,0,1,.26-.769l.006,0" transform="translate(-953.016 -630.213)" fill="#fff"/><path d="M1490.223,979.24l.915.319a.349.349,0,0,1-.225.661l-.919-.306a.356.356,0,1,1,.225-.675l0,0" transform="translate(-965.273 -634.479)" fill="#fff"/><path d="M1634.2,118.754l2.352,17.282,10.693-9.023Z" transform="translate(-1058.867 -76.946)" fill="#7d97f4"/><path d="M1678.222,60.531l-41.1,47.291a4.414,4.414,0,0,1-6.351.325l-45.927-43.054a1.769,1.769,0,0,1,1.182-3.06Z" transform="translate(-1026.527 -39.22)" fill="#91b3fa"/><path d="M1634.212,81.031l76.36-20.5L1641.6,88l.449,4.821Z" transform="translate(-1058.877 -39.221)" fill="#7d97f4"/><path d="M1650.334,142.659l-9.457,6.21,5.044-10.31Z" transform="translate(-1063.196 -89.778)" fill="#7d97f4"/></g></g></g></svg>