<svg xmlns="http://www.w3.org/2000/svg" xmlns:xlink="http://www.w3.org/1999/xlink" width="684.363" height="510" viewBox="0 0 684.363 510"><defs><clipPath id="a"><rect width="684.363" height="510" fill="none"/></clipPath><clipPath id="e"><rect width="160.389" height="43.469" fill="none"/></clipPath><clipPath id="f"><rect width="143.611" height="38.922" fill="none"/></clipPath><clipPath id="g"><rect width="154.511" height="184.332" fill="none"/></clipPath><clipPath id="h"><rect width="0.267" height="0.075" fill="none"/></clipPath><clipPath id="i"><rect width="118.478" height="30.627" fill="none"/></clipPath><clipPath id="j"><rect width="3.21" height="0.152" fill="none"/></clipPath><clipPath id="k"><rect width="0.286" height="0.062" fill="none"/></clipPath><clipPath id="l"><rect width="1.37" height="0.334" fill="none"/></clipPath><clipPath id="m"><rect width="161.079" height="43.496" fill="none"/></clipPath><clipPath id="n"><rect width="54.344" height="71.353" fill="none"/></clipPath><clipPath id="o"><rect width="80.811" height="48.024" fill="none"/></clipPath><clipPath id="q"><rect width="124.805" height="210.885" fill="none"/></clipPath><clipPath id="r"><rect width="71.118" height="6.673" fill="none"/></clipPath><clipPath id="s"><rect width="77.715" height="12.891" fill="none"/></clipPath><clipPath id="t"><rect width="79.446" height="10.402" fill="none"/></clipPath><clipPath id="u"><rect width="75.994" height="20.942" fill="none"/></clipPath><clipPath id="v"><rect width="24.784" height="31.583" fill="none"/></clipPath><clipPath id="w"><rect width="32.281" height="32.468" fill="none"/></clipPath><clipPath id="x"><rect width="34.077" height="75.439" fill="none"/></clipPath><clipPath id="y"><rect width="37.613" height="48.537" fill="none"/></clipPath><clipPath id="z"><rect width="13.03" height="28.267" fill="none"/></clipPath><clipPath id="aa"><rect width="66.096" height="13" fill="none"/></clipPath><clipPath id="ab"><rect width="43.749" height="9.479" fill="none"/></clipPath><clipPath id="ac"><rect width="53.204" height="4.135" fill="none"/></clipPath><clipPath id="ad"><rect width="31.5" height="7.479" fill="none"/></clipPath><clipPath id="ae"><rect width="44.41" height="3.445" fill="none"/></clipPath><clipPath id="af"><rect width="47.165" height="3.191" fill="none"/></clipPath><clipPath id="ag"><rect width="65.114" height="12.25" fill="none"/></clipPath><clipPath id="ah"><rect width="74.122" height="10.999" fill="none"/></clipPath><clipPath id="ai"><rect width="24.998" height="4.25" fill="none"/></clipPath><clipPath id="aj"><rect width="68.002" height="17.023" fill="none"/></clipPath><clipPath id="ak"><rect width="58.249" height="15.792" fill="none"/></clipPath><clipPath id="al"><rect width="43.999" height="18.226" fill="none"/></clipPath><clipPath id="am"><rect width="56.268" height="21.505" fill="none"/></clipPath><clipPath id="an"><rect width="15.367" height="2.75" fill="none"/></clipPath><clipPath id="ao"><rect width="56.634" height="7.75" fill="none"/></clipPath><clipPath id="ap"><rect width="68.123" height="8.75" fill="none"/></clipPath><clipPath id="aq"><rect width="65.748" height="10.935" fill="none"/></clipPath><clipPath id="ar"><rect width="63.383" height="12.295" fill="none"/></clipPath><clipPath id="as"><rect width="23.816" height="4.5" fill="none"/></clipPath><clipPath id="at"><rect width="8.303" height="2.019" fill="none"/></clipPath><clipPath id="au"><rect width="52.131" height="10.753" fill="none"/></clipPath><clipPath id="av"><rect width="34.027" height="13.311" fill="none"/></clipPath><clipPath id="aw"><rect width="59.245" height="17.487" fill="none"/></clipPath><clipPath id="ax"><rect width="19.473" height="8.667" fill="none"/></clipPath><clipPath id="ay"><rect width="68.002" height="10.167" fill="none"/></clipPath><clipPath id="az"><rect width="68.247" height="9.166" fill="none"/></clipPath><clipPath id="ba"><rect width="57.165" height="11.333" fill="none"/></clipPath><clipPath id="bb"><rect width="32.539" height="2.959" fill="none"/></clipPath><clipPath id="bc"><rect width="58.664" height="9.015" fill="none"/></clipPath><clipPath id="bd"><rect width="33.558" height="3.752" fill="none"/></clipPath><clipPath id="be"><rect width="20.84" height="4.226" fill="none"/></clipPath><clipPath id="bf"><rect width="29.326" height="7.055" fill="none"/></clipPath><clipPath id="bg"><rect width="61.936" height="7.577" fill="none"/></clipPath><clipPath id="bh"><rect width="25.999" height="1.056" fill="none"/></clipPath><clipPath id="bi"><rect width="49.755" height="5.334" fill="none"/></clipPath><clipPath id="bj"><rect width="38.872" height="1" fill="none"/></clipPath><clipPath id="bk"><rect width="6.032" height="1.813" fill="none"/></clipPath><clipPath id="bl"><rect width="43.597" height="4.135" fill="none"/></clipPath><clipPath id="bn"><rect width="43.246" height="47.28" fill="none"/></clipPath><clipPath id="bo"><rect width="82.215" height="42.626" fill="none"/></clipPath><clipPath id="bp"><rect width="65.402" height="71.402" fill="none"/></clipPath><clipPath id="bq"><rect width="53.187" height="55.401" fill="none"/></clipPath><clipPath id="br"><rect width="13.006" height="49.904" fill="none"/></clipPath><clipPath id="bs"><rect width="21.214" height="40.707" fill="none"/></clipPath><clipPath id="bt"><rect width="13.701" height="38.728" fill="none"/></clipPath><clipPath id="bu"><rect width="156.429" height="177.165" fill="none"/></clipPath><clipPath id="bv"><rect width="55.312" height="53.847" fill="none"/></clipPath><clipPath id="bw"><rect width="0.932" height="0.933" fill="none"/></clipPath><clipPath id="bx"><rect width="0.933" height="0.933" fill="none"/></clipPath><clipPath id="by"><rect width="52.054" height="56.615" fill="none"/></clipPath><clipPath id="bz"><rect width="5.92" height="5.68" fill="none"/></clipPath><clipPath id="ca"><rect width="38.706" height="30.742" fill="none"/></clipPath><clipPath id="cb"><rect width="12.23" height="17.677" fill="none"/></clipPath><clipPath id="cd"><rect width="79.82" height="28.471" fill="none"/></clipPath><clipPath id="ce"><rect width="85.896" height="37.346" fill="none"/></clipPath><clipPath id="cf"><rect width="69.844" height="40.336" fill="none"/></clipPath><clipPath id="cg"><rect width="71.66" height="31.898" fill="none"/></clipPath><clipPath id="ch"><rect width="81.955" height="29.273" fill="none"/></clipPath><clipPath id="ci"><rect width="70.339" height="23.645" fill="none"/></clipPath><clipPath id="cj"><rect width="82.638" height="27.2" fill="none"/></clipPath></defs><g clip-path="url(#a)"><rect width="684.363" height="0.342" transform="translate(0 448.184)" fill="#ebebeb"/><rect width="45.335" height="0.342" transform="translate(570.456 470.215)" fill="#ebebeb"/><rect width="11.898" height="0.342" transform="translate(441.451 473.928)" fill="#ebebeb"/><rect width="26.269" height="0.342" transform="translate(542.818 457.505)" fill="#ebebeb"/><rect width="59.119" height="0.342" transform="translate(71.802 459.804)" fill="#ebebeb"/><rect width="8.668" height="0.342" transform="translate(143.109 459.804)" fill="#ebebeb"/><rect width="128.217" height="0.341" transform="translate(179.948 465.584)" fill="#ebebeb"/><g clip-path="url(#a)"><path d="M310.319,387.14H46.02a7.821,7.821,0,0,1-7.813-7.813V7.813A7.822,7.822,0,0,1,46.02,0h264.3a7.822,7.822,0,0,1,7.811,7.813V379.327a7.821,7.821,0,0,1-7.811,7.813M46.02.342a7.478,7.478,0,0,0-7.471,7.471V379.327a7.478,7.478,0,0,0,7.471,7.47h264.3a7.479,7.479,0,0,0,7.469-7.47V7.813A7.479,7.479,0,0,0,310.319.342Z" transform="translate(14.088)" fill="#ebebeb"/><path d="M526.616,387.14h-264.3a7.82,7.82,0,0,1-7.811-7.813V7.813A7.821,7.821,0,0,1,262.316,0h264.3a7.822,7.822,0,0,1,7.813,7.813V379.327a7.821,7.821,0,0,1-7.813,7.813M262.316.342a7.478,7.478,0,0,0-7.469,7.471V379.327a7.478,7.478,0,0,0,7.469,7.47h264.3a7.479,7.479,0,0,0,7.471-7.47V7.813A7.479,7.479,0,0,0,526.616.342Z" transform="translate(93.843)" fill="#ebebeb"/><rect width="11.375" height="11.374" transform="translate(225.099 109.059) rotate(-12.15)" fill="#ebebeb"/><path d="M257.462,132.392a62.707,62.707,0,1,1-74.5-48.1,62.709,62.709,0,0,1,74.5,48.1" transform="translate(49.203 30.557)" fill="#e0e0e0"/><path d="M247.341,131.913a54.592,54.592,0,1,1-64.86-41.878,54.592,54.592,0,0,1,64.86,41.878" transform="translate(51.389 32.743)" fill="#f0f0f0"/><rect width="20.493" height="12.823" transform="matrix(0.978, -0.21, 0.21, 0.978, 218.574, 100.415)" fill="#e0e0e0"/><path d="M185.889,129.007a5.313,5.313,0,1,1-6.313-4.076,5.313,5.313,0,0,1,6.313,4.076" transform="translate(64.667 46.021)" fill="#e0e0e0"/><path d="M169.666,96.494c1.664,3.5,3.089,7.078,4.524,10.649l2.059,5.385,1.942,5.42c1.295,3.613,2.494,7.254,3.664,10.9s2.291,7.314,3.356,11l-4.117-1.124q3.708-3.416,7.51-6.733,3.786-3.332,7.695-6.534c2.572-2.169,5.229-4.25,7.884-6.33,2.683-2.052,5.372-4.094,8.19-6-2.112,2.666-4.35,5.2-6.6,7.72-2.272,2.492-4.546,4.985-6.9,7.39-2.33,2.431-4.687,4.834-7.09,7.184s-4.818,4.693-7.275,6.987l-2.93,2.739-1.187-3.863c-1.125-3.663-2.184-7.347-3.212-11.039s-2.009-7.4-2.9-11.132l-1.341-5.6-1.226-5.634c-.756-3.774-1.519-7.546-2.043-11.388" transform="translate(62.56 35.58)" fill="#e0e0e0"/><path d="M490.34,126.736,441.1,269.876l-199.13-68.5,49.236-143.14,6.693,2.3a4.218,4.218,0,0,0-1.273,1.874,4.335,4.335,0,1,0,8.2,2.821,4.227,4.227,0,0,0,.149-2.261l6.668,2.294a4.229,4.229,0,0,0-1.273,1.874,4.335,4.335,0,0,0,8.2,2.821,4.227,4.227,0,0,0,.151-2.261L325.389,70a4.225,4.225,0,0,0-1.273,1.874,4.335,4.335,0,0,0,8.2,2.821,4.226,4.226,0,0,0,.149-2.261l6.668,2.294a4.217,4.217,0,0,0-1.273,1.874,4.335,4.335,0,1,0,8.2,2.821,4.226,4.226,0,0,0,.149-2.261l6.67,2.294a4.207,4.207,0,0,0-1.273,1.874,4.335,4.335,0,0,0,8.2,2.821,4.24,4.24,0,0,0,.149-2.261l6.668,2.294a4.225,4.225,0,0,0-1.273,1.874,4.335,4.335,0,0,0,8.2,2.821,4.227,4.227,0,0,0,.149-2.261l6.668,2.294a4.229,4.229,0,0,0-1.273,1.874,4.335,4.335,0,1,0,8.2,2.821,4.227,4.227,0,0,0,.151-2.261l6.668,2.294a4.217,4.217,0,0,0-1.273,1.874,4.335,4.335,0,0,0,8.2,2.821,4.226,4.226,0,0,0,.149-2.261l6.668,2.294a4.225,4.225,0,0,0-1.273,1.874,4.335,4.335,0,0,0,8.2,2.821,4.227,4.227,0,0,0,.149-2.261l6.67,2.294a4.207,4.207,0,0,0-1.273,1.874,4.335,4.335,0,0,0,8.2,2.821,4.24,4.24,0,0,0,.149-2.261l6.668,2.294a4.218,4.218,0,0,0-1.273,1.874,4.335,4.335,0,0,0,8.2,2.821,4.227,4.227,0,0,0,.149-2.261l6.668,2.294a4.236,4.236,0,0,0-1.273,1.874,4.335,4.335,0,0,0,8.2,2.821,4.227,4.227,0,0,0,.151-2.261l6.668,2.294a4.217,4.217,0,0,0-1.273,1.874,4.335,4.335,0,1,0,8.2,2.821,4.226,4.226,0,0,0,.149-2.261L476.572,122a4.217,4.217,0,0,0-1.273,1.874,4.335,4.335,0,1,0,8.2,2.821,4.225,4.225,0,0,0,.149-2.261Z" transform="translate(89.221 21.474)" fill="#f0f0f0"/><path d="M479.779,126.736l-10.034,29.173-199.132-68.5,10.034-29.173,6.693,2.3a4.218,4.218,0,0,0-1.273,1.874,4.335,4.335,0,1,0,8.2,2.821,4.227,4.227,0,0,0,.149-2.261l6.668,2.294a4.229,4.229,0,0,0-1.273,1.874,4.335,4.335,0,0,0,8.2,2.821,4.227,4.227,0,0,0,.151-2.261L314.828,70a4.225,4.225,0,0,0-1.273,1.874,4.335,4.335,0,0,0,8.2,2.821,4.226,4.226,0,0,0,.149-2.261l6.668,2.294A4.217,4.217,0,0,0,327.3,76.6a4.335,4.335,0,1,0,8.2,2.821,4.226,4.226,0,0,0,.149-2.261l6.67,2.294a4.207,4.207,0,0,0-1.273,1.874,4.335,4.335,0,0,0,8.2,2.821,4.24,4.24,0,0,0,.149-2.261l6.668,2.294a4.225,4.225,0,0,0-1.273,1.874,4.335,4.335,0,0,0,8.2,2.821,4.227,4.227,0,0,0,.149-2.261l6.668,2.294a4.229,4.229,0,0,0-1.273,1.874,4.335,4.335,0,1,0,8.2,2.821,4.227,4.227,0,0,0,.151-2.261l6.668,2.294a4.217,4.217,0,0,0-1.273,1.874,4.335,4.335,0,0,0,8.2,2.821,4.226,4.226,0,0,0,.149-2.261l6.668,2.294a4.225,4.225,0,0,0-1.273,1.874,4.335,4.335,0,0,0,8.2,2.821,4.227,4.227,0,0,0,.149-2.261l6.67,2.294a4.207,4.207,0,0,0-1.273,1.874,4.335,4.335,0,0,0,8.2,2.821,4.24,4.24,0,0,0,.149-2.261l6.668,2.294a4.218,4.218,0,0,0-1.273,1.874,4.335,4.335,0,0,0,8.2,2.821,4.227,4.227,0,0,0,.149-2.261l6.668,2.294a4.236,4.236,0,0,0-1.273,1.874,4.335,4.335,0,0,0,8.2,2.821,4.227,4.227,0,0,0,.151-2.261l6.668,2.294a4.217,4.217,0,0,0-1.273,1.874,4.335,4.335,0,1,0,8.2,2.821,4.226,4.226,0,0,0,.149-2.261L466.011,122a4.217,4.217,0,0,0-1.273,1.874,4.335,4.335,0,1,0,8.2,2.821,4.225,4.225,0,0,0,.149-2.261Z" transform="translate(99.782 21.474)" fill="#e0e0e0"/><rect width="23.069" height="23.069" transform="translate(423.412 158.207) rotate(-71.019)" fill="#fafafa"/><rect width="23.069" height="23.068" transform="translate(449.495 167.179) rotate(-71.019)" fill="#fafafa"/><rect width="23.069" height="23.068" transform="translate(475.577 176.15) rotate(-71.019)" fill="#fafafa"/><rect width="23.069" height="23.069" transform="translate(501.659 185.122) rotate(-71.019)" fill="#fafafa"/><rect width="23.069" height="23.069" transform="translate(527.741 194.094) rotate(-71.019)" fill="#fafafa"/><rect width="23.069" height="23.069" transform="translate(362.759 164.939) rotate(-71.019)" fill="#fafafa"/><rect width="23.069" height="23.069" transform="translate(388.841 173.911) rotate(-71.019)" fill="#fafafa"/><rect width="23.069" height="23.069" transform="translate(414.924 182.883) rotate(-71.019)" fill="#fafafa"/><rect width="23.069" height="23.069" transform="translate(441.006 191.855) rotate(-71.019)" fill="#fafafa"/><rect width="23.069" height="23.069" transform="translate(467.088 200.826) rotate(-71.019)" fill="#fafafa"/><rect width="23.069" height="23.069" transform="translate(493.171 209.798) rotate(-71.019)" fill="#fafafa"/><rect width="23.069" height="23.069" transform="translate(519.253 218.77) rotate(-71.019)" fill="#fafafa"/><rect width="23.069" height="23.069" transform="translate(354.271 189.616) rotate(-71.019)" fill="#fafafa"/><rect width="23.069" height="23.069" transform="translate(380.353 198.587) rotate(-71.019)" fill="#fafafa"/><rect width="23.069" height="23.069" transform="translate(406.436 207.559) rotate(-71.019)" fill="#fafafa"/><rect width="23.069" height="23.068" transform="translate(432.519 216.531) rotate(-71.019)" fill="#fafafa"/><rect width="23.069" height="23.069" transform="translate(458.6 225.503) rotate(-71.019)" fill="#fafafa"/><rect width="23.069" height="23.069" transform="translate(484.683 234.474) rotate(-71.019)" fill="#fafafa"/><rect width="23.069" height="23.069" transform="translate(510.765 243.446) rotate(-71.019)" fill="#fafafa"/><rect width="23.069" height="23.069" transform="translate(345.783 214.292) rotate(-71.019)" fill="#fafafa"/><rect width="23.069" height="23.069" transform="translate(371.865 223.264) rotate(-71.019)" fill="#fafafa"/><rect width="23.069" height="23.069" transform="translate(397.947 232.235) rotate(-71.019)" fill="#fafafa"/><rect width="23.069" height="23.069" transform="translate(424.03 241.207) rotate(-71.019)" fill="#fafafa"/><rect width="23.069" height="23.069" transform="translate(450.112 250.179) rotate(-71.019)" fill="#fafafa"/><rect width="23.069" height="23.069" transform="translate(476.195 259.151) rotate(-71.019)" fill="#fafafa"/><line x2="14.311" y2="29.318" transform="translate(448.51 170.04)" fill="none" stroke="#e0e0e0" stroke-linecap="round" stroke-linejoin="round" stroke-width="3"/><line x1="29.318" y2="14.311" transform="translate(441.006 177.544)" fill="none" stroke="#e0e0e0" stroke-linecap="round" stroke-linejoin="round" stroke-width="3"/><path d="M80.829,104.405v9.08l4.674.439a24.245,24.245,0,0,0,3.488,8.386l-3,3.627,6.419,6.421,3.627-3a24.264,24.264,0,0,0,8.386,3.486l.441,4.676h9.08l.441-4.676a24.247,24.247,0,0,0,8.385-3.486l3.627,3,6.421-6.421-3-3.627a24.271,24.271,0,0,0,3.488-8.386l4.674-.439v-9.08l-4.674-.439a24.289,24.289,0,0,0-3.488-8.388l3-3.627-6.421-6.419-3.627,3a24.273,24.273,0,0,0-8.385-3.486l-.441-4.674h-9.08l-.441,4.674a24.291,24.291,0,0,0-8.386,3.486l-3.627-3-6.419,6.419,3,3.627a24.262,24.262,0,0,0-3.488,8.388ZM109.4,96.654A12.291,12.291,0,1,1,97.11,108.945,12.29,12.29,0,0,1,109.4,96.654" transform="translate(29.804 29.636)" fill="#ebebeb"/><path d="M254.11,281.551a41.852,41.852,0,0,0,14.474-6.017l6.262,5.182,11.081-11.081-5.183-6.262a41.869,41.869,0,0,0,6.018-14.474l8.069-.76V232.468l-8.069-.76a41.881,41.881,0,0,0-6.018-14.474l5.183-6.262-11.081-11.08-6.262,5.182a41.881,41.881,0,0,0-14.474-6.018l-.761-8.069H237.679l-.761,8.069a41.88,41.88,0,0,0-14.474,6.018l-6.261-5.182L205.1,210.972l5.182,6.262a41.879,41.879,0,0,0-6.017,14.474l-8.069.76V248.14l8.069.76a41.885,41.885,0,0,0,6.017,14.476l-5.182,6.261,11.081,11.081,6.261-5.182a41.851,41.851,0,0,0,14.474,6.017l.761,8.07h15.671ZM224.3,240.3a21.215,21.215,0,1,1,21.215,21.214A21.215,21.215,0,0,1,224.3,240.3" transform="translate(72.343 70.422)" fill="#e0e0e0"/><path d="M118.4,314.46l2.387,1.976,4.227-4.227-1.976-2.386a16.019,16.019,0,0,0,2.3-5.52l3.076-.29v-5.976l-3.076-.29a16,16,0,0,0-2.3-5.519l1.976-2.387-4.227-4.227-2.387,1.976a16,16,0,0,0-5.519-2.3l-.292-3.077h-5.976l-.287,3.076a15.967,15.967,0,0,0-5.521,2.3l-2.386-1.976-4.228,4.227,1.976,2.387a15.973,15.973,0,0,0-2.294,5.519l-3.077.29v5.976l3.077.29a15.991,15.991,0,0,0,2.294,5.52l-1.976,2.386,4.228,4.227,2.386-1.976a15.966,15.966,0,0,0,5.521,2.3l.287,3.077h5.976l.292-3.078a15.968,15.968,0,0,0,5.519-2.294m-16.886-13.434a8.09,8.09,0,1,1,8.088,8.089,8.088,8.088,0,0,1-8.088-8.089" transform="translate(33.48 104.062)" fill="#e6e6e6"/><path d="M240.262,82.15l1.384,1.146,2.449-2.449-1.146-1.384a9.233,9.233,0,0,0,1.329-3.2l1.783-.168V72.635l-1.783-.168a9.233,9.233,0,0,0-1.329-3.2l1.146-1.384-2.449-2.449-1.384,1.146a9.241,9.241,0,0,0-3.2-1.33L236.9,63.47h-3.463l-.168,1.782a9.252,9.252,0,0,0-3.2,1.33l-1.382-1.146-2.449,2.449,1.144,1.384a9.259,9.259,0,0,0-1.329,3.2l-1.782.168V76.1l1.782.168a9.259,9.259,0,0,0,1.329,3.2l-1.144,1.384,2.449,2.449,1.382-1.146a9.253,9.253,0,0,0,3.2,1.33l.168,1.782H236.9l.167-1.782a9.242,9.242,0,0,0,3.2-1.33m-9.785-7.784a4.687,4.687,0,1,1,4.688,4.688,4.687,4.687,0,0,1-4.688-4.688" transform="translate(82.693 23.403)" fill="#f5f5f5"/><path d="M393.588,74.189l1.382,1.146,2.449-2.449L396.274,71.5a9.26,9.26,0,0,0,1.329-3.2l1.783-.168V64.674l-1.783-.168a9.26,9.26,0,0,0-1.329-3.2l1.144-1.384-2.449-2.449-1.382,1.146a9.242,9.242,0,0,0-3.2-1.33l-.168-1.782h-3.461l-.168,1.782a9.243,9.243,0,0,0-3.2,1.33l-1.382-1.146-2.449,2.449,1.144,1.384a9.26,9.26,0,0,0-1.329,3.2l-1.782.168v3.463l1.782.168a9.26,9.26,0,0,0,1.329,3.2l-1.144,1.384,2.449,2.449,1.382-1.146a9.242,9.242,0,0,0,3.2,1.33l.168,1.782h3.461l.168-1.783a9.213,9.213,0,0,0,3.2-1.329M383.8,66.405a4.687,4.687,0,1,1,4.688,4.688,4.687,4.687,0,0,1-4.688-4.688" transform="translate(139.229 20.468)" fill="#f0f0f0"/><path d="M429.585,237.861l2.387,1.976,4.225-4.225-1.976-2.387a15.993,15.993,0,0,0,2.3-5.52l3.077-.29v-5.976l-3.077-.29a15.975,15.975,0,0,0-2.3-5.519l1.976-2.387-4.225-4.227-2.387,1.976a15.992,15.992,0,0,0-5.52-2.3l-.29-3.077H417.8l-.289,3.076a15.971,15.971,0,0,0-5.52,2.3l-2.387-1.976-4.227,4.227,1.976,2.387a15.945,15.945,0,0,0-2.294,5.519l-3.077.29v5.976l3.077.29a15.963,15.963,0,0,0,2.294,5.52l-1.976,2.387,4.227,4.225,2.387-1.976a15.97,15.97,0,0,0,5.52,2.3l.289,3.077h5.976l.29-3.078a15.963,15.963,0,0,0,5.52-2.294M412.7,224.427a8.09,8.09,0,1,1,8.089,8.091,8.089,8.089,0,0,1-8.089-8.091" transform="translate(148.221 75.818)" fill="#ebebeb"/><path d="M313.979,337.624l3.774,3.125,6.681-6.681-3.125-3.774a25.243,25.243,0,0,0,3.628-8.727l4.864-.457v-9.448l-4.864-.459a25.244,25.244,0,0,0-3.628-8.727l3.125-3.774-6.681-6.681-3.774,3.125a25.242,25.242,0,0,0-8.727-3.629l-.459-4.864h-9.447l-.458,4.864a25.243,25.243,0,0,0-8.727,3.629l-3.774-3.125-6.681,6.681,3.125,3.774A25.243,25.243,0,0,0,275.2,311.2l-4.864.459v9.448l4.864.457a25.242,25.242,0,0,0,3.628,8.727l-3.125,3.774,6.681,6.681,3.774-3.125a25.244,25.244,0,0,0,8.727,3.629l.458,4.864h9.447l.459-4.866a25.214,25.214,0,0,0,8.727-3.627m-26.7-21.238a12.789,12.789,0,1,1,12.789,12.789,12.789,12.789,0,0,1-12.789-12.789" transform="translate(99.681 105.697)" fill="#f0f0f0"/></g><g clip-path="url(#a)"><path d="M586.873,365.461c0,8.56-118.815,15.5-265.381,15.5s-265.381-6.938-265.381-15.5,118.815-15.5,265.381-15.5,265.381,6.939,265.381,15.5" transform="translate(20.69 129.04)" fill="#f5f5f5"/></g><g clip-path="url(#a)"><path d="M161.7,139.826c-44.261,7.654-78.845,21.355-77.247,30.6l.743,4.292c1.6,9.247,38.776,10.538,83.037,2.884s78.845-21.355,77.245-30.6l-.742-4.292c-1.6-9.247-38.776-10.538-83.036-2.884" transform="translate(31.122 49.717)" fill="#407bff"/><g transform="translate(116.27 188.843)" opacity="0.2"><g clip-path="url(#e)"><path d="M245.284,145.846c1.6,9.246-32.985,22.947-77.247,30.6S86.6,182.811,85,173.564s32.986-22.947,77.247-30.6,81.438-6.363,83.036,2.884" transform="translate(-84.948 -137.97)" fill="#fff"/></g></g><path d="M161.224,149.5c-39.63,6.853-70.6,19.121-69.166,27.4l1.239,7.154c1.432,8.279,34.719,9.436,74.349,2.583s70.6-19.121,69.166-27.4l-1.237-7.156c-1.432-8.279-34.719-9.435-74.351-2.581" transform="translate(33.927 53.477)" fill="#407bff"/><g transform="translate(127.175 205.665)" opacity="0.2"><g clip-path="url(#f)"><path d="M92.963,182.131c1.432,8.279,34.719,9.435,74.349,2.581s70.6-19.121,69.166-27.4-34.719-9.435-74.351-2.581-70.6,19.121-69.164,27.4" transform="translate(-92.915 -150.26)" fill="#fff"/></g></g><path d="M199.986,254.161a12.671,12.671,0,0,1-3.427-19.818c16.059-17.476,35.5-45.3,30.555-73.863-1.059-6.126-30.571-6.139-65.915-.026s-63.139,16.033-62.08,22.161c4.94,28.56,32.591,48.243,53.587,59.311a12.672,12.672,0,0,1,3.426,19.819c-16.058,17.475-35.494,45.3-30.555,73.862,1.059,6.126,30.572,6.139,65.916.027s63.138-16.035,62.079-22.162c-4.938-28.56-32.591-48.243-53.586-59.311" transform="translate(36.537 57.476)" fill="#407bff"/><g transform="translate(135.627 213.353)" opacity="0.8"><g clip-path="url(#g)"><path d="M199.986,254.161a12.671,12.671,0,0,1-3.427-19.818c16.059-17.476,35.5-45.3,30.555-73.863-1.059-6.126-30.571-6.139-65.915-.026s-63.139,16.033-62.08,22.161c4.94,28.56,32.591,48.243,53.587,59.311a12.672,12.672,0,0,1,3.426,19.819c-16.058,17.475-35.494,45.3-30.555,73.862,1.059,6.126,30.572,6.139,65.916.027s63.138-16.035,62.079-22.162c-4.938-28.56-32.591-48.243-53.586-59.311" transform="translate(-99.09 -155.877)" fill="#fff"/></g></g><path d="M242.577,277.465c.635,6.418-113.224,28.583-120.789,18.734-1.309-1.711-1.923-4.221-.85-7.587a21.567,21.567,0,0,1,3.4-6.308c3.511-4.763,11.269-6.849,16.529-8.771,3.548-1.293,7.124-2.49,10.7-3.723,3.823-1.328,7.766-.406,11.1-3.316,1.994-1.744,3.485-4.322,6.055-4.96,1.894-.468,3.935.282,5.81-.222,2.439-.653,4.18-3.275,6.7-3.326,1.254-.025,2.416.621,3.644.9,2.2.467,4.443-.268,6.679-.463a27.718,27.718,0,0,1,6.611.472c6.815,1.066,13.664,2.473,20.562,2.832,5.088.275,10.71.149,15.66,1.551a9.464,9.464,0,0,1,5.038,4.439l.015.01a23.66,23.66,0,0,1,3.147,9.743" transform="translate(44.39 95.126)" fill="#263238"/><g transform="translate(248.989 358.649)" opacity="0.2"><g clip-path="url(#h)"><path d="M182.14,262.082c.1.048.015.023-.227-.051a.871.871,0,0,1,.227.051" transform="translate(-181.913 -262.031)" fill="#fff"/></g></g><g transform="translate(165.327 353.109)" opacity="0.2"><g clip-path="url(#i)"><path d="M239.267,267.712c-3.149-2.854-8.964-2.657-10.635-2.535s-2.252-1.3-3.524-1.763c-1.258-.449-8.7.491-8.7.491s2.8.53,3.312,1.428c.468.855,3.7-.126,4.113-.249-.432.242-4.229,2.245-6.031,1.031-1.915-1.285-2.527,1.039-3.952,1.619s-5.912.01-6.634-.238a59.735,59.735,0,0,0-6.433-.041s2.457-1.439,3.659-1.313,6.014-2.387,5.03-2.217-3.236-1.133-4.985-1.677c-1.058-.331-4.443.114-6.355.407a20.786,20.786,0,0,1,6.295.873c-.657-.015-1.868.619-4.1,1.3a13.423,13.423,0,0,1-3.774.652c-1.319.229-2.546,1.967-2.546,1.967a40.128,40.128,0,0,1-4.758.823,11.309,11.309,0,0,1-4.662-.553l4.322-1.414-1.471-.426a17.285,17.285,0,0,0-3.128-.73c-1.744-.287-2.471,1.365-2.9,1.772s-4.224.049-5.291-.266-8.969,2.95-8.969,2.95l4.932-.854s.766.5,4.05.942,3.774-.652,5.149-.557c1.366.111,5.977,1.34,5.977,1.34l-1.778.474a17.245,17.245,0,0,1-4.737-.027c-2.77-.367-4.213,1.076-5.036,1.217s-5.552,1.128-6.432.933-3.229.9-4.515,2.217a5.6,5.6,0,0,1-5.691,1.356c-2.486-.649-6.69,2.4-6.69,2.4s2.2-2.921,3.347-3.118,5.146-2.583,5.146-2.583a10.506,10.506,0,0,0-1.834.151,4.57,4.57,0,0,1-3.411-1.1c-1.344-.947-2.742-.205-4.756.823s-4.177,2.249-6.3.756-8.616,4.017-8.616,4.017a24.152,24.152,0,0,0,4.31-1.477c.6-.487,1.022.055,2.943.4,1.93.333,2.542-.953,3.482-1.449.925-.506,3.778.335,3.778.335a4.169,4.169,0,0,1-2.138.4c-1.043-.167-2.717,2.829-3.286,2.5-.56-.339-4.533.193-6.24,1.079s-4.232,3.861-6.761,2.952c-2.149-.783-7,5.8-11.258,5.884a21.6,21.6,0,0,1,3.4-6.308c3.512-4.763,11.27-6.848,16.53-8.771,3.546-1.293,7.124-2.49,10.694-3.722,3.824-1.329,7.766-.408,11.1-3.318,1.994-1.742,3.485-4.322,6.055-4.959,1.894-.469,3.935.281,5.81-.223,2.439-.653,4.179-3.275,6.7-3.326,1.252-.023,2.416.621,3.644.9,2.2.467,4.443-.268,6.679-.463a27.727,27.727,0,0,1,6.611.474c6.815,1.066,13.664,2.472,20.562,2.831,5.088.275,10.709.149,15.66,1.551a9.464,9.464,0,0,1,5.038,4.439" transform="translate(-120.789 -257.984)" fill="#fff"/></g></g><path d="M182.441,272.2c-39.63,6.853-70.6,19.121-69.164,27.4l1.237,7.154c1.432,8.279,34.719,9.436,74.349,2.583s70.6-19.121,69.166-27.4l-1.237-7.156c-1.432-8.279-34.719-9.435-74.351-2.581" transform="translate(41.751 98.719)" fill="#407bff"/><path d="M186.238,281.692c-44.26,7.654-78.845,21.355-77.247,30.6l.743,4.292c1.6,9.247,38.776,10.538,83.037,2.884s78.845-21.355,77.245-30.6l-.742-4.292c-1.6-9.247-38.776-10.538-83.036-2.884" transform="translate(40.168 102.026)" fill="#407bff"/><g transform="translate(172.213 426.239)" opacity="0.2"><g clip-path="url(#j)"><path d="M129.029,311.565c-1.1-.038-2.165-.092-3.208-.152,1.043.06,2.106.114,3.208.152" transform="translate(-125.82 -311.413)" fill="#fff"/></g></g><g transform="translate(248.9 418.328)" opacity="0.2"><g clip-path="url(#k)"><path d="M182.134,305.633c-.1.021-.192.041-.286.063l.286-.063" transform="translate(-181.848 -305.633)" fill="#fff"/></g></g><g transform="translate(158.363 424.317)" opacity="0.2"><g clip-path="url(#l)"><path d="M115.7,310.009c.442.116.9.227,1.37.334-.474-.107-.928-.218-1.37-.334" transform="translate(-115.701 -310.009)" fill="#fff"/></g></g><g transform="translate(149.106 378.725)" opacity="0.2"><g clip-path="url(#m)"><path d="M186.238,281.692c-44.26,7.654-78.845,21.355-77.247,30.6l.743,4.294c.24,1.384,1.289,2.586,3.026,3.609-1.737-1.024-2.787-2.226-3.026-3.609-1.6-9.246,32.985-22.947,77.245-30.6s81.438-6.363,83.036,2.883l-.742-4.294c-1.6-9.246-38.776-10.536-83.036-2.883" transform="translate(-108.938 -276.699)" fill="#fff"/></g></g><path d="M170.727,219.327c-.875,6.833-3.375,17.208-4.5,24.124s2.25,17.625,3.251,20.874,7.742,2.721,7.479,5.318,10.06,3.032,10.06,3.032-48.469,19.154-53.328,17.941,9.082-10.791,11.77-11.415,4.147-2.293,5.917-6.125,3.667-3.141,5.552-6.987a85.482,85.482,0,0,0,4.54-8.886c2.157-5.339,4.01-21.75,1.762-23.126-2.342-1.43-.219,12.57-2.152,13.036s2.527-13.8-3.37-21,13.021-6.786,13.021-6.786" transform="translate(48.918 80.87)" fill="#263238"/><g transform="translate(181.59 300.192)" opacity="0.2"><g clip-path="url(#n)"><path d="M187.015,272.674s-48.469,19.159-53.323,17.947c-4.473-1.113,6.965-9.314,10.921-11.11.264,2.82,7.861-.063,10.869-1.731s3.248-.454,4.359-.947,9.5-6.761,8.633-6.508-7.128,4.878-8.633,3.374-3.993,1.377-5.864,2.249c-1.618.772-2.023-.164-3.362-1.326.252-.468.505-.985.758-1.543,1.768-3.828,3.665-3.147,5.547-6.989a84.87,84.87,0,0,0,4.537-8.884c2.161-5.346,4.02-21.75,1.77-23.129-2.338-1.428-.215,12.576-2.149,13.03s2.516-13.789-3.374-20.992,13.018-6.788,13.018-6.788c-.873,6.838-3.375,17.214-4.5,24.128-.734,4.524.454,10.679,1.655,15.305-.316,1.124-.758,2.148-1.277,2.312-1.251.379-2.123,4.626-3.753,4.752s-.253,3.122,2,1.883c1.491-.821,3.842-1.326,5.5-2.085,2.112,1.87,6.838,1.845,6.611,4.019-.266,2.6,10.06,3.033,10.06,3.033" transform="translate(-132.671 -219.322)" fill="#fff"/></g></g><path d="M201.757,198.8c-.24.391-.442.708-.568.935A114.775,114.775,0,0,1,195,209.566a61.2,61.2,0,0,1-7.432,9.4c-2.628,2.528-5.308,3.716-6.887,6.749a10.5,10.5,0,0,0-.884,2.364c-.582,2.287-.758,5.042-2.755,6.319a9.066,9.066,0,0,0-1.4.846c-1,.86-.949,2.364-1.214,3.653s-1.5,2.692-2.666,2.1c-.985-.506-1.277-2.2-2.388-2.137a4.211,4.211,0,0,0-.809.253c-1.125.29-2.161-.594-3.021-1.352s-2.1-1.492-3.084-.9a55.55,55.55,0,0,0-9.77-7.153c-2.855-1.719-5.813-3.274-8.909-4.942-6.876-3.715-14.788-7.392-19.577-11.172a13.634,13.634,0,0,1-3.817-4.235,5.625,5.625,0,0,1-.557-1.768c-.783-6.762,20.134-8.772,27.388-13.815s18.553-1.807,23.305-2.857c4.778-1.048,10.1.443,15.116.064s8.126-1.82,11.046.315,6.18,1.492,6.8,3.122c.365.985-.872,3.033-1.719,4.373" transform="translate(44.173 70.117)" fill="#263238"/><g transform="translate(164.551 263.231)" opacity="0.2"><g clip-path="url(#o)"><path d="M195.232,195.867c-4.335-.834,4.5-1,3.828-1.5s-2.831-2.161-7.658-2-8.835-.164-9.858,0,3.348,1.5,3.348,1.5H173.569c-3.665,0,2.5-1.5,2.5-1.5H157.064c.505,0,4.171,2.175,2,2.175s-4.5,1.162-7.5,2.324a51.005,51.005,0,0,1-7.331,2.339c-.493,0,6.863-5.486,7.306-5.827-.456.19-6.573,2.68-9.138,3.488-2.668.835-9.5,3.173-10.175,3.337s3.842,0,3.842,0-5.168,2.666-7.835,3c-2,.252-6.788,1.9-8.014,5.371a13.646,13.646,0,0,0,3.817,4.233c4.789,3.779,12.7,7.457,19.577,11.173,3.1,1.668,6.054,3.223,8.91,4.941a55.5,55.5,0,0,1,9.769,7.154c.987-.594,2.226.138,3.085.9s1.9,1.644,3.019,1.352a4.3,4.3,0,0,1,.809-.252c1.113-.064,1.4,1.63,2.39,2.135,1.162.594,2.4-.821,2.666-2.1s.215-2.792,1.213-3.652a9.205,9.205,0,0,1,1.4-.847c2-1.277,2.175-4.032,2.755-6.319a10.423,10.423,0,0,1,.886-2.362c1.58-3.034,4.258-4.223,6.887-6.749a61.258,61.258,0,0,0,7.431-9.4,114.989,114.989,0,0,0,6.193-9.833c-1.541-2.591-1.466-2.238-5.8-3.071m-61.914,17.668c-1.454-.171,3.249-1.625,3.249-1.625a3.521,3.521,0,0,1-3.249,1.625m.875-5.624s2.375-1.875,3.375-1.751a20.323,20.323,0,0,0,2.874-.005s-3.75,2.506-6.25,1.756m18.875,14.623c-1.707-.319,1.814-1.374,2.657-1.124s-.657,1.5-2.657,1.124m8.448-19.124s-7.258,2.126-5.791,2.126h2.718c-.5,0-8,1.633-8.375,1.566s4.461-2.525,4.461-2.525-.53-.667-.5-.916,1.692-.75,1.692-.75c.593-.5,3.218-1.25,4.218-.626s3.624.626,3.624.626Zm3.052,14.874c-2.028-1.844,3.987,0,3.987,0s-2.613,1.251-3.987,0m3.249-19.874c2.75-1.875,3.416,0,3.416,0s-4.3.606-3.416,0m9.481,7.25c-.732-.375-2.106-1.084-2.106-1.084a7.931,7.931,0,0,1,2.874-1.042,6.907,6.907,0,0,1,3.875,1.042c.75.459-3.912,1.459-4.643,1.084m5.393,9.194s-3.374-.07-3.7,0a27.6,27.6,0,0,1,3.7-1.3Zm5.226-13.527s2.4-.517,3.524.721c1.515,1.666-3.524-.721-3.524-.721" transform="translate(-120.222 -192.318)" fill="#fff"/></g></g></g><g clip-path="url(#a)"><path d="M323.331,395.842l11.029,3.325h60.332l1.333-24.177-11.667-5s2.165-18.69,5.665-38.712l8-.25,17-67.035-9.666-4.179,7-22.209h10.5l11.192-31.16s-40.224-16.036-64.207-18.159l-21.484,3.6-1.5,27.978-17.5,2.308-3.444,30.15,12.443,2.142-8,64.052-17.98,5.059-3.134,44.1L324.9,370.9Z" transform="translate(114.027 69.426)" fill="#407bff"/><g transform="translate(423.274 257.706)" opacity="0.6"><g clip-path="url(#q)"><path d="M412.364,237.61l-7,22.206L415.03,264l-17.01,67.035-8,.253c-3.5,20.019-5.662,38.7-5.662,38.7l11.666,5.005L394.7,399.167H334.359l-11.033-3.323,1.58-24.949-15.658-3.21,3.058-43.034.077-1.074,17.984-5.055,8-64.052-12.449-2.137,3.451-30.154,17.491-2.313,1.5-27.97,21.486-3.613c23.975,2.135,64.2,18.16,64.2,18.16l-11.2,31.167Z" transform="translate(-309.247 -188.282)" fill="#fff"/></g></g><g transform="translate(438.933 439.41)" opacity="0.4"><g clip-path="url(#r)"><path d="M391.8,326.041l-59.667,1.668-11.449-5.764,13.118,2.427,46.333-3.337Z" transform="translate(-320.687 -321.036)" fill="#fff"/></g></g><g transform="translate(426.332 387.946)" opacity="0.4"><g clip-path="url(#s)"><path d="M389.2,296.2l-43.16.126-34.555-6.762.077-1.074,17.985-5.055,19,11.386Z" transform="translate(-311.481 -283.436)" fill="#fff"/></g></g><g transform="translate(439.944 318.838)" opacity="0.2" style="isolation:isolate"><g clip-path="url(#t)"><path d="M400.872,243.347l-53.246-5.207-13.75-.14-12.45-2.135,25.442-2.919Z" transform="translate(-321.426 -232.945)"/></g></g><g transform="translate(460.887 286.092)" opacity="0.2" style="isolation:isolate"><g clip-path="url(#u)"><path d="M412.722,229.963h-10.49l-42.01-19.2-23.5,1.454,24.785-3.2Z" transform="translate(-336.727 -209.021)"/></g></g><g transform="translate(460.887 257.706)" opacity="0.2"><g clip-path="url(#v)"><path d="M359.716,188.282l1.794,28.386-24.784,3.2,1.5-27.969Z" transform="translate(-336.727 -188.282)" fill="#fff"/></g></g><g transform="translate(439.944 289.29)" opacity="0.2"><g clip-path="url(#w)"><path d="M346.868,240.906l6.84-29.549-28.831,2.313-3.451,30.156Z" transform="translate(-321.426 -211.357)" fill="#fff"/></g></g><g transform="translate(444.392 323.894)" opacity="0.2"><g clip-path="url(#x)"><path d="M332.677,236.639l26.077,1.344-15.082,74.095-19-11.386Z" transform="translate(-324.676 -236.639)" fill="#fff"/></g></g><g transform="translate(423.274 394.075)" opacity="0.2"><g clip-path="url(#y)"><path d="M312.305,287.914l34.553,6.762-6.978,41.776-30.633-5.5Z" transform="translate(-309.247 -287.914)" fill="#fff"/></g></g><g transform="translate(437.353 440.325)" opacity="0.2"><g clip-path="url(#z)"><path d="M332.563,327.462l-2,22.509-11.033-3.323,1.575-24.944Z" transform="translate(-319.533 -321.704)" fill="#fff"/></g></g><path d="M313.4,294.739l30.343,6.908,35.753-1.575-34.167,7.668Z" transform="translate(115.558 108.678)" fill="#407bff"/><path d="M321.852,327.022l11.172,6.855h27L327.251,336.5l-10.98-7.5Z" transform="translate(116.618 120.581)" fill="#407bff"/><path d="M337.125,336.907h47.7l5.5,4.135Z" transform="translate(124.307 124.226)" fill="#407bff"/><path d="M338.455,309.843l-26.711-7.479-4.788,2.562Z" transform="translate(113.183 111.49)" fill="#407bff"/><path d="M335.814,316.428l40.154-3.445,4.254,1.723Z" transform="translate(123.823 115.405)" fill="#407bff"/><path d="M345.011,283.854,388.4,282.3l3.774,3.192Z" transform="translate(127.214 104.092)" fill="#407bff"/><path d="M385.8,280.079l-35.661-4.051-22-8.2h-7.454l26.256,11Z" transform="translate(118.246 98.755)" fill="#407bff"/><path d="M332.253,253.4l17.993,6.473,56.129,4.526-5.066-3.767L349.715,257.4Z" transform="translate(122.51 93.435)" fill="#407bff"/><path d="M343.461,226l-25,1.25,6.191,3Z" transform="translate(117.426 83.333)" fill="#407bff"/><path d="M329.053,219.195l19-2.524,49,17.023-49.248-12.748Z" transform="translate(121.33 79.892)" fill="#407bff"/><path d="M389.131,215.611l-29.25-15.792-29,9.09,8.544,2.291,24.239-3.485Z" transform="translate(122.005 73.678)" fill="#407bff"/><path d="M366.864,203.355l44,18.226h-5.491Z" transform="translate(135.272 74.982)" fill="#407bff"/><path d="M356.636,193.309l22,2.5,34.269,19s-44.269-19.254-56.268-21.5" transform="translate(131.501 71.278)" fill="#407bff"/><path d="M330.817,242.624l10.868,2.75L326.316,244Z" transform="translate(120.321 89.462)" fill="#407bff"/><g transform="translate(428.957 403.417)" opacity="0.7"><g clip-path="url(#aa)"><path d="M313.4,294.739l30.343,6.908,35.753-1.575-34.167,7.668Z" transform="translate(-313.399 -294.739)" fill="#fff"/></g></g><g transform="translate(432.888 447.603)" opacity="0.7"><g clip-path="url(#ab)"><path d="M321.852,327.022l11.172,6.855h27L327.251,336.5l-10.98-7.5Z" transform="translate(-316.271 -327.022)" fill="#fff"/></g></g><g transform="translate(461.432 461.133)" opacity="0.7"><g clip-path="url(#ac)"><path d="M337.125,336.907h47.7l5.5,4.135Z" transform="translate(-337.125 -336.907)" fill="#fff"/></g></g><g transform="translate(420.139 413.854)" opacity="0.7"><g clip-path="url(#ad)"><path d="M338.455,309.843l-26.711-7.479-4.788,2.562Z" transform="translate(-306.956 -302.364)" fill="#fff"/></g></g><g transform="translate(459.637 428.388)" opacity="0.7"><g clip-path="url(#ae)"><path d="M335.814,316.428l40.154-3.445,4.254,1.723Z" transform="translate(-335.814 -312.983)" fill="#fff"/></g></g><g transform="translate(472.225 386.392)" opacity="0.7"><g clip-path="url(#af)"><path d="M345.011,283.854,388.4,282.3l3.774,3.192Z" transform="translate(-345.011 -282.301)" fill="#fff"/></g></g><g transform="translate(438.933 366.585)" opacity="0.7"><g clip-path="url(#ag)"><path d="M385.8,280.079l-35.661-4.051-22-8.2h-7.454l26.256,11Z" transform="translate(-320.687 -267.829)" fill="#fff"/></g></g><g transform="translate(454.763 346.835)" opacity="0.7"><g clip-path="url(#ah)"><path d="M332.253,253.4l17.993,6.473,56.129,4.526-5.066-3.767L349.715,257.4Z" transform="translate(-332.253 -253.4)" fill="#fff"/></g></g><g transform="translate(435.889 309.336)" opacity="0.7"><g clip-path="url(#ai)"><path d="M343.461,226l-25,1.25,6.191,3Z" transform="translate(-318.463 -226.003)" fill="#fff"/></g></g><g transform="translate(450.383 296.563)" opacity="0.7"><g clip-path="url(#aj)"><path d="M329.053,219.195l19-2.524,49,17.023-49.248-12.748Z" transform="translate(-329.053 -216.671)" fill="#fff"/></g></g><g transform="translate(452.888 273.497)" opacity="0.7"><g clip-path="url(#ak)"><path d="M389.131,215.611l-29.25-15.792-29,9.09,8.544,2.291,24.239-3.485Z" transform="translate(-330.883 -199.819)" fill="#fff"/></g></g><g transform="translate(502.136 278.337)" opacity="0.7"><g clip-path="url(#al)"><path d="M366.864,203.355l44,18.226h-5.491Z" transform="translate(-366.864 -203.355)" fill="#fff"/></g></g><g transform="translate(488.137 264.587)" opacity="0.7"><g clip-path="url(#am)"><path d="M356.636,193.309l22,2.5,34.269,19s-44.269-19.254-56.268-21.5" transform="translate(-356.636 -193.309)" fill="#fff"/></g></g><g transform="translate(446.639 332.086)" opacity="0.7"><g clip-path="url(#an)"><path d="M330.817,242.624l10.868,2.75L326.316,244Z" transform="translate(-326.317 -242.624)" fill="#fff"/></g></g><g transform="translate(459.637 339.085)" opacity="0.1" style="isolation:isolate"><g clip-path="url(#ao)"><path d="M335.814,247.738l14.853,3.75,41.78,4-41.78-2.05Z" transform="translate(-335.814 -247.738)"/></g></g><g transform="translate(454.763 328.085)" opacity="0.1" style="isolation:isolate"><g clip-path="url(#ap)"><path d="M332.253,239.7l23.708,1.154,44.415,7.6-45.81-4.751Z" transform="translate(-332.253 -239.701)"/></g></g><g transform="translate(448.388 311.901)" opacity="0.1" style="isolation:isolate"><g clip-path="url(#aq)"><path d="M327.595,230.812l18.6-2.935,47.144,10.935-47.534-9.25Z" transform="translate(-327.595 -227.877)"/></g></g><g transform="translate(452.888 305.074)" opacity="0.1" style="isolation:isolate"><g clip-path="url(#ar)"><path d="M330.883,223.338l15.683-.449,47.7,12.294L346.113,224.85Z" transform="translate(-330.883 -222.889)"/></g></g><g transform="translate(442.821 293.837)" opacity="0.1" style="isolation:isolate"><g clip-path="url(#as)"><path d="M323.528,217.405l23.816-2.726-23.816,4.5Z" transform="translate(-323.528 -214.679)"/></g></g><g transform="translate(442.081 303.055)" opacity="0.1" style="isolation:isolate"><g clip-path="url(#at)"><path d="M322.987,221.414h8.3l-8.3,2.02Z" transform="translate(-322.987 -221.414)"/></g></g><g transform="translate(462.005 264.587)" opacity="0.1" style="isolation:isolate"><g clip-path="url(#au)"><path d="M337.544,197.169l22.3-3.86,29.826,10.753-29.556-8.252-22.574,2.876Z" transform="translate(-337.544 -193.309)"/></g></g><g transform="translate(504.886 290.753)" opacity="0.1" style="isolation:isolate"><g clip-path="url(#av)"><path d="M402.9,223.056l-34.025-10.629,33.062,13.312Z" transform="translate(-368.873 -212.426)"/></g></g><g transform="translate(479.667 269.963)" opacity="0.1" style="isolation:isolate"><g clip-path="url(#aw)"><path d="M350.448,198.361l4.984-1.124,54.262,17.487-54.025-15.7Z" transform="translate(-350.448 -197.237)"/></g></g><g transform="translate(527.719 271.421)" opacity="0.1" style="isolation:isolate"><g clip-path="url(#ax)"><path d="M405.028,205.218,385.555,198.3l18.416,8.667Z" transform="translate(-385.555 -198.302)"/></g></g><g transform="translate(450.383 354.585)" opacity="0.1" style="isolation:isolate"><g clip-path="url(#ay)"><path d="M329.053,259.062l20.818,6.363,47.184,3.8-47.632-1.6Z" transform="translate(-329.053 -259.062)"/></g></g><g transform="translate(445.889 374.251)" opacity="0.1" style="isolation:isolate"><g clip-path="url(#az)"><path d="M325.769,273.43l20.959,8.091,47.288,1.076H346.509Z" transform="translate(-325.769 -273.43)"/></g></g><g transform="translate(448.388 384.751)" opacity="0.1" style="isolation:isolate"><g clip-path="url(#ba)"><path d="M384.761,292.434l-40.364-4.5-16.8-6.833,16.072,9.325Z" transform="translate(-327.595 -281.101)"/></g></g><g transform="translate(487.054 369.75)" opacity="0.1" style="isolation:isolate"><g clip-path="url(#bb)"><path d="M388.384,271.111c-.374-.134-32.54-.968-32.54-.968l32.035,2.958Z" transform="translate(-355.845 -270.142)"/></g></g><g transform="translate(425.722 397.25)" opacity="0.1"><g clip-path="url(#bc)"><path d="M311.035,290.234l34.506,7.528H369.7l-24.4,1.486-33.647-6.931Z" transform="translate(-311.035 -290.234)"/></g></g><g transform="translate(468.221 414.592)" opacity="0.1"><g clip-path="url(#bd)"><path d="M375.643,302.9c-.011.075-33.557,3.752-33.557,3.752l33.272-1.875Z" transform="translate(-342.085 -302.904)"/></g></g><g transform="translate(432.881 412.242)" opacity="0.1"><g clip-path="url(#be)"><path d="M316.273,301.194c-.448-.223,20.833,4.218,20.833,4.218s-13.255-.427-20.833-4.218" transform="translate(-316.266 -301.187)"/></g></g><g transform="translate(424.395 421.333)" opacity="0.1"><g clip-path="url(#bf)"><path d="M310.066,307.828l29.326,7.054-29.326-4.8Z" transform="translate(-310.066 -307.828)"/></g></g><g transform="translate(429.888 431.833)" opacity="0.1"><g clip-path="url(#bg)"><path d="M314.08,315.5l24.874,5.662,37.062-.746-37.062,2.661Z" transform="translate(-314.079 -315.5)"/></g></g><g transform="translate(463.555 424.86)" opacity="0.1"><g clip-path="url(#bh)"><path d="M338.676,310.406h26l-21.333,1.055Z" transform="translate(-338.676 -310.406)"/></g></g><g transform="translate(442.081 446.083)" opacity="0.1"><g clip-path="url(#bi)"><path d="M322.987,325.911l7.995,3.486s42.519-.346,41.749,0-41.913,1.848-41.913,1.848Z" transform="translate(-322.987 -325.911)"/></g></g><g transform="translate(465.175 457.082)" opacity="0.1"><g clip-path="url(#bj)"><path d="M378.732,333.947s-39.722,1-38.857,1h32.863Z" transform="translate(-339.86 -333.947)"/></g></g><g transform="translate(504.018 448.454)" opacity="0.1"><g clip-path="url(#bk)"><path d="M374.271,327.94s-6.51-.665-6,0,5.682,1.518,5.682,1.518Z" transform="translate(-368.239 -327.643)"/></g></g><g transform="translate(442.081 461.133)" opacity="0.1"><g clip-path="url(#bl)"><path d="M322.987,336.907l6.842,1.422,36.754,2.713-36.917-.879Z" transform="translate(-322.987 -336.907)"/></g></g></g><g clip-path="url(#a)"><path d="M274.691,140.829c8.806,3.924,25.4,3.39,31.763-10.557s5.909-25.91-8.479-32.625-32.555,1.848-34.1,14.544-3.1,22.438,10.817,28.638" transform="translate(96.936 35.139)" fill="#263238"/><path d="M148.221,330.364a13.491,13.491,0,0,0,2.061-4.432s4.329-4.952,18.108-8.071l1.207-6.2a5.212,5.212,0,0,0-2.517-5.413,2.94,2.94,0,0,0-.827-.338,35.644,35.644,0,0,0-4.565-.367c-4.749-.318-15.291.876-15.291.876l.07,1.1,9.625-.166c3.269-.042-.4,2.691-3.86,3.627s-7.1,2.685-6.827,9.838c.363,8.342.906,11.781,2.815,9.547" transform="translate(53.61 112.641)" fill="#2e353a"/><path d="M170.7,317.252s-17.685,4.693-21.659,8.567c0,0-2.44-6.658,6.678-11.392,11.792-6.121,9.3-8.634,9.3-8.634a29.488,29.488,0,0,1,5.052,1.957c3.086,1.837.634,9.5.634,9.5" transform="translate(54.847 112.754)" fill="#e4897b"/><path d="M356.516,357.428a13.454,13.454,0,0,0-4.821.806s-6.533-.772-16.9-10.375l-5.8,2.512a5.207,5.207,0,0,0-3.043,5.137,2.973,2.973,0,0,0,.188.872,35.326,35.326,0,0,0,2.279,3.972c2.423,4.1,9.366,12.12,9.366,12.12l.87-.682-5.579-7.846c-1.882-2.672,2.445-1.195,5.174,1.133s6.23,4.339,11.976.07c6.677-5.015,9.2-7.408,6.282-7.72" transform="translate(120.184 128.265)" fill="#2e353a"/><path d="M332.666,345.924s13.869,11.935,19.31,13.022c0,0-4.112,5.777-13.171.932-11.715-6.266-12.376-2.785-12.376-2.785a29.638,29.638,0,0,1-1.243-5.275c-.23-3.583,7.48-5.894,7.48-5.894" transform="translate(119.903 127.551)" fill="#e4897b"/><path d="M287.85,144.161c4.509,3.081,11.943,31.619,14.19,33.464s18.842-7.083,18.842-7.083l3.627,8.085s-25.075,15.337-28.52,12.453-14.726-33.78-14.726-33.78Z" transform="translate(103.709 53.156)" fill="#263238"/><g transform="translate(384.971 197.317)" opacity="0.2"><g clip-path="url(#bn)"><path d="M287.85,144.161c4.509,3.081,11.943,31.619,14.19,33.464s18.842-7.083,18.842-7.083l3.627,8.085s-25.075,15.337-28.52,12.453-14.726-33.78-14.726-33.78Z" transform="translate(-281.262 -144.161)" fill="#fff"/></g></g><path d="M218.761,168.977l17.073,17.251s52.143,17.766,65.142-1.111c0,0-5.664-28.375-20.289-33.235s-61.927,17.1-61.927,17.1" transform="translate(80.663 55.744)" fill="#263238"/><g transform="translate(299.424 206.921)" opacity="0.1"><g clip-path="url(#bo)"><path d="M218.761,168.977l17.073,17.251s52.143,17.766,65.142-1.111c0,0-5.664-28.375-20.289-33.235s-61.927,17.1-61.927,17.1" transform="translate(-218.761 -151.178)" fill="#fff"/></g></g><path d="M309.538,173.539l10.331-5.635,4.881-11.579a57.872,57.872,0,0,1,5.944,2.423c.7.538-2.183,10.1-2.906,10.712s-4.836,1.076-4.836,1.076l-9.834,6.225Z" transform="translate(114.135 57.641)" fill="#e4897b"/><path d="M245.1,133.271s33.857-.779,58.6,14.91c0,0-3.715,28.654-15.2,56.487l-49.637-8.207s5.315-14.14-.567-42.42Z" transform="translate(87.864 49.138)" fill="#407bff"/><g transform="translate(326.156 182.402)" opacity="0.6"><g clip-path="url(#bp)"><path d="M245.1,133.271s33.857-.779,58.6,14.91c0,0-3.715,28.654-15.2,56.487l-49.637-8.207s5.315-14.14-.567-42.42Z" transform="translate(-238.292 -133.264)" fill="#fff"/></g></g><path d="M268.024,132.14c6.89,29.074-23.311,55.09-46.249,55.4l-5.94-12.6,24.514-10.231,13.032-31.026Z" transform="translate(79.584 48.723)" fill="#263238"/><path d="M279,139.513s-4.6,40.653.468,49.905c0,0,8.667-15.862,10.624-42.873,0,0-5.628-4.88-11.092-7.033" transform="translate(102.17 51.442)" fill="#263238"/><g transform="translate(295.419 180.863)" opacity="0.3"><g clip-path="url(#bq)"><path d="M268.024,132.14c6.89,29.074-23.311,55.09-46.249,55.4l-5.94-12.6,24.514-10.231,13.032-31.026Z" transform="translate(-215.835 -132.14)" fill="#fff"/></g></g><g transform="translate(379.258 190.955)" opacity="0.3"><g clip-path="url(#br)"><path d="M279,139.513s-4.6,40.653.468,49.905c0,0,8.667-15.862,10.624-42.873,0,0-5.628-4.88-11.092-7.033" transform="translate(-277.088 -139.513)" fill="#fff"/></g></g><path d="M265.212,132.659s-6.11-3.326-16.321,3l6.25,4.437-4.64,5.246a62.388,62.388,0,0,1-6.5,27.15s11.121-11.34,14.86-23.743,2.056-15.216,6.354-16.091" transform="translate(89.968 48.593)" fill="#263238"/><path d="M274.159,136.45s7.338,1.584,13.7,10.042l-3.916.725,3.813,6.614L278.2,175.178s-1.014-16.459-.531-26.336a22.381,22.381,0,0,0-3.511-12.392" transform="translate(101.09 50.313)" fill="#263238"/><g transform="translate(333.966 180.379)" opacity="0.2"><g clip-path="url(#bs)"><path d="M265.212,132.659s-6.11-3.326-16.321,3l6.25,4.437-4.64,5.246a62.388,62.388,0,0,1-6.5,27.15s11.121-11.34,14.86-23.743,2.056-15.216,6.354-16.091" transform="translate(-243.998 -131.786)" fill="#fff"/></g></g><g transform="translate(375.249 186.763)" opacity="0.2"><g clip-path="url(#bt)"><path d="M274.159,136.45s7.338,1.584,13.7,10.042l-3.916.725,3.813,6.614L278.2,175.178s-1.014-16.459-.531-26.336a22.381,22.381,0,0,0-3.511-12.392" transform="translate(-274.159 -136.45)" fill="#fff"/></g></g><path d="M315.707,252.394c-8.274,34.135-32.175,79.571-36.835,88.372-3.653,6.931-18.084,9.251-35.607,11.284-33.769,3.916-79.245,10.116-79.245,10.116l-.06-10.649s91.84-21.635,93.328-26.586c2.087-7,4.541-40.253,6.729-68.234.259-3.125.5-6.176.732-9.123.39-4.852.745-9.346,1.048-13.231.7-8.915,1.15-14.689,1.15-14.689L316.014,185s10.045,24.685-.307,67.393" transform="translate(60.456 68.215)" fill="#263238"/><g transform="translate(224.415 253.216)" opacity="0.2" style="isolation:isolate"><g clip-path="url(#bu)"><path d="M315.707,252.394c-8.274,34.135-32.175,79.571-36.835,88.372-3.653,6.931-18.084,9.251-35.607,11.284-33.769,3.916-79.245,10.116-79.245,10.116l-.06-10.649s91.84-21.635,93.328-26.586c2.087-7,4.541-40.253,6.729-68.234.259-3.125.5-6.176.732-9.123.39-4.852.745-9.346,1.048-13.231.7-8.915,1.15-14.689,1.15-14.689L316.014,185s10.045,24.685-.307,67.393" transform="translate(-163.959 -185.001)"/></g></g><path d="M314.542,284.831c-4.629-10.127-44.493-73.266-44.493-73.266l-39.169,6.625c12.629,37.056,57.607,74.908,65.236,84.725s64.259,97.431,64.259,97.431l6.965-4.93s-43-89.146-52.8-110.585" transform="translate(85.131 78.009)" fill="#263238"/><path d="M241.741,179.435,293.3,182.8l-.953,5.9s-5.513,26.516-27.214,40.568l-34.1.766s-3.986-21.6,9.448-46.65Z" transform="translate(84.983 66.162)" fill="#263238"/><path d="M256.789,180.954l-16.991-1-1.287,3.962,17.9,1.348Z" transform="translate(87.945 66.353)"/><path d="M253.532,180.776l-.385,4.344,29.794,2.243.286-4.837Z" transform="translate(93.342 66.657)"/><path d="M.673,0H4.812a.674.674,0,0,1,.674.674V6.609a.673.673,0,0,1-.673.673H.674A.674.674,0,0,1,0,6.609V.673A.673.673,0,0,1,.673,0Z" transform="matrix(0.059, -0.998, 0.998, 0.059, 361.707, 253.802)" fill="none" stroke="#fff" stroke-linecap="round" stroke-linejoin="round" stroke-width="1"/><line x2="2.063" y2="0.122" transform="translate(366.993 251.367)" fill="none" stroke="#fff" stroke-linecap="round" stroke-linejoin="round" stroke-width="1"/><path d="M270.967,162.017l14.09-7.217s2.119-3.024,3.634-3.715,14.786,1.313,14.786,1.313l-4.97,10.508s-9.818-.574-10.864-1.38l-12.888,6.9Z" transform="translate(99.913 55.655)" fill="#e4897b"/><path d="M244.43,133.269c-12.955,3.359,6.527,50.893,15.061,53.58s35.928-15.75,35.928-15.75l-4.7-7.913s-23.94,9.558-26.129,8.526-11.036-24.935-12.6-29.2-7.554-9.24-7.554-9.24" transform="translate(88.534 49.14)" fill="#263238"/><g transform="translate(328.641 182.409)" opacity="0.2"><g clip-path="url(#bv)"><path d="M244.43,133.269c-12.955,3.359,6.527,50.893,15.061,53.58s35.928-15.75,35.928-15.75l-4.7-7.913s-23.94,9.558-26.129,8.526-11.036-24.935-12.6-29.2-7.554-9.24-7.554-9.24" transform="translate(-240.107 -133.269)" fill="#fff"/></g></g><g transform="translate(380.603 219.682)" opacity="0.6"><g clip-path="url(#bw)"><path d="M279,161.057a.467.467,0,1,1-.368-.547.466.466,0,0,1,.368.547" transform="translate(-278.071 -160.501)" fill="#fff"/></g></g><g transform="translate(377.326 221.708)" opacity="0.6"><g clip-path="url(#bx)"><path d="M276.6,162.538a.467.467,0,1,1-.368-.547.466.466,0,0,1,.368.547" transform="translate(-275.677 -161.981)" fill="#fff"/></g></g><path d="M342.8,145.53l-17.388,45.084a2.4,2.4,0,0,1-2.739,1.421l-31.852-7.926a1.776,1.776,0,0,1-1.259-2.416l17.39-45.084a2.4,2.4,0,0,1,2.739-1.421l31.85,7.926a1.775,1.775,0,0,1,1.259,2.416" transform="translate(106.722 49.824)" fill="#263238"/><g transform="translate(397.604 185.309)" opacity="0.3"><g clip-path="url(#by)"><path d="M342.413,145.433l-17.388,45.084a2.4,2.4,0,0,1-2.739,1.421l-30.4-7.566a1.774,1.774,0,0,1-1.259-2.416l17.388-45.084a2.4,2.4,0,0,1,2.739-1.421l30.4,7.566a1.775,1.775,0,0,1,1.259,2.416" transform="translate(-290.492 -135.388)" fill="#fff"/></g></g><g transform="translate(420.985 210.464)" opacity="0.3"><g clip-path="url(#bz)"><path d="M311.69,153.858a3.426,3.426,0,0,0-3.925,2.037,2.538,2.538,0,0,0,1.805,3.462,3.424,3.424,0,0,0,3.924-2.037,2.538,2.538,0,0,1-1.8-3.462" transform="translate(-307.574 -153.766)" fill="#fff"/></g></g><path d="M252.362,143.929s2.012-9.064,5.575-10.947,20.628,1.106,26.556,6.671,6.575,13.7,6.575,13.7l-7.628-3.229-11.57,13.034L262.8,144.913Z" transform="translate(93.052 48.826)" fill="#407bff"/><g transform="translate(345.414 181.244)" opacity="0.5"><g clip-path="url(#ca)"><path d="M252.362,143.929s2.012-9.064,5.575-10.947,20.628,1.106,26.556,6.671,6.575,13.7,6.575,13.7l-7.628-3.229-11.57,13.034L262.8,144.913Z" transform="translate(-252.362 -132.418)" fill="#fff"/></g></g><path d="M266.584,133.106c9.841.76,14.951,7.562,13.657,13.125l-6.121.85L269.2,160.5l-1.945-14.905-6.177-3.924s-3.949-9.291,5.505-8.561" transform="translate(95.965 49.065)" fill="#e4897b"/><path d="M269.777,151.789c-9.392-7.412-8.3-13.208-8.3-13.208,4.619-2.542,7.684-8.048,8.787-12.3a24.094,24.094,0,0,0,.743-4.08l10.873,9.641a41.236,41.236,0,0,0-3.568,4.873,18.057,18.057,0,0,0-1.929,4c-1.363,4.16.691,5.463.691,5.463-.261,5.309-7.3,5.61-7.3,5.61" transform="translate(96.4 45.06)" fill="#e4897b"/><g transform="translate(365.188 167.532)" opacity="0.2" style="isolation:isolate"><g clip-path="url(#cb)"><path d="M276.119,135.868a18.049,18.049,0,0,0-1.4,4.209c-4.895-2.961-7.012-8.842-7.9-13.535a24.165,24.165,0,0,0,.218-4.142l12.011,8.18a41.165,41.165,0,0,0-2.919,5.289" transform="translate(-266.809 -122.4)"/></g></g><path d="M293.428,105.942c11.192,5.406,11.9,13.14,7.149,25.07-5.939,14.908-14.081,23.605-26.589,13.767-16.986-13.363.853-47.815,19.44-38.836" transform="translate(98.509 38.52)" fill="#e4897b"/><path d="M287.2,120.85a26.262,26.262,0,0,0,1.014,6.215,3.416,3.416,0,0,1-3.561-.159Z" transform="translate(104.957 44.561)" fill="#de5753"/><path d="M282.5,118.375c-.423.929-1.267,1.455-1.887,1.173s-.78-1.263-.357-2.193,1.267-1.456,1.887-1.174.78,1.265.357,2.194" transform="translate(103.249 42.811)" fill="#263238"/><path d="M281.363,116.108l2.383.126s-1.781,1.244-2.383-.126" transform="translate(103.746 42.812)" fill="#263238"/><path d="M291.005,122.073c-.423.929-1.267,1.455-1.887,1.173s-.78-1.263-.357-2.193,1.267-1.456,1.887-1.174.78,1.265.357,2.194" transform="translate(106.386 44.174)" fill="#263238"/><path d="M289.872,119.805l2.383.126s-1.781,1.244-2.383-.126" transform="translate(106.883 44.175)" fill="#263238"/><path d="M285.445,113.806s-1.788-3.034-4.795-3.1" transform="translate(103.483 40.82)" fill="none" stroke="#263238" stroke-linecap="round" stroke-linejoin="round" stroke-width="0.708"/><path d="M290.287,115.767a5.8,5.8,0,0,1,5.051.268" transform="translate(107.036 42.527)" fill="none" stroke="#263238" stroke-linecap="round" stroke-linejoin="round" stroke-width="0.708"/><path d="M272.417,120.436s9.676-6.668,12.312-14.15c0,0,26.557,1.653,16.777,24.695,0,0,11.824-18.943-7.2-28.683-19-9.725-32.541,18.448-26.656,31.634,0,0-1.247-9.309,4.769-13.5" transform="translate(98.176 36.982)" fill="#263238"/><path d="M273.456,119.323a5.455,5.455,0,0,0-3.118-7.039c-3.652-1.3-8.745,5.025-.944,10.9,1.12.844,2.4-.029,4.062-3.864" transform="translate(97.823 41.339)" fill="#e4897b"/><path d="M283.044,97.667s8.445-1.9,13.846.782,5.786,6.714,5.786,6.714a7.922,7.922,0,0,1,6.976,2.152c3.37,3.1,5.348,12.048,1.782,21.609s-11.907,8.225-11.907,8.225,10.866-14.2-.712-23.412c0,0-3.8-4.55-8.226-1.8s-7.58,14.229-17.313,6.755,1.37-18.831,9.767-21.028" transform="translate(99.366 35.772)" fill="#263238"/><path d="M279.461,125.144s4.188,2.321,4.491,4.68" transform="translate(103.045 46.144)" fill="none" stroke="#263238" stroke-linecap="round" stroke-linejoin="round" stroke-width="0.708"/><path d="M301.925,102.807S296.059,83.321,283.3,88.931,264.325,108.559,254,100.37s-15.046,2.438-20.066,5.686-13.876-1.629-11.515-5.686c0,0-6.495,4.974,5.019,10.2s17.19-5.7,20.848-1.563,16.648,12.4,23.438,6.495a14.156,14.156,0,0,1,14.311-2.657Z" transform="translate(81.339 32.417)" fill="#263238"/><path d="M278.634,104.468c-5.552.164-12.345,12.453-20.194,9.526s-16.014-9.422-20.148-6.174" transform="translate(87.864 38.52)" fill="none" stroke="#263238" stroke-linecap="round" stroke-linejoin="round" stroke-width="0.5"/><path d="M264.946,101.043c-11.883-1.4-17.769-9.084-22.451-8.493s-10.291,12.262-15.606,8.493" transform="translate(83.66 34.114)" fill="none" stroke="#263238" stroke-linecap="round" stroke-linejoin="round" stroke-width="0.5"/><path d="M295.066,107.507c-3.872-1.675-6.2.743-12.891,10.894-2.837,4.3-8.017,1.054-8.017,1.054" transform="translate(101.09 39.461)" fill="none" stroke="#263238" stroke-linecap="round" stroke-linejoin="round" stroke-width="0.5"/></g><g clip-path="url(#a)"><path d="M319.015,170.619,346.989,159.7s31.691,18.545,51.845,21.611l-34.845,6.86s-37.734-7.52-44.974-17.55" transform="translate(117.629 58.885)" fill="#407bff"/><path d="M195.245,238.482,216.5,219.3s36.31,5.512,64.642,19.179l-29.6,18.166s-27.866-14.166-56.3-18.166" transform="translate(71.992 80.863)" fill="#407bff"/><path d="M70.831,253.741l27.3-9.414s23.679,25.309,42.55,25.315l-31.3,15.022S76.027,271.9,70.831,253.741" transform="translate(26.117 90.09)" fill="#407bff"/><path d="M150.234,182.026s35.616-4.166,60.87,15.5l-13.021,16.029s-31.266-13.231-58.639-5.489Z" transform="translate(51.417 66.982)" fill="#407bff"/><path d="M394.884,291.285l34.324,5.864s-29.79,19.77-54.872,23.409l-27.083-8.778s32.6-3.409,47.632-20.5" transform="translate(128.041 107.404)" fill="#407bff"/><path d="M374.087,252.1s33.005-1.783,56.338,7.9l14-13.367s-36.638-16.057-60.249-8.033Z" transform="translate(137.936 87.15)" fill="#407bff"/><path d="M209.289,345.956s16.5-17.362,57.675-21.945l24.964,11.25s-37.238,8.081-54.189,15.95Z" transform="translate(77.17 119.471)" fill="#407bff"/><g transform="translate(436.644 218.583)" opacity="0.6"><g clip-path="url(#cd)"><path d="M319.015,170.619,346.989,159.7s31.691,18.545,51.845,21.611l-34.845,6.86s-37.734-7.52-44.974-17.55" transform="translate(-319.015 -159.698)" fill="#fff"/></g></g><g transform="translate(267.237 300.166)" opacity="0.6"><g clip-path="url(#ce)"><path d="M195.245,238.482,216.5,219.3s36.31,5.512,64.642,19.179l-29.6,18.166s-27.866-14.166-56.3-18.166" transform="translate(-195.245 -219.303)" fill="#fff"/></g></g><g transform="translate(96.949 334.417)" opacity="0.6"><g clip-path="url(#cf)"><path d="M70.831,253.741l27.3-9.414s23.679,25.309,42.55,25.315l-31.3,15.022S76.027,271.9,70.831,253.741" transform="translate(-70.832 -244.327)" fill="#fff"/></g></g><g transform="translate(190.859 248.639)" opacity="0.4"><g clip-path="url(#cg)"><path d="M150.234,182.026s35.616-4.166,60.87,15.5l-13.021,16.029s-31.266-13.231-58.639-5.489Z" transform="translate(-139.443 -181.657)" fill="#fff"/></g></g><g transform="translate(475.294 398.689)" opacity="0.8"><g clip-path="url(#ch)"><path d="M394.884,291.285l34.324,5.864s-29.79,19.77-54.872,23.409l-27.083-8.778s32.6-3.409,47.632-20.5" transform="translate(-347.253 -291.284)" fill="#fff"/></g></g><g transform="translate(512.023 323.505)" opacity="0.4"><g clip-path="url(#ci)"><path d="M374.087,252.1s33.005-1.783,56.338,7.9l14-13.367s-36.638-16.057-60.249-8.033Z" transform="translate(-374.087 -236.355)" fill="#fff"/></g></g><g transform="translate(286.459 443.482)" opacity="0.4"><g clip-path="url(#cj)"><path d="M209.289,345.956s16.5-17.362,57.675-21.945l24.964,11.25s-37.238,8.081-54.189,15.95Z" transform="translate(-209.289 -324.011)" fill="#fff"/></g></g></g></g></svg>