<svg xmlns="http://www.w3.org/2000/svg" xmlns:xlink="http://www.w3.org/1999/xlink" width="618.259" height="479.448" viewBox="0 0 618.259 479.448"><defs><clipPath id="a"><rect width="618.259" height="479.448" fill="none"/></clipPath><clipPath id="b"><rect width="618.26" height="479.446" fill="none"/></clipPath><clipPath id="d"><rect width="13.44" height="21.428" fill="none"/></clipPath></defs><g clip-path="url(#a)"><g transform="translate(0 0.002)"><g clip-path="url(#b)"><path d="M561.44,552.562l-279.977.057c-58.521-78.869-63.033-114.658-51.283-131.673,15.627-22.629,59.016-10.6,69.453-34.395,11.21-25.56-33.636-51.306-25.64-92.489,4.136-21.3,21.28-40.908,40.71-48.3,33.491-12.734,52.263,19.012,85.491,8.549,31.8-10.014,27.536-43.161,65.95-59.843,21.833-9.482,55.26-12.693,67.171,2.442,18.616,23.656-27.269,76.954-9.18,95.493,12.412,12.72,39.935-6.305,61.642,11.294,8.247,6.686,14.885,18.034,15.531,29.755,2.034,36.932-56.737,53.611-53.252,81.284,2.833,22.493,43.04,22.433,53.578,49.172,10.674,27.083-16.413,63.074-40.195,88.649" transform="translate(-136.015 -112.738)" fill="#def1ff"/><path d="M517.149,580.743c0-.67-.084-1.424-.084-2.095l19.943-10.391-5.7-26.144-22.457-1.173a101.82,101.82,0,0,0-8.631-15.67l11.229-19.524L492.514,486.81l-19.524,11.228a101.811,101.811,0,0,0-15.67-8.63l-1.173-22.457L430,461.253,419.612,481.2c-.671,0-1.425-.083-2.1-.083a107.926,107.926,0,0,0-15.753,1.34l-13.072-18.267-25.139,9.385,2.095,22.206a102.622,102.622,0,0,0-14.58,10.809l-20.7-8.211-16,21.452,13.575,17.429a94.038,94.038,0,0,0-6.453,17.178l-21.618,4.19-1.927,26.73,20.614,7.206a94.511,94.511,0,0,0,3.938,18.268l-15.753,15,12.82,23.546,21.117-5.112A100.07,100.07,0,0,0,354,657.583L348.889,678.7l23.546,12.821,15-15.754a94.456,94.456,0,0,0,18.268,3.938l7.206,20.614,26.731-1.927,4.19-21.619a94.039,94.039,0,0,0,17.177-6.452L478.436,683.9l21.452-16-8.212-20.7a102.578,102.578,0,0,0,10.81-14.581l22.205,2.1,9.385-25.139L515.809,596.5a107.972,107.972,0,0,0,1.341-15.753M417.522,636.3a55.514,55.514,0,1,1,55.467-55.561A55.514,55.514,0,0,1,417.522,636.3" transform="translate(-180.14 -278.882)" fill="#bde3ff"/><path d="M366.108,1013.923h-128.8a64.118,64.118,0,0,1,6.076-27.338c6.96,3.1,13.409,5.928,13.409,5.928l-8.855-14.04A64.5,64.5,0,0,1,258.6,966.086l5.8,7.877,1.032-13.254a64.09,64.09,0,0,1,36.277-11.184,65.049,65.049,0,0,1,8.734.588l1.482,31.609L326.339,954.4a64.387,64.387,0,0,1,19.333,12.461l-9.507,12.817,17.2-4.224a64.113,64.113,0,0,1,12.743,38.465" transform="translate(-143.482 -574.099)" fill="#9cd6ff"/><path d="M567.134,1051.883H487.5a39.627,39.627,0,0,1,5.113-19.532l15.24,4.781-10.231-11.774a39.73,39.73,0,0,1,24.482-12.95l2.319,14.77,7.3-14.868a39.531,39.531,0,0,1,15.473,5.07l-8.165,19.695,15.637-14.126a39.7,39.7,0,0,1,12.466,28.936" transform="translate(-294.751 -612.059)" fill="#fff"/><path d="M968.842,388.463a47.609,47.609,0,1,1-47.6-47.621,47.6,47.6,0,0,1,47.6,47.621" transform="translate(-528.207 -206.08)" fill="#bde3ff"/><path d="M972.751,399.758a40.221,40.221,0,1,1-40.21-40.231,40.211,40.211,0,0,1,40.21,40.231" transform="translate(-539.504 -217.377)" fill="#fff"/><line x1="5.584" transform="translate(356.757 182.37)" fill="none" stroke="#bde3ff" stroke-miterlimit="10" stroke-width="5.346"/><line x1="5.601" transform="translate(423.707 182.37)" fill="none" stroke="#bde3ff" stroke-miterlimit="10" stroke-width="5.346"/><line y1="5.601" transform="translate(393.03 146.091)" fill="none" stroke="#bde3ff" stroke-miterlimit="10" stroke-width="5.346"/><line y1="5.601" transform="translate(393.03 213.047)" fill="none" stroke="#bde3ff" stroke-miterlimit="10" stroke-width="5.346"/><line x1="4.838" y2="2.792" transform="translate(361.618 197.714)" fill="none" stroke="#bde3ff" stroke-miterlimit="10" stroke-width="5.346"/><line x1="4.838" y2="2.792" transform="translate(419.604 164.233)" fill="none" stroke="#bde3ff" stroke-miterlimit="10" stroke-width="5.346"/><line x1="2.792" y1="4.838" transform="translate(374.893 150.958)" fill="none" stroke="#bde3ff" stroke-miterlimit="10" stroke-width="5.346"/><line x1="2.792" y1="4.838" transform="translate(408.375 208.944)" fill="none" stroke="#bde3ff" stroke-miterlimit="10" stroke-width="5.346"/><line x1="2.792" y2="4.838" transform="translate(374.893 208.944)" fill="none" stroke="#bde3ff" stroke-miterlimit="10" stroke-width="5.346"/><line x1="2.792" y2="4.838" transform="translate(408.375 150.958)" fill="none" stroke="#bde3ff" stroke-miterlimit="10" stroke-width="5.346"/><line x1="4.838" y1="2.792" transform="translate(361.618 164.233)" fill="none" stroke="#bde3ff" stroke-miterlimit="10" stroke-width="5.346"/><line x1="4.838" y1="2.792" transform="translate(419.604 197.714)" fill="none" stroke="#bde3ff" stroke-miterlimit="10" stroke-width="5.346"/><line x1="29.632" transform="translate(387.693 182.372)" fill="none" stroke="#bde3ff" stroke-miterlimit="10" stroke-width="3.564"/><line y2="24.406" transform="translate(393.03 158.027)" fill="none" stroke="#9cd6ff" stroke-miterlimit="10" stroke-width="7.128"/><line y1="8.39" x2="14.131" transform="translate(378.919 182.436)" fill="none" stroke="#9cd6ff" stroke-miterlimit="10" stroke-width="7.128"/><path d="M630.146,406.705h79.737c-11.629-14.048-20.238-16.523-26.162-15.864-8.3.924-8.817,7.725-20.435,10.069-8.855,1.787-13.571-1.153-24.285,2.073a45.924,45.924,0,0,0-8.855,3.721" transform="translate(-380.996 -236.252)" fill="#fff"/><path d="M729.768,48.089H565.541c.442-6.72,2.133-16.6,9.245-21.208,11.373-7.368,28.284,4.15,34.8-3.263,4.623-5.257-2.079-13.1,2.719-19.033,5.389-6.665,20.912-5.524,32.084,0,15,7.416,15.618,19.5,26.1,20.121,10.148.6,15.2-10.38,22.839-7.613,5.011,1.816,5.143,7.383,9.789,14.139,3.824,5.561,11.148,12.572,26.646,16.858" transform="translate(-341.935 -0.004)" fill="#def1ff"/><path d="M178.242,243.407H68.554c3.709-4.138,9.079-8.775,15.978-10.262C95.859,230.7,100.9,239,110.011,234.352c7.812-3.982,7.059-11.59,14.25-13.28,6.859-1.612,9.086,4.945,18.137,4.225,6.748-.536,8.173-4.391,12.955-4.829,5.221-.478,12.838,3.263,22.888,22.938" transform="translate(-41.449 -133.277)" fill="#bde3ff"/><path d="M1275.866,312.214c1.671-15.038,6.305-19.555,9.873-21.1,12.9-5.582,32.924,18.608,42.274,12.249,4.535-3.084,2.164-10.362,6.361-11.86,6.319-2.255,12.365,14,26.191,15.02,5.98.442,7.806-2.381,14.854-1.264a29.012,29.012,0,0,1,14.249,6.953Z" transform="translate(-771.408 -175.505)" fill="#def1ff"/><path d="M902.921,762.4l4.469,11.659a7.774,7.774,0,0,0,4.372,4.436l5.848,25.785a3.716,3.716,0,0,0,5.425,2.429,10.4,10.4,0,0,0,5.2-10.909l-4.169-23.616a11.3,11.3,0,0,0,8.052-5.845l4.256-8.041Z" transform="translate(-545.92 -458.481)" fill="#9cd6ff"/><path d="M942.5,704.437c0,11.025,2.173,21,5.68,28.153a73.251,73.251,0,0,0-44.223-15.143H880.642a13.308,13.308,0,1,1,0-26.616H903.96a73.281,73.281,0,0,0,44.735-15.542c-3.806,7.206-6.192,17.6-6.192,29.148" transform="translate(-524.403 -408.291)" fill="#fff"/><path d="M886.058,718.5a13.306,13.306,0,0,0,9.416,22.716H880.64a13.307,13.307,0,1,1,0-26.613h14.834a13.278,13.278,0,0,0-9.416,3.9" transform="translate(-524.398 -432.059)" fill="#bde3ff"/><path d="M1087.35,697.272c0,18.625-8.478,33.722-18.938,33.722a10.428,10.428,0,0,1-1.058-.05c-4.75-.469-9.025-4.033-12.206-9.593a42.466,42.466,0,0,1-4.6-12.852,57.963,57.963,0,0,1-1.079-11.226,56.769,56.769,0,0,1,1.179-11.681,41.126,41.126,0,0,1,5.013-13.25c2.968-4.814,6.8-7.974,11.041-8.642a9.839,9.839,0,0,1,1.711-.142c10.46,0,18.938,15.1,18.938,33.714" transform="translate(-634.524 -401.199)" fill="#bde3ff"/><path d="M1066.48,730.738a11.457,11.457,0,0,1-11.453,11.454h-4.481a57.944,57.944,0,0,1-1.079-11.226,56.775,56.775,0,0,1,1.179-11.681h4.381a11.455,11.455,0,0,1,11.453,11.453" transform="translate(-634.524 -434.892)" fill="#9cd6ff"/><path d="M578.861,639.987H476.085a5.2,5.2,0,0,1-5.2-5.2V491a5.2,5.2,0,0,1,5.2-5.2H578.861a5.2,5.2,0,0,1,5.2,5.2V634.79a5.2,5.2,0,0,1-5.2,5.2" transform="translate(-284.705 -293.722)" fill="#fff"/><path d="M517.154,539.624H504.16a5.2,5.2,0,0,1-5.2-5.2V521.432a5.2,5.2,0,0,1,5.2-5.2h12.994a5.2,5.2,0,0,1,5.2,5.2v12.994a5.2,5.2,0,0,1-5.2,5.2" transform="translate(-301.68 -312.125)" fill="#def1ff"/><path d="M516.548,539.448l3.7,3.651,6.849-7.3" transform="translate(-312.313 -323.952)" fill="none" stroke="#bde3ff" stroke-linecap="round" stroke-miterlimit="10" stroke-width="13.146"/><line x2="49.55" transform="translate(233.341 211.639)" fill="none" stroke="#def1ff" stroke-linecap="round" stroke-miterlimit="10" stroke-width="9.202"/><line x2="49.55" transform="translate(233.341 219.97)" fill="none" stroke="#def1ff" stroke-linecap="round" stroke-miterlimit="10" stroke-width="9.202"/><path d="M517.154,625.7H504.16a5.2,5.2,0,0,1-5.2-5.2V607.507a5.2,5.2,0,0,1,5.2-5.2h12.994a5.2,5.2,0,0,1,5.2,5.2V620.5a5.2,5.2,0,0,1-5.2,5.2" transform="translate(-301.68 -364.167)" fill="#def1ff"/><path d="M516.548,625.522l3.7,3.651,6.849-7.3" transform="translate(-312.313 -375.994)" fill="none" stroke="#bde3ff" stroke-linecap="round" stroke-miterlimit="10" stroke-width="13.146"/><line x2="49.55" transform="translate(233.341 245.672)" fill="none" stroke="#def1ff" stroke-linecap="round" stroke-miterlimit="10" stroke-width="9.202"/><line x2="49.55" transform="translate(233.341 254.003)" fill="none" stroke="#def1ff" stroke-linecap="round" stroke-miterlimit="10" stroke-width="9.202"/><path d="M11.694,0h0A11.694,11.694,0,0,1,23.389,11.694v0A11.694,11.694,0,0,1,11.7,23.389h0A11.694,11.694,0,0,1,0,11.694v0A11.694,11.694,0,0,1,11.694,0Z" transform="translate(197.282 272.175)" fill="none" stroke="#def1ff" stroke-miterlimit="10" stroke-width="9.202"/><line x2="49.55" transform="translate(233.341 279.704)" fill="none" stroke="#def1ff" stroke-linecap="round" stroke-miterlimit="10" stroke-width="9.202"/><line x2="49.55" transform="translate(233.341 288.035)" fill="none" stroke="#def1ff" stroke-linecap="round" stroke-miterlimit="10" stroke-width="9.202"/><path d="M11.694,0h0A11.694,11.694,0,0,1,23.389,11.694v0A11.694,11.694,0,0,1,11.7,23.389h0A11.694,11.694,0,0,1,0,11.694v0A11.694,11.694,0,0,1,11.694,0Z" transform="translate(197.282 306.208)" fill="none" stroke="#def1ff" stroke-miterlimit="10" stroke-width="9.202"/><line x2="49.55" transform="translate(233.341 313.737)" fill="none" stroke="#def1ff" stroke-linecap="round" stroke-miterlimit="10" stroke-width="9.202"/><line x2="49.55" transform="translate(233.341 322.068)" fill="none" stroke="#def1ff" stroke-linecap="round" stroke-miterlimit="10" stroke-width="9.202"/><path d="M1010.993,1013.923H882.2a64.583,64.583,0,0,1,.635-9.073l9.342-2.83-7.2-6.859a64.251,64.251,0,0,1,14.88-25.537l19.881,12.094c-.161-.238-7.06-10.384-12.884-18.473a64.128,64.128,0,0,1,24.125-11.812l9.2,35.165,4.926-37.057c.5-.01.995-.017,1.492-.017a64.263,64.263,0,0,1,19.306,2.947c-1.314,6.684-2.793,15.4-2.793,15.4l13.573-10.9a64.661,64.661,0,0,1,27.943,29l-27.946,12.246h32.385a64.517,64.517,0,0,1,1.929,15.707" transform="translate(-533.39 -574.099)" fill="#bde3ff"/><path d="M42.113,737.567c-33.389,20.655-36.07,55.3-24.959,65.77,7.571,7.134,24.307,7.124,31.36-1.287,3.83-4.568,5.7-12.682,2.037-17.229-4.781-5.939-16.487-2.686-18.05-2.253C13.532,787.838-6.153,815.231,4.151,833.2c5.881,10.258,20.227,15.174,35.161,13.919" transform="translate(-0.795 -445.946)" fill="none" stroke="#030303" stroke-miterlimit="10" stroke-width="2.629" stroke-dasharray="15.775 15.775"/><path d="M80.341,713.884l-6.046-5.961,38.42-1.8Z" transform="translate(-44.92 -426.934)" fill="#bde3ff"/><path d="M89.586,713.884l.786,9.15,31.587-16.911Z" transform="translate(-54.165 -426.934)" fill="#59baff"/><path d="M94.552,734.976l-2.978,5.5,7.028-3.763Z" transform="translate(-55.367 -444.379)" fill="#008ff5"/><path d="M99.106,717.53l8.144,8.092,20.466-19.5Z" transform="translate(-59.921 -426.934)" fill="#bde3ff"/><path d="M1473.11,573.247q-.446-1.49-.968-2.965" transform="translate(-890.08 -344.803)" fill="none" stroke="#030303" stroke-miterlimit="10" stroke-width="2.629"/><path d="M1297.587,374.34a35.235,35.235,0,0,0-7.693-10.452c-10.47-9.517-25.986-10.216-39.179-15.328-15.38-5.958-27.726-18.168-36.54-32.11s-14.425-29.636-19.54-45.317c-1.7-5.206-3.98-10.931-7.187-15.43" transform="translate(-717.949 -154.604)" fill="none" stroke="#030303" stroke-miterlimit="10" stroke-width="2.629" stroke-dasharray="15.774 15.774"/><path d="M1179.1,246.237a21.047,21.047,0,0,0-2.245-2.161" transform="translate(-711.543 -147.574)" fill="none" stroke="#030303" stroke-miterlimit="10" stroke-width="2.629"/><path d="M1172.448,217.295l-27.169-14.5,18.256,15.445Z" transform="translate(-692.453 -122.612)" fill="#bde3ff"/><path d="M1162.437,225.3c.042-.146-1.552-5.45-1.552-5.45l-15.608-17.055Z" transform="translate(-692.452 -122.613)" fill="#008ff5"/><path d="M1160.887,219.846l-9.487,7.979-6.12-25.034Z" transform="translate(-692.453 -122.612)" fill="#bde3ff"/><path d="M1145.279,202.792l18.256,15.445-1.1,7.06-1.552-5.45Z" transform="translate(-692.453 -122.612)" fill="#59baff"/></g></g><g transform="translate(0 0.002)"><g clip-path="url(#b)"><path d="M1199.8,697.069H1078.149a19.574,19.574,0,1,1,0-39.148H1199.8a19.574,19.574,0,1,1,0,39.148" transform="translate(-640.03 -397.791)" fill="#179eff"/><line x2="5.203" y2="5.203" transform="translate(559.361 286.618)" fill="none" stroke="#0b1115" stroke-linecap="round" stroke-miterlimit="10" stroke-width="7.072"/><path d="M1375.333,691.535a9.321,9.321,0,1,1,9.321,9.321A9.321,9.321,0,0,1,1375.333,691.535Z" transform="translate(-831.547 -412.479)" fill="none" stroke="#0b1115" stroke-miterlimit="10" stroke-width="4.715"/><path d="M289,822.022V816.8a10.434,10.434,0,0,1,20.868,0v5.217" transform="translate(-174.731 -487.546)" fill="none" stroke="#030303" stroke-linecap="round" stroke-miterlimit="10" stroke-width="2.629"/><path d="M295.647,906.314H254.786a5.837,5.837,0,0,1-5.837-5.837V850.286a5.837,5.837,0,0,1,5.837-5.837h40.861a5.837,5.837,0,0,1,5.837,5.837v50.191a5.837,5.837,0,0,1-5.837,5.837" transform="translate(-150.518 -510.568)" fill="#0b1115"/><path d="M262.607,822.022V816.8a10.434,10.434,0,0,1,20.868,0v5.217" transform="translate(-158.776 -487.546)" fill="none" stroke="#030303" stroke-linecap="round" stroke-miterlimit="10" stroke-width="2.629"/><path d="M260.761,906.314H219.9a5.837,5.837,0,0,1-5.837-5.837V850.286a5.837,5.837,0,0,1,5.837-5.837h40.861a5.837,5.837,0,0,1,5.837,5.837v50.191a5.837,5.837,0,0,1-5.837,5.837" transform="translate(-129.426 -510.568)" fill="#179eff"/><path d="M277.15,565.052H174.142a4.185,4.185,0,0,0-4.185,4.185v29.827a4.185,4.185,0,0,0,4.185,4.185h82.4l19.708,18.3-5.484-18.3h6.384a4.185,4.185,0,0,0,4.185-4.185V569.237a4.185,4.185,0,0,0-4.185-4.185" transform="translate(-102.759 -341.641)" fill="#179eff"/><path d="M227.472,597.338a5.854,5.854,0,0,1-1.644,4.067l-1.079,1.115-8.135,7.361-8.134-7.361-1.079-1.115a5.844,5.844,0,0,1,8.4-8.13l.814.841.814-.841a5.844,5.844,0,0,1,10.044,4.062" transform="translate(-124.403 -357.628)" fill="#0b1115"/><path d="M303.551,597.338a5.854,5.854,0,0,1-1.644,4.067l-1.079,1.115-8.135,7.361-8.134-7.361-1.079-1.115a5.844,5.844,0,0,1,8.4-8.13l.814.841.815-.841a5.844,5.844,0,0,1,10.044,4.062" transform="translate(-170.402 -357.628)" fill="#0b1115"/><path d="M379.629,597.338a5.854,5.854,0,0,1-1.644,4.067l-1.079,1.115-8.135,7.361-8.134-7.361-1.079-1.115a5.844,5.844,0,0,1,8.4-8.13l.814.841.815-.841a5.844,5.844,0,0,1,10.044,4.062" transform="translate(-216.4 -357.628)" fill="#0b1115"/><path d="M590.054,377.8a26.219,26.219,0,0,0-26.222,26.217c0,21.849,26.222,52.44,26.222,52.44s26.217-30.59,26.217-52.44A26.218,26.218,0,0,0,590.054,377.8m0,37.144a10.925,10.925,0,1,1,10.922-10.927,10.93,10.93,0,0,1-10.922,10.927" transform="translate(-340.901 -228.428)" fill="#179eff"/><path d="M613.443,438.338a10.925,10.925,0,1,1,10.922-10.927A10.93,10.93,0,0,1,613.443,438.338Z" transform="translate(-364.29 -251.817)" fill="none" stroke="#030303" stroke-miterlimit="10" stroke-width="2.718"/><path d="M1191.578,906.71a30.929,30.929,0,1,0-30.929,30.929,30.929,30.929,0,0,0,30.929-30.929" transform="translate(-683.046 -529.512)" fill="#179eff"/><path d="M1185.161,916.779h0a11.175,11.175,0,0,0-11.175,11.175v9.312l-3.725,3.725v1.862h29.8v-1.862l-3.725-3.725v-9.312a11.175,11.175,0,0,0-11.175-11.175" transform="translate(-707.558 -554.3)" fill="#fff"/><line y2="2.637" transform="translate(477.603 359.213)" fill="none" stroke="#000" stroke-linecap="round" stroke-miterlimit="10" stroke-width="7.066"/><path d="M1202.249,993.794a3.725,3.725,0,0,0,3.725-3.725h-7.45a3.725,3.725,0,0,0,3.725,3.725" transform="translate(-724.646 -598.612)"/><path d="M892.944,426.685l70.534-.446a14.041,14.041,0,0,1,14.093,13.989l.084,22.663a14.041,14.041,0,0,1-13.989,14.094l-51.636.375-26.093,24.407,7.195-24.337a14.041,14.041,0,0,1-14.093-13.989l-.084-22.663a14.042,14.042,0,0,1,13.989-14.094" transform="translate(-531.429 -257.713)" fill="#179eff"/><path d="M975.429,483.354H942.851a2.907,2.907,0,0,1-2.907-2.907V459.726a2.907,2.907,0,0,1,2.907-2.907h32.578a2.907,2.907,0,0,1,2.907,2.907v20.721a2.907,2.907,0,0,1-2.907,2.907" transform="translate(-568.304 -276.201)" fill="#fff"/><path d="M939.944,464.172l19.2,10.361,19.2-10.361" transform="translate(-568.304 -280.647)" fill="none" stroke="#030303" stroke-linecap="round" stroke-miterlimit="10" stroke-width="2.094"/><path d="M1051.428,453.8a15.353,15.353,0,1,1-15.354-15.353,15.353,15.353,0,0,1,15.354,15.353" transform="translate(-617.143 -265.091)" fill="#0b1115"/><path d="M1053.968,474.672h-1.673V463.58l-3.356,1.232V463.3l4.768-1.79h.261Z" transform="translate(-634.205 -279.038)" fill="#fff"/><path d="M432.4,920.579a1.109,1.109,0,0,0-.523.45,1.819,1.819,0,0,0,.364,2.292l2.911,2.71a1.013,1.013,0,0,1-.431,1.72L418.76,931.5a1.369,1.369,0,0,0-.959,1.844.8.8,0,0,0,.1.166l3.039,2.88a5.148,5.148,0,0,0,3.152,1.4l22.04,1.438,1.526-10.037-13.28-8.325a2.218,2.218,0,0,0-1.98-.283" transform="translate(-252.54 -556.528)" fill="#ffc6ba"/><path d="M529.417,967.98l-46.05-16.569,3.16-9.8,47.055,13.45Z" transform="translate(-292.251 -569.314)" fill="#ffc6ba"/><path d="M481.068,941.229a5.149,5.149,0,1,1-6.48,3.32,5.149,5.149,0,0,1,6.48-3.32" transform="translate(-286.792 -568.932)" fill="#ffc6ba"/><path d="M640.3,906.548l-11.155-12.629-35.576,33.607,8.986,10.174Z" transform="translate(-358.883 -540.478)" fill="#ffc6ba"/><path d="M590.065,976.318a6.787,6.787,0,1,1-.594,9.58,6.787,6.787,0,0,1,.594-9.58" transform="translate(-355.375 -589.27)" fill="#ffc6ba"/><path d="M679.2,890.692a8.425,8.425,0,1,1-.737,11.892,8.425,8.425,0,0,1,.737-11.892" transform="translate(-408.93 -537.251)" fill="#ffc6ba"/><path d="M658.337,886.434,643.9,900.07l12.753,14.439,15.272-12.6a10.3,10.3,0,1,0-13.591-15.473" transform="translate(-389.314 -534.395)" fill="#008ff5"/><path d="M455.507,779.387a1.3,1.3,0,0,1,1.69-.845l6.285,2.3-2.406-4.49c-2.211.175-6.081.367-7.4-.3a2.68,2.68,0,0,1-1.462-2.906l5.544-.094-4.394-1.682a4.973,4.973,0,0,1-3.192-4.838l13.582,3.98c1.533.456,12.486,10.444,12.486,10.444l-6.154,9.224-14.019-9.322a1.3,1.3,0,0,1-.556-1.476" transform="translate(-272.176 -463.461)" fill="#ffc6ba"/><path d="M521.01,851.9,495.726,810l8.633-5.612,28.032,40.116Z" transform="translate(-299.723 -486.347)" fill="#ffc6ba"/><path d="M503.086,800.806a5.149,5.149,0,1,1-7.123-1.511,5.148,5.148,0,0,1,7.123,1.511" transform="translate(-298.45 -482.764)" fill="#ffc6ba"/><path d="M622.844,905.435l-.69-16.836-48.8,3.641.556,13.562Z" transform="translate(-346.656 -537.262)" fill="#ffc6ba"/><path d="M563.4,897.8a6.787,6.787,0,1,1-6.5,7.059,6.787,6.787,0,0,1,6.5-7.059" transform="translate(-336.703 -542.821)" fill="#ffc6ba"/><path d="M684.428,888.588a8.425,8.425,0,1,1-8.073,8.763,8.425,8.425,0,0,1,8.073-8.763" transform="translate(-408.93 -537.251)" fill="#ffc6ba"/><path d="M666.3,883.855l-19.8,1.477.789,19.249,19.8-.147a10.3,10.3,0,1,0-.788-20.579" transform="translate(-390.884 -534.388)" fill="#008ff5"/><path d="M639.257,646.239l.474-1.212-1.241-4.819a1.716,1.716,0,0,1,3.2-1.191l1.644,3.31,2.555-4.794-1.508-6.631a4.973,4.973,0,0,1,2.249-5.342l1.765,5.622a7.065,7.065,0,0,1,1.243-2.234,2.68,2.68,0,0,1,3.226-.424l-2.717,8.237.723,2.3c.472,1.528-1.746,16.184-1.746,16.184l-8.643.007s-2.039-6.925-1.221-9.016" transform="translate(-386.008 -378.225)" fill="#ffc6ba"/><path d="M598.752,742.019l16.337-46.132,9.816,3.11L611.692,746.12Z" transform="translate(-362.015 -420.745)" fill="#ffc6ba"/><path d="M649.517,693.5a5.149,5.149,0,1,1-3.353-6.463,5.149,5.149,0,0,1,3.353,6.463" transform="translate(-386.627 -415.248)" fill="#ffc6ba"/><path d="M633.831,852.779,646.4,841.561l-33.786-35.406-10.128,9.037Z" transform="translate(-364.274 -487.415)" fill="#ffc6ba"/><path d="M609.983,802.685a6.787,6.787,0,1,1-9.583-.546,6.787,6.787,0,0,1,9.583.546" transform="translate(-361.64 -483.945)" fill="#ffc6ba"/><path d="M691.059,891.4a8.425,8.425,0,1,1-11.9-.678,8.425,8.425,0,0,1,11.9.678" transform="translate(-408.93 -537.251)" fill="#ffc6ba"/><path d="M674.14,870.577l-13.708-14.366-14.375,12.826,12.679,15.209a10.3,10.3,0,1,0,15.4-13.669" transform="translate(-390.616 -517.68)" fill="#008ff5"/><path d="M1020.2,920.579a1.109,1.109,0,0,1,.523.45,1.819,1.819,0,0,1-.364,2.292l-2.91,2.71a1.013,1.013,0,0,0,.431,1.72l15.963,3.747a1.37,1.37,0,0,1,.959,1.844.808.808,0,0,1-.1.166l-3.039,2.88a5.148,5.148,0,0,1-3.152,1.4l-22.04,1.438-1.526-10.037,13.28-8.325a2.218,2.218,0,0,1,1.98-.283" transform="translate(-607.602 -556.528)" fill="#ffc6ba"/><path d="M892.236,967.98l46.05-16.569-3.16-9.8-47.055,13.45Z" transform="translate(-536.941 -569.314)" fill="#ffc6ba"/><path d="M1001.621,941.229a5.149,5.149,0,1,0,6.48,3.32,5.149,5.149,0,0,0-6.48-3.32" transform="translate(-603.437 -568.932)" fill="#ffc6ba"/><path d="M786.678,906.548l11.155-12.629,35.576,33.607L824.422,937.7Z" transform="translate(-475.637 -540.478)" fill="#ffc6ba"/><path d="M887.618,976.318a6.787,6.787,0,1,0,.594,9.58,6.787,6.787,0,0,0-.594-9.58" transform="translate(-529.848 -589.27)" fill="#ffc6ba"/><path d="M793.477,890.692a8.425,8.425,0,1,0,.737,11.892,8.425,8.425,0,0,0-.737-11.892" transform="translate(-471.282 -537.251)" fill="#ffc6ba"/><path d="M791.873,886.434l14.435,13.636-12.754,14.439-15.273-12.6a10.3,10.3,0,1,1,13.591-15.473" transform="translate(-468.437 -534.395)" fill="#008ff5"/><path d="M1003.064,779.387a1.3,1.3,0,0,0-1.69-.845l-6.285,2.3,2.406-4.49c2.211.175,6.081.367,7.4-.3a2.68,2.68,0,0,0,1.462-2.906l-5.545-.094,4.395-1.682a4.973,4.973,0,0,0,3.192-4.838l-13.582,3.98c-1.533.456-12.486,10.444-12.486,10.444l6.154,9.224,14.019-9.322a1.3,1.3,0,0,0,.556-1.476" transform="translate(-593.935 -463.461)" fill="#ffc6ba"/><path d="M921.363,851.9,946.648,810l-8.633-5.612-28.032,40.116Z" transform="translate(-550.189 -486.347)" fill="#ffc6ba"/><path d="M979.607,800.806a5.149,5.149,0,1,0,7.123-1.511,5.148,5.148,0,0,0-7.123,1.511" transform="translate(-591.782 -482.764)" fill="#ffc6ba"/><path d="M799.911,905.435l.69-16.836,48.8,3.641-.556,13.562Z" transform="translate(-483.638 -537.262)" fill="#ffc6ba"/><path d="M914.287,897.8a6.787,6.787,0,1,0,6.5,7.059,6.787,6.787,0,0,0-6.5-7.059" transform="translate(-548.52 -542.821)" fill="#ffc6ba"/><path d="M788.245,888.588a8.425,8.425,0,1,0,8.073,8.763,8.425,8.425,0,0,0-8.073-8.763" transform="translate(-471.282 -537.251)" fill="#ffc6ba"/><path d="M785.467,883.855l19.8,1.477-.789,19.249-19.8-.147a10.3,10.3,0,1,1,.788-20.579" transform="translate(-468.424 -534.388)" fill="#008ff5"/><path d="M837.123,646.239l-.474-1.212,1.242-4.819a1.716,1.716,0,0,0-3.2-1.191l-1.643,3.31-2.555-4.794L832,630.9a4.974,4.974,0,0,0-2.25-5.342l-1.765,5.622a7.066,7.066,0,0,0-1.243-2.234,2.68,2.68,0,0,0-3.226-.424l2.718,8.237-.723,2.3c-.473,1.528,1.746,16.184,1.746,16.184l8.644.007s2.039-6.925,1.221-9.016" transform="translate(-497.912 -378.225)" fill="#ffc6ba"/><path d="M859.7,742.019l-16.337-46.132L833.542,699l13.213,47.122Z" transform="translate(-503.972 -420.745)" fill="#ffc6ba"/><path d="M833.172,693.5a5.149,5.149,0,1,0,3.353-6.463,5.149,5.149,0,0,0-3.353,6.463" transform="translate(-503.602 -415.248)" fill="#ffc6ba"/><path d="M797.457,852.779l-12.573-11.218,33.786-35.406,10.128,9.037Z" transform="translate(-474.553 -487.415)" fill="#ffc6ba"/><path d="M867.7,802.685a6.787,6.787,0,1,0,9.583-.546,6.787,6.787,0,0,0-9.583.546" transform="translate(-523.583 -483.945)" fill="#ffc6ba"/><path d="M781.614,891.4a8.425,8.425,0,1,0,11.9-.678,8.425,8.425,0,0,0-11.9.678" transform="translate(-471.282 -537.251)" fill="#ffc6ba"/><path d="M777.363,870.577l13.708-14.366,14.375,12.826-12.679,15.209a10.3,10.3,0,1,1-15.4-13.669" transform="translate(-468.426 -517.68)" fill="#008ff5"/><path d="M772.207,1008.713l-44.943,19.37,3.757,9.587,46.139-16.319Z" transform="translate(-439.715 -609.885)" fill="#ffc6ba"/><path d="M726.017,1066.746a5.149,5.149,0,1,0-6.672-2.916,5.149,5.149,0,0,0,6.672,2.916" transform="translate(-434.711 -638.96)" fill="#ffc6ba"/><path d="M781.347,908.22l15.624-6.309,16.8,45.967-12.587,5.082Z" transform="translate(-472.414 -545.311)" fill="#ffc6ba"/><path d="M843.337,1011.676a6.787,6.787,0,1,0-3.752,8.834,6.787,6.787,0,0,0,3.752-8.834" transform="translate(-501.985 -609.108)" fill="#ffc6ba"/><path d="M796.031,893.848a8.425,8.425,0,1,0-4.658,10.967,8.425,8.425,0,0,0,4.658-10.967" transform="translate(-471.474 -537.248)" fill="#ffc6ba"/><path d="M794.924,890.292l6.814,18.651-17.864,7.214-8.026-18.1a10.3,10.3,0,1,1,19.075-7.763" transform="translate(-468.63 -534.39)" fill="#008ff5"/><path d="M650.275,1008.713l44.943,19.37-3.757,9.587-46.139-16.319Z" transform="translate(-390.172 -609.885)" fill="#ffc6ba"/><path d="M757.012,1066.746a5.149,5.149,0,1,1,6.672-2.916,5.149,5.149,0,0,1-6.672,2.916" transform="translate(-455.723 -638.96)" fill="#ffc6ba"/><path d="M667.858,908.22l-15.624-6.309-16.8,45.967,12.587,5.082Z" transform="translate(-384.196 -545.311)" fill="#ffc6ba"/><path d="M634.681,1011.676a6.787,6.787,0,1,1,3.752,8.834,6.787,6.787,0,0,1-3.752-8.834" transform="translate(-383.438 -609.108)" fill="#ffc6ba"/><path d="M676.976,893.848a8.425,8.425,0,1,1,4.658,10.967,8.425,8.425,0,0,1-4.658-10.967" transform="translate(-408.938 -537.248)" fill="#ffc6ba"/><path d="M663.1,890.292l-6.814,18.651,17.864,7.214,8.026-18.1a10.3,10.3,0,1,0-19.075-7.763" transform="translate(-396.802 -534.39)" fill="#008ff5"/><path d="M748.165,1047.163a17.786,17.786,0,1,0,16.706,18.8,17.786,17.786,0,0,0-16.706-18.8" transform="translate(-440.964 -633.113)" fill="#25292d"/><path d="M967.147,1073.369a10.463,10.463,0,1,0,9.828,11.062,10.463,10.463,0,0,0-9.828-11.062" transform="translate(-578.053 -648.965)" fill="#25292d"/><path d="M773.76,1047.211l81.894,10.353-1.234,20.889c-41.651,6.74-71.887,6.778-82.757,4.267Z" transform="translate(-466.559 -633.161)" fill="#25292d"/><path d="M708.418,1047.163a17.786,17.786,0,1,1-16.706,18.8,17.786,17.786,0,0,1,16.706-18.8" transform="translate(-418.2 -633.113)" fill="#25292d"/><path d="M511.832,1073.369A10.463,10.463,0,1,1,502,1084.43a10.463,10.463,0,0,1,9.828-11.062" transform="translate(-303.508 -648.965)" fill="#25292d"/><path d="M608.783,1047.211l-81.894,10.353,1.234,20.889c41.651,6.74,71.887,6.778,82.757,4.267Z" transform="translate(-318.565 -633.161)" fill="#25292d"/><path d="M744.59,1123.434c3.507-1.058,6.609,1.084,10.035,2.381,6.1,2.309,10.127-1.538,17.512-.7.348.04,9.152,1.149,9.384,7.19.275,7.175-5.692,9.113-15.361,8.014s-25.56-2.133-26.674-7.905c-.762-3.948.355-7.549,5.1-8.981" transform="translate(-446.972 -679.075)" fill="#0b1115"/><path d="M723.118,1126.09a5.616,5.616,0,0,0-4.239-6.569l-29.176-6.768a5.617,5.617,0,1,0-2.538,10.943l29.176,6.768a5.617,5.617,0,0,0,6.74-4.2c.013-.057.026-.115.037-.172" transform="translate(-412.839 -672.701)" fill="#ffc6ba"/><path d="M728.386,1133.546a6.075,6.075,0,1,1,7.148-4.767,6.075,6.075,0,0,1-7.148,4.767" transform="translate(-437.439 -678.084)" fill="#25292d"/><path d="M607.05,1104.509l-84.233-10.5,4.1-20.52c15.372,5.692,23.982,2.035,30.973,3.012,15.836,2.213,51.541,16.1,51.541,16.1Z" transform="translate(-316.103 -649.048)" fill="#25292d"/><path d="M739.4,951.7l-60.793-.271,8.426-67.264h40.878c.621,7.281,11.488,67.534,11.488,67.534" transform="translate(-410.299 -534.583)" fill="#008ff5"/><path d="M714.677,884.192a13.529,13.529,0,0,0,27.058,0Z" transform="translate(-432.105 -534.597)" fill="#ffc6ba"/><path d="M712.009,816.608s10.523-11.078,28.865,0c0,0-1.034-19.379-2.464-22.743s-6.558-11.525-15.724-7.474-10.677,30.217-10.677,30.217" transform="translate(-430.491 -474.799)" fill="#0b1115"/><path d="M745.339,834.555v22.4a6.72,6.72,0,0,1-13.44,0v-22.4Z" transform="translate(-442.517 -504.586)" fill="#ffc6ba"/><g transform="translate(289.382 329.969)" opacity="0.6" style="mix-blend-mode:multiply;isolation:isolate"><g clip-path="url(#d)"><path d="M745.339,834.555v21.428L731.9,845.665v-11.11Z" transform="translate(-731.899 -834.555)" fill="#ffb3a3"/></g></g><path d="M741.382,798.99a1.753,1.753,0,0,0-.652-.348v-6.755a11.521,11.521,0,0,0-10.483-11.617q-.451-.031-.909-.031t-.909.031a11.521,11.521,0,0,0-10.483,11.617v6.754a1.743,1.743,0,0,0-.656.348c-2.139,1.759.779,7.03,3.36,7.651.221.455,7.313,8.426,8.686,8.6,1.373-.177,8.464-8.148,8.686-8.6,2.581-.621,5.5-5.892,3.36-7.651" transform="translate(-433.236 -471.746)" fill="#ffc6ba"/><path d="M726.92,847.015c.221.455,4.609,8.6,8.686,8.6,4.5,0,8.464-8.148,8.686-8.6" transform="translate(-439.507 -512.12)" fill="#ffc6ba"/><path d="M740.827,791.768a14.969,14.969,0,0,0-2.782-7.481,1.666,1.666,0,0,0-.543-.5c-.407-.441-.806-.865-1.213-1.255-.212-.2-.416-.39-.627-.577a14.207,14.207,0,0,0-19.585.577,14.864,14.864,0,0,0-4.266,9.1c-.059.517.068,29.931.068,29.931a10.953,10.953,0,0,0,5.174,6.1V787.875l18.541.008c.009.017.025,39.761.025,39.761a11,11,0,0,0,5.123-6.081s.127-29.328.085-29.795" transform="translate(-430.362 -470.586)" fill="#030303"/><path d="M740.851,791.768a28.19,28.19,0,0,1-6.336,2.086,38.3,38.3,0,0,1-8.041.823,39.341,39.341,0,0,1-6.7-.56,29.2,29.2,0,0,1-7.939-2.485,14.612,14.612,0,0,1,11.756-13.071,14.15,14.15,0,0,1,12.095,3.393,23.411,23.411,0,0,1,1.84,1.832,1.666,1.666,0,0,1,.543.5,14.969,14.969,0,0,1,2.782,7.481" transform="translate(-430.386 -470.586)" fill="#030303"/><path d="M707.722,1167.91c-3.521-1.011-6.594,1.171-10,2.513-6.068,2.389-10.146-1.405-17.52-.469-.348.044-9.136,1.269-9.289,7.313-.181,7.177,5.811,9.037,15.465,7.812s25.53-2.468,26.568-8.254c.71-3.957-.454-7.544-5.221-8.914" transform="translate(-405.64 -705.981)" fill="#0b1115"/><path d="M738.012,1162.7a5.617,5.617,0,0,1,2.973-7.231l27.458-11.963a5.617,5.617,0,0,1,4.487,10.3l-27.458,11.963a5.617,5.617,0,0,1-7.393-2.905c-.023-.054-.046-.109-.068-.162" transform="translate(-445.971 -691.102)" fill="#ffc6ba"/><path d="M774.918,1171.109a6.076,6.076,0,1,0-7.9-3.387,6.076,6.076,0,0,0,7.9,3.387" transform="translate(-463.49 -700.986)" fill="#25292d"/><path d="M780.764,1120.09l80.917-25.651-7.765-19.432c-14.079,8.394-23.211,6.364-29.908,8.6-15.169,5.057-47.753,25.2-47.753,25.2Z" transform="translate(-469.336 -649.967)" fill="#25292d"/><path d="M645.235,1022.961h65.9a4.083,4.083,0,0,0,4.083-4.083l9.208-40.83a4.083,4.083,0,0,0-4.083-4.083H636.027a4.083,4.083,0,0,0-4.083,4.083l9.208,40.83a4.084,4.084,0,0,0,4.083,4.083" transform="translate(-382.083 -588.875)" fill="#fff"/><path d="M735.119,1027.6a5.447,5.447,0,1,1,5.447,5.447,5.447,5.447,0,0,1-5.447-5.447" transform="translate(-444.464 -618.008)" fill="#d6e0ea"/></g></g></g></svg>